<?xml version="1.0" encoding="UTF-8" standalone="no"?>
<!DOCTYPE svg PUBLIC "-//W3C//DTD SVG 1.1//EN"
 "http://www.w3.org/Graphics/SVG/1.1/DTD/svg11.dtd">
<!-- Generated by graphviz version 2.38.0 (20140413.2041)
 -->
<!-- Title: std::ostringstream Pages: 1 -->
<svg width="132pt" height="274pt"
 viewBox="0.00 0.00 132.00 274.00" xmlns="http://www.w3.org/2000/svg" xmlns:xlink="http://www.w3.org/1999/xlink">
<g id="graph0" class="graph" transform="scale(1 1) rotate(0) translate(4 270)">
<title>std::ostringstream</title>
<polygon fill="white" stroke="none" points="-4,4 -4,-270 128,-270 128,4 -4,4"/>
<!-- Node1 -->
<g id="node1" class="node"><title>Node1</title>
<polygon fill="#bfbfbf" stroke="black" points="14.5,-0.5 14.5,-19.5 109.5,-19.5 109.5,-0.5 14.5,-0.5"/>
<text text-anchor="middle" x="62" y="-7.5" font-family="Helvetica,sans-Serif" font-size="10.00">std::ostringstream</text>
</g>
<!-- Node2 -->
<g id="node2" class="node"><title>Node2</title>
<g id="a_node2"><a xlink:title="STL class. ">
<polygon fill="white" stroke="#bfbfbf" points="0,-56.5 0,-86.5 124,-86.5 124,-56.5 0,-56.5"/>
<text text-anchor="start" x="8" y="-74.5" font-family="Helvetica,sans-Serif" font-size="10.00">std::basic_ostringstream</text>
<text text-anchor="middle" x="62" y="-63.5" font-family="Helvetica,sans-Serif" font-size="10.00">&lt; char &gt;</text>
</a>
</g>
</g>
<!-- Node2&#45;&gt;Node1 -->
<g id="edge1" class="edge"><title>Node2&#45;&gt;Node1</title>
<path fill="none" stroke="midnightblue" d="M62,-46.2892C62,-36.857 62,-26.6548 62,-19.6578"/>
<polygon fill="midnightblue" stroke="midnightblue" points="58.5001,-46.3993 62,-56.3993 65.5001,-46.3994 58.5001,-46.3993"/>
</g>
<!-- Node3 -->
<g id="node3" class="node"><title>Node3</title>
<g id="a_node3"><a xlink:title="STL class. ">
<polygon fill="white" stroke="#bfbfbf" points="12,-123.5 12,-153.5 112,-153.5 112,-123.5 12,-123.5"/>
<text text-anchor="start" x="20" y="-141.5" font-family="Helvetica,sans-Serif" font-size="10.00">std::basic_ostream</text>
<text text-anchor="middle" x="62" y="-130.5" font-family="Helvetica,sans-Serif" font-size="10.00">&lt; Char &gt;</text>
</a>
</g>
</g>
<!-- Node3&#45;&gt;Node2 -->
<g id="edge2" class="edge"><title>Node3&#45;&gt;Node2</title>
<path fill="none" stroke="midnightblue" d="M62,-113.108C62,-104.154 62,-94.3227 62,-86.5765"/>
<polygon fill="midnightblue" stroke="midnightblue" points="58.5001,-113.396 62,-123.396 65.5001,-113.396 58.5001,-113.396"/>
</g>
<!-- Node4 -->
<g id="node4" class="node"><title>Node4</title>
<g id="a_node4"><a xlink:title="STL class. ">
<polygon fill="white" stroke="#bfbfbf" points="4,-190.5 4,-209.5 120,-209.5 120,-190.5 4,-190.5"/>
<text text-anchor="middle" x="62" y="-197.5" font-family="Helvetica,sans-Serif" font-size="10.00">std::basic_ios&lt; Char &gt;</text>
</a>
</g>
</g>
<!-- Node4&#45;&gt;Node3 -->
<g id="edge3" class="edge"><title>Node4&#45;&gt;Node3</title>
<path fill="none" stroke="midnightblue" d="M62,-180.235C62,-171.586 62,-161.497 62,-153.523"/>
<polygon fill="midnightblue" stroke="midnightblue" points="58.5001,-180.475 62,-190.475 65.5001,-180.475 58.5001,-180.475"/>
</g>
<!-- Node5 -->
<g id="node5" class="node"><title>Node5</title>
<g id="a_node5"><a xlink:title="STL class. ">
<polygon fill="white" stroke="#bfbfbf" points="24.5,-246.5 24.5,-265.5 99.5,-265.5 99.5,-246.5 24.5,-246.5"/>
<text text-anchor="middle" x="62" y="-253.5" font-family="Helvetica,sans-Serif" font-size="10.00">std::ios_base</text>
</a>
</g>
</g>
<!-- Node5&#45;&gt;Node4 -->
<g id="edge4" class="edge"><title>Node5&#45;&gt;Node4</title>
<path fill="none" stroke="midnightblue" d="M62,-235.805C62,-226.91 62,-216.78 62,-209.751"/>
<polygon fill="midnightblue" stroke="midnightblue" points="58.5001,-236.083 62,-246.083 65.5001,-236.083 58.5001,-236.083"/>
</g>
</g>
</svg>
