<?xml version="1.0" encoding="UTF-8" standalone="no"?>
<!DOCTYPE svg PUBLIC "-//W3C//DTD SVG 1.1//EN"
 "http://www.w3.org/Graphics/SVG/1.1/DTD/svg11.dtd">
<!-- Generated by graphviz version 2.38.0 (20140413.2041)
 -->
<!-- Title: std::basic_ofstream&lt; Char &gt; Pages: 1 -->
<svg width="272pt" height="274pt"
 viewBox="0.00 0.00 271.50 274.00" xmlns="http://www.w3.org/2000/svg" xmlns:xlink="http://www.w3.org/1999/xlink">
<g id="graph0" class="graph" transform="scale(1 1) rotate(0) translate(4 270)">
<title>std::basic_ofstream&lt; Char &gt;</title>
<polygon fill="white" stroke="none" points="-4,4 -4,-270 267.5,-270 267.5,4 -4,4"/>
<!-- Node1 -->
<g id="node1" class="node"><title>Node1</title>
<polygon fill="#bfbfbf" stroke="black" points="74,-56.5 74,-86.5 177,-86.5 177,-56.5 74,-56.5"/>
<text text-anchor="start" x="82" y="-74.5" font-family="Helvetica,sans-Serif" font-size="10.00">std::basic_ofstream</text>
<text text-anchor="middle" x="125.5" y="-63.5" font-family="Helvetica,sans-Serif" font-size="10.00">&lt; Char &gt;</text>
</g>
<!-- Node5 -->
<g id="node5" class="node"><title>Node5</title>
<g id="a_node5"><a xlink:title="STL class. ">
<polygon fill="white" stroke="#bfbfbf" points="0,-0.5 0,-19.5 111,-19.5 111,-0.5 0,-0.5"/>
<text text-anchor="middle" x="55.5" y="-7.5" font-family="Helvetica,sans-Serif" font-size="10.00">std::ofstream&lt; char &gt;</text>
</a>
</g>
</g>
<!-- Node1&#45;&gt;Node5 -->
<g id="edge4" class="edge"><title>Node1&#45;&gt;Node5</title>
<path fill="none" stroke="midnightblue" d="M101.257,-49.8934C89.0803,-39.5432 74.9796,-27.5577 65.6856,-19.6578"/>
<polygon fill="midnightblue" stroke="midnightblue" points="99.0248,-52.5896 108.911,-56.3993 103.558,-47.256 99.0248,-52.5896"/>
</g>
<!-- Node6 -->
<g id="node6" class="node"><title>Node6</title>
<g id="a_node6"><a xlink:title="STL class. ">
<polygon fill="white" stroke="#bfbfbf" points="129.5,-0.5 129.5,-19.5 263.5,-19.5 263.5,-0.5 129.5,-0.5"/>
<text text-anchor="middle" x="196.5" y="-7.5" font-family="Helvetica,sans-Serif" font-size="10.00">std::wofstream&lt; wchar_t &gt;</text>
</a>
</g>
</g>
<!-- Node1&#45;&gt;Node6 -->
<g id="edge5" class="edge"><title>Node1&#45;&gt;Node6</title>
<path fill="none" stroke="midnightblue" d="M150.089,-49.8934C162.44,-39.5432 176.742,-27.5577 186.169,-19.6578"/>
<polygon fill="midnightblue" stroke="midnightblue" points="147.742,-47.2937 142.326,-56.3993 152.239,-52.6588 147.742,-47.2937"/>
</g>
<!-- Node2 -->
<g id="node2" class="node"><title>Node2</title>
<g id="a_node2"><a xlink:title="STL class. ">
<polygon fill="white" stroke="#bfbfbf" points="75.5,-123.5 75.5,-153.5 175.5,-153.5 175.5,-123.5 75.5,-123.5"/>
<text text-anchor="start" x="83.5" y="-141.5" font-family="Helvetica,sans-Serif" font-size="10.00">std::basic_ostream</text>
<text text-anchor="middle" x="125.5" y="-130.5" font-family="Helvetica,sans-Serif" font-size="10.00">&lt; Char &gt;</text>
</a>
</g>
</g>
<!-- Node2&#45;&gt;Node1 -->
<g id="edge1" class="edge"><title>Node2&#45;&gt;Node1</title>
<path fill="none" stroke="midnightblue" d="M125.5,-113.108C125.5,-104.154 125.5,-94.3227 125.5,-86.5765"/>
<polygon fill="midnightblue" stroke="midnightblue" points="122,-113.396 125.5,-123.396 129,-113.396 122,-113.396"/>
</g>
<!-- Node3 -->
<g id="node3" class="node"><title>Node3</title>
<g id="a_node3"><a xlink:title="STL class. ">
<polygon fill="white" stroke="#bfbfbf" points="67.5,-190.5 67.5,-209.5 183.5,-209.5 183.5,-190.5 67.5,-190.5"/>
<text text-anchor="middle" x="125.5" y="-197.5" font-family="Helvetica,sans-Serif" font-size="10.00">std::basic_ios&lt; Char &gt;</text>
</a>
</g>
</g>
<!-- Node3&#45;&gt;Node2 -->
<g id="edge2" class="edge"><title>Node3&#45;&gt;Node2</title>
<path fill="none" stroke="midnightblue" d="M125.5,-180.235C125.5,-171.586 125.5,-161.497 125.5,-153.523"/>
<polygon fill="midnightblue" stroke="midnightblue" points="122,-180.475 125.5,-190.475 129,-180.475 122,-180.475"/>
</g>
<!-- Node4 -->
<g id="node4" class="node"><title>Node4</title>
<g id="a_node4"><a xlink:title="STL class. ">
<polygon fill="white" stroke="#bfbfbf" points="88,-246.5 88,-265.5 163,-265.5 163,-246.5 88,-246.5"/>
<text text-anchor="middle" x="125.5" y="-253.5" font-family="Helvetica,sans-Serif" font-size="10.00">std::ios_base</text>
</a>
</g>
</g>
<!-- Node4&#45;&gt;Node3 -->
<g id="edge3" class="edge"><title>Node4&#45;&gt;Node3</title>
<path fill="none" stroke="midnightblue" d="M125.5,-235.805C125.5,-226.91 125.5,-216.78 125.5,-209.751"/>
<polygon fill="midnightblue" stroke="midnightblue" points="122,-236.083 125.5,-246.083 129,-236.083 122,-236.083"/>
</g>
</g>
</svg>
