<?xml version="1.0" encoding="UTF-8" standalone="no"?>
<!DOCTYPE svg PUBLIC "-//W3C//DTD SVG 1.1//EN"
 "http://www.w3.org/Graphics/SVG/1.1/DTD/svg11.dtd">
<!-- Generated by graphviz version 2.38.0 (20140413.2041)
 -->
<!-- Title: std::basic_ostringstream&lt; Char &gt; Pages: 1 -->
<svg width="224pt" height="285pt"
 viewBox="0.00 0.00 224.00 285.00" xmlns="http://www.w3.org/2000/svg" xmlns:xlink="http://www.w3.org/1999/xlink">
<g id="graph0" class="graph" transform="scale(1 1) rotate(0) translate(4 281)">
<title>std::basic_ostringstream&lt; Char &gt;</title>
<polygon fill="white" stroke="none" points="-4,4 -4,-281 220,-281 220,4 -4,4"/>
<!-- Node1 -->
<g id="node1" class="node"><title>Node1</title>
<polygon fill="#bfbfbf" stroke="black" points="43.5,-67.5 43.5,-97.5 167.5,-97.5 167.5,-67.5 43.5,-67.5"/>
<text text-anchor="start" x="51.5" y="-85.5" font-family="Helvetica,sans-Serif" font-size="10.00">std::basic_ostringstream</text>
<text text-anchor="middle" x="105.5" y="-74.5" font-family="Helvetica,sans-Serif" font-size="10.00">&lt; Char &gt;</text>
</g>
<!-- Node5 -->
<g id="node5" class="node"><title>Node5</title>
<g id="a_node5"><a xlink:title="STL class. ">
<polygon fill="white" stroke="#bfbfbf" points="0,-0.5 0,-30.5 95,-30.5 95,-0.5 0,-0.5"/>
<text text-anchor="start" x="8" y="-18.5" font-family="Helvetica,sans-Serif" font-size="10.00">std::ostringstream</text>
<text text-anchor="middle" x="47.5" y="-7.5" font-family="Helvetica,sans-Serif" font-size="10.00">&lt; char &gt;</text>
</a>
</g>
</g>
<!-- Node1&#45;&gt;Node5 -->
<g id="edge4" class="edge"><title>Node1&#45;&gt;Node5</title>
<path fill="none" stroke="midnightblue" d="M86.08,-59.7362C77.4985,-50.119 67.6562,-39.0888 60.0606,-30.5765"/>
<polygon fill="midnightblue" stroke="midnightblue" points="83.6455,-62.2648 92.9149,-67.396 88.8685,-57.6043 83.6455,-62.2648"/>
</g>
<!-- Node6 -->
<g id="node6" class="node"><title>Node6</title>
<g id="a_node6"><a xlink:title="STL class. ">
<polygon fill="white" stroke="#bfbfbf" points="113,-0.5 113,-30.5 216,-30.5 216,-0.5 113,-0.5"/>
<text text-anchor="start" x="121" y="-18.5" font-family="Helvetica,sans-Serif" font-size="10.00">std::wostringstream</text>
<text text-anchor="middle" x="164.5" y="-7.5" font-family="Helvetica,sans-Serif" font-size="10.00">&lt; wchar_t &gt;</text>
</a>
</g>
</g>
<!-- Node1&#45;&gt;Node6 -->
<g id="edge5" class="edge"><title>Node1&#45;&gt;Node6</title>
<path fill="none" stroke="midnightblue" d="M125.255,-59.7362C133.984,-50.119 143.996,-39.0888 151.723,-30.5765"/>
<polygon fill="midnightblue" stroke="midnightblue" points="122.432,-57.639 118.302,-67.396 127.615,-62.3438 122.432,-57.639"/>
</g>
<!-- Node2 -->
<g id="node2" class="node"><title>Node2</title>
<g id="a_node2"><a xlink:title="STL class. ">
<polygon fill="white" stroke="#bfbfbf" points="55.5,-134.5 55.5,-164.5 155.5,-164.5 155.5,-134.5 55.5,-134.5"/>
<text text-anchor="start" x="63.5" y="-152.5" font-family="Helvetica,sans-Serif" font-size="10.00">std::basic_ostream</text>
<text text-anchor="middle" x="105.5" y="-141.5" font-family="Helvetica,sans-Serif" font-size="10.00">&lt; Char &gt;</text>
</a>
</g>
</g>
<!-- Node2&#45;&gt;Node1 -->
<g id="edge1" class="edge"><title>Node2&#45;&gt;Node1</title>
<path fill="none" stroke="midnightblue" d="M105.5,-124.108C105.5,-115.154 105.5,-105.323 105.5,-97.5765"/>
<polygon fill="midnightblue" stroke="midnightblue" points="102,-124.396 105.5,-134.396 109,-124.396 102,-124.396"/>
</g>
<!-- Node3 -->
<g id="node3" class="node"><title>Node3</title>
<g id="a_node3"><a xlink:title="STL class. ">
<polygon fill="white" stroke="#bfbfbf" points="47.5,-201.5 47.5,-220.5 163.5,-220.5 163.5,-201.5 47.5,-201.5"/>
<text text-anchor="middle" x="105.5" y="-208.5" font-family="Helvetica,sans-Serif" font-size="10.00">std::basic_ios&lt; Char &gt;</text>
</a>
</g>
</g>
<!-- Node3&#45;&gt;Node2 -->
<g id="edge2" class="edge"><title>Node3&#45;&gt;Node2</title>
<path fill="none" stroke="midnightblue" d="M105.5,-191.235C105.5,-182.586 105.5,-172.497 105.5,-164.523"/>
<polygon fill="midnightblue" stroke="midnightblue" points="102,-191.475 105.5,-201.475 109,-191.475 102,-191.475"/>
</g>
<!-- Node4 -->
<g id="node4" class="node"><title>Node4</title>
<g id="a_node4"><a xlink:title="STL class. ">
<polygon fill="white" stroke="#bfbfbf" points="68,-257.5 68,-276.5 143,-276.5 143,-257.5 68,-257.5"/>
<text text-anchor="middle" x="105.5" y="-264.5" font-family="Helvetica,sans-Serif" font-size="10.00">std::ios_base</text>
</a>
</g>
</g>
<!-- Node4&#45;&gt;Node3 -->
<g id="edge3" class="edge"><title>Node4&#45;&gt;Node3</title>
<path fill="none" stroke="midnightblue" d="M105.5,-246.805C105.5,-237.91 105.5,-227.78 105.5,-220.751"/>
<polygon fill="midnightblue" stroke="midnightblue" points="102,-247.083 105.5,-257.083 109,-247.083 102,-247.083"/>
</g>
</g>
</svg>
