<?xml version="1.0" encoding="UTF-8" standalone="no"?>
<!DOCTYPE svg PUBLIC "-//W3C//DTD SVG 1.1//EN"
 "http://www.w3.org/Graphics/SVG/1.1/DTD/svg11.dtd">
<!-- Generated by graphviz version 2.38.0 (20140413.2041)
 -->
<!-- Title: std::basic_istream&lt; Char &gt; Pages: 1 -->
<svg width="871pt" height="559pt"
 viewBox="0.00 0.00 871.00 558.50" xmlns="http://www.w3.org/2000/svg" xmlns:xlink="http://www.w3.org/1999/xlink">
<g id="graph0" class="graph" transform="scale(1 1) rotate(0) translate(4 554.5)">
<title>std::basic_istream&lt; Char &gt;</title>
<polygon fill="white" stroke="none" points="-4,4 -4,-554.5 867,-554.5 867,4 -4,4"/>
<!-- Node1 -->
<g id="node1" class="node"><title>Node1</title>
<polygon fill="#bfbfbf" stroke="black" points="263,-318.5 263,-348.5 360,-348.5 360,-318.5 263,-318.5"/>
<text text-anchor="start" x="271" y="-336.5" font-family="Helvetica,sans-Serif" font-size="10.00">std::basic_istream</text>
<text text-anchor="middle" x="311.5" y="-325.5" font-family="Helvetica,sans-Serif" font-size="10.00">&lt; Char &gt;</text>
</g>
<!-- Node4 -->
<g id="node4" class="node"><title>Node4</title>
<polygon fill="white" stroke="#bfbfbf" points="405,-531 405,-550 522,-550 522,-531 405,-531"/>
<text text-anchor="middle" x="463.5" y="-538" font-family="Helvetica,sans-Serif" font-size="10.00">basic_ifstream&lt; char &gt;</text>
</g>
<!-- Node1&#45;&gt;Node4 -->
<g id="edge3" class="edge"><title>Node1&#45;&gt;Node4</title>
<path fill="none" stroke="midnightblue" d="M316.694,-358.836C324.726,-399.248 346.126,-478.147 396,-521.5 400.44,-525.36 405.617,-528.438 411.086,-530.893"/>
<polygon fill="midnightblue" stroke="midnightblue" points="320.087,-357.936 314.811,-348.749 313.206,-359.221 320.087,-357.936"/>
</g>
<!-- Node5 -->
<g id="node5" class="node"><title>Node5</title>
<polygon fill="white" stroke="#bfbfbf" points="397,-493 397,-512 530,-512 530,-493 397,-493"/>
<text text-anchor="middle" x="463.5" y="-500" font-family="Helvetica,sans-Serif" font-size="10.00">basic_ifstream&lt; wchar_t &gt;</text>
</g>
<!-- Node1&#45;&gt;Node5 -->
<g id="edge4" class="edge"><title>Node1&#45;&gt;Node5</title>
<path fill="none" stroke="midnightblue" d="M319.834,-358.764C330.859,-392.256 354.912,-450.91 396,-483.5 400.892,-487.38 406.54,-490.468 412.436,-492.925"/>
<polygon fill="midnightblue" stroke="midnightblue" points="323.051,-357.326 316.707,-348.839 316.374,-359.429 323.051,-357.326"/>
</g>
<!-- Node6 -->
<g id="node6" class="node"><title>Node6</title>
<polygon fill="white" stroke="#bfbfbf" points="404,-455 404,-474 523,-474 523,-455 404,-455"/>
<text text-anchor="middle" x="463.5" y="-462" font-family="Helvetica,sans-Serif" font-size="10.00">basic_iostream&lt; char &gt;</text>
</g>
<!-- Node1&#45;&gt;Node6 -->
<g id="edge5" class="edge"><title>Node1&#45;&gt;Node6</title>
<path fill="none" stroke="midnightblue" d="M324.408,-357.722C338.191,-383.272 363.258,-422.896 396,-445.5 401.632,-449.388 408.053,-452.487 414.632,-454.955"/>
<polygon fill="midnightblue" stroke="midnightblue" points="327.418,-355.926 319.685,-348.684 321.214,-359.168 327.418,-355.926"/>
</g>
<!-- Node7 -->
<g id="node7" class="node"><title>Node7</title>
<polygon fill="white" stroke="#bfbfbf" points="396,-417 396,-436 531,-436 531,-417 396,-417"/>
<text text-anchor="middle" x="463.5" y="-424" font-family="Helvetica,sans-Serif" font-size="10.00">basic_iostream&lt; wchar_t &gt;</text>
</g>
<!-- Node1&#45;&gt;Node7 -->
<g id="edge6" class="edge"><title>Node1&#45;&gt;Node7</title>
<path fill="none" stroke="midnightblue" d="M333.262,-356.231C349.066,-372.312 372.108,-393.284 396,-406.5 403.701,-410.76 412.418,-414.217 420.944,-416.982"/>
<polygon fill="midnightblue" stroke="midnightblue" points="335.563,-353.574 326.113,-348.785 330.514,-358.422 335.563,-353.574"/>
</g>
<!-- Node8 -->
<g id="node8" class="node"><title>Node8</title>
<polygon fill="white" stroke="#bfbfbf" points="413,-367.5 413,-397.5 514,-397.5 514,-367.5 413,-367.5"/>
<text text-anchor="start" x="421" y="-385.5" font-family="Helvetica,sans-Serif" font-size="10.00">basic_istringstream</text>
<text text-anchor="middle" x="463.5" y="-374.5" font-family="Helvetica,sans-Serif" font-size="10.00">&lt; char &gt;</text>
</g>
<!-- Node1&#45;&gt;Node8 -->
<g id="edge7" class="edge"><title>Node1&#45;&gt;Node8</title>
<path fill="none" stroke="midnightblue" d="M368.395,-351.759C384.216,-356.927 401.252,-362.492 416.424,-367.448"/>
<polygon fill="midnightblue" stroke="midnightblue" points="369.321,-348.38 358.729,-348.601 367.148,-355.034 369.321,-348.38"/>
</g>
<!-- Node9 -->
<g id="node9" class="node"><title>Node9</title>
<polygon fill="white" stroke="#bfbfbf" points="413,-318.5 413,-348.5 514,-348.5 514,-318.5 413,-318.5"/>
<text text-anchor="start" x="421" y="-336.5" font-family="Helvetica,sans-Serif" font-size="10.00">basic_istringstream</text>
<text text-anchor="middle" x="463.5" y="-325.5" font-family="Helvetica,sans-Serif" font-size="10.00">&lt; wchar_t &gt;</text>
</g>
<!-- Node1&#45;&gt;Node9 -->
<g id="edge8" class="edge"><title>Node1&#45;&gt;Node9</title>
<path fill="none" stroke="midnightblue" d="M370.378,-333.5C384.362,-333.5 399.185,-333.5 412.758,-333.5"/>
<polygon fill="midnightblue" stroke="midnightblue" points="370.373,-330 360.373,-333.5 370.373,-337 370.373,-330"/>
</g>
<!-- Node10 -->
<g id="node10" class="node"><title>Node10</title>
<g id="a_node10"><a xlink:title="STL class. ">
<polygon fill="white" stroke="#bfbfbf" points="413.5,-269.5 413.5,-299.5 513.5,-299.5 513.5,-269.5 413.5,-269.5"/>
<text text-anchor="start" x="421.5" y="-287.5" font-family="Helvetica,sans-Serif" font-size="10.00">std::basic_ifstream</text>
<text text-anchor="middle" x="463.5" y="-276.5" font-family="Helvetica,sans-Serif" font-size="10.00">&lt; Char &gt;</text>
</a>
</g>
</g>
<!-- Node1&#45;&gt;Node10 -->
<g id="edge9" class="edge"><title>Node1&#45;&gt;Node10</title>
<path fill="none" stroke="midnightblue" d="M368.395,-315.241C384.216,-310.073 401.252,-304.508 416.424,-299.552"/>
<polygon fill="midnightblue" stroke="midnightblue" points="367.148,-311.966 358.729,-318.399 369.321,-318.62 367.148,-311.966"/>
</g>
<!-- Node13 -->
<g id="node13" class="node"><title>Node13</title>
<g id="a_node13"><a xlink:title="STL class. ">
<polygon fill="white" stroke="#bfbfbf" points="412.5,-220.5 412.5,-250.5 514.5,-250.5 514.5,-220.5 412.5,-220.5"/>
<text text-anchor="start" x="420.5" y="-238.5" font-family="Helvetica,sans-Serif" font-size="10.00">std::basic_iostream</text>
<text text-anchor="middle" x="463.5" y="-227.5" font-family="Helvetica,sans-Serif" font-size="10.00">&lt; Char &gt;</text>
</a>
</g>
</g>
<!-- Node1&#45;&gt;Node13 -->
<g id="edge12" class="edge"><title>Node1&#45;&gt;Node13</title>
<path fill="none" stroke="midnightblue" d="M333.425,-310.83C349.31,-294.713 372.382,-273.521 396,-259.5 401.594,-256.179 407.722,-253.205 413.923,-250.575"/>
<polygon fill="midnightblue" stroke="midnightblue" points="330.66,-308.655 326.234,-318.281 335.697,-313.517 330.66,-308.655"/>
</g>
<!-- Node24 -->
<g id="node24" class="node"><title>Node24</title>
<g id="a_node24"><a xlink:title="STL class. ">
<polygon fill="white" stroke="#bfbfbf" points="403,-171.5 403,-201.5 524,-201.5 524,-171.5 403,-171.5"/>
<text text-anchor="start" x="411" y="-189.5" font-family="Helvetica,sans-Serif" font-size="10.00">std::basic_istringstream</text>
<text text-anchor="middle" x="463.5" y="-178.5" font-family="Helvetica,sans-Serif" font-size="10.00">&lt; Char &gt;</text>
</a>
</g>
</g>
<!-- Node1&#45;&gt;Node24 -->
<g id="edge23" class="edge"><title>Node1&#45;&gt;Node24</title>
<path fill="none" stroke="midnightblue" d="M323.312,-309.041C336.666,-281.459 361.87,-237.009 396,-210.5 400.362,-207.112 405.245,-204.173 410.332,-201.631"/>
<polygon fill="midnightblue" stroke="midnightblue" points="320.011,-307.835 318.933,-318.375 326.349,-310.808 320.011,-307.835"/>
</g>
<!-- Node27 -->
<g id="node27" class="node"><title>Node27</title>
<g id="a_node27"><a xlink:title="STL class. ">
<polygon fill="white" stroke="#bfbfbf" points="411,-133 411,-152 516,-152 516,-133 411,-133"/>
<text text-anchor="middle" x="463.5" y="-140" font-family="Helvetica,sans-Serif" font-size="10.00">std::istream&lt; char &gt;</text>
</a>
</g>
</g>
<!-- Node1&#45;&gt;Node27 -->
<g id="edge26" class="edge"><title>Node1&#45;&gt;Node27</title>
<path fill="none" stroke="midnightblue" d="M317.866,-308.17C327.157,-270.568 349.846,-200.263 396,-161.5 400.597,-157.639 405.936,-154.561 411.55,-152.108"/>
<polygon fill="midnightblue" stroke="midnightblue" points="314.369,-307.753 315.496,-318.287 321.184,-309.349 314.369,-307.753"/>
</g>
<!-- Node28 -->
<g id="node28" class="node"><title>Node28</title>
<g id="a_node28"><a xlink:title="STL class. ">
<polygon fill="white" stroke="#bfbfbf" points="399.5,-95 399.5,-114 527.5,-114 527.5,-95 399.5,-95"/>
<text text-anchor="middle" x="463.5" y="-102" font-family="Helvetica,sans-Serif" font-size="10.00">std::wistream&lt; wchar_t &gt;</text>
</a>
</g>
</g>
<!-- Node1&#45;&gt;Node28 -->
<g id="edge27" class="edge"><title>Node1&#45;&gt;Node28</title>
<path fill="none" stroke="midnightblue" d="M315.366,-308.087C321.705,-263.985 341.011,-173.24 396,-123.5 400.274,-119.634 405.284,-116.549 410.602,-114.09"/>
<polygon fill="midnightblue" stroke="midnightblue" points="311.864,-307.868 314.019,-318.241 318.803,-308.788 311.864,-307.868"/>
</g>
<!-- Node2 -->
<g id="node2" class="node"><title>Node2</title>
<g id="a_node2"><a xlink:title="STL class. ">
<polygon fill="white" stroke="#bfbfbf" points="111,-324 111,-343 227,-343 227,-324 111,-324"/>
<text text-anchor="middle" x="169" y="-331" font-family="Helvetica,sans-Serif" font-size="10.00">std::basic_ios&lt; Char &gt;</text>
</a>
</g>
</g>
<!-- Node2&#45;&gt;Node1 -->
<g id="edge1" class="edge"><title>Node2&#45;&gt;Node1</title>
<path fill="none" stroke="midnightblue" d="M237.238,-333.5C245.884,-333.5 254.592,-333.5 262.835,-333.5"/>
<polygon fill="midnightblue" stroke="midnightblue" points="237.147,-330 227.147,-333.5 237.147,-337 237.147,-330"/>
</g>
<!-- Node3 -->
<g id="node3" class="node"><title>Node3</title>
<g id="a_node3"><a xlink:title="STL class. ">
<polygon fill="white" stroke="#bfbfbf" points="0,-324 0,-343 75,-343 75,-324 0,-324"/>
<text text-anchor="middle" x="37.5" y="-331" font-family="Helvetica,sans-Serif" font-size="10.00">std::ios_base</text>
</a>
</g>
</g>
<!-- Node3&#45;&gt;Node2 -->
<g id="edge2" class="edge"><title>Node3&#45;&gt;Node2</title>
<path fill="none" stroke="midnightblue" d="M85.4322,-333.5C93.6719,-333.5 102.329,-333.5 110.811,-333.5"/>
<polygon fill="midnightblue" stroke="midnightblue" points="85.2631,-330 75.2631,-333.5 85.2631,-337 85.2631,-330"/>
</g>
<!-- Node11 -->
<g id="node11" class="node"><title>Node11</title>
<g id="a_node11"><a xlink:title="STL class. ">
<polygon fill="white" stroke="#bfbfbf" points="578.5,-409 578.5,-428 686.5,-428 686.5,-409 578.5,-409"/>
<text text-anchor="middle" x="632.5" y="-416" font-family="Helvetica,sans-Serif" font-size="10.00">std::ifstream&lt; char &gt;</text>
</a>
</g>
</g>
<!-- Node10&#45;&gt;Node11 -->
<g id="edge10" class="edge"><title>Node10&#45;&gt;Node11</title>
<path fill="none" stroke="midnightblue" d="M522.646,-301.826C525.64,-303.816 528.456,-306.032 531,-308.5 562.218,-338.785 534.889,-370.163 567,-399.5 571.223,-403.358 576.192,-406.435 581.468,-408.889"/>
<polygon fill="midnightblue" stroke="midnightblue" points="524.234,-298.702 513.812,-296.794 520.769,-304.785 524.234,-298.702"/>
</g>
<!-- Node12 -->
<g id="node12" class="node"><title>Node12</title>
<g id="a_node12"><a xlink:title="STL class. ">
<polygon fill="white" stroke="#bfbfbf" points="567,-371 567,-390 698,-390 698,-371 567,-371"/>
<text text-anchor="middle" x="632.5" y="-378" font-family="Helvetica,sans-Serif" font-size="10.00">std::wifstream&lt; wchar_t &gt;</text>
</a>
</g>
</g>
<!-- Node10&#45;&gt;Node12 -->
<g id="edge11" class="edge"><title>Node10&#45;&gt;Node12</title>
<path fill="none" stroke="midnightblue" d="M522.653,-302.876C525.577,-304.597 528.382,-306.467 531,-308.5 553.491,-325.964 543.996,-344.717 567,-361.5 572.281,-365.353 578.338,-368.429 584.579,-370.885"/>
<polygon fill="midnightblue" stroke="midnightblue" points="524.079,-299.672 513.593,-298.154 520.843,-305.88 524.079,-299.672"/>
</g>
<!-- Node14 -->
<g id="node14" class="node"><title>Node14</title>
<polygon fill="white" stroke="#bfbfbf" points="575,-333 575,-352 690,-352 690,-333 575,-333"/>
<text text-anchor="middle" x="632.5" y="-340" font-family="Helvetica,sans-Serif" font-size="10.00">basic_fstream&lt; char &gt;</text>
</g>
<!-- Node13&#45;&gt;Node14 -->
<g id="edge13" class="edge"><title>Node13&#45;&gt;Node14</title>
<path fill="none" stroke="midnightblue" d="M523.441,-253.978C526.101,-255.666 528.64,-257.503 531,-259.5 555.911,-280.584 541.469,-303.171 567,-323.5 571.84,-327.354 577.441,-330.426 583.28,-332.876"/>
<polygon fill="midnightblue" stroke="midnightblue" points="525.045,-250.866 514.602,-249.077 521.65,-256.987 525.045,-250.866"/>
</g>
<!-- Node15 -->
<g id="node15" class="node"><title>Node15</title>
<polygon fill="white" stroke="#bfbfbf" points="567,-295 567,-314 698,-314 698,-295 567,-295"/>
<text text-anchor="middle" x="632.5" y="-302" font-family="Helvetica,sans-Serif" font-size="10.00">basic_fstream&lt; wchar_t &gt;</text>
</g>
<!-- Node13&#45;&gt;Node15 -->
<g id="edge14" class="edge"><title>Node13&#45;&gt;Node15</title>
<path fill="none" stroke="midnightblue" d="M520.225,-254.373C523.918,-256.002 527.541,-257.714 531,-259.5 548.308,-268.438 549.492,-275.96 567,-284.5 575.43,-288.612 584.89,-292.107 593.913,-294.969"/>
<polygon fill="midnightblue" stroke="midnightblue" points="521.531,-251.125 510.955,-250.501 518.833,-257.585 521.531,-251.125"/>
</g>
<!-- Node16 -->
<g id="node16" class="node"><title>Node16</title>
<polygon fill="white" stroke="#bfbfbf" points="583,-245.5 583,-275.5 682,-275.5 682,-245.5 583,-245.5"/>
<text text-anchor="start" x="591" y="-263.5" font-family="Helvetica,sans-Serif" font-size="10.00">basic_stringstream</text>
<text text-anchor="middle" x="632.5" y="-252.5" font-family="Helvetica,sans-Serif" font-size="10.00">&lt; char &gt;</text>
</g>
<!-- Node13&#45;&gt;Node16 -->
<g id="edge15" class="edge"><title>Node13&#45;&gt;Node16</title>
<path fill="none" stroke="midnightblue" d="M524.708,-244.513C543.812,-247.373 564.683,-250.497 582.865,-253.219"/>
<polygon fill="midnightblue" stroke="midnightblue" points="525.014,-241.02 514.606,-243.001 523.977,-247.943 525.014,-241.02"/>
</g>
<!-- Node17 -->
<g id="node17" class="node"><title>Node17</title>
<polygon fill="white" stroke="#bfbfbf" points="583,-196.5 583,-226.5 682,-226.5 682,-196.5 583,-196.5"/>
<text text-anchor="start" x="591" y="-214.5" font-family="Helvetica,sans-Serif" font-size="10.00">basic_stringstream</text>
<text text-anchor="middle" x="632.5" y="-203.5" font-family="Helvetica,sans-Serif" font-size="10.00">&lt; wchar_t &gt;</text>
</g>
<!-- Node13&#45;&gt;Node17 -->
<g id="edge16" class="edge"><title>Node13&#45;&gt;Node17</title>
<path fill="none" stroke="midnightblue" d="M524.708,-226.847C543.812,-224.102 564.683,-221.102 582.865,-218.489"/>
<polygon fill="midnightblue" stroke="midnightblue" points="524.006,-223.412 514.606,-228.299 525.002,-230.341 524.006,-223.412"/>
</g>
<!-- Node18 -->
<g id="node18" class="node"><title>Node18</title>
<g id="a_node18"><a xlink:title="STL class. ">
<polygon fill="white" stroke="#bfbfbf" points="583.5,-147.5 583.5,-177.5 681.5,-177.5 681.5,-147.5 583.5,-147.5"/>
<text text-anchor="start" x="591.5" y="-165.5" font-family="Helvetica,sans-Serif" font-size="10.00">std::basic_fstream</text>
<text text-anchor="middle" x="632.5" y="-154.5" font-family="Helvetica,sans-Serif" font-size="10.00">&lt; Char &gt;</text>
</a>
</g>
</g>
<!-- Node13&#45;&gt;Node18 -->
<g id="edge17" class="edge"><title>Node13&#45;&gt;Node18</title>
<path fill="none" stroke="midnightblue" d="M518.319,-216.487C522.663,-214.585 526.939,-212.582 531,-210.5 548.111,-201.726 549.874,-195.245 567,-186.5 573.278,-183.294 580.088,-180.291 586.852,-177.568"/>
<polygon fill="midnightblue" stroke="midnightblue" points="516.633,-213.398 508.756,-220.484 519.332,-219.857 516.633,-213.398"/>
</g>
<!-- Node21 -->
<g id="node21" class="node"><title>Node21</title>
<g id="a_node21"><a xlink:title="STL class. ">
<polygon fill="white" stroke="#bfbfbf" points="573,-98.5 573,-128.5 692,-128.5 692,-98.5 573,-98.5"/>
<text text-anchor="start" x="581" y="-116.5" font-family="Helvetica,sans-Serif" font-size="10.00">std::basic_stringstream</text>
<text text-anchor="middle" x="632.5" y="-105.5" font-family="Helvetica,sans-Serif" font-size="10.00">&lt; Char &gt;</text>
</a>
</g>
</g>
<!-- Node13&#45;&gt;Node21 -->
<g id="edge20" class="edge"><title>Node13&#45;&gt;Node21</title>
<path fill="none" stroke="midnightblue" d="M523.581,-216.265C526.205,-214.503 528.698,-212.586 531,-210.5 557.809,-186.211 540.15,-161.743 567,-137.5 570.813,-134.057 575.165,-131.093 579.767,-128.545"/>
<polygon fill="midnightblue" stroke="midnightblue" points="521.697,-213.312 514.829,-221.379 525.229,-219.356 521.697,-213.312"/>
</g>
<!-- Node19 -->
<g id="node19" class="node"><title>Node19</title>
<g id="a_node19"><a xlink:title="STL class. ">
<polygon fill="white" stroke="#bfbfbf" points="745.5,-189 745.5,-208 851.5,-208 851.5,-189 745.5,-189"/>
<text text-anchor="middle" x="798.5" y="-196" font-family="Helvetica,sans-Serif" font-size="10.00">std::fstream&lt; char &gt;</text>
</a>
</g>
</g>
<!-- Node18&#45;&gt;Node19 -->
<g id="edge18" class="edge"><title>Node18&#45;&gt;Node19</title>
<path fill="none" stroke="midnightblue" d="M691.69,-175.273C712.207,-179.777 734.902,-184.759 753.995,-188.95"/>
<polygon fill="midnightblue" stroke="midnightblue" points="692.336,-171.832 681.818,-173.106 690.835,-178.669 692.336,-171.832"/>
</g>
<!-- Node20 -->
<g id="node20" class="node"><title>Node20</title>
<g id="a_node20"><a xlink:title="STL class. ">
<polygon fill="white" stroke="#bfbfbf" points="734,-151 734,-170 863,-170 863,-151 734,-151"/>
<text text-anchor="middle" x="798.5" y="-158" font-family="Helvetica,sans-Serif" font-size="10.00">std::wfstream&lt; wchar_t &gt;</text>
</a>
</g>
</g>
<!-- Node18&#45;&gt;Node20 -->
<g id="edge19" class="edge"><title>Node18&#45;&gt;Node20</title>
<path fill="none" stroke="midnightblue" d="M691.959,-161.787C705.493,-161.622 719.962,-161.446 733.712,-161.278"/>
<polygon fill="midnightblue" stroke="midnightblue" points="691.775,-158.289 681.818,-161.911 691.86,-165.288 691.775,-158.289"/>
</g>
<!-- Node22 -->
<g id="node22" class="node"><title>Node22</title>
<g id="a_node22"><a xlink:title="STL class. ">
<polygon fill="white" stroke="#bfbfbf" points="750.5,-100.5 750.5,-130.5 846.5,-130.5 846.5,-100.5 750.5,-100.5"/>
<text text-anchor="start" x="758.5" y="-118.5" font-family="Helvetica,sans-Serif" font-size="10.00">std::stringstream&lt;</text>
<text text-anchor="middle" x="798.5" y="-107.5" font-family="Helvetica,sans-Serif" font-size="10.00"> char &gt;</text>
</a>
</g>
</g>
<!-- Node21&#45;&gt;Node22 -->
<g id="edge21" class="edge"><title>Node21&#45;&gt;Node22</title>
<path fill="none" stroke="midnightblue" d="M702.701,-114.344C718.802,-114.54 735.578,-114.745 750.463,-114.926"/>
<polygon fill="midnightblue" stroke="midnightblue" points="702.287,-110.839 692.245,-114.216 702.201,-117.838 702.287,-110.839"/>
</g>
<!-- Node23 -->
<g id="node23" class="node"><title>Node23</title>
<g id="a_node23"><a xlink:title="STL class. ">
<polygon fill="white" stroke="#bfbfbf" points="749.5,-51.5 749.5,-81.5 847.5,-81.5 847.5,-51.5 749.5,-51.5"/>
<text text-anchor="start" x="757.5" y="-69.5" font-family="Helvetica,sans-Serif" font-size="10.00">std::wstringstream</text>
<text text-anchor="middle" x="798.5" y="-58.5" font-family="Helvetica,sans-Serif" font-size="10.00">&lt; wchar_t &gt;</text>
</a>
</g>
</g>
<!-- Node21&#45;&gt;Node23 -->
<g id="edge22" class="edge"><title>Node21&#45;&gt;Node23</title>
<path fill="none" stroke="midnightblue" d="M695.56,-95.7145C713.341,-90.6187 732.454,-85.1413 749.271,-80.3218"/>
<polygon fill="midnightblue" stroke="midnightblue" points="694.49,-92.3801 685.842,-98.4997 696.419,-99.1092 694.49,-92.3801"/>
</g>
<!-- Node25 -->
<g id="node25" class="node"><title>Node25</title>
<g id="a_node25"><a xlink:title="STL class. ">
<polygon fill="white" stroke="#bfbfbf" points="586.5,-49.5 586.5,-79.5 678.5,-79.5 678.5,-49.5 586.5,-49.5"/>
<text text-anchor="start" x="594.5" y="-67.5" font-family="Helvetica,sans-Serif" font-size="10.00">std::istringstream</text>
<text text-anchor="middle" x="632.5" y="-56.5" font-family="Helvetica,sans-Serif" font-size="10.00">&lt; char &gt;</text>
</a>
</g>
</g>
<!-- Node24&#45;&gt;Node25 -->
<g id="edge24" class="edge"><title>Node24&#45;&gt;Node25</title>
<path fill="none" stroke="midnightblue" d="M525.585,-165.87C527.479,-164.502 529.292,-163.048 531,-161.5 557.809,-137.211 540.15,-112.743 567,-88.5 572.587,-83.4555 579.33,-79.4404 586.322,-76.2534"/>
<polygon fill="midnightblue" stroke="midnightblue" points="523.476,-163.06 516.842,-171.322 527.18,-169 523.476,-163.06"/>
</g>
<!-- Node26 -->
<g id="node26" class="node"><title>Node26</title>
<g id="a_node26"><a xlink:title="STL class. ">
<polygon fill="white" stroke="#bfbfbf" points="582.5,-0.5 582.5,-30.5 682.5,-30.5 682.5,-0.5 582.5,-0.5"/>
<text text-anchor="start" x="590.5" y="-18.5" font-family="Helvetica,sans-Serif" font-size="10.00">std::wistringstream</text>
<text text-anchor="middle" x="632.5" y="-7.5" font-family="Helvetica,sans-Serif" font-size="10.00">&lt; wchar_t &gt;</text>
</a>
</g>
</g>
<!-- Node24&#45;&gt;Node26 -->
<g id="edge25" class="edge"><title>Node24&#45;&gt;Node26</title>
<path fill="none" stroke="midnightblue" d="M526.674,-165.621C528.198,-164.329 529.646,-162.956 531,-161.5 569.497,-120.099 528.433,-80.8358 567,-39.5 571.32,-34.8699 576.616,-31.1283 582.298,-28.1057"/>
<polygon fill="midnightblue" stroke="midnightblue" points="524.614,-162.792 518.501,-171.445 528.676,-168.493 524.614,-162.792"/>
</g>
</g>
</svg>
