<?xml version="1.0" encoding="UTF-8" standalone="no"?>
<!DOCTYPE svg PUBLIC "-//W3C//DTD SVG 1.1//EN"
 "http://www.w3.org/Graphics/SVG/1.1/DTD/svg11.dtd">
<!-- Generated by graphviz version 2.38.0 (20140413.2041)
 -->
<!-- Title: std::ios_base Pages: 1 -->
<svg width="925pt" height="823pt"
 viewBox="0.00 0.00 925.00 822.50" xmlns="http://www.w3.org/2000/svg" xmlns:xlink="http://www.w3.org/1999/xlink">
<g id="graph0" class="graph" transform="scale(1 1) rotate(0) translate(4 818.5)">
<title>std::ios_base</title>
<polygon fill="white" stroke="none" points="-4,4 -4,-818.5 921,-818.5 921,4 -4,4"/>
<!-- Node1 -->
<g id="node1" class="node"><title>Node1</title>
<polygon fill="#bfbfbf" stroke="black" points="0,-566 0,-585 75,-585 75,-566 0,-566"/>
<text text-anchor="middle" x="37.5" y="-573" font-family="Helvetica,sans-Serif" font-size="10.00">std::ios_base</text>
</g>
<!-- Node2 -->
<g id="node2" class="node"><title>Node2</title>
<polygon fill="white" stroke="#bfbfbf" points="119,-604 119,-623 233,-623 233,-604 119,-604"/>
<text text-anchor="middle" x="176" y="-611" font-family="Helvetica,sans-Serif" font-size="10.00">std::basic_ios&lt; char &gt;</text>
</g>
<!-- Node1&#45;&gt;Node2 -->
<g id="edge1" class="edge"><title>Node1&#45;&gt;Node2</title>
<path fill="none" stroke="midnightblue" d="M82.7487,-587.818C101.503,-593.039 123.028,-599.032 140.566,-603.914"/>
<polygon fill="midnightblue" stroke="midnightblue" points="83.5171,-584.399 72.9447,-585.089 81.6397,-591.143 83.5171,-584.399"/>
</g>
<!-- Node3 -->
<g id="node3" class="node"><title>Node3</title>
<polygon fill="white" stroke="#bfbfbf" points="111,-566 111,-585 241,-585 241,-566 111,-566"/>
<text text-anchor="middle" x="176" y="-573" font-family="Helvetica,sans-Serif" font-size="10.00">std::basic_ios&lt; wchar_t &gt;</text>
</g>
<!-- Node1&#45;&gt;Node3 -->
<g id="edge2" class="edge"><title>Node1&#45;&gt;Node3</title>
<path fill="none" stroke="midnightblue" d="M85.2608,-575.5C93.5298,-575.5 102.267,-575.5 110.915,-575.5"/>
<polygon fill="midnightblue" stroke="midnightblue" points="85.0795,-572 75.0795,-575.5 85.0795,-579 85.0795,-572"/>
</g>
<!-- Node4 -->
<g id="node4" class="node"><title>Node4</title>
<g id="a_node4"><a xlink:title="STL class. ">
<polygon fill="white" stroke="#bfbfbf" points="118,-528 118,-547 234,-547 234,-528 118,-528"/>
<text text-anchor="middle" x="176" y="-535" font-family="Helvetica,sans-Serif" font-size="10.00">std::basic_ios&lt; Char &gt;</text>
</a>
</g>
</g>
<!-- Node1&#45;&gt;Node4 -->
<g id="edge3" class="edge"><title>Node1&#45;&gt;Node4</title>
<path fill="none" stroke="midnightblue" d="M82.7487,-563.182C101.503,-557.961 123.028,-551.968 140.566,-547.086"/>
<polygon fill="midnightblue" stroke="midnightblue" points="81.6397,-559.857 72.9447,-565.911 83.5171,-566.601 81.6397,-559.857"/>
</g>
<!-- Node5 -->
<g id="node5" class="node"><title>Node5</title>
<polygon fill="white" stroke="#bfbfbf" points="286.5,-664 286.5,-683 400.5,-683 400.5,-664 286.5,-664"/>
<text text-anchor="middle" x="343.5" y="-671" font-family="Helvetica,sans-Serif" font-size="10.00">basic_istream&lt; char &gt;</text>
</g>
<!-- Node4&#45;&gt;Node5 -->
<g id="edge4" class="edge"><title>Node4&#45;&gt;Node5</title>
<path fill="none" stroke="midnightblue" d="M235.607,-552.145C237.51,-553.473 239.318,-554.921 241,-556.5 274.835,-588.253 243.066,-622.853 277,-654.5 281.156,-658.376 286.057,-661.467 291.276,-663.93"/>
<polygon fill="midnightblue" stroke="midnightblue" points="237.156,-548.998 226.74,-547.055 233.671,-555.069 237.156,-548.998"/>
</g>
<!-- Node6 -->
<g id="node6" class="node"><title>Node6</title>
<polygon fill="white" stroke="#bfbfbf" points="278.5,-626 278.5,-645 408.5,-645 408.5,-626 278.5,-626"/>
<text text-anchor="middle" x="343.5" y="-633" font-family="Helvetica,sans-Serif" font-size="10.00">basic_istream&lt; wchar_t &gt;</text>
</g>
<!-- Node4&#45;&gt;Node6 -->
<g id="edge5" class="edge"><title>Node4&#45;&gt;Node6</title>
<path fill="none" stroke="midnightblue" d="M233.189,-551.37C235.934,-552.904 238.56,-554.608 241,-556.5 265.577,-575.554 252.363,-597.523 277,-616.5 282.065,-620.402 287.908,-623.503 293.975,-625.967"/>
<polygon fill="midnightblue" stroke="midnightblue" points="234.622,-548.175 224.09,-547.022 231.604,-554.492 234.622,-548.175"/>
</g>
<!-- Node7 -->
<g id="node7" class="node"><title>Node7</title>
<polygon fill="white" stroke="#bfbfbf" points="285,-588 285,-607 402,-607 402,-588 285,-588"/>
<text text-anchor="middle" x="343.5" y="-595" font-family="Helvetica,sans-Serif" font-size="10.00">basic_ostream&lt; char &gt;</text>
</g>
<!-- Node4&#45;&gt;Node7 -->
<g id="edge6" class="edge"><title>Node4&#45;&gt;Node7</title>
<path fill="none" stroke="midnightblue" d="M224.984,-550.253C230.462,-552.147 235.904,-554.233 241,-556.5 258.132,-564.121 259.844,-570.932 277,-578.5 285.233,-582.132 294.351,-585.282 303.102,-587.916"/>
<polygon fill="midnightblue" stroke="midnightblue" points="225.745,-546.821 215.153,-547.057 223.581,-553.478 225.745,-546.821"/>
</g>
<!-- Node8 -->
<g id="node8" class="node"><title>Node8</title>
<polygon fill="white" stroke="#bfbfbf" points="277,-550 277,-569 410,-569 410,-550 277,-550"/>
<text text-anchor="middle" x="343.5" y="-557" font-family="Helvetica,sans-Serif" font-size="10.00">basic_ostream&lt; wchar_t &gt;</text>
</g>
<!-- Node4&#45;&gt;Node8 -->
<g id="edge7" class="edge"><title>Node4&#45;&gt;Node8</title>
<path fill="none" stroke="midnightblue" d="M244.547,-546.479C255.248,-547.902 266.301,-549.371 276.955,-550.787"/>
<polygon fill="midnightblue" stroke="midnightblue" points="244.793,-542.981 234.419,-545.133 243.871,-549.92 244.793,-542.981"/>
</g>
<!-- Node9 -->
<g id="node9" class="node"><title>Node9</title>
<g id="a_node9"><a xlink:title="STL class. ">
<polygon fill="white" stroke="#bfbfbf" points="295,-295.5 295,-325.5 392,-325.5 392,-295.5 295,-295.5"/>
<text text-anchor="start" x="303" y="-313.5" font-family="Helvetica,sans-Serif" font-size="10.00">std::basic_istream</text>
<text text-anchor="middle" x="343.5" y="-302.5" font-family="Helvetica,sans-Serif" font-size="10.00">&lt; Char &gt;</text>
</a>
</g>
</g>
<!-- Node4&#45;&gt;Node9 -->
<g id="edge8" class="edge"><title>Node4&#45;&gt;Node9</title>
<path fill="none" stroke="midnightblue" d="M190.098,-519.534C221.784,-476.075 302.122,-365.882 331.513,-325.57"/>
<polygon fill="midnightblue" stroke="midnightblue" points="187.174,-517.604 184.111,-527.746 192.831,-521.728 187.174,-517.604"/>
</g>
<!-- Node35 -->
<g id="node35" class="node"><title>Node35</title>
<g id="a_node35"><a xlink:title="STL class. ">
<polygon fill="white" stroke="#bfbfbf" points="293.5,-500.5 293.5,-530.5 393.5,-530.5 393.5,-500.5 293.5,-500.5"/>
<text text-anchor="start" x="301.5" y="-518.5" font-family="Helvetica,sans-Serif" font-size="10.00">std::basic_ostream</text>
<text text-anchor="middle" x="343.5" y="-507.5" font-family="Helvetica,sans-Serif" font-size="10.00">&lt; Char &gt;</text>
</a>
</g>
</g>
<!-- Node4&#45;&gt;Node35 -->
<g id="edge34" class="edge"><title>Node4&#45;&gt;Node35</title>
<path fill="none" stroke="midnightblue" d="M244.491,-528.528C260.877,-526.35 278.089,-524.062 293.438,-522.022"/>
<polygon fill="midnightblue" stroke="midnightblue" points="243.871,-525.08 234.419,-529.867 244.793,-532.019 243.871,-525.08"/>
</g>
<!-- Node48 -->
<g id="node48" class="node"><title>Node48</title>
<g id="a_node48"><a xlink:title="STL class. ">
<polygon fill="white" stroke="#bfbfbf" points="300.5,-257 300.5,-276 386.5,-276 386.5,-257 300.5,-257"/>
<text text-anchor="middle" x="343.5" y="-264" font-family="Helvetica,sans-Serif" font-size="10.00">std::ios&lt; char &gt;</text>
</a>
</g>
</g>
<!-- Node4&#45;&gt;Node48 -->
<g id="edge50" class="edge"><title>Node4&#45;&gt;Node48</title>
<path fill="none" stroke="midnightblue" d="M179.011,-517.678C184.888,-470.305 206.367,-349.694 277,-285.5 283.572,-279.527 291.915,-275.424 300.427,-272.606"/>
<polygon fill="midnightblue" stroke="midnightblue" points="175.509,-517.499 177.856,-527.83 182.464,-518.29 175.509,-517.499"/>
</g>
<!-- Node49 -->
<g id="node49" class="node"><title>Node49</title>
<g id="a_node49"><a xlink:title="STL class. ">
<polygon fill="white" stroke="#bfbfbf" points="289,-219 289,-238 398,-238 398,-219 289,-219"/>
<text text-anchor="middle" x="343.5" y="-226" font-family="Helvetica,sans-Serif" font-size="10.00">std::wios&lt; wchar_t &gt;</text>
</a>
</g>
</g>
<!-- Node4&#45;&gt;Node49 -->
<g id="edge51" class="edge"><title>Node4&#45;&gt;Node49</title>
<path fill="none" stroke="midnightblue" d="M177.839,-517.585C181.139,-465.359 197.369,-323.266 277,-247.5 281.032,-243.664 285.791,-240.596 290.874,-238.144"/>
<polygon fill="midnightblue" stroke="midnightblue" points="174.331,-517.652 177.291,-527.825 181.321,-518.027 174.331,-517.652"/>
</g>
<!-- Node10 -->
<g id="node10" class="node"><title>Node10</title>
<polygon fill="white" stroke="#bfbfbf" points="455.5,-282 455.5,-301 572.5,-301 572.5,-282 455.5,-282"/>
<text text-anchor="middle" x="514" y="-289" font-family="Helvetica,sans-Serif" font-size="10.00">basic_ifstream&lt; char &gt;</text>
</g>
<!-- Node9&#45;&gt;Node10 -->
<g id="edge9" class="edge"><title>Node9&#45;&gt;Node10</title>
<path fill="none" stroke="midnightblue" d="M402.73,-303.934C419.8,-302.009 438.45,-299.906 455.476,-297.986"/>
<polygon fill="midnightblue" stroke="midnightblue" points="401.879,-300.508 392.335,-305.106 402.664,-307.464 401.879,-300.508"/>
</g>
<!-- Node11 -->
<g id="node11" class="node"><title>Node11</title>
<polygon fill="white" stroke="#bfbfbf" points="447.5,-244 447.5,-263 580.5,-263 580.5,-244 447.5,-244"/>
<text text-anchor="middle" x="514" y="-251" font-family="Helvetica,sans-Serif" font-size="10.00">basic_ifstream&lt; wchar_t &gt;</text>
</g>
<!-- Node9&#45;&gt;Node11 -->
<g id="edge10" class="edge"><title>Node9&#45;&gt;Node11</title>
<path fill="none" stroke="midnightblue" d="M393.187,-291.844C413.906,-283.994 435.652,-275.898 446,-272.5 456.109,-269.181 467.185,-265.898 477.368,-263.02"/>
<polygon fill="midnightblue" stroke="midnightblue" points="391.889,-288.593 383.784,-295.416 394.375,-295.136 391.889,-288.593"/>
</g>
<!-- Node12 -->
<g id="node12" class="node"><title>Node12</title>
<polygon fill="white" stroke="#bfbfbf" points="454.5,-358 454.5,-377 573.5,-377 573.5,-358 454.5,-358"/>
<text text-anchor="middle" x="514" y="-365" font-family="Helvetica,sans-Serif" font-size="10.00">basic_iostream&lt; char &gt;</text>
</g>
<!-- Node9&#45;&gt;Node12 -->
<g id="edge11" class="edge"><title>Node9&#45;&gt;Node12</title>
<path fill="none" stroke="midnightblue" d="M392.416,-329.359C409.252,-335.74 428.366,-342.71 446,-348.5 456.109,-351.819 467.185,-355.102 477.368,-357.98"/>
<polygon fill="midnightblue" stroke="midnightblue" points="393.386,-325.983 382.796,-325.683 390.888,-332.522 393.386,-325.983"/>
</g>
<!-- Node13 -->
<g id="node13" class="node"><title>Node13</title>
<polygon fill="white" stroke="#bfbfbf" points="446.5,-446 446.5,-465 581.5,-465 581.5,-446 446.5,-446"/>
<text text-anchor="middle" x="514" y="-453" font-family="Helvetica,sans-Serif" font-size="10.00">basic_iostream&lt; wchar_t &gt;</text>
</g>
<!-- Node9&#45;&gt;Node13 -->
<g id="edge12" class="edge"><title>Node9&#45;&gt;Node13</title>
<path fill="none" stroke="midnightblue" d="M357.852,-334.496C374.772,-362.735 406.542,-409.113 446,-435.5 452.458,-439.819 459.875,-443.228 467.367,-445.913"/>
<polygon fill="midnightblue" stroke="midnightblue" points="360.761,-332.537 352.693,-325.669 354.717,-336.069 360.761,-332.537"/>
</g>
<!-- Node14 -->
<g id="node14" class="node"><title>Node14</title>
<polygon fill="white" stroke="#bfbfbf" points="463.5,-194.5 463.5,-224.5 564.5,-224.5 564.5,-194.5 463.5,-194.5"/>
<text text-anchor="start" x="471.5" y="-212.5" font-family="Helvetica,sans-Serif" font-size="10.00">basic_istringstream</text>
<text text-anchor="middle" x="514" y="-201.5" font-family="Helvetica,sans-Serif" font-size="10.00">&lt; char &gt;</text>
</g>
<!-- Node9&#45;&gt;Node14 -->
<g id="edge13" class="edge"><title>Node9&#45;&gt;Node14</title>
<path fill="none" stroke="midnightblue" d="M401.134,-291.473C404.241,-289.643 407.224,-287.656 410,-285.5 431.912,-268.481 424.025,-251.437 446,-234.5 451.212,-230.483 457.137,-227.058 463.258,-224.152"/>
<polygon fill="midnightblue" stroke="midnightblue" points="399.331,-288.467 392.112,-296.221 402.591,-294.661 399.331,-288.467"/>
</g>
<!-- Node15 -->
<g id="node15" class="node"><title>Node15</title>
<polygon fill="white" stroke="#bfbfbf" points="463.5,-145.5 463.5,-175.5 564.5,-175.5 564.5,-145.5 463.5,-145.5"/>
<text text-anchor="start" x="471.5" y="-163.5" font-family="Helvetica,sans-Serif" font-size="10.00">basic_istringstream</text>
<text text-anchor="middle" x="514" y="-152.5" font-family="Helvetica,sans-Serif" font-size="10.00">&lt; wchar_t &gt;</text>
</g>
<!-- Node9&#45;&gt;Node15 -->
<g id="edge14" class="edge"><title>Node9&#45;&gt;Node15</title>
<path fill="none" stroke="midnightblue" d="M401.132,-292.834C404.336,-290.662 407.332,-288.227 410,-285.5 443.321,-251.43 412.329,-218.224 446,-184.5 450.889,-179.604 456.845,-175.701 463.167,-172.591"/>
<polygon fill="midnightblue" stroke="midnightblue" points="399.137,-289.945 392.246,-297.992 402.652,-295.999 399.137,-289.945"/>
</g>
<!-- Node16 -->
<g id="node16" class="node"><title>Node16</title>
<g id="a_node16"><a xlink:title="STL class. ">
<polygon fill="white" stroke="#bfbfbf" points="464,-96.5 464,-126.5 564,-126.5 564,-96.5 464,-96.5"/>
<text text-anchor="start" x="472" y="-114.5" font-family="Helvetica,sans-Serif" font-size="10.00">std::basic_ifstream</text>
<text text-anchor="middle" x="514" y="-103.5" font-family="Helvetica,sans-Serif" font-size="10.00">&lt; Char &gt;</text>
</a>
</g>
</g>
<!-- Node9&#45;&gt;Node16 -->
<g id="edge15" class="edge"><title>Node9&#45;&gt;Node16</title>
<path fill="none" stroke="midnightblue" d="M400.872,-293.584C404.226,-291.23 407.32,-288.55 410,-285.5 455.252,-233.995 400.219,-186.535 446,-135.5 450.868,-130.074 457.051,-125.874 463.684,-122.623"/>
<polygon fill="midnightblue" stroke="midnightblue" points="398.904,-290.682 392.085,-298.791 402.473,-296.704 398.904,-290.682"/>
</g>
<!-- Node19 -->
<g id="node19" class="node"><title>Node19</title>
<g id="a_node19"><a xlink:title="STL class. ">
<polygon fill="white" stroke="#bfbfbf" points="463,-396.5 463,-426.5 565,-426.5 565,-396.5 463,-396.5"/>
<text text-anchor="start" x="471" y="-414.5" font-family="Helvetica,sans-Serif" font-size="10.00">std::basic_iostream</text>
<text text-anchor="middle" x="514" y="-403.5" font-family="Helvetica,sans-Serif" font-size="10.00">&lt; Char &gt;</text>
</a>
</g>
</g>
<!-- Node9&#45;&gt;Node19 -->
<g id="edge18" class="edge"><title>Node9&#45;&gt;Node19</title>
<path fill="none" stroke="midnightblue" d="M369.297,-332.259C389.045,-348.772 417.938,-371.172 446,-386.5 452.647,-390.13 459.93,-393.45 467.169,-396.401"/>
<polygon fill="midnightblue" stroke="midnightblue" points="371.313,-329.379 361.423,-325.58 366.785,-334.718 371.313,-329.379"/>
</g>
<!-- Node30 -->
<g id="node30" class="node"><title>Node30</title>
<g id="a_node30"><a xlink:title="STL class. ">
<polygon fill="white" stroke="#bfbfbf" points="453.5,-47.5 453.5,-77.5 574.5,-77.5 574.5,-47.5 453.5,-47.5"/>
<text text-anchor="start" x="461.5" y="-65.5" font-family="Helvetica,sans-Serif" font-size="10.00">std::basic_istringstream</text>
<text text-anchor="middle" x="514" y="-54.5" font-family="Helvetica,sans-Serif" font-size="10.00">&lt; Char &gt;</text>
</a>
</g>
</g>
<!-- Node9&#45;&gt;Node30 -->
<g id="edge29" class="edge"><title>Node9&#45;&gt;Node30</title>
<path fill="none" stroke="midnightblue" d="M400.907,-293.871C404.279,-291.449 407.365,-288.676 410,-285.5 467.39,-216.328 387.899,-155.076 446,-86.5 448.875,-83.1063 452.267,-80.1924 455.973,-77.6906"/>
<polygon fill="midnightblue" stroke="midnightblue" points="398.808,-291.049 392.034,-299.195 402.409,-297.051 398.808,-291.049"/>
</g>
<!-- Node33 -->
<g id="node33" class="node"><title>Node33</title>
<g id="a_node33"><a xlink:title="STL class. ">
<polygon fill="white" stroke="#bfbfbf" points="461.5,-9 461.5,-28 566.5,-28 566.5,-9 461.5,-9"/>
<text text-anchor="middle" x="514" y="-16" font-family="Helvetica,sans-Serif" font-size="10.00">std::istream&lt; char &gt;</text>
</a>
</g>
</g>
<!-- Node9&#45;&gt;Node33 -->
<g id="edge32" class="edge"><title>Node9&#45;&gt;Node33</title>
<path fill="none" stroke="midnightblue" d="M401.033,-293.973C404.375,-291.528 407.421,-288.722 410,-285.5 479.614,-198.559 372.617,-121.285 446,-37.5 450.222,-32.6795 455.568,-29.0406 461.391,-26.3007"/>
<polygon fill="midnightblue" stroke="midnightblue" points="398.936,-291.152 392.209,-299.338 402.572,-297.134 398.936,-291.152"/>
</g>
<!-- Node34 -->
<g id="node34" class="node"><title>Node34</title>
<g id="a_node34"><a xlink:title="STL class. ">
<polygon fill="white" stroke="#bfbfbf" points="450,-320 450,-339 578,-339 578,-320 450,-320"/>
<text text-anchor="middle" x="514" y="-327" font-family="Helvetica,sans-Serif" font-size="10.00">std::wistream&lt; wchar_t &gt;</text>
</a>
</g>
</g>
<!-- Node9&#45;&gt;Node34 -->
<g id="edge33" class="edge"><title>Node9&#45;&gt;Node34</title>
<path fill="none" stroke="midnightblue" d="M402.663,-317.058C417.915,-318.778 434.432,-320.641 449.927,-322.388"/>
<polygon fill="midnightblue" stroke="midnightblue" points="402.664,-313.536 392.335,-315.894 401.879,-320.492 402.664,-313.536"/>
</g>
<!-- Node17 -->
<g id="node17" class="node"><title>Node17</title>
<g id="a_node17"><a xlink:title="STL class. ">
<polygon fill="white" stroke="#bfbfbf" points="631,-138 631,-157 739,-157 739,-138 631,-138"/>
<text text-anchor="middle" x="685" y="-145" font-family="Helvetica,sans-Serif" font-size="10.00">std::ifstream&lt; char &gt;</text>
</a>
</g>
</g>
<!-- Node16&#45;&gt;Node17 -->
<g id="edge16" class="edge"><title>Node16&#45;&gt;Node17</title>
<path fill="none" stroke="midnightblue" d="M574.273,-124.126C595.615,-128.672 619.32,-133.722 639.22,-137.961"/>
<polygon fill="midnightblue" stroke="midnightblue" points="574.846,-120.67 564.336,-122.009 573.387,-127.516 574.846,-120.67"/>
</g>
<!-- Node18 -->
<g id="node18" class="node"><title>Node18</title>
<g id="a_node18"><a xlink:title="STL class. ">
<polygon fill="white" stroke="#bfbfbf" points="619.5,-100 619.5,-119 750.5,-119 750.5,-100 619.5,-100"/>
<text text-anchor="middle" x="685" y="-107" font-family="Helvetica,sans-Serif" font-size="10.00">std::wifstream&lt; wchar_t &gt;</text>
</a>
</g>
</g>
<!-- Node16&#45;&gt;Node18 -->
<g id="edge17" class="edge"><title>Node16&#45;&gt;Node18</title>
<path fill="none" stroke="midnightblue" d="M574.685,-110.794C589.195,-110.622 604.777,-110.438 619.499,-110.263"/>
<polygon fill="midnightblue" stroke="midnightblue" points="574.294,-107.298 564.336,-110.916 574.377,-114.297 574.294,-107.298"/>
</g>
<!-- Node20 -->
<g id="node20" class="node"><title>Node20</title>
<polygon fill="white" stroke="#bfbfbf" points="627.5,-372 627.5,-391 742.5,-391 742.5,-372 627.5,-372"/>
<text text-anchor="middle" x="685" y="-379" font-family="Helvetica,sans-Serif" font-size="10.00">basic_fstream&lt; char &gt;</text>
</g>
<!-- Node19&#45;&gt;Node20 -->
<g id="edge19" class="edge"><title>Node19&#45;&gt;Node20</title>
<path fill="none" stroke="midnightblue" d="M575.337,-400.789C593.319,-397.597 612.896,-394.122 630.416,-391.012"/>
<polygon fill="midnightblue" stroke="midnightblue" points="574.482,-397.386 565.248,-402.58 575.706,-404.278 574.482,-397.386"/>
</g>
<!-- Node21 -->
<g id="node21" class="node"><title>Node21</title>
<polygon fill="white" stroke="#bfbfbf" points="619.5,-334 619.5,-353 750.5,-353 750.5,-334 619.5,-334"/>
<text text-anchor="middle" x="685" y="-341" font-family="Helvetica,sans-Serif" font-size="10.00">basic_fstream&lt; wchar_t &gt;</text>
</g>
<!-- Node19&#45;&gt;Node21 -->
<g id="edge20" class="edge"><title>Node19&#45;&gt;Node21</title>
<path fill="none" stroke="midnightblue" d="M569.431,-392.417C573.737,-390.537 577.974,-388.558 582,-386.5 599.122,-377.747 600.554,-370.589 618,-362.5 626.005,-358.788 634.897,-355.635 643.494,-353.027"/>
<polygon fill="midnightblue" stroke="midnightblue" points="567.834,-389.291 559.949,-396.368 570.526,-395.752 567.834,-389.291"/>
</g>
<!-- Node22 -->
<g id="node22" class="node"><title>Node22</title>
<polygon fill="white" stroke="#bfbfbf" points="635.5,-284.5 635.5,-314.5 734.5,-314.5 734.5,-284.5 635.5,-284.5"/>
<text text-anchor="start" x="643.5" y="-302.5" font-family="Helvetica,sans-Serif" font-size="10.00">basic_stringstream</text>
<text text-anchor="middle" x="685" y="-291.5" font-family="Helvetica,sans-Serif" font-size="10.00">&lt; char &gt;</text>
</g>
<!-- Node19&#45;&gt;Node22 -->
<g id="edge21" class="edge"><title>Node19&#45;&gt;Node22</title>
<path fill="none" stroke="midnightblue" d="M573.932,-392.364C576.774,-390.572 579.486,-388.622 582,-386.5 606.352,-365.95 593.699,-345.11 618,-324.5 623.139,-320.141 629.117,-316.501 635.335,-313.472"/>
<polygon fill="midnightblue" stroke="midnightblue" points="572.13,-389.361 565.088,-397.276 575.529,-395.481 572.13,-389.361"/>
</g>
<!-- Node23 -->
<g id="node23" class="node"><title>Node23</title>
<polygon fill="white" stroke="#bfbfbf" points="635.5,-235.5 635.5,-265.5 734.5,-265.5 734.5,-235.5 635.5,-235.5"/>
<text text-anchor="start" x="643.5" y="-253.5" font-family="Helvetica,sans-Serif" font-size="10.00">basic_stringstream</text>
<text text-anchor="middle" x="685" y="-242.5" font-family="Helvetica,sans-Serif" font-size="10.00">&lt; wchar_t &gt;</text>
</g>
<!-- Node19&#45;&gt;Node23 -->
<g id="edge22" class="edge"><title>Node19&#45;&gt;Node23</title>
<path fill="none" stroke="midnightblue" d="M573.947,-393.393C576.853,-391.335 579.568,-389.046 582,-386.5 618.109,-348.685 581.733,-312.163 618,-274.5 622.905,-269.406 628.975,-265.388 635.431,-262.221"/>
<polygon fill="midnightblue" stroke="midnightblue" points="572.079,-390.432 565.33,-398.599 575.699,-396.424 572.079,-390.432"/>
</g>
<!-- Node24 -->
<g id="node24" class="node"><title>Node24</title>
<g id="a_node24"><a xlink:title="STL class. ">
<polygon fill="white" stroke="#bfbfbf" points="636,-459.5 636,-489.5 734,-489.5 734,-459.5 636,-459.5"/>
<text text-anchor="start" x="644" y="-477.5" font-family="Helvetica,sans-Serif" font-size="10.00">std::basic_fstream</text>
<text text-anchor="middle" x="685" y="-466.5" font-family="Helvetica,sans-Serif" font-size="10.00">&lt; Char &gt;</text>
</a>
</g>
</g>
<!-- Node19&#45;&gt;Node24 -->
<g id="edge23" class="edge"><title>Node19&#45;&gt;Node24</title>
<path fill="none" stroke="midnightblue" d="M565.16,-430.199C590.176,-439.524 620.03,-450.653 643.558,-459.424"/>
<polygon fill="midnightblue" stroke="midnightblue" points="566.072,-426.804 555.48,-426.59 563.627,-433.363 566.072,-426.804"/>
</g>
<!-- Node27 -->
<g id="node27" class="node"><title>Node27</title>
<g id="a_node27"><a xlink:title="STL class. ">
<polygon fill="white" stroke="#bfbfbf" points="625.5,-410.5 625.5,-440.5 744.5,-440.5 744.5,-410.5 625.5,-410.5"/>
<text text-anchor="start" x="633.5" y="-428.5" font-family="Helvetica,sans-Serif" font-size="10.00">std::basic_stringstream</text>
<text text-anchor="middle" x="685" y="-417.5" font-family="Helvetica,sans-Serif" font-size="10.00">&lt; Char &gt;</text>
</a>
</g>
</g>
<!-- Node19&#45;&gt;Node27 -->
<g id="edge26" class="edge"><title>Node19&#45;&gt;Node27</title>
<path fill="none" stroke="midnightblue" d="M575.661,-416.525C591.828,-417.864 609.262,-419.309 625.32,-420.639"/>
<polygon fill="midnightblue" stroke="midnightblue" points="575.503,-413 565.248,-415.663 574.925,-419.976 575.503,-413"/>
</g>
<!-- Node25 -->
<g id="node25" class="node"><title>Node25</title>
<g id="a_node25"><a xlink:title="STL class. ">
<polygon fill="white" stroke="#bfbfbf" points="799.5,-501 799.5,-520 905.5,-520 905.5,-501 799.5,-501"/>
<text text-anchor="middle" x="852.5" y="-508" font-family="Helvetica,sans-Serif" font-size="10.00">std::fstream&lt; char &gt;</text>
</a>
</g>
</g>
<!-- Node24&#45;&gt;Node25 -->
<g id="edge24" class="edge"><title>Node24&#45;&gt;Node25</title>
<path fill="none" stroke="midnightblue" d="M744.33,-487.188C765.155,-491.718 788.247,-496.741 807.647,-500.961"/>
<polygon fill="midnightblue" stroke="midnightblue" points="744.83,-483.715 734.314,-485.009 743.342,-490.555 744.83,-483.715"/>
</g>
<!-- Node26 -->
<g id="node26" class="node"><title>Node26</title>
<g id="a_node26"><a xlink:title="STL class. ">
<polygon fill="white" stroke="#bfbfbf" points="788,-463 788,-482 917,-482 917,-463 788,-463"/>
<text text-anchor="middle" x="852.5" y="-470" font-family="Helvetica,sans-Serif" font-size="10.00">std::wfstream&lt; wchar_t &gt;</text>
</a>
</g>
</g>
<!-- Node24&#45;&gt;Node26 -->
<g id="edge25" class="edge"><title>Node24&#45;&gt;Node26</title>
<path fill="none" stroke="midnightblue" d="M744.332,-473.795C758.375,-473.625 773.45,-473.443 787.727,-473.271"/>
<polygon fill="midnightblue" stroke="midnightblue" points="744.271,-470.295 734.314,-473.916 744.356,-477.295 744.271,-470.295"/>
</g>
<!-- Node28 -->
<g id="node28" class="node"><title>Node28</title>
<g id="a_node28"><a xlink:title="STL class. ">
<polygon fill="white" stroke="#bfbfbf" points="804.5,-412.5 804.5,-442.5 900.5,-442.5 900.5,-412.5 804.5,-412.5"/>
<text text-anchor="start" x="812.5" y="-430.5" font-family="Helvetica,sans-Serif" font-size="10.00">std::stringstream&lt;</text>
<text text-anchor="middle" x="852.5" y="-419.5" font-family="Helvetica,sans-Serif" font-size="10.00"> char &gt;</text>
</a>
</g>
</g>
<!-- Node27&#45;&gt;Node28 -->
<g id="edge27" class="edge"><title>Node27&#45;&gt;Node28</title>
<path fill="none" stroke="midnightblue" d="M755.023,-426.334C771.614,-426.535 788.962,-426.744 804.299,-426.93"/>
<polygon fill="midnightblue" stroke="midnightblue" points="754.857,-422.832 744.815,-426.211 754.772,-429.831 754.857,-422.832"/>
</g>
<!-- Node29 -->
<g id="node29" class="node"><title>Node29</title>
<g id="a_node29"><a xlink:title="STL class. ">
<polygon fill="white" stroke="#bfbfbf" points="803.5,-363.5 803.5,-393.5 901.5,-393.5 901.5,-363.5 803.5,-363.5"/>
<text text-anchor="start" x="811.5" y="-381.5" font-family="Helvetica,sans-Serif" font-size="10.00">std::wstringstream</text>
<text text-anchor="middle" x="852.5" y="-370.5" font-family="Helvetica,sans-Serif" font-size="10.00">&lt; wchar_t &gt;</text>
</a>
</g>
</g>
<!-- Node27&#45;&gt;Node29 -->
<g id="edge28" class="edge"><title>Node27&#45;&gt;Node29</title>
<path fill="none" stroke="midnightblue" d="M748.468,-407.76C766.653,-402.596 786.23,-397.036 803.385,-392.164"/>
<polygon fill="midnightblue" stroke="midnightblue" points="747.484,-404.401 738.82,-410.5 749.396,-411.135 747.484,-404.401"/>
</g>
<!-- Node31 -->
<g id="node31" class="node"><title>Node31</title>
<g id="a_node31"><a xlink:title="STL class. ">
<polygon fill="white" stroke="#bfbfbf" points="639,-49.5 639,-79.5 731,-79.5 731,-49.5 639,-49.5"/>
<text text-anchor="start" x="647" y="-67.5" font-family="Helvetica,sans-Serif" font-size="10.00">std::istringstream</text>
<text text-anchor="middle" x="685" y="-56.5" font-family="Helvetica,sans-Serif" font-size="10.00">&lt; char &gt;</text>
</a>
</g>
</g>
<!-- Node30&#45;&gt;Node31 -->
<g id="edge30" class="edge"><title>Node30&#45;&gt;Node31</title>
<path fill="none" stroke="midnightblue" d="M584.616,-63.3239C602.895,-63.5402 622.132,-63.7678 638.761,-63.9646"/>
<polygon fill="midnightblue" stroke="midnightblue" points="584.624,-59.8238 574.583,-63.2051 584.541,-66.8233 584.624,-59.8238"/>
</g>
<!-- Node32 -->
<g id="node32" class="node"><title>Node32</title>
<g id="a_node32"><a xlink:title="STL class. ">
<polygon fill="white" stroke="#bfbfbf" points="635,-0.5 635,-30.5 735,-30.5 735,-0.5 635,-0.5"/>
<text text-anchor="start" x="643" y="-18.5" font-family="Helvetica,sans-Serif" font-size="10.00">std::wistringstream</text>
<text text-anchor="middle" x="685" y="-7.5" font-family="Helvetica,sans-Serif" font-size="10.00">&lt; wchar_t &gt;</text>
</a>
</g>
</g>
<!-- Node30&#45;&gt;Node32 -->
<g id="edge31" class="edge"><title>Node30&#45;&gt;Node32</title>
<path fill="none" stroke="midnightblue" d="M578.789,-44.7599C597.358,-39.5956 617.35,-34.0358 634.867,-29.1641"/>
<polygon fill="midnightblue" stroke="midnightblue" points="577.634,-41.4482 568.937,-47.4997 579.509,-48.1923 577.634,-41.4482"/>
</g>
<!-- Node35&#45;&gt;Node12 -->
<g id="edge35" class="edge"><title>Node35&#45;&gt;Node12</title>
<path fill="none" stroke="midnightblue" d="M357.335,-491.097C373.938,-461.899 405.585,-413.574 446,-386.5 451.826,-382.597 458.451,-379.487 465.215,-377.012"/>
<polygon fill="midnightblue" stroke="midnightblue" points="354.073,-489.763 352.291,-500.207 360.197,-493.154 354.073,-489.763"/>
</g>
<!-- Node35&#45;&gt;Node13 -->
<g id="edge36" class="edge"><title>Node35&#45;&gt;Node13</title>
<path fill="none" stroke="midnightblue" d="M388.843,-496.383C406.472,-489.1 427.038,-480.997 446,-474.5 455.836,-471.13 466.625,-467.879 476.617,-465.049"/>
<polygon fill="midnightblue" stroke="midnightblue" points="387.262,-493.25 379.379,-500.329 389.956,-499.71 387.262,-493.25"/>
</g>
<!-- Node35&#45;&gt;Node19 -->
<g id="edge41" class="edge"><title>Node35&#45;&gt;Node19</title>
<path fill="none" stroke="midnightblue" d="M368.183,-493.665C387.866,-476.388 417.212,-452.575 446,-436.5 452.504,-432.868 459.64,-429.566 466.754,-426.637"/>
<polygon fill="midnightblue" stroke="midnightblue" points="365.764,-491.132 360.624,-500.396 370.42,-496.359 365.764,-491.132"/>
</g>
<!-- Node36 -->
<g id="node36" class="node"><title>Node36</title>
<polygon fill="white" stroke="#bfbfbf" points="454,-757 454,-776 574,-776 574,-757 454,-757"/>
<text text-anchor="middle" x="514" y="-764" font-family="Helvetica,sans-Serif" font-size="10.00">basic_ofstream&lt; char &gt;</text>
</g>
<!-- Node35&#45;&gt;Node36 -->
<g id="edge37" class="edge"><title>Node35&#45;&gt;Node36</title>
<path fill="none" stroke="midnightblue" d="M402.261,-533.097C405.109,-535.283 407.725,-537.739 410,-540.5 469.382,-612.568 383.496,-678.123 446,-747.5 449.48,-751.363 453.681,-754.464 458.263,-756.95"/>
<polygon fill="midnightblue" stroke="midnightblue" points="404.017,-530.066 393.707,-527.627 400.246,-535.963 404.017,-530.066"/>
</g>
<!-- Node37 -->
<g id="node37" class="node"><title>Node37</title>
<polygon fill="white" stroke="#bfbfbf" points="446,-719 446,-738 582,-738 582,-719 446,-719"/>
<text text-anchor="middle" x="514" y="-726" font-family="Helvetica,sans-Serif" font-size="10.00">basic_ofstream&lt; wchar_t &gt;</text>
</g>
<!-- Node35&#45;&gt;Node37 -->
<g id="edge38" class="edge"><title>Node35&#45;&gt;Node37</title>
<path fill="none" stroke="midnightblue" d="M402.139,-533.199C405.018,-535.359 407.674,-537.783 410,-540.5 459.944,-598.838 393.531,-653.423 446,-709.5 449.635,-713.385 453.999,-716.495 458.735,-718.983"/>
<polygon fill="midnightblue" stroke="midnightblue" points="403.853,-530.142 393.525,-527.78 400.126,-536.067 403.853,-530.142"/>
</g>
<!-- Node38 -->
<g id="node38" class="node"><title>Node38</title>
<polygon fill="white" stroke="#bfbfbf" points="462,-669.5 462,-699.5 566,-699.5 566,-669.5 462,-669.5"/>
<text text-anchor="start" x="470" y="-687.5" font-family="Helvetica,sans-Serif" font-size="10.00">basic_ostringstream</text>
<text text-anchor="middle" x="514" y="-676.5" font-family="Helvetica,sans-Serif" font-size="10.00">&lt; char &gt;</text>
</g>
<!-- Node35&#45;&gt;Node38 -->
<g id="edge39" class="edge"><title>Node35&#45;&gt;Node38</title>
<path fill="none" stroke="midnightblue" d="M402.449,-533.836C405.176,-535.835 407.721,-538.048 410,-540.5 447.907,-581.286 407.674,-620.107 446,-660.5 450.507,-665.25 456.02,-669.063 461.929,-672.121"/>
<polygon fill="midnightblue" stroke="midnightblue" points="404.142,-530.768 393.801,-528.465 400.449,-536.715 404.142,-530.768"/>
</g>
<!-- Node39 -->
<g id="node39" class="node"><title>Node39</title>
<polygon fill="white" stroke="#bfbfbf" points="462,-620.5 462,-650.5 566,-650.5 566,-620.5 462,-620.5"/>
<text text-anchor="start" x="470" y="-638.5" font-family="Helvetica,sans-Serif" font-size="10.00">basic_ostringstream</text>
<text text-anchor="middle" x="514" y="-627.5" font-family="Helvetica,sans-Serif" font-size="10.00">&lt; wchar_t &gt;</text>
</g>
<!-- Node35&#45;&gt;Node39 -->
<g id="edge40" class="edge"><title>Node35&#45;&gt;Node39</title>
<path fill="none" stroke="midnightblue" d="M402.502,-534.735C405.152,-536.498 407.672,-538.416 410,-540.5 436.065,-563.835 419.848,-587.262 446,-610.5 450.64,-614.623 456.024,-618.09 461.683,-620.998"/>
<polygon fill="midnightblue" stroke="midnightblue" points="404.08,-531.603 393.674,-529.612 400.567,-537.658 404.08,-531.603"/>
</g>
<!-- Node40 -->
<g id="node40" class="node"><title>Node40</title>
<g id="a_node40"><a xlink:title="STL class. ">
<polygon fill="white" stroke="#bfbfbf" points="462.5,-571.5 462.5,-601.5 565.5,-601.5 565.5,-571.5 462.5,-571.5"/>
<text text-anchor="start" x="470.5" y="-589.5" font-family="Helvetica,sans-Serif" font-size="10.00">std::basic_ofstream</text>
<text text-anchor="middle" x="514" y="-578.5" font-family="Helvetica,sans-Serif" font-size="10.00">&lt; Char &gt;</text>
</a>
</g>
</g>
<!-- Node35&#45;&gt;Node40 -->
<g id="edge42" class="edge"><title>Node35&#45;&gt;Node40</title>
<path fill="none" stroke="midnightblue" d="M396.399,-534.403C401.04,-536.366 405.632,-538.41 410,-540.5 426.709,-548.496 429.262,-553.567 446,-561.5 453.405,-565.009 461.444,-568.371 469.3,-571.428"/>
<polygon fill="midnightblue" stroke="midnightblue" points="397.441,-531.048 386.86,-530.503 394.792,-537.527 397.441,-531.048"/>
</g>
<!-- Node43 -->
<g id="node43" class="node"><title>Node43</title>
<g id="a_node43"><a xlink:title="STL class. ">
<polygon fill="white" stroke="#bfbfbf" points="452,-522.5 452,-552.5 576,-552.5 576,-522.5 452,-522.5"/>
<text text-anchor="start" x="460" y="-540.5" font-family="Helvetica,sans-Serif" font-size="10.00">std::basic_ostringstream</text>
<text text-anchor="middle" x="514" y="-529.5" font-family="Helvetica,sans-Serif" font-size="10.00">&lt; Char &gt;</text>
</a>
</g>
</g>
<!-- Node35&#45;&gt;Node43 -->
<g id="edge45" class="edge"><title>Node35&#45;&gt;Node43</title>
<path fill="none" stroke="midnightblue" d="M403.713,-523.231C419.279,-525.263 436.099,-527.46 451.768,-529.505"/>
<polygon fill="midnightblue" stroke="midnightblue" points="404.059,-519.747 393.69,-521.922 403.153,-526.688 404.059,-519.747"/>
</g>
<!-- Node46 -->
<g id="node46" class="node"><title>Node46</title>
<g id="a_node46"><a xlink:title="STL class. ">
<polygon fill="white" stroke="#bfbfbf" points="460,-484 460,-503 568,-503 568,-484 460,-484"/>
<text text-anchor="middle" x="514" y="-491" font-family="Helvetica,sans-Serif" font-size="10.00">std::ostream&lt; char &gt;</text>
</a>
</g>
</g>
<!-- Node35&#45;&gt;Node46 -->
<g id="edge48" class="edge"><title>Node35&#45;&gt;Node46</title>
<path fill="none" stroke="midnightblue" d="M403.663,-507.775C421.982,-505.384 442.043,-502.764 459.922,-500.43"/>
<polygon fill="midnightblue" stroke="midnightblue" points="403.153,-504.312 393.69,-509.078 404.059,-511.253 403.153,-504.312"/>
</g>
<!-- Node47 -->
<g id="node47" class="node"><title>Node47</title>
<g id="a_node47"><a xlink:title="STL class. ">
<polygon fill="white" stroke="#bfbfbf" points="448.5,-795 448.5,-814 579.5,-814 579.5,-795 448.5,-795"/>
<text text-anchor="middle" x="514" y="-802" font-family="Helvetica,sans-Serif" font-size="10.00">std::wostream&lt; wchar_t &gt;</text>
</a>
</g>
</g>
<!-- Node35&#45;&gt;Node47 -->
<g id="edge49" class="edge"><title>Node35&#45;&gt;Node47</title>
<path fill="none" stroke="midnightblue" d="M402.197,-532.912C405.083,-535.143 407.722,-537.661 410,-540.5 478.864,-626.352 373.414,-702.771 446,-785.5 449.349,-789.317 453.403,-792.393 457.839,-794.869"/>
<polygon fill="midnightblue" stroke="midnightblue" points="403.819,-529.794 393.51,-527.349 400.044,-535.689 403.819,-529.794"/>
</g>
<!-- Node41 -->
<g id="node41" class="node"><title>Node41</title>
<g id="a_node41"><a xlink:title="STL class. ">
<polygon fill="white" stroke="#bfbfbf" points="629.5,-645 629.5,-664 740.5,-664 740.5,-645 629.5,-645"/>
<text text-anchor="middle" x="685" y="-652" font-family="Helvetica,sans-Serif" font-size="10.00">std::ofstream&lt; char &gt;</text>
</a>
</g>
</g>
<!-- Node40&#45;&gt;Node41 -->
<g id="edge43" class="edge"><title>Node40&#45;&gt;Node41</title>
<path fill="none" stroke="midnightblue" d="M571.651,-605.578C575.197,-607.144 578.674,-608.787 582,-610.5 599.319,-619.417 600.406,-627.139 618,-635.5 625.862,-639.236 634.606,-642.387 643.091,-644.981"/>
<polygon fill="midnightblue" stroke="midnightblue" points="572.74,-602.239 562.164,-601.616 570.043,-608.699 572.74,-602.239"/>
</g>
<!-- Node42 -->
<g id="node42" class="node"><title>Node42</title>
<g id="a_node42"><a xlink:title="STL class. ">
<polygon fill="white" stroke="#bfbfbf" points="618,-607 618,-626 752,-626 752,-607 618,-607"/>
<text text-anchor="middle" x="685" y="-614" font-family="Helvetica,sans-Serif" font-size="10.00">std::wofstream&lt; wchar_t &gt;</text>
</a>
</g>
</g>
<!-- Node40&#45;&gt;Node42 -->
<g id="edge44" class="edge"><title>Node40&#45;&gt;Node42</title>
<path fill="none" stroke="midnightblue" d="M575.983,-597.325C593.78,-600.485 613.089,-603.912 630.393,-606.984"/>
<polygon fill="midnightblue" stroke="midnightblue" points="576.163,-593.803 565.706,-595.501 574.94,-600.695 576.163,-593.803"/>
</g>
<!-- Node44 -->
<g id="node44" class="node"><title>Node44</title>
<g id="a_node44"><a xlink:title="STL class. ">
<polygon fill="white" stroke="#bfbfbf" points="637.5,-557.5 637.5,-587.5 732.5,-587.5 732.5,-557.5 637.5,-557.5"/>
<text text-anchor="start" x="645.5" y="-575.5" font-family="Helvetica,sans-Serif" font-size="10.00">std::ostringstream</text>
<text text-anchor="middle" x="685" y="-564.5" font-family="Helvetica,sans-Serif" font-size="10.00">&lt; char &gt;</text>
</a>
</g>
</g>
<!-- Node43&#45;&gt;Node44 -->
<g id="edge46" class="edge"><title>Node43&#45;&gt;Node44</title>
<path fill="none" stroke="midnightblue" d="M586.106,-552.226C603.439,-555.816 621.543,-559.565 637.401,-562.849"/>
<polygon fill="midnightblue" stroke="midnightblue" points="586.515,-548.737 576.013,-550.136 585.095,-555.591 586.515,-548.737"/>
</g>
<!-- Node45 -->
<g id="node45" class="node"><title>Node45</title>
<g id="a_node45"><a xlink:title="STL class. ">
<polygon fill="white" stroke="#bfbfbf" points="633.5,-508.5 633.5,-538.5 736.5,-538.5 736.5,-508.5 633.5,-508.5"/>
<text text-anchor="start" x="641.5" y="-526.5" font-family="Helvetica,sans-Serif" font-size="10.00">std::wostringstream</text>
<text text-anchor="middle" x="685" y="-515.5" font-family="Helvetica,sans-Serif" font-size="10.00">&lt; wchar_t &gt;</text>
</a>
</g>
</g>
<!-- Node43&#45;&gt;Node45 -->
<g id="edge47" class="edge"><title>Node43&#45;&gt;Node45</title>
<path fill="none" stroke="midnightblue" d="M586.295,-531.594C602.116,-530.283 618.571,-528.92 633.366,-527.695"/>
<polygon fill="midnightblue" stroke="midnightblue" points="585.69,-528.132 576.013,-532.446 586.268,-535.108 585.69,-528.132"/>
</g>
</g>
</svg>
