<?xml version="1.0" encoding="UTF-8" standalone="no"?>
<!DOCTYPE svg PUBLIC "-//W3C//DTD SVG 1.1//EN"
 "http://www.w3.org/Graphics/SVG/1.1/DTD/svg11.dtd">
<!-- Generated by graphviz version 2.38.0 (20140413.2041)
 -->
<!-- Title: std::unordered_map&lt; K, T &gt; Pages: 1 -->
<svg width="117pt" height="106pt"
 viewBox="0.00 0.00 116.50 106.00" xmlns="http://www.w3.org/2000/svg" xmlns:xlink="http://www.w3.org/1999/xlink">
<g id="graph0" class="graph" transform="scale(1 1) rotate(0) translate(4 102)">
<title>std::unordered_map&lt; K, T &gt;</title>
<polygon fill="white" stroke="none" points="-4,4 -4,-102 112.5,-102 112.5,4 -4,4"/>
<!-- Node1 -->
<g id="node1" class="node"><title>Node1</title>
<polygon fill="#bfbfbf" stroke="black" points="0,-0.5 0,-30.5 103,-30.5 103,-0.5 0,-0.5"/>
<text text-anchor="start" x="8" y="-18.5" font-family="Helvetica,sans-Serif" font-size="10.00">std::unordered_map</text>
<text text-anchor="middle" x="51.5" y="-7.5" font-family="Helvetica,sans-Serif" font-size="10.00">&lt; K, T &gt;</text>
</g>
<!-- Node2 -->
<g id="node2" class="node"><title>Node2</title>
<polygon fill="white" stroke="#bfbfbf" points="13,-78.5 13,-97.5 42,-97.5 42,-78.5 13,-78.5"/>
<text text-anchor="middle" x="27.5" y="-85.5" font-family="Helvetica,sans-Serif" font-size="10.00">K</text>
</g>
<!-- Node2&#45;&gt;Node1 -->
<g id="edge1" class="edge"><title>Node2&#45;&gt;Node1</title>
<path fill="none" stroke="#9a32cd" stroke-dasharray="5,2" d="M25.8403,-68.1169C25.8567,-61.8941 26.4953,-55.0274 28.5,-49 30.6815,-42.4409 34.6683,-36.047 38.717,-30.6901"/>
<polygon fill="#9a32cd" stroke="#9a32cd" points="22.3534,-68.479 26.3221,-78.3024 29.3456,-68.1481 22.3534,-68.479"/>
<text text-anchor="middle" x="41" y="-52" font-family="Helvetica,sans-Serif" font-size="10.00"> keys</text>
</g>
<!-- Node3 -->
<g id="node3" class="node"><title>Node3</title>
<polygon fill="white" stroke="#bfbfbf" points="61,-78.5 61,-97.5 90,-97.5 90,-78.5 61,-78.5"/>
<text text-anchor="middle" x="75.5" y="-85.5" font-family="Helvetica,sans-Serif" font-size="10.00">T</text>
</g>
<!-- Node3&#45;&gt;Node1 -->
<g id="edge2" class="edge"><title>Node3&#45;&gt;Node1</title>
<path fill="none" stroke="#9a32cd" stroke-dasharray="5,2" d="M69.2365,-68.601C65.1913,-56.7181 60.0087,-41.4943 56.2919,-30.5762"/>
<polygon fill="#9a32cd" stroke="#9a32cd" points="66.0211,-70.0168 72.5571,-78.3553 72.6477,-67.7609 66.0211,-70.0168"/>
<text text-anchor="middle" x="87" y="-52" font-family="Helvetica,sans-Serif" font-size="10.00"> elements</text>
</g>
</g>
</svg>
