<?xml version="1.0" encoding="UTF-8" standalone="no"?>
<!DOCTYPE svg PUBLIC "-//W3C//DTD SVG 1.1//EN"
 "http://www.w3.org/Graphics/SVG/1.1/DTD/svg11.dtd">
<!-- Generated by graphviz version 2.38.0 (20140413.2041)
 -->
<!-- Title: std::basic_ostream&lt; Char &gt; Pages: 1 -->
<svg width="878pt" height="503pt"
 viewBox="0.00 0.00 878.00 502.50" xmlns="http://www.w3.org/2000/svg" xmlns:xlink="http://www.w3.org/1999/xlink">
<g id="graph0" class="graph" transform="scale(1 1) rotate(0) translate(4 498.5)">
<title>std::basic_ostream&lt; Char &gt;</title>
<polygon fill="white" stroke="none" points="-4,4 -4,-498.5 874,-498.5 874,4 -4,4"/>
<!-- Node1 -->
<g id="node1" class="node"><title>Node1</title>
<polygon fill="#bfbfbf" stroke="black" points="263,-262.5 263,-292.5 363,-292.5 363,-262.5 263,-262.5"/>
<text text-anchor="start" x="271" y="-280.5" font-family="Helvetica,sans-Serif" font-size="10.00">std::basic_ostream</text>
<text text-anchor="middle" x="313" y="-269.5" font-family="Helvetica,sans-Serif" font-size="10.00">&lt; Char &gt;</text>
</g>
<!-- Node4 -->
<g id="node4" class="node"><title>Node4</title>
<polygon fill="white" stroke="#bfbfbf" points="407.5,-475 407.5,-494 526.5,-494 526.5,-475 407.5,-475"/>
<text text-anchor="middle" x="467" y="-482" font-family="Helvetica,sans-Serif" font-size="10.00">basic_iostream&lt; char &gt;</text>
</g>
<!-- Node1&#45;&gt;Node4 -->
<g id="edge3" class="edge"><title>Node1&#45;&gt;Node4</title>
<path fill="none" stroke="midnightblue" d="M318.346,-302.598C326.663,-342.959 348.683,-422.142 399,-465.5 403.488,-469.367 408.713,-472.45 414.227,-474.907"/>
<polygon fill="midnightblue" stroke="midnightblue" points="321.777,-301.91 316.434,-292.761 314.906,-303.245 321.777,-301.91"/>
</g>
<!-- Node5 -->
<g id="node5" class="node"><title>Node5</title>
<polygon fill="white" stroke="#bfbfbf" points="399.5,-437 399.5,-456 534.5,-456 534.5,-437 399.5,-437"/>
<text text-anchor="middle" x="467" y="-444" font-family="Helvetica,sans-Serif" font-size="10.00">basic_iostream&lt; wchar_t &gt;</text>
</g>
<!-- Node1&#45;&gt;Node5 -->
<g id="edge4" class="edge"><title>Node1&#45;&gt;Node5</title>
<path fill="none" stroke="midnightblue" d="M321.585,-302.781C332.943,-336.293 357.58,-394.968 399,-427.5 403.944,-431.383 409.645,-434.473 415.589,-436.931"/>
<polygon fill="midnightblue" stroke="midnightblue" points="324.778,-301.28 318.36,-292.85 318.12,-303.442 324.778,-301.28"/>
</g>
<!-- Node6 -->
<g id="node6" class="node"><title>Node6</title>
<polygon fill="white" stroke="#bfbfbf" points="407,-399 407,-418 527,-418 527,-399 407,-399"/>
<text text-anchor="middle" x="467" y="-406" font-family="Helvetica,sans-Serif" font-size="10.00">basic_ofstream&lt; char &gt;</text>
</g>
<!-- Node1&#45;&gt;Node6 -->
<g id="edge5" class="edge"><title>Node1&#45;&gt;Node6</title>
<path fill="none" stroke="midnightblue" d="M326.221,-301.733C340.338,-327.292 365.928,-366.924 399,-389.5 404.692,-393.385 411.171,-396.483 417.804,-398.95"/>
<polygon fill="midnightblue" stroke="midnightblue" points="329.186,-299.856 321.381,-292.691 323.015,-303.159 329.186,-299.856"/>
</g>
<!-- Node7 -->
<g id="node7" class="node"><title>Node7</title>
<polygon fill="white" stroke="#bfbfbf" points="399,-361 399,-380 535,-380 535,-361 399,-361"/>
<text text-anchor="middle" x="467" y="-368" font-family="Helvetica,sans-Serif" font-size="10.00">basic_ofstream&lt; wchar_t &gt;</text>
</g>
<!-- Node1&#45;&gt;Node7 -->
<g id="edge6" class="edge"><title>Node1&#45;&gt;Node7</title>
<path fill="none" stroke="midnightblue" d="M335.202,-300.229C351.323,-316.309 374.792,-337.28 399,-350.5 406.777,-354.747 415.567,-358.198 424.16,-360.962"/>
<polygon fill="midnightblue" stroke="midnightblue" points="337.406,-297.477 327.907,-292.783 332.406,-302.376 337.406,-297.477"/>
</g>
<!-- Node8 -->
<g id="node8" class="node"><title>Node8</title>
<polygon fill="white" stroke="#bfbfbf" points="415,-311.5 415,-341.5 519,-341.5 519,-311.5 415,-311.5"/>
<text text-anchor="start" x="423" y="-329.5" font-family="Helvetica,sans-Serif" font-size="10.00">basic_ostringstream</text>
<text text-anchor="middle" x="467" y="-318.5" font-family="Helvetica,sans-Serif" font-size="10.00">&lt; char &gt;</text>
</g>
<!-- Node1&#45;&gt;Node8 -->
<g id="edge7" class="edge"><title>Node1&#45;&gt;Node8</title>
<path fill="none" stroke="midnightblue" d="M370.64,-295.759C386.672,-300.927 403.936,-306.492 419.309,-311.448"/>
<polygon fill="midnightblue" stroke="midnightblue" points="371.437,-292.339 360.845,-292.601 369.289,-299.001 371.437,-292.339"/>
</g>
<!-- Node9 -->
<g id="node9" class="node"><title>Node9</title>
<polygon fill="white" stroke="#bfbfbf" points="415,-262.5 415,-292.5 519,-292.5 519,-262.5 415,-262.5"/>
<text text-anchor="start" x="423" y="-280.5" font-family="Helvetica,sans-Serif" font-size="10.00">basic_ostringstream</text>
<text text-anchor="middle" x="467" y="-269.5" font-family="Helvetica,sans-Serif" font-size="10.00">&lt; wchar_t &gt;</text>
</g>
<!-- Node1&#45;&gt;Node9 -->
<g id="edge8" class="edge"><title>Node1&#45;&gt;Node9</title>
<path fill="none" stroke="midnightblue" d="M373.592,-277.5C387.215,-277.5 401.576,-277.5 414.81,-277.5"/>
<polygon fill="midnightblue" stroke="midnightblue" points="373.35,-274 363.35,-277.5 373.35,-281 373.35,-274"/>
</g>
<!-- Node10 -->
<g id="node10" class="node"><title>Node10</title>
<g id="a_node10"><a xlink:title="STL class. ">
<polygon fill="white" stroke="#bfbfbf" points="416,-213.5 416,-243.5 518,-243.5 518,-213.5 416,-213.5"/>
<text text-anchor="start" x="424" y="-231.5" font-family="Helvetica,sans-Serif" font-size="10.00">std::basic_iostream</text>
<text text-anchor="middle" x="467" y="-220.5" font-family="Helvetica,sans-Serif" font-size="10.00">&lt; Char &gt;</text>
</a>
</g>
</g>
<!-- Node1&#45;&gt;Node10 -->
<g id="edge9" class="edge"><title>Node1&#45;&gt;Node10</title>
<path fill="none" stroke="midnightblue" d="M370.64,-259.241C386.672,-254.073 403.936,-248.508 419.309,-243.552"/>
<polygon fill="midnightblue" stroke="midnightblue" points="369.289,-255.999 360.845,-262.399 371.437,-262.661 369.289,-255.999"/>
</g>
<!-- Node21 -->
<g id="node21" class="node"><title>Node21</title>
<g id="a_node21"><a xlink:title="STL class. ">
<polygon fill="white" stroke="#bfbfbf" points="415.5,-142.5 415.5,-172.5 518.5,-172.5 518.5,-142.5 415.5,-142.5"/>
<text text-anchor="start" x="423.5" y="-160.5" font-family="Helvetica,sans-Serif" font-size="10.00">std::basic_ofstream</text>
<text text-anchor="middle" x="467" y="-149.5" font-family="Helvetica,sans-Serif" font-size="10.00">&lt; Char &gt;</text>
</a>
</g>
</g>
<!-- Node1&#45;&gt;Node21 -->
<g id="edge20" class="edge"><title>Node1&#45;&gt;Node21</title>
<path fill="none" stroke="midnightblue" d="M337.793,-255.483C354.501,-240.35 377.597,-220.076 399,-203.5 413.056,-192.614 429.506,-181.301 442.589,-172.618"/>
<polygon fill="midnightblue" stroke="midnightblue" points="335.172,-253.137 330.14,-262.46 339.888,-258.31 335.172,-253.137"/>
</g>
<!-- Node24 -->
<g id="node24" class="node"><title>Node24</title>
<g id="a_node24"><a xlink:title="STL class. ">
<polygon fill="white" stroke="#bfbfbf" points="405,-93.5 405,-123.5 529,-123.5 529,-93.5 405,-93.5"/>
<text text-anchor="start" x="413" y="-111.5" font-family="Helvetica,sans-Serif" font-size="10.00">std::basic_ostringstream</text>
<text text-anchor="middle" x="467" y="-100.5" font-family="Helvetica,sans-Serif" font-size="10.00">&lt; Char &gt;</text>
</a>
</g>
</g>
<!-- Node1&#45;&gt;Node24 -->
<g id="edge23" class="edge"><title>Node1&#45;&gt;Node24</title>
<path fill="none" stroke="midnightblue" d="M322.326,-252.956C334.388,-220.92 359.678,-165.105 399,-132.5 403.09,-129.109 407.696,-126.18 412.53,-123.653"/>
<polygon fill="midnightblue" stroke="midnightblue" points="318.998,-251.869 318.874,-262.463 325.577,-254.258 318.998,-251.869"/>
</g>
<!-- Node27 -->
<g id="node27" class="node"><title>Node27</title>
<g id="a_node27"><a xlink:title="STL class. ">
<polygon fill="white" stroke="#bfbfbf" points="413,-55 413,-74 521,-74 521,-55 413,-55"/>
<text text-anchor="middle" x="467" y="-62" font-family="Helvetica,sans-Serif" font-size="10.00">std::ostream&lt; char &gt;</text>
</a>
</g>
</g>
<!-- Node1&#45;&gt;Node27 -->
<g id="edge26" class="edge"><title>Node1&#45;&gt;Node27</title>
<path fill="none" stroke="midnightblue" d="M317.983,-252.232C325.857,-210.799 347.353,-128.533 399,-83.5 403.465,-79.6065 408.676,-76.5074 414.183,-74.0413"/>
<polygon fill="midnightblue" stroke="midnightblue" points="314.497,-251.846 316.187,-262.305 321.388,-253.075 314.497,-251.846"/>
</g>
<!-- Node28 -->
<g id="node28" class="node"><title>Node28</title>
<g id="a_node28"><a xlink:title="STL class. ">
<polygon fill="white" stroke="#bfbfbf" points="401.5,-17 401.5,-36 532.5,-36 532.5,-17 401.5,-17"/>
<text text-anchor="middle" x="467" y="-24" font-family="Helvetica,sans-Serif" font-size="10.00">std::wostream&lt; wchar_t &gt;</text>
</a>
</g>
</g>
<!-- Node1&#45;&gt;Node28 -->
<g id="edge27" class="edge"><title>Node1&#45;&gt;Node28</title>
<path fill="none" stroke="midnightblue" d="M315.885,-252.472C320.823,-205.044 338.319,-101.8 399,-45.5 403.166,-41.635 408.06,-38.5487 413.275,-36.0856"/>
<polygon fill="midnightblue" stroke="midnightblue" points="312.395,-252.207 314.946,-262.49 319.364,-252.861 312.395,-252.207"/>
</g>
<!-- Node2 -->
<g id="node2" class="node"><title>Node2</title>
<g id="a_node2"><a xlink:title="STL class. ">
<polygon fill="white" stroke="#bfbfbf" points="111,-268 111,-287 227,-287 227,-268 111,-268"/>
<text text-anchor="middle" x="169" y="-275" font-family="Helvetica,sans-Serif" font-size="10.00">std::basic_ios&lt; Char &gt;</text>
</a>
</g>
</g>
<!-- Node2&#45;&gt;Node1 -->
<g id="edge1" class="edge"><title>Node2&#45;&gt;Node1</title>
<path fill="none" stroke="midnightblue" d="M237.59,-277.5C246.04,-277.5 254.554,-277.5 262.653,-277.5"/>
<polygon fill="midnightblue" stroke="midnightblue" points="237.348,-274 227.348,-277.5 237.347,-281 237.348,-274"/>
</g>
<!-- Node3 -->
<g id="node3" class="node"><title>Node3</title>
<g id="a_node3"><a xlink:title="STL class. ">
<polygon fill="white" stroke="#bfbfbf" points="0,-268 0,-287 75,-287 75,-268 0,-268"/>
<text text-anchor="middle" x="37.5" y="-275" font-family="Helvetica,sans-Serif" font-size="10.00">std::ios_base</text>
</a>
</g>
</g>
<!-- Node3&#45;&gt;Node2 -->
<g id="edge2" class="edge"><title>Node3&#45;&gt;Node2</title>
<path fill="none" stroke="midnightblue" d="M85.4322,-277.5C93.6719,-277.5 102.329,-277.5 110.811,-277.5"/>
<polygon fill="midnightblue" stroke="midnightblue" points="85.2631,-274 75.2631,-277.5 85.2631,-281 85.2631,-274"/>
</g>
<!-- Node11 -->
<g id="node11" class="node"><title>Node11</title>
<polygon fill="white" stroke="#bfbfbf" points="580.5,-410 580.5,-429 695.5,-429 695.5,-410 580.5,-410"/>
<text text-anchor="middle" x="638" y="-417" font-family="Helvetica,sans-Serif" font-size="10.00">basic_fstream&lt; char &gt;</text>
</g>
<!-- Node10&#45;&gt;Node11 -->
<g id="edge10" class="edge"><title>Node10&#45;&gt;Node11</title>
<path fill="none" stroke="midnightblue" d="M527,-245.39C529.913,-247.489 532.614,-249.848 535,-252.5 580.281,-302.822 524.14,-351.645 571,-400.5 574.714,-404.372 579.162,-407.47 583.971,-409.947"/>
<polygon fill="midnightblue" stroke="midnightblue" points="528.679,-242.315 518.31,-240.139 525.059,-248.307 528.679,-242.315"/>
</g>
<!-- Node12 -->
<g id="node12" class="node"><title>Node12</title>
<polygon fill="white" stroke="#bfbfbf" points="572.5,-372 572.5,-391 703.5,-391 703.5,-372 572.5,-372"/>
<text text-anchor="middle" x="638" y="-379" font-family="Helvetica,sans-Serif" font-size="10.00">basic_fstream&lt; wchar_t &gt;</text>
</g>
<!-- Node10&#45;&gt;Node12 -->
<g id="edge11" class="edge"><title>Node10&#45;&gt;Node12</title>
<path fill="none" stroke="midnightblue" d="M526.912,-245.731C529.827,-247.744 532.553,-249.992 535,-252.5 570.622,-289.023 534.481,-325.874 571,-361.5 575.457,-365.848 580.826,-369.254 586.553,-371.923"/>
<polygon fill="midnightblue" stroke="midnightblue" points="528.671,-242.705 518.276,-240.656 525.124,-248.74 528.671,-242.705"/>
</g>
<!-- Node13 -->
<g id="node13" class="node"><title>Node13</title>
<polygon fill="white" stroke="#bfbfbf" points="588.5,-322.5 588.5,-352.5 687.5,-352.5 687.5,-322.5 588.5,-322.5"/>
<text text-anchor="start" x="596.5" y="-340.5" font-family="Helvetica,sans-Serif" font-size="10.00">basic_stringstream</text>
<text text-anchor="middle" x="638" y="-329.5" font-family="Helvetica,sans-Serif" font-size="10.00">&lt; char &gt;</text>
</g>
<!-- Node10&#45;&gt;Node13 -->
<g id="edge12" class="edge"><title>Node10&#45;&gt;Node13</title>
<path fill="none" stroke="midnightblue" d="M526.892,-246.774C529.744,-248.519 532.469,-250.423 535,-252.5 559.04,-272.227 547.139,-292.556 571,-312.5 576.171,-316.822 582.166,-320.441 588.393,-323.459"/>
<polygon fill="midnightblue" stroke="midnightblue" points="528.489,-243.659 518.024,-242.004 525.173,-249.823 528.489,-243.659"/>
</g>
<!-- Node14 -->
<g id="node14" class="node"><title>Node14</title>
<polygon fill="white" stroke="#bfbfbf" points="588.5,-273.5 588.5,-303.5 687.5,-303.5 687.5,-273.5 588.5,-273.5"/>
<text text-anchor="start" x="596.5" y="-291.5" font-family="Helvetica,sans-Serif" font-size="10.00">basic_stringstream</text>
<text text-anchor="middle" x="638" y="-280.5" font-family="Helvetica,sans-Serif" font-size="10.00">&lt; wchar_t &gt;</text>
</g>
<!-- Node10&#45;&gt;Node14 -->
<g id="edge13" class="edge"><title>Node10&#45;&gt;Node14</title>
<path fill="none" stroke="midnightblue" d="M520.268,-247.057C544.165,-255.541 572.107,-265.461 594.661,-273.468"/>
<polygon fill="midnightblue" stroke="midnightblue" points="521.241,-243.688 510.646,-243.641 518.899,-250.285 521.241,-243.688"/>
</g>
<!-- Node15 -->
<g id="node15" class="node"><title>Node15</title>
<g id="a_node15"><a xlink:title="STL class. ">
<polygon fill="white" stroke="#bfbfbf" points="589,-224.5 589,-254.5 687,-254.5 687,-224.5 589,-224.5"/>
<text text-anchor="start" x="597" y="-242.5" font-family="Helvetica,sans-Serif" font-size="10.00">std::basic_fstream</text>
<text text-anchor="middle" x="638" y="-231.5" font-family="Helvetica,sans-Serif" font-size="10.00">&lt; Char &gt;</text>
</a>
</g>
</g>
<!-- Node10&#45;&gt;Node15 -->
<g id="edge14" class="edge"><title>Node10&#45;&gt;Node15</title>
<path fill="none" stroke="midnightblue" d="M528.442,-232.434C548.325,-233.728 570.146,-235.149 588.976,-236.374"/>
<polygon fill="midnightblue" stroke="midnightblue" points="528.454,-228.928 518.248,-231.771 528,-235.913 528.454,-228.928"/>
</g>
<!-- Node18 -->
<g id="node18" class="node"><title>Node18</title>
<g id="a_node18"><a xlink:title="STL class. ">
<polygon fill="white" stroke="#bfbfbf" points="578.5,-175.5 578.5,-205.5 697.5,-205.5 697.5,-175.5 578.5,-175.5"/>
<text text-anchor="start" x="586.5" y="-193.5" font-family="Helvetica,sans-Serif" font-size="10.00">std::basic_stringstream</text>
<text text-anchor="middle" x="638" y="-182.5" font-family="Helvetica,sans-Serif" font-size="10.00">&lt; Char &gt;</text>
</a>
</g>
</g>
<!-- Node10&#45;&gt;Node18 -->
<g id="edge17" class="edge"><title>Node10&#45;&gt;Node18</title>
<path fill="none" stroke="midnightblue" d="M528.2,-214.964C544.496,-211.3 562.109,-207.339 578.32,-203.694"/>
<polygon fill="midnightblue" stroke="midnightblue" points="527.237,-211.593 518.248,-217.202 528.772,-218.423 527.237,-211.593"/>
</g>
<!-- Node16 -->
<g id="node16" class="node"><title>Node16</title>
<g id="a_node16"><a xlink:title="STL class. ">
<polygon fill="white" stroke="#bfbfbf" points="752.5,-266 752.5,-285 858.5,-285 858.5,-266 752.5,-266"/>
<text text-anchor="middle" x="805.5" y="-273" font-family="Helvetica,sans-Serif" font-size="10.00">std::fstream&lt; char &gt;</text>
</a>
</g>
</g>
<!-- Node15&#45;&gt;Node16 -->
<g id="edge15" class="edge"><title>Node15&#45;&gt;Node16</title>
<path fill="none" stroke="midnightblue" d="M697.33,-252.188C718.155,-256.718 741.247,-261.741 760.647,-265.961"/>
<polygon fill="midnightblue" stroke="midnightblue" points="697.83,-248.715 687.314,-250.009 696.342,-255.555 697.83,-248.715"/>
</g>
<!-- Node17 -->
<g id="node17" class="node"><title>Node17</title>
<g id="a_node17"><a xlink:title="STL class. ">
<polygon fill="white" stroke="#bfbfbf" points="741,-228 741,-247 870,-247 870,-228 741,-228"/>
<text text-anchor="middle" x="805.5" y="-235" font-family="Helvetica,sans-Serif" font-size="10.00">std::wfstream&lt; wchar_t &gt;</text>
</a>
</g>
</g>
<!-- Node15&#45;&gt;Node17 -->
<g id="edge16" class="edge"><title>Node15&#45;&gt;Node17</title>
<path fill="none" stroke="midnightblue" d="M697.332,-238.795C711.375,-238.625 726.45,-238.443 740.727,-238.271"/>
<polygon fill="midnightblue" stroke="midnightblue" points="697.271,-235.295 687.314,-238.916 697.356,-242.295 697.271,-235.295"/>
</g>
<!-- Node19 -->
<g id="node19" class="node"><title>Node19</title>
<g id="a_node19"><a xlink:title="STL class. ">
<polygon fill="white" stroke="#bfbfbf" points="757.5,-177.5 757.5,-207.5 853.5,-207.5 853.5,-177.5 757.5,-177.5"/>
<text text-anchor="start" x="765.5" y="-195.5" font-family="Helvetica,sans-Serif" font-size="10.00">std::stringstream&lt;</text>
<text text-anchor="middle" x="805.5" y="-184.5" font-family="Helvetica,sans-Serif" font-size="10.00"> char &gt;</text>
</a>
</g>
</g>
<!-- Node18&#45;&gt;Node19 -->
<g id="edge18" class="edge"><title>Node18&#45;&gt;Node19</title>
<path fill="none" stroke="midnightblue" d="M708.023,-191.334C724.614,-191.535 741.962,-191.744 757.299,-191.93"/>
<polygon fill="midnightblue" stroke="midnightblue" points="707.857,-187.832 697.815,-191.211 707.772,-194.831 707.857,-187.832"/>
</g>
<!-- Node20 -->
<g id="node20" class="node"><title>Node20</title>
<g id="a_node20"><a xlink:title="STL class. ">
<polygon fill="white" stroke="#bfbfbf" points="756.5,-128.5 756.5,-158.5 854.5,-158.5 854.5,-128.5 756.5,-128.5"/>
<text text-anchor="start" x="764.5" y="-146.5" font-family="Helvetica,sans-Serif" font-size="10.00">std::wstringstream</text>
<text text-anchor="middle" x="805.5" y="-135.5" font-family="Helvetica,sans-Serif" font-size="10.00">&lt; wchar_t &gt;</text>
</a>
</g>
</g>
<!-- Node18&#45;&gt;Node20 -->
<g id="edge19" class="edge"><title>Node18&#45;&gt;Node20</title>
<path fill="none" stroke="midnightblue" d="M701.468,-172.76C719.653,-167.596 739.23,-162.036 756.385,-157.164"/>
<polygon fill="midnightblue" stroke="midnightblue" points="700.484,-169.401 691.82,-175.5 702.396,-176.135 700.484,-169.401"/>
</g>
<!-- Node22 -->
<g id="node22" class="node"><title>Node22</title>
<g id="a_node22"><a xlink:title="STL class. ">
<polygon fill="white" stroke="#bfbfbf" points="582.5,-137 582.5,-156 693.5,-156 693.5,-137 582.5,-137"/>
<text text-anchor="middle" x="638" y="-144" font-family="Helvetica,sans-Serif" font-size="10.00">std::ofstream&lt; char &gt;</text>
</a>
</g>
</g>
<!-- Node21&#45;&gt;Node22 -->
<g id="edge21" class="edge"><title>Node21&#45;&gt;Node22</title>
<path fill="none" stroke="midnightblue" d="M528.783,-153.544C546.23,-152.408 565.144,-151.177 582.207,-150.066"/>
<polygon fill="midnightblue" stroke="midnightblue" points="528.457,-150.057 518.706,-154.2 528.912,-157.043 528.457,-150.057"/>
</g>
<!-- Node23 -->
<g id="node23" class="node"><title>Node23</title>
<g id="a_node23"><a xlink:title="STL class. ">
<polygon fill="white" stroke="#bfbfbf" points="571,-99 571,-118 705,-118 705,-99 571,-99"/>
<text text-anchor="middle" x="638" y="-106" font-family="Helvetica,sans-Serif" font-size="10.00">std::wofstream&lt; wchar_t &gt;</text>
</a>
</g>
</g>
<!-- Node21&#45;&gt;Node23 -->
<g id="edge22" class="edge"><title>Node21&#45;&gt;Node23</title>
<path fill="none" stroke="midnightblue" d="M528.529,-139.836C542.476,-135.775 557.252,-131.481 571,-127.5 581.651,-124.416 593.274,-121.065 603.757,-118.048"/>
<polygon fill="midnightblue" stroke="midnightblue" points="527.168,-136.587 518.546,-142.744 529.126,-143.308 527.168,-136.587"/>
</g>
<!-- Node25 -->
<g id="node25" class="node"><title>Node25</title>
<g id="a_node25"><a xlink:title="STL class. ">
<polygon fill="white" stroke="#bfbfbf" points="590.5,-49.5 590.5,-79.5 685.5,-79.5 685.5,-49.5 590.5,-49.5"/>
<text text-anchor="start" x="598.5" y="-67.5" font-family="Helvetica,sans-Serif" font-size="10.00">std::ostringstream</text>
<text text-anchor="middle" x="638" y="-56.5" font-family="Helvetica,sans-Serif" font-size="10.00">&lt; char &gt;</text>
</a>
</g>
</g>
<!-- Node24&#45;&gt;Node25 -->
<g id="edge24" class="edge"><title>Node24&#45;&gt;Node25</title>
<path fill="none" stroke="midnightblue" d="M535.498,-90.9266C553.936,-86.1262 573.5,-81.0326 590.48,-76.6117"/>
<polygon fill="midnightblue" stroke="midnightblue" points="534.483,-87.574 525.688,-93.4808 536.247,-94.3482 534.483,-87.574"/>
</g>
<!-- Node26 -->
<g id="node26" class="node"><title>Node26</title>
<g id="a_node26"><a xlink:title="STL class. ">
<polygon fill="white" stroke="#bfbfbf" points="586.5,-0.5 586.5,-30.5 689.5,-30.5 689.5,-0.5 586.5,-0.5"/>
<text text-anchor="start" x="594.5" y="-18.5" font-family="Helvetica,sans-Serif" font-size="10.00">std::wostringstream</text>
<text text-anchor="middle" x="638" y="-7.5" font-family="Helvetica,sans-Serif" font-size="10.00">&lt; wchar_t &gt;</text>
</a>
</g>
</g>
<!-- Node24&#45;&gt;Node26 -->
<g id="edge25" class="edge"><title>Node24&#45;&gt;Node26</title>
<path fill="none" stroke="midnightblue" d="M526.544,-88.8644C529.485,-87.2007 532.324,-85.4146 535,-83.5 555.548,-68.7964 550.391,-54.1176 571,-39.5 575.774,-36.1143 581.077,-33.1544 586.545,-30.5798"/>
<polygon fill="midnightblue" stroke="midnightblue" points="524.793,-85.8285 517.479,-93.4943 527.977,-92.0624 524.793,-85.8285"/>
</g>
</g>
</svg>
