<?xml version="1.0" encoding="UTF-8" standalone="no"?>
<!DOCTYPE svg PUBLIC "-//W3C//DTD SVG 1.1//EN"
 "http://www.w3.org/Graphics/SVG/1.1/DTD/svg11.dtd">
<!-- Generated by graphviz version 2.38.0 (20140413.2041)
 -->
<!-- Title: std::map&lt; K, T &gt; Pages: 1 -->
<svg width="110pt" height="95pt"
 viewBox="0.00 0.00 110.00 95.00" xmlns="http://www.w3.org/2000/svg" xmlns:xlink="http://www.w3.org/1999/xlink">
<g id="graph0" class="graph" transform="scale(1 1) rotate(0) translate(4 91)">
<title>std::map&lt; K, T &gt;</title>
<polygon fill="white" stroke="none" points="-4,4 -4,-91 106,-91 106,4 -4,4"/>
<!-- Node1 -->
<g id="node1" class="node"><title>Node1</title>
<polygon fill="#bfbfbf" stroke="black" points="0,-0.5 0,-19.5 92,-19.5 92,-0.5 0,-0.5"/>
<text text-anchor="middle" x="46" y="-7.5" font-family="Helvetica,sans-Serif" font-size="10.00">std::map&lt; K, T &gt;</text>
</g>
<!-- Node2 -->
<g id="node2" class="node"><title>Node2</title>
<polygon fill="white" stroke="#bfbfbf" points="7.5,-67.5 7.5,-86.5 36.5,-86.5 36.5,-67.5 7.5,-67.5"/>
<text text-anchor="middle" x="22" y="-74.5" font-family="Helvetica,sans-Serif" font-size="10.00">K</text>
</g>
<!-- Node2&#45;&gt;Node1 -->
<g id="edge1" class="edge"><title>Node2&#45;&gt;Node1</title>
<path fill="none" stroke="#9a32cd" stroke-dasharray="5,2" d="M20.027,-57.0049C20.0219,-50.7743 20.7271,-43.9314 23,-38 25.6441,-31.1 30.863,-24.7362 35.662,-19.9219"/>
<polygon fill="#9a32cd" stroke="#9a32cd" points="16.5466,-57.4479 20.6178,-67.2293 23.535,-57.044 16.5466,-57.4479"/>
<text text-anchor="middle" x="35.5" y="-41" font-family="Helvetica,sans-Serif" font-size="10.00"> keys</text>
</g>
<!-- Node3 -->
<g id="node3" class="node"><title>Node3</title>
<polygon fill="white" stroke="#bfbfbf" points="55.5,-67.5 55.5,-86.5 84.5,-86.5 84.5,-67.5 55.5,-67.5"/>
<text text-anchor="middle" x="70" y="-74.5" font-family="Helvetica,sans-Serif" font-size="10.00">T</text>
</g>
<!-- Node3&#45;&gt;Node1 -->
<g id="edge2" class="edge"><title>Node3&#45;&gt;Node1</title>
<path fill="none" stroke="#9a32cd" stroke-dasharray="5,2" d="M63.2763,-57.79C58.6674,-45.3076 52.7619,-29.3135 49.1855,-19.6273"/>
<polygon fill="#9a32cd" stroke="#9a32cd" points="60.0161,-59.0652 66.7633,-67.2338 66.5828,-56.6405 60.0161,-59.0652"/>
<text text-anchor="middle" x="80.5" y="-41" font-family="Helvetica,sans-Serif" font-size="10.00"> elements</text>
</g>
</g>
</svg>
