<?xml version="1.0" encoding="UTF-8" standalone="no"?>
<!DOCTYPE svg PUBLIC "-//W3C//DTD SVG 1.1//EN"
 "http://www.w3.org/Graphics/SVG/1.1/DTD/svg11.dtd">
<!-- Generated by graphviz version 2.38.0 (20140413.2041)
 -->
<!-- Title: std::basic_stringstream&lt; Char &gt; Pages: 1 -->
<svg width="224pt" height="285pt"
 viewBox="0.00 0.00 223.50 285.00" xmlns="http://www.w3.org/2000/svg" xmlns:xlink="http://www.w3.org/1999/xlink">
<g id="graph0" class="graph" transform="scale(1 1) rotate(0) translate(4 281)">
<title>std::basic_stringstream&lt; Char &gt;</title>
<polygon fill="white" stroke="none" points="-4,4 -4,-281 219.5,-281 219.5,4 -4,4"/>
<!-- Node1 -->
<g id="node1" class="node"><title>Node1</title>
<polygon fill="#bfbfbf" stroke="black" points="47,-0.5 47,-30.5 166,-30.5 166,-0.5 47,-0.5"/>
<text text-anchor="start" x="55" y="-18.5" font-family="Helvetica,sans-Serif" font-size="10.00">std::basic_stringstream</text>
<text text-anchor="middle" x="106.5" y="-7.5" font-family="Helvetica,sans-Serif" font-size="10.00">&lt; Char &gt;</text>
</g>
<!-- Node2 -->
<g id="node2" class="node"><title>Node2</title>
<g id="a_node2"><a xlink:title="STL class. ">
<polygon fill="white" stroke="#bfbfbf" points="55.5,-67.5 55.5,-97.5 157.5,-97.5 157.5,-67.5 55.5,-67.5"/>
<text text-anchor="start" x="63.5" y="-85.5" font-family="Helvetica,sans-Serif" font-size="10.00">std::basic_iostream</text>
<text text-anchor="middle" x="106.5" y="-74.5" font-family="Helvetica,sans-Serif" font-size="10.00">&lt; Char &gt;</text>
</a>
</g>
</g>
<!-- Node2&#45;&gt;Node1 -->
<g id="edge1" class="edge"><title>Node2&#45;&gt;Node1</title>
<path fill="none" stroke="midnightblue" d="M106.5,-57.1081C106.5,-48.1539 106.5,-38.3227 106.5,-30.5765"/>
<polygon fill="midnightblue" stroke="midnightblue" points="103,-57.3959 106.5,-67.396 110,-57.396 103,-57.3959"/>
</g>
<!-- Node3 -->
<g id="node3" class="node"><title>Node3</title>
<g id="a_node3"><a xlink:title="STL class. ">
<polygon fill="white" stroke="#bfbfbf" points="0,-134.5 0,-164.5 97,-164.5 97,-134.5 0,-134.5"/>
<text text-anchor="start" x="8" y="-152.5" font-family="Helvetica,sans-Serif" font-size="10.00">std::basic_istream</text>
<text text-anchor="middle" x="48.5" y="-141.5" font-family="Helvetica,sans-Serif" font-size="10.00">&lt; Char &gt;</text>
</a>
</g>
</g>
<!-- Node3&#45;&gt;Node2 -->
<g id="edge2" class="edge"><title>Node3&#45;&gt;Node2</title>
<path fill="none" stroke="midnightblue" d="M67.92,-126.736C76.5015,-117.119 86.3438,-106.089 93.9394,-97.5765"/>
<polygon fill="midnightblue" stroke="midnightblue" points="65.1315,-124.604 61.0851,-134.396 70.3545,-129.265 65.1315,-124.604"/>
</g>
<!-- Node4 -->
<g id="node4" class="node"><title>Node4</title>
<g id="a_node4"><a xlink:title="STL class. ">
<polygon fill="white" stroke="#bfbfbf" points="48.5,-201.5 48.5,-220.5 164.5,-220.5 164.5,-201.5 48.5,-201.5"/>
<text text-anchor="middle" x="106.5" y="-208.5" font-family="Helvetica,sans-Serif" font-size="10.00">std::basic_ios&lt; Char &gt;</text>
</a>
</g>
</g>
<!-- Node4&#45;&gt;Node3 -->
<g id="edge3" class="edge"><title>Node4&#45;&gt;Node3</title>
<path fill="none" stroke="midnightblue" d="M90.9917,-194.091C82.0137,-184.88 70.8157,-173.393 62.1695,-164.523"/>
<polygon fill="midnightblue" stroke="midnightblue" points="88.7035,-196.757 98.19,-201.475 93.716,-191.871 88.7035,-196.757"/>
</g>
<!-- Node6 -->
<g id="node6" class="node"><title>Node6</title>
<g id="a_node6"><a xlink:title="STL class. ">
<polygon fill="white" stroke="#bfbfbf" points="115.5,-134.5 115.5,-164.5 215.5,-164.5 215.5,-134.5 115.5,-134.5"/>
<text text-anchor="start" x="123.5" y="-152.5" font-family="Helvetica,sans-Serif" font-size="10.00">std::basic_ostream</text>
<text text-anchor="middle" x="165.5" y="-141.5" font-family="Helvetica,sans-Serif" font-size="10.00">&lt; Char &gt;</text>
</a>
</g>
</g>
<!-- Node4&#45;&gt;Node6 -->
<g id="edge6" class="edge"><title>Node4&#45;&gt;Node6</title>
<path fill="none" stroke="midnightblue" d="M122,-194.369C131.178,-185.113 142.711,-173.482 151.595,-164.523"/>
<polygon fill="midnightblue" stroke="midnightblue" points="119.509,-191.91 114.953,-201.475 124.48,-196.839 119.509,-191.91"/>
</g>
<!-- Node5 -->
<g id="node5" class="node"><title>Node5</title>
<g id="a_node5"><a xlink:title="STL class. ">
<polygon fill="white" stroke="#bfbfbf" points="69,-257.5 69,-276.5 144,-276.5 144,-257.5 69,-257.5"/>
<text text-anchor="middle" x="106.5" y="-264.5" font-family="Helvetica,sans-Serif" font-size="10.00">std::ios_base</text>
</a>
</g>
</g>
<!-- Node5&#45;&gt;Node4 -->
<g id="edge4" class="edge"><title>Node5&#45;&gt;Node4</title>
<path fill="none" stroke="midnightblue" d="M106.5,-246.805C106.5,-237.91 106.5,-227.78 106.5,-220.751"/>
<polygon fill="midnightblue" stroke="midnightblue" points="103,-247.083 106.5,-257.083 110,-247.083 103,-247.083"/>
</g>
<!-- Node6&#45;&gt;Node2 -->
<g id="edge5" class="edge"><title>Node6&#45;&gt;Node2</title>
<path fill="none" stroke="midnightblue" d="M145.745,-126.736C137.016,-117.119 127.004,-106.089 119.277,-97.5765"/>
<polygon fill="midnightblue" stroke="midnightblue" points="143.385,-129.344 152.698,-134.396 148.568,-124.639 143.385,-129.344"/>
</g>
</g>
</svg>
