<?xml version="1.0" encoding="UTF-8" standalone="no"?>
<!DOCTYPE svg PUBLIC "-//W3C//DTD SVG 1.1//EN"
 "http://www.w3.org/Graphics/SVG/1.1/DTD/svg11.dtd">
<!-- Generated by graphviz version 2.38.0 (20140413.2041)
 -->
<!-- Title: std::basic_istringstream&lt; Char &gt; Pages: 1 -->
<svg width="218pt" height="285pt"
 viewBox="0.00 0.00 218.00 285.00" xmlns="http://www.w3.org/2000/svg" xmlns:xlink="http://www.w3.org/1999/xlink">
<g id="graph0" class="graph" transform="scale(1 1) rotate(0) translate(4 281)">
<title>std::basic_istringstream&lt; Char &gt;</title>
<polygon fill="white" stroke="none" points="-4,4 -4,-281 214,-281 214,4 -4,4"/>
<!-- Node1 -->
<g id="node1" class="node"><title>Node1</title>
<polygon fill="#bfbfbf" stroke="black" points="42.5,-67.5 42.5,-97.5 163.5,-97.5 163.5,-67.5 42.5,-67.5"/>
<text text-anchor="start" x="50.5" y="-85.5" font-family="Helvetica,sans-Serif" font-size="10.00">std::basic_istringstream</text>
<text text-anchor="middle" x="103" y="-74.5" font-family="Helvetica,sans-Serif" font-size="10.00">&lt; Char &gt;</text>
</g>
<!-- Node5 -->
<g id="node5" class="node"><title>Node5</title>
<g id="a_node5"><a xlink:title="STL class. ">
<polygon fill="white" stroke="#bfbfbf" points="0,-0.5 0,-30.5 92,-30.5 92,-0.5 0,-0.5"/>
<text text-anchor="start" x="8" y="-18.5" font-family="Helvetica,sans-Serif" font-size="10.00">std::istringstream</text>
<text text-anchor="middle" x="46" y="-7.5" font-family="Helvetica,sans-Serif" font-size="10.00">&lt; char &gt;</text>
</a>
</g>
</g>
<!-- Node1&#45;&gt;Node5 -->
<g id="edge4" class="edge"><title>Node1&#45;&gt;Node5</title>
<path fill="none" stroke="midnightblue" d="M83.9148,-59.7362C75.4813,-50.119 65.8086,-39.0888 58.344,-30.5765"/>
<polygon fill="midnightblue" stroke="midnightblue" points="81.4071,-62.185 90.6318,-67.396 86.6701,-57.5697 81.4071,-62.185"/>
</g>
<!-- Node6 -->
<g id="node6" class="node"><title>Node6</title>
<g id="a_node6"><a xlink:title="STL class. ">
<polygon fill="white" stroke="#bfbfbf" points="110,-0.5 110,-30.5 210,-30.5 210,-0.5 110,-0.5"/>
<text text-anchor="start" x="118" y="-18.5" font-family="Helvetica,sans-Serif" font-size="10.00">std::wistringstream</text>
<text text-anchor="middle" x="160" y="-7.5" font-family="Helvetica,sans-Serif" font-size="10.00">&lt; wchar_t &gt;</text>
</a>
</g>
</g>
<!-- Node1&#45;&gt;Node6 -->
<g id="edge5" class="edge"><title>Node1&#45;&gt;Node6</title>
<path fill="none" stroke="midnightblue" d="M122.085,-59.7362C130.519,-50.119 140.191,-39.0888 147.656,-30.5765"/>
<polygon fill="midnightblue" stroke="midnightblue" points="119.33,-57.5697 115.368,-67.396 124.593,-62.185 119.33,-57.5697"/>
</g>
<!-- Node2 -->
<g id="node2" class="node"><title>Node2</title>
<g id="a_node2"><a xlink:title="STL class. ">
<polygon fill="white" stroke="#bfbfbf" points="54.5,-134.5 54.5,-164.5 151.5,-164.5 151.5,-134.5 54.5,-134.5"/>
<text text-anchor="start" x="62.5" y="-152.5" font-family="Helvetica,sans-Serif" font-size="10.00">std::basic_istream</text>
<text text-anchor="middle" x="103" y="-141.5" font-family="Helvetica,sans-Serif" font-size="10.00">&lt; Char &gt;</text>
</a>
</g>
</g>
<!-- Node2&#45;&gt;Node1 -->
<g id="edge1" class="edge"><title>Node2&#45;&gt;Node1</title>
<path fill="none" stroke="midnightblue" d="M103,-124.108C103,-115.154 103,-105.323 103,-97.5765"/>
<polygon fill="midnightblue" stroke="midnightblue" points="99.5001,-124.396 103,-134.396 106.5,-124.396 99.5001,-124.396"/>
</g>
<!-- Node3 -->
<g id="node3" class="node"><title>Node3</title>
<g id="a_node3"><a xlink:title="STL class. ">
<polygon fill="white" stroke="#bfbfbf" points="45,-201.5 45,-220.5 161,-220.5 161,-201.5 45,-201.5"/>
<text text-anchor="middle" x="103" y="-208.5" font-family="Helvetica,sans-Serif" font-size="10.00">std::basic_ios&lt; Char &gt;</text>
</a>
</g>
</g>
<!-- Node3&#45;&gt;Node2 -->
<g id="edge2" class="edge"><title>Node3&#45;&gt;Node2</title>
<path fill="none" stroke="midnightblue" d="M103,-191.235C103,-182.586 103,-172.497 103,-164.523"/>
<polygon fill="midnightblue" stroke="midnightblue" points="99.5001,-191.475 103,-201.475 106.5,-191.475 99.5001,-191.475"/>
</g>
<!-- Node4 -->
<g id="node4" class="node"><title>Node4</title>
<g id="a_node4"><a xlink:title="STL class. ">
<polygon fill="white" stroke="#bfbfbf" points="65.5,-257.5 65.5,-276.5 140.5,-276.5 140.5,-257.5 65.5,-257.5"/>
<text text-anchor="middle" x="103" y="-264.5" font-family="Helvetica,sans-Serif" font-size="10.00">std::ios_base</text>
</a>
</g>
</g>
<!-- Node4&#45;&gt;Node3 -->
<g id="edge3" class="edge"><title>Node4&#45;&gt;Node3</title>
<path fill="none" stroke="midnightblue" d="M103,-246.805C103,-237.91 103,-227.78 103,-220.751"/>
<polygon fill="midnightblue" stroke="midnightblue" points="99.5001,-247.083 103,-257.083 106.5,-247.083 99.5001,-247.083"/>
</g>
</g>
</svg>
