<?xml version="1.0" encoding="UTF-8" standalone="no"?>
<!DOCTYPE svg PUBLIC "-//W3C//DTD SVG 1.1//EN"
 "http://www.w3.org/Graphics/SVG/1.1/DTD/svg11.dtd">
<!-- Generated by graphviz version 2.38.0 (20140413.2041)
 -->
<!-- Title: std::multimap&lt; K, T &gt; Pages: 1 -->
<svg width="121pt" height="95pt"
 viewBox="0.00 0.00 121.00 95.00" xmlns="http://www.w3.org/2000/svg" xmlns:xlink="http://www.w3.org/1999/xlink">
<g id="graph0" class="graph" transform="scale(1 1) rotate(0) translate(4 91)">
<title>std::multimap&lt; K, T &gt;</title>
<polygon fill="white" stroke="none" points="-4,4 -4,-91 117,-91 117,4 -4,4"/>
<!-- Node1 -->
<g id="node1" class="node"><title>Node1</title>
<polygon fill="#bfbfbf" stroke="black" points="0,-0.5 0,-19.5 113,-19.5 113,-0.5 0,-0.5"/>
<text text-anchor="middle" x="56.5" y="-7.5" font-family="Helvetica,sans-Serif" font-size="10.00">std::multimap&lt; K, T &gt;</text>
</g>
<!-- Node2 -->
<g id="node2" class="node"><title>Node2</title>
<polygon fill="white" stroke="#bfbfbf" points="18,-67.5 18,-86.5 47,-86.5 47,-67.5 18,-67.5"/>
<text text-anchor="middle" x="32.5" y="-74.5" font-family="Helvetica,sans-Serif" font-size="10.00">K</text>
</g>
<!-- Node2&#45;&gt;Node1 -->
<g id="edge1" class="edge"><title>Node2&#45;&gt;Node1</title>
<path fill="none" stroke="#9a32cd" stroke-dasharray="5,2" d="M30.527,-57.0049C30.5219,-50.7743 31.2271,-43.9314 33.5,-38 36.1441,-31.1 41.363,-24.7362 46.162,-19.9219"/>
<polygon fill="#9a32cd" stroke="#9a32cd" points="27.0466,-57.4479 31.1178,-67.2293 34.035,-57.044 27.0466,-57.4479"/>
<text text-anchor="middle" x="46" y="-41" font-family="Helvetica,sans-Serif" font-size="10.00"> keys</text>
</g>
<!-- Node3 -->
<g id="node3" class="node"><title>Node3</title>
<polygon fill="white" stroke="#bfbfbf" points="66,-67.5 66,-86.5 95,-86.5 95,-67.5 66,-67.5"/>
<text text-anchor="middle" x="80.5" y="-74.5" font-family="Helvetica,sans-Serif" font-size="10.00">T</text>
</g>
<!-- Node3&#45;&gt;Node1 -->
<g id="edge2" class="edge"><title>Node3&#45;&gt;Node1</title>
<path fill="none" stroke="#9a32cd" stroke-dasharray="5,2" d="M73.7763,-57.79C69.1674,-45.3076 63.2619,-29.3135 59.6855,-19.6273"/>
<polygon fill="#9a32cd" stroke="#9a32cd" points="70.5161,-59.0652 77.2633,-67.2338 77.0828,-56.6405 70.5161,-59.0652"/>
<text text-anchor="middle" x="91" y="-41" font-family="Helvetica,sans-Serif" font-size="10.00"> elements</text>
</g>
</g>
</svg>
