<?xml version="1.0" encoding="UTF-8" standalone="no"?>
<!DOCTYPE svg PUBLIC "-//W3C//DTD SVG 1.1//EN"
 "http://www.w3.org/Graphics/SVG/1.1/DTD/svg11.dtd">
<!-- Generated by graphviz version 2.38.0 (20140413.2041)
 -->
<!-- Title: std::basic_stringstream&lt; Char &gt; Pages: 1 -->
<svg width="224pt" height="352pt"
 viewBox="0.00 0.00 223.50 352.00" xmlns="http://www.w3.org/2000/svg" xmlns:xlink="http://www.w3.org/1999/xlink">
<g id="graph0" class="graph" transform="scale(1 1) rotate(0) translate(4 348)">
<title>std::basic_stringstream&lt; Char &gt;</title>
<polygon fill="white" stroke="none" points="-4,4 -4,-348 219.5,-348 219.5,4 -4,4"/>
<!-- Node1 -->
<g id="node1" class="node"><title>Node1</title>
<polygon fill="#bfbfbf" stroke="black" points="47,-67.5 47,-97.5 166,-97.5 166,-67.5 47,-67.5"/>
<text text-anchor="start" x="55" y="-85.5" font-family="Helvetica,sans-Serif" font-size="10.00">std::basic_stringstream</text>
<text text-anchor="middle" x="106.5" y="-74.5" font-family="Helvetica,sans-Serif" font-size="10.00">&lt; Char &gt;</text>
</g>
<!-- Node7 -->
<g id="node7" class="node"><title>Node7</title>
<g id="a_node7"><a xlink:title="STL class. ">
<polygon fill="white" stroke="#bfbfbf" points="1.5,-0.5 1.5,-30.5 97.5,-30.5 97.5,-0.5 1.5,-0.5"/>
<text text-anchor="start" x="9.5" y="-18.5" font-family="Helvetica,sans-Serif" font-size="10.00">std::stringstream&lt;</text>
<text text-anchor="middle" x="49.5" y="-7.5" font-family="Helvetica,sans-Serif" font-size="10.00"> char &gt;</text>
</a>
</g>
</g>
<!-- Node1&#45;&gt;Node7 -->
<g id="edge7" class="edge"><title>Node1&#45;&gt;Node7</title>
<path fill="none" stroke="midnightblue" d="M87.4148,-59.7362C78.9813,-50.119 69.3086,-39.0888 61.844,-30.5765"/>
<polygon fill="midnightblue" stroke="midnightblue" points="84.9071,-62.185 94.1318,-67.396 90.1701,-57.5697 84.9071,-62.185"/>
</g>
<!-- Node8 -->
<g id="node8" class="node"><title>Node8</title>
<g id="a_node8"><a xlink:title="STL class. ">
<polygon fill="white" stroke="#bfbfbf" points="115.5,-0.5 115.5,-30.5 213.5,-30.5 213.5,-0.5 115.5,-0.5"/>
<text text-anchor="start" x="123.5" y="-18.5" font-family="Helvetica,sans-Serif" font-size="10.00">std::wstringstream</text>
<text text-anchor="middle" x="164.5" y="-7.5" font-family="Helvetica,sans-Serif" font-size="10.00">&lt; wchar_t &gt;</text>
</a>
</g>
</g>
<!-- Node1&#45;&gt;Node8 -->
<g id="edge8" class="edge"><title>Node1&#45;&gt;Node8</title>
<path fill="none" stroke="midnightblue" d="M125.92,-59.7362C134.502,-50.119 144.344,-39.0888 151.939,-30.5765"/>
<polygon fill="midnightblue" stroke="midnightblue" points="123.132,-57.6043 119.085,-67.396 128.355,-62.2648 123.132,-57.6043"/>
</g>
<!-- Node2 -->
<g id="node2" class="node"><title>Node2</title>
<g id="a_node2"><a xlink:title="STL class. ">
<polygon fill="white" stroke="#bfbfbf" points="55.5,-134.5 55.5,-164.5 157.5,-164.5 157.5,-134.5 55.5,-134.5"/>
<text text-anchor="start" x="63.5" y="-152.5" font-family="Helvetica,sans-Serif" font-size="10.00">std::basic_iostream</text>
<text text-anchor="middle" x="106.5" y="-141.5" font-family="Helvetica,sans-Serif" font-size="10.00">&lt; Char &gt;</text>
</a>
</g>
</g>
<!-- Node2&#45;&gt;Node1 -->
<g id="edge1" class="edge"><title>Node2&#45;&gt;Node1</title>
<path fill="none" stroke="midnightblue" d="M106.5,-124.108C106.5,-115.154 106.5,-105.323 106.5,-97.5765"/>
<polygon fill="midnightblue" stroke="midnightblue" points="103,-124.396 106.5,-134.396 110,-124.396 103,-124.396"/>
</g>
<!-- Node3 -->
<g id="node3" class="node"><title>Node3</title>
<g id="a_node3"><a xlink:title="STL class. ">
<polygon fill="white" stroke="#bfbfbf" points="0,-201.5 0,-231.5 97,-231.5 97,-201.5 0,-201.5"/>
<text text-anchor="start" x="8" y="-219.5" font-family="Helvetica,sans-Serif" font-size="10.00">std::basic_istream</text>
<text text-anchor="middle" x="48.5" y="-208.5" font-family="Helvetica,sans-Serif" font-size="10.00">&lt; Char &gt;</text>
</a>
</g>
</g>
<!-- Node3&#45;&gt;Node2 -->
<g id="edge2" class="edge"><title>Node3&#45;&gt;Node2</title>
<path fill="none" stroke="midnightblue" d="M67.92,-193.736C76.5015,-184.119 86.3438,-173.089 93.9394,-164.577"/>
<polygon fill="midnightblue" stroke="midnightblue" points="65.1315,-191.604 61.0851,-201.396 70.3545,-196.265 65.1315,-191.604"/>
</g>
<!-- Node4 -->
<g id="node4" class="node"><title>Node4</title>
<g id="a_node4"><a xlink:title="STL class. ">
<polygon fill="white" stroke="#bfbfbf" points="48.5,-268.5 48.5,-287.5 164.5,-287.5 164.5,-268.5 48.5,-268.5"/>
<text text-anchor="middle" x="106.5" y="-275.5" font-family="Helvetica,sans-Serif" font-size="10.00">std::basic_ios&lt; Char &gt;</text>
</a>
</g>
</g>
<!-- Node4&#45;&gt;Node3 -->
<g id="edge3" class="edge"><title>Node4&#45;&gt;Node3</title>
<path fill="none" stroke="midnightblue" d="M90.9917,-261.091C82.0137,-251.88 70.8157,-240.393 62.1695,-231.523"/>
<polygon fill="midnightblue" stroke="midnightblue" points="88.7035,-263.757 98.19,-268.475 93.716,-258.871 88.7035,-263.757"/>
</g>
<!-- Node6 -->
<g id="node6" class="node"><title>Node6</title>
<g id="a_node6"><a xlink:title="STL class. ">
<polygon fill="white" stroke="#bfbfbf" points="115.5,-201.5 115.5,-231.5 215.5,-231.5 215.5,-201.5 115.5,-201.5"/>
<text text-anchor="start" x="123.5" y="-219.5" font-family="Helvetica,sans-Serif" font-size="10.00">std::basic_ostream</text>
<text text-anchor="middle" x="165.5" y="-208.5" font-family="Helvetica,sans-Serif" font-size="10.00">&lt; Char &gt;</text>
</a>
</g>
</g>
<!-- Node4&#45;&gt;Node6 -->
<g id="edge6" class="edge"><title>Node4&#45;&gt;Node6</title>
<path fill="none" stroke="midnightblue" d="M122,-261.369C131.178,-252.113 142.711,-240.482 151.595,-231.523"/>
<polygon fill="midnightblue" stroke="midnightblue" points="119.509,-258.91 114.953,-268.475 124.48,-263.839 119.509,-258.91"/>
</g>
<!-- Node5 -->
<g id="node5" class="node"><title>Node5</title>
<g id="a_node5"><a xlink:title="STL class. ">
<polygon fill="white" stroke="#bfbfbf" points="69,-324.5 69,-343.5 144,-343.5 144,-324.5 69,-324.5"/>
<text text-anchor="middle" x="106.5" y="-331.5" font-family="Helvetica,sans-Serif" font-size="10.00">std::ios_base</text>
</a>
</g>
</g>
<!-- Node5&#45;&gt;Node4 -->
<g id="edge4" class="edge"><title>Node5&#45;&gt;Node4</title>
<path fill="none" stroke="midnightblue" d="M106.5,-313.805C106.5,-304.91 106.5,-294.78 106.5,-287.751"/>
<polygon fill="midnightblue" stroke="midnightblue" points="103,-314.083 106.5,-324.083 110,-314.083 103,-314.083"/>
</g>
<!-- Node6&#45;&gt;Node2 -->
<g id="edge5" class="edge"><title>Node6&#45;&gt;Node2</title>
<path fill="none" stroke="midnightblue" d="M145.745,-193.736C137.016,-184.119 127.004,-173.089 119.277,-164.577"/>
<polygon fill="midnightblue" stroke="midnightblue" points="143.385,-196.344 152.698,-201.396 148.568,-191.639 143.385,-196.344"/>
</g>
</g>
</svg>
