<?xml version="1.0" encoding="UTF-8" standalone="no"?>
<!DOCTYPE svg PUBLIC "-//W3C//DTD SVG 1.1//EN"
 "http://www.w3.org/Graphics/SVG/1.1/DTD/svg11.dtd">
<!-- Generated by graphviz version 2.38.0 (20140413.2041)
 -->
<!-- Title: std::basic_string&lt; Char &gt; Pages: 1 -->
<svg width="244pt" height="95pt"
 viewBox="0.00 0.00 243.50 95.00" xmlns="http://www.w3.org/2000/svg" xmlns:xlink="http://www.w3.org/1999/xlink">
<g id="graph0" class="graph" transform="scale(1 1) rotate(0) translate(4 91)">
<title>std::basic_string&lt; Char &gt;</title>
<polygon fill="white" stroke="none" points="-4,4 -4,-91 239.5,-91 239.5,4 -4,4"/>
<!-- Node1 -->
<g id="node1" class="node"><title>Node1</title>
<polygon fill="#bfbfbf" stroke="black" points="64,-56.5 64,-86.5 159,-86.5 159,-56.5 64,-56.5"/>
<text text-anchor="start" x="72" y="-74.5" font-family="Helvetica,sans-Serif" font-size="10.00">std::basic_string&lt;</text>
<text text-anchor="middle" x="111.5" y="-63.5" font-family="Helvetica,sans-Serif" font-size="10.00"> Char &gt;</text>
</g>
<!-- Node2 -->
<g id="node2" class="node"><title>Node2</title>
<g id="a_node2"><a xlink:title="STL class. ">
<polygon fill="white" stroke="#bfbfbf" points="0,-0.5 0,-19.5 97,-19.5 97,-0.5 0,-0.5"/>
<text text-anchor="middle" x="48.5" y="-7.5" font-family="Helvetica,sans-Serif" font-size="10.00">std::string&lt; char &gt;</text>
</a>
</g>
</g>
<!-- Node1&#45;&gt;Node2 -->
<g id="edge1" class="edge"><title>Node1&#45;&gt;Node2</title>
<path fill="none" stroke="midnightblue" d="M89.0531,-49.3002C78.2404,-39.0881 65.8723,-27.4072 57.6671,-19.6578"/>
<polygon fill="midnightblue" stroke="midnightblue" points="86.8965,-52.0776 96.5699,-56.3993 91.7029,-46.9885 86.8965,-52.0776"/>
</g>
<!-- Node3 -->
<g id="node3" class="node"><title>Node3</title>
<g id="a_node3"><a xlink:title="STL class. ">
<polygon fill="white" stroke="#bfbfbf" points="115.5,-0.5 115.5,-19.5 235.5,-19.5 235.5,-0.5 115.5,-0.5"/>
<text text-anchor="middle" x="175.5" y="-7.5" font-family="Helvetica,sans-Serif" font-size="10.00">std::wstring&lt; wchar_t &gt;</text>
</a>
</g>
</g>
<!-- Node1&#45;&gt;Node3 -->
<g id="edge2" class="edge"><title>Node1&#45;&gt;Node3</title>
<path fill="none" stroke="midnightblue" d="M134.303,-49.3002C145.288,-39.0881 157.852,-27.4072 166.187,-19.6578"/>
<polygon fill="midnightblue" stroke="midnightblue" points="131.608,-47.027 126.667,-56.3993 136.374,-52.1538 131.608,-47.027"/>
</g>
</g>
</svg>
