<?xml version="1.0" encoding="UTF-8" standalone="no"?>
<!DOCTYPE svg PUBLIC "-//W3C//DTD SVG 1.1//EN"
 "http://www.w3.org/Graphics/SVG/1.1/DTD/svg11.dtd">
<!-- Generated by graphviz version 2.38.0 (20140413.2041)
 -->
<!-- Title: std::basic_iostream&lt; Char &gt; Pages: 1 -->
<svg width="224pt" height="218pt"
 viewBox="0.00 0.00 223.50 218.00" xmlns="http://www.w3.org/2000/svg" xmlns:xlink="http://www.w3.org/1999/xlink">
<g id="graph0" class="graph" transform="scale(1 1) rotate(0) translate(4 214)">
<title>std::basic_iostream&lt; Char &gt;</title>
<polygon fill="white" stroke="none" points="-4,4 -4,-214 219.5,-214 219.5,4 -4,4"/>
<!-- Node1 -->
<g id="node1" class="node"><title>Node1</title>
<polygon fill="#bfbfbf" stroke="black" points="55.5,-0.5 55.5,-30.5 157.5,-30.5 157.5,-0.5 55.5,-0.5"/>
<text text-anchor="start" x="63.5" y="-18.5" font-family="Helvetica,sans-Serif" font-size="10.00">std::basic_iostream</text>
<text text-anchor="middle" x="106.5" y="-7.5" font-family="Helvetica,sans-Serif" font-size="10.00">&lt; Char &gt;</text>
</g>
<!-- Node2 -->
<g id="node2" class="node"><title>Node2</title>
<g id="a_node2"><a xlink:title="STL class. ">
<polygon fill="white" stroke="#bfbfbf" points="0,-67.5 0,-97.5 97,-97.5 97,-67.5 0,-67.5"/>
<text text-anchor="start" x="8" y="-85.5" font-family="Helvetica,sans-Serif" font-size="10.00">std::basic_istream</text>
<text text-anchor="middle" x="48.5" y="-74.5" font-family="Helvetica,sans-Serif" font-size="10.00">&lt; Char &gt;</text>
</a>
</g>
</g>
<!-- Node2&#45;&gt;Node1 -->
<g id="edge1" class="edge"><title>Node2&#45;&gt;Node1</title>
<path fill="none" stroke="midnightblue" d="M67.92,-59.7362C76.5015,-50.119 86.3438,-39.0888 93.9394,-30.5765"/>
<polygon fill="midnightblue" stroke="midnightblue" points="65.1315,-57.6043 61.0851,-67.396 70.3545,-62.2648 65.1315,-57.6043"/>
</g>
<!-- Node3 -->
<g id="node3" class="node"><title>Node3</title>
<g id="a_node3"><a xlink:title="STL class. ">
<polygon fill="white" stroke="#bfbfbf" points="48.5,-134.5 48.5,-153.5 164.5,-153.5 164.5,-134.5 48.5,-134.5"/>
<text text-anchor="middle" x="106.5" y="-141.5" font-family="Helvetica,sans-Serif" font-size="10.00">std::basic_ios&lt; Char &gt;</text>
</a>
</g>
</g>
<!-- Node3&#45;&gt;Node2 -->
<g id="edge2" class="edge"><title>Node3&#45;&gt;Node2</title>
<path fill="none" stroke="midnightblue" d="M90.9917,-127.091C82.0137,-117.88 70.8157,-106.393 62.1695,-97.523"/>
<polygon fill="midnightblue" stroke="midnightblue" points="88.7035,-129.757 98.19,-134.475 93.716,-124.871 88.7035,-129.757"/>
</g>
<!-- Node5 -->
<g id="node5" class="node"><title>Node5</title>
<g id="a_node5"><a xlink:title="STL class. ">
<polygon fill="white" stroke="#bfbfbf" points="115.5,-67.5 115.5,-97.5 215.5,-97.5 215.5,-67.5 115.5,-67.5"/>
<text text-anchor="start" x="123.5" y="-85.5" font-family="Helvetica,sans-Serif" font-size="10.00">std::basic_ostream</text>
<text text-anchor="middle" x="165.5" y="-74.5" font-family="Helvetica,sans-Serif" font-size="10.00">&lt; Char &gt;</text>
</a>
</g>
</g>
<!-- Node3&#45;&gt;Node5 -->
<g id="edge5" class="edge"><title>Node3&#45;&gt;Node5</title>
<path fill="none" stroke="midnightblue" d="M122,-127.369C131.178,-118.113 142.711,-106.482 151.595,-97.523"/>
<polygon fill="midnightblue" stroke="midnightblue" points="119.509,-124.91 114.953,-134.475 124.48,-129.839 119.509,-124.91"/>
</g>
<!-- Node4 -->
<g id="node4" class="node"><title>Node4</title>
<g id="a_node4"><a xlink:title="STL class. ">
<polygon fill="white" stroke="#bfbfbf" points="69,-190.5 69,-209.5 144,-209.5 144,-190.5 69,-190.5"/>
<text text-anchor="middle" x="106.5" y="-197.5" font-family="Helvetica,sans-Serif" font-size="10.00">std::ios_base</text>
</a>
</g>
</g>
<!-- Node4&#45;&gt;Node3 -->
<g id="edge3" class="edge"><title>Node4&#45;&gt;Node3</title>
<path fill="none" stroke="midnightblue" d="M106.5,-179.805C106.5,-170.91 106.5,-160.78 106.5,-153.751"/>
<polygon fill="midnightblue" stroke="midnightblue" points="103,-180.083 106.5,-190.083 110,-180.083 103,-180.083"/>
</g>
<!-- Node5&#45;&gt;Node1 -->
<g id="edge4" class="edge"><title>Node5&#45;&gt;Node1</title>
<path fill="none" stroke="midnightblue" d="M145.745,-59.7362C137.016,-50.119 127.004,-39.0888 119.277,-30.5765"/>
<polygon fill="midnightblue" stroke="midnightblue" points="143.385,-62.3438 152.698,-67.396 148.568,-57.639 143.385,-62.3438"/>
</g>
</g>
</svg>
