<?xml version="1.0" encoding="UTF-8" standalone="no"?>
<!DOCTYPE svg PUBLIC "-//W3C//DTD SVG 1.1//EN"
 "http://www.w3.org/Graphics/SVG/1.1/DTD/svg11.dtd">
<!-- Generated by graphviz version 2.38.0 (20140413.2041)
 -->
<!-- Title: std::basic_iostream&lt; Char &gt; Pages: 1 -->
<svg width="841pt" height="310pt"
 viewBox="0.00 0.00 841.00 309.50" xmlns="http://www.w3.org/2000/svg" xmlns:xlink="http://www.w3.org/1999/xlink">
<g id="graph0" class="graph" transform="scale(1 1) rotate(0) translate(4 305.5)">
<title>std::basic_iostream&lt; Char &gt;</title>
<polygon fill="white" stroke="none" points="-4,4 -4,-305.5 837,-305.5 837,4 -4,4"/>
<!-- Node1 -->
<g id="node1" class="node"><title>Node1</title>
<polygon fill="#bfbfbf" stroke="black" points="399,-169.5 399,-199.5 501,-199.5 501,-169.5 399,-169.5"/>
<text text-anchor="start" x="407" y="-187.5" font-family="Helvetica,sans-Serif" font-size="10.00">std::basic_iostream</text>
<text text-anchor="middle" x="450" y="-176.5" font-family="Helvetica,sans-Serif" font-size="10.00">&lt; Char &gt;</text>
</g>
<!-- Node6 -->
<g id="node6" class="node"><title>Node6</title>
<polygon fill="white" stroke="#bfbfbf" points="545,-282 545,-301 660,-301 660,-282 545,-282"/>
<text text-anchor="middle" x="602.5" y="-289" font-family="Helvetica,sans-Serif" font-size="10.00">basic_fstream&lt; char &gt;</text>
</g>
<!-- Node1&#45;&gt;Node6 -->
<g id="edge6" class="edge"><title>Node1&#45;&gt;Node6</title>
<path fill="none" stroke="midnightblue" d="M467.924,-207.541C483.705,-227.461 508.972,-255.635 537,-272.5 543.402,-276.352 550.634,-279.465 557.881,-281.969"/>
<polygon fill="midnightblue" stroke="midnightblue" points="470.645,-205.338 461.76,-199.566 465.106,-209.619 470.645,-205.338"/>
</g>
<!-- Node7 -->
<g id="node7" class="node"><title>Node7</title>
<polygon fill="white" stroke="#bfbfbf" points="537,-244 537,-263 668,-263 668,-244 537,-244"/>
<text text-anchor="middle" x="602.5" y="-251" font-family="Helvetica,sans-Serif" font-size="10.00">basic_fstream&lt; wchar_t &gt;</text>
</g>
<!-- Node1&#45;&gt;Node7 -->
<g id="edge7" class="edge"><title>Node1&#45;&gt;Node7</title>
<path fill="none" stroke="midnightblue" d="M482.428,-205.223C498.312,-215.054 518.17,-226.393 537,-234.5 545.363,-238.101 554.618,-241.271 563.445,-243.939"/>
<polygon fill="midnightblue" stroke="midnightblue" points="483.9,-202.014 473.573,-199.645 480.169,-207.937 483.9,-202.014"/>
</g>
<!-- Node8 -->
<g id="node8" class="node"><title>Node8</title>
<polygon fill="white" stroke="#bfbfbf" points="553,-194.5 553,-224.5 652,-224.5 652,-194.5 553,-194.5"/>
<text text-anchor="start" x="561" y="-212.5" font-family="Helvetica,sans-Serif" font-size="10.00">basic_stringstream</text>
<text text-anchor="middle" x="602.5" y="-201.5" font-family="Helvetica,sans-Serif" font-size="10.00">&lt; char &gt;</text>
</g>
<!-- Node1&#45;&gt;Node8 -->
<g id="edge8" class="edge"><title>Node1&#45;&gt;Node8</title>
<path fill="none" stroke="midnightblue" d="M511.069,-194.478C524.953,-196.785 539.557,-199.211 552.882,-201.424"/>
<polygon fill="midnightblue" stroke="midnightblue" points="511.553,-191.011 501.114,-192.825 510.406,-197.916 511.553,-191.011"/>
</g>
<!-- Node9 -->
<g id="node9" class="node"><title>Node9</title>
<polygon fill="white" stroke="#bfbfbf" points="553,-145.5 553,-175.5 652,-175.5 652,-145.5 553,-145.5"/>
<text text-anchor="start" x="561" y="-163.5" font-family="Helvetica,sans-Serif" font-size="10.00">basic_stringstream</text>
<text text-anchor="middle" x="602.5" y="-152.5" font-family="Helvetica,sans-Serif" font-size="10.00">&lt; wchar_t &gt;</text>
</g>
<!-- Node1&#45;&gt;Node9 -->
<g id="edge9" class="edge"><title>Node1&#45;&gt;Node9</title>
<path fill="none" stroke="midnightblue" d="M511.069,-174.921C524.953,-172.707 539.557,-170.378 552.882,-168.253"/>
<polygon fill="midnightblue" stroke="midnightblue" points="510.438,-171.477 501.114,-176.508 511.541,-178.39 510.438,-171.477"/>
</g>
<!-- Node10 -->
<g id="node10" class="node"><title>Node10</title>
<g id="a_node10"><a xlink:title="STL class. ">
<polygon fill="white" stroke="#bfbfbf" points="553.5,-96.5 553.5,-126.5 651.5,-126.5 651.5,-96.5 553.5,-96.5"/>
<text text-anchor="start" x="561.5" y="-114.5" font-family="Helvetica,sans-Serif" font-size="10.00">std::basic_fstream</text>
<text text-anchor="middle" x="602.5" y="-103.5" font-family="Helvetica,sans-Serif" font-size="10.00">&lt; Char &gt;</text>
</a>
</g>
</g>
<!-- Node1&#45;&gt;Node10 -->
<g id="edge10" class="edge"><title>Node1&#45;&gt;Node10</title>
<path fill="none" stroke="midnightblue" d="M483.746,-164.182C499.524,-154.826 518.91,-143.952 537,-135.5 543.711,-132.364 550.955,-129.34 558.08,-126.557"/>
<polygon fill="midnightblue" stroke="midnightblue" points="481.683,-161.338 474.91,-169.486 485.285,-167.34 481.683,-161.338"/>
</g>
<!-- Node13 -->
<g id="node13" class="node"><title>Node13</title>
<g id="a_node13"><a xlink:title="STL class. ">
<polygon fill="white" stroke="#bfbfbf" points="543,-47.5 543,-77.5 662,-77.5 662,-47.5 543,-47.5"/>
<text text-anchor="start" x="551" y="-65.5" font-family="Helvetica,sans-Serif" font-size="10.00">std::basic_stringstream</text>
<text text-anchor="middle" x="602.5" y="-54.5" font-family="Helvetica,sans-Serif" font-size="10.00">&lt; Char &gt;</text>
</a>
</g>
</g>
<!-- Node1&#45;&gt;Node13 -->
<g id="edge13" class="edge"><title>Node1&#45;&gt;Node13</title>
<path fill="none" stroke="midnightblue" d="M466.412,-161.051C481.914,-139.089 507.676,-106.707 537,-86.5 541.919,-83.1102 547.377,-80.1291 552.976,-77.5262"/>
<polygon fill="midnightblue" stroke="midnightblue" points="463.398,-159.255 460.605,-169.475 469.162,-163.228 463.398,-159.255"/>
</g>
<!-- Node2 -->
<g id="node2" class="node"><title>Node2</title>
<g id="a_node2"><a xlink:title="STL class. ">
<polygon fill="white" stroke="#bfbfbf" points="264.5,-194.5 264.5,-224.5 361.5,-224.5 361.5,-194.5 264.5,-194.5"/>
<text text-anchor="start" x="272.5" y="-212.5" font-family="Helvetica,sans-Serif" font-size="10.00">std::basic_istream</text>
<text text-anchor="middle" x="313" y="-201.5" font-family="Helvetica,sans-Serif" font-size="10.00">&lt; Char &gt;</text>
</a>
</g>
</g>
<!-- Node2&#45;&gt;Node1 -->
<g id="edge1" class="edge"><title>Node2&#45;&gt;Node1</title>
<path fill="none" stroke="midnightblue" d="M371.607,-198.832C380.594,-197.168 389.821,-195.459 398.631,-193.828"/>
<polygon fill="midnightblue" stroke="midnightblue" points="370.791,-195.423 361.596,-200.686 372.066,-202.306 370.791,-195.423"/>
</g>
<!-- Node3 -->
<g id="node3" class="node"><title>Node3</title>
<g id="a_node3"><a xlink:title="STL class. ">
<polygon fill="white" stroke="#bfbfbf" points="111,-175 111,-194 227,-194 227,-175 111,-175"/>
<text text-anchor="middle" x="169" y="-182" font-family="Helvetica,sans-Serif" font-size="10.00">std::basic_ios&lt; Char &gt;</text>
</a>
</g>
</g>
<!-- Node3&#45;&gt;Node2 -->
<g id="edge2" class="edge"><title>Node3&#45;&gt;Node2</title>
<path fill="none" stroke="midnightblue" d="M234.089,-195.783C244.181,-197.56 254.462,-199.37 264.105,-201.068"/>
<polygon fill="midnightblue" stroke="midnightblue" points="234.545,-192.31 224.089,-194.023 233.331,-199.204 234.545,-192.31"/>
</g>
<!-- Node5 -->
<g id="node5" class="node"><title>Node5</title>
<g id="a_node5"><a xlink:title="STL class. ">
<polygon fill="white" stroke="#bfbfbf" points="263,-145.5 263,-175.5 363,-175.5 363,-145.5 263,-145.5"/>
<text text-anchor="start" x="271" y="-163.5" font-family="Helvetica,sans-Serif" font-size="10.00">std::basic_ostream</text>
<text text-anchor="middle" x="313" y="-152.5" font-family="Helvetica,sans-Serif" font-size="10.00">&lt; Char &gt;</text>
</a>
</g>
</g>
<!-- Node3&#45;&gt;Node5 -->
<g id="edge5" class="edge"><title>Node3&#45;&gt;Node5</title>
<path fill="none" stroke="midnightblue" d="M236.528,-173.256C245.445,-171.749 254.457,-170.226 262.998,-168.782"/>
<polygon fill="midnightblue" stroke="midnightblue" points="235.807,-169.828 226.53,-174.946 236.974,-176.73 235.807,-169.828"/>
</g>
<!-- Node4 -->
<g id="node4" class="node"><title>Node4</title>
<g id="a_node4"><a xlink:title="STL class. ">
<polygon fill="white" stroke="#bfbfbf" points="0,-175 0,-194 75,-194 75,-175 0,-175"/>
<text text-anchor="middle" x="37.5" y="-182" font-family="Helvetica,sans-Serif" font-size="10.00">std::ios_base</text>
</a>
</g>
</g>
<!-- Node4&#45;&gt;Node3 -->
<g id="edge3" class="edge"><title>Node4&#45;&gt;Node3</title>
<path fill="none" stroke="midnightblue" d="M85.4322,-184.5C93.6719,-184.5 102.329,-184.5 110.811,-184.5"/>
<polygon fill="midnightblue" stroke="midnightblue" points="85.2631,-181 75.2631,-184.5 85.2631,-188 85.2631,-181"/>
</g>
<!-- Node5&#45;&gt;Node1 -->
<g id="edge4" class="edge"><title>Node5&#45;&gt;Node1</title>
<path fill="none" stroke="midnightblue" d="M373.068,-171.001C381.644,-172.526 390.404,-174.083 398.783,-175.573"/>
<polygon fill="midnightblue" stroke="midnightblue" points="373.578,-167.537 363.12,-169.232 372.353,-174.429 373.578,-167.537"/>
</g>
<!-- Node11 -->
<g id="node11" class="node"><title>Node11</title>
<g id="a_node11"><a xlink:title="STL class. ">
<polygon fill="white" stroke="#bfbfbf" points="715.5,-138 715.5,-157 821.5,-157 821.5,-138 715.5,-138"/>
<text text-anchor="middle" x="768.5" y="-145" font-family="Helvetica,sans-Serif" font-size="10.00">std::fstream&lt; char &gt;</text>
</a>
</g>
</g>
<!-- Node10&#45;&gt;Node11 -->
<g id="edge11" class="edge"><title>Node10&#45;&gt;Node11</title>
<path fill="none" stroke="midnightblue" d="M661.69,-124.273C682.207,-128.777 704.902,-133.759 723.995,-137.95"/>
<polygon fill="midnightblue" stroke="midnightblue" points="662.336,-120.832 651.818,-122.106 660.835,-127.669 662.336,-120.832"/>
</g>
<!-- Node12 -->
<g id="node12" class="node"><title>Node12</title>
<g id="a_node12"><a xlink:title="STL class. ">
<polygon fill="white" stroke="#bfbfbf" points="704,-100 704,-119 833,-119 833,-100 704,-100"/>
<text text-anchor="middle" x="768.5" y="-107" font-family="Helvetica,sans-Serif" font-size="10.00">std::wfstream&lt; wchar_t &gt;</text>
</a>
</g>
</g>
<!-- Node10&#45;&gt;Node12 -->
<g id="edge12" class="edge"><title>Node10&#45;&gt;Node12</title>
<path fill="none" stroke="midnightblue" d="M661.959,-110.787C675.493,-110.622 689.962,-110.446 703.712,-110.278"/>
<polygon fill="midnightblue" stroke="midnightblue" points="661.775,-107.289 651.818,-110.911 661.86,-114.288 661.775,-107.289"/>
</g>
<!-- Node14 -->
<g id="node14" class="node"><title>Node14</title>
<g id="a_node14"><a xlink:title="STL class. ">
<polygon fill="white" stroke="#bfbfbf" points="720.5,-49.5 720.5,-79.5 816.5,-79.5 816.5,-49.5 720.5,-49.5"/>
<text text-anchor="start" x="728.5" y="-67.5" font-family="Helvetica,sans-Serif" font-size="10.00">std::stringstream&lt;</text>
<text text-anchor="middle" x="768.5" y="-56.5" font-family="Helvetica,sans-Serif" font-size="10.00"> char &gt;</text>
</a>
</g>
</g>
<!-- Node13&#45;&gt;Node14 -->
<g id="edge14" class="edge"><title>Node13&#45;&gt;Node14</title>
<path fill="none" stroke="midnightblue" d="M672.701,-63.3439C688.802,-63.5403 705.578,-63.7449 720.463,-63.9264"/>
<polygon fill="midnightblue" stroke="midnightblue" points="672.287,-59.8387 662.245,-63.2164 672.201,-66.8382 672.287,-59.8387"/>
</g>
<!-- Node15 -->
<g id="node15" class="node"><title>Node15</title>
<g id="a_node15"><a xlink:title="STL class. ">
<polygon fill="white" stroke="#bfbfbf" points="719.5,-0.5 719.5,-30.5 817.5,-30.5 817.5,-0.5 719.5,-0.5"/>
<text text-anchor="start" x="727.5" y="-18.5" font-family="Helvetica,sans-Serif" font-size="10.00">std::wstringstream</text>
<text text-anchor="middle" x="768.5" y="-7.5" font-family="Helvetica,sans-Serif" font-size="10.00">&lt; wchar_t &gt;</text>
</a>
</g>
</g>
<!-- Node13&#45;&gt;Node15 -->
<g id="edge15" class="edge"><title>Node13&#45;&gt;Node15</title>
<path fill="none" stroke="midnightblue" d="M665.56,-44.7145C683.341,-39.6187 702.454,-34.1413 719.271,-29.3218"/>
<polygon fill="midnightblue" stroke="midnightblue" points="664.49,-41.3801 655.842,-47.4997 666.419,-48.1092 664.49,-41.3801"/>
</g>
</g>
</svg>
