<?xml version="1.0" encoding="UTF-8" standalone="no"?>
<!DOCTYPE svg PUBLIC "-//W3C//DTD SVG 1.1//EN"
 "http://www.w3.org/Graphics/SVG/1.1/DTD/svg11.dtd">
<!-- Generated by graphviz version 2.38.0 (20140413.2041)
 -->
<!-- Title: std::unordered_multimap&lt; K, T &gt; Pages: 1 -->
<svg width="132pt" height="106pt"
 viewBox="0.00 0.00 132.00 106.00" xmlns="http://www.w3.org/2000/svg" xmlns:xlink="http://www.w3.org/1999/xlink">
<g id="graph0" class="graph" transform="scale(1 1) rotate(0) translate(4 102)">
<title>std::unordered_multimap&lt; K, T &gt;</title>
<polygon fill="white" stroke="none" points="-4,4 -4,-102 128,-102 128,4 -4,4"/>
<!-- Node1 -->
<g id="node1" class="node"><title>Node1</title>
<polygon fill="#bfbfbf" stroke="black" points="0,-0.5 0,-30.5 124,-30.5 124,-0.5 0,-0.5"/>
<text text-anchor="start" x="8" y="-18.5" font-family="Helvetica,sans-Serif" font-size="10.00">std::unordered_multimap</text>
<text text-anchor="middle" x="62" y="-7.5" font-family="Helvetica,sans-Serif" font-size="10.00">&lt; K, T &gt;</text>
</g>
<!-- Node2 -->
<g id="node2" class="node"><title>Node2</title>
<polygon fill="white" stroke="#bfbfbf" points="23.5,-78.5 23.5,-97.5 52.5,-97.5 52.5,-78.5 23.5,-78.5"/>
<text text-anchor="middle" x="38" y="-85.5" font-family="Helvetica,sans-Serif" font-size="10.00">K</text>
</g>
<!-- Node2&#45;&gt;Node1 -->
<g id="edge1" class="edge"><title>Node2&#45;&gt;Node1</title>
<path fill="none" stroke="#9a32cd" stroke-dasharray="5,2" d="M36.3403,-68.1169C36.3567,-61.8941 36.9953,-55.0274 39,-49 41.1815,-42.4409 45.1683,-36.047 49.217,-30.6901"/>
<polygon fill="#9a32cd" stroke="#9a32cd" points="32.8534,-68.479 36.8221,-78.3024 39.8456,-68.1481 32.8534,-68.479"/>
<text text-anchor="middle" x="51.5" y="-52" font-family="Helvetica,sans-Serif" font-size="10.00"> keys</text>
</g>
<!-- Node3 -->
<g id="node3" class="node"><title>Node3</title>
<polygon fill="white" stroke="#bfbfbf" points="71.5,-78.5 71.5,-97.5 100.5,-97.5 100.5,-78.5 71.5,-78.5"/>
<text text-anchor="middle" x="86" y="-85.5" font-family="Helvetica,sans-Serif" font-size="10.00">T</text>
</g>
<!-- Node3&#45;&gt;Node1 -->
<g id="edge2" class="edge"><title>Node3&#45;&gt;Node1</title>
<path fill="none" stroke="#9a32cd" stroke-dasharray="5,2" d="M79.7365,-68.601C75.6913,-56.7181 70.5087,-41.4943 66.7919,-30.5762"/>
<polygon fill="#9a32cd" stroke="#9a32cd" points="76.5211,-70.0168 83.0571,-78.3553 83.1477,-67.7609 76.5211,-70.0168"/>
<text text-anchor="middle" x="97.5" y="-52" font-family="Helvetica,sans-Serif" font-size="10.00"> elements</text>
</g>
</g>
</svg>
