<?xml version="1.0" encoding="UTF-8" standalone="no"?>
<!DOCTYPE svg PUBLIC "-//W3C//DTD SVG 1.1//EN"
 "http://www.w3.org/Graphics/SVG/1.1/DTD/svg11.dtd">
<!-- Generated by graphviz version 2.38.0 (20140413.2041)
 -->
<!-- Title: std::basic_ifstream&lt; Char &gt; Pages: 1 -->
<svg width="266pt" height="274pt"
 viewBox="0.00 0.00 265.50 274.00" xmlns="http://www.w3.org/2000/svg" xmlns:xlink="http://www.w3.org/1999/xlink">
<g id="graph0" class="graph" transform="scale(1 1) rotate(0) translate(4 270)">
<title>std::basic_ifstream&lt; Char &gt;</title>
<polygon fill="white" stroke="none" points="-4,4 -4,-270 261.5,-270 261.5,4 -4,4"/>
<!-- Node1 -->
<g id="node1" class="node"><title>Node1</title>
<polygon fill="#bfbfbf" stroke="black" points="73,-56.5 73,-86.5 173,-86.5 173,-56.5 73,-56.5"/>
<text text-anchor="start" x="81" y="-74.5" font-family="Helvetica,sans-Serif" font-size="10.00">std::basic_ifstream</text>
<text text-anchor="middle" x="123" y="-63.5" font-family="Helvetica,sans-Serif" font-size="10.00">&lt; Char &gt;</text>
</g>
<!-- Node5 -->
<g id="node5" class="node"><title>Node5</title>
<g id="a_node5"><a xlink:title="STL class. ">
<polygon fill="white" stroke="#bfbfbf" points="0,-0.5 0,-19.5 108,-19.5 108,-0.5 0,-0.5"/>
<text text-anchor="middle" x="54" y="-7.5" font-family="Helvetica,sans-Serif" font-size="10.00">std::ifstream&lt; char &gt;</text>
</a>
</g>
</g>
<!-- Node1&#45;&gt;Node5 -->
<g id="edge4" class="edge"><title>Node1&#45;&gt;Node5</title>
<path fill="none" stroke="midnightblue" d="M98.7598,-49.5972C86.8362,-39.3153 73.1141,-27.4824 64.0401,-19.6578"/>
<polygon fill="midnightblue" stroke="midnightblue" points="96.7891,-52.5194 106.648,-56.3993 101.36,-47.2182 96.7891,-52.5194"/>
</g>
<!-- Node6 -->
<g id="node6" class="node"><title>Node6</title>
<g id="a_node6"><a xlink:title="STL class. ">
<polygon fill="white" stroke="#bfbfbf" points="126.5,-0.5 126.5,-19.5 257.5,-19.5 257.5,-0.5 126.5,-0.5"/>
<text text-anchor="middle" x="192" y="-7.5" font-family="Helvetica,sans-Serif" font-size="10.00">std::wifstream&lt; wchar_t &gt;</text>
</a>
</g>
</g>
<!-- Node1&#45;&gt;Node6 -->
<g id="edge5" class="edge"><title>Node1&#45;&gt;Node6</title>
<path fill="none" stroke="midnightblue" d="M147.24,-49.5972C159.164,-39.3153 172.886,-27.4824 181.96,-19.6578"/>
<polygon fill="midnightblue" stroke="midnightblue" points="144.64,-47.2182 139.352,-56.3993 149.211,-52.5194 144.64,-47.2182"/>
</g>
<!-- Node2 -->
<g id="node2" class="node"><title>Node2</title>
<g id="a_node2"><a xlink:title="STL class. ">
<polygon fill="white" stroke="#bfbfbf" points="74.5,-123.5 74.5,-153.5 171.5,-153.5 171.5,-123.5 74.5,-123.5"/>
<text text-anchor="start" x="82.5" y="-141.5" font-family="Helvetica,sans-Serif" font-size="10.00">std::basic_istream</text>
<text text-anchor="middle" x="123" y="-130.5" font-family="Helvetica,sans-Serif" font-size="10.00">&lt; Char &gt;</text>
</a>
</g>
</g>
<!-- Node2&#45;&gt;Node1 -->
<g id="edge1" class="edge"><title>Node2&#45;&gt;Node1</title>
<path fill="none" stroke="midnightblue" d="M123,-113.108C123,-104.154 123,-94.3227 123,-86.5765"/>
<polygon fill="midnightblue" stroke="midnightblue" points="119.5,-113.396 123,-123.396 126.5,-113.396 119.5,-113.396"/>
</g>
<!-- Node3 -->
<g id="node3" class="node"><title>Node3</title>
<g id="a_node3"><a xlink:title="STL class. ">
<polygon fill="white" stroke="#bfbfbf" points="65,-190.5 65,-209.5 181,-209.5 181,-190.5 65,-190.5"/>
<text text-anchor="middle" x="123" y="-197.5" font-family="Helvetica,sans-Serif" font-size="10.00">std::basic_ios&lt; Char &gt;</text>
</a>
</g>
</g>
<!-- Node3&#45;&gt;Node2 -->
<g id="edge2" class="edge"><title>Node3&#45;&gt;Node2</title>
<path fill="none" stroke="midnightblue" d="M123,-180.235C123,-171.586 123,-161.497 123,-153.523"/>
<polygon fill="midnightblue" stroke="midnightblue" points="119.5,-180.475 123,-190.475 126.5,-180.475 119.5,-180.475"/>
</g>
<!-- Node4 -->
<g id="node4" class="node"><title>Node4</title>
<g id="a_node4"><a xlink:title="STL class. ">
<polygon fill="white" stroke="#bfbfbf" points="85.5,-246.5 85.5,-265.5 160.5,-265.5 160.5,-246.5 85.5,-246.5"/>
<text text-anchor="middle" x="123" y="-253.5" font-family="Helvetica,sans-Serif" font-size="10.00">std::ios_base</text>
</a>
</g>
</g>
<!-- Node4&#45;&gt;Node3 -->
<g id="edge3" class="edge"><title>Node4&#45;&gt;Node3</title>
<path fill="none" stroke="midnightblue" d="M123,-235.805C123,-226.91 123,-216.78 123,-209.751"/>
<polygon fill="midnightblue" stroke="midnightblue" points="119.5,-236.083 123,-246.083 126.5,-236.083 119.5,-236.083"/>
</g>
</g>
</svg>
