<?xml version="1.0" encoding="UTF-8" standalone="no"?>
<!DOCTYPE svg PUBLIC "-//W3C//DTD SVG 1.1//EN"
 "http://www.w3.org/Graphics/SVG/1.1/DTD/svg11.dtd">
<!-- Generated by graphviz version 2.38.0 (20140413.2041)
 -->
<!-- Title: std::wfstream Pages: 1 -->
<svg width="224pt" height="341pt"
 viewBox="0.00 0.00 223.50 341.00" xmlns="http://www.w3.org/2000/svg" xmlns:xlink="http://www.w3.org/1999/xlink">
<g id="graph0" class="graph" transform="scale(1 1) rotate(0) translate(4 337)">
<title>std::wfstream</title>
<polygon fill="white" stroke="none" points="-4,4 -4,-337 219.5,-337 219.5,4 -4,4"/>
<!-- Node1 -->
<g id="node1" class="node"><title>Node1</title>
<polygon fill="#bfbfbf" stroke="black" points="68,-0.5 68,-19.5 145,-19.5 145,-0.5 68,-0.5"/>
<text text-anchor="middle" x="106.5" y="-7.5" font-family="Helvetica,sans-Serif" font-size="10.00">std::wfstream</text>
</g>
<!-- Node2 -->
<g id="node2" class="node"><title>Node2</title>
<g id="a_node2"><a xlink:title="STL class. ">
<polygon fill="white" stroke="#bfbfbf" points="57.5,-56.5 57.5,-86.5 155.5,-86.5 155.5,-56.5 57.5,-56.5"/>
<text text-anchor="start" x="65.5" y="-74.5" font-family="Helvetica,sans-Serif" font-size="10.00">std::basic_fstream</text>
<text text-anchor="middle" x="106.5" y="-63.5" font-family="Helvetica,sans-Serif" font-size="10.00">&lt; wchar_t &gt;</text>
</a>
</g>
</g>
<!-- Node2&#45;&gt;Node1 -->
<g id="edge1" class="edge"><title>Node2&#45;&gt;Node1</title>
<path fill="none" stroke="midnightblue" d="M106.5,-46.2892C106.5,-36.857 106.5,-26.6548 106.5,-19.6578"/>
<polygon fill="midnightblue" stroke="midnightblue" points="103,-46.3993 106.5,-56.3993 110,-46.3994 103,-46.3993"/>
</g>
<!-- Node3 -->
<g id="node3" class="node"><title>Node3</title>
<g id="a_node3"><a xlink:title="STL class. ">
<polygon fill="white" stroke="#bfbfbf" points="55.5,-123.5 55.5,-153.5 157.5,-153.5 157.5,-123.5 55.5,-123.5"/>
<text text-anchor="start" x="63.5" y="-141.5" font-family="Helvetica,sans-Serif" font-size="10.00">std::basic_iostream</text>
<text text-anchor="middle" x="106.5" y="-130.5" font-family="Helvetica,sans-Serif" font-size="10.00">&lt; Char &gt;</text>
</a>
</g>
</g>
<!-- Node3&#45;&gt;Node2 -->
<g id="edge2" class="edge"><title>Node3&#45;&gt;Node2</title>
<path fill="none" stroke="midnightblue" d="M106.5,-113.108C106.5,-104.154 106.5,-94.3227 106.5,-86.5765"/>
<polygon fill="midnightblue" stroke="midnightblue" points="103,-113.396 106.5,-123.396 110,-113.396 103,-113.396"/>
</g>
<!-- Node4 -->
<g id="node4" class="node"><title>Node4</title>
<g id="a_node4"><a xlink:title="STL class. ">
<polygon fill="white" stroke="#bfbfbf" points="0,-190.5 0,-220.5 97,-220.5 97,-190.5 0,-190.5"/>
<text text-anchor="start" x="8" y="-208.5" font-family="Helvetica,sans-Serif" font-size="10.00">std::basic_istream</text>
<text text-anchor="middle" x="48.5" y="-197.5" font-family="Helvetica,sans-Serif" font-size="10.00">&lt; Char &gt;</text>
</a>
</g>
</g>
<!-- Node4&#45;&gt;Node3 -->
<g id="edge3" class="edge"><title>Node4&#45;&gt;Node3</title>
<path fill="none" stroke="midnightblue" d="M67.92,-182.736C76.5015,-173.119 86.3438,-162.089 93.9394,-153.577"/>
<polygon fill="midnightblue" stroke="midnightblue" points="65.1315,-180.604 61.0851,-190.396 70.3545,-185.265 65.1315,-180.604"/>
</g>
<!-- Node5 -->
<g id="node5" class="node"><title>Node5</title>
<g id="a_node5"><a xlink:title="STL class. ">
<polygon fill="white" stroke="#bfbfbf" points="48.5,-257.5 48.5,-276.5 164.5,-276.5 164.5,-257.5 48.5,-257.5"/>
<text text-anchor="middle" x="106.5" y="-264.5" font-family="Helvetica,sans-Serif" font-size="10.00">std::basic_ios&lt; Char &gt;</text>
</a>
</g>
</g>
<!-- Node5&#45;&gt;Node4 -->
<g id="edge4" class="edge"><title>Node5&#45;&gt;Node4</title>
<path fill="none" stroke="midnightblue" d="M90.9917,-250.091C82.0137,-240.88 70.8157,-229.393 62.1695,-220.523"/>
<polygon fill="midnightblue" stroke="midnightblue" points="88.7035,-252.757 98.19,-257.475 93.716,-247.871 88.7035,-252.757"/>
</g>
<!-- Node7 -->
<g id="node7" class="node"><title>Node7</title>
<g id="a_node7"><a xlink:title="STL class. ">
<polygon fill="white" stroke="#bfbfbf" points="115.5,-190.5 115.5,-220.5 215.5,-220.5 215.5,-190.5 115.5,-190.5"/>
<text text-anchor="start" x="123.5" y="-208.5" font-family="Helvetica,sans-Serif" font-size="10.00">std::basic_ostream</text>
<text text-anchor="middle" x="165.5" y="-197.5" font-family="Helvetica,sans-Serif" font-size="10.00">&lt; Char &gt;</text>
</a>
</g>
</g>
<!-- Node5&#45;&gt;Node7 -->
<g id="edge7" class="edge"><title>Node5&#45;&gt;Node7</title>
<path fill="none" stroke="midnightblue" d="M122,-250.369C131.178,-241.113 142.711,-229.482 151.595,-220.523"/>
<polygon fill="midnightblue" stroke="midnightblue" points="119.509,-247.91 114.953,-257.475 124.48,-252.839 119.509,-247.91"/>
</g>
<!-- Node6 -->
<g id="node6" class="node"><title>Node6</title>
<g id="a_node6"><a xlink:title="STL class. ">
<polygon fill="white" stroke="#bfbfbf" points="69,-313.5 69,-332.5 144,-332.5 144,-313.5 69,-313.5"/>
<text text-anchor="middle" x="106.5" y="-320.5" font-family="Helvetica,sans-Serif" font-size="10.00">std::ios_base</text>
</a>
</g>
</g>
<!-- Node6&#45;&gt;Node5 -->
<g id="edge5" class="edge"><title>Node6&#45;&gt;Node5</title>
<path fill="none" stroke="midnightblue" d="M106.5,-302.805C106.5,-293.91 106.5,-283.78 106.5,-276.751"/>
<polygon fill="midnightblue" stroke="midnightblue" points="103,-303.083 106.5,-313.083 110,-303.083 103,-303.083"/>
</g>
<!-- Node7&#45;&gt;Node3 -->
<g id="edge6" class="edge"><title>Node7&#45;&gt;Node3</title>
<path fill="none" stroke="midnightblue" d="M145.745,-182.736C137.016,-173.119 127.004,-162.089 119.277,-153.577"/>
<polygon fill="midnightblue" stroke="midnightblue" points="143.385,-185.344 152.698,-190.396 148.568,-180.639 143.385,-185.344"/>
</g>
</g>
</svg>
