<?xml version="1.0" encoding="UTF-8" standalone="no"?>
<!DOCTYPE svg PUBLIC "-//W3C//DTD SVG 1.1//EN"
 "http://www.w3.org/Graphics/SVG/1.1/DTD/svg11.dtd">
<!-- Generated by graphviz version 2.38.0 (20140413.2041)
 -->
<!-- Title: std::basic_ios&lt; Char &gt; Pages: 1 -->
<svg width="911pt" height="823pt"
 viewBox="0.00 0.00 911.00 822.50" xmlns="http://www.w3.org/2000/svg" xmlns:xlink="http://www.w3.org/1999/xlink">
<g id="graph0" class="graph" transform="scale(1 1) rotate(0) translate(4 818.5)">
<title>std::basic_ios&lt; Char &gt;</title>
<polygon fill="white" stroke="none" points="-4,4 -4,-818.5 907,-818.5 907,4 -4,4"/>
<!-- Node1 -->
<g id="node1" class="node"><title>Node1</title>
<polygon fill="#bfbfbf" stroke="black" points="111,-528 111,-547 227,-547 227,-528 111,-528"/>
<text text-anchor="middle" x="169" y="-535" font-family="Helvetica,sans-Serif" font-size="10.00">std::basic_ios&lt; Char &gt;</text>
</g>
<!-- Node3 -->
<g id="node3" class="node"><title>Node3</title>
<polygon fill="white" stroke="#bfbfbf" points="272.5,-664 272.5,-683 386.5,-683 386.5,-664 272.5,-664"/>
<text text-anchor="middle" x="329.5" y="-671" font-family="Helvetica,sans-Serif" font-size="10.00">basic_istream&lt; char &gt;</text>
</g>
<!-- Node1&#45;&gt;Node3 -->
<g id="edge2" class="edge"><title>Node1&#45;&gt;Node3</title>
<path fill="none" stroke="midnightblue" d="M179.681,-555.815C194.287,-581.674 224.4,-628.613 263,-654.5 268.802,-658.391 275.408,-661.498 282.141,-663.975"/>
<polygon fill="midnightblue" stroke="midnightblue" points="182.737,-554.107 174.858,-547.024 176.6,-557.475 182.737,-554.107"/>
</g>
<!-- Node4 -->
<g id="node4" class="node"><title>Node4</title>
<polygon fill="white" stroke="#bfbfbf" points="264.5,-626 264.5,-645 394.5,-645 394.5,-626 264.5,-626"/>
<text text-anchor="middle" x="329.5" y="-633" font-family="Helvetica,sans-Serif" font-size="10.00">basic_istream&lt; wchar_t &gt;</text>
</g>
<!-- Node1&#45;&gt;Node4 -->
<g id="edge3" class="edge"><title>Node1&#45;&gt;Node4</title>
<path fill="none" stroke="midnightblue" d="M185.576,-554.435C202.874,-572.289 232.417,-600.059 263,-616.5 270.092,-620.312 278.037,-623.44 285.883,-625.978"/>
<polygon fill="midnightblue" stroke="midnightblue" points="187.95,-551.852 178.529,-547.006 182.871,-556.67 187.95,-551.852"/>
</g>
<!-- Node5 -->
<g id="node5" class="node"><title>Node5</title>
<polygon fill="white" stroke="#bfbfbf" points="271,-588 271,-607 388,-607 388,-588 271,-588"/>
<text text-anchor="middle" x="329.5" y="-595" font-family="Helvetica,sans-Serif" font-size="10.00">basic_ostream&lt; char &gt;</text>
</g>
<!-- Node1&#45;&gt;Node5 -->
<g id="edge4" class="edge"><title>Node1&#45;&gt;Node5</title>
<path fill="none" stroke="midnightblue" d="M199.069,-551.509C217.205,-559.949 241.173,-570.563 263,-578.5 272.458,-581.939 282.857,-585.19 292.528,-587.997"/>
<polygon fill="midnightblue" stroke="midnightblue" points="200.182,-548.165 189.644,-547.074 197.202,-554.499 200.182,-548.165"/>
</g>
<!-- Node6 -->
<g id="node6" class="node"><title>Node6</title>
<polygon fill="white" stroke="#bfbfbf" points="263,-550 263,-569 396,-569 396,-550 263,-550"/>
<text text-anchor="middle" x="329.5" y="-557" font-family="Helvetica,sans-Serif" font-size="10.00">basic_ostream&lt; wchar_t &gt;</text>
</g>
<!-- Node1&#45;&gt;Node6 -->
<g id="edge5" class="edge"><title>Node1&#45;&gt;Node6</title>
<path fill="none" stroke="midnightblue" d="M237.362,-546.85C245.77,-548.017 254.361,-549.209 262.745,-550.373"/>
<polygon fill="midnightblue" stroke="midnightblue" points="237.608,-543.351 227.222,-545.443 236.646,-550.284 237.608,-543.351"/>
</g>
<!-- Node7 -->
<g id="node7" class="node"><title>Node7</title>
<g id="a_node7"><a xlink:title="STL class. ">
<polygon fill="white" stroke="#bfbfbf" points="281,-295.5 281,-325.5 378,-325.5 378,-295.5 281,-295.5"/>
<text text-anchor="start" x="289" y="-313.5" font-family="Helvetica,sans-Serif" font-size="10.00">std::basic_istream</text>
<text text-anchor="middle" x="329.5" y="-302.5" font-family="Helvetica,sans-Serif" font-size="10.00">&lt; Char &gt;</text>
</a>
</g>
</g>
<!-- Node1&#45;&gt;Node7 -->
<g id="edge6" class="edge"><title>Node1&#45;&gt;Node7</title>
<path fill="none" stroke="midnightblue" d="M182.544,-519.534C212.889,-476.075 289.83,-365.882 317.978,-325.57"/>
<polygon fill="midnightblue" stroke="midnightblue" points="179.666,-517.543 176.811,-527.746 185.405,-521.551 179.666,-517.543"/>
</g>
<!-- Node33 -->
<g id="node33" class="node"><title>Node33</title>
<g id="a_node33"><a xlink:title="STL class. ">
<polygon fill="white" stroke="#bfbfbf" points="279.5,-500.5 279.5,-530.5 379.5,-530.5 379.5,-500.5 279.5,-500.5"/>
<text text-anchor="start" x="287.5" y="-518.5" font-family="Helvetica,sans-Serif" font-size="10.00">std::basic_ostream</text>
<text text-anchor="middle" x="329.5" y="-507.5" font-family="Helvetica,sans-Serif" font-size="10.00">&lt; Char &gt;</text>
</a>
</g>
</g>
<!-- Node1&#45;&gt;Node33 -->
<g id="edge32" class="edge"><title>Node1&#45;&gt;Node33</title>
<path fill="none" stroke="midnightblue" d="M237.394,-528.146C251.524,-526.184 266.168,-524.152 279.476,-522.305"/>
<polygon fill="midnightblue" stroke="midnightblue" points="236.646,-524.716 227.222,-529.557 237.608,-531.649 236.646,-524.716"/>
</g>
<!-- Node46 -->
<g id="node46" class="node"><title>Node46</title>
<g id="a_node46"><a xlink:title="STL class. ">
<polygon fill="white" stroke="#bfbfbf" points="286.5,-257 286.5,-276 372.5,-276 372.5,-257 286.5,-257"/>
<text text-anchor="middle" x="329.5" y="-264" font-family="Helvetica,sans-Serif" font-size="10.00">std::ios&lt; char &gt;</text>
</a>
</g>
</g>
<!-- Node1&#45;&gt;Node46 -->
<g id="edge48" class="edge"><title>Node1&#45;&gt;Node46</title>
<path fill="none" stroke="midnightblue" d="M171.414,-517.711C175.874,-470.409 193.794,-349.945 263,-285.5 269.499,-279.448 277.812,-275.312 286.318,-272.488"/>
<polygon fill="midnightblue" stroke="midnightblue" points="167.912,-517.589 170.564,-527.847 174.887,-518.174 167.912,-517.589"/>
</g>
<!-- Node47 -->
<g id="node47" class="node"><title>Node47</title>
<g id="a_node47"><a xlink:title="STL class. ">
<polygon fill="white" stroke="#bfbfbf" points="275,-219 275,-238 384,-238 384,-219 275,-219"/>
<text text-anchor="middle" x="329.5" y="-226" font-family="Helvetica,sans-Serif" font-size="10.00">std::wios&lt; wchar_t &gt;</text>
</a>
</g>
</g>
<!-- Node1&#45;&gt;Node47 -->
<g id="edge49" class="edge"><title>Node1&#45;&gt;Node47</title>
<path fill="none" stroke="midnightblue" d="M170.31,-517.62C172.23,-465.479 184.765,-323.575 263,-247.5 266.99,-243.62 271.722,-240.525 276.79,-238.057"/>
<polygon fill="midnightblue" stroke="midnightblue" points="166.805,-517.752 170.032,-527.843 173.802,-517.941 166.805,-517.752"/>
</g>
<!-- Node2 -->
<g id="node2" class="node"><title>Node2</title>
<g id="a_node2"><a xlink:title="STL class. ">
<polygon fill="white" stroke="#bfbfbf" points="0,-528 0,-547 75,-547 75,-528 0,-528"/>
<text text-anchor="middle" x="37.5" y="-535" font-family="Helvetica,sans-Serif" font-size="10.00">std::ios_base</text>
</a>
</g>
</g>
<!-- Node2&#45;&gt;Node1 -->
<g id="edge1" class="edge"><title>Node2&#45;&gt;Node1</title>
<path fill="none" stroke="midnightblue" d="M85.4322,-537.5C93.6719,-537.5 102.329,-537.5 110.811,-537.5"/>
<polygon fill="midnightblue" stroke="midnightblue" points="85.2631,-534 75.2631,-537.5 85.2631,-541 85.2631,-534"/>
</g>
<!-- Node8 -->
<g id="node8" class="node"><title>Node8</title>
<polygon fill="white" stroke="#bfbfbf" points="441.5,-282 441.5,-301 558.5,-301 558.5,-282 441.5,-282"/>
<text text-anchor="middle" x="500" y="-289" font-family="Helvetica,sans-Serif" font-size="10.00">basic_ifstream&lt; char &gt;</text>
</g>
<!-- Node7&#45;&gt;Node8 -->
<g id="edge7" class="edge"><title>Node7&#45;&gt;Node8</title>
<path fill="none" stroke="midnightblue" d="M388.73,-303.934C405.8,-302.009 424.45,-299.906 441.476,-297.986"/>
<polygon fill="midnightblue" stroke="midnightblue" points="387.879,-300.508 378.335,-305.106 388.664,-307.464 387.879,-300.508"/>
</g>
<!-- Node9 -->
<g id="node9" class="node"><title>Node9</title>
<polygon fill="white" stroke="#bfbfbf" points="433.5,-244 433.5,-263 566.5,-263 566.5,-244 433.5,-244"/>
<text text-anchor="middle" x="500" y="-251" font-family="Helvetica,sans-Serif" font-size="10.00">basic_ifstream&lt; wchar_t &gt;</text>
</g>
<!-- Node7&#45;&gt;Node9 -->
<g id="edge8" class="edge"><title>Node7&#45;&gt;Node9</title>
<path fill="none" stroke="midnightblue" d="M379.187,-291.844C399.906,-283.994 421.652,-275.898 432,-272.5 442.109,-269.181 453.185,-265.898 463.368,-263.02"/>
<polygon fill="midnightblue" stroke="midnightblue" points="377.889,-288.593 369.784,-295.416 380.375,-295.136 377.889,-288.593"/>
</g>
<!-- Node10 -->
<g id="node10" class="node"><title>Node10</title>
<polygon fill="white" stroke="#bfbfbf" points="440.5,-358 440.5,-377 559.5,-377 559.5,-358 440.5,-358"/>
<text text-anchor="middle" x="500" y="-365" font-family="Helvetica,sans-Serif" font-size="10.00">basic_iostream&lt; char &gt;</text>
</g>
<!-- Node7&#45;&gt;Node10 -->
<g id="edge9" class="edge"><title>Node7&#45;&gt;Node10</title>
<path fill="none" stroke="midnightblue" d="M378.416,-329.359C395.252,-335.74 414.366,-342.71 432,-348.5 442.109,-351.819 453.185,-355.102 463.368,-357.98"/>
<polygon fill="midnightblue" stroke="midnightblue" points="379.386,-325.983 368.796,-325.683 376.888,-332.522 379.386,-325.983"/>
</g>
<!-- Node11 -->
<g id="node11" class="node"><title>Node11</title>
<polygon fill="white" stroke="#bfbfbf" points="432.5,-446 432.5,-465 567.5,-465 567.5,-446 432.5,-446"/>
<text text-anchor="middle" x="500" y="-453" font-family="Helvetica,sans-Serif" font-size="10.00">basic_iostream&lt; wchar_t &gt;</text>
</g>
<!-- Node7&#45;&gt;Node11 -->
<g id="edge10" class="edge"><title>Node7&#45;&gt;Node11</title>
<path fill="none" stroke="midnightblue" d="M343.852,-334.496C360.772,-362.735 392.542,-409.113 432,-435.5 438.458,-439.819 445.875,-443.228 453.367,-445.913"/>
<polygon fill="midnightblue" stroke="midnightblue" points="346.761,-332.537 338.693,-325.669 340.717,-336.069 346.761,-332.537"/>
</g>
<!-- Node12 -->
<g id="node12" class="node"><title>Node12</title>
<polygon fill="white" stroke="#bfbfbf" points="449.5,-194.5 449.5,-224.5 550.5,-224.5 550.5,-194.5 449.5,-194.5"/>
<text text-anchor="start" x="457.5" y="-212.5" font-family="Helvetica,sans-Serif" font-size="10.00">basic_istringstream</text>
<text text-anchor="middle" x="500" y="-201.5" font-family="Helvetica,sans-Serif" font-size="10.00">&lt; char &gt;</text>
</g>
<!-- Node7&#45;&gt;Node12 -->
<g id="edge11" class="edge"><title>Node7&#45;&gt;Node12</title>
<path fill="none" stroke="midnightblue" d="M387.134,-291.473C390.241,-289.643 393.224,-287.656 396,-285.5 417.912,-268.481 410.025,-251.437 432,-234.5 437.212,-230.483 443.137,-227.058 449.258,-224.152"/>
<polygon fill="midnightblue" stroke="midnightblue" points="385.331,-288.467 378.112,-296.221 388.591,-294.661 385.331,-288.467"/>
</g>
<!-- Node13 -->
<g id="node13" class="node"><title>Node13</title>
<polygon fill="white" stroke="#bfbfbf" points="449.5,-145.5 449.5,-175.5 550.5,-175.5 550.5,-145.5 449.5,-145.5"/>
<text text-anchor="start" x="457.5" y="-163.5" font-family="Helvetica,sans-Serif" font-size="10.00">basic_istringstream</text>
<text text-anchor="middle" x="500" y="-152.5" font-family="Helvetica,sans-Serif" font-size="10.00">&lt; wchar_t &gt;</text>
</g>
<!-- Node7&#45;&gt;Node13 -->
<g id="edge12" class="edge"><title>Node7&#45;&gt;Node13</title>
<path fill="none" stroke="midnightblue" d="M387.132,-292.834C390.336,-290.662 393.332,-288.227 396,-285.5 429.321,-251.43 398.329,-218.224 432,-184.5 436.889,-179.604 442.845,-175.701 449.167,-172.591"/>
<polygon fill="midnightblue" stroke="midnightblue" points="385.137,-289.945 378.246,-297.992 388.652,-295.999 385.137,-289.945"/>
</g>
<!-- Node14 -->
<g id="node14" class="node"><title>Node14</title>
<g id="a_node14"><a xlink:title="STL class. ">
<polygon fill="white" stroke="#bfbfbf" points="450,-96.5 450,-126.5 550,-126.5 550,-96.5 450,-96.5"/>
<text text-anchor="start" x="458" y="-114.5" font-family="Helvetica,sans-Serif" font-size="10.00">std::basic_ifstream</text>
<text text-anchor="middle" x="500" y="-103.5" font-family="Helvetica,sans-Serif" font-size="10.00">&lt; Char &gt;</text>
</a>
</g>
</g>
<!-- Node7&#45;&gt;Node14 -->
<g id="edge13" class="edge"><title>Node7&#45;&gt;Node14</title>
<path fill="none" stroke="midnightblue" d="M386.872,-293.584C390.226,-291.23 393.32,-288.55 396,-285.5 441.252,-233.995 386.219,-186.535 432,-135.5 436.868,-130.074 443.051,-125.874 449.684,-122.623"/>
<polygon fill="midnightblue" stroke="midnightblue" points="384.904,-290.682 378.085,-298.791 388.473,-296.704 384.904,-290.682"/>
</g>
<!-- Node17 -->
<g id="node17" class="node"><title>Node17</title>
<g id="a_node17"><a xlink:title="STL class. ">
<polygon fill="white" stroke="#bfbfbf" points="449,-396.5 449,-426.5 551,-426.5 551,-396.5 449,-396.5"/>
<text text-anchor="start" x="457" y="-414.5" font-family="Helvetica,sans-Serif" font-size="10.00">std::basic_iostream</text>
<text text-anchor="middle" x="500" y="-403.5" font-family="Helvetica,sans-Serif" font-size="10.00">&lt; Char &gt;</text>
</a>
</g>
</g>
<!-- Node7&#45;&gt;Node17 -->
<g id="edge16" class="edge"><title>Node7&#45;&gt;Node17</title>
<path fill="none" stroke="midnightblue" d="M355.297,-332.259C375.045,-348.772 403.938,-371.172 432,-386.5 438.647,-390.13 445.93,-393.45 453.169,-396.401"/>
<polygon fill="midnightblue" stroke="midnightblue" points="357.313,-329.379 347.423,-325.58 352.785,-334.718 357.313,-329.379"/>
</g>
<!-- Node28 -->
<g id="node28" class="node"><title>Node28</title>
<g id="a_node28"><a xlink:title="STL class. ">
<polygon fill="white" stroke="#bfbfbf" points="439.5,-47.5 439.5,-77.5 560.5,-77.5 560.5,-47.5 439.5,-47.5"/>
<text text-anchor="start" x="447.5" y="-65.5" font-family="Helvetica,sans-Serif" font-size="10.00">std::basic_istringstream</text>
<text text-anchor="middle" x="500" y="-54.5" font-family="Helvetica,sans-Serif" font-size="10.00">&lt; Char &gt;</text>
</a>
</g>
</g>
<!-- Node7&#45;&gt;Node28 -->
<g id="edge27" class="edge"><title>Node7&#45;&gt;Node28</title>
<path fill="none" stroke="midnightblue" d="M386.907,-293.871C390.279,-291.449 393.365,-288.676 396,-285.5 453.39,-216.328 373.899,-155.076 432,-86.5 434.875,-83.1063 438.267,-80.1924 441.973,-77.6906"/>
<polygon fill="midnightblue" stroke="midnightblue" points="384.808,-291.049 378.034,-299.195 388.409,-297.051 384.808,-291.049"/>
</g>
<!-- Node31 -->
<g id="node31" class="node"><title>Node31</title>
<g id="a_node31"><a xlink:title="STL class. ">
<polygon fill="white" stroke="#bfbfbf" points="447.5,-9 447.5,-28 552.5,-28 552.5,-9 447.5,-9"/>
<text text-anchor="middle" x="500" y="-16" font-family="Helvetica,sans-Serif" font-size="10.00">std::istream&lt; char &gt;</text>
</a>
</g>
</g>
<!-- Node7&#45;&gt;Node31 -->
<g id="edge30" class="edge"><title>Node7&#45;&gt;Node31</title>
<path fill="none" stroke="midnightblue" d="M387.033,-293.973C390.375,-291.528 393.421,-288.722 396,-285.5 465.614,-198.559 358.617,-121.285 432,-37.5 436.222,-32.6795 441.568,-29.0406 447.391,-26.3007"/>
<polygon fill="midnightblue" stroke="midnightblue" points="384.936,-291.152 378.209,-299.338 388.572,-297.134 384.936,-291.152"/>
</g>
<!-- Node32 -->
<g id="node32" class="node"><title>Node32</title>
<g id="a_node32"><a xlink:title="STL class. ">
<polygon fill="white" stroke="#bfbfbf" points="436,-320 436,-339 564,-339 564,-320 436,-320"/>
<text text-anchor="middle" x="500" y="-327" font-family="Helvetica,sans-Serif" font-size="10.00">std::wistream&lt; wchar_t &gt;</text>
</a>
</g>
</g>
<!-- Node7&#45;&gt;Node32 -->
<g id="edge31" class="edge"><title>Node7&#45;&gt;Node32</title>
<path fill="none" stroke="midnightblue" d="M388.663,-317.058C403.915,-318.778 420.432,-320.641 435.927,-322.388"/>
<polygon fill="midnightblue" stroke="midnightblue" points="388.664,-313.536 378.335,-315.894 387.879,-320.492 388.664,-313.536"/>
</g>
<!-- Node15 -->
<g id="node15" class="node"><title>Node15</title>
<g id="a_node15"><a xlink:title="STL class. ">
<polygon fill="white" stroke="#bfbfbf" points="617,-138 617,-157 725,-157 725,-138 617,-138"/>
<text text-anchor="middle" x="671" y="-145" font-family="Helvetica,sans-Serif" font-size="10.00">std::ifstream&lt; char &gt;</text>
</a>
</g>
</g>
<!-- Node14&#45;&gt;Node15 -->
<g id="edge14" class="edge"><title>Node14&#45;&gt;Node15</title>
<path fill="none" stroke="midnightblue" d="M560.273,-124.126C581.615,-128.672 605.32,-133.722 625.22,-137.961"/>
<polygon fill="midnightblue" stroke="midnightblue" points="560.846,-120.67 550.336,-122.009 559.387,-127.516 560.846,-120.67"/>
</g>
<!-- Node16 -->
<g id="node16" class="node"><title>Node16</title>
<g id="a_node16"><a xlink:title="STL class. ">
<polygon fill="white" stroke="#bfbfbf" points="605.5,-100 605.5,-119 736.5,-119 736.5,-100 605.5,-100"/>
<text text-anchor="middle" x="671" y="-107" font-family="Helvetica,sans-Serif" font-size="10.00">std::wifstream&lt; wchar_t &gt;</text>
</a>
</g>
</g>
<!-- Node14&#45;&gt;Node16 -->
<g id="edge15" class="edge"><title>Node14&#45;&gt;Node16</title>
<path fill="none" stroke="midnightblue" d="M560.685,-110.794C575.195,-110.622 590.777,-110.438 605.499,-110.263"/>
<polygon fill="midnightblue" stroke="midnightblue" points="560.294,-107.298 550.336,-110.916 560.377,-114.297 560.294,-107.298"/>
</g>
<!-- Node18 -->
<g id="node18" class="node"><title>Node18</title>
<polygon fill="white" stroke="#bfbfbf" points="613.5,-372 613.5,-391 728.5,-391 728.5,-372 613.5,-372"/>
<text text-anchor="middle" x="671" y="-379" font-family="Helvetica,sans-Serif" font-size="10.00">basic_fstream&lt; char &gt;</text>
</g>
<!-- Node17&#45;&gt;Node18 -->
<g id="edge17" class="edge"><title>Node17&#45;&gt;Node18</title>
<path fill="none" stroke="midnightblue" d="M561.337,-400.789C579.319,-397.597 598.896,-394.122 616.416,-391.012"/>
<polygon fill="midnightblue" stroke="midnightblue" points="560.482,-397.386 551.248,-402.58 561.706,-404.278 560.482,-397.386"/>
</g>
<!-- Node19 -->
<g id="node19" class="node"><title>Node19</title>
<polygon fill="white" stroke="#bfbfbf" points="605.5,-334 605.5,-353 736.5,-353 736.5,-334 605.5,-334"/>
<text text-anchor="middle" x="671" y="-341" font-family="Helvetica,sans-Serif" font-size="10.00">basic_fstream&lt; wchar_t &gt;</text>
</g>
<!-- Node17&#45;&gt;Node19 -->
<g id="edge18" class="edge"><title>Node17&#45;&gt;Node19</title>
<path fill="none" stroke="midnightblue" d="M555.431,-392.417C559.737,-390.537 563.974,-388.558 568,-386.5 585.122,-377.747 586.554,-370.589 604,-362.5 612.005,-358.788 620.897,-355.635 629.494,-353.027"/>
<polygon fill="midnightblue" stroke="midnightblue" points="553.834,-389.291 545.949,-396.368 556.526,-395.752 553.834,-389.291"/>
</g>
<!-- Node20 -->
<g id="node20" class="node"><title>Node20</title>
<polygon fill="white" stroke="#bfbfbf" points="621.5,-284.5 621.5,-314.5 720.5,-314.5 720.5,-284.5 621.5,-284.5"/>
<text text-anchor="start" x="629.5" y="-302.5" font-family="Helvetica,sans-Serif" font-size="10.00">basic_stringstream</text>
<text text-anchor="middle" x="671" y="-291.5" font-family="Helvetica,sans-Serif" font-size="10.00">&lt; char &gt;</text>
</g>
<!-- Node17&#45;&gt;Node20 -->
<g id="edge19" class="edge"><title>Node17&#45;&gt;Node20</title>
<path fill="none" stroke="midnightblue" d="M559.932,-392.364C562.774,-390.572 565.486,-388.622 568,-386.5 592.352,-365.95 579.699,-345.11 604,-324.5 609.139,-320.141 615.117,-316.501 621.335,-313.472"/>
<polygon fill="midnightblue" stroke="midnightblue" points="558.13,-389.361 551.088,-397.276 561.529,-395.481 558.13,-389.361"/>
</g>
<!-- Node21 -->
<g id="node21" class="node"><title>Node21</title>
<polygon fill="white" stroke="#bfbfbf" points="621.5,-235.5 621.5,-265.5 720.5,-265.5 720.5,-235.5 621.5,-235.5"/>
<text text-anchor="start" x="629.5" y="-253.5" font-family="Helvetica,sans-Serif" font-size="10.00">basic_stringstream</text>
<text text-anchor="middle" x="671" y="-242.5" font-family="Helvetica,sans-Serif" font-size="10.00">&lt; wchar_t &gt;</text>
</g>
<!-- Node17&#45;&gt;Node21 -->
<g id="edge20" class="edge"><title>Node17&#45;&gt;Node21</title>
<path fill="none" stroke="midnightblue" d="M559.947,-393.393C562.853,-391.335 565.568,-389.046 568,-386.5 604.109,-348.685 567.733,-312.163 604,-274.5 608.905,-269.406 614.975,-265.388 621.431,-262.221"/>
<polygon fill="midnightblue" stroke="midnightblue" points="558.079,-390.432 551.33,-398.599 561.699,-396.424 558.079,-390.432"/>
</g>
<!-- Node22 -->
<g id="node22" class="node"><title>Node22</title>
<g id="a_node22"><a xlink:title="STL class. ">
<polygon fill="white" stroke="#bfbfbf" points="622,-459.5 622,-489.5 720,-489.5 720,-459.5 622,-459.5"/>
<text text-anchor="start" x="630" y="-477.5" font-family="Helvetica,sans-Serif" font-size="10.00">std::basic_fstream</text>
<text text-anchor="middle" x="671" y="-466.5" font-family="Helvetica,sans-Serif" font-size="10.00">&lt; Char &gt;</text>
</a>
</g>
</g>
<!-- Node17&#45;&gt;Node22 -->
<g id="edge21" class="edge"><title>Node17&#45;&gt;Node22</title>
<path fill="none" stroke="midnightblue" d="M551.16,-430.199C576.176,-439.524 606.03,-450.653 629.558,-459.424"/>
<polygon fill="midnightblue" stroke="midnightblue" points="552.072,-426.804 541.48,-426.59 549.627,-433.363 552.072,-426.804"/>
</g>
<!-- Node25 -->
<g id="node25" class="node"><title>Node25</title>
<g id="a_node25"><a xlink:title="STL class. ">
<polygon fill="white" stroke="#bfbfbf" points="611.5,-410.5 611.5,-440.5 730.5,-440.5 730.5,-410.5 611.5,-410.5"/>
<text text-anchor="start" x="619.5" y="-428.5" font-family="Helvetica,sans-Serif" font-size="10.00">std::basic_stringstream</text>
<text text-anchor="middle" x="671" y="-417.5" font-family="Helvetica,sans-Serif" font-size="10.00">&lt; Char &gt;</text>
</a>
</g>
</g>
<!-- Node17&#45;&gt;Node25 -->
<g id="edge24" class="edge"><title>Node17&#45;&gt;Node25</title>
<path fill="none" stroke="midnightblue" d="M561.661,-416.525C577.828,-417.864 595.262,-419.309 611.32,-420.639"/>
<polygon fill="midnightblue" stroke="midnightblue" points="561.503,-413 551.248,-415.663 560.925,-419.976 561.503,-413"/>
</g>
<!-- Node23 -->
<g id="node23" class="node"><title>Node23</title>
<g id="a_node23"><a xlink:title="STL class. ">
<polygon fill="white" stroke="#bfbfbf" points="785.5,-501 785.5,-520 891.5,-520 891.5,-501 785.5,-501"/>
<text text-anchor="middle" x="838.5" y="-508" font-family="Helvetica,sans-Serif" font-size="10.00">std::fstream&lt; char &gt;</text>
</a>
</g>
</g>
<!-- Node22&#45;&gt;Node23 -->
<g id="edge22" class="edge"><title>Node22&#45;&gt;Node23</title>
<path fill="none" stroke="midnightblue" d="M730.33,-487.188C751.155,-491.718 774.247,-496.741 793.647,-500.961"/>
<polygon fill="midnightblue" stroke="midnightblue" points="730.83,-483.715 720.314,-485.009 729.342,-490.555 730.83,-483.715"/>
</g>
<!-- Node24 -->
<g id="node24" class="node"><title>Node24</title>
<g id="a_node24"><a xlink:title="STL class. ">
<polygon fill="white" stroke="#bfbfbf" points="774,-463 774,-482 903,-482 903,-463 774,-463"/>
<text text-anchor="middle" x="838.5" y="-470" font-family="Helvetica,sans-Serif" font-size="10.00">std::wfstream&lt; wchar_t &gt;</text>
</a>
</g>
</g>
<!-- Node22&#45;&gt;Node24 -->
<g id="edge23" class="edge"><title>Node22&#45;&gt;Node24</title>
<path fill="none" stroke="midnightblue" d="M730.332,-473.795C744.375,-473.625 759.45,-473.443 773.727,-473.271"/>
<polygon fill="midnightblue" stroke="midnightblue" points="730.271,-470.295 720.314,-473.916 730.356,-477.295 730.271,-470.295"/>
</g>
<!-- Node26 -->
<g id="node26" class="node"><title>Node26</title>
<g id="a_node26"><a xlink:title="STL class. ">
<polygon fill="white" stroke="#bfbfbf" points="790.5,-412.5 790.5,-442.5 886.5,-442.5 886.5,-412.5 790.5,-412.5"/>
<text text-anchor="start" x="798.5" y="-430.5" font-family="Helvetica,sans-Serif" font-size="10.00">std::stringstream&lt;</text>
<text text-anchor="middle" x="838.5" y="-419.5" font-family="Helvetica,sans-Serif" font-size="10.00"> char &gt;</text>
</a>
</g>
</g>
<!-- Node25&#45;&gt;Node26 -->
<g id="edge25" class="edge"><title>Node25&#45;&gt;Node26</title>
<path fill="none" stroke="midnightblue" d="M741.023,-426.334C757.614,-426.535 774.962,-426.744 790.299,-426.93"/>
<polygon fill="midnightblue" stroke="midnightblue" points="740.857,-422.832 730.815,-426.211 740.772,-429.831 740.857,-422.832"/>
</g>
<!-- Node27 -->
<g id="node27" class="node"><title>Node27</title>
<g id="a_node27"><a xlink:title="STL class. ">
<polygon fill="white" stroke="#bfbfbf" points="789.5,-363.5 789.5,-393.5 887.5,-393.5 887.5,-363.5 789.5,-363.5"/>
<text text-anchor="start" x="797.5" y="-381.5" font-family="Helvetica,sans-Serif" font-size="10.00">std::wstringstream</text>
<text text-anchor="middle" x="838.5" y="-370.5" font-family="Helvetica,sans-Serif" font-size="10.00">&lt; wchar_t &gt;</text>
</a>
</g>
</g>
<!-- Node25&#45;&gt;Node27 -->
<g id="edge26" class="edge"><title>Node25&#45;&gt;Node27</title>
<path fill="none" stroke="midnightblue" d="M734.468,-407.76C752.653,-402.596 772.23,-397.036 789.385,-392.164"/>
<polygon fill="midnightblue" stroke="midnightblue" points="733.484,-404.401 724.82,-410.5 735.396,-411.135 733.484,-404.401"/>
</g>
<!-- Node29 -->
<g id="node29" class="node"><title>Node29</title>
<g id="a_node29"><a xlink:title="STL class. ">
<polygon fill="white" stroke="#bfbfbf" points="625,-49.5 625,-79.5 717,-79.5 717,-49.5 625,-49.5"/>
<text text-anchor="start" x="633" y="-67.5" font-family="Helvetica,sans-Serif" font-size="10.00">std::istringstream</text>
<text text-anchor="middle" x="671" y="-56.5" font-family="Helvetica,sans-Serif" font-size="10.00">&lt; char &gt;</text>
</a>
</g>
</g>
<!-- Node28&#45;&gt;Node29 -->
<g id="edge28" class="edge"><title>Node28&#45;&gt;Node29</title>
<path fill="none" stroke="midnightblue" d="M570.616,-63.3239C588.895,-63.5402 608.132,-63.7678 624.761,-63.9646"/>
<polygon fill="midnightblue" stroke="midnightblue" points="570.624,-59.8238 560.583,-63.2051 570.541,-66.8233 570.624,-59.8238"/>
</g>
<!-- Node30 -->
<g id="node30" class="node"><title>Node30</title>
<g id="a_node30"><a xlink:title="STL class. ">
<polygon fill="white" stroke="#bfbfbf" points="621,-0.5 621,-30.5 721,-30.5 721,-0.5 621,-0.5"/>
<text text-anchor="start" x="629" y="-18.5" font-family="Helvetica,sans-Serif" font-size="10.00">std::wistringstream</text>
<text text-anchor="middle" x="671" y="-7.5" font-family="Helvetica,sans-Serif" font-size="10.00">&lt; wchar_t &gt;</text>
</a>
</g>
</g>
<!-- Node28&#45;&gt;Node30 -->
<g id="edge29" class="edge"><title>Node28&#45;&gt;Node30</title>
<path fill="none" stroke="midnightblue" d="M564.789,-44.7599C583.358,-39.5956 603.35,-34.0358 620.867,-29.1641"/>
<polygon fill="midnightblue" stroke="midnightblue" points="563.634,-41.4482 554.937,-47.4997 565.509,-48.1923 563.634,-41.4482"/>
</g>
<!-- Node33&#45;&gt;Node10 -->
<g id="edge33" class="edge"><title>Node33&#45;&gt;Node10</title>
<path fill="none" stroke="midnightblue" d="M343.335,-491.097C359.938,-461.899 391.585,-413.574 432,-386.5 437.826,-382.597 444.451,-379.487 451.215,-377.012"/>
<polygon fill="midnightblue" stroke="midnightblue" points="340.073,-489.763 338.291,-500.207 346.197,-493.154 340.073,-489.763"/>
</g>
<!-- Node33&#45;&gt;Node11 -->
<g id="edge34" class="edge"><title>Node33&#45;&gt;Node11</title>
<path fill="none" stroke="midnightblue" d="M374.843,-496.383C392.472,-489.1 413.038,-480.997 432,-474.5 441.836,-471.13 452.625,-467.879 462.617,-465.049"/>
<polygon fill="midnightblue" stroke="midnightblue" points="373.262,-493.25 365.379,-500.329 375.956,-499.71 373.262,-493.25"/>
</g>
<!-- Node33&#45;&gt;Node17 -->
<g id="edge39" class="edge"><title>Node33&#45;&gt;Node17</title>
<path fill="none" stroke="midnightblue" d="M354.183,-493.665C373.866,-476.388 403.212,-452.575 432,-436.5 438.504,-432.868 445.64,-429.566 452.754,-426.637"/>
<polygon fill="midnightblue" stroke="midnightblue" points="351.764,-491.132 346.624,-500.396 356.42,-496.359 351.764,-491.132"/>
</g>
<!-- Node34 -->
<g id="node34" class="node"><title>Node34</title>
<polygon fill="white" stroke="#bfbfbf" points="440,-757 440,-776 560,-776 560,-757 440,-757"/>
<text text-anchor="middle" x="500" y="-764" font-family="Helvetica,sans-Serif" font-size="10.00">basic_ofstream&lt; char &gt;</text>
</g>
<!-- Node33&#45;&gt;Node34 -->
<g id="edge35" class="edge"><title>Node33&#45;&gt;Node34</title>
<path fill="none" stroke="midnightblue" d="M388.261,-533.097C391.109,-535.283 393.725,-537.739 396,-540.5 455.382,-612.568 369.496,-678.123 432,-747.5 435.48,-751.363 439.681,-754.464 444.263,-756.95"/>
<polygon fill="midnightblue" stroke="midnightblue" points="390.017,-530.066 379.707,-527.627 386.246,-535.963 390.017,-530.066"/>
</g>
<!-- Node35 -->
<g id="node35" class="node"><title>Node35</title>
<polygon fill="white" stroke="#bfbfbf" points="432,-719 432,-738 568,-738 568,-719 432,-719"/>
<text text-anchor="middle" x="500" y="-726" font-family="Helvetica,sans-Serif" font-size="10.00">basic_ofstream&lt; wchar_t &gt;</text>
</g>
<!-- Node33&#45;&gt;Node35 -->
<g id="edge36" class="edge"><title>Node33&#45;&gt;Node35</title>
<path fill="none" stroke="midnightblue" d="M388.136,-533.202C391.015,-535.362 393.672,-537.784 396,-540.5 445.696,-598.478 380.178,-652.414 432,-708.5 436.037,-712.869 440.983,-716.298 446.342,-718.987"/>
<polygon fill="midnightblue" stroke="midnightblue" points="389.848,-530.145 379.519,-527.785 386.122,-536.071 389.848,-530.145"/>
</g>
<!-- Node36 -->
<g id="node36" class="node"><title>Node36</title>
<polygon fill="white" stroke="#bfbfbf" points="448,-669.5 448,-699.5 552,-699.5 552,-669.5 448,-669.5"/>
<text text-anchor="start" x="456" y="-687.5" font-family="Helvetica,sans-Serif" font-size="10.00">basic_ostringstream</text>
<text text-anchor="middle" x="500" y="-676.5" font-family="Helvetica,sans-Serif" font-size="10.00">&lt; char &gt;</text>
</g>
<!-- Node33&#45;&gt;Node36 -->
<g id="edge37" class="edge"><title>Node33&#45;&gt;Node36</title>
<path fill="none" stroke="midnightblue" d="M388.442,-533.843C391.171,-535.839 393.718,-538.051 396,-540.5 433.664,-580.931 394.185,-619.21 432,-659.5 436.503,-664.298 442.013,-668.181 447.921,-671.322"/>
<polygon fill="midnightblue" stroke="midnightblue" points="390.133,-530.773 379.79,-528.475 386.442,-536.721 390.133,-530.773"/>
</g>
<!-- Node37 -->
<g id="node37" class="node"><title>Node37</title>
<polygon fill="white" stroke="#bfbfbf" points="448,-620.5 448,-650.5 552,-650.5 552,-620.5 448,-620.5"/>
<text text-anchor="start" x="456" y="-638.5" font-family="Helvetica,sans-Serif" font-size="10.00">basic_ostringstream</text>
<text text-anchor="middle" x="500" y="-627.5" font-family="Helvetica,sans-Serif" font-size="10.00">&lt; wchar_t &gt;</text>
</g>
<!-- Node33&#45;&gt;Node37 -->
<g id="edge38" class="edge"><title>Node33&#45;&gt;Node37</title>
<path fill="none" stroke="midnightblue" d="M388.502,-534.735C391.152,-536.498 393.672,-538.416 396,-540.5 422.065,-563.835 405.848,-587.262 432,-610.5 436.64,-614.623 442.024,-618.09 447.683,-620.998"/>
<polygon fill="midnightblue" stroke="midnightblue" points="390.08,-531.603 379.674,-529.612 386.567,-537.658 390.08,-531.603"/>
</g>
<!-- Node38 -->
<g id="node38" class="node"><title>Node38</title>
<g id="a_node38"><a xlink:title="STL class. ">
<polygon fill="white" stroke="#bfbfbf" points="448.5,-571.5 448.5,-601.5 551.5,-601.5 551.5,-571.5 448.5,-571.5"/>
<text text-anchor="start" x="456.5" y="-589.5" font-family="Helvetica,sans-Serif" font-size="10.00">std::basic_ofstream</text>
<text text-anchor="middle" x="500" y="-578.5" font-family="Helvetica,sans-Serif" font-size="10.00">&lt; Char &gt;</text>
</a>
</g>
</g>
<!-- Node33&#45;&gt;Node38 -->
<g id="edge40" class="edge"><title>Node33&#45;&gt;Node38</title>
<path fill="none" stroke="midnightblue" d="M382.399,-534.403C387.04,-536.366 391.632,-538.41 396,-540.5 412.709,-548.496 415.262,-553.567 432,-561.5 439.405,-565.009 447.444,-568.371 455.3,-571.428"/>
<polygon fill="midnightblue" stroke="midnightblue" points="383.441,-531.048 372.86,-530.503 380.792,-537.527 383.441,-531.048"/>
</g>
<!-- Node41 -->
<g id="node41" class="node"><title>Node41</title>
<g id="a_node41"><a xlink:title="STL class. ">
<polygon fill="white" stroke="#bfbfbf" points="438,-522.5 438,-552.5 562,-552.5 562,-522.5 438,-522.5"/>
<text text-anchor="start" x="446" y="-540.5" font-family="Helvetica,sans-Serif" font-size="10.00">std::basic_ostringstream</text>
<text text-anchor="middle" x="500" y="-529.5" font-family="Helvetica,sans-Serif" font-size="10.00">&lt; Char &gt;</text>
</a>
</g>
</g>
<!-- Node33&#45;&gt;Node41 -->
<g id="edge43" class="edge"><title>Node33&#45;&gt;Node41</title>
<path fill="none" stroke="midnightblue" d="M389.713,-523.231C405.279,-525.263 422.099,-527.46 437.768,-529.505"/>
<polygon fill="midnightblue" stroke="midnightblue" points="390.059,-519.747 379.69,-521.922 389.153,-526.688 390.059,-519.747"/>
</g>
<!-- Node44 -->
<g id="node44" class="node"><title>Node44</title>
<g id="a_node44"><a xlink:title="STL class. ">
<polygon fill="white" stroke="#bfbfbf" points="446,-484 446,-503 554,-503 554,-484 446,-484"/>
<text text-anchor="middle" x="500" y="-491" font-family="Helvetica,sans-Serif" font-size="10.00">std::ostream&lt; char &gt;</text>
</a>
</g>
</g>
<!-- Node33&#45;&gt;Node44 -->
<g id="edge46" class="edge"><title>Node33&#45;&gt;Node44</title>
<path fill="none" stroke="midnightblue" d="M389.663,-507.775C407.982,-505.384 428.043,-502.764 445.922,-500.43"/>
<polygon fill="midnightblue" stroke="midnightblue" points="389.153,-504.312 379.69,-509.078 390.059,-511.253 389.153,-504.312"/>
</g>
<!-- Node45 -->
<g id="node45" class="node"><title>Node45</title>
<g id="a_node45"><a xlink:title="STL class. ">
<polygon fill="white" stroke="#bfbfbf" points="434.5,-795 434.5,-814 565.5,-814 565.5,-795 434.5,-795"/>
<text text-anchor="middle" x="500" y="-802" font-family="Helvetica,sans-Serif" font-size="10.00">std::wostream&lt; wchar_t &gt;</text>
</a>
</g>
</g>
<!-- Node33&#45;&gt;Node45 -->
<g id="edge47" class="edge"><title>Node33&#45;&gt;Node45</title>
<path fill="none" stroke="midnightblue" d="M388.197,-532.912C391.083,-535.143 393.722,-537.661 396,-540.5 464.864,-626.352 359.414,-702.771 432,-785.5 435.349,-789.317 439.403,-792.393 443.839,-794.869"/>
<polygon fill="midnightblue" stroke="midnightblue" points="389.819,-529.794 379.51,-527.349 386.044,-535.689 389.819,-529.794"/>
</g>
<!-- Node39 -->
<g id="node39" class="node"><title>Node39</title>
<g id="a_node39"><a xlink:title="STL class. ">
<polygon fill="white" stroke="#bfbfbf" points="615.5,-645 615.5,-664 726.5,-664 726.5,-645 615.5,-645"/>
<text text-anchor="middle" x="671" y="-652" font-family="Helvetica,sans-Serif" font-size="10.00">std::ofstream&lt; char &gt;</text>
</a>
</g>
</g>
<!-- Node38&#45;&gt;Node39 -->
<g id="edge41" class="edge"><title>Node38&#45;&gt;Node39</title>
<path fill="none" stroke="midnightblue" d="M557.651,-605.578C561.197,-607.144 564.674,-608.787 568,-610.5 585.319,-619.417 586.406,-627.139 604,-635.5 611.862,-639.236 620.606,-642.387 629.091,-644.981"/>
<polygon fill="midnightblue" stroke="midnightblue" points="558.74,-602.239 548.164,-601.616 556.043,-608.699 558.74,-602.239"/>
</g>
<!-- Node40 -->
<g id="node40" class="node"><title>Node40</title>
<g id="a_node40"><a xlink:title="STL class. ">
<polygon fill="white" stroke="#bfbfbf" points="604,-607 604,-626 738,-626 738,-607 604,-607"/>
<text text-anchor="middle" x="671" y="-614" font-family="Helvetica,sans-Serif" font-size="10.00">std::wofstream&lt; wchar_t &gt;</text>
</a>
</g>
</g>
<!-- Node38&#45;&gt;Node40 -->
<g id="edge42" class="edge"><title>Node38&#45;&gt;Node40</title>
<path fill="none" stroke="midnightblue" d="M561.983,-597.325C579.78,-600.485 599.089,-603.912 616.393,-606.984"/>
<polygon fill="midnightblue" stroke="midnightblue" points="562.163,-593.803 551.706,-595.501 560.94,-600.695 562.163,-593.803"/>
</g>
<!-- Node42 -->
<g id="node42" class="node"><title>Node42</title>
<g id="a_node42"><a xlink:title="STL class. ">
<polygon fill="white" stroke="#bfbfbf" points="623.5,-557.5 623.5,-587.5 718.5,-587.5 718.5,-557.5 623.5,-557.5"/>
<text text-anchor="start" x="631.5" y="-575.5" font-family="Helvetica,sans-Serif" font-size="10.00">std::ostringstream</text>
<text text-anchor="middle" x="671" y="-564.5" font-family="Helvetica,sans-Serif" font-size="10.00">&lt; char &gt;</text>
</a>
</g>
</g>
<!-- Node41&#45;&gt;Node42 -->
<g id="edge44" class="edge"><title>Node41&#45;&gt;Node42</title>
<path fill="none" stroke="midnightblue" d="M572.106,-552.226C589.439,-555.816 607.543,-559.565 623.401,-562.849"/>
<polygon fill="midnightblue" stroke="midnightblue" points="572.515,-548.737 562.013,-550.136 571.095,-555.591 572.515,-548.737"/>
</g>
<!-- Node43 -->
<g id="node43" class="node"><title>Node43</title>
<g id="a_node43"><a xlink:title="STL class. ">
<polygon fill="white" stroke="#bfbfbf" points="619.5,-508.5 619.5,-538.5 722.5,-538.5 722.5,-508.5 619.5,-508.5"/>
<text text-anchor="start" x="627.5" y="-526.5" font-family="Helvetica,sans-Serif" font-size="10.00">std::wostringstream</text>
<text text-anchor="middle" x="671" y="-515.5" font-family="Helvetica,sans-Serif" font-size="10.00">&lt; wchar_t &gt;</text>
</a>
</g>
</g>
<!-- Node41&#45;&gt;Node43 -->
<g id="edge45" class="edge"><title>Node41&#45;&gt;Node43</title>
<path fill="none" stroke="midnightblue" d="M572.295,-531.594C588.116,-530.283 604.571,-528.92 619.366,-527.695"/>
<polygon fill="midnightblue" stroke="midnightblue" points="571.69,-528.132 562.013,-532.446 572.268,-535.108 571.69,-528.132"/>
</g>
</g>
</svg>
