<?xml version="1.0" encoding="UTF-8" standalone="no"?>
<!DOCTYPE svg PUBLIC "-//W3C//DTD SVG 1.1//EN"
 "http://www.w3.org/Graphics/SVG/1.1/DTD/svg11.dtd">
<!-- Generated by graphviz version 2.38.0 (20140413.2041)
 -->
<!-- Title: std::basic_fstream&lt; Char &gt; Pages: 1 -->
<svg width="262pt" height="341pt"
 viewBox="0.00 0.00 261.50 341.00" xmlns="http://www.w3.org/2000/svg" xmlns:xlink="http://www.w3.org/1999/xlink">
<g id="graph0" class="graph" transform="scale(1 1) rotate(0) translate(4 337)">
<title>std::basic_fstream&lt; Char &gt;</title>
<polygon fill="white" stroke="none" points="-4,4 -4,-337 257.5,-337 257.5,4 -4,4"/>
<!-- Node1 -->
<g id="node1" class="node"><title>Node1</title>
<polygon fill="#bfbfbf" stroke="black" points="72,-56.5 72,-86.5 170,-86.5 170,-56.5 72,-56.5"/>
<text text-anchor="start" x="80" y="-74.5" font-family="Helvetica,sans-Serif" font-size="10.00">std::basic_fstream</text>
<text text-anchor="middle" x="121" y="-63.5" font-family="Helvetica,sans-Serif" font-size="10.00">&lt; Char &gt;</text>
</g>
<!-- Node7 -->
<g id="node7" class="node"><title>Node7</title>
<g id="a_node7"><a xlink:title="STL class. ">
<polygon fill="white" stroke="#bfbfbf" points="0,-0.5 0,-19.5 106,-19.5 106,-0.5 0,-0.5"/>
<text text-anchor="middle" x="53" y="-7.5" font-family="Helvetica,sans-Serif" font-size="10.00">std::fstream&lt; char &gt;</text>
</a>
</g>
</g>
<!-- Node1&#45;&gt;Node7 -->
<g id="edge7" class="edge"><title>Node1&#45;&gt;Node7</title>
<path fill="none" stroke="midnightblue" d="M97.1111,-49.5972C85.3604,-39.3153 71.8371,-27.4824 62.8946,-19.6578"/>
<polygon fill="midnightblue" stroke="midnightblue" points="95.0544,-52.4483 104.885,-56.3993 99.6639,-47.1802 95.0544,-52.4483"/>
</g>
<!-- Node8 -->
<g id="node8" class="node"><title>Node8</title>
<g id="a_node8"><a xlink:title="STL class. ">
<polygon fill="white" stroke="#bfbfbf" points="124.5,-0.5 124.5,-19.5 253.5,-19.5 253.5,-0.5 124.5,-0.5"/>
<text text-anchor="middle" x="189" y="-7.5" font-family="Helvetica,sans-Serif" font-size="10.00">std::wfstream&lt; wchar_t &gt;</text>
</a>
</g>
</g>
<!-- Node1&#45;&gt;Node8 -->
<g id="edge8" class="edge"><title>Node1&#45;&gt;Node8</title>
<path fill="none" stroke="midnightblue" d="M144.889,-49.5972C156.64,-39.3153 170.163,-27.4824 179.105,-19.6578"/>
<polygon fill="midnightblue" stroke="midnightblue" points="142.336,-47.1802 137.115,-56.3993 146.946,-52.4483 142.336,-47.1802"/>
</g>
<!-- Node2 -->
<g id="node2" class="node"><title>Node2</title>
<g id="a_node2"><a xlink:title="STL class. ">
<polygon fill="white" stroke="#bfbfbf" points="70,-123.5 70,-153.5 172,-153.5 172,-123.5 70,-123.5"/>
<text text-anchor="start" x="78" y="-141.5" font-family="Helvetica,sans-Serif" font-size="10.00">std::basic_iostream</text>
<text text-anchor="middle" x="121" y="-130.5" font-family="Helvetica,sans-Serif" font-size="10.00">&lt; Char &gt;</text>
</a>
</g>
</g>
<!-- Node2&#45;&gt;Node1 -->
<g id="edge1" class="edge"><title>Node2&#45;&gt;Node1</title>
<path fill="none" stroke="midnightblue" d="M121,-113.108C121,-104.154 121,-94.3227 121,-86.5765"/>
<polygon fill="midnightblue" stroke="midnightblue" points="117.5,-113.396 121,-123.396 124.5,-113.396 117.5,-113.396"/>
</g>
<!-- Node3 -->
<g id="node3" class="node"><title>Node3</title>
<g id="a_node3"><a xlink:title="STL class. ">
<polygon fill="white" stroke="#bfbfbf" points="14.5,-190.5 14.5,-220.5 111.5,-220.5 111.5,-190.5 14.5,-190.5"/>
<text text-anchor="start" x="22.5" y="-208.5" font-family="Helvetica,sans-Serif" font-size="10.00">std::basic_istream</text>
<text text-anchor="middle" x="63" y="-197.5" font-family="Helvetica,sans-Serif" font-size="10.00">&lt; Char &gt;</text>
</a>
</g>
</g>
<!-- Node3&#45;&gt;Node2 -->
<g id="edge2" class="edge"><title>Node3&#45;&gt;Node2</title>
<path fill="none" stroke="midnightblue" d="M82.42,-182.736C91.0015,-173.119 100.844,-162.089 108.439,-153.577"/>
<polygon fill="midnightblue" stroke="midnightblue" points="79.6315,-180.604 75.5851,-190.396 84.8545,-185.265 79.6315,-180.604"/>
</g>
<!-- Node4 -->
<g id="node4" class="node"><title>Node4</title>
<g id="a_node4"><a xlink:title="STL class. ">
<polygon fill="white" stroke="#bfbfbf" points="63,-257.5 63,-276.5 179,-276.5 179,-257.5 63,-257.5"/>
<text text-anchor="middle" x="121" y="-264.5" font-family="Helvetica,sans-Serif" font-size="10.00">std::basic_ios&lt; Char &gt;</text>
</a>
</g>
</g>
<!-- Node4&#45;&gt;Node3 -->
<g id="edge3" class="edge"><title>Node4&#45;&gt;Node3</title>
<path fill="none" stroke="midnightblue" d="M105.492,-250.091C96.5137,-240.88 85.3157,-229.393 76.6695,-220.523"/>
<polygon fill="midnightblue" stroke="midnightblue" points="103.203,-252.757 112.69,-257.475 108.216,-247.871 103.203,-252.757"/>
</g>
<!-- Node6 -->
<g id="node6" class="node"><title>Node6</title>
<g id="a_node6"><a xlink:title="STL class. ">
<polygon fill="white" stroke="#bfbfbf" points="130,-190.5 130,-220.5 230,-220.5 230,-190.5 130,-190.5"/>
<text text-anchor="start" x="138" y="-208.5" font-family="Helvetica,sans-Serif" font-size="10.00">std::basic_ostream</text>
<text text-anchor="middle" x="180" y="-197.5" font-family="Helvetica,sans-Serif" font-size="10.00">&lt; Char &gt;</text>
</a>
</g>
</g>
<!-- Node4&#45;&gt;Node6 -->
<g id="edge6" class="edge"><title>Node4&#45;&gt;Node6</title>
<path fill="none" stroke="midnightblue" d="M136.5,-250.369C145.678,-241.113 157.211,-229.482 166.095,-220.523"/>
<polygon fill="midnightblue" stroke="midnightblue" points="134.009,-247.91 129.453,-257.475 138.98,-252.839 134.009,-247.91"/>
</g>
<!-- Node5 -->
<g id="node5" class="node"><title>Node5</title>
<g id="a_node5"><a xlink:title="STL class. ">
<polygon fill="white" stroke="#bfbfbf" points="83.5,-313.5 83.5,-332.5 158.5,-332.5 158.5,-313.5 83.5,-313.5"/>
<text text-anchor="middle" x="121" y="-320.5" font-family="Helvetica,sans-Serif" font-size="10.00">std::ios_base</text>
</a>
</g>
</g>
<!-- Node5&#45;&gt;Node4 -->
<g id="edge4" class="edge"><title>Node5&#45;&gt;Node4</title>
<path fill="none" stroke="midnightblue" d="M121,-302.805C121,-293.91 121,-283.78 121,-276.751"/>
<polygon fill="midnightblue" stroke="midnightblue" points="117.5,-303.083 121,-313.083 124.5,-303.083 117.5,-303.083"/>
</g>
<!-- Node6&#45;&gt;Node2 -->
<g id="edge5" class="edge"><title>Node6&#45;&gt;Node2</title>
<path fill="none" stroke="midnightblue" d="M160.245,-182.736C151.516,-173.119 141.504,-162.089 133.777,-153.577"/>
<polygon fill="midnightblue" stroke="midnightblue" points="157.885,-185.344 167.198,-190.396 163.068,-180.639 157.885,-185.344"/>
</g>
</g>
</svg>
