<?xml version="1.0" encoding="UTF-8" standalone="no"?>
<!DOCTYPE svg PUBLIC "-//W3C//DTD SVG 1.1//EN"
 "http://www.w3.org/Graphics/SVG/1.1/DTD/svg11.dtd">
<!-- Generated by graphviz version 2.38.0 (20140413.2041)
 -->
<!-- Title: disk_util.cpp Pages: 1 -->
<svg width="134pt" height="196pt"
 viewBox="0.00 0.00 134.00 196.00" xmlns="http://www.w3.org/2000/svg" xmlns:xlink="http://www.w3.org/1999/xlink">
<g id="graph0" class="graph" transform="scale(1 1) rotate(0) translate(4 192)">
<title>disk_util.cpp</title>
<polygon fill="white" stroke="none" points="-4,4 -4,-192 130,-192 130,4 -4,4"/>
<!-- Node1 -->
<g id="node1" class="node"><title>Node1</title>
<polygon fill="#bfbfbf" stroke="black" points="31.5,-168.5 31.5,-187.5 102.5,-187.5 102.5,-168.5 31.5,-168.5"/>
<text text-anchor="middle" x="67" y="-175.5" font-family="Helvetica,sans-Serif" font-size="10.00">disk_util.cpp</text>
</g>
<!-- Node2 -->
<g id="node2" class="node"><title>Node2</title>
<g id="a_node2"><a xlink:href="$disk__util_8h.html" xlink:title="disk_util.h">
<polygon fill="white" stroke="black" points="0.5,-112.5 0.5,-131.5 61.5,-131.5 61.5,-112.5 0.5,-112.5"/>
<text text-anchor="middle" x="31" y="-119.5" font-family="Helvetica,sans-Serif" font-size="10.00">disk_util.h</text>
</a>
</g>
</g>
<!-- Node1&#45;&gt;Node2 -->
<g id="edge1" class="edge"><title>Node1&#45;&gt;Node2</title>
<path fill="none" stroke="midnightblue" d="M61.0553,-168.083C56.0227,-160.534 48.6632,-149.495 42.4865,-140.23"/>
<polygon fill="midnightblue" stroke="midnightblue" points="45.2933,-138.13 36.8341,-131.751 39.4689,-142.013 45.2933,-138.13"/>
</g>
<!-- Node5 -->
<g id="node5" class="node"><title>Node5</title>
<polygon fill="white" stroke="#bfbfbf" points="80,-112.5 80,-131.5 126,-131.5 126,-112.5 80,-112.5"/>
<text text-anchor="middle" x="103" y="-119.5" font-family="Helvetica,sans-Serif" font-size="10.00">cstring</text>
</g>
<!-- Node1&#45;&gt;Node5 -->
<g id="edge4" class="edge"><title>Node1&#45;&gt;Node5</title>
<path fill="none" stroke="midnightblue" d="M72.9447,-168.083C77.9773,-160.534 85.3368,-149.495 91.5135,-140.23"/>
<polygon fill="midnightblue" stroke="midnightblue" points="94.5311,-142.013 97.1659,-131.751 88.7067,-138.13 94.5311,-142.013"/>
</g>
<!-- Node3 -->
<g id="node3" class="node"><title>Node3</title>
<g id="a_node3"><a xlink:href="$hi__types_8h.html" xlink:title="hi_types.h">
<polygon fill="white" stroke="black" points="0,-56.5 0,-75.5 62,-75.5 62,-56.5 0,-56.5"/>
<text text-anchor="middle" x="31" y="-63.5" font-family="Helvetica,sans-Serif" font-size="10.00">hi_types.h</text>
</a>
</g>
</g>
<!-- Node2&#45;&gt;Node3 -->
<g id="edge2" class="edge"><title>Node2&#45;&gt;Node3</title>
<path fill="none" stroke="midnightblue" d="M31,-112.083C31,-105.006 31,-94.8611 31,-85.9865"/>
<polygon fill="midnightblue" stroke="midnightblue" points="34.5001,-85.751 31,-75.7511 27.5001,-85.7511 34.5001,-85.751"/>
</g>
<!-- Node4 -->
<g id="node4" class="node"><title>Node4</title>
<polygon fill="white" stroke="#bfbfbf" points="6.5,-0.5 6.5,-19.5 55.5,-19.5 55.5,-0.5 6.5,-0.5"/>
<text text-anchor="middle" x="31" y="-7.5" font-family="Helvetica,sans-Serif" font-size="10.00">stdint.h</text>
</g>
<!-- Node3&#45;&gt;Node4 -->
<g id="edge3" class="edge"><title>Node3&#45;&gt;Node4</title>
<path fill="none" stroke="midnightblue" d="M31,-56.083C31,-49.0059 31,-38.8611 31,-29.9865"/>
<polygon fill="midnightblue" stroke="midnightblue" points="34.5001,-29.751 31,-19.7511 27.5001,-29.7511 34.5001,-29.751"/>
</g>
</g>
</svg>
