<?xml version="1.0" encoding="UTF-8" standalone="no"?>
<!DOCTYPE svg PUBLIC "-//W3C//DTD SVG 1.1//EN"
 "http://www.w3.org/Graphics/SVG/1.1/DTD/svg11.dtd">
<!-- Generated by graphviz version 2.38.0 (20140413.2041)
 -->
<!-- Title: fc5025.h Pages: 1 -->
<svg width="241pt" height="84pt"
 viewBox="0.00 0.00 240.50 84.00" xmlns="http://www.w3.org/2000/svg" xmlns:xlink="http://www.w3.org/1999/xlink">
<g id="graph0" class="graph" transform="scale(1 1) rotate(0) translate(4 80)">
<title>fc5025.h</title>
<polygon fill="white" stroke="none" points="-4,4 -4,-80 236.5,-80 236.5,4 -4,4"/>
<!-- Node1 -->
<g id="node1" class="node"><title>Node1</title>
<polygon fill="#bfbfbf" stroke="black" points="80,-56.5 80,-75.5 134,-75.5 134,-56.5 80,-56.5"/>
<text text-anchor="middle" x="107" y="-63.5" font-family="Helvetica,sans-Serif" font-size="10.00">fc5025.h</text>
</g>
<!-- Node2 -->
<g id="node2" class="node"><title>Node2</title>
<g id="a_node2"><a xlink:href="$drive_8cpp.html" xlink:title="drive.cpp">
<polygon fill="white" stroke="black" points="0,-0.5 0,-19.5 56,-19.5 56,-0.5 0,-0.5"/>
<text text-anchor="middle" x="28" y="-7.5" font-family="Helvetica,sans-Serif" font-size="10.00">drive.cpp</text>
</a>
</g>
</g>
<!-- Node1&#45;&gt;Node2 -->
<g id="edge1" class="edge"><title>Node1&#45;&gt;Node2</title>
<path fill="none" stroke="midnightblue" d="M85.9657,-50.6221C71.5339,-40.7574 52.8585,-27.9919 40.6612,-19.6545"/>
<polygon fill="midnightblue" stroke="midnightblue" points="84.0765,-53.5703 94.3073,-56.324 88.0267,-47.7914 84.0765,-53.5703"/>
</g>
<!-- Node3 -->
<g id="node3" class="node"><title>Node3</title>
<g id="a_node3"><a xlink:href="$fc5025_8cpp.html" xlink:title="fc5025.cpp">
<polygon fill="white" stroke="black" points="74.5,-0.5 74.5,-19.5 139.5,-19.5 139.5,-0.5 74.5,-0.5"/>
<text text-anchor="middle" x="107" y="-7.5" font-family="Helvetica,sans-Serif" font-size="10.00">fc5025.cpp</text>
</a>
</g>
</g>
<!-- Node1&#45;&gt;Node3 -->
<g id="edge2" class="edge"><title>Node1&#45;&gt;Node3</title>
<path fill="none" stroke="midnightblue" d="M107,-45.8045C107,-36.9102 107,-26.7798 107,-19.7511"/>
<polygon fill="midnightblue" stroke="midnightblue" points="103.5,-46.083 107,-56.083 110.5,-46.083 103.5,-46.083"/>
</g>
<!-- Node4 -->
<g id="node4" class="node"><title>Node4</title>
<g id="a_node4"><a xlink:href="$heath__hs_8cpp.html" xlink:title="heath_hs.cpp">
<polygon fill="white" stroke="black" points="157.5,-0.5 157.5,-19.5 232.5,-19.5 232.5,-0.5 157.5,-0.5"/>
<text text-anchor="middle" x="195" y="-7.5" font-family="Helvetica,sans-Serif" font-size="10.00">heath_hs.cpp</text>
</a>
</g>
</g>
<!-- Node1&#45;&gt;Node4 -->
<g id="edge3" class="edge"><title>Node1&#45;&gt;Node4</title>
<path fill="none" stroke="midnightblue" d="M129.977,-50.9005C146.113,-40.9986 167.181,-28.0705 180.896,-19.6545"/>
<polygon fill="midnightblue" stroke="midnightblue" points="127.831,-48.1106 121.139,-56.324 131.493,-54.0769 127.831,-48.1106"/>
</g>
</g>
</svg>
