<?xml version="1.0" encoding="UTF-8" standalone="no"?>
<!DOCTYPE svg PUBLIC "-//W3C//DTD SVG 1.1//EN"
 "http://www.w3.org/Graphics/SVG/1.1/DTD/svg11.dtd">
<!-- Generated by graphviz version 2.38.0 (20140413.2041)
 -->
<!-- Title: fc5025.cpp Pages: 1 -->
<svg width="463pt" height="140pt"
 viewBox="0.00 0.00 462.50 140.00" xmlns="http://www.w3.org/2000/svg" xmlns:xlink="http://www.w3.org/1999/xlink">
<g id="graph0" class="graph" transform="scale(1 1) rotate(0) translate(4 136)">
<title>fc5025.cpp</title>
<polygon fill="white" stroke="none" points="-4,4 -4,-136 458.5,-136 458.5,4 -4,4"/>
<!-- Node1 -->
<g id="node1" class="node"><title>Node1</title>
<polygon fill="#bfbfbf" stroke="black" points="195.5,-112.5 195.5,-131.5 260.5,-131.5 260.5,-112.5 195.5,-112.5"/>
<text text-anchor="middle" x="228" y="-119.5" font-family="Helvetica,sans-Serif" font-size="10.00">fc5025.cpp</text>
</g>
<!-- Node2 -->
<g id="node2" class="node"><title>Node2</title>
<g id="a_node2"><a xlink:href="$fc5025_8h.html" xlink:title="fc5025.h">
<polygon fill="white" stroke="black" points="0,-56.5 0,-75.5 54,-75.5 54,-56.5 0,-56.5"/>
<text text-anchor="middle" x="27" y="-63.5" font-family="Helvetica,sans-Serif" font-size="10.00">fc5025.h</text>
</a>
</g>
</g>
<!-- Node1&#45;&gt;Node2 -->
<g id="edge1" class="edge"><title>Node1&#45;&gt;Node2</title>
<path fill="none" stroke="midnightblue" d="M196.151,-112.444C160.332,-102.821 102.227,-87.2102 64.3112,-77.0239"/>
<polygon fill="midnightblue" stroke="midnightblue" points="64.7534,-73.5187 54.1878,-74.3042 62.9372,-80.279 64.7534,-73.5187"/>
</g>
<!-- Node4 -->
<g id="node4" class="node"><title>Node4</title>
<polygon fill="white" stroke="#bfbfbf" points="72,-56.5 72,-75.5 118,-75.5 118,-56.5 72,-56.5"/>
<text text-anchor="middle" x="95" y="-63.5" font-family="Helvetica,sans-Serif" font-size="10.00">stdio.h</text>
</g>
<!-- Node1&#45;&gt;Node4 -->
<g id="edge3" class="edge"><title>Node1&#45;&gt;Node4</title>
<path fill="none" stroke="midnightblue" d="M206.926,-112.444C184.94,-103.517 150.266,-89.4387 125.336,-79.3168"/>
<polygon fill="midnightblue" stroke="midnightblue" points="126.558,-76.0355 115.976,-75.5164 123.924,-82.5213 126.558,-76.0355"/>
</g>
<!-- Node5 -->
<g id="node5" class="node"><title>Node5</title>
<polygon fill="white" stroke="#bfbfbf" points="136.5,-56.5 136.5,-75.5 185.5,-75.5 185.5,-56.5 136.5,-56.5"/>
<text text-anchor="middle" x="161" y="-63.5" font-family="Helvetica,sans-Serif" font-size="10.00">stdint.h</text>
</g>
<!-- Node1&#45;&gt;Node5 -->
<g id="edge4" class="edge"><title>Node1&#45;&gt;Node5</title>
<path fill="none" stroke="midnightblue" d="M217.235,-112.324C207.234,-104.263 192.113,-92.0765 180.07,-82.3695"/>
<polygon fill="midnightblue" stroke="midnightblue" points="181.943,-79.3841 171.961,-75.8339 177.55,-84.8343 181.943,-79.3841"/>
</g>
<!-- Node6 -->
<g id="node6" class="node"><title>Node6</title>
<polygon fill="white" stroke="#bfbfbf" points="203.5,-56.5 203.5,-75.5 252.5,-75.5 252.5,-56.5 203.5,-56.5"/>
<text text-anchor="middle" x="228" y="-63.5" font-family="Helvetica,sans-Serif" font-size="10.00">string.h</text>
</g>
<!-- Node1&#45;&gt;Node6 -->
<g id="edge5" class="edge"><title>Node1&#45;&gt;Node6</title>
<path fill="none" stroke="midnightblue" d="M228,-112.083C228,-105.006 228,-94.8611 228,-85.9865"/>
<polygon fill="midnightblue" stroke="midnightblue" points="231.5,-85.751 228,-75.7511 224.5,-85.7511 231.5,-85.751"/>
</g>
<!-- Node7 -->
<g id="node7" class="node"><title>Node7</title>
<polygon fill="white" stroke="#bfbfbf" points="271,-56.5 271,-75.5 333,-75.5 333,-56.5 271,-56.5"/>
<text text-anchor="middle" x="302" y="-63.5" font-family="Helvetica,sans-Serif" font-size="10.00">arpa/inet.h</text>
</g>
<!-- Node1&#45;&gt;Node7 -->
<g id="edge6" class="edge"><title>Node1&#45;&gt;Node7</title>
<path fill="none" stroke="midnightblue" d="M239.889,-112.324C251.15,-104.107 268.287,-91.6017 281.709,-81.8069"/>
<polygon fill="midnightblue" stroke="midnightblue" points="283.88,-84.5559 289.894,-75.8339 279.753,-78.9014 283.88,-84.5559"/>
</g>
<!-- Node8 -->
<g id="node8" class="node"><title>Node8</title>
<polygon fill="white" stroke="#bfbfbf" points="351,-56.5 351,-75.5 395,-75.5 395,-56.5 351,-56.5"/>
<text text-anchor="middle" x="373" y="-63.5" font-family="Helvetica,sans-Serif" font-size="10.00">time.h</text>
</g>
<!-- Node1&#45;&gt;Node8 -->
<g id="edge7" class="edge"><title>Node1&#45;&gt;Node8</title>
<path fill="none" stroke="midnightblue" d="M250.976,-112.444C275.299,-103.385 313.869,-89.0213 341.125,-78.8705"/>
<polygon fill="midnightblue" stroke="midnightblue" points="342.459,-82.109 350.608,-75.339 340.016,-75.5491 342.459,-82.109"/>
</g>
<!-- Node9 -->
<g id="node9" class="node"><title>Node9</title>
<polygon fill="white" stroke="#bfbfbf" points="413.5,-56.5 413.5,-75.5 454.5,-75.5 454.5,-56.5 413.5,-56.5"/>
<text text-anchor="middle" x="434" y="-63.5" font-family="Helvetica,sans-Serif" font-size="10.00">usb.h</text>
</g>
<!-- Node1&#45;&gt;Node9 -->
<g id="edge8" class="edge"><title>Node1&#45;&gt;Node9</title>
<path fill="none" stroke="midnightblue" d="M260.544,-113.104C294.013,-104.891 347.864,-91.417 403.673,-76.0029"/>
<polygon fill="midnightblue" stroke="midnightblue" points="404.677,-79.3569 413.376,-73.3089 402.804,-72.6121 404.677,-79.3569"/>
</g>
<!-- Node3 -->
<g id="node3" class="node"><title>Node3</title>
<polygon fill="white" stroke="#bfbfbf" points="4,-0.5 4,-19.5 50,-19.5 50,-0.5 4,-0.5"/>
<text text-anchor="middle" x="27" y="-7.5" font-family="Helvetica,sans-Serif" font-size="10.00">cstdint</text>
</g>
<!-- Node2&#45;&gt;Node3 -->
<g id="edge2" class="edge"><title>Node2&#45;&gt;Node3</title>
<path fill="none" stroke="midnightblue" d="M27,-56.083C27,-49.0059 27,-38.8611 27,-29.9865"/>
<polygon fill="midnightblue" stroke="midnightblue" points="30.5001,-29.751 27,-19.7511 23.5001,-29.7511 30.5001,-29.751"/>
</g>
</g>
</svg>
