<?xml version="1.0" encoding="UTF-8" standalone="no"?>
<!DOCTYPE svg PUBLIC "-//W3C//DTD SVG 1.1//EN"
 "http://www.w3.org/Graphics/SVG/1.1/DTD/svg11.dtd">
<!-- Generated by graphviz version 2.38.0 (20140413.2041)
 -->
<!-- Title: h17block.h Pages: 1 -->
<svg width="245pt" height="84pt"
 viewBox="0.00 0.00 244.50 84.00" xmlns="http://www.w3.org/2000/svg" xmlns:xlink="http://www.w3.org/1999/xlink">
<g id="graph0" class="graph" transform="scale(1 1) rotate(0) translate(4 80)">
<title>h17block.h</title>
<polygon fill="white" stroke="none" points="-4,4 -4,-80 240.5,-80 240.5,4 -4,4"/>
<!-- Node1 -->
<g id="node1" class="node"><title>Node1</title>
<polygon fill="#bfbfbf" stroke="black" points="95,-56.5 95,-75.5 159,-75.5 159,-56.5 95,-56.5"/>
<text text-anchor="middle" x="127" y="-63.5" font-family="Helvetica,sans-Serif" font-size="10.00">h17block.h</text>
</g>
<!-- Node2 -->
<g id="node2" class="node"><title>Node2</title>
<g id="a_node2"><a xlink:href="$h17block_8cpp.html" xlink:title="h17block.cpp">
<polygon fill="white" stroke="black" points="0,-0.5 0,-19.5 74,-19.5 74,-0.5 0,-0.5"/>
<text text-anchor="middle" x="37" y="-7.5" font-family="Helvetica,sans-Serif" font-size="10.00">h17block.cpp</text>
</a>
</g>
</g>
<!-- Node1&#45;&gt;Node2 -->
<g id="edge1" class="edge"><title>Node1&#45;&gt;Node2</title>
<path fill="none" stroke="midnightblue" d="M103.962,-51.1774C87.4011,-41.2407 65.582,-28.1492 51.4242,-19.6545"/>
<polygon fill="midnightblue" stroke="midnightblue" points="102.164,-54.1802 112.54,-56.324 105.766,-48.1777 102.164,-54.1802"/>
</g>
<!-- Node3 -->
<g id="node3" class="node"><title>Node3</title>
<g id="a_node3"><a xlink:href="$h17disk_8cpp.html" xlink:title="h17disk.cpp">
<polygon fill="white" stroke="black" points="92.5,-0.5 92.5,-19.5 161.5,-19.5 161.5,-0.5 92.5,-0.5"/>
<text text-anchor="middle" x="127" y="-7.5" font-family="Helvetica,sans-Serif" font-size="10.00">h17disk.cpp</text>
</a>
</g>
</g>
<!-- Node1&#45;&gt;Node3 -->
<g id="edge2" class="edge"><title>Node1&#45;&gt;Node3</title>
<path fill="none" stroke="midnightblue" d="M127,-45.8045C127,-36.9102 127,-26.7798 127,-19.7511"/>
<polygon fill="midnightblue" stroke="midnightblue" points="123.5,-46.083 127,-56.083 130.5,-46.083 123.5,-46.083"/>
</g>
<!-- Node4 -->
<g id="node4" class="node"><title>Node4</title>
<g id="a_node4"><a xlink:href="$track_8cpp_source.html" xlink:title="track.cpp">
<polygon fill="white" stroke="black" points="179.5,-0.5 179.5,-19.5 236.5,-19.5 236.5,-0.5 179.5,-0.5"/>
<text text-anchor="middle" x="208" y="-7.5" font-family="Helvetica,sans-Serif" font-size="10.00">track.cpp</text>
</a>
</g>
</g>
<!-- Node1&#45;&gt;Node4 -->
<g id="edge3" class="edge"><title>Node1&#45;&gt;Node4</title>
<path fill="none" stroke="midnightblue" d="M148.567,-50.6221C163.364,-40.7574 182.512,-27.9919 195.018,-19.6545"/>
<polygon fill="midnightblue" stroke="midnightblue" points="146.393,-47.8647 140.014,-56.324 150.276,-53.6891 146.393,-47.8647"/>
</g>
</g>
</svg>
