<?xml version="1.0" encoding="UTF-8" standalone="no"?>
<!DOCTYPE svg PUBLIC "-//W3C//DTD SVG 1.1//EN"
 "http://www.w3.org/Graphics/SVG/1.1/DTD/svg11.dtd">
<!-- Generated by graphviz version 2.38.0 (20140413.2041)
 -->
<!-- Title: h17block.cpp Pages: 1 -->
<svg width="517pt" height="140pt"
 viewBox="0.00 0.00 517.00 140.00" xmlns="http://www.w3.org/2000/svg" xmlns:xlink="http://www.w3.org/1999/xlink">
<g id="graph0" class="graph" transform="scale(1 1) rotate(0) translate(4 136)">
<title>h17block.cpp</title>
<polygon fill="white" stroke="none" points="-4,4 -4,-136 513,-136 513,4 -4,4"/>
<!-- Node1 -->
<g id="node1" class="node"><title>Node1</title>
<polygon fill="#bfbfbf" stroke="black" points="234,-112.5 234,-131.5 308,-131.5 308,-112.5 234,-112.5"/>
<text text-anchor="middle" x="271" y="-119.5" font-family="Helvetica,sans-Serif" font-size="10.00">h17block.cpp</text>
</g>
<!-- Node2 -->
<g id="node2" class="node"><title>Node2</title>
<g id="a_node2"><a xlink:href="$h17block_8h.html" xlink:title="h17block.h">
<polygon fill="white" stroke="black" points="313,-56.5 313,-75.5 377,-75.5 377,-56.5 313,-56.5"/>
<text text-anchor="middle" x="345" y="-63.5" font-family="Helvetica,sans-Serif" font-size="10.00">h17block.h</text>
</a>
</g>
</g>
<!-- Node1&#45;&gt;Node2 -->
<g id="edge1" class="edge"><title>Node1&#45;&gt;Node2</title>
<path fill="none" stroke="midnightblue" d="M282.889,-112.324C294.15,-104.107 311.287,-91.6017 324.709,-81.8069"/>
<polygon fill="midnightblue" stroke="midnightblue" points="326.88,-84.5559 332.894,-75.8339 322.753,-78.9014 326.88,-84.5559"/>
</g>
<!-- Node7 -->
<g id="node7" class="node"><title>Node7</title>
<g id="a_node7"><a xlink:href="$track_8h_source.html" xlink:title="track.h">
<polygon fill="white" stroke="black" points="247.5,-56.5 247.5,-75.5 294.5,-75.5 294.5,-56.5 247.5,-56.5"/>
<text text-anchor="middle" x="271" y="-63.5" font-family="Helvetica,sans-Serif" font-size="10.00">track.h</text>
</a>
</g>
</g>
<!-- Node1&#45;&gt;Node7 -->
<g id="edge6" class="edge"><title>Node1&#45;&gt;Node7</title>
<path fill="none" stroke="midnightblue" d="M271,-112.083C271,-105.006 271,-94.8611 271,-85.9865"/>
<polygon fill="midnightblue" stroke="midnightblue" points="274.5,-85.751 271,-75.7511 267.5,-85.7511 274.5,-85.751"/>
</g>
<!-- Node8 -->
<g id="node8" class="node"><title>Node8</title>
<g id="a_node8"><a xlink:href="$sector_8h.html" xlink:title="sector.h">
<polygon fill="white" stroke="black" points="86,-56.5 86,-75.5 138,-75.5 138,-56.5 86,-56.5"/>
<text text-anchor="middle" x="112" y="-63.5" font-family="Helvetica,sans-Serif" font-size="10.00">sector.h</text>
</a>
</g>
</g>
<!-- Node1&#45;&gt;Node8 -->
<g id="edge11" class="edge"><title>Node1&#45;&gt;Node8</title>
<path fill="none" stroke="midnightblue" d="M245.806,-112.444C219.057,-103.359 176.597,-88.9388 146.695,-78.7831"/>
<polygon fill="midnightblue" stroke="midnightblue" points="147.671,-75.4182 137.076,-75.5164 145.419,-82.0464 147.671,-75.4182"/>
</g>
<!-- Node9 -->
<g id="node9" class="node"><title>Node9</title>
<g id="a_node9"><a xlink:href="$raw__track_8h.html" xlink:title="raw_track.h">
<polygon fill="white" stroke="black" points="0,-56.5 0,-75.5 68,-75.5 68,-56.5 0,-56.5"/>
<text text-anchor="middle" x="34" y="-63.5" font-family="Helvetica,sans-Serif" font-size="10.00">raw_track.h</text>
</a>
</g>
</g>
<!-- Node1&#45;&gt;Node9 -->
<g id="edge15" class="edge"><title>Node1&#45;&gt;Node9</title>
<path fill="none" stroke="midnightblue" d="M233.969,-112.562C191.817,-102.958 123.008,-87.2803 78.1142,-77.0513"/>
<polygon fill="midnightblue" stroke="midnightblue" points="78.6101,-73.5747 68.0824,-74.7656 77.055,-80.3998 78.6101,-73.5747"/>
</g>
<!-- Node10 -->
<g id="node10" class="node"><title>Node10</title>
<g id="a_node10"><a xlink:href="$raw__sector_8h.html" xlink:title="raw_sector.h">
<polygon fill="white" stroke="black" points="156.5,-56.5 156.5,-75.5 229.5,-75.5 229.5,-56.5 156.5,-56.5"/>
<text text-anchor="middle" x="193" y="-63.5" font-family="Helvetica,sans-Serif" font-size="10.00">raw_sector.h</text>
</a>
</g>
</g>
<!-- Node1&#45;&gt;Node10 -->
<g id="edge19" class="edge"><title>Node1&#45;&gt;Node10</title>
<path fill="none" stroke="midnightblue" d="M258.468,-112.324C246.414,-103.979 227.973,-91.2122 213.731,-81.3524"/>
<polygon fill="midnightblue" stroke="midnightblue" points="215.715,-78.469 205.501,-75.6545 211.731,-84.2243 215.715,-78.469"/>
</g>
<!-- Node11 -->
<g id="node11" class="node"><title>Node11</title>
<g id="a_node11"><a xlink:href="$dump_8h.html" xlink:title="dump.h">
<polygon fill="white" stroke="black" points="395.5,-56.5 395.5,-75.5 444.5,-75.5 444.5,-56.5 395.5,-56.5"/>
<text text-anchor="middle" x="420" y="-63.5" font-family="Helvetica,sans-Serif" font-size="10.00">dump.h</text>
</a>
</g>
</g>
<!-- Node1&#45;&gt;Node11 -->
<g id="edge23" class="edge"><title>Node1&#45;&gt;Node11</title>
<path fill="none" stroke="midnightblue" d="M294.609,-112.444C319.458,-103.438 358.774,-89.1891 386.754,-79.049"/>
<polygon fill="midnightblue" stroke="midnightblue" points="388.292,-82.2144 396.501,-75.5164 385.907,-75.6332 388.292,-82.2144"/>
</g>
<!-- Node12 -->
<g id="node12" class="node"><title>Node12</title>
<polygon fill="white" stroke="#bfbfbf" points="463,-56.5 463,-75.5 509,-75.5 509,-56.5 463,-56.5"/>
<text text-anchor="middle" x="486" y="-63.5" font-family="Helvetica,sans-Serif" font-size="10.00">cstring</text>
</g>
<!-- Node1&#45;&gt;Node12 -->
<g id="edge25" class="edge"><title>Node1&#45;&gt;Node12</title>
<path fill="none" stroke="midnightblue" d="M307.201,-112.471C342.161,-104.152 396.831,-90.9266 453.163,-76.1581"/>
<polygon fill="midnightblue" stroke="midnightblue" points="454.174,-79.5113 462.953,-73.5802 452.391,-72.7421 454.174,-79.5113"/>
</g>
<!-- Node3 -->
<g id="node3" class="node"><title>Node3</title>
<polygon fill="white" stroke="#bfbfbf" points="99,-0.5 99,-19.5 153,-19.5 153,-0.5 99,-0.5"/>
<text text-anchor="middle" x="126" y="-7.5" font-family="Helvetica,sans-Serif" font-size="10.00">iostream</text>
</g>
<!-- Node2&#45;&gt;Node3 -->
<g id="edge2" class="edge"><title>Node2&#45;&gt;Node3</title>
<path fill="none" stroke="midnightblue" d="M312.925,-57.1524C278.308,-48.674 221.291,-34.6846 162.887,-20.2134"/>
<polygon fill="midnightblue" stroke="midnightblue" points="163.672,-16.8021 153.124,-17.7929 161.988,-23.5964 163.672,-16.8021"/>
</g>
<!-- Node4 -->
<g id="node4" class="node"><title>Node4</title>
<polygon fill="white" stroke="#bfbfbf" points="171,-0.5 171,-19.5 221,-19.5 221,-0.5 171,-0.5"/>
<text text-anchor="middle" x="196" y="-7.5" font-family="Helvetica,sans-Serif" font-size="10.00">fstream</text>
</g>
<!-- Node2&#45;&gt;Node4 -->
<g id="edge3" class="edge"><title>Node2&#45;&gt;Node4</title>
<path fill="none" stroke="midnightblue" d="M321.391,-56.4435C296.542,-47.4381 257.226,-33.1891 229.246,-23.049"/>
<polygon fill="midnightblue" stroke="midnightblue" points="230.093,-19.6332 219.499,-19.5164 227.708,-26.2144 230.093,-19.6332"/>
</g>
<!-- Node5 -->
<g id="node5" class="node"><title>Node5</title>
<polygon fill="white" stroke="#bfbfbf" points="307,-0.5 307,-19.5 353,-19.5 353,-0.5 307,-0.5"/>
<text text-anchor="middle" x="330" y="-7.5" font-family="Helvetica,sans-Serif" font-size="10.00">cstdint</text>
</g>
<!-- Node2&#45;&gt;Node5 -->
<g id="edge4" class="edge"><title>Node2&#45;&gt;Node5</title>
<path fill="none" stroke="midnightblue" d="M342.523,-56.083C340.514,-48.8486 337.614,-38.4087 335.11,-29.3968"/>
<polygon fill="midnightblue" stroke="midnightblue" points="338.48,-28.4495 332.431,-19.7511 331.735,-30.323 338.48,-28.4495"/>
</g>
<!-- Node6 -->
<g id="node6" class="node"><title>Node6</title>
<polygon fill="white" stroke="#bfbfbf" points="245,-0.5 245,-19.5 289,-19.5 289,-0.5 245,-0.5"/>
<text text-anchor="middle" x="267" y="-7.5" font-family="Helvetica,sans-Serif" font-size="10.00">vector</text>
</g>
<!-- Node2&#45;&gt;Node6 -->
<g id="edge5" class="edge"><title>Node2&#45;&gt;Node6</title>
<path fill="none" stroke="midnightblue" d="M332.468,-56.324C320.414,-47.979 301.973,-35.2122 287.731,-25.3524"/>
<polygon fill="midnightblue" stroke="midnightblue" points="289.715,-22.469 279.501,-19.6545 285.731,-28.2243 289.715,-22.469"/>
</g>
<!-- Node7&#45;&gt;Node3 -->
<g id="edge8" class="edge"><title>Node7&#45;&gt;Node3</title>
<path fill="none" stroke="midnightblue" d="M248.024,-56.4435C223.843,-47.4381 185.582,-33.1891 158.354,-23.049"/>
<polygon fill="midnightblue" stroke="midnightblue" points="159.461,-19.7265 148.868,-19.5164 157.018,-26.2864 159.461,-19.7265"/>
</g>
<!-- Node7&#45;&gt;Node4 -->
<g id="edge9" class="edge"><title>Node7&#45;&gt;Node4</title>
<path fill="none" stroke="midnightblue" d="M258.95,-56.324C247.537,-48.1066 230.169,-35.6017 216.565,-25.8069"/>
<polygon fill="midnightblue" stroke="midnightblue" points="218.43,-22.8366 208.269,-19.8339 214.34,-28.5174 218.43,-22.8366"/>
</g>
<!-- Node7&#45;&gt;Node5 -->
<g id="edge10" class="edge"><title>Node7&#45;&gt;Node5</title>
<path fill="none" stroke="midnightblue" d="M280.479,-56.324C289.201,-48.3414 302.343,-36.3128 312.898,-26.6529"/>
<polygon fill="midnightblue" stroke="midnightblue" points="315.334,-29.1674 320.348,-19.8339 310.608,-24.0036 315.334,-29.1674"/>
</g>
<!-- Node7&#45;&gt;Node6 -->
<g id="edge7" class="edge"><title>Node7&#45;&gt;Node6</title>
<path fill="none" stroke="midnightblue" d="M270.339,-56.083C269.815,-49.0059 269.064,-38.8611 268.406,-29.9865"/>
<polygon fill="midnightblue" stroke="midnightblue" points="271.877,-29.4652 267.648,-19.7511 264.897,-29.9823 271.877,-29.4652"/>
</g>
<!-- Node8&#45;&gt;Node3 -->
<g id="edge12" class="edge"><title>Node8&#45;&gt;Node3</title>
<path fill="none" stroke="midnightblue" d="M114.312,-56.083C116.167,-48.9272 118.835,-38.6353 121.154,-29.6911"/>
<polygon fill="midnightblue" stroke="midnightblue" points="124.609,-30.3094 123.731,-19.7511 117.834,-28.5527 124.609,-30.3094"/>
</g>
<!-- Node8&#45;&gt;Node4 -->
<g id="edge13" class="edge"><title>Node8&#45;&gt;Node4</title>
<path fill="none" stroke="midnightblue" d="M125.496,-56.324C138.6,-47.9002 158.712,-34.9709 174.107,-25.0741"/>
<polygon fill="midnightblue" stroke="midnightblue" points="176.018,-28.0063 182.537,-19.6545 172.233,-22.118 176.018,-28.0063"/>
</g>
<!-- Node8&#45;&gt;Node5 -->
<g id="edge14" class="edge"><title>Node8&#45;&gt;Node5</title>
<path fill="none" stroke="midnightblue" d="M138.361,-58.1685C141.274,-57.4293 144.199,-56.6941 147,-56 210.959,-40.1538 229.573,-37.558 297.096,-20.1564"/>
<polygon fill="midnightblue" stroke="midnightblue" points="298.156,-23.4972 306.958,-17.5997 296.4,-16.7212 298.156,-23.4972"/>
</g>
<!-- Node9&#45;&gt;Node3 -->
<g id="edge17" class="edge"><title>Node9&#45;&gt;Node3</title>
<path fill="none" stroke="midnightblue" d="M48.7814,-56.324C63.2671,-47.8215 85.5731,-34.7288 102.493,-24.7975"/>
<polygon fill="midnightblue" stroke="midnightblue" points="104.403,-27.735 111.255,-19.6545 100.859,-21.6981 104.403,-27.735"/>
</g>
<!-- Node9&#45;&gt;Node4 -->
<g id="edge18" class="edge"><title>Node9&#45;&gt;Node4</title>
<path fill="none" stroke="midnightblue" d="M59.6694,-56.4435C87.083,-47.3057 130.693,-32.7689 161.187,-22.6044"/>
<polygon fill="midnightblue" stroke="midnightblue" points="162.603,-25.8217 170.983,-19.339 160.389,-19.1809 162.603,-25.8217"/>
</g>
<!-- Node9&#45;&gt;Node6 -->
<g id="edge16" class="edge"><title>Node9&#45;&gt;Node6</title>
<path fill="none" stroke="midnightblue" d="M68.023,-57.3288C107.139,-48.4767 173.259,-33.4139 230,-20 231.488,-19.6483 233.009,-19.2867 234.545,-18.9198"/>
<polygon fill="midnightblue" stroke="midnightblue" points="235.804,-22.2166 244.706,-16.4721 234.165,-15.4113 235.804,-22.2166"/>
</g>
<!-- Node10&#45;&gt;Node3 -->
<g id="edge20" class="edge"><title>Node10&#45;&gt;Node3</title>
<path fill="none" stroke="midnightblue" d="M182.235,-56.324C172.234,-48.2631 157.113,-36.0765 145.07,-26.3695"/>
<polygon fill="midnightblue" stroke="midnightblue" points="146.943,-23.3841 136.961,-19.8339 142.55,-28.8343 146.943,-23.3841"/>
</g>
<!-- Node10&#45;&gt;Node4 -->
<g id="edge21" class="edge"><title>Node10&#45;&gt;Node4</title>
<path fill="none" stroke="midnightblue" d="M193.495,-56.083C193.889,-49.0059 194.452,-38.8611 194.945,-29.9865"/>
<polygon fill="midnightblue" stroke="midnightblue" points="198.454,-29.9299 195.514,-19.7511 191.464,-29.5415 198.454,-29.9299"/>
</g>
<!-- Node10&#45;&gt;Node5 -->
<g id="edge22" class="edge"><title>Node10&#45;&gt;Node5</title>
<path fill="none" stroke="midnightblue" d="M214.708,-56.4435C237.355,-47.5171 273.072,-33.4387 298.752,-23.3168"/>
<polygon fill="midnightblue" stroke="midnightblue" points="300.374,-26.4397 308.394,-19.5164 297.807,-19.9273 300.374,-26.4397"/>
</g>
<!-- Node11&#45;&gt;Node5 -->
<g id="edge24" class="edge"><title>Node11&#45;&gt;Node5</title>
<path fill="none" stroke="midnightblue" d="M405.54,-56.324C391.5,-47.9002 369.952,-34.9709 353.457,-25.0741"/>
<polygon fill="midnightblue" stroke="midnightblue" points="354.8,-21.7983 344.424,-19.6545 351.198,-27.8007 354.8,-21.7983"/>
</g>
</g>
</svg>
