<?xml version="1.0" encoding="UTF-8" standalone="no"?>
<!DOCTYPE svg PUBLIC "-//W3C//DTD SVG 1.1//EN"
 "http://www.w3.org/Graphics/SVG/1.1/DTD/svg11.dtd">
<!-- Generated by graphviz version 2.38.0 (20140413.2041)
 -->
<!-- Title: heath_hs.cpp Pages: 1 -->
<svg width="466pt" height="252pt"
 viewBox="0.00 0.00 466.00 252.00" xmlns="http://www.w3.org/2000/svg" xmlns:xlink="http://www.w3.org/1999/xlink">
<g id="graph0" class="graph" transform="scale(1 1) rotate(0) translate(4 248)">
<title>heath_hs.cpp</title>
<polygon fill="white" stroke="none" points="-4,4 -4,-248 462,-248 462,4 -4,4"/>
<!-- Node1 -->
<g id="node1" class="node"><title>Node1</title>
<polygon fill="#bfbfbf" stroke="black" points="182,-224.5 182,-243.5 257,-243.5 257,-224.5 182,-224.5"/>
<text text-anchor="middle" x="219.5" y="-231.5" font-family="Helvetica,sans-Serif" font-size="10.00">heath_hs.cpp</text>
</g>
<!-- Node2 -->
<g id="node2" class="node"><title>Node2</title>
<g id="a_node2"><a xlink:href="$heath__hs_8h.html" xlink:title="heath_hs.h">
<polygon fill="white" stroke="black" points="0,-168.5 0,-187.5 65,-187.5 65,-168.5 0,-168.5"/>
<text text-anchor="middle" x="32.5" y="-175.5" font-family="Helvetica,sans-Serif" font-size="10.00">heath_hs.h</text>
</a>
</g>
</g>
<!-- Node1&#45;&gt;Node2 -->
<g id="edge1" class="edge"><title>Node1&#45;&gt;Node2</title>
<path fill="none" stroke="midnightblue" d="M189.869,-224.444C158,-215.241 107.167,-200.562 71.936,-190.388"/>
<polygon fill="midnightblue" stroke="midnightblue" points="72.5706,-186.928 61.9921,-187.516 70.6285,-193.653 72.5706,-186.928"/>
</g>
<!-- Node6 -->
<g id="node6" class="node"><title>Node6</title>
<g id="a_node6"><a xlink:href="$decode_8h.html" xlink:title="decode.h">
<polygon fill="white" stroke="black" points="69.5,-112.5 69.5,-131.5 125.5,-131.5 125.5,-112.5 69.5,-112.5"/>
<text text-anchor="middle" x="97.5" y="-119.5" font-family="Helvetica,sans-Serif" font-size="10.00">decode.h</text>
</a>
</g>
</g>
<!-- Node1&#45;&gt;Node6 -->
<g id="edge5" class="edge"><title>Node1&#45;&gt;Node6</title>
<path fill="none" stroke="midnightblue" d="M209.927,-224.368C189.348,-205.814 140.658,-161.913 114.622,-138.438"/>
<polygon fill="midnightblue" stroke="midnightblue" points="116.799,-135.688 107.029,-131.591 112.112,-140.887 116.799,-135.688"/>
</g>
<!-- Node7 -->
<g id="node7" class="node"><title>Node7</title>
<g id="a_node7"><a xlink:href="$disk__util_8h.html" xlink:title="disk_util.h">
<polygon fill="white" stroke="black" points="144,-112.5 144,-131.5 205,-131.5 205,-112.5 144,-112.5"/>
<text text-anchor="middle" x="174.5" y="-119.5" font-family="Helvetica,sans-Serif" font-size="10.00">disk_util.h</text>
</a>
</g>
</g>
<!-- Node1&#45;&gt;Node7 -->
<g id="edge7" class="edge"><title>Node1&#45;&gt;Node7</title>
<path fill="none" stroke="midnightblue" d="M210.135,-224.328C201.686,-215.912 189.666,-202.338 183.5,-188 177.234,-173.43 175.121,-155.484 174.498,-142.142"/>
<polygon fill="midnightblue" stroke="midnightblue" points="177.99,-141.723 174.267,-131.804 170.991,-141.88 177.99,-141.723"/>
</g>
<!-- Node8 -->
<g id="node8" class="node"><title>Node8</title>
<g id="a_node8"><a xlink:href="$fc5025_8h.html" xlink:title="fc5025.h">
<polygon fill="white" stroke="black" points="192.5,-168.5 192.5,-187.5 246.5,-187.5 246.5,-168.5 192.5,-168.5"/>
<text text-anchor="middle" x="219.5" y="-175.5" font-family="Helvetica,sans-Serif" font-size="10.00">fc5025.h</text>
</a>
</g>
</g>
<!-- Node1&#45;&gt;Node8 -->
<g id="edge9" class="edge"><title>Node1&#45;&gt;Node8</title>
<path fill="none" stroke="midnightblue" d="M219.5,-224.083C219.5,-217.006 219.5,-206.861 219.5,-197.986"/>
<polygon fill="midnightblue" stroke="midnightblue" points="223,-197.751 219.5,-187.751 216,-197.751 223,-197.751"/>
</g>
<!-- Node10 -->
<g id="node10" class="node"><title>Node10</title>
<polygon fill="white" stroke="#bfbfbf" points="264.5,-168.5 264.5,-187.5 310.5,-187.5 310.5,-168.5 264.5,-168.5"/>
<text text-anchor="middle" x="287.5" y="-175.5" font-family="Helvetica,sans-Serif" font-size="10.00">stdio.h</text>
</g>
<!-- Node1&#45;&gt;Node10 -->
<g id="edge11" class="edge"><title>Node1&#45;&gt;Node10</title>
<path fill="none" stroke="midnightblue" d="M230.425,-224.324C240.675,-216.185 256.221,-203.839 268.501,-194.087"/>
<polygon fill="midnightblue" stroke="midnightblue" points="270.721,-196.794 276.376,-187.834 266.368,-191.312 270.721,-196.794"/>
</g>
<!-- Node11 -->
<g id="node11" class="node"><title>Node11</title>
<polygon fill="white" stroke="#bfbfbf" points="328.5,-168.5 328.5,-187.5 390.5,-187.5 390.5,-168.5 328.5,-168.5"/>
<text text-anchor="middle" x="359.5" y="-175.5" font-family="Helvetica,sans-Serif" font-size="10.00">arpa/inet.h</text>
</g>
<!-- Node1&#45;&gt;Node11 -->
<g id="edge12" class="edge"><title>Node1&#45;&gt;Node11</title>
<path fill="none" stroke="midnightblue" d="M241.683,-224.444C264.928,-215.478 301.649,-201.314 327.915,-191.183"/>
<polygon fill="midnightblue" stroke="midnightblue" points="329.35,-194.381 337.42,-187.516 326.831,-187.85 329.35,-194.381"/>
</g>
<!-- Node12 -->
<g id="node12" class="node"><title>Node12</title>
<polygon fill="white" stroke="#bfbfbf" points="409,-168.5 409,-187.5 458,-187.5 458,-168.5 409,-168.5"/>
<text text-anchor="middle" x="433.5" y="-175.5" font-family="Helvetica,sans-Serif" font-size="10.00">string.h</text>
</g>
<!-- Node1&#45;&gt;Node12 -->
<g id="edge13" class="edge"><title>Node1&#45;&gt;Node12</title>
<path fill="none" stroke="midnightblue" d="M254.379,-224.431C288.683,-215.97 342.793,-202.536 399.189,-188.053"/>
<polygon fill="midnightblue" stroke="midnightblue" points="400.184,-191.411 408.997,-185.529 398.44,-184.632 400.184,-191.411"/>
</g>
<!-- Node3 -->
<g id="node3" class="node"><title>Node3</title>
<g id="a_node3"><a xlink:href="$disk_8h.html" xlink:title="disk.h">
<polygon fill="white" stroke="black" points="8,-112.5 8,-131.5 51,-131.5 51,-112.5 8,-112.5"/>
<text text-anchor="middle" x="29.5" y="-119.5" font-family="Helvetica,sans-Serif" font-size="10.00">disk.h</text>
</a>
</g>
</g>
<!-- Node2&#45;&gt;Node3 -->
<g id="edge2" class="edge"><title>Node2&#45;&gt;Node3</title>
<path fill="none" stroke="midnightblue" d="M32.0046,-168.083C31.6114,-161.006 31.0478,-150.861 30.5548,-141.986"/>
<polygon fill="midnightblue" stroke="midnightblue" points="34.0356,-141.542 29.9862,-131.751 27.0464,-141.93 34.0356,-141.542"/>
</g>
<!-- Node4 -->
<g id="node4" class="node"><title>Node4</title>
<g id="a_node4"><a xlink:href="$hi__types_8h.html" xlink:title="hi_types.h">
<polygon fill="white" stroke="black" points="66.5,-56.5 66.5,-75.5 128.5,-75.5 128.5,-56.5 66.5,-56.5"/>
<text text-anchor="middle" x="97.5" y="-63.5" font-family="Helvetica,sans-Serif" font-size="10.00">hi_types.h</text>
</a>
</g>
</g>
<!-- Node3&#45;&gt;Node4 -->
<g id="edge3" class="edge"><title>Node3&#45;&gt;Node4</title>
<path fill="none" stroke="midnightblue" d="M40.4254,-112.324C50.6746,-104.185 66.2206,-91.8395 78.501,-82.0874"/>
<polygon fill="midnightblue" stroke="midnightblue" points="80.7213,-84.7937 86.3758,-75.8339 76.3681,-79.3119 80.7213,-84.7937"/>
</g>
<!-- Node5 -->
<g id="node5" class="node"><title>Node5</title>
<polygon fill="white" stroke="#bfbfbf" points="73,-0.5 73,-19.5 122,-19.5 122,-0.5 73,-0.5"/>
<text text-anchor="middle" x="97.5" y="-7.5" font-family="Helvetica,sans-Serif" font-size="10.00">stdint.h</text>
</g>
<!-- Node4&#45;&gt;Node5 -->
<g id="edge4" class="edge"><title>Node4&#45;&gt;Node5</title>
<path fill="none" stroke="midnightblue" d="M97.5,-56.083C97.5,-49.0059 97.5,-38.8611 97.5,-29.9865"/>
<polygon fill="midnightblue" stroke="midnightblue" points="101,-29.751 97.5,-19.7511 94.0001,-29.7511 101,-29.751"/>
</g>
<!-- Node6&#45;&gt;Node4 -->
<g id="edge6" class="edge"><title>Node6&#45;&gt;Node4</title>
<path fill="none" stroke="midnightblue" d="M97.5,-112.083C97.5,-105.006 97.5,-94.8611 97.5,-85.9865"/>
<polygon fill="midnightblue" stroke="midnightblue" points="101,-85.751 97.5,-75.7511 94.0001,-85.7511 101,-85.751"/>
</g>
<!-- Node7&#45;&gt;Node4 -->
<g id="edge8" class="edge"><title>Node7&#45;&gt;Node4</title>
<path fill="none" stroke="midnightblue" d="M162.129,-112.324C150.342,-104.058 132.368,-91.4527 118.364,-81.6322"/>
<polygon fill="midnightblue" stroke="midnightblue" points="120.038,-78.5307 109.841,-75.6545 116.018,-84.2619 120.038,-78.5307"/>
</g>
<!-- Node9 -->
<g id="node9" class="node"><title>Node9</title>
<polygon fill="white" stroke="#bfbfbf" points="223.5,-112.5 223.5,-131.5 269.5,-131.5 269.5,-112.5 223.5,-112.5"/>
<text text-anchor="middle" x="246.5" y="-119.5" font-family="Helvetica,sans-Serif" font-size="10.00">cstdint</text>
</g>
<!-- Node8&#45;&gt;Node9 -->
<g id="edge10" class="edge"><title>Node8&#45;&gt;Node9</title>
<path fill="none" stroke="midnightblue" d="M223.959,-168.083C227.654,-160.691 233.023,-149.953 237.594,-140.811"/>
<polygon fill="midnightblue" stroke="midnightblue" points="240.783,-142.261 242.124,-131.751 234.522,-139.13 240.783,-142.261"/>
</g>
</g>
</svg>
