<?xml version="1.0" encoding="UTF-8" standalone="no"?>
<!DOCTYPE svg PUBLIC "-//W3C//DTD SVG 1.1//EN"
 "http://www.w3.org/Graphics/SVG/1.1/DTD/svg11.dtd">
<!-- Generated by graphviz version 2.38.0 (20140413.2041)
 -->
<!-- Title: hi_types.h Pages: 1 -->
<svg width="563pt" height="196pt"
 viewBox="0.00 0.00 563.00 196.00" xmlns="http://www.w3.org/2000/svg" xmlns:xlink="http://www.w3.org/1999/xlink">
<g id="graph0" class="graph" transform="scale(1 1) rotate(0) translate(4 192)">
<title>hi_types.h</title>
<polygon fill="white" stroke="none" points="-4,4 -4,-192 559,-192 559,4 -4,4"/>
<!-- Node1 -->
<g id="node1" class="node"><title>Node1</title>
<polygon fill="#bfbfbf" stroke="black" points="209.5,-168.5 209.5,-187.5 271.5,-187.5 271.5,-168.5 209.5,-168.5"/>
<text text-anchor="middle" x="240.5" y="-175.5" font-family="Helvetica,sans-Serif" font-size="10.00">hi_types.h</text>
</g>
<!-- Node2 -->
<g id="node2" class="node"><title>Node2</title>
<g id="a_node2"><a xlink:href="$decode_8h.html" xlink:title="decode.h">
<polygon fill="white" stroke="black" points="111.5,-112.5 111.5,-131.5 167.5,-131.5 167.5,-112.5 111.5,-112.5"/>
<text text-anchor="middle" x="139.5" y="-119.5" font-family="Helvetica,sans-Serif" font-size="10.00">decode.h</text>
</a>
</g>
</g>
<!-- Node1&#45;&gt;Node2 -->
<g id="edge1" class="edge"><title>Node1&#45;&gt;Node2</title>
<path fill="none" stroke="midnightblue" d="M215.417,-163.59C196.743,-153.605 171.796,-140.267 155.687,-131.655"/>
<polygon fill="midnightblue" stroke="midnightblue" points="213.804,-166.696 224.273,-168.324 217.104,-160.522 213.804,-166.696"/>
</g>
<!-- Node6 -->
<g id="node6" class="node"><title>Node6</title>
<g id="a_node6"><a xlink:href="$disk_8h.html" xlink:title="disk.h">
<polygon fill="white" stroke="black" points="424,-112.5 424,-131.5 467,-131.5 467,-112.5 424,-112.5"/>
<text text-anchor="middle" x="445.5" y="-119.5" font-family="Helvetica,sans-Serif" font-size="10.00">disk.h</text>
</a>
</g>
</g>
<!-- Node1&#45;&gt;Node6 -->
<g id="edge5" class="edge"><title>Node1&#45;&gt;Node6</title>
<path fill="none" stroke="midnightblue" d="M281.484,-166.204C324.379,-154.905 390.087,-137.596 423.839,-128.706"/>
<polygon fill="midnightblue" stroke="midnightblue" points="280.414,-162.867 271.635,-168.799 282.197,-169.636 280.414,-162.867"/>
</g>
<!-- Node9 -->
<g id="node9" class="node"><title>Node9</title>
<g id="a_node9"><a xlink:href="$disk__util_8h.html" xlink:title="disk_util.h">
<polygon fill="white" stroke="black" points="210,-112.5 210,-131.5 271,-131.5 271,-112.5 210,-112.5"/>
<text text-anchor="middle" x="240.5" y="-119.5" font-family="Helvetica,sans-Serif" font-size="10.00">disk_util.h</text>
</a>
</g>
</g>
<!-- Node1&#45;&gt;Node9 -->
<g id="edge9" class="edge"><title>Node1&#45;&gt;Node9</title>
<path fill="none" stroke="midnightblue" d="M240.5,-157.805C240.5,-148.91 240.5,-138.78 240.5,-131.751"/>
<polygon fill="midnightblue" stroke="midnightblue" points="237,-158.083 240.5,-168.083 244,-158.083 237,-158.083"/>
</g>
<!-- Node3 -->
<g id="node3" class="node"><title>Node3</title>
<g id="a_node3"><a xlink:href="$decode_8cpp.html" xlink:title="decode.cpp">
<polygon fill="white" stroke="black" points="0,-56.5 0,-75.5 67,-75.5 67,-56.5 0,-56.5"/>
<text text-anchor="middle" x="33.5" y="-63.5" font-family="Helvetica,sans-Serif" font-size="10.00">decode.cpp</text>
</a>
</g>
</g>
<!-- Node2&#45;&gt;Node3 -->
<g id="edge2" class="edge"><title>Node2&#45;&gt;Node3</title>
<path fill="none" stroke="midnightblue" d="M113.444,-107.726C93.8162,-97.7271 67.472,-84.3065 50.4885,-75.6545"/>
<polygon fill="midnightblue" stroke="midnightblue" points="111.97,-110.903 122.469,-112.324 115.148,-104.666 111.97,-110.903"/>
</g>
<!-- Node4 -->
<g id="node4" class="node"><title>Node4</title>
<g id="a_node4"><a xlink:href="$h17disk_8cpp.html" xlink:title="h17disk.cpp">
<polygon fill="white" stroke="black" points="124,-56.5 124,-75.5 193,-75.5 193,-56.5 124,-56.5"/>
<text text-anchor="middle" x="158.5" y="-63.5" font-family="Helvetica,sans-Serif" font-size="10.00">h17disk.cpp</text>
</a>
</g>
</g>
<!-- Node2&#45;&gt;Node4 -->
<g id="edge3" class="edge"><title>Node2&#45;&gt;Node4</title>
<path fill="none" stroke="midnightblue" d="M146.046,-102.396C149.224,-93.362 152.893,-82.936 155.421,-75.7511"/>
<polygon fill="midnightblue" stroke="midnightblue" points="142.655,-101.488 142.637,-112.083 149.258,-103.812 142.655,-101.488"/>
</g>
<!-- Node5 -->
<g id="node5" class="node"><title>Node5</title>
<g id="a_node5"><a xlink:href="$heath__hs_8cpp.html" xlink:title="heath_hs.cpp">
<polygon fill="white" stroke="black" points="184,-0.5 184,-19.5 259,-19.5 259,-0.5 184,-0.5"/>
<text text-anchor="middle" x="221.5" y="-7.5" font-family="Helvetica,sans-Serif" font-size="10.00">heath_hs.cpp</text>
</a>
</g>
</g>
<!-- Node2&#45;&gt;Node5 -->
<g id="edge4" class="edge"><title>Node2&#45;&gt;Node5</title>
<path fill="none" stroke="midnightblue" d="M124.885,-104.373C114.677,-90.6414 104.512,-71.0358 114.5,-56 129.832,-32.9189 159.562,-21.65 183.801,-16.1631"/>
<polygon fill="midnightblue" stroke="midnightblue" points="122.388,-106.852 131.389,-112.441 127.838,-102.459 122.388,-106.852"/>
</g>
<!-- Node7 -->
<g id="node7" class="node"><title>Node7</title>
<g id="a_node7"><a xlink:href="$disk_8cpp.html" xlink:title="disk.cpp">
<polygon fill="white" stroke="black" points="419,-56.5 419,-75.5 472,-75.5 472,-56.5 419,-56.5"/>
<text text-anchor="middle" x="445.5" y="-63.5" font-family="Helvetica,sans-Serif" font-size="10.00">disk.cpp</text>
</a>
</g>
</g>
<!-- Node6&#45;&gt;Node7 -->
<g id="edge6" class="edge"><title>Node6&#45;&gt;Node7</title>
<path fill="none" stroke="midnightblue" d="M445.5,-101.805C445.5,-92.9102 445.5,-82.7798 445.5,-75.7511"/>
<polygon fill="midnightblue" stroke="midnightblue" points="442,-102.083 445.5,-112.083 449,-102.083 442,-102.083"/>
</g>
<!-- Node8 -->
<g id="node8" class="node"><title>Node8</title>
<g id="a_node8"><a xlink:href="$heath__hs_8h.html" xlink:title="heath_hs.h">
<polygon fill="white" stroke="black" points="490,-56.5 490,-75.5 555,-75.5 555,-56.5 490,-56.5"/>
<text text-anchor="middle" x="522.5" y="-63.5" font-family="Helvetica,sans-Serif" font-size="10.00">heath_hs.h</text>
</a>
</g>
</g>
<!-- Node6&#45;&gt;Node8 -->
<g id="edge7" class="edge"><title>Node6&#45;&gt;Node8</title>
<path fill="none" stroke="midnightblue" d="M466.401,-106.342C480.411,-96.5169 498.383,-83.9132 510.159,-75.6545"/>
<polygon fill="midnightblue" stroke="midnightblue" points="464.049,-103.717 457.871,-112.324 468.068,-109.448 464.049,-103.717"/>
</g>
<!-- Node8&#45;&gt;Node5 -->
<g id="edge8" class="edge"><title>Node8&#45;&gt;Node5</title>
<path fill="none" stroke="midnightblue" d="M479.863,-55.7416C395.591,-39.3589 307.762,-24.8062 259.056,-16.959"/>
<polygon fill="midnightblue" stroke="midnightblue" points="479.368,-59.211 489.854,-57.6959 480.712,-52.3412 479.368,-59.211"/>
</g>
<!-- Node9&#45;&gt;Node4 -->
<g id="edge11" class="edge"><title>Node9&#45;&gt;Node4</title>
<path fill="none" stroke="midnightblue" d="M218.667,-106.622C203.687,-96.7574 184.303,-83.9919 171.642,-75.6545"/>
<polygon fill="midnightblue" stroke="midnightblue" points="217.049,-109.747 227.325,-112.324 220.899,-103.901 217.049,-109.747"/>
</g>
<!-- Node9&#45;&gt;Node5 -->
<g id="edge12" class="edge"><title>Node9&#45;&gt;Node5</title>
<path fill="none" stroke="midnightblue" d="M237.278,-102.348C233.117,-78.2538 226.044,-37.3079 222.984,-19.5914"/>
<polygon fill="midnightblue" stroke="midnightblue" points="233.858,-103.11 239.009,-112.368 240.756,-101.919 233.858,-103.11"/>
</g>
<!-- Node10 -->
<g id="node10" class="node"><title>Node10</title>
<g id="a_node10"><a xlink:href="$disk__util_8cpp.html" xlink:title="disk_util.cpp">
<polygon fill="white" stroke="black" points="330,-56.5 330,-75.5 401,-75.5 401,-56.5 330,-56.5"/>
<text text-anchor="middle" x="365.5" y="-63.5" font-family="Helvetica,sans-Serif" font-size="10.00">disk_util.cpp</text>
</a>
</g>
</g>
<!-- Node9&#45;&gt;Node10 -->
<g id="edge10" class="edge"><title>Node9&#45;&gt;Node10</title>
<path fill="none" stroke="midnightblue" d="M269.741,-108.368C293.15,-98.2553 325.341,-84.3486 345.786,-75.5164"/>
<polygon fill="midnightblue" stroke="midnightblue" points="268.099,-105.265 260.307,-112.444 270.875,-111.691 268.099,-105.265"/>
</g>
<!-- Node11 -->
<g id="node11" class="node"><title>Node11</title>
<g id="a_node11"><a xlink:href="$sector_8cpp.html" xlink:title="sector.cpp">
<polygon fill="white" stroke="black" points="249.5,-56.5 249.5,-75.5 311.5,-75.5 311.5,-56.5 249.5,-56.5"/>
<text text-anchor="middle" x="280.5" y="-63.5" font-family="Helvetica,sans-Serif" font-size="10.00">sector.cpp</text>
</a>
</g>
</g>
<!-- Node9&#45;&gt;Node11 -->
<g id="edge13" class="edge"><title>Node9&#45;&gt;Node11</title>
<path fill="none" stroke="midnightblue" d="M253.2,-103.855C260.126,-94.5048 268.406,-83.3265 274.018,-75.7511"/>
<polygon fill="midnightblue" stroke="midnightblue" points="250.245,-101.964 247.105,-112.083 255.87,-106.131 250.245,-101.964"/>
</g>
</g>
</svg>
