<?xml version="1.0" encoding="UTF-8" standalone="no"?>
<!DOCTYPE svg PUBLIC "-//W3C//DTD SVG 1.1//EN"
 "http://www.w3.org/Graphics/SVG/1.1/DTD/svg11.dtd">
<!-- Generated by graphviz version 2.38.0 (20140413.2041)
 -->
<!-- Title: raw_track.h Pages: 1 -->
<svg width="266pt" height="84pt"
 viewBox="0.00 0.00 266.00 84.00" xmlns="http://www.w3.org/2000/svg" xmlns:xlink="http://www.w3.org/1999/xlink">
<g id="graph0" class="graph" transform="scale(1 1) rotate(0) translate(4 80)">
<title>raw_track.h</title>
<polygon fill="white" stroke="none" points="-4,4 -4,-80 262,-80 262,4 -4,4"/>
<!-- Node1 -->
<g id="node1" class="node"><title>Node1</title>
<polygon fill="#bfbfbf" stroke="black" points="93,-56.5 93,-75.5 161,-75.5 161,-56.5 93,-56.5"/>
<text text-anchor="middle" x="127" y="-63.5" font-family="Helvetica,sans-Serif" font-size="10.00">raw_track.h</text>
</g>
<!-- Node2 -->
<g id="node2" class="node"><title>Node2</title>
<g id="a_node2"><a xlink:href="$h17block_8cpp.html" xlink:title="h17block.cpp">
<polygon fill="white" stroke="black" points="0,-0.5 0,-19.5 74,-19.5 74,-0.5 0,-0.5"/>
<text text-anchor="middle" x="37" y="-7.5" font-family="Helvetica,sans-Serif" font-size="10.00">h17block.cpp</text>
</a>
</g>
</g>
<!-- Node1&#45;&gt;Node2 -->
<g id="edge1" class="edge"><title>Node1&#45;&gt;Node2</title>
<path fill="none" stroke="midnightblue" d="M103.962,-51.1774C87.4011,-41.2407 65.582,-28.1492 51.4242,-19.6545"/>
<polygon fill="midnightblue" stroke="midnightblue" points="102.164,-54.1802 112.54,-56.324 105.766,-48.1777 102.164,-54.1802"/>
</g>
<!-- Node3 -->
<g id="node3" class="node"><title>Node3</title>
<g id="a_node3"><a xlink:href="$h17disk_8cpp.html" xlink:title="h17disk.cpp">
<polygon fill="white" stroke="black" points="92.5,-0.5 92.5,-19.5 161.5,-19.5 161.5,-0.5 92.5,-0.5"/>
<text text-anchor="middle" x="127" y="-7.5" font-family="Helvetica,sans-Serif" font-size="10.00">h17disk.cpp</text>
</a>
</g>
</g>
<!-- Node1&#45;&gt;Node3 -->
<g id="edge2" class="edge"><title>Node1&#45;&gt;Node3</title>
<path fill="none" stroke="midnightblue" d="M127,-45.8045C127,-36.9102 127,-26.7798 127,-19.7511"/>
<polygon fill="midnightblue" stroke="midnightblue" points="123.5,-46.083 127,-56.083 130.5,-46.083 123.5,-46.083"/>
</g>
<!-- Node4 -->
<g id="node4" class="node"><title>Node4</title>
<g id="a_node4"><a xlink:href="$raw__track_8cpp.html" xlink:title="raw_track.cpp">
<polygon fill="white" stroke="black" points="180,-0.5 180,-19.5 258,-19.5 258,-0.5 180,-0.5"/>
<text text-anchor="middle" x="219" y="-7.5" font-family="Helvetica,sans-Serif" font-size="10.00">raw_track.cpp</text>
</a>
</g>
</g>
<!-- Node1&#45;&gt;Node4 -->
<g id="edge3" class="edge"><title>Node1&#45;&gt;Node4</title>
<path fill="none" stroke="midnightblue" d="M150.55,-51.1774C167.479,-41.2407 189.783,-28.1492 204.255,-19.6545"/>
<polygon fill="midnightblue" stroke="midnightblue" points="148.634,-48.2435 141.781,-56.324 152.177,-54.2804 148.634,-48.2435"/>
</g>
</g>
</svg>
