<?xml version="1.0" encoding="UTF-8" standalone="no"?>
<!DOCTYPE svg PUBLIC "-//W3C//DTD SVG 1.1//EN"
 "http://www.w3.org/Graphics/SVG/1.1/DTD/svg11.dtd">
<!-- Generated by graphviz version 2.38.0 (20140413.2041)
 -->
<!-- Title: raw_sector.cpp Pages: 1 -->
<svg width="268pt" height="140pt"
 viewBox="0.00 0.00 267.50 140.00" xmlns="http://www.w3.org/2000/svg" xmlns:xlink="http://www.w3.org/1999/xlink">
<g id="graph0" class="graph" transform="scale(1 1) rotate(0) translate(4 136)">
<title>raw_sector.cpp</title>
<polygon fill="white" stroke="none" points="-4,4 -4,-136 263.5,-136 263.5,4 -4,4"/>
<!-- Node1 -->
<g id="node1" class="node"><title>Node1</title>
<polygon fill="#bfbfbf" stroke="black" points="121.5,-112.5 121.5,-131.5 204.5,-131.5 204.5,-112.5 121.5,-112.5"/>
<text text-anchor="middle" x="163" y="-119.5" font-family="Helvetica,sans-Serif" font-size="10.00">raw_sector.cpp</text>
</g>
<!-- Node2 -->
<g id="node2" class="node"><title>Node2</title>
<g id="a_node2"><a xlink:href="$raw__sector_8h.html" xlink:title="raw_sector.h">
<polygon fill="white" stroke="black" points="42.5,-56.5 42.5,-75.5 115.5,-75.5 115.5,-56.5 42.5,-56.5"/>
<text text-anchor="middle" x="79" y="-63.5" font-family="Helvetica,sans-Serif" font-size="10.00">raw_sector.h</text>
</a>
</g>
</g>
<!-- Node1&#45;&gt;Node2 -->
<g id="edge1" class="edge"><title>Node1&#45;&gt;Node2</title>
<path fill="none" stroke="midnightblue" d="M149.504,-112.324C136.4,-103.9 116.288,-90.9709 100.893,-81.0741"/>
<polygon fill="midnightblue" stroke="midnightblue" points="102.767,-78.118 92.4626,-75.6545 98.9817,-84.0063 102.767,-78.118"/>
</g>
<!-- Node6 -->
<g id="node6" class="node"><title>Node6</title>
<g id="a_node6"><a xlink:href="$h17disk_8h.html" xlink:title="h17disk.h">
<polygon fill="white" stroke="black" points="133.5,-56.5 133.5,-75.5 192.5,-75.5 192.5,-56.5 133.5,-56.5"/>
<text text-anchor="middle" x="163" y="-63.5" font-family="Helvetica,sans-Serif" font-size="10.00">h17disk.h</text>
</a>
</g>
</g>
<!-- Node1&#45;&gt;Node6 -->
<g id="edge5" class="edge"><title>Node1&#45;&gt;Node6</title>
<path fill="none" stroke="midnightblue" d="M163,-112.083C163,-105.006 163,-94.8611 163,-85.9865"/>
<polygon fill="midnightblue" stroke="midnightblue" points="166.5,-85.751 163,-75.7511 159.5,-85.7511 166.5,-85.751"/>
</g>
<!-- Node8 -->
<g id="node8" class="node"><title>Node8</title>
<polygon fill="white" stroke="#bfbfbf" points="210.5,-56.5 210.5,-75.5 259.5,-75.5 259.5,-56.5 210.5,-56.5"/>
<text text-anchor="middle" x="235" y="-63.5" font-family="Helvetica,sans-Serif" font-size="10.00">string.h</text>
</g>
<!-- Node1&#45;&gt;Node8 -->
<g id="edge10" class="edge"><title>Node1&#45;&gt;Node8</title>
<path fill="none" stroke="midnightblue" d="M174.568,-112.324C185.42,-104.185 201.881,-91.8395 214.883,-82.0874"/>
<polygon fill="midnightblue" stroke="midnightblue" points="217.321,-84.6339 223.221,-75.8339 213.121,-79.0339 217.321,-84.6339"/>
</g>
<!-- Node3 -->
<g id="node3" class="node"><title>Node3</title>
<polygon fill="white" stroke="#bfbfbf" points="0,-0.5 0,-19.5 54,-19.5 54,-0.5 0,-0.5"/>
<text text-anchor="middle" x="27" y="-7.5" font-family="Helvetica,sans-Serif" font-size="10.00">iostream</text>
</g>
<!-- Node2&#45;&gt;Node3 -->
<g id="edge2" class="edge"><title>Node2&#45;&gt;Node3</title>
<path fill="none" stroke="midnightblue" d="M70.4133,-56.083C62.841,-48.2195 51.6218,-36.5688 42.4856,-27.0813"/>
<polygon fill="midnightblue" stroke="midnightblue" points="44.8845,-24.5266 35.427,-19.7511 39.8423,-29.3821 44.8845,-24.5266"/>
</g>
<!-- Node4 -->
<g id="node4" class="node"><title>Node4</title>
<polygon fill="white" stroke="#bfbfbf" points="72,-0.5 72,-19.5 122,-19.5 122,-0.5 72,-0.5"/>
<text text-anchor="middle" x="97" y="-7.5" font-family="Helvetica,sans-Serif" font-size="10.00">fstream</text>
</g>
<!-- Node2&#45;&gt;Node4 -->
<g id="edge3" class="edge"><title>Node2&#45;&gt;Node4</title>
<path fill="none" stroke="midnightblue" d="M81.9723,-56.083C84.3838,-48.8486 87.8638,-38.4087 90.8677,-29.3968"/>
<polygon fill="midnightblue" stroke="midnightblue" points="94.241,-30.3447 94.083,-19.7511 87.6002,-28.1311 94.241,-30.3447"/>
</g>
<!-- Node5 -->
<g id="node5" class="node"><title>Node5</title>
<polygon fill="white" stroke="#bfbfbf" points="140,-0.5 140,-19.5 186,-19.5 186,-0.5 140,-0.5"/>
<text text-anchor="middle" x="163" y="-7.5" font-family="Helvetica,sans-Serif" font-size="10.00">cstdint</text>
</g>
<!-- Node2&#45;&gt;Node5 -->
<g id="edge4" class="edge"><title>Node2&#45;&gt;Node5</title>
<path fill="none" stroke="midnightblue" d="M92.4961,-56.324C105.6,-47.9002 125.712,-34.9709 141.107,-25.0741"/>
<polygon fill="midnightblue" stroke="midnightblue" points="143.018,-28.0063 149.537,-19.6545 139.233,-22.118 143.018,-28.0063"/>
</g>
<!-- Node6&#45;&gt;Node3 -->
<g id="edge6" class="edge"><title>Node6&#45;&gt;Node3</title>
<path fill="none" stroke="midnightblue" d="M141.45,-56.4435C118.969,-47.5171 83.5123,-33.4387 58.0201,-23.3168"/>
<polygon fill="midnightblue" stroke="midnightblue" points="59.0346,-19.9539 48.4488,-19.5164 56.4513,-26.4598 59.0346,-19.9539"/>
</g>
<!-- Node6&#45;&gt;Node4 -->
<g id="edge7" class="edge"><title>Node6&#45;&gt;Node4</title>
<path fill="none" stroke="midnightblue" d="M152.396,-56.324C142.544,-48.2631 127.649,-36.0765 115.785,-26.3695"/>
<polygon fill="midnightblue" stroke="midnightblue" points="117.753,-23.4575 107.797,-19.8339 113.32,-28.8752 117.753,-23.4575"/>
</g>
<!-- Node6&#45;&gt;Node5 -->
<g id="edge9" class="edge"><title>Node6&#45;&gt;Node5</title>
<path fill="none" stroke="midnightblue" d="M163,-56.083C163,-49.0059 163,-38.8611 163,-29.9865"/>
<polygon fill="midnightblue" stroke="midnightblue" points="166.5,-29.751 163,-19.7511 159.5,-29.7511 166.5,-29.751"/>
</g>
<!-- Node7 -->
<g id="node7" class="node"><title>Node7</title>
<polygon fill="white" stroke="#bfbfbf" points="204,-0.5 204,-19.5 248,-19.5 248,-0.5 204,-0.5"/>
<text text-anchor="middle" x="226" y="-7.5" font-family="Helvetica,sans-Serif" font-size="10.00">vector</text>
</g>
<!-- Node6&#45;&gt;Node7 -->
<g id="edge8" class="edge"><title>Node6&#45;&gt;Node7</title>
<path fill="none" stroke="midnightblue" d="M173.122,-56.324C182.526,-48.2631 196.744,-36.0765 208.069,-26.3695"/>
<polygon fill="midnightblue" stroke="midnightblue" points="210.379,-28.9993 215.694,-19.8339 205.823,-23.6844 210.379,-28.9993"/>
</g>
</g>
</svg>
