<?xml version="1.0" encoding="UTF-8" standalone="no"?>
<!DOCTYPE svg PUBLIC "-//W3C//DTD SVG 1.1//EN"
 "http://www.w3.org/Graphics/SVG/1.1/DTD/svg11.dtd">
<!-- Generated by graphviz version 2.38.0 (20140413.2041)
 -->
<!-- Title: raw_track.cpp Pages: 1 -->
<svg width="256pt" height="140pt"
 viewBox="0.00 0.00 256.00 140.00" xmlns="http://www.w3.org/2000/svg" xmlns:xlink="http://www.w3.org/1999/xlink">
<g id="graph0" class="graph" transform="scale(1 1) rotate(0) translate(4 136)">
<title>raw_track.cpp</title>
<polygon fill="white" stroke="none" points="-4,4 -4,-136 252,-136 252,4 -4,4"/>
<!-- Node1 -->
<g id="node1" class="node"><title>Node1</title>
<polygon fill="#bfbfbf" stroke="black" points="83,-112.5 83,-131.5 161,-131.5 161,-112.5 83,-112.5"/>
<text text-anchor="middle" x="122" y="-119.5" font-family="Helvetica,sans-Serif" font-size="10.00">raw_track.cpp</text>
</g>
<!-- Node2 -->
<g id="node2" class="node"><title>Node2</title>
<g id="a_node2"><a xlink:href="$raw__track_8h.html" xlink:title="raw_track.h">
<polygon fill="white" stroke="black" points="6,-56.5 6,-75.5 74,-75.5 74,-56.5 6,-56.5"/>
<text text-anchor="middle" x="40" y="-63.5" font-family="Helvetica,sans-Serif" font-size="10.00">raw_track.h</text>
</a>
</g>
</g>
<!-- Node1&#45;&gt;Node2 -->
<g id="edge1" class="edge"><title>Node1&#45;&gt;Node2</title>
<path fill="none" stroke="midnightblue" d="M108.825,-112.324C96.1532,-103.979 76.7666,-91.2122 61.7944,-81.3524"/>
<polygon fill="midnightblue" stroke="midnightblue" points="63.4187,-78.2313 53.142,-75.6545 59.5688,-84.0776 63.4187,-78.2313"/>
</g>
<!-- Node6 -->
<g id="node6" class="node"><title>Node6</title>
<g id="a_node6"><a xlink:href="$raw__sector_8h.html" xlink:title="raw_sector.h">
<polygon fill="white" stroke="black" points="169.5,-56.5 169.5,-75.5 242.5,-75.5 242.5,-56.5 169.5,-56.5"/>
<text text-anchor="middle" x="206" y="-63.5" font-family="Helvetica,sans-Serif" font-size="10.00">raw_sector.h</text>
</a>
</g>
</g>
<!-- Node1&#45;&gt;Node6 -->
<g id="edge5" class="edge"><title>Node1&#45;&gt;Node6</title>
<path fill="none" stroke="midnightblue" d="M135.496,-112.324C148.6,-103.9 168.712,-90.9709 184.107,-81.0741"/>
<polygon fill="midnightblue" stroke="midnightblue" points="186.018,-84.0063 192.537,-75.6545 182.233,-78.118 186.018,-84.0063"/>
</g>
<!-- Node8 -->
<g id="node8" class="node"><title>Node8</title>
<g id="a_node8"><a xlink:href="$h17disk_8h.html" xlink:title="h17disk.h">
<polygon fill="white" stroke="black" points="92.5,-56.5 92.5,-75.5 151.5,-75.5 151.5,-56.5 92.5,-56.5"/>
<text text-anchor="middle" x="122" y="-63.5" font-family="Helvetica,sans-Serif" font-size="10.00">h17disk.h</text>
</a>
</g>
</g>
<!-- Node1&#45;&gt;Node8 -->
<g id="edge9" class="edge"><title>Node1&#45;&gt;Node8</title>
<path fill="none" stroke="midnightblue" d="M122,-112.083C122,-105.006 122,-94.8611 122,-85.9865"/>
<polygon fill="midnightblue" stroke="midnightblue" points="125.5,-85.751 122,-75.7511 118.5,-85.7511 125.5,-85.751"/>
</g>
<!-- Node3 -->
<g id="node3" class="node"><title>Node3</title>
<polygon fill="white" stroke="#bfbfbf" points="0,-0.5 0,-19.5 44,-19.5 44,-0.5 0,-0.5"/>
<text text-anchor="middle" x="22" y="-7.5" font-family="Helvetica,sans-Serif" font-size="10.00">vector</text>
</g>
<!-- Node2&#45;&gt;Node3 -->
<g id="edge2" class="edge"><title>Node2&#45;&gt;Node3</title>
<path fill="none" stroke="midnightblue" d="M37.0277,-56.083C34.6162,-48.8486 31.1362,-38.4087 28.1323,-29.3968"/>
<polygon fill="midnightblue" stroke="midnightblue" points="31.3998,-28.1311 24.917,-19.7511 24.759,-30.3447 31.3998,-28.1311"/>
</g>
<!-- Node4 -->
<g id="node4" class="node"><title>Node4</title>
<polygon fill="white" stroke="#bfbfbf" points="62,-0.5 62,-19.5 116,-19.5 116,-0.5 62,-0.5"/>
<text text-anchor="middle" x="89" y="-7.5" font-family="Helvetica,sans-Serif" font-size="10.00">iostream</text>
</g>
<!-- Node2&#45;&gt;Node4 -->
<g id="edge3" class="edge"><title>Node2&#45;&gt;Node4</title>
<path fill="none" stroke="midnightblue" d="M48.0914,-56.083C55.1554,-48.2982 65.5876,-36.8015 74.1489,-27.3665"/>
<polygon fill="midnightblue" stroke="midnightblue" points="76.9312,-29.5087 81.0592,-19.7511 71.7473,-24.8047 76.9312,-29.5087"/>
</g>
<!-- Node5 -->
<g id="node5" class="node"><title>Node5</title>
<polygon fill="white" stroke="#bfbfbf" points="134,-0.5 134,-19.5 184,-19.5 184,-0.5 134,-0.5"/>
<text text-anchor="middle" x="159" y="-7.5" font-family="Helvetica,sans-Serif" font-size="10.00">fstream</text>
</g>
<!-- Node2&#45;&gt;Node5 -->
<g id="edge4" class="edge"><title>Node2&#45;&gt;Node5</title>
<path fill="none" stroke="midnightblue" d="M58.8559,-56.4435C78.266,-47.6356 108.73,-33.8116 130.965,-23.722"/>
<polygon fill="midnightblue" stroke="midnightblue" points="132.572,-26.836 140.232,-19.5164 129.68,-20.4615 132.572,-26.836"/>
</g>
<!-- Node6&#45;&gt;Node4 -->
<g id="edge6" class="edge"><title>Node6&#45;&gt;Node4</title>
<path fill="none" stroke="midnightblue" d="M187.461,-56.4435C168.377,-47.6356 138.425,-33.8116 116.564,-23.722"/>
<polygon fill="midnightblue" stroke="midnightblue" points="117.999,-20.5292 107.452,-19.5164 115.065,-26.8849 117.999,-20.5292"/>
</g>
<!-- Node6&#45;&gt;Node5 -->
<g id="edge7" class="edge"><title>Node6&#45;&gt;Node5</title>
<path fill="none" stroke="midnightblue" d="M198.239,-56.083C191.463,-48.2982 181.457,-36.8015 173.245,-27.3665"/>
<polygon fill="midnightblue" stroke="midnightblue" points="175.822,-24.9963 166.617,-19.7511 170.542,-29.592 175.822,-24.9963"/>
</g>
<!-- Node7 -->
<g id="node7" class="node"><title>Node7</title>
<polygon fill="white" stroke="#bfbfbf" points="202,-0.5 202,-19.5 248,-19.5 248,-0.5 202,-0.5"/>
<text text-anchor="middle" x="225" y="-7.5" font-family="Helvetica,sans-Serif" font-size="10.00">cstdint</text>
</g>
<!-- Node6&#45;&gt;Node7 -->
<g id="edge8" class="edge"><title>Node6&#45;&gt;Node7</title>
<path fill="none" stroke="midnightblue" d="M209.137,-56.083C211.683,-48.8486 215.356,-38.4087 218.527,-29.3968"/>
<polygon fill="midnightblue" stroke="midnightblue" points="221.903,-30.3459 221.921,-19.7511 215.3,-28.0225 221.903,-30.3459"/>
</g>
<!-- Node8&#45;&gt;Node3 -->
<g id="edge12" class="edge"><title>Node8&#45;&gt;Node3</title>
<path fill="none" stroke="midnightblue" d="M105.933,-56.324C90.0422,-47.7428 65.4926,-34.486 47.0415,-24.5224"/>
<polygon fill="midnightblue" stroke="midnightblue" points="48.489,-21.3264 38.0269,-19.6545 45.1629,-27.4857 48.489,-21.3264"/>
</g>
<!-- Node8&#45;&gt;Node4 -->
<g id="edge10" class="edge"><title>Node8&#45;&gt;Node4</title>
<path fill="none" stroke="midnightblue" d="M116.551,-56.083C111.986,-48.6127 105.332,-37.7244 99.7066,-28.5199"/>
<polygon fill="midnightblue" stroke="midnightblue" points="102.549,-26.4588 94.3479,-19.7511 96.5759,-30.109 102.549,-26.4588"/>
</g>
<!-- Node8&#45;&gt;Node5 -->
<g id="edge11" class="edge"><title>Node8&#45;&gt;Node5</title>
<path fill="none" stroke="midnightblue" d="M128.11,-56.083C133.282,-48.5341 140.846,-37.4948 147.194,-28.2298"/>
<polygon fill="midnightblue" stroke="midnightblue" points="150.239,-29.9787 153.004,-19.7511 144.464,-26.0221 150.239,-29.9787"/>
</g>
<!-- Node8&#45;&gt;Node7 -->
<g id="edge13" class="edge"><title>Node8&#45;&gt;Node7</title>
<path fill="none" stroke="midnightblue" d="M138.549,-56.324C154.992,-47.7034 180.435,-34.3643 199.468,-24.3855"/>
<polygon fill="midnightblue" stroke="midnightblue" points="201.261,-27.3977 208.492,-19.6545 198.011,-21.198 201.261,-27.3977"/>
</g>
</g>
</svg>
