<?xml version="1.0" encoding="UTF-8" standalone="no"?>
<!DOCTYPE svg PUBLIC "-//W3C//DTD SVG 1.1//EN"
 "http://www.w3.org/Graphics/SVG/1.1/DTD/svg11.dtd">
<!-- Generated by graphviz version 2.38.0 (20140413.2041)
 -->
<!-- Title: sector.cpp Pages: 1 -->
<svg width="351pt" height="196pt"
 viewBox="0.00 0.00 350.50 196.00" xmlns="http://www.w3.org/2000/svg" xmlns:xlink="http://www.w3.org/1999/xlink">
<g id="graph0" class="graph" transform="scale(1 1) rotate(0) translate(4 192)">
<title>sector.cpp</title>
<polygon fill="white" stroke="none" points="-4,4 -4,-192 346.5,-192 346.5,4 -4,4"/>
<!-- Node1 -->
<g id="node1" class="node"><title>Node1</title>
<polygon fill="#bfbfbf" stroke="black" points="175,-168.5 175,-187.5 237,-187.5 237,-168.5 175,-168.5"/>
<text text-anchor="middle" x="206" y="-175.5" font-family="Helvetica,sans-Serif" font-size="10.00">sector.cpp</text>
</g>
<!-- Node2 -->
<g id="node2" class="node"><title>Node2</title>
<g id="a_node2"><a xlink:href="$sector_8h.html" xlink:title="sector.h">
<polygon fill="white" stroke="black" points="67,-112.5 67,-131.5 119,-131.5 119,-112.5 67,-112.5"/>
<text text-anchor="middle" x="93" y="-119.5" font-family="Helvetica,sans-Serif" font-size="10.00">sector.h</text>
</a>
</g>
</g>
<!-- Node1&#45;&gt;Node2 -->
<g id="edge1" class="edge"><title>Node1&#45;&gt;Node2</title>
<path fill="none" stroke="midnightblue" d="M188.095,-168.444C169.746,-159.675 140.995,-145.935 119.906,-135.858"/>
<polygon fill="midnightblue" stroke="midnightblue" points="121.353,-132.67 110.821,-131.516 118.335,-138.986 121.353,-132.67"/>
</g>
<!-- Node6 -->
<g id="node6" class="node"><title>Node6</title>
<g id="a_node6"><a xlink:href="$h17disk_8h.html" xlink:title="h17disk.h">
<polygon fill="white" stroke="black" points="137.5,-112.5 137.5,-131.5 196.5,-131.5 196.5,-112.5 137.5,-112.5"/>
<text text-anchor="middle" x="167" y="-119.5" font-family="Helvetica,sans-Serif" font-size="10.00">h17disk.h</text>
</a>
</g>
</g>
<!-- Node1&#45;&gt;Node6 -->
<g id="edge5" class="edge"><title>Node1&#45;&gt;Node6</title>
<path fill="none" stroke="midnightblue" d="M199.56,-168.083C194.051,-160.455 185.969,-149.264 179.235,-139.941"/>
<polygon fill="midnightblue" stroke="midnightblue" points="182.013,-137.809 173.32,-131.751 176.338,-141.907 182.013,-137.809"/>
</g>
<!-- Node8 -->
<g id="node8" class="node"><title>Node8</title>
<g id="a_node8"><a xlink:href="$disk__util_8h.html" xlink:title="disk_util.h">
<polygon fill="white" stroke="black" points="214.5,-112.5 214.5,-131.5 275.5,-131.5 275.5,-112.5 214.5,-112.5"/>
<text text-anchor="middle" x="245" y="-119.5" font-family="Helvetica,sans-Serif" font-size="10.00">disk_util.h</text>
</a>
</g>
</g>
<!-- Node1&#45;&gt;Node8 -->
<g id="edge10" class="edge"><title>Node1&#45;&gt;Node8</title>
<path fill="none" stroke="midnightblue" d="M212.44,-168.083C217.949,-160.455 226.031,-149.264 232.765,-139.941"/>
<polygon fill="midnightblue" stroke="midnightblue" points="235.662,-141.907 238.68,-131.751 229.987,-137.809 235.662,-141.907"/>
</g>
<!-- Node11 -->
<g id="node11" class="node"><title>Node11</title>
<polygon fill="white" stroke="#bfbfbf" points="293.5,-112.5 293.5,-131.5 342.5,-131.5 342.5,-112.5 293.5,-112.5"/>
<text text-anchor="middle" x="318" y="-119.5" font-family="Helvetica,sans-Serif" font-size="10.00">string.h</text>
</g>
<!-- Node1&#45;&gt;Node11 -->
<g id="edge13" class="edge"><title>Node1&#45;&gt;Node11</title>
<path fill="none" stroke="midnightblue" d="M223.995,-168.324C242.038,-159.625 270.047,-146.12 290.803,-136.113"/>
<polygon fill="midnightblue" stroke="midnightblue" points="292.562,-139.15 300.05,-131.655 289.522,-132.845 292.562,-139.15"/>
</g>
<!-- Node3 -->
<g id="node3" class="node"><title>Node3</title>
<polygon fill="white" stroke="#bfbfbf" points="0,-56.5 0,-75.5 54,-75.5 54,-56.5 0,-56.5"/>
<text text-anchor="middle" x="27" y="-63.5" font-family="Helvetica,sans-Serif" font-size="10.00">iostream</text>
</g>
<!-- Node2&#45;&gt;Node3 -->
<g id="edge2" class="edge"><title>Node2&#45;&gt;Node3</title>
<path fill="none" stroke="midnightblue" d="M82.396,-112.324C72.5438,-104.263 57.6491,-92.0765 45.7849,-82.3695"/>
<polygon fill="midnightblue" stroke="midnightblue" points="47.7529,-79.4575 37.797,-75.8339 43.3202,-84.8752 47.7529,-79.4575"/>
</g>
<!-- Node4 -->
<g id="node4" class="node"><title>Node4</title>
<polygon fill="white" stroke="#bfbfbf" points="72,-56.5 72,-75.5 122,-75.5 122,-56.5 72,-56.5"/>
<text text-anchor="middle" x="97" y="-63.5" font-family="Helvetica,sans-Serif" font-size="10.00">fstream</text>
</g>
<!-- Node2&#45;&gt;Node4 -->
<g id="edge3" class="edge"><title>Node2&#45;&gt;Node4</title>
<path fill="none" stroke="midnightblue" d="M93.6605,-112.083C94.1848,-105.006 94.9362,-94.8611 95.5936,-85.9865"/>
<polygon fill="midnightblue" stroke="midnightblue" points="99.1034,-85.9823 96.3518,-75.7511 92.1225,-85.4652 99.1034,-85.9823"/>
</g>
<!-- Node5 -->
<g id="node5" class="node"><title>Node5</title>
<polygon fill="white" stroke="#bfbfbf" points="140,-56.5 140,-75.5 186,-75.5 186,-56.5 140,-56.5"/>
<text text-anchor="middle" x="163" y="-63.5" font-family="Helvetica,sans-Serif" font-size="10.00">cstdint</text>
</g>
<!-- Node2&#45;&gt;Node5 -->
<g id="edge4" class="edge"><title>Node2&#45;&gt;Node5</title>
<path fill="none" stroke="midnightblue" d="M104.247,-112.324C114.797,-104.185 130.801,-91.8395 143.442,-82.0874"/>
<polygon fill="midnightblue" stroke="midnightblue" points="145.769,-84.7132 151.549,-75.8339 141.493,-79.1707 145.769,-84.7132"/>
</g>
<!-- Node6&#45;&gt;Node3 -->
<g id="edge6" class="edge"><title>Node6&#45;&gt;Node3</title>
<path fill="none" stroke="midnightblue" d="M144.817,-112.444C121.572,-103.478 84.8512,-89.314 58.5848,-79.1827"/>
<polygon fill="midnightblue" stroke="midnightblue" points="59.6692,-75.8497 49.0796,-75.5164 57.1501,-82.3807 59.6692,-75.8497"/>
</g>
<!-- Node6&#45;&gt;Node4 -->
<g id="edge7" class="edge"><title>Node6&#45;&gt;Node4</title>
<path fill="none" stroke="midnightblue" d="M155.753,-112.324C145.203,-104.185 129.199,-91.8395 116.558,-82.0874"/>
<polygon fill="midnightblue" stroke="midnightblue" points="118.507,-79.1707 108.451,-75.8339 114.231,-84.7132 118.507,-79.1707"/>
</g>
<!-- Node6&#45;&gt;Node5 -->
<g id="edge9" class="edge"><title>Node6&#45;&gt;Node5</title>
<path fill="none" stroke="midnightblue" d="M166.339,-112.083C165.815,-105.006 165.064,-94.8611 164.406,-85.9865"/>
<polygon fill="midnightblue" stroke="midnightblue" points="167.877,-85.4652 163.648,-75.7511 160.897,-85.9823 167.877,-85.4652"/>
</g>
<!-- Node7 -->
<g id="node7" class="node"><title>Node7</title>
<polygon fill="white" stroke="#bfbfbf" points="204,-56.5 204,-75.5 248,-75.5 248,-56.5 204,-56.5"/>
<text text-anchor="middle" x="226" y="-63.5" font-family="Helvetica,sans-Serif" font-size="10.00">vector</text>
</g>
<!-- Node6&#45;&gt;Node7 -->
<g id="edge8" class="edge"><title>Node6&#45;&gt;Node7</title>
<path fill="none" stroke="midnightblue" d="M176.479,-112.324C185.201,-104.341 198.343,-92.3128 208.898,-82.6529"/>
<polygon fill="midnightblue" stroke="midnightblue" points="211.334,-85.1674 216.348,-75.8339 206.608,-80.0036 211.334,-85.1674"/>
</g>
<!-- Node9 -->
<g id="node9" class="node"><title>Node9</title>
<g id="a_node9"><a xlink:href="$hi__types_8h.html" xlink:title="hi_types.h">
<polygon fill="white" stroke="black" points="266,-56.5 266,-75.5 328,-75.5 328,-56.5 266,-56.5"/>
<text text-anchor="middle" x="297" y="-63.5" font-family="Helvetica,sans-Serif" font-size="10.00">hi_types.h</text>
</a>
</g>
</g>
<!-- Node8&#45;&gt;Node9 -->
<g id="edge11" class="edge"><title>Node8&#45;&gt;Node9</title>
<path fill="none" stroke="midnightblue" d="M253.587,-112.083C261.159,-104.22 272.378,-92.5688 281.514,-83.0813"/>
<polygon fill="midnightblue" stroke="midnightblue" points="284.158,-85.3821 288.573,-75.7511 279.115,-80.5266 284.158,-85.3821"/>
</g>
<!-- Node10 -->
<g id="node10" class="node"><title>Node10</title>
<polygon fill="white" stroke="#bfbfbf" points="272.5,-0.5 272.5,-19.5 321.5,-19.5 321.5,-0.5 272.5,-0.5"/>
<text text-anchor="middle" x="297" y="-7.5" font-family="Helvetica,sans-Serif" font-size="10.00">stdint.h</text>
</g>
<!-- Node9&#45;&gt;Node10 -->
<g id="edge12" class="edge"><title>Node9&#45;&gt;Node10</title>
<path fill="none" stroke="midnightblue" d="M297,-56.083C297,-49.0059 297,-38.8611 297,-29.9865"/>
<polygon fill="midnightblue" stroke="midnightblue" points="300.5,-29.751 297,-19.7511 293.5,-29.7511 300.5,-29.751"/>
</g>
</g>
</svg>
