<?xml version="1.0" encoding="UTF-8" standalone="no"?>
<!DOCTYPE svg PUBLIC "-//W3C//DTD SVG 1.1//EN"
 "http://www.w3.org/Graphics/SVG/1.1/DTD/svg11.dtd">
<!-- Generated by graphviz version 2.38.0 (20140413.2041)
 -->
<!-- Title: track.h Pages: 1 -->
<svg width="158pt" height="84pt"
 viewBox="0.00 0.00 157.50 84.00" xmlns="http://www.w3.org/2000/svg" xmlns:xlink="http://www.w3.org/1999/xlink">
<g id="graph0" class="graph" transform="scale(1 1) rotate(0) translate(4 80)">
<title>track.h</title>
<polygon fill="white" stroke="none" points="-4,4 -4,-80 153.5,-80 153.5,4 -4,4"/>
<!-- Node1 -->
<g id="node1" class="node"><title>Node1</title>
<polygon fill="#bfbfbf" stroke="black" points="55.5,-56.5 55.5,-75.5 102.5,-75.5 102.5,-56.5 55.5,-56.5"/>
<text text-anchor="middle" x="79" y="-63.5" font-family="Helvetica,sans-Serif" font-size="10.00">track.h</text>
</g>
<!-- Node2 -->
<g id="node2" class="node"><title>Node2</title>
<g id="a_node2"><a xlink:href="$h17block_8cpp.html" xlink:title="h17block.cpp">
<polygon fill="white" stroke="black" points="0,-0.5 0,-19.5 74,-19.5 74,-0.5 0,-0.5"/>
<text text-anchor="middle" x="37" y="-7.5" font-family="Helvetica,sans-Serif" font-size="10.00">h17block.cpp</text>
</a>
</g>
</g>
<!-- Node1&#45;&gt;Node2 -->
<g id="edge1" class="edge"><title>Node1&#45;&gt;Node2</title>
<path fill="none" stroke="midnightblue" d="M65.8898,-48.144C58.5722,-38.7357 49.7591,-27.4046 43.8064,-19.7511"/>
<polygon fill="midnightblue" stroke="midnightblue" points="63.1624,-50.3383 72.0646,-56.083 68.6878,-46.0406 63.1624,-50.3383"/>
</g>
<!-- Node3 -->
<g id="node3" class="node"><title>Node3</title>
<g id="a_node3"><a xlink:href="$track_8cpp_source.html" xlink:title="track.cpp">
<polygon fill="white" stroke="black" points="92.5,-0.5 92.5,-19.5 149.5,-19.5 149.5,-0.5 92.5,-0.5"/>
<text text-anchor="middle" x="121" y="-7.5" font-family="Helvetica,sans-Serif" font-size="10.00">track.cpp</text>
</a>
</g>
</g>
<!-- Node1&#45;&gt;Node3 -->
<g id="edge2" class="edge"><title>Node1&#45;&gt;Node3</title>
<path fill="none" stroke="midnightblue" d="M92.1102,-48.144C99.4278,-38.7357 108.241,-27.4046 114.194,-19.7511"/>
<polygon fill="midnightblue" stroke="midnightblue" points="89.3122,-46.0406 85.9354,-56.083 94.8376,-50.3383 89.3122,-46.0406"/>
</g>
</g>
</svg>
