<?xml version="1.0" encoding="UTF-8" standalone="no"?>
<!DOCTYPE svg PUBLIC "-//W3C//DTD SVG 1.1//EN"
 "http://www.w3.org/Graphics/SVG/1.1/DTD/svg11.dtd">
<!-- Generated by graphviz version 2.38.0 (20140413.2041)
 -->
<!-- Title: track.cpp Pages: 1 -->
<svg width="285pt" height="140pt"
 viewBox="0.00 0.00 284.50 140.00" xmlns="http://www.w3.org/2000/svg" xmlns:xlink="http://www.w3.org/1999/xlink">
<g id="graph0" class="graph" transform="scale(1 1) rotate(0) translate(4 136)">
<title>track.cpp</title>
<polygon fill="white" stroke="none" points="-4,4 -4,-136 280.5,-136 280.5,4 -4,4"/>
<!-- Node1 -->
<g id="node1" class="node"><title>Node1</title>
<polygon fill="#bfbfbf" stroke="black" points="106,-112.5 106,-131.5 163,-131.5 163,-112.5 106,-112.5"/>
<text text-anchor="middle" x="134.5" y="-119.5" font-family="Helvetica,sans-Serif" font-size="10.00">track.cpp</text>
</g>
<!-- Node2 -->
<g id="node2" class="node"><title>Node2</title>
<g id="a_node2"><a xlink:href="$track_8h_source.html" xlink:title="track.h">
<polygon fill="white" stroke="black" points="0,-56.5 0,-75.5 47,-75.5 47,-56.5 0,-56.5"/>
<text text-anchor="middle" x="23.5" y="-63.5" font-family="Helvetica,sans-Serif" font-size="10.00">track.h</text>
</a>
</g>
</g>
<!-- Node1&#45;&gt;Node2 -->
<g id="edge1" class="edge"><title>Node1&#45;&gt;Node2</title>
<path fill="none" stroke="midnightblue" d="M116.666,-112.324C98.7841,-103.625 71.0249,-90.1202 50.4544,-80.113"/>
<polygon fill="midnightblue" stroke="midnightblue" points="51.8133,-76.8819 41.2898,-75.6545 48.751,-83.1765 51.8133,-76.8819"/>
</g>
<!-- Node7 -->
<g id="node7" class="node"><title>Node7</title>
<g id="a_node7"><a xlink:href="$sector_8h.html" xlink:title="sector.h">
<polygon fill="white" stroke="black" points="224.5,-56.5 224.5,-75.5 276.5,-75.5 276.5,-56.5 224.5,-56.5"/>
<text text-anchor="middle" x="250.5" y="-63.5" font-family="Helvetica,sans-Serif" font-size="10.00">sector.h</text>
</a>
</g>
</g>
<!-- Node1&#45;&gt;Node7 -->
<g id="edge6" class="edge"><title>Node1&#45;&gt;Node7</title>
<path fill="none" stroke="midnightblue" d="M152.881,-112.444C171.716,-103.675 201.231,-89.9355 222.879,-79.8579"/>
<polygon fill="midnightblue" stroke="midnightblue" points="224.617,-82.9098 232.205,-75.5164 221.662,-76.5637 224.617,-82.9098"/>
</g>
<!-- Node8 -->
<g id="node8" class="node"><title>Node8</title>
<g id="a_node8"><a xlink:href="$h17disk_8h.html" xlink:title="h17disk.h">
<polygon fill="white" stroke="black" points="65,-56.5 65,-75.5 124,-75.5 124,-56.5 65,-56.5"/>
<text text-anchor="middle" x="94.5" y="-63.5" font-family="Helvetica,sans-Serif" font-size="10.00">h17disk.h</text>
</a>
</g>
</g>
<!-- Node1&#45;&gt;Node8 -->
<g id="edge10" class="edge"><title>Node1&#45;&gt;Node8</title>
<path fill="none" stroke="midnightblue" d="M127.895,-112.083C122.245,-104.455 113.955,-93.2645 107.049,-83.9408"/>
<polygon fill="midnightblue" stroke="midnightblue" points="109.747,-81.7034 100.982,-75.7511 104.122,-85.87 109.747,-81.7034"/>
</g>
<!-- Node9 -->
<g id="node9" class="node"><title>Node9</title>
<g id="a_node9"><a xlink:href="$h17block_8h.html" xlink:title="h17block.h">
<polygon fill="white" stroke="black" points="142.5,-56.5 142.5,-75.5 206.5,-75.5 206.5,-56.5 142.5,-56.5"/>
<text text-anchor="middle" x="174.5" y="-63.5" font-family="Helvetica,sans-Serif" font-size="10.00">h17block.h</text>
</a>
</g>
</g>
<!-- Node1&#45;&gt;Node9 -->
<g id="edge15" class="edge"><title>Node1&#45;&gt;Node9</title>
<path fill="none" stroke="midnightblue" d="M141.105,-112.083C146.755,-104.455 155.045,-93.2645 161.951,-83.9408"/>
<polygon fill="midnightblue" stroke="midnightblue" points="164.878,-85.87 168.018,-75.7511 159.253,-81.7034 164.878,-85.87"/>
</g>
<!-- Node3 -->
<g id="node3" class="node"><title>Node3</title>
<polygon fill="white" stroke="#bfbfbf" points="5.5,-0.5 5.5,-19.5 49.5,-19.5 49.5,-0.5 5.5,-0.5"/>
<text text-anchor="middle" x="27.5" y="-7.5" font-family="Helvetica,sans-Serif" font-size="10.00">vector</text>
</g>
<!-- Node2&#45;&gt;Node3 -->
<g id="edge2" class="edge"><title>Node2&#45;&gt;Node3</title>
<path fill="none" stroke="midnightblue" d="M24.1605,-56.083C24.6848,-49.0059 25.4362,-38.8611 26.0936,-29.9865"/>
<polygon fill="midnightblue" stroke="midnightblue" points="29.6034,-29.9823 26.8518,-19.7511 22.6225,-29.4652 29.6034,-29.9823"/>
</g>
<!-- Node4 -->
<g id="node4" class="node"><title>Node4</title>
<polygon fill="white" stroke="#bfbfbf" points="67.5,-0.5 67.5,-19.5 121.5,-19.5 121.5,-0.5 67.5,-0.5"/>
<text text-anchor="middle" x="94.5" y="-7.5" font-family="Helvetica,sans-Serif" font-size="10.00">iostream</text>
</g>
<!-- Node2&#45;&gt;Node4 -->
<g id="edge3" class="edge"><title>Node2&#45;&gt;Node4</title>
<path fill="none" stroke="midnightblue" d="M34.9074,-56.324C45.6088,-48.1849 61.8407,-35.8395 74.6628,-26.0874"/>
<polygon fill="midnightblue" stroke="midnightblue" points="77.0444,-28.6734 82.8851,-19.8339 72.8068,-23.1018 77.0444,-28.6734"/>
</g>
<!-- Node5 -->
<g id="node5" class="node"><title>Node5</title>
<polygon fill="white" stroke="#bfbfbf" points="139.5,-0.5 139.5,-19.5 189.5,-19.5 189.5,-0.5 139.5,-0.5"/>
<text text-anchor="middle" x="164.5" y="-7.5" font-family="Helvetica,sans-Serif" font-size="10.00">fstream</text>
</g>
<!-- Node2&#45;&gt;Node5 -->
<g id="edge4" class="edge"><title>Node2&#45;&gt;Node5</title>
<path fill="none" stroke="midnightblue" d="M45.8419,-56.4435C69.2529,-47.4776 106.236,-33.314 132.69,-23.1827"/>
<polygon fill="midnightblue" stroke="midnightblue" points="134.176,-26.3615 142.263,-19.5164 131.672,-19.8245 134.176,-26.3615"/>
</g>
<!-- Node6 -->
<g id="node6" class="node"><title>Node6</title>
<polygon fill="white" stroke="#bfbfbf" points="207.5,-0.5 207.5,-19.5 253.5,-19.5 253.5,-0.5 207.5,-0.5"/>
<text text-anchor="middle" x="230.5" y="-7.5" font-family="Helvetica,sans-Serif" font-size="10.00">cstdint</text>
</g>
<!-- Node2&#45;&gt;Node6 -->
<g id="edge5" class="edge"><title>Node2&#45;&gt;Node6</title>
<path fill="none" stroke="midnightblue" d="M47.2457,-58.243C50.0253,-57.4754 52.8233,-56.7132 55.5,-56 115.861,-39.9172 133.536,-37.117 197.643,-20.1711"/>
<polygon fill="midnightblue" stroke="midnightblue" points="198.683,-23.5161 207.449,-17.5649 196.885,-16.751 198.683,-23.5161"/>
</g>
<!-- Node7&#45;&gt;Node4 -->
<g id="edge7" class="edge"><title>Node7&#45;&gt;Node4</title>
<path fill="none" stroke="midnightblue" d="M225.781,-56.4435C199.652,-47.3986 158.241,-33.064 128.924,-22.9158"/>
<polygon fill="midnightblue" stroke="midnightblue" points="129.698,-19.4801 119.103,-19.5164 127.408,-26.0951 129.698,-19.4801"/>
</g>
<!-- Node7&#45;&gt;Node5 -->
<g id="edge8" class="edge"><title>Node7&#45;&gt;Node5</title>
<path fill="none" stroke="midnightblue" d="M236.683,-56.324C223.267,-47.9002 202.676,-34.9709 186.914,-25.0741"/>
<polygon fill="midnightblue" stroke="midnightblue" points="188.613,-22.0081 178.283,-19.6545 184.891,-27.9364 188.613,-22.0081"/>
</g>
<!-- Node7&#45;&gt;Node6 -->
<g id="edge9" class="edge"><title>Node7&#45;&gt;Node6</title>
<path fill="none" stroke="midnightblue" d="M247.197,-56.083C244.518,-48.8486 240.651,-38.4087 237.314,-29.3968"/>
<polygon fill="midnightblue" stroke="midnightblue" points="240.496,-27.9129 233.741,-19.7511 233.932,-30.3442 240.496,-27.9129"/>
</g>
<!-- Node8&#45;&gt;Node3 -->
<g id="edge13" class="edge"><title>Node8&#45;&gt;Node3</title>
<path fill="none" stroke="midnightblue" d="M83.7353,-56.324C73.7339,-48.2631 58.6135,-36.0765 46.5695,-26.3695"/>
<polygon fill="midnightblue" stroke="midnightblue" points="48.4429,-23.3841 38.4606,-19.8339 44.0502,-28.8343 48.4429,-23.3841"/>
</g>
<!-- Node8&#45;&gt;Node4 -->
<g id="edge11" class="edge"><title>Node8&#45;&gt;Node4</title>
<path fill="none" stroke="midnightblue" d="M94.5,-56.083C94.5,-49.0059 94.5,-38.8611 94.5,-29.9865"/>
<polygon fill="midnightblue" stroke="midnightblue" points="98.0001,-29.751 94.5,-19.7511 91.0001,-29.7511 98.0001,-29.751"/>
</g>
<!-- Node8&#45;&gt;Node5 -->
<g id="edge12" class="edge"><title>Node8&#45;&gt;Node5</title>
<path fill="none" stroke="midnightblue" d="M105.747,-56.324C116.297,-48.1849 132.301,-35.8395 144.942,-26.0874"/>
<polygon fill="midnightblue" stroke="midnightblue" points="147.269,-28.7132 153.049,-19.8339 142.993,-23.1707 147.269,-28.7132"/>
</g>
<!-- Node8&#45;&gt;Node6 -->
<g id="edge14" class="edge"><title>Node8&#45;&gt;Node6</title>
<path fill="none" stroke="midnightblue" d="M116.05,-56.4435C138.531,-47.5171 173.988,-33.4387 199.48,-23.3168"/>
<polygon fill="midnightblue" stroke="midnightblue" points="201.049,-26.4598 209.051,-19.5164 198.465,-19.9539 201.049,-26.4598"/>
</g>
<!-- Node9&#45;&gt;Node3 -->
<g id="edge19" class="edge"><title>Node9&#45;&gt;Node3</title>
<path fill="none" stroke="midnightblue" d="M151.207,-56.4435C126.404,-47.3322 86.9891,-32.8531 59.3306,-22.6929"/>
<polygon fill="midnightblue" stroke="midnightblue" points="60.3149,-19.3258 49.7214,-19.1629 57.9012,-25.8965 60.3149,-19.3258"/>
</g>
<!-- Node9&#45;&gt;Node4 -->
<g id="edge16" class="edge"><title>Node9&#45;&gt;Node4</title>
<path fill="none" stroke="midnightblue" d="M161.647,-56.324C149.284,-47.979 130.37,-35.2122 115.763,-25.3524"/>
<polygon fill="midnightblue" stroke="midnightblue" points="117.568,-22.3483 107.321,-19.6545 113.652,-28.1503 117.568,-22.3483"/>
</g>
<!-- Node9&#45;&gt;Node5 -->
<g id="edge17" class="edge"><title>Node9&#45;&gt;Node5</title>
<path fill="none" stroke="midnightblue" d="M172.849,-56.083C171.524,-48.9272 169.618,-38.6353 167.961,-29.6911"/>
<polygon fill="midnightblue" stroke="midnightblue" points="171.383,-28.9466 166.121,-19.7511 164.5,-30.2212 171.383,-28.9466"/>
</g>
<!-- Node9&#45;&gt;Node6 -->
<g id="edge18" class="edge"><title>Node9&#45;&gt;Node6</title>
<path fill="none" stroke="midnightblue" d="M183.497,-56.324C191.694,-48.4196 204.006,-36.5482 213.972,-26.9377"/>
<polygon fill="midnightblue" stroke="midnightblue" points="216.57,-29.2947 221.339,-19.8339 211.711,-24.2558 216.57,-29.2947"/>
</g>
</g>
</svg>
