<?xml version="1.0" encoding="UTF-8" standalone="no"?>
<!DOCTYPE svg PUBLIC "-//W3C//DTD SVG 1.1//EN"
 "http://www.w3.org/Graphics/SVG/1.1/DTD/svg11.dtd">
<!-- Generated by graphviz version 2.38.0 (20140413.2041)
 -->
<!-- Title: H17Disk::decodeFile Pages: 1 -->
<svg width="1490pt" height="489pt"
 viewBox="0.00 0.00 1490.00 488.50" xmlns="http://www.w3.org/2000/svg" xmlns:xlink="http://www.w3.org/1999/xlink">
<g id="graph0" class="graph" transform="scale(1 1) rotate(0) translate(4 484.5)">
<title>H17Disk::decodeFile</title>
<polygon fill="white" stroke="none" points="-4,4 -4,-484.5 1486,-484.5 1486,4 -4,4"/>
<!-- Node1 -->
<g id="node1" class="node"><title>Node1</title>
<polygon fill="#bfbfbf" stroke="black" points="0,-323.5 0,-342.5 108,-342.5 108,-323.5 0,-323.5"/>
<text text-anchor="middle" x="54" y="-330.5" font-family="Helvetica,sans-Serif" font-size="10.00">H17Disk::decodeFile</text>
</g>
<!-- Node2 -->
<g id="node2" class="node"><title>Node2</title>
<g id="a_node2"><a xlink:href="classH17Disk.html#a2d9e6faca3284d426af174b18554d4a9" target="_top" xlink:title="H17Disk::openForRead">
<polygon fill="white" stroke="black" points="144,-342.5 144,-361.5 263,-361.5 263,-342.5 144,-342.5"/>
<text text-anchor="middle" x="203.5" y="-349.5" font-family="Helvetica,sans-Serif" font-size="10.00">H17Disk::openForRead</text>
</a>
</g>
</g>
<!-- Node1&#45;&gt;Node2 -->
<g id="edge1" class="edge"><title>Node1&#45;&gt;Node2</title>
<path fill="none" stroke="midnightblue" d="M108.251,-339.859C116.554,-340.929 125.234,-342.047 133.822,-343.153"/>
<polygon fill="midnightblue" stroke="midnightblue" points="133.468,-346.637 143.833,-344.443 134.362,-339.694 133.468,-346.637"/>
</g>
<!-- Node3 -->
<g id="node3" class="node"><title>Node3</title>
<g id="a_node3"><a xlink:href="classH17Disk.html#ada058d8b970b4e72569e2fe000817f75" target="_top" xlink:title="H17Disk::decodeBuffer">
<polygon fill="white" stroke="black" points="144,-304.5 144,-323.5 263,-323.5 263,-304.5 144,-304.5"/>
<text text-anchor="middle" x="203.5" y="-311.5" font-family="Helvetica,sans-Serif" font-size="10.00">H17Disk::decodeBuffer</text>
</a>
</g>
</g>
<!-- Node1&#45;&gt;Node3 -->
<g id="edge2" class="edge"><title>Node1&#45;&gt;Node3</title>
<path fill="none" stroke="midnightblue" d="M108.251,-326.141C116.554,-325.071 125.234,-323.953 133.822,-322.847"/>
<polygon fill="midnightblue" stroke="midnightblue" points="134.362,-326.306 143.833,-321.557 133.468,-319.363 134.362,-326.306"/>
</g>
<!-- Node4 -->
<g id="node4" class="node"><title>Node4</title>
<g id="a_node4"><a xlink:href="classH17Disk.html#ad9402e7823ac0a2741dc316cae361ecd" target="_top" xlink:title="H17Disk::validateHeader">
<polygon fill="white" stroke="black" points="299,-323.5 299,-342.5 425,-342.5 425,-323.5 299,-323.5"/>
<text text-anchor="middle" x="362" y="-330.5" font-family="Helvetica,sans-Serif" font-size="10.00">H17Disk::validateHeader</text>
</a>
</g>
</g>
<!-- Node3&#45;&gt;Node4 -->
<g id="edge3" class="edge"><title>Node3&#45;&gt;Node4</title>
<path fill="none" stroke="midnightblue" d="M263.22,-321.129C271.574,-322.143 280.244,-323.196 288.817,-324.237"/>
<polygon fill="midnightblue" stroke="midnightblue" points="288.463,-327.719 298.812,-325.45 289.306,-320.77 288.463,-327.719"/>
</g>
<!-- Node5 -->
<g id="node5" class="node"><title>Node5</title>
<g id="a_node5"><a xlink:href="classH17Disk.html#a29f4d35fba24f0d9cee37bcb02120a6c" target="_top" xlink:title="H17Disk::validateBlock">
<polygon fill="white" stroke="black" points="302.5,-285.5 302.5,-304.5 421.5,-304.5 421.5,-285.5 302.5,-285.5"/>
<text text-anchor="middle" x="362" y="-292.5" font-family="Helvetica,sans-Serif" font-size="10.00">H17Disk::validateBlock</text>
</a>
</g>
</g>
<!-- Node3&#45;&gt;Node5 -->
<g id="edge4" class="edge"><title>Node3&#45;&gt;Node5</title>
<path fill="none" stroke="midnightblue" d="M263.22,-306.871C272.747,-305.714 282.687,-304.508 292.424,-303.326"/>
<polygon fill="midnightblue" stroke="midnightblue" points="292.966,-306.786 302.471,-302.106 292.122,-299.837 292.966,-306.786"/>
</g>
<!-- Node6 -->
<g id="node6" class="node"><title>Node6</title>
<g id="a_node6"><a xlink:href="classH17Disk.html#aaf268125dfe0bb84c288aff63f5e865d" target="_top" xlink:title="H17Disk::validateDiskFormat\lBlock">
<polygon fill="white" stroke="black" points="462.5,-450 462.5,-480 608.5,-480 608.5,-450 462.5,-450"/>
<text text-anchor="start" x="470.5" y="-468" font-family="Helvetica,sans-Serif" font-size="10.00">H17Disk::validateDiskFormat</text>
<text text-anchor="middle" x="535.5" y="-457" font-family="Helvetica,sans-Serif" font-size="10.00">Block</text>
</a>
</g>
</g>
<!-- Node5&#45;&gt;Node6 -->
<g id="edge5" class="edge"><title>Node5&#45;&gt;Node6</title>
<path fill="none" stroke="midnightblue" d="M411.783,-304.607C416.671,-307.064 421.216,-310.143 425,-314 465.788,-355.573 420.851,-397.81 461,-440 462.394,-441.465 463.876,-442.843 465.433,-444.141"/>
<polygon fill="midnightblue" stroke="midnightblue" points="463.563,-447.105 473.76,-449.982 467.583,-441.374 463.563,-447.105"/>
</g>
<!-- Node7 -->
<g id="node7" class="node"><title>Node7</title>
<g id="a_node7"><a xlink:href="classH17Disk.html#a676a126b40c2697cbdeb32648a69c15d" target="_top" xlink:title="H17Disk::validateFlagsBlock">
<polygon fill="white" stroke="black" points="464,-411.5 464,-430.5 607,-430.5 607,-411.5 464,-411.5"/>
<text text-anchor="middle" x="535.5" y="-418.5" font-family="Helvetica,sans-Serif" font-size="10.00">H17Disk::validateFlagsBlock</text>
</a>
</g>
</g>
<!-- Node5&#45;&gt;Node7 -->
<g id="edge6" class="edge"><title>Node5&#45;&gt;Node7</title>
<path fill="none" stroke="midnightblue" d="M410.441,-304.591C415.748,-307.046 420.76,-310.129 425,-314 456.208,-342.491 429.167,-374.209 461,-402 462.775,-403.549 464.66,-404.975 466.632,-406.287"/>
<polygon fill="midnightblue" stroke="midnightblue" points="465.311,-409.556 475.755,-411.338 468.702,-403.432 465.311,-409.556"/>
</g>
<!-- Node8 -->
<g id="node8" class="node"><title>Node8</title>
<g id="a_node8"><a xlink:href="classH17Disk.html#a80cc18809c189366f4c8ecf494286129" target="_top" xlink:title="H17Disk::validateLabelBlock">
<polygon fill="white" stroke="black" points="464,-373.5 464,-392.5 607,-392.5 607,-373.5 464,-373.5"/>
<text text-anchor="middle" x="535.5" y="-380.5" font-family="Helvetica,sans-Serif" font-size="10.00">H17Disk::validateLabelBlock</text>
</a>
</g>
</g>
<!-- Node5&#45;&gt;Node8 -->
<g id="edge7" class="edge"><title>Node5&#45;&gt;Node8</title>
<path fill="none" stroke="midnightblue" d="M407.049,-304.561C413.399,-307.034 419.602,-310.129 425,-314 447.253,-329.957 438.398,-348.541 461,-364 463.917,-365.995 467.029,-367.78 470.264,-369.379"/>
<polygon fill="midnightblue" stroke="midnightblue" points="469.073,-372.676 479.642,-373.404 471.834,-366.244 469.073,-372.676"/>
</g>
<!-- Node9 -->
<g id="node9" class="node"><title>Node9</title>
<g id="a_node9"><a xlink:href="classH17Disk.html#a0f8be0fb5d8f55eb6843b6668f60facd" target="_top" xlink:title="H17Disk::validateComment\lBlock">
<polygon fill="white" stroke="black" points="467,-324 467,-354 604,-354 604,-324 467,-324"/>
<text text-anchor="start" x="475" y="-342" font-family="Helvetica,sans-Serif" font-size="10.00">H17Disk::validateComment</text>
<text text-anchor="middle" x="535.5" y="-331" font-family="Helvetica,sans-Serif" font-size="10.00">Block</text>
</a>
</g>
</g>
<!-- Node5&#45;&gt;Node9 -->
<g id="edge8" class="edge"><title>Node5&#45;&gt;Node9</title>
<path fill="none" stroke="midnightblue" d="M400.213,-304.547C419.436,-309.479 443.51,-315.656 465.947,-321.412"/>
<polygon fill="midnightblue" stroke="midnightblue" points="465.223,-324.84 475.779,-323.935 466.963,-318.059 465.223,-324.84"/>
</g>
<!-- Node10 -->
<g id="node10" class="node"><title>Node10</title>
<g id="a_node10"><a xlink:href="classH17Disk.html#a08c7c7f0cad0cc24224fc73227b9648e" target="_top" xlink:title="H17Disk::validateDateBlock">
<polygon fill="white" stroke="black" points="465.5,-285.5 465.5,-304.5 605.5,-304.5 605.5,-285.5 465.5,-285.5"/>
<text text-anchor="middle" x="535.5" y="-292.5" font-family="Helvetica,sans-Serif" font-size="10.00">H17Disk::validateDateBlock</text>
</a>
</g>
</g>
<!-- Node5&#45;&gt;Node10 -->
<g id="edge9" class="edge"><title>Node5&#45;&gt;Node10</title>
<path fill="none" stroke="midnightblue" d="M421.541,-295C432.313,-295 443.725,-295 454.992,-295"/>
<polygon fill="midnightblue" stroke="midnightblue" points="455.276,-298.5 465.276,-295 455.276,-291.5 455.276,-298.5"/>
</g>
<!-- Node11 -->
<g id="node11" class="node"><title>Node11</title>
<g id="a_node11"><a xlink:href="classH17Disk.html#a592a6390ad6a382cae246886993954a7" target="_top" xlink:title="H17Disk::validateImagerBlock">
<polygon fill="white" stroke="black" points="461,-247.5 461,-266.5 610,-266.5 610,-247.5 461,-247.5"/>
<text text-anchor="middle" x="535.5" y="-254.5" font-family="Helvetica,sans-Serif" font-size="10.00">H17Disk::validateImagerBlock</text>
</a>
</g>
</g>
<!-- Node5&#45;&gt;Node11 -->
<g id="edge10" class="edge"><title>Node5&#45;&gt;Node11</title>
<path fill="none" stroke="midnightblue" d="M406.277,-285.411C429.112,-280.351 457.323,-274.1 481.465,-268.751"/>
<polygon fill="midnightblue" stroke="midnightblue" points="482.528,-272.101 491.535,-266.52 481.014,-265.266 482.528,-272.101"/>
</g>
<!-- Node12 -->
<g id="node12" class="node"><title>Node12</title>
<g id="a_node12"><a xlink:href="classH17Disk.html#adc15505d580fdb29e57c67293d5b3cda" target="_top" xlink:title="H17Disk::validateProgram\lBlock">
<polygon fill="white" stroke="black" points="470,-198 470,-228 601,-228 601,-198 470,-198"/>
<text text-anchor="start" x="478" y="-216" font-family="Helvetica,sans-Serif" font-size="10.00">H17Disk::validateProgram</text>
<text text-anchor="middle" x="535.5" y="-205" font-family="Helvetica,sans-Serif" font-size="10.00">Block</text>
</a>
</g>
</g>
<!-- Node5&#45;&gt;Node12 -->
<g id="edge11" class="edge"><title>Node5&#45;&gt;Node12</title>
<path fill="none" stroke="midnightblue" d="M377.452,-285.36C396.151,-273.182 430.011,-252.112 461,-238 465.907,-235.766 471.074,-233.619 476.302,-231.588"/>
<polygon fill="midnightblue" stroke="midnightblue" points="477.592,-234.842 485.732,-228.061 475.14,-228.285 477.592,-234.842"/>
</g>
<!-- Node13 -->
<g id="node13" class="node"><title>Node13</title>
<g id="a_node13"><a xlink:href="classH17Disk.html#a593434e6ce0538943cb044b7d0c9c273" target="_top" xlink:title="H17Disk::validateDataBlock">
<polygon fill="white" stroke="black" points="465.5,-159.5 465.5,-178.5 605.5,-178.5 605.5,-159.5 465.5,-159.5"/>
<text text-anchor="middle" x="535.5" y="-166.5" font-family="Helvetica,sans-Serif" font-size="10.00">H17Disk::validateDataBlock</text>
</a>
</g>
</g>
<!-- Node5&#45;&gt;Node13 -->
<g id="edge12" class="edge"><title>Node5&#45;&gt;Node13</title>
<path fill="none" stroke="midnightblue" d="M369.069,-285.421C382.792,-264.568 418.354,-214.862 461,-189 465.341,-186.367 470.033,-184.075 474.873,-182.079"/>
<polygon fill="midnightblue" stroke="midnightblue" points="476.14,-185.342 484.31,-178.596 473.717,-178.775 476.14,-185.342"/>
</g>
<!-- Node18 -->
<g id="node18" class="node"><title>Node18</title>
<g id="a_node18"><a xlink:href="classH17Disk.html#ae1f57f11daa4d4c624d255851838d704" target="_top" xlink:title="H17Disk::validateRawData\lBlock">
<polygon fill="white" stroke="black" points="467.5,-106 467.5,-136 603.5,-136 603.5,-106 467.5,-106"/>
<text text-anchor="start" x="475.5" y="-124" font-family="Helvetica,sans-Serif" font-size="10.00">H17Disk::validateRawData</text>
<text text-anchor="middle" x="535.5" y="-113" font-family="Helvetica,sans-Serif" font-size="10.00">Block</text>
</a>
</g>
</g>
<!-- Node5&#45;&gt;Node18 -->
<g id="edge17" class="edge"><title>Node5&#45;&gt;Node18</title>
<path fill="none" stroke="midnightblue" d="M367.005,-285.423C378.145,-259.871 411.942,-189.358 461,-150 465.347,-146.513 470.165,-143.402 475.195,-140.636"/>
<polygon fill="midnightblue" stroke="midnightblue" points="477.044,-143.625 484.424,-136.023 473.914,-137.364 477.044,-143.625"/>
</g>
<!-- Node14 -->
<g id="node14" class="node"><title>Node14</title>
<g id="a_node14"><a xlink:href="classH17Disk.html#a532c7c77626521afd001ed4a32610912" target="_top" xlink:title="H17Disk::validateTrackBlock">
<polygon fill="white" stroke="black" points="646,-163.5 646,-182.5 790,-182.5 790,-163.5 646,-163.5"/>
<text text-anchor="middle" x="718" y="-170.5" font-family="Helvetica,sans-Serif" font-size="10.00">H17Disk::validateTrackBlock</text>
</a>
</g>
</g>
<!-- Node13&#45;&gt;Node14 -->
<g id="edge13" class="edge"><title>Node13&#45;&gt;Node14</title>
<path fill="none" stroke="midnightblue" d="M605.512,-170.529C615.439,-170.749 625.73,-170.977 635.866,-171.202"/>
<polygon fill="midnightblue" stroke="midnightblue" points="635.856,-174.703 645.931,-171.425 636.011,-167.704 635.856,-174.703"/>
</g>
<!-- Node15 -->
<g id="node15" class="node"><title>Node15</title>
<g id="a_node15"><a xlink:href="classH17Disk.html#a11e3a3c52730f4502a61f69035d7ab38" target="_top" xlink:title="H17Disk::validateSectorBlock">
<polygon fill="white" stroke="black" points="826,-171.5 826,-190.5 974,-190.5 974,-171.5 826,-171.5"/>
<text text-anchor="middle" x="900" y="-178.5" font-family="Helvetica,sans-Serif" font-size="10.00">H17Disk::validateSectorBlock</text>
</a>
</g>
</g>
<!-- Node14&#45;&gt;Node15 -->
<g id="edge14" class="edge"><title>Node14&#45;&gt;Node15</title>
<path fill="none" stroke="midnightblue" d="M790.141,-176.162C798.454,-176.531 806.993,-176.911 815.455,-177.287"/>
<polygon fill="midnightblue" stroke="midnightblue" points="815.573,-180.795 825.718,-177.743 815.883,-173.802 815.573,-180.795"/>
</g>
<!-- Node16 -->
<g id="node16" class="node"><title>Node16</title>
<g id="a_node16"><a xlink:href="classH17Disk.html#a63841bed6a8d9e91a221dc5f72672710" target="_top" xlink:title="H17Disk::dumpSectorHeader">
<polygon fill="white" stroke="black" points="1010,-209.5 1010,-228.5 1155,-228.5 1155,-209.5 1010,-209.5"/>
<text text-anchor="middle" x="1082.5" y="-216.5" font-family="Helvetica,sans-Serif" font-size="10.00">H17Disk::dumpSectorHeader</text>
</a>
</g>
</g>
<!-- Node15&#45;&gt;Node16 -->
<g id="edge15" class="edge"><title>Node15&#45;&gt;Node16</title>
<path fill="none" stroke="midnightblue" d="M946.548,-190.589C970.796,-195.694 1000.8,-202.011 1026.36,-207.392"/>
<polygon fill="midnightblue" stroke="midnightblue" points="1025.77,-210.845 1036.28,-209.48 1027.22,-203.995 1025.77,-210.845"/>
</g>
<!-- Node17 -->
<g id="node17" class="node"><title>Node17</title>
<g id="a_node17"><a xlink:href="classH17Disk.html#a8748c1a43e28a7bb8cea81e837964c54" target="_top" xlink:title="H17Disk::dumpSectorData">
<polygon fill="white" stroke="black" points="1015.5,-171.5 1015.5,-190.5 1149.5,-190.5 1149.5,-171.5 1015.5,-171.5"/>
<text text-anchor="middle" x="1082.5" y="-178.5" font-family="Helvetica,sans-Serif" font-size="10.00">H17Disk::dumpSectorData</text>
</a>
</g>
</g>
<!-- Node15&#45;&gt;Node17 -->
<g id="edge16" class="edge"><title>Node15&#45;&gt;Node17</title>
<path fill="none" stroke="midnightblue" d="M974.156,-181C984.344,-181 994.833,-181 1005.08,-181"/>
<polygon fill="midnightblue" stroke="midnightblue" points="1005.22,-184.5 1015.22,-181 1005.22,-177.5 1005.22,-184.5"/>
</g>
<!-- Node19 -->
<g id="node19" class="node"><title>Node19</title>
<g id="a_node19"><a xlink:href="classH17Disk.html#a8f0fa7dbd52e633a2faa267e453cc486" target="_top" xlink:title="H17Disk::validateRawTrack\lBlock">
<polygon fill="white" stroke="black" points="648,-98 648,-128 788,-128 788,-98 648,-98"/>
<text text-anchor="start" x="656" y="-116" font-family="Helvetica,sans-Serif" font-size="10.00">H17Disk::validateRawTrack</text>
<text text-anchor="middle" x="718" y="-105" font-family="Helvetica,sans-Serif" font-size="10.00">Block</text>
</a>
</g>
</g>
<!-- Node18&#45;&gt;Node19 -->
<g id="edge18" class="edge"><title>Node18&#45;&gt;Node19</title>
<path fill="none" stroke="midnightblue" d="M603.712,-118.021C614.762,-117.531 626.307,-117.02 637.62,-116.518"/>
<polygon fill="midnightblue" stroke="midnightblue" points="638.088,-120.001 647.924,-116.062 637.778,-113.008 638.088,-120.001"/>
</g>
<!-- Node20 -->
<g id="node20" class="node"><title>Node20</title>
<g id="a_node20"><a xlink:href="classH17Disk.html#a60b9074cacd5a89f4b8e8dfb37bccf08" target="_top" xlink:title="H17Disk::validateRawSector\lBlock">
<polygon fill="white" stroke="black" points="828.5,-90 828.5,-120 971.5,-120 971.5,-90 828.5,-90"/>
<text text-anchor="start" x="836.5" y="-108" font-family="Helvetica,sans-Serif" font-size="10.00">H17Disk::validateRawSector</text>
<text text-anchor="middle" x="900" y="-97" font-family="Helvetica,sans-Serif" font-size="10.00">Block</text>
</a>
</g>
</g>
<!-- Node19&#45;&gt;Node20 -->
<g id="edge19" class="edge"><title>Node19&#45;&gt;Node20</title>
<path fill="none" stroke="midnightblue" d="M788.078,-109.93C797.967,-109.49 808.214,-109.035 818.302,-108.587"/>
<polygon fill="midnightblue" stroke="midnightblue" points="818.485,-112.082 828.319,-108.141 818.174,-105.089 818.485,-112.082"/>
</g>
<!-- Node21 -->
<g id="node21" class="node"><title>Node21</title>
<g id="a_node21"><a xlink:href="h17disk_8cpp.html#a9b9796dca95ff7965faf38fc4e6e00ba" target="_top" xlink:title="printBinary">
<polygon fill="white" stroke="black" points="1051,-133.5 1051,-152.5 1114,-152.5 1114,-133.5 1051,-133.5"/>
<text text-anchor="middle" x="1082.5" y="-140.5" font-family="Helvetica,sans-Serif" font-size="10.00">printBinary</text>
</a>
</g>
</g>
<!-- Node20&#45;&gt;Node21 -->
<g id="edge20" class="edge"><title>Node20&#45;&gt;Node21</title>
<path fill="none" stroke="midnightblue" d="M971.562,-119.855C995.076,-124.806 1020.47,-130.151 1040.92,-134.456"/>
<polygon fill="midnightblue" stroke="midnightblue" points="1040.32,-137.907 1050.82,-136.542 1041.76,-131.057 1040.32,-137.907"/>
</g>
<!-- Node22 -->
<g id="node22" class="node"><title>Node22</title>
<g id="a_node22"><a xlink:href="dump_8cpp.html#a7ff04c30cd9d3b0944f82794e18aa817" target="_top" xlink:title="dumpDataBlock">
<polygon fill="white" stroke="black" points="1039.5,-95.5 1039.5,-114.5 1125.5,-114.5 1125.5,-95.5 1039.5,-95.5"/>
<text text-anchor="middle" x="1082.5" y="-102.5" font-family="Helvetica,sans-Serif" font-size="10.00">dumpDataBlock</text>
</a>
</g>
</g>
<!-- Node20&#45;&gt;Node22 -->
<g id="edge21" class="edge"><title>Node20&#45;&gt;Node22</title>
<path fill="none" stroke="midnightblue" d="M971.562,-105C990.827,-105 1011.35,-105 1029.39,-105"/>
<polygon fill="midnightblue" stroke="midnightblue" points="1029.41,-108.5 1039.41,-105 1029.4,-101.5 1029.41,-108.5"/>
</g>
<!-- Node23 -->
<g id="node23" class="node"><title>Node23</title>
<g id="a_node23"><a xlink:href="classDecode.html#a287c55f9f9888c433d950c08254c1efe" target="_top" xlink:title="Decode::decodeFM">
<polygon fill="white" stroke="black" points="1031.5,-57.5 1031.5,-76.5 1133.5,-76.5 1133.5,-57.5 1031.5,-57.5"/>
<text text-anchor="middle" x="1082.5" y="-64.5" font-family="Helvetica,sans-Serif" font-size="10.00">Decode::decodeFM</text>
</a>
</g>
</g>
<!-- Node20&#45;&gt;Node23 -->
<g id="edge22" class="edge"><title>Node20&#45;&gt;Node23</title>
<path fill="none" stroke="midnightblue" d="M971.562,-90.1449C989.746,-86.3167 1009.05,-82.2525 1026.33,-78.6157"/>
<polygon fill="midnightblue" stroke="midnightblue" points="1027.17,-82.014 1036.24,-76.5289 1025.73,-75.1641 1027.17,-82.014"/>
</g>
<!-- Node24 -->
<g id="node24" class="node"><title>Node24</title>
<g id="a_node24"><a xlink:href="disk__util_8cpp.html#a6ca0336006e5d440e0adca49fe90a8bd" target="_top" xlink:title="processSector">
<polygon fill="white" stroke="black" points="1042.5,-19.5 1042.5,-38.5 1122.5,-38.5 1122.5,-19.5 1042.5,-19.5"/>
<text text-anchor="middle" x="1082.5" y="-26.5" font-family="Helvetica,sans-Serif" font-size="10.00">processSector</text>
</a>
</g>
</g>
<!-- Node20&#45;&gt;Node24 -->
<g id="edge23" class="edge"><title>Node20&#45;&gt;Node24</title>
<path fill="none" stroke="midnightblue" d="M925.801,-89.9957C947.423,-77.4157 979.945,-59.684 1010,-48 1017.24,-45.1858 1025.05,-42.641 1032.75,-40.3954"/>
<polygon fill="midnightblue" stroke="midnightblue" points="1033.71,-43.7625 1042.41,-37.7131 1031.83,-37.018 1033.71,-43.7625"/>
</g>
<!-- Node25 -->
<g id="node25" class="node"><title>Node25</title>
<g id="a_node25"><a xlink:href="disk__util_8cpp.html#a94517a9973c483e78d6d2a9b7ad721a9" target="_top" xlink:title="alignSector">
<polygon fill="white" stroke="black" points="1205,-38.5 1205,-57.5 1270,-57.5 1270,-38.5 1205,-38.5"/>
<text text-anchor="middle" x="1237.5" y="-45.5" font-family="Helvetica,sans-Serif" font-size="10.00">alignSector</text>
</a>
</g>
</g>
<!-- Node24&#45;&gt;Node25 -->
<g id="edge24" class="edge"><title>Node24&#45;&gt;Node25</title>
<path fill="none" stroke="midnightblue" d="M1122.5,-33.8437C1144.62,-36.5896 1172.28,-40.025 1194.82,-42.8239"/>
<polygon fill="midnightblue" stroke="midnightblue" points="1194.42,-46.3012 1204.78,-44.0603 1195.28,-39.3545 1194.42,-46.3012"/>
</g>
<!-- Node28 -->
<g id="node28" class="node"><title>Node28</title>
<g id="a_node28"><a xlink:href="disk__util_8cpp.html#a71c4de342bd8034b53d392ee37b5ec97" target="_top" xlink:title="updateChecksum">
<polygon fill="white" stroke="black" points="1191,-0.5 1191,-19.5 1284,-19.5 1284,-0.5 1191,-0.5"/>
<text text-anchor="middle" x="1237.5" y="-7.5" font-family="Helvetica,sans-Serif" font-size="10.00">updateChecksum</text>
</a>
</g>
</g>
<!-- Node24&#45;&gt;Node28 -->
<g id="edge27" class="edge"><title>Node24&#45;&gt;Node28</title>
<path fill="none" stroke="midnightblue" d="M1122.5,-24.1563C1140.14,-21.9662 1161.31,-19.3375 1180.59,-16.9429"/>
<polygon fill="midnightblue" stroke="midnightblue" points="1181.28,-20.3842 1190.77,-15.6784 1180.42,-13.4375 1181.28,-20.3842"/>
</g>
<!-- Node26 -->
<g id="node26" class="node"><title>Node26</title>
<g id="a_node26"><a xlink:href="disk__util_8cpp.html#a6fe02d4965ce98f778a023f33b99a653" target="_top" xlink:title="shiftByte">
<polygon fill="white" stroke="black" points="1320,-38.5 1320,-57.5 1376,-57.5 1376,-38.5 1320,-38.5"/>
<text text-anchor="middle" x="1348" y="-45.5" font-family="Helvetica,sans-Serif" font-size="10.00">shiftByte</text>
</a>
</g>
</g>
<!-- Node25&#45;&gt;Node26 -->
<g id="edge25" class="edge"><title>Node25&#45;&gt;Node26</title>
<path fill="none" stroke="midnightblue" d="M1270.17,-48C1282.49,-48 1296.69,-48 1309.51,-48"/>
<polygon fill="midnightblue" stroke="midnightblue" points="1309.88,-51.5001 1319.88,-48 1309.88,-44.5001 1309.88,-51.5001"/>
</g>
<!-- Node27 -->
<g id="node27" class="node"><title>Node27</title>
<g id="a_node27"><a xlink:href="disk__util_8cpp.html#a921b76ac624c5bb49172b4876bb4ca5c" target="_top" xlink:title="reverseChar">
<polygon fill="white" stroke="black" points="1412,-38.5 1412,-57.5 1482,-57.5 1482,-38.5 1412,-38.5"/>
<text text-anchor="middle" x="1447" y="-45.5" font-family="Helvetica,sans-Serif" font-size="10.00">reverseChar</text>
</a>
</g>
</g>
<!-- Node26&#45;&gt;Node27 -->
<g id="edge26" class="edge"><title>Node26&#45;&gt;Node27</title>
<path fill="none" stroke="midnightblue" d="M1376.02,-48C1384,-48 1392.95,-48 1401.71,-48"/>
<polygon fill="midnightblue" stroke="midnightblue" points="1401.85,-51.5001 1411.85,-48 1401.85,-44.5001 1401.85,-51.5001"/>
</g>
</g>
</svg>
