<?xml version="1.0" encoding="UTF-8" standalone="no"?>
<!DOCTYPE svg PUBLIC "-//W3C//DTD SVG 1.1//EN"
 "http://www.w3.org/Graphics/SVG/1.1/DTD/svg11.dtd">
<!-- Generated by graphviz version 2.38.0 (20140413.2041)
 -->
<!-- Title: FC5025::seek Pages: 1 -->
<svg width="366pt" height="28pt"
 viewBox="0.00 0.00 366.00 28.00" xmlns="http://www.w3.org/2000/svg" xmlns:xlink="http://www.w3.org/1999/xlink">
<g id="graph0" class="graph" transform="scale(1 1) rotate(0) translate(4 24)">
<title>FC5025::seek</title>
<polygon fill="white" stroke="none" points="-4,4 -4,-24 362,-24 362,4 -4,4"/>
<!-- Node1 -->
<g id="node1" class="node"><title>Node1</title>
<polygon fill="#bfbfbf" stroke="black" points="0,-0.5 0,-19.5 78,-19.5 78,-0.5 0,-0.5"/>
<text text-anchor="middle" x="39" y="-7.5" font-family="Helvetica,sans-Serif" font-size="10.00">FC5025::seek</text>
</g>
<!-- Node2 -->
<g id="node2" class="node"><title>Node2</title>
<g id="a_node2"><a xlink:href="classFC5025.html#ad03589bd35682da51fe0cb2e7523688d" target="_top" xlink:title="FC5025::internalSeek">
<polygon fill="white" stroke="black" points="114,-0.5 114,-19.5 225,-19.5 225,-0.5 114,-0.5"/>
<text text-anchor="middle" x="169.5" y="-7.5" font-family="Helvetica,sans-Serif" font-size="10.00">FC5025::internalSeek</text>
</a>
</g>
</g>
<!-- Node1&#45;&gt;Node2 -->
<g id="edge1" class="edge"><title>Node1&#45;&gt;Node2</title>
<path fill="none" stroke="midnightblue" d="M78.2063,-10C86.1824,-10 94.8031,-10 103.443,-10"/>
<polygon fill="midnightblue" stroke="midnightblue" points="103.557,-13.5001 113.557,-10 103.557,-6.5001 103.557,-13.5001"/>
</g>
<!-- Node3 -->
<g id="node3" class="node"><title>Node3</title>
<g id="a_node3"><a xlink:href="classFC5025.html#ac645d8e876d7121ca75db81ef99ee7f4" target="_top" xlink:title="FC5025::bulkCDB">
<polygon fill="white" stroke="black" points="261,-0.5 261,-19.5 358,-19.5 358,-0.5 261,-0.5"/>
<text text-anchor="middle" x="309.5" y="-7.5" font-family="Helvetica,sans-Serif" font-size="10.00">FC5025::bulkCDB</text>
</a>
</g>
</g>
<!-- Node2&#45;&gt;Node3 -->
<g id="edge2" class="edge"><title>Node2&#45;&gt;Node3</title>
<path fill="none" stroke="midnightblue" d="M225.041,-10C233.397,-10 242.048,-10 250.476,-10"/>
<polygon fill="midnightblue" stroke="midnightblue" points="250.61,-13.5001 260.609,-10 250.609,-6.5001 250.61,-13.5001"/>
</g>
</g>
</svg>
