<?xml version="1.0" encoding="UTF-8" standalone="no"?>
<!DOCTYPE svg PUBLIC "-//W3C//DTD SVG 1.1//EN"
 "http://www.w3.org/Graphics/SVG/1.1/DTD/svg11.dtd">
<!-- Generated by graphviz version 2.38.0 (20140413.2041)
 -->
<!-- Title: H17Block::writeToFile Pages: 1 -->
<svg width="455pt" height="104pt"
 viewBox="0.00 0.00 455.00 104.00" xmlns="http://www.w3.org/2000/svg" xmlns:xlink="http://www.w3.org/1999/xlink">
<g id="graph0" class="graph" transform="scale(1 1) rotate(0) translate(4 100)">
<title>H17Block::writeToFile</title>
<polygon fill="white" stroke="none" points="-4,4 -4,-100 451,-100 451,4 -4,4"/>
<!-- Node1 -->
<g id="node1" class="node"><title>Node1</title>
<polygon fill="#bfbfbf" stroke="black" points="0,-38.5 0,-57.5 113,-57.5 113,-38.5 0,-38.5"/>
<text text-anchor="middle" x="56.5" y="-45.5" font-family="Helvetica,sans-Serif" font-size="10.00">H17Block::writeToFile</text>
</g>
<!-- Node2 -->
<g id="node2" class="node"><title>Node2</title>
<g id="a_node2"><a xlink:href="classH17Block.html#a5c4d56a6c991c87fb9215797ce63b804" target="_top" xlink:title="H17Block::writeBlockHeader">
<polygon fill="white" stroke="black" points="149,-76.5 149,-95.5 292,-95.5 292,-76.5 149,-76.5"/>
<text text-anchor="middle" x="220.5" y="-83.5" font-family="Helvetica,sans-Serif" font-size="10.00">H17Block::writeBlockHeader</text>
</a>
</g>
</g>
<!-- Node1&#45;&gt;Node2 -->
<g id="edge1" class="edge"><title>Node1&#45;&gt;Node2</title>
<path fill="none" stroke="midnightblue" d="M98.3794,-57.589C119.853,-62.6261 146.36,-68.8438 169.097,-74.1771"/>
<polygon fill="midnightblue" stroke="midnightblue" points="168.379,-77.6037 178.915,-76.4799 169.978,-70.7887 168.379,-77.6037"/>
</g>
<!-- Node3 -->
<g id="node3" class="node"><title>Node3</title>
<g id="a_node3"><a xlink:href="classH17Block.html#aa2e87b141623b4c897c5337ea0535d1c" target="_top" xlink:title="H17Block::getDataSize">
<polygon fill="white" stroke="black" points="328,-57.5 328,-76.5 447,-76.5 447,-57.5 328,-57.5"/>
<text text-anchor="middle" x="387.5" y="-64.5" font-family="Helvetica,sans-Serif" font-size="10.00">H17Block::getDataSize</text>
</a>
</g>
</g>
<!-- Node1&#45;&gt;Node3 -->
<g id="edge4" class="edge"><title>Node1&#45;&gt;Node3</title>
<path fill="none" stroke="midnightblue" d="M113.31,-51.2231C169.721,-54.4808 256.997,-59.5211 317.666,-63.0248"/>
<polygon fill="midnightblue" stroke="midnightblue" points="317.732,-66.5343 327.917,-63.6168 318.135,-59.546 317.732,-66.5343"/>
</g>
<!-- Node4 -->
<g id="node4" class="node"><title>Node4</title>
<g id="a_node4"><a xlink:href="classH17Block.html#a6c2432cccdacdfb1a335bd924f19d942" target="_top" xlink:title="H17Block::getData">
<polygon fill="white" stroke="black" points="170.5,-0.5 170.5,-19.5 270.5,-19.5 270.5,-0.5 170.5,-0.5"/>
<text text-anchor="middle" x="220.5" y="-7.5" font-family="Helvetica,sans-Serif" font-size="10.00">H17Block::getData</text>
</a>
</g>
</g>
<!-- Node1&#45;&gt;Node4 -->
<g id="edge3" class="edge"><title>Node1&#45;&gt;Node4</title>
<path fill="none" stroke="midnightblue" d="M98.3794,-38.411C119.853,-33.3739 146.36,-27.1562 169.097,-21.8229"/>
<polygon fill="midnightblue" stroke="midnightblue" points="169.978,-25.2113 178.915,-19.5201 168.379,-18.3963 169.978,-25.2113"/>
</g>
<!-- Node2&#45;&gt;Node3 -->
<g id="edge2" class="edge"><title>Node2&#45;&gt;Node3</title>
<path fill="none" stroke="midnightblue" d="M292.432,-77.832C300.816,-76.8667 309.361,-75.8827 317.714,-74.9208"/>
<polygon fill="midnightblue" stroke="midnightblue" points="318.249,-78.3825 327.783,-73.7614 317.448,-71.4284 318.249,-78.3825"/>
</g>
</g>
</svg>
