<?xml version="1.0" encoding="UTF-8" standalone="no"?>
<!DOCTYPE svg PUBLIC "-//W3C//DTD SVG 1.1//EN"
 "http://www.w3.org/Graphics/SVG/1.1/DTD/svg11.dtd">
<!-- Generated by graphviz version 2.38.0 (20140413.2041)
 -->
<!-- Title: H17Disk::validateRawDataBlock Pages: 1 -->
<svg width="964pt" height="161pt"
 viewBox="0.00 0.00 964.00 161.00" xmlns="http://www.w3.org/2000/svg" xmlns:xlink="http://www.w3.org/1999/xlink">
<g id="graph0" class="graph" transform="scale(1 1) rotate(0) translate(4 157)">
<title>H17Disk::validateRawDataBlock</title>
<polygon fill="white" stroke="none" points="-4,4 -4,-157 960,-157 960,4 -4,4"/>
<!-- Node1 -->
<g id="node1" class="node"><title>Node1</title>
<polygon fill="#bfbfbf" stroke="black" points="0,-71 0,-101 136,-101 136,-71 0,-71"/>
<text text-anchor="start" x="8" y="-89" font-family="Helvetica,sans-Serif" font-size="10.00">H17Disk::validateRawData</text>
<text text-anchor="middle" x="68" y="-78" font-family="Helvetica,sans-Serif" font-size="10.00">Block</text>
</g>
<!-- Node2 -->
<g id="node2" class="node"><title>Node2</title>
<g id="a_node2"><a xlink:href="classH17Disk.html#a8f0fa7dbd52e633a2faa267e453cc486" target="_top" xlink:title="H17Disk::validateRawTrack\lBlock">
<polygon fill="white" stroke="black" points="172,-71 172,-101 312,-101 312,-71 172,-71"/>
<text text-anchor="start" x="180" y="-89" font-family="Helvetica,sans-Serif" font-size="10.00">H17Disk::validateRawTrack</text>
<text text-anchor="middle" x="242" y="-78" font-family="Helvetica,sans-Serif" font-size="10.00">Block</text>
</a>
</g>
</g>
<!-- Node1&#45;&gt;Node2 -->
<g id="edge1" class="edge"><title>Node1&#45;&gt;Node2</title>
<path fill="none" stroke="midnightblue" d="M136.485,-86C144.715,-86 153.183,-86 161.566,-86"/>
<polygon fill="midnightblue" stroke="midnightblue" points="161.729,-89.5001 171.729,-86 161.729,-82.5001 161.729,-89.5001"/>
</g>
<!-- Node3 -->
<g id="node3" class="node"><title>Node3</title>
<g id="a_node3"><a xlink:href="classH17Disk.html#a60b9074cacd5a89f4b8e8dfb37bccf08" target="_top" xlink:title="H17Disk::validateRawSector\lBlock">
<polygon fill="white" stroke="black" points="348,-71 348,-101 491,-101 491,-71 348,-71"/>
<text text-anchor="start" x="356" y="-89" font-family="Helvetica,sans-Serif" font-size="10.00">H17Disk::validateRawSector</text>
<text text-anchor="middle" x="419.5" y="-78" font-family="Helvetica,sans-Serif" font-size="10.00">Block</text>
</a>
</g>
</g>
<!-- Node2&#45;&gt;Node3 -->
<g id="edge2" class="edge"><title>Node2&#45;&gt;Node3</title>
<path fill="none" stroke="midnightblue" d="M312.11,-86C320.43,-86 328.984,-86 337.454,-86"/>
<polygon fill="midnightblue" stroke="midnightblue" points="337.723,-89.5001 347.723,-86 337.723,-82.5001 337.723,-89.5001"/>
</g>
<!-- Node4 -->
<g id="node4" class="node"><title>Node4</title>
<g id="a_node4"><a xlink:href="h17disk_8cpp.html#a9b9796dca95ff7965faf38fc4e6e00ba" target="_top" xlink:title="printBinary">
<polygon fill="white" stroke="black" points="546.5,-133.5 546.5,-152.5 609.5,-152.5 609.5,-133.5 546.5,-133.5"/>
<text text-anchor="middle" x="578" y="-140.5" font-family="Helvetica,sans-Serif" font-size="10.00">printBinary</text>
</a>
</g>
</g>
<!-- Node3&#45;&gt;Node4 -->
<g id="edge3" class="edge"><title>Node3&#45;&gt;Node4</title>
<path fill="none" stroke="midnightblue" d="M462.028,-101.125C486.591,-110.072 517.397,-121.292 540.937,-129.865"/>
<polygon fill="midnightblue" stroke="midnightblue" points="539.948,-133.23 550.542,-133.363 542.343,-126.652 539.948,-133.23"/>
</g>
<!-- Node5 -->
<g id="node5" class="node"><title>Node5</title>
<g id="a_node5"><a xlink:href="dump_8cpp.html#a7ff04c30cd9d3b0944f82794e18aa817" target="_top" xlink:title="dumpDataBlock">
<polygon fill="white" stroke="black" points="535,-95.5 535,-114.5 621,-114.5 621,-95.5 535,-95.5"/>
<text text-anchor="middle" x="578" y="-102.5" font-family="Helvetica,sans-Serif" font-size="10.00">dumpDataBlock</text>
</a>
</g>
</g>
<!-- Node3&#45;&gt;Node5 -->
<g id="edge4" class="edge"><title>Node3&#45;&gt;Node5</title>
<path fill="none" stroke="midnightblue" d="M491.424,-94.6105C502.701,-95.9796 514.182,-97.3736 524.921,-98.6773"/>
<polygon fill="midnightblue" stroke="midnightblue" points="524.609,-102.165 534.958,-99.8959 525.453,-95.2161 524.609,-102.165"/>
</g>
<!-- Node6 -->
<g id="node6" class="node"><title>Node6</title>
<g id="a_node6"><a xlink:href="classDecode.html#a287c55f9f9888c433d950c08254c1efe" target="_top" xlink:title="Decode::decodeFM">
<polygon fill="white" stroke="black" points="527,-57.5 527,-76.5 629,-76.5 629,-57.5 527,-57.5"/>
<text text-anchor="middle" x="578" y="-64.5" font-family="Helvetica,sans-Serif" font-size="10.00">Decode::decodeFM</text>
</a>
</g>
</g>
<!-- Node3&#45;&gt;Node6 -->
<g id="edge5" class="edge"><title>Node3&#45;&gt;Node6</title>
<path fill="none" stroke="midnightblue" d="M491.424,-77.3895C499.933,-76.3564 508.559,-75.3091 516.895,-74.2971"/>
<polygon fill="midnightblue" stroke="midnightblue" points="517.385,-77.7634 526.891,-73.0836 516.542,-70.8144 517.385,-77.7634"/>
</g>
<!-- Node7 -->
<g id="node7" class="node"><title>Node7</title>
<g id="a_node7"><a xlink:href="disk__util_8cpp.html#a6ca0336006e5d440e0adca49fe90a8bd" target="_top" xlink:title="processSector">
<polygon fill="white" stroke="black" points="538,-19.5 538,-38.5 618,-38.5 618,-19.5 538,-19.5"/>
<text text-anchor="middle" x="578" y="-26.5" font-family="Helvetica,sans-Serif" font-size="10.00">processSector</text>
</a>
</g>
</g>
<!-- Node3&#45;&gt;Node7 -->
<g id="edge6" class="edge"><title>Node3&#45;&gt;Node7</title>
<path fill="none" stroke="midnightblue" d="M462.028,-70.8747C486.591,-61.9285 517.397,-50.7083 540.937,-42.1346"/>
<polygon fill="midnightblue" stroke="midnightblue" points="542.343,-45.3475 550.542,-38.6365 539.948,-38.7702 542.343,-45.3475"/>
</g>
<!-- Node8 -->
<g id="node8" class="node"><title>Node8</title>
<g id="a_node8"><a xlink:href="disk__util_8cpp.html#a94517a9973c483e78d6d2a9b7ad721a9" target="_top" xlink:title="alignSector">
<polygon fill="white" stroke="black" points="679,-38.5 679,-57.5 744,-57.5 744,-38.5 679,-38.5"/>
<text text-anchor="middle" x="711.5" y="-45.5" font-family="Helvetica,sans-Serif" font-size="10.00">alignSector</text>
</a>
</g>
</g>
<!-- Node7&#45;&gt;Node8 -->
<g id="edge7" class="edge"><title>Node7&#45;&gt;Node8</title>
<path fill="none" stroke="midnightblue" d="M618.098,-34.6492C633.997,-36.9463 652.398,-39.6051 668.575,-41.9424"/>
<polygon fill="midnightblue" stroke="midnightblue" points="668.437,-45.4588 678.835,-43.4248 669.438,-38.5307 668.437,-45.4588"/>
</g>
<!-- Node11 -->
<g id="node11" class="node"><title>Node11</title>
<g id="a_node11"><a xlink:href="disk__util_8cpp.html#a71c4de342bd8034b53d392ee37b5ec97" target="_top" xlink:title="updateChecksum">
<polygon fill="white" stroke="black" points="665,-0.5 665,-19.5 758,-19.5 758,-0.5 665,-0.5"/>
<text text-anchor="middle" x="711.5" y="-7.5" font-family="Helvetica,sans-Serif" font-size="10.00">updateChecksum</text>
</a>
</g>
</g>
<!-- Node7&#45;&gt;Node11 -->
<g id="edge10" class="edge"><title>Node7&#45;&gt;Node11</title>
<path fill="none" stroke="midnightblue" d="M618.098,-23.3508C629.573,-21.6929 642.351,-19.8466 654.655,-18.0688"/>
<polygon fill="midnightblue" stroke="midnightblue" points="655.444,-21.4913 664.841,-16.5972 654.443,-14.5632 655.444,-21.4913"/>
</g>
<!-- Node9 -->
<g id="node9" class="node"><title>Node9</title>
<g id="a_node9"><a xlink:href="disk__util_8cpp.html#a6fe02d4965ce98f778a023f33b99a653" target="_top" xlink:title="shiftByte">
<polygon fill="white" stroke="black" points="794,-38.5 794,-57.5 850,-57.5 850,-38.5 794,-38.5"/>
<text text-anchor="middle" x="822" y="-45.5" font-family="Helvetica,sans-Serif" font-size="10.00">shiftByte</text>
</a>
</g>
</g>
<!-- Node8&#45;&gt;Node9 -->
<g id="edge8" class="edge"><title>Node8&#45;&gt;Node9</title>
<path fill="none" stroke="midnightblue" d="M744.174,-48C756.489,-48 770.692,-48 783.511,-48"/>
<polygon fill="midnightblue" stroke="midnightblue" points="783.881,-51.5001 793.881,-48 783.881,-44.5001 783.881,-51.5001"/>
</g>
<!-- Node10 -->
<g id="node10" class="node"><title>Node10</title>
<g id="a_node10"><a xlink:href="disk__util_8cpp.html#a921b76ac624c5bb49172b4876bb4ca5c" target="_top" xlink:title="reverseChar">
<polygon fill="white" stroke="black" points="886,-38.5 886,-57.5 956,-57.5 956,-38.5 886,-38.5"/>
<text text-anchor="middle" x="921" y="-45.5" font-family="Helvetica,sans-Serif" font-size="10.00">reverseChar</text>
</a>
</g>
</g>
<!-- Node9&#45;&gt;Node10 -->
<g id="edge9" class="edge"><title>Node9&#45;&gt;Node10</title>
<path fill="none" stroke="midnightblue" d="M850.02,-48C857.998,-48 866.947,-48 875.712,-48"/>
<polygon fill="midnightblue" stroke="midnightblue" points="875.846,-51.5001 885.846,-48 875.846,-44.5001 875.846,-51.5001"/>
</g>
</g>
</svg>
