<?xml version="1.0" encoding="UTF-8" standalone="no"?>
<!DOCTYPE svg PUBLIC "-//W3C//DTD SVG 1.1//EN"
 "http://www.w3.org/Graphics/SVG/1.1/DTD/svg11.dtd">
<!-- Generated by graphviz version 2.38.0 (20140413.2041)
 -->
<!-- Title: H17DiskDataBlock Pages: 1 -->
<svg width="200pt" height="296pt"
 viewBox="0.00 0.00 199.50 296.00" xmlns="http://www.w3.org/2000/svg" xmlns:xlink="http://www.w3.org/1999/xlink">
<g id="graph0" class="graph" transform="scale(1 1) rotate(0) translate(4 292)">
<title>H17DiskDataBlock</title>
<polygon fill="white" stroke="none" points="-4,4 -4,-292 195.5,-292 195.5,4 -4,4"/>
<!-- Node1 -->
<g id="node1" class="node"><title>Node1</title>
<polygon fill="#bfbfbf" stroke="black" points="13,-0.5 13,-19.5 114,-19.5 114,-0.5 13,-0.5"/>
<text text-anchor="middle" x="63.5" y="-7.5" font-family="Helvetica,sans-Serif" font-size="10.00">H17DiskDataBlock</text>
</g>
<!-- Node2 -->
<g id="node2" class="node"><title>Node2</title>
<g id="a_node2"><a xlink:href="classH17Block.html" target="_top" xlink:title="H17Block">
<polygon fill="white" stroke="black" points="0,-67.5 0,-86.5 59,-86.5 59,-67.5 0,-67.5"/>
<text text-anchor="middle" x="29.5" y="-74.5" font-family="Helvetica,sans-Serif" font-size="10.00">H17Block</text>
</a>
</g>
</g>
<!-- Node2&#45;&gt;Node1 -->
<g id="edge1" class="edge"><title>Node2&#45;&gt;Node1</title>
<path fill="none" stroke="midnightblue" d="M38.8299,-58.1635C45.3868,-45.6281 53.87,-29.4104 58.9873,-19.6273"/>
<polygon fill="midnightblue" stroke="midnightblue" points="35.6191,-56.7506 34.0854,-67.2338 41.8218,-59.9951 35.6191,-56.7506"/>
</g>
<!-- Node3 -->
<g id="node3" class="node"><title>Node3</title>
<polygon fill="white" stroke="#bfbfbf" points="77,-67.5 77,-86.5 190,-86.5 190,-67.5 77,-67.5"/>
<text text-anchor="middle" x="133.5" y="-74.5" font-family="Helvetica,sans-Serif" font-size="10.00">std::vector&lt; Track * &gt;</text>
</g>
<!-- Node3&#45;&gt;Node1 -->
<g id="edge2" class="edge"><title>Node3&#45;&gt;Node1</title>
<path fill="none" stroke="#9a32cd" stroke-dasharray="5,2" d="M116.653,-60.3564C102.891,-47.5777 83.9524,-29.9915 72.7909,-19.6273"/>
<polygon fill="#9a32cd" stroke="#9a32cd" points="114.35,-62.9941 124.059,-67.2338 119.113,-57.8645 114.35,-62.9941"/>
<text text-anchor="middle" x="124.5" y="-41" font-family="Helvetica,sans-Serif" font-size="10.00"> tracks_m</text>
</g>
<!-- Node4 -->
<g id="node4" class="node"><title>Node4</title>
<g id="a_node4"><a xlink:href="classTrack.html" target="_top" xlink:title="Track">
<polygon fill="white" stroke="black" points="113,-134.5 113,-153.5 154,-153.5 154,-134.5 113,-134.5"/>
<text text-anchor="middle" x="133.5" y="-141.5" font-family="Helvetica,sans-Serif" font-size="10.00">Track</text>
</a>
</g>
</g>
<!-- Node4&#45;&gt;Node3 -->
<g id="edge3" class="edge"><title>Node4&#45;&gt;Node3</title>
<path fill="none" stroke="#9a32cd" stroke-dasharray="5,2" d="M133.5,-124.037C133.5,-111.67 133.5,-96.1198 133.5,-86.6273"/>
<polygon fill="#9a32cd" stroke="#9a32cd" points="130,-124.234 133.5,-134.234 137,-124.234 130,-124.234"/>
<text text-anchor="middle" x="155" y="-108" font-family="Helvetica,sans-Serif" font-size="10.00"> elements</text>
</g>
<!-- Node5 -->
<g id="node5" class="node"><title>Node5</title>
<polygon fill="white" stroke="#bfbfbf" points="75.5,-201.5 75.5,-220.5 191.5,-220.5 191.5,-201.5 75.5,-201.5"/>
<text text-anchor="middle" x="133.5" y="-208.5" font-family="Helvetica,sans-Serif" font-size="10.00">std::vector&lt; Sector * &gt;</text>
</g>
<!-- Node5&#45;&gt;Node4 -->
<g id="edge4" class="edge"><title>Node5&#45;&gt;Node4</title>
<path fill="none" stroke="#9a32cd" stroke-dasharray="5,2" d="M133.5,-191.037C133.5,-178.67 133.5,-163.12 133.5,-153.627"/>
<polygon fill="#9a32cd" stroke="#9a32cd" points="130,-191.234 133.5,-201.234 137,-191.234 130,-191.234"/>
<text text-anchor="middle" x="158" y="-175" font-family="Helvetica,sans-Serif" font-size="10.00"> sectors_m</text>
</g>
<!-- Node6 -->
<g id="node6" class="node"><title>Node6</title>
<g id="a_node6"><a xlink:href="classSector.html" target="_top" xlink:title="Sector">
<polygon fill="white" stroke="black" points="111,-268.5 111,-287.5 156,-287.5 156,-268.5 111,-268.5"/>
<text text-anchor="middle" x="133.5" y="-275.5" font-family="Helvetica,sans-Serif" font-size="10.00">Sector</text>
</a>
</g>
</g>
<!-- Node6&#45;&gt;Node5 -->
<g id="edge5" class="edge"><title>Node6&#45;&gt;Node5</title>
<path fill="none" stroke="#9a32cd" stroke-dasharray="5,2" d="M133.5,-258.037C133.5,-245.67 133.5,-230.12 133.5,-220.627"/>
<polygon fill="#9a32cd" stroke="#9a32cd" points="130,-258.234 133.5,-268.234 137,-258.234 130,-258.234"/>
<text text-anchor="middle" x="155" y="-242" font-family="Helvetica,sans-Serif" font-size="10.00"> elements</text>
</g>
</g>
</svg>
