<?xml version="1.0" encoding="UTF-8" standalone="no"?>
<!DOCTYPE svg PUBLIC "-//W3C//DTD SVG 1.1//EN"
 "http://www.w3.org/Graphics/SVG/1.1/DTD/svg11.dtd">
<!-- Generated by graphviz version 2.38.0 (20140413.2041)
 -->
<!-- Title: H17Disk::validateBlock Pages: 1 -->
<!--zoomable 489 -->
<svg id="main" version="1.1" xmlns="http://www.w3.org/2000/svg" xmlns:xlink="http://www.w3.org/1999/xlink" xml:space="preserve" onload="init(evt)">
<style type="text/css"><![CDATA[
.edge:hover path { stroke: red; }
.edge:hover polygon { stroke: red; fill: red; }
]]></style>
<script type="text/javascript"><![CDATA[
var edges = document.getElementsByTagName('g');
if (edges && edges.length) {
  for (var i=0;i<edges.length;i++) {
    if (edges[i].id.substr(0,4)=='edge') {
      edges[i].setAttribute('class','edge');
    }
  }
}
]]></script>
        <defs>
                <circle id="rim" cx="0" cy="0" r="7"/>
                <circle id="rim2" cx="0" cy="0" r="3.5"/>
                <g id="zoomPlus">
                        <use xlink:href="#rim" fill="#404040">
                                <set attributeName="fill" to="#808080" begin="zoomplus.mouseover" end="zoomplus.mouseout"/>
                        </use>
                        <path d="M-4,0h8M0,-4v8" fill="none" stroke="white" stroke-width="1.5" pointer-events="none"/>
                </g>
                <g id="zoomMin">
                        <use xlink:href="#rim" fill="#404040">
                                <set attributeName="fill" to="#808080" begin="zoomminus.mouseover" end="zoomminus.mouseout"/>
                        </use>
                        <path d="M-4,0h8" fill="none" stroke="white" stroke-width="1.5" pointer-events="none"/>
                </g>
                <g id="dirArrow">
                        <path fill="none" stroke="white" stroke-width="1.5" d="M0,-3.0v7 M-2.5,-0.5L0,-3.0L2.5,-0.5"/>
                </g>
               <g id="resetDef">
                       <use xlink:href="#rim2" fill="#404040">
                               <set attributeName="fill" to="#808080" begin="reset.mouseover" end="reset.mouseout"/>
                       </use>
               </g>
        </defs>

<script type="text/javascript">
var viewWidth = 1184;
var viewHeight = 489;
var sectionId = 'dynsection-34';
</script>
<script xlink:href="svgpan.js"/>
<svg id="graph" class="graph">
<g id="viewport">
<title>H17Disk::validateBlock</title>
<polygon fill="white" stroke="none" points="-4,4 -4,-484.5 1180,-484.5 1180,4 -4,4"/>
<!-- Node1 -->
<g id="node1" class="node"><title>Node1</title>
<polygon fill="#bfbfbf" stroke="black" points="0,-285.5 0,-304.5 119,-304.5 119,-285.5 0,-285.5"/>
<text text-anchor="middle" x="59.5" y="-292.5" font-family="Helvetica,sans-Serif" font-size="10.00">H17Disk::validateBlock</text>
</g>
<!-- Node2 -->
<g id="node2" class="node"><title>Node2</title>
<g id="a_node2"><a xlink:href="classH17Disk.html#aaf268125dfe0bb84c288aff63f5e865d" target="_top" xlink:title="H17Disk::validateDiskFormat\lBlock">
<polygon fill="white" stroke="black" points="156.5,-450 156.5,-480 302.5,-480 302.5,-450 156.5,-450"/>
<text text-anchor="start" x="164.5" y="-468" font-family="Helvetica,sans-Serif" font-size="10.00">H17Disk::validateDiskFormat</text>
<text text-anchor="middle" x="229.5" y="-457" font-family="Helvetica,sans-Serif" font-size="10.00">Block</text>
</a>
</g>
</g>
<!-- Node1&#45;&gt;Node2 -->
<g id="edge1" class="edge"><title>Node1&#45;&gt;Node2</title>
<path fill="none" stroke="midnightblue" d="M64.1627,-304.709C74.4113,-330.587 105.884,-401.838 155,-440 157.423,-441.883 159.996,-443.628 162.674,-445.246"/>
<polygon fill="midnightblue" stroke="midnightblue" points="161.058,-448.351 171.525,-449.99 164.365,-442.181 161.058,-448.351"/>
</g>
<!-- Node3 -->
<g id="node3" class="node"><title>Node3</title>
<g id="a_node3"><a xlink:href="classH17Disk.html#a676a126b40c2697cbdeb32648a69c15d" target="_top" xlink:title="H17Disk::validateFlagsBlock">
<polygon fill="white" stroke="black" points="158,-411.5 158,-430.5 301,-430.5 301,-411.5 158,-411.5"/>
<text text-anchor="middle" x="229.5" y="-418.5" font-family="Helvetica,sans-Serif" font-size="10.00">H17Disk::validateFlagsBlock</text>
</a>
</g>
</g>
<!-- Node1&#45;&gt;Node3 -->
<g id="edge2" class="edge"><title>Node1&#45;&gt;Node3</title>
<path fill="none" stroke="midnightblue" d="M66.2156,-304.717C79.175,-325.861 112.957,-376.214 155,-402 158.441,-404.11 162.11,-405.988 165.904,-407.657"/>
<polygon fill="midnightblue" stroke="midnightblue" points="164.944,-411.039 175.533,-411.395 167.477,-404.514 164.944,-411.039"/>
</g>
<!-- Node4 -->
<g id="node4" class="node"><title>Node4</title>
<g id="a_node4"><a xlink:href="classH17Disk.html#a80cc18809c189366f4c8ecf494286129" target="_top" xlink:title="H17Disk::validateLabelBlock">
<polygon fill="white" stroke="black" points="158,-373.5 158,-392.5 301,-392.5 301,-373.5 158,-373.5"/>
<text text-anchor="middle" x="229.5" y="-380.5" font-family="Helvetica,sans-Serif" font-size="10.00">H17Disk::validateLabelBlock</text>
</a>
</g>
</g>
<!-- Node1&#45;&gt;Node4 -->
<g id="edge3" class="edge"><title>Node1&#45;&gt;Node4</title>
<path fill="none" stroke="midnightblue" d="M70.7023,-304.511C87.175,-319.364 121.211,-348.018 155,-364 159.989,-366.36 165.313,-368.456 170.728,-370.312"/>
<polygon fill="midnightblue" stroke="midnightblue" points="169.932,-373.731 180.521,-373.397 172.035,-367.054 169.932,-373.731"/>
</g>
<!-- Node5 -->
<g id="node5" class="node"><title>Node5</title>
<g id="a_node5"><a xlink:href="classH17Disk.html#a0f8be0fb5d8f55eb6843b6668f60facd" target="_top" xlink:title="H17Disk::validateComment\lBlock">
<polygon fill="white" stroke="black" points="161,-324 161,-354 298,-354 298,-324 161,-324"/>
<text text-anchor="start" x="169" y="-342" font-family="Helvetica,sans-Serif" font-size="10.00">H17Disk::validateComment</text>
<text text-anchor="middle" x="229.5" y="-331" font-family="Helvetica,sans-Serif" font-size="10.00">Block</text>
</a>
</g>
</g>
<!-- Node1&#45;&gt;Node5 -->
<g id="edge4" class="edge"><title>Node1&#45;&gt;Node5</title>
<path fill="none" stroke="midnightblue" d="M96.9535,-304.547C115.699,-309.457 139.156,-315.6 161.051,-321.335"/>
<polygon fill="midnightblue" stroke="midnightblue" points="160.417,-324.787 170.978,-323.935 162.191,-318.015 160.417,-324.787"/>
</g>
<!-- Node6 -->
<g id="node6" class="node"><title>Node6</title>
<g id="a_node6"><a xlink:href="classH17Disk.html#a08c7c7f0cad0cc24224fc73227b9648e" target="_top" xlink:title="H17Disk::validateDateBlock">
<polygon fill="white" stroke="black" points="159.5,-285.5 159.5,-304.5 299.5,-304.5 299.5,-285.5 159.5,-285.5"/>
<text text-anchor="middle" x="229.5" y="-292.5" font-family="Helvetica,sans-Serif" font-size="10.00">H17Disk::validateDateBlock</text>
</a>
</g>
</g>
<!-- Node1&#45;&gt;Node6 -->
<g id="edge5" class="edge"><title>Node1&#45;&gt;Node6</title>
<path fill="none" stroke="midnightblue" d="M119.258,-295C128.981,-295 139.2,-295 149.326,-295"/>
<polygon fill="midnightblue" stroke="midnightblue" points="149.399,-298.5 159.399,-295 149.399,-291.5 149.399,-298.5"/>
</g>
<!-- Node7 -->
<g id="node7" class="node"><title>Node7</title>
<g id="a_node7"><a xlink:href="classH17Disk.html#a592a6390ad6a382cae246886993954a7" target="_top" xlink:title="H17Disk::validateImagerBlock">
<polygon fill="white" stroke="black" points="155,-247.5 155,-266.5 304,-266.5 304,-247.5 155,-247.5"/>
<text text-anchor="middle" x="229.5" y="-254.5" font-family="Helvetica,sans-Serif" font-size="10.00">H17Disk::validateImagerBlock</text>
</a>
</g>
</g>
<!-- Node1&#45;&gt;Node7 -->
<g id="edge6" class="edge"><title>Node1&#45;&gt;Node7</title>
<path fill="none" stroke="midnightblue" d="M102.893,-285.411C125.263,-280.351 152.898,-274.1 176.547,-268.751"/>
<polygon fill="midnightblue" stroke="midnightblue" points="177.43,-272.14 186.411,-266.52 175.886,-265.313 177.43,-272.14"/>
</g>
<!-- Node8 -->
<g id="node8" class="node"><title>Node8</title>
<g id="a_node8"><a xlink:href="classH17Disk.html#adc15505d580fdb29e57c67293d5b3cda" target="_top" xlink:title="H17Disk::validateProgram\lBlock">
<polygon fill="white" stroke="black" points="164,-198 164,-228 295,-228 295,-198 164,-198"/>
<text text-anchor="start" x="172" y="-216" font-family="Helvetica,sans-Serif" font-size="10.00">H17Disk::validateProgram</text>
<text text-anchor="middle" x="229.5" y="-205" font-family="Helvetica,sans-Serif" font-size="10.00">Block</text>
</a>
</g>
</g>
<!-- Node1&#45;&gt;Node8 -->
<g id="edge7" class="edge"><title>Node1&#45;&gt;Node8</title>
<path fill="none" stroke="midnightblue" d="M74.3816,-285.318C92.3549,-273.094 124.945,-251.977 155,-238 159.692,-235.818 164.629,-233.728 169.634,-231.752"/>
<polygon fill="midnightblue" stroke="midnightblue" points="171.178,-234.91 179.292,-228.097 168.7,-228.363 171.178,-234.91"/>
</g>
<!-- Node9 -->
<g id="node9" class="node"><title>Node9</title>
<g id="a_node9"><a xlink:href="classH17Disk.html#a593434e6ce0538943cb044b7d0c9c273" target="_top" xlink:title="H17Disk::validateDataBlock">
<polygon fill="white" stroke="black" points="159.5,-159.5 159.5,-178.5 299.5,-178.5 299.5,-159.5 159.5,-159.5"/>
<text text-anchor="middle" x="229.5" y="-166.5" font-family="Helvetica,sans-Serif" font-size="10.00">H17Disk::validateDataBlock</text>
</a>
</g>
</g>
<!-- Node1&#45;&gt;Node9 -->
<g id="edge8" class="edge"><title>Node1&#45;&gt;Node9</title>
<path fill="none" stroke="midnightblue" d="M66.2638,-285.415C79.3193,-264.549 113.281,-214.819 155,-189 159.14,-186.438 163.609,-184.199 168.226,-182.244"/>
<polygon fill="midnightblue" stroke="midnightblue" points="169.733,-185.417 177.857,-178.615 167.265,-178.866 169.733,-185.417"/>
</g>
<!-- Node14 -->
<g id="node14" class="node"><title>Node14</title>
<g id="a_node14"><a xlink:href="classH17Disk.html#ae1f57f11daa4d4c624d255851838d704" target="_top" xlink:title="H17Disk::validateRawData\lBlock">
<polygon fill="white" stroke="black" points="161.5,-106 161.5,-136 297.5,-136 297.5,-106 161.5,-106"/>
<text text-anchor="start" x="169.5" y="-124" font-family="Helvetica,sans-Serif" font-size="10.00">H17Disk::validateRawData</text>
<text text-anchor="middle" x="229.5" y="-113" font-family="Helvetica,sans-Serif" font-size="10.00">Block</text>
</a>
</g>
</g>
<!-- Node1&#45;&gt;Node14 -->
<g id="edge13" class="edge"><title>Node1&#45;&gt;Node14</title>
<path fill="none" stroke="midnightblue" d="M64.2648,-285.419C74.7669,-259.86 106.812,-189.328 155,-150 159.251,-146.531 163.968,-143.437 168.902,-140.687"/>
<polygon fill="midnightblue" stroke="midnightblue" points="170.621,-143.74 177.962,-136.101 167.459,-137.495 170.621,-143.74"/>
</g>
<!-- Node10 -->
<g id="node10" class="node"><title>Node10</title>
<g id="a_node10"><a xlink:href="classH17Disk.html#a532c7c77626521afd001ed4a32610912" target="_top" xlink:title="H17Disk::validateTrackBlock">
<polygon fill="white" stroke="black" points="340,-163.5 340,-182.5 484,-182.5 484,-163.5 340,-163.5"/>
<text text-anchor="middle" x="412" y="-170.5" font-family="Helvetica,sans-Serif" font-size="10.00">H17Disk::validateTrackBlock</text>
</a>
</g>
</g>
<!-- Node9&#45;&gt;Node10 -->
<g id="edge9" class="edge"><title>Node9&#45;&gt;Node10</title>
<path fill="none" stroke="midnightblue" d="M299.512,-170.529C309.439,-170.749 319.73,-170.977 329.866,-171.202"/>
<polygon fill="midnightblue" stroke="midnightblue" points="329.856,-174.703 339.931,-171.425 330.011,-167.704 329.856,-174.703"/>
</g>
<!-- Node11 -->
<g id="node11" class="node"><title>Node11</title>
<g id="a_node11"><a xlink:href="classH17Disk.html#a11e3a3c52730f4502a61f69035d7ab38" target="_top" xlink:title="H17Disk::validateSectorBlock">
<polygon fill="white" stroke="black" points="520,-171.5 520,-190.5 668,-190.5 668,-171.5 520,-171.5"/>
<text text-anchor="middle" x="594" y="-178.5" font-family="Helvetica,sans-Serif" font-size="10.00">H17Disk::validateSectorBlock</text>
</a>
</g>
</g>
<!-- Node10&#45;&gt;Node11 -->
<g id="edge10" class="edge"><title>Node10&#45;&gt;Node11</title>
<path fill="none" stroke="midnightblue" d="M484.141,-176.162C492.454,-176.531 500.993,-176.911 509.455,-177.287"/>
<polygon fill="midnightblue" stroke="midnightblue" points="509.573,-180.795 519.718,-177.743 509.883,-173.802 509.573,-180.795"/>
</g>
<!-- Node12 -->
<g id="node12" class="node"><title>Node12</title>
<g id="a_node12"><a xlink:href="classH17Disk.html#a63841bed6a8d9e91a221dc5f72672710" target="_top" xlink:title="H17Disk::dumpSectorHeader">
<polygon fill="white" stroke="black" points="704,-209.5 704,-228.5 849,-228.5 849,-209.5 704,-209.5"/>
<text text-anchor="middle" x="776.5" y="-216.5" font-family="Helvetica,sans-Serif" font-size="10.00">H17Disk::dumpSectorHeader</text>
</a>
</g>
</g>
<!-- Node11&#45;&gt;Node12 -->
<g id="edge11" class="edge"><title>Node11&#45;&gt;Node12</title>
<path fill="none" stroke="midnightblue" d="M640.548,-190.589C664.796,-195.694 694.804,-202.011 720.361,-207.392"/>
<polygon fill="midnightblue" stroke="midnightblue" points="719.773,-210.845 730.28,-209.48 721.215,-203.995 719.773,-210.845"/>
</g>
<!-- Node13 -->
<g id="node13" class="node"><title>Node13</title>
<g id="a_node13"><a xlink:href="classH17Disk.html#a8748c1a43e28a7bb8cea81e837964c54" target="_top" xlink:title="H17Disk::dumpSectorData">
<polygon fill="white" stroke="black" points="709.5,-171.5 709.5,-190.5 843.5,-190.5 843.5,-171.5 709.5,-171.5"/>
<text text-anchor="middle" x="776.5" y="-178.5" font-family="Helvetica,sans-Serif" font-size="10.00">H17Disk::dumpSectorData</text>
</a>
</g>
</g>
<!-- Node11&#45;&gt;Node13 -->
<g id="edge12" class="edge"><title>Node11&#45;&gt;Node13</title>
<path fill="none" stroke="midnightblue" d="M668.156,-181C678.344,-181 688.833,-181 699.079,-181"/>
<polygon fill="midnightblue" stroke="midnightblue" points="699.223,-184.5 709.223,-181 699.223,-177.5 699.223,-184.5"/>
</g>
<!-- Node15 -->
<g id="node15" class="node"><title>Node15</title>
<g id="a_node15"><a xlink:href="classH17Disk.html#a8f0fa7dbd52e633a2faa267e453cc486" target="_top" xlink:title="H17Disk::validateRawTrack\lBlock">
<polygon fill="white" stroke="black" points="342,-98 342,-128 482,-128 482,-98 342,-98"/>
<text text-anchor="start" x="350" y="-116" font-family="Helvetica,sans-Serif" font-size="10.00">H17Disk::validateRawTrack</text>
<text text-anchor="middle" x="412" y="-105" font-family="Helvetica,sans-Serif" font-size="10.00">Block</text>
</a>
</g>
</g>
<!-- Node14&#45;&gt;Node15 -->
<g id="edge14" class="edge"><title>Node14&#45;&gt;Node15</title>
<path fill="none" stroke="midnightblue" d="M297.712,-118.021C308.762,-117.531 320.307,-117.02 331.62,-116.518"/>
<polygon fill="midnightblue" stroke="midnightblue" points="332.088,-120.001 341.924,-116.062 331.778,-113.008 332.088,-120.001"/>
</g>
<!-- Node16 -->
<g id="node16" class="node"><title>Node16</title>
<g id="a_node16"><a xlink:href="classH17Disk.html#a60b9074cacd5a89f4b8e8dfb37bccf08" target="_top" xlink:title="H17Disk::validateRawSector\lBlock">
<polygon fill="white" stroke="black" points="522.5,-90 522.5,-120 665.5,-120 665.5,-90 522.5,-90"/>
<text text-anchor="start" x="530.5" y="-108" font-family="Helvetica,sans-Serif" font-size="10.00">H17Disk::validateRawSector</text>
<text text-anchor="middle" x="594" y="-97" font-family="Helvetica,sans-Serif" font-size="10.00">Block</text>
</a>
</g>
</g>
<!-- Node15&#45;&gt;Node16 -->
<g id="edge15" class="edge"><title>Node15&#45;&gt;Node16</title>
<path fill="none" stroke="midnightblue" d="M482.078,-109.93C491.967,-109.49 502.214,-109.035 512.302,-108.587"/>
<polygon fill="midnightblue" stroke="midnightblue" points="512.485,-112.082 522.319,-108.141 512.174,-105.089 512.485,-112.082"/>
</g>
<!-- Node17 -->
<g id="node17" class="node"><title>Node17</title>
<g id="a_node17"><a xlink:href="h17disk_8cpp.html#a9b9796dca95ff7965faf38fc4e6e00ba" target="_top" xlink:title="printBinary">
<polygon fill="white" stroke="black" points="745,-133.5 745,-152.5 808,-152.5 808,-133.5 745,-133.5"/>
<text text-anchor="middle" x="776.5" y="-140.5" font-family="Helvetica,sans-Serif" font-size="10.00">printBinary</text>
</a>
</g>
</g>
<!-- Node16&#45;&gt;Node17 -->
<g id="edge16" class="edge"><title>Node16&#45;&gt;Node17</title>
<path fill="none" stroke="midnightblue" d="M665.562,-119.855C689.076,-124.806 714.466,-130.151 734.915,-134.456"/>
<polygon fill="midnightblue" stroke="midnightblue" points="734.317,-137.907 744.824,-136.542 735.76,-131.057 734.317,-137.907"/>
</g>
<!-- Node18 -->
<g id="node18" class="node"><title>Node18</title>
<g id="a_node18"><a xlink:href="dump_8cpp.html#a7ff04c30cd9d3b0944f82794e18aa817" target="_top" xlink:title="dumpDataBlock">
<polygon fill="white" stroke="black" points="733.5,-95.5 733.5,-114.5 819.5,-114.5 819.5,-95.5 733.5,-95.5"/>
<text text-anchor="middle" x="776.5" y="-102.5" font-family="Helvetica,sans-Serif" font-size="10.00">dumpDataBlock</text>
</a>
</g>
</g>
<!-- Node16&#45;&gt;Node18 -->
<g id="edge17" class="edge"><title>Node16&#45;&gt;Node18</title>
<path fill="none" stroke="midnightblue" d="M665.562,-105C684.827,-105 705.351,-105 723.385,-105"/>
<polygon fill="midnightblue" stroke="midnightblue" points="723.405,-108.5 733.405,-105 723.405,-101.5 723.405,-108.5"/>
</g>
<!-- Node19 -->
<g id="node19" class="node"><title>Node19</title>
<g id="a_node19"><a xlink:href="classDecode.html#a287c55f9f9888c433d950c08254c1efe" target="_top" xlink:title="Decode::decodeFM">
<polygon fill="white" stroke="black" points="725.5,-57.5 725.5,-76.5 827.5,-76.5 827.5,-57.5 725.5,-57.5"/>
<text text-anchor="middle" x="776.5" y="-64.5" font-family="Helvetica,sans-Serif" font-size="10.00">Decode::decodeFM</text>
</a>
</g>
</g>
<!-- Node16&#45;&gt;Node19 -->
<g id="edge18" class="edge"><title>Node16&#45;&gt;Node19</title>
<path fill="none" stroke="midnightblue" d="M665.562,-90.1449C683.746,-86.3167 703.051,-82.2525 720.325,-78.6157"/>
<polygon fill="midnightblue" stroke="midnightblue" points="721.174,-82.014 730.238,-76.5289 719.731,-75.1641 721.174,-82.014"/>
</g>
<!-- Node20 -->
<g id="node20" class="node"><title>Node20</title>
<g id="a_node20"><a xlink:href="disk__util_8cpp.html#a6ca0336006e5d440e0adca49fe90a8bd" target="_top" xlink:title="processSector">
<polygon fill="white" stroke="black" points="736.5,-19.5 736.5,-38.5 816.5,-38.5 816.5,-19.5 736.5,-19.5"/>
<text text-anchor="middle" x="776.5" y="-26.5" font-family="Helvetica,sans-Serif" font-size="10.00">processSector</text>
</a>
</g>
</g>
<!-- Node16&#45;&gt;Node20 -->
<g id="edge19" class="edge"><title>Node16&#45;&gt;Node20</title>
<path fill="none" stroke="midnightblue" d="M619.801,-89.9957C641.423,-77.4157 673.945,-59.684 704,-48 711.239,-45.1858 719.047,-42.641 726.752,-40.3954"/>
<polygon fill="midnightblue" stroke="midnightblue" points="727.708,-43.7625 736.406,-37.7131 725.834,-37.018 727.708,-43.7625"/>
</g>
<!-- Node21 -->
<g id="node21" class="node"><title>Node21</title>
<g id="a_node21"><a xlink:href="disk__util_8cpp.html#a94517a9973c483e78d6d2a9b7ad721a9" target="_top" xlink:title="alignSector">
<polygon fill="white" stroke="black" points="899,-38.5 899,-57.5 964,-57.5 964,-38.5 899,-38.5"/>
<text text-anchor="middle" x="931.5" y="-45.5" font-family="Helvetica,sans-Serif" font-size="10.00">alignSector</text>
</a>
</g>
</g>
<!-- Node20&#45;&gt;Node21 -->
<g id="edge20" class="edge"><title>Node20&#45;&gt;Node21</title>
<path fill="none" stroke="midnightblue" d="M816.504,-33.8437C838.616,-36.5896 866.28,-40.025 888.819,-42.8239"/>
<polygon fill="midnightblue" stroke="midnightblue" points="888.42,-46.3012 898.775,-44.0603 889.283,-39.3545 888.42,-46.3012"/>
</g>
<!-- Node24 -->
<g id="node24" class="node"><title>Node24</title>
<g id="a_node24"><a xlink:href="disk__util_8cpp.html#a71c4de342bd8034b53d392ee37b5ec97" target="_top" xlink:title="updateChecksum">
<polygon fill="white" stroke="black" points="885,-0.5 885,-19.5 978,-19.5 978,-0.5 885,-0.5"/>
<text text-anchor="middle" x="931.5" y="-7.5" font-family="Helvetica,sans-Serif" font-size="10.00">updateChecksum</text>
</a>
</g>
</g>
<!-- Node20&#45;&gt;Node24 -->
<g id="edge23" class="edge"><title>Node20&#45;&gt;Node24</title>
<path fill="none" stroke="midnightblue" d="M816.504,-24.1563C834.14,-21.9662 855.309,-19.3375 874.591,-16.9429"/>
<polygon fill="midnightblue" stroke="midnightblue" points="875.281,-20.3842 884.774,-15.6784 874.419,-13.4375 875.281,-20.3842"/>
</g>
<!-- Node22 -->
<g id="node22" class="node"><title>Node22</title>
<g id="a_node22"><a xlink:href="disk__util_8cpp.html#a6fe02d4965ce98f778a023f33b99a653" target="_top" xlink:title="shiftByte">
<polygon fill="white" stroke="black" points="1014,-38.5 1014,-57.5 1070,-57.5 1070,-38.5 1014,-38.5"/>
<text text-anchor="middle" x="1042" y="-45.5" font-family="Helvetica,sans-Serif" font-size="10.00">shiftByte</text>
</a>
</g>
</g>
<!-- Node21&#45;&gt;Node22 -->
<g id="edge21" class="edge"><title>Node21&#45;&gt;Node22</title>
<path fill="none" stroke="midnightblue" d="M964.174,-48C976.489,-48 990.692,-48 1003.51,-48"/>
<polygon fill="midnightblue" stroke="midnightblue" points="1003.88,-51.5001 1013.88,-48 1003.88,-44.5001 1003.88,-51.5001"/>
</g>
<!-- Node23 -->
<g id="node23" class="node"><title>Node23</title>
<g id="a_node23"><a xlink:href="disk__util_8cpp.html#a921b76ac624c5bb49172b4876bb4ca5c" target="_top" xlink:title="reverseChar">
<polygon fill="white" stroke="black" points="1106,-38.5 1106,-57.5 1176,-57.5 1176,-38.5 1106,-38.5"/>
<text text-anchor="middle" x="1141" y="-45.5" font-family="Helvetica,sans-Serif" font-size="10.00">reverseChar</text>
</a>
</g>
</g>
<!-- Node22&#45;&gt;Node23 -->
<g id="edge22" class="edge"><title>Node22&#45;&gt;Node23</title>
<path fill="none" stroke="midnightblue" d="M1070.02,-48C1078,-48 1086.95,-48 1095.71,-48"/>
<polygon fill="midnightblue" stroke="midnightblue" points="1095.85,-51.5001 1105.85,-48 1095.85,-44.5001 1095.85,-51.5001"/>
</g>
</g>
</svg>
        <g id="navigator" transform="translate(0 0)" fill="#404254">
                <rect fill="#f2f5e9" fill-opacity="0.5" stroke="#606060" stroke-width=".5" x="0" y="0" width="60" height="60"/>
                <use id="zoomplus" xlink:href="#zoomPlus" x="17" y="9" onmousedown="handleZoom(evt,'in')"/>
                <use id="zoomminus" xlink:href="#zoomMin" x="42" y="9" onmousedown="handleZoom(evt,'out')"/>
                <use id="reset" xlink:href="#resetDef" x="30" y="36" onmousedown="handleReset()"/>
                <g id="arrowUp" xlink:href="#dirArrow" transform="translate(30 24)" onmousedown="handlePan(0,-1)">
                  <use xlink:href="#rim" fill="#404040">
                        <set attributeName="fill" to="#808080" begin="arrowUp.mouseover" end="arrowUp.mouseout"/>
                  </use>
                  <path fill="none" stroke="white" stroke-width="1.5" d="M0,-3.0v7 M-2.5,-0.5L0,-3.0L2.5,-0.5"/>
                </g>
                <g id="arrowRight" xlink:href="#dirArrow" transform="rotate(90) translate(36 -43)" onmousedown="handlePan(1,0)">
                  <use xlink:href="#rim" fill="#404040">
                        <set attributeName="fill" to="#808080" begin="arrowRight.mouseover" end="arrowRight.mouseout"/>
                  </use>
                  <path fill="none" stroke="white" stroke-width="1.5" d="M0,-3.0v7 M-2.5,-0.5L0,-3.0L2.5,-0.5"/>
                </g>
                <g id="arrowDown" xlink:href="#dirArrow" transform="rotate(180) translate(-30 -48)" onmousedown="handlePan(0,1)">
                  <use xlink:href="#rim" fill="#404040">
                        <set attributeName="fill" to="#808080" begin="arrowDown.mouseover" end="arrowDown.mouseout"/>
                  </use>
                  <path fill="none" stroke="white" stroke-width="1.5" d="M0,-3.0v7 M-2.5,-0.5L0,-3.0L2.5,-0.5"/>
                </g>
                <g id="arrowLeft" xlink:href="#dirArrow" transform="rotate(270) translate(-36 17)" onmousedown="handlePan(-1,0)">
                  <use xlink:href="#rim" fill="#404040">
                        <set attributeName="fill" to="#808080" begin="arrowLeft.mouseover" end="arrowLeft.mouseout"/>
                  </use>
                  <path fill="none" stroke="white" stroke-width="1.5" d="M0,-3.0v7 M-2.5,-0.5L0,-3.0L2.5,-0.5"/>
                </g>
        </g>
        <svg viewBox="0 0 15 15" width="100%" height="30px" preserveAspectRatio="xMaxYMin meet">
         <g id="arrow_out" transform="scale(0.3 0.3)">
          <a xlink:href="classH17Disk_a29f4d35fba24f0d9cee37bcb02120a6c_cgraph_org.svg" target="_base">
           <rect id="button" ry="5" rx="5" y="6" x="6" height="38" width="38"
                fill="#f2f5e9" fill-opacity="0.5" stroke="#606060" stroke-width="1.0"/>
           <path id="arrow"
             d="M 11.500037,31.436501 C 11.940474,20.09759 22.043105,11.32322 32.158766,21.979434 L 37.068811,17.246167 C 37.068811,17.246167 37.088388,32 37.088388,32 L 22.160133,31.978069 C 22.160133,31.978069 26.997745,27.140456 26.997745,27.140456 C 18.528582,18.264221 13.291696,25.230495 11.500037,31.436501 z"
             style="fill:#404040;"/>
          </a>
         </g>
        </svg>
</svg>
