<?xml version="1.0" encoding="UTF-8" standalone="no"?>
<!DOCTYPE svg PUBLIC "-//W3C//DTD SVG 1.1//EN"
 "http://www.w3.org/Graphics/SVG/1.1/DTD/svg11.dtd">
<!-- Generated by graphviz version 2.38.0 (20140413.2041)
 -->
<!-- Title: H17Disk::decodeBuffer Pages: 1 -->
<!--zoomable 489 -->
<svg id="main" version="1.1" xmlns="http://www.w3.org/2000/svg" xmlns:xlink="http://www.w3.org/1999/xlink" xml:space="preserve" onload="init(evt)">
<style type="text/css"><![CDATA[
.edge:hover path { stroke: red; }
.edge:hover polygon { stroke: red; fill: red; }
]]></style>
<script type="text/javascript"><![CDATA[
var edges = document.getElementsByTagName('g');
if (edges && edges.length) {
  for (var i=0;i<edges.length;i++) {
    if (edges[i].id.substr(0,4)=='edge') {
      edges[i].setAttribute('class','edge');
    }
  }
}
]]></script>
        <defs>
                <circle id="rim" cx="0" cy="0" r="7"/>
                <circle id="rim2" cx="0" cy="0" r="3.5"/>
                <g id="zoomPlus">
                        <use xlink:href="#rim" fill="#404040">
                                <set attributeName="fill" to="#808080" begin="zoomplus.mouseover" end="zoomplus.mouseout"/>
                        </use>
                        <path d="M-4,0h8M0,-4v8" fill="none" stroke="white" stroke-width="1.5" pointer-events="none"/>
                </g>
                <g id="zoomMin">
                        <use xlink:href="#rim" fill="#404040">
                                <set attributeName="fill" to="#808080" begin="zoomminus.mouseover" end="zoomminus.mouseout"/>
                        </use>
                        <path d="M-4,0h8" fill="none" stroke="white" stroke-width="1.5" pointer-events="none"/>
                </g>
                <g id="dirArrow">
                        <path fill="none" stroke="white" stroke-width="1.5" d="M0,-3.0v7 M-2.5,-0.5L0,-3.0L2.5,-0.5"/>
                </g>
               <g id="resetDef">
                       <use xlink:href="#rim2" fill="#404040">
                               <set attributeName="fill" to="#808080" begin="reset.mouseover" end="reset.mouseout"/>
                       </use>
               </g>
        </defs>

<script type="text/javascript">
var viewWidth = 1346;
var viewHeight = 489;
var sectionId = 'dynsection-1';
</script>
<script xlink:href="svgpan.js"/>
<svg id="graph" class="graph">
<g id="viewport">
<title>H17Disk::decodeBuffer</title>
<polygon fill="white" stroke="none" points="-4,4 -4,-484.5 1342,-484.5 1342,4 -4,4"/>
<!-- Node1 -->
<g id="node1" class="node"><title>Node1</title>
<polygon fill="#bfbfbf" stroke="black" points="0,-304.5 0,-323.5 119,-323.5 119,-304.5 0,-304.5"/>
<text text-anchor="middle" x="59.5" y="-311.5" font-family="Helvetica,sans-Serif" font-size="10.00">H17Disk::decodeBuffer</text>
</g>
<!-- Node2 -->
<g id="node2" class="node"><title>Node2</title>
<g id="a_node2"><a xlink:href="classH17Disk.html#ad9402e7823ac0a2741dc316cae361ecd" target="_top" xlink:title="H17Disk::validateHeader">
<polygon fill="white" stroke="black" points="155,-323.5 155,-342.5 281,-342.5 281,-323.5 155,-323.5"/>
<text text-anchor="middle" x="218" y="-330.5" font-family="Helvetica,sans-Serif" font-size="10.00">H17Disk::validateHeader</text>
</a>
</g>
</g>
<!-- Node1&#45;&gt;Node2 -->
<g id="edge1" class="edge"><title>Node1&#45;&gt;Node2</title>
<path fill="none" stroke="midnightblue" d="M119.22,-321.129C127.574,-322.143 136.244,-323.196 144.817,-324.237"/>
<polygon fill="midnightblue" stroke="midnightblue" points="144.463,-327.719 154.812,-325.45 145.306,-320.77 144.463,-327.719"/>
</g>
<!-- Node3 -->
<g id="node3" class="node"><title>Node3</title>
<g id="a_node3"><a xlink:href="classH17Disk.html#a29f4d35fba24f0d9cee37bcb02120a6c" target="_top" xlink:title="H17Disk::validateBlock">
<polygon fill="white" stroke="black" points="158.5,-285.5 158.5,-304.5 277.5,-304.5 277.5,-285.5 158.5,-285.5"/>
<text text-anchor="middle" x="218" y="-292.5" font-family="Helvetica,sans-Serif" font-size="10.00">H17Disk::validateBlock</text>
</a>
</g>
</g>
<!-- Node1&#45;&gt;Node3 -->
<g id="edge2" class="edge"><title>Node1&#45;&gt;Node3</title>
<path fill="none" stroke="midnightblue" d="M119.22,-306.871C128.747,-305.714 138.687,-304.508 148.424,-303.326"/>
<polygon fill="midnightblue" stroke="midnightblue" points="148.966,-306.786 158.471,-302.106 148.122,-299.837 148.966,-306.786"/>
</g>
<!-- Node4 -->
<g id="node4" class="node"><title>Node4</title>
<g id="a_node4"><a xlink:href="classH17Disk.html#aaf268125dfe0bb84c288aff63f5e865d" target="_top" xlink:title="H17Disk::validateDiskFormat\lBlock">
<polygon fill="white" stroke="black" points="318.5,-450 318.5,-480 464.5,-480 464.5,-450 318.5,-450"/>
<text text-anchor="start" x="326.5" y="-468" font-family="Helvetica,sans-Serif" font-size="10.00">H17Disk::validateDiskFormat</text>
<text text-anchor="middle" x="391.5" y="-457" font-family="Helvetica,sans-Serif" font-size="10.00">Block</text>
</a>
</g>
</g>
<!-- Node3&#45;&gt;Node4 -->
<g id="edge3" class="edge"><title>Node3&#45;&gt;Node4</title>
<path fill="none" stroke="midnightblue" d="M267.783,-304.607C272.671,-307.064 277.216,-310.143 281,-314 321.788,-355.573 276.851,-397.81 317,-440 318.394,-441.465 319.876,-442.843 321.433,-444.141"/>
<polygon fill="midnightblue" stroke="midnightblue" points="319.563,-447.105 329.76,-449.982 323.583,-441.374 319.563,-447.105"/>
</g>
<!-- Node5 -->
<g id="node5" class="node"><title>Node5</title>
<g id="a_node5"><a xlink:href="classH17Disk.html#a676a126b40c2697cbdeb32648a69c15d" target="_top" xlink:title="H17Disk::validateFlagsBlock">
<polygon fill="white" stroke="black" points="320,-411.5 320,-430.5 463,-430.5 463,-411.5 320,-411.5"/>
<text text-anchor="middle" x="391.5" y="-418.5" font-family="Helvetica,sans-Serif" font-size="10.00">H17Disk::validateFlagsBlock</text>
</a>
</g>
</g>
<!-- Node3&#45;&gt;Node5 -->
<g id="edge4" class="edge"><title>Node3&#45;&gt;Node5</title>
<path fill="none" stroke="midnightblue" d="M266.441,-304.591C271.748,-307.046 276.76,-310.129 281,-314 312.208,-342.491 285.167,-374.209 317,-402 318.775,-403.549 320.66,-404.975 322.632,-406.287"/>
<polygon fill="midnightblue" stroke="midnightblue" points="321.311,-409.556 331.755,-411.338 324.702,-403.432 321.311,-409.556"/>
</g>
<!-- Node6 -->
<g id="node6" class="node"><title>Node6</title>
<g id="a_node6"><a xlink:href="classH17Disk.html#a80cc18809c189366f4c8ecf494286129" target="_top" xlink:title="H17Disk::validateLabelBlock">
<polygon fill="white" stroke="black" points="320,-373.5 320,-392.5 463,-392.5 463,-373.5 320,-373.5"/>
<text text-anchor="middle" x="391.5" y="-380.5" font-family="Helvetica,sans-Serif" font-size="10.00">H17Disk::validateLabelBlock</text>
</a>
</g>
</g>
<!-- Node3&#45;&gt;Node6 -->
<g id="edge5" class="edge"><title>Node3&#45;&gt;Node6</title>
<path fill="none" stroke="midnightblue" d="M263.049,-304.561C269.399,-307.034 275.602,-310.129 281,-314 303.253,-329.957 294.398,-348.541 317,-364 319.917,-365.995 323.029,-367.78 326.264,-369.379"/>
<polygon fill="midnightblue" stroke="midnightblue" points="325.073,-372.676 335.642,-373.404 327.834,-366.244 325.073,-372.676"/>
</g>
<!-- Node7 -->
<g id="node7" class="node"><title>Node7</title>
<g id="a_node7"><a xlink:href="classH17Disk.html#a0f8be0fb5d8f55eb6843b6668f60facd" target="_top" xlink:title="H17Disk::validateComment\lBlock">
<polygon fill="white" stroke="black" points="323,-324 323,-354 460,-354 460,-324 323,-324"/>
<text text-anchor="start" x="331" y="-342" font-family="Helvetica,sans-Serif" font-size="10.00">H17Disk::validateComment</text>
<text text-anchor="middle" x="391.5" y="-331" font-family="Helvetica,sans-Serif" font-size="10.00">Block</text>
</a>
</g>
</g>
<!-- Node3&#45;&gt;Node7 -->
<g id="edge6" class="edge"><title>Node3&#45;&gt;Node7</title>
<path fill="none" stroke="midnightblue" d="M256.213,-304.547C275.436,-309.479 299.51,-315.656 321.947,-321.412"/>
<polygon fill="midnightblue" stroke="midnightblue" points="321.223,-324.84 331.779,-323.935 322.963,-318.059 321.223,-324.84"/>
</g>
<!-- Node8 -->
<g id="node8" class="node"><title>Node8</title>
<g id="a_node8"><a xlink:href="classH17Disk.html#a08c7c7f0cad0cc24224fc73227b9648e" target="_top" xlink:title="H17Disk::validateDateBlock">
<polygon fill="white" stroke="black" points="321.5,-285.5 321.5,-304.5 461.5,-304.5 461.5,-285.5 321.5,-285.5"/>
<text text-anchor="middle" x="391.5" y="-292.5" font-family="Helvetica,sans-Serif" font-size="10.00">H17Disk::validateDateBlock</text>
</a>
</g>
</g>
<!-- Node3&#45;&gt;Node8 -->
<g id="edge7" class="edge"><title>Node3&#45;&gt;Node8</title>
<path fill="none" stroke="midnightblue" d="M277.541,-295C288.313,-295 299.725,-295 310.992,-295"/>
<polygon fill="midnightblue" stroke="midnightblue" points="311.276,-298.5 321.276,-295 311.276,-291.5 311.276,-298.5"/>
</g>
<!-- Node9 -->
<g id="node9" class="node"><title>Node9</title>
<g id="a_node9"><a xlink:href="classH17Disk.html#a592a6390ad6a382cae246886993954a7" target="_top" xlink:title="H17Disk::validateImagerBlock">
<polygon fill="white" stroke="black" points="317,-247.5 317,-266.5 466,-266.5 466,-247.5 317,-247.5"/>
<text text-anchor="middle" x="391.5" y="-254.5" font-family="Helvetica,sans-Serif" font-size="10.00">H17Disk::validateImagerBlock</text>
</a>
</g>
</g>
<!-- Node3&#45;&gt;Node9 -->
<g id="edge8" class="edge"><title>Node3&#45;&gt;Node9</title>
<path fill="none" stroke="midnightblue" d="M262.277,-285.411C285.112,-280.351 313.323,-274.1 337.465,-268.751"/>
<polygon fill="midnightblue" stroke="midnightblue" points="338.528,-272.101 347.535,-266.52 337.014,-265.266 338.528,-272.101"/>
</g>
<!-- Node10 -->
<g id="node10" class="node"><title>Node10</title>
<g id="a_node10"><a xlink:href="classH17Disk.html#adc15505d580fdb29e57c67293d5b3cda" target="_top" xlink:title="H17Disk::validateProgram\lBlock">
<polygon fill="white" stroke="black" points="326,-198 326,-228 457,-228 457,-198 326,-198"/>
<text text-anchor="start" x="334" y="-216" font-family="Helvetica,sans-Serif" font-size="10.00">H17Disk::validateProgram</text>
<text text-anchor="middle" x="391.5" y="-205" font-family="Helvetica,sans-Serif" font-size="10.00">Block</text>
</a>
</g>
</g>
<!-- Node3&#45;&gt;Node10 -->
<g id="edge9" class="edge"><title>Node3&#45;&gt;Node10</title>
<path fill="none" stroke="midnightblue" d="M233.452,-285.36C252.151,-273.182 286.011,-252.112 317,-238 321.907,-235.766 327.074,-233.619 332.302,-231.588"/>
<polygon fill="midnightblue" stroke="midnightblue" points="333.592,-234.842 341.732,-228.061 331.14,-228.285 333.592,-234.842"/>
</g>
<!-- Node11 -->
<g id="node11" class="node"><title>Node11</title>
<g id="a_node11"><a xlink:href="classH17Disk.html#a593434e6ce0538943cb044b7d0c9c273" target="_top" xlink:title="H17Disk::validateDataBlock">
<polygon fill="white" stroke="black" points="321.5,-159.5 321.5,-178.5 461.5,-178.5 461.5,-159.5 321.5,-159.5"/>
<text text-anchor="middle" x="391.5" y="-166.5" font-family="Helvetica,sans-Serif" font-size="10.00">H17Disk::validateDataBlock</text>
</a>
</g>
</g>
<!-- Node3&#45;&gt;Node11 -->
<g id="edge10" class="edge"><title>Node3&#45;&gt;Node11</title>
<path fill="none" stroke="midnightblue" d="M225.069,-285.421C238.792,-264.568 274.354,-214.862 317,-189 321.341,-186.367 326.033,-184.075 330.873,-182.079"/>
<polygon fill="midnightblue" stroke="midnightblue" points="332.14,-185.342 340.31,-178.596 329.717,-178.775 332.14,-185.342"/>
</g>
<!-- Node16 -->
<g id="node16" class="node"><title>Node16</title>
<g id="a_node16"><a xlink:href="classH17Disk.html#ae1f57f11daa4d4c624d255851838d704" target="_top" xlink:title="H17Disk::validateRawData\lBlock">
<polygon fill="white" stroke="black" points="323.5,-106 323.5,-136 459.5,-136 459.5,-106 323.5,-106"/>
<text text-anchor="start" x="331.5" y="-124" font-family="Helvetica,sans-Serif" font-size="10.00">H17Disk::validateRawData</text>
<text text-anchor="middle" x="391.5" y="-113" font-family="Helvetica,sans-Serif" font-size="10.00">Block</text>
</a>
</g>
</g>
<!-- Node3&#45;&gt;Node16 -->
<g id="edge15" class="edge"><title>Node3&#45;&gt;Node16</title>
<path fill="none" stroke="midnightblue" d="M223.005,-285.423C234.145,-259.871 267.942,-189.358 317,-150 321.347,-146.513 326.165,-143.402 331.195,-140.636"/>
<polygon fill="midnightblue" stroke="midnightblue" points="333.044,-143.625 340.424,-136.023 329.914,-137.364 333.044,-143.625"/>
</g>
<!-- Node12 -->
<g id="node12" class="node"><title>Node12</title>
<g id="a_node12"><a xlink:href="classH17Disk.html#a532c7c77626521afd001ed4a32610912" target="_top" xlink:title="H17Disk::validateTrackBlock">
<polygon fill="white" stroke="black" points="502,-163.5 502,-182.5 646,-182.5 646,-163.5 502,-163.5"/>
<text text-anchor="middle" x="574" y="-170.5" font-family="Helvetica,sans-Serif" font-size="10.00">H17Disk::validateTrackBlock</text>
</a>
</g>
</g>
<!-- Node11&#45;&gt;Node12 -->
<g id="edge11" class="edge"><title>Node11&#45;&gt;Node12</title>
<path fill="none" stroke="midnightblue" d="M461.512,-170.529C471.439,-170.749 481.73,-170.977 491.866,-171.202"/>
<polygon fill="midnightblue" stroke="midnightblue" points="491.856,-174.703 501.931,-171.425 492.011,-167.704 491.856,-174.703"/>
</g>
<!-- Node13 -->
<g id="node13" class="node"><title>Node13</title>
<g id="a_node13"><a xlink:href="classH17Disk.html#a11e3a3c52730f4502a61f69035d7ab38" target="_top" xlink:title="H17Disk::validateSectorBlock">
<polygon fill="white" stroke="black" points="682,-171.5 682,-190.5 830,-190.5 830,-171.5 682,-171.5"/>
<text text-anchor="middle" x="756" y="-178.5" font-family="Helvetica,sans-Serif" font-size="10.00">H17Disk::validateSectorBlock</text>
</a>
</g>
</g>
<!-- Node12&#45;&gt;Node13 -->
<g id="edge12" class="edge"><title>Node12&#45;&gt;Node13</title>
<path fill="none" stroke="midnightblue" d="M646.141,-176.162C654.454,-176.531 662.993,-176.911 671.455,-177.287"/>
<polygon fill="midnightblue" stroke="midnightblue" points="671.573,-180.795 681.718,-177.743 671.883,-173.802 671.573,-180.795"/>
</g>
<!-- Node14 -->
<g id="node14" class="node"><title>Node14</title>
<g id="a_node14"><a xlink:href="classH17Disk.html#a63841bed6a8d9e91a221dc5f72672710" target="_top" xlink:title="H17Disk::dumpSectorHeader">
<polygon fill="white" stroke="black" points="866,-209.5 866,-228.5 1011,-228.5 1011,-209.5 866,-209.5"/>
<text text-anchor="middle" x="938.5" y="-216.5" font-family="Helvetica,sans-Serif" font-size="10.00">H17Disk::dumpSectorHeader</text>
</a>
</g>
</g>
<!-- Node13&#45;&gt;Node14 -->
<g id="edge13" class="edge"><title>Node13&#45;&gt;Node14</title>
<path fill="none" stroke="midnightblue" d="M802.548,-190.589C826.796,-195.694 856.804,-202.011 882.361,-207.392"/>
<polygon fill="midnightblue" stroke="midnightblue" points="881.773,-210.845 892.28,-209.48 883.215,-203.995 881.773,-210.845"/>
</g>
<!-- Node15 -->
<g id="node15" class="node"><title>Node15</title>
<g id="a_node15"><a xlink:href="classH17Disk.html#a8748c1a43e28a7bb8cea81e837964c54" target="_top" xlink:title="H17Disk::dumpSectorData">
<polygon fill="white" stroke="black" points="871.5,-171.5 871.5,-190.5 1005.5,-190.5 1005.5,-171.5 871.5,-171.5"/>
<text text-anchor="middle" x="938.5" y="-178.5" font-family="Helvetica,sans-Serif" font-size="10.00">H17Disk::dumpSectorData</text>
</a>
</g>
</g>
<!-- Node13&#45;&gt;Node15 -->
<g id="edge14" class="edge"><title>Node13&#45;&gt;Node15</title>
<path fill="none" stroke="midnightblue" d="M830.156,-181C840.344,-181 850.833,-181 861.079,-181"/>
<polygon fill="midnightblue" stroke="midnightblue" points="861.223,-184.5 871.223,-181 861.223,-177.5 861.223,-184.5"/>
</g>
<!-- Node17 -->
<g id="node17" class="node"><title>Node17</title>
<g id="a_node17"><a xlink:href="classH17Disk.html#a8f0fa7dbd52e633a2faa267e453cc486" target="_top" xlink:title="H17Disk::validateRawTrack\lBlock">
<polygon fill="white" stroke="black" points="504,-98 504,-128 644,-128 644,-98 504,-98"/>
<text text-anchor="start" x="512" y="-116" font-family="Helvetica,sans-Serif" font-size="10.00">H17Disk::validateRawTrack</text>
<text text-anchor="middle" x="574" y="-105" font-family="Helvetica,sans-Serif" font-size="10.00">Block</text>
</a>
</g>
</g>
<!-- Node16&#45;&gt;Node17 -->
<g id="edge16" class="edge"><title>Node16&#45;&gt;Node17</title>
<path fill="none" stroke="midnightblue" d="M459.712,-118.021C470.762,-117.531 482.307,-117.02 493.62,-116.518"/>
<polygon fill="midnightblue" stroke="midnightblue" points="494.088,-120.001 503.924,-116.062 493.778,-113.008 494.088,-120.001"/>
</g>
<!-- Node18 -->
<g id="node18" class="node"><title>Node18</title>
<g id="a_node18"><a xlink:href="classH17Disk.html#a60b9074cacd5a89f4b8e8dfb37bccf08" target="_top" xlink:title="H17Disk::validateRawSector\lBlock">
<polygon fill="white" stroke="black" points="684.5,-90 684.5,-120 827.5,-120 827.5,-90 684.5,-90"/>
<text text-anchor="start" x="692.5" y="-108" font-family="Helvetica,sans-Serif" font-size="10.00">H17Disk::validateRawSector</text>
<text text-anchor="middle" x="756" y="-97" font-family="Helvetica,sans-Serif" font-size="10.00">Block</text>
</a>
</g>
</g>
<!-- Node17&#45;&gt;Node18 -->
<g id="edge17" class="edge"><title>Node17&#45;&gt;Node18</title>
<path fill="none" stroke="midnightblue" d="M644.078,-109.93C653.967,-109.49 664.214,-109.035 674.302,-108.587"/>
<polygon fill="midnightblue" stroke="midnightblue" points="674.485,-112.082 684.319,-108.141 674.174,-105.089 674.485,-112.082"/>
</g>
<!-- Node19 -->
<g id="node19" class="node"><title>Node19</title>
<g id="a_node19"><a xlink:href="h17disk_8cpp.html#a9b9796dca95ff7965faf38fc4e6e00ba" target="_top" xlink:title="printBinary">
<polygon fill="white" stroke="black" points="907,-133.5 907,-152.5 970,-152.5 970,-133.5 907,-133.5"/>
<text text-anchor="middle" x="938.5" y="-140.5" font-family="Helvetica,sans-Serif" font-size="10.00">printBinary</text>
</a>
</g>
</g>
<!-- Node18&#45;&gt;Node19 -->
<g id="edge18" class="edge"><title>Node18&#45;&gt;Node19</title>
<path fill="none" stroke="midnightblue" d="M827.562,-119.855C851.076,-124.806 876.466,-130.151 896.915,-134.456"/>
<polygon fill="midnightblue" stroke="midnightblue" points="896.317,-137.907 906.824,-136.542 897.76,-131.057 896.317,-137.907"/>
</g>
<!-- Node20 -->
<g id="node20" class="node"><title>Node20</title>
<g id="a_node20"><a xlink:href="dump_8cpp.html#a7ff04c30cd9d3b0944f82794e18aa817" target="_top" xlink:title="dumpDataBlock">
<polygon fill="white" stroke="black" points="895.5,-95.5 895.5,-114.5 981.5,-114.5 981.5,-95.5 895.5,-95.5"/>
<text text-anchor="middle" x="938.5" y="-102.5" font-family="Helvetica,sans-Serif" font-size="10.00">dumpDataBlock</text>
</a>
</g>
</g>
<!-- Node18&#45;&gt;Node20 -->
<g id="edge19" class="edge"><title>Node18&#45;&gt;Node20</title>
<path fill="none" stroke="midnightblue" d="M827.562,-105C846.827,-105 867.351,-105 885.385,-105"/>
<polygon fill="midnightblue" stroke="midnightblue" points="885.405,-108.5 895.405,-105 885.405,-101.5 885.405,-108.5"/>
</g>
<!-- Node21 -->
<g id="node21" class="node"><title>Node21</title>
<g id="a_node21"><a xlink:href="classDecode.html#a287c55f9f9888c433d950c08254c1efe" target="_top" xlink:title="Decode::decodeFM">
<polygon fill="white" stroke="black" points="887.5,-57.5 887.5,-76.5 989.5,-76.5 989.5,-57.5 887.5,-57.5"/>
<text text-anchor="middle" x="938.5" y="-64.5" font-family="Helvetica,sans-Serif" font-size="10.00">Decode::decodeFM</text>
</a>
</g>
</g>
<!-- Node18&#45;&gt;Node21 -->
<g id="edge20" class="edge"><title>Node18&#45;&gt;Node21</title>
<path fill="none" stroke="midnightblue" d="M827.562,-90.1449C845.746,-86.3167 865.051,-82.2525 882.325,-78.6157"/>
<polygon fill="midnightblue" stroke="midnightblue" points="883.174,-82.014 892.238,-76.5289 881.731,-75.1641 883.174,-82.014"/>
</g>
<!-- Node22 -->
<g id="node22" class="node"><title>Node22</title>
<g id="a_node22"><a xlink:href="disk__util_8cpp.html#a6ca0336006e5d440e0adca49fe90a8bd" target="_top" xlink:title="processSector">
<polygon fill="white" stroke="black" points="898.5,-19.5 898.5,-38.5 978.5,-38.5 978.5,-19.5 898.5,-19.5"/>
<text text-anchor="middle" x="938.5" y="-26.5" font-family="Helvetica,sans-Serif" font-size="10.00">processSector</text>
</a>
</g>
</g>
<!-- Node18&#45;&gt;Node22 -->
<g id="edge21" class="edge"><title>Node18&#45;&gt;Node22</title>
<path fill="none" stroke="midnightblue" d="M781.801,-89.9957C803.423,-77.4157 835.945,-59.684 866,-48 873.239,-45.1858 881.047,-42.641 888.752,-40.3954"/>
<polygon fill="midnightblue" stroke="midnightblue" points="889.708,-43.7625 898.406,-37.7131 887.834,-37.018 889.708,-43.7625"/>
</g>
<!-- Node23 -->
<g id="node23" class="node"><title>Node23</title>
<g id="a_node23"><a xlink:href="disk__util_8cpp.html#a94517a9973c483e78d6d2a9b7ad721a9" target="_top" xlink:title="alignSector">
<polygon fill="white" stroke="black" points="1061,-38.5 1061,-57.5 1126,-57.5 1126,-38.5 1061,-38.5"/>
<text text-anchor="middle" x="1093.5" y="-45.5" font-family="Helvetica,sans-Serif" font-size="10.00">alignSector</text>
</a>
</g>
</g>
<!-- Node22&#45;&gt;Node23 -->
<g id="edge22" class="edge"><title>Node22&#45;&gt;Node23</title>
<path fill="none" stroke="midnightblue" d="M978.504,-33.8437C1000.62,-36.5896 1028.28,-40.025 1050.82,-42.8239"/>
<polygon fill="midnightblue" stroke="midnightblue" points="1050.42,-46.3012 1060.78,-44.0603 1051.28,-39.3545 1050.42,-46.3012"/>
</g>
<!-- Node26 -->
<g id="node26" class="node"><title>Node26</title>
<g id="a_node26"><a xlink:href="disk__util_8cpp.html#a71c4de342bd8034b53d392ee37b5ec97" target="_top" xlink:title="updateChecksum">
<polygon fill="white" stroke="black" points="1047,-0.5 1047,-19.5 1140,-19.5 1140,-0.5 1047,-0.5"/>
<text text-anchor="middle" x="1093.5" y="-7.5" font-family="Helvetica,sans-Serif" font-size="10.00">updateChecksum</text>
</a>
</g>
</g>
<!-- Node22&#45;&gt;Node26 -->
<g id="edge25" class="edge"><title>Node22&#45;&gt;Node26</title>
<path fill="none" stroke="midnightblue" d="M978.504,-24.1563C996.14,-21.9662 1017.31,-19.3375 1036.59,-16.9429"/>
<polygon fill="midnightblue" stroke="midnightblue" points="1037.28,-20.3842 1046.77,-15.6784 1036.42,-13.4375 1037.28,-20.3842"/>
</g>
<!-- Node24 -->
<g id="node24" class="node"><title>Node24</title>
<g id="a_node24"><a xlink:href="disk__util_8cpp.html#a6fe02d4965ce98f778a023f33b99a653" target="_top" xlink:title="shiftByte">
<polygon fill="white" stroke="black" points="1176,-38.5 1176,-57.5 1232,-57.5 1232,-38.5 1176,-38.5"/>
<text text-anchor="middle" x="1204" y="-45.5" font-family="Helvetica,sans-Serif" font-size="10.00">shiftByte</text>
</a>
</g>
</g>
<!-- Node23&#45;&gt;Node24 -->
<g id="edge23" class="edge"><title>Node23&#45;&gt;Node24</title>
<path fill="none" stroke="midnightblue" d="M1126.17,-48C1138.49,-48 1152.69,-48 1165.51,-48"/>
<polygon fill="midnightblue" stroke="midnightblue" points="1165.88,-51.5001 1175.88,-48 1165.88,-44.5001 1165.88,-51.5001"/>
</g>
<!-- Node25 -->
<g id="node25" class="node"><title>Node25</title>
<g id="a_node25"><a xlink:href="disk__util_8cpp.html#a921b76ac624c5bb49172b4876bb4ca5c" target="_top" xlink:title="reverseChar">
<polygon fill="white" stroke="black" points="1268,-38.5 1268,-57.5 1338,-57.5 1338,-38.5 1268,-38.5"/>
<text text-anchor="middle" x="1303" y="-45.5" font-family="Helvetica,sans-Serif" font-size="10.00">reverseChar</text>
</a>
</g>
</g>
<!-- Node24&#45;&gt;Node25 -->
<g id="edge24" class="edge"><title>Node24&#45;&gt;Node25</title>
<path fill="none" stroke="midnightblue" d="M1232.02,-48C1240,-48 1248.95,-48 1257.71,-48"/>
<polygon fill="midnightblue" stroke="midnightblue" points="1257.85,-51.5001 1267.85,-48 1257.85,-44.5001 1257.85,-51.5001"/>
</g>
</g>
</svg>
        <g id="navigator" transform="translate(0 0)" fill="#404254">
                <rect fill="#f2f5e9" fill-opacity="0.5" stroke="#606060" stroke-width=".5" x="0" y="0" width="60" height="60"/>
                <use id="zoomplus" xlink:href="#zoomPlus" x="17" y="9" onmousedown="handleZoom(evt,'in')"/>
                <use id="zoomminus" xlink:href="#zoomMin" x="42" y="9" onmousedown="handleZoom(evt,'out')"/>
                <use id="reset" xlink:href="#resetDef" x="30" y="36" onmousedown="handleReset()"/>
                <g id="arrowUp" xlink:href="#dirArrow" transform="translate(30 24)" onmousedown="handlePan(0,-1)">
                  <use xlink:href="#rim" fill="#404040">
                        <set attributeName="fill" to="#808080" begin="arrowUp.mouseover" end="arrowUp.mouseout"/>
                  </use>
                  <path fill="none" stroke="white" stroke-width="1.5" d="M0,-3.0v7 M-2.5,-0.5L0,-3.0L2.5,-0.5"/>
                </g>
                <g id="arrowRight" xlink:href="#dirArrow" transform="rotate(90) translate(36 -43)" onmousedown="handlePan(1,0)">
                  <use xlink:href="#rim" fill="#404040">
                        <set attributeName="fill" to="#808080" begin="arrowRight.mouseover" end="arrowRight.mouseout"/>
                  </use>
                  <path fill="none" stroke="white" stroke-width="1.5" d="M0,-3.0v7 M-2.5,-0.5L0,-3.0L2.5,-0.5"/>
                </g>
                <g id="arrowDown" xlink:href="#dirArrow" transform="rotate(180) translate(-30 -48)" onmousedown="handlePan(0,1)">
                  <use xlink:href="#rim" fill="#404040">
                        <set attributeName="fill" to="#808080" begin="arrowDown.mouseover" end="arrowDown.mouseout"/>
                  </use>
                  <path fill="none" stroke="white" stroke-width="1.5" d="M0,-3.0v7 M-2.5,-0.5L0,-3.0L2.5,-0.5"/>
                </g>
                <g id="arrowLeft" xlink:href="#dirArrow" transform="rotate(270) translate(-36 17)" onmousedown="handlePan(-1,0)">
                  <use xlink:href="#rim" fill="#404040">
                        <set attributeName="fill" to="#808080" begin="arrowLeft.mouseover" end="arrowLeft.mouseout"/>
                  </use>
                  <path fill="none" stroke="white" stroke-width="1.5" d="M0,-3.0v7 M-2.5,-0.5L0,-3.0L2.5,-0.5"/>
                </g>
        </g>
        <svg viewBox="0 0 15 15" width="100%" height="30px" preserveAspectRatio="xMaxYMin meet">
         <g id="arrow_out" transform="scale(0.3 0.3)">
          <a xlink:href="classH17Disk_ada058d8b970b4e72569e2fe000817f75_cgraph_org.svg" target="_base">
           <rect id="button" ry="5" rx="5" y="6" x="6" height="38" width="38"
                fill="#f2f5e9" fill-opacity="0.5" stroke="#606060" stroke-width="1.0"/>
           <path id="arrow"
             d="M 11.500037,31.436501 C 11.940474,20.09759 22.043105,11.32322 32.158766,21.979434 L 37.068811,17.246167 C 37.068811,17.246167 37.088388,32 37.088388,32 L 22.160133,31.978069 C 22.160133,31.978069 26.997745,27.140456 26.997745,27.140456 C 18.528582,18.264221 13.291696,25.230495 11.500037,31.436501 z"
             style="fill:#404040;"/>
          </a>
         </g>
        </svg>
</svg>
