<?xml version="1.0" encoding="UTF-8" standalone="no"?>
<!DOCTYPE svg PUBLIC "-//W3C//DTD SVG 1.1//EN"
 "http://www.w3.org/Graphics/SVG/1.1/DTD/svg11.dtd">
<!-- Generated by graphviz version 2.38.0 (20140413.2041)
 -->
<!-- Title: H17Disk::validateTrackBlock Pages: 1 -->
<svg width="517pt" height="66pt"
 viewBox="0.00 0.00 517.00 66.00" xmlns="http://www.w3.org/2000/svg" xmlns:xlink="http://www.w3.org/1999/xlink">
<g id="graph0" class="graph" transform="scale(1 1) rotate(0) translate(4 62)">
<title>H17Disk::validateTrackBlock</title>
<polygon fill="white" stroke="none" points="-4,4 -4,-62 513,-62 513,4 -4,4"/>
<!-- Node1 -->
<g id="node1" class="node"><title>Node1</title>
<polygon fill="#bfbfbf" stroke="black" points="0,-19.5 0,-38.5 144,-38.5 144,-19.5 0,-19.5"/>
<text text-anchor="middle" x="72" y="-26.5" font-family="Helvetica,sans-Serif" font-size="10.00">H17Disk::validateTrackBlock</text>
</g>
<!-- Node2 -->
<g id="node2" class="node"><title>Node2</title>
<g id="a_node2"><a xlink:href="classH17Disk.html#a11e3a3c52730f4502a61f69035d7ab38" target="_top" xlink:title="H17Disk::validateSectorBlock">
<polygon fill="white" stroke="black" points="180,-19.5 180,-38.5 328,-38.5 328,-19.5 180,-19.5"/>
<text text-anchor="middle" x="254" y="-26.5" font-family="Helvetica,sans-Serif" font-size="10.00">H17Disk::validateSectorBlock</text>
</a>
</g>
</g>
<!-- Node1&#45;&gt;Node2 -->
<g id="edge1" class="edge"><title>Node1&#45;&gt;Node2</title>
<path fill="none" stroke="midnightblue" d="M144.141,-29C152.454,-29 160.993,-29 169.455,-29"/>
<polygon fill="midnightblue" stroke="midnightblue" points="169.718,-32.5001 179.718,-29 169.718,-25.5001 169.718,-32.5001"/>
</g>
<!-- Node3 -->
<g id="node3" class="node"><title>Node3</title>
<g id="a_node3"><a xlink:href="classH17Disk.html#a63841bed6a8d9e91a221dc5f72672710" target="_top" xlink:title="H17Disk::dumpSectorHeader">
<polygon fill="white" stroke="black" points="364,-38.5 364,-57.5 509,-57.5 509,-38.5 364,-38.5"/>
<text text-anchor="middle" x="436.5" y="-45.5" font-family="Helvetica,sans-Serif" font-size="10.00">H17Disk::dumpSectorHeader</text>
</a>
</g>
</g>
<!-- Node2&#45;&gt;Node3 -->
<g id="edge2" class="edge"><title>Node2&#45;&gt;Node3</title>
<path fill="none" stroke="midnightblue" d="M328.156,-36.7006C336.655,-37.5953 345.364,-38.512 353.966,-39.4175"/>
<polygon fill="midnightblue" stroke="midnightblue" points="353.685,-42.9071 363.996,-40.4733 354.417,-35.9456 353.685,-42.9071"/>
</g>
<!-- Node4 -->
<g id="node4" class="node"><title>Node4</title>
<g id="a_node4"><a xlink:href="classH17Disk.html#a8748c1a43e28a7bb8cea81e837964c54" target="_top" xlink:title="H17Disk::dumpSectorData">
<polygon fill="white" stroke="black" points="369.5,-0.5 369.5,-19.5 503.5,-19.5 503.5,-0.5 369.5,-0.5"/>
<text text-anchor="middle" x="436.5" y="-7.5" font-family="Helvetica,sans-Serif" font-size="10.00">H17Disk::dumpSectorData</text>
</a>
</g>
</g>
<!-- Node2&#45;&gt;Node4 -->
<g id="edge3" class="edge"><title>Node2&#45;&gt;Node4</title>
<path fill="none" stroke="midnightblue" d="M328.156,-21.2994C338.344,-20.227 348.833,-19.1229 359.079,-18.0444"/>
<polygon fill="midnightblue" stroke="midnightblue" points="359.644,-21.5042 369.223,-16.9765 358.911,-14.5427 359.644,-21.5042"/>
</g>
</g>
</svg>
