<?xml version="1.0" encoding="UTF-8" standalone="no"?>
<!DOCTYPE svg PUBLIC "-//W3C//DTD SVG 1.1//EN"
 "http://www.w3.org/Graphics/SVG/1.1/DTD/svg11.dtd">
<!-- Generated by graphviz version 2.38.0 (20140413.2041)
 -->
<!-- Title: H17Block Pages: 1 -->
<svg width="225pt" height="332pt"
 viewBox="0.00 0.00 225.00 332.00" xmlns="http://www.w3.org/2000/svg" xmlns:xlink="http://www.w3.org/1999/xlink">
<g id="graph0" class="graph" transform="scale(1 1) rotate(0) translate(4 328)">
<title>H17Block</title>
<polygon fill="white" stroke="none" points="-4,4 -4,-328 221,-328 221,4 -4,4"/>
<!-- Node1 -->
<g id="node1" class="node"><title>Node1</title>
<polygon fill="#bfbfbf" stroke="black" points="0,-152.5 0,-171.5 59,-171.5 59,-152.5 0,-152.5"/>
<text text-anchor="middle" x="29.5" y="-159.5" font-family="Helvetica,sans-Serif" font-size="10.00">H17Block</text>
</g>
<!-- Node2 -->
<g id="node2" class="node"><title>Node2</title>
<g id="a_node2"><a xlink:href="classH17DiskCommentBlock.html" target="_top" xlink:title="H17DiskCommentBlock">
<polygon fill="white" stroke="black" points="95,-304.5 95,-323.5 217,-323.5 217,-304.5 95,-304.5"/>
<text text-anchor="middle" x="156" y="-311.5" font-family="Helvetica,sans-Serif" font-size="10.00">H17DiskCommentBlock</text>
</a>
</g>
</g>
<!-- Node1&#45;&gt;Node2 -->
<g id="edge1" class="edge"><title>Node1&#45;&gt;Node2</title>
<path fill="none" stroke="midnightblue" d="M34.8203,-181.746C42.1745,-210.727 59.8694,-264.623 95,-295 99.4631,-298.859 104.713,-301.936 110.219,-304.388"/>
<polygon fill="midnightblue" stroke="midnightblue" points="38.1355,-180.557 32.4217,-171.635 31.3246,-182.173 38.1355,-180.557"/>
</g>
<!-- Node3 -->
<g id="node3" class="node"><title>Node3</title>
<g id="a_node3"><a xlink:href="classH17DiskDataBlock.html" target="_top" xlink:title="H17DiskDataBlock">
<polygon fill="white" stroke="black" points="105.5,-266.5 105.5,-285.5 206.5,-285.5 206.5,-266.5 105.5,-266.5"/>
<text text-anchor="middle" x="156" y="-273.5" font-family="Helvetica,sans-Serif" font-size="10.00">H17DiskDataBlock</text>
</a>
</g>
</g>
<!-- Node1&#45;&gt;Node3 -->
<g id="edge2" class="edge"><title>Node1&#45;&gt;Node3</title>
<path fill="none" stroke="midnightblue" d="M38.6824,-181.026C48.8581,-202.501 68.2144,-237.036 95,-257 100.169,-260.853 106.142,-263.938 112.275,-266.407"/>
<polygon fill="midnightblue" stroke="midnightblue" points="41.7499,-179.316 34.4322,-171.654 35.3749,-182.207 41.7499,-179.316"/>
</g>
<!-- Node4 -->
<g id="node4" class="node"><title>Node4</title>
<g id="a_node4"><a xlink:href="classH17DiskDateBlock.html" target="_top" xlink:title="H17DiskDateBlock">
<polygon fill="white" stroke="black" points="105.5,-228.5 105.5,-247.5 206.5,-247.5 206.5,-228.5 105.5,-228.5"/>
<text text-anchor="middle" x="156" y="-235.5" font-family="Helvetica,sans-Serif" font-size="10.00">H17DiskDateBlock</text>
</a>
</g>
</g>
<!-- Node1&#45;&gt;Node4 -->
<g id="edge3" class="edge"><title>Node1&#45;&gt;Node4</title>
<path fill="none" stroke="midnightblue" d="M46.3056,-179.429C58.5244,-191.981 76.4388,-208.49 95,-219 101.656,-222.769 109.158,-225.897 116.545,-228.453"/>
<polygon fill="midnightblue" stroke="midnightblue" points="48.561,-176.719 39.1491,-171.855 43.473,-181.527 48.561,-176.719"/>
</g>
<!-- Node5 -->
<g id="node5" class="node"><title>Node5</title>
<g id="a_node5"><a xlink:href="classH17DiskFlagsBlock.html" target="_top" xlink:title="H17DiskFlagsBlock">
<polygon fill="white" stroke="black" points="104,-190.5 104,-209.5 208,-209.5 208,-190.5 104,-190.5"/>
<text text-anchor="middle" x="156" y="-197.5" font-family="Helvetica,sans-Serif" font-size="10.00">H17DiskFlagsBlock</text>
</a>
</g>
</g>
<!-- Node1&#45;&gt;Node5 -->
<g id="edge4" class="edge"><title>Node1&#45;&gt;Node5</title>
<path fill="none" stroke="midnightblue" d="M68.9768,-173.744C86.482,-179.087 106.939,-185.331 123.51,-190.389"/>
<polygon fill="midnightblue" stroke="midnightblue" points="69.649,-170.29 59.0628,-170.718 67.6055,-176.985 69.649,-170.29"/>
</g>
<!-- Node6 -->
<g id="node6" class="node"><title>Node6</title>
<g id="a_node6"><a xlink:href="classH17DiskFormatBlock.html" target="_top" xlink:title="H17DiskFormatBlock">
<polygon fill="white" stroke="black" points="101,-152.5 101,-171.5 211,-171.5 211,-152.5 101,-152.5"/>
<text text-anchor="middle" x="156" y="-159.5" font-family="Helvetica,sans-Serif" font-size="10.00">H17DiskFormatBlock</text>
</a>
</g>
</g>
<!-- Node1&#45;&gt;Node6 -->
<g id="edge5" class="edge"><title>Node1&#45;&gt;Node6</title>
<path fill="none" stroke="midnightblue" d="M69.0648,-162C79.0451,-162 89.98,-162 100.605,-162"/>
<polygon fill="midnightblue" stroke="midnightblue" points="69.0628,-158.5 59.0628,-162 69.0628,-165.5 69.0628,-158.5"/>
</g>
<!-- Node7 -->
<g id="node7" class="node"><title>Node7</title>
<g id="a_node7"><a xlink:href="classH17DiskImagerBlock.html" target="_top" xlink:title="H17DiskImagerBlock">
<polygon fill="white" stroke="black" points="101,-114.5 101,-133.5 211,-133.5 211,-114.5 101,-114.5"/>
<text text-anchor="middle" x="156" y="-121.5" font-family="Helvetica,sans-Serif" font-size="10.00">H17DiskImagerBlock</text>
</a>
</g>
</g>
<!-- Node1&#45;&gt;Node7 -->
<g id="edge6" class="edge"><title>Node1&#45;&gt;Node7</title>
<path fill="none" stroke="midnightblue" d="M68.9768,-150.256C86.482,-144.913 106.939,-138.669 123.51,-133.611"/>
<polygon fill="midnightblue" stroke="midnightblue" points="67.6055,-147.015 59.0628,-153.282 69.649,-153.71 67.6055,-147.015"/>
</g>
<!-- Node8 -->
<g id="node8" class="node"><title>Node8</title>
<g id="a_node8"><a xlink:href="classH17DiskLabelBlock.html" target="_top" xlink:title="H17DiskLabelBlock">
<polygon fill="white" stroke="black" points="104.5,-76.5 104.5,-95.5 207.5,-95.5 207.5,-76.5 104.5,-76.5"/>
<text text-anchor="middle" x="156" y="-83.5" font-family="Helvetica,sans-Serif" font-size="10.00">H17DiskLabelBlock</text>
</a>
</g>
</g>
<!-- Node1&#45;&gt;Node8 -->
<g id="edge7" class="edge"><title>Node1&#45;&gt;Node8</title>
<path fill="none" stroke="midnightblue" d="M46.3056,-144.571C58.5244,-132.019 76.4388,-115.51 95,-105 101.656,-101.231 109.158,-98.1032 116.545,-95.5469"/>
<polygon fill="midnightblue" stroke="midnightblue" points="43.473,-142.473 39.1491,-152.145 48.561,-147.281 43.473,-142.473"/>
</g>
<!-- Node9 -->
<g id="node9" class="node"><title>Node9</title>
<g id="a_node9"><a xlink:href="classH17DiskProgramBlock.html" target="_top" xlink:title="H17DiskProgramBlock">
<polygon fill="white" stroke="black" points="98,-38.5 98,-57.5 214,-57.5 214,-38.5 98,-38.5"/>
<text text-anchor="middle" x="156" y="-45.5" font-family="Helvetica,sans-Serif" font-size="10.00">H17DiskProgramBlock</text>
</a>
</g>
</g>
<!-- Node1&#45;&gt;Node9 -->
<g id="edge8" class="edge"><title>Node1&#45;&gt;Node9</title>
<path fill="none" stroke="midnightblue" d="M38.6824,-142.974C48.8581,-121.499 68.2144,-86.9642 95,-67 100.169,-63.1475 106.142,-60.0615 112.275,-57.5934"/>
<polygon fill="midnightblue" stroke="midnightblue" points="35.3749,-141.793 34.4322,-152.346 41.7499,-144.684 35.3749,-141.793"/>
</g>
<!-- Node10 -->
<g id="node10" class="node"><title>Node10</title>
<g id="a_node10"><a xlink:href="classH17DiskRawDataBlock.html" target="_top" xlink:title="H17DiskRawDataBlock">
<polygon fill="white" stroke="black" points="95.5,-0.5 95.5,-19.5 216.5,-19.5 216.5,-0.5 95.5,-0.5"/>
<text text-anchor="middle" x="156" y="-7.5" font-family="Helvetica,sans-Serif" font-size="10.00">H17DiskRawDataBlock</text>
</a>
</g>
</g>
<!-- Node1&#45;&gt;Node10 -->
<g id="edge9" class="edge"><title>Node1&#45;&gt;Node10</title>
<path fill="none" stroke="midnightblue" d="M34.8203,-142.254C42.1745,-113.273 59.8694,-59.3772 95,-29 99.4631,-25.1407 104.713,-22.0642 110.219,-19.6119"/>
<polygon fill="midnightblue" stroke="midnightblue" points="31.3246,-141.827 32.4217,-152.365 38.1355,-143.443 31.3246,-141.827"/>
</g>
</g>
</svg>
