<?xml version="1.0" encoding="UTF-8" standalone="no"?>
<!DOCTYPE svg PUBLIC "-//W3C//DTD SVG 1.1//EN"
 "http://www.w3.org/Graphics/SVG/1.1/DTD/svg11.dtd">
<!-- Generated by graphviz version 2.38.0 (20140413.2041)
 -->
<!-- Title: H17Disk::validateCommentBlock Pages: 1 -->
<svg width="599pt" height="39pt"
 viewBox="0.00 0.00 599.00 39.00" xmlns="http://www.w3.org/2000/svg" xmlns:xlink="http://www.w3.org/1999/xlink">
<g id="graph0" class="graph" transform="scale(1 1) rotate(0) translate(4 35)">
<title>H17Disk::validateCommentBlock</title>
<polygon fill="white" stroke="none" points="-4,4 -4,-35 595,-35 595,4 -4,4"/>
<!-- Node1 -->
<g id="node1" class="node"><title>Node1</title>
<polygon fill="#bfbfbf" stroke="black" points="0,-0.5 0,-30.5 137,-30.5 137,-0.5 0,-0.5"/>
<text text-anchor="start" x="8" y="-18.5" font-family="Helvetica,sans-Serif" font-size="10.00">H17Disk::validateComment</text>
<text text-anchor="middle" x="68.5" y="-7.5" font-family="Helvetica,sans-Serif" font-size="10.00">Block</text>
</g>
<!-- Node2 -->
<g id="node2" class="node"><title>Node2</title>
<g id="a_node2"><a xlink:href="classH17Disk.html#a29f4d35fba24f0d9cee37bcb02120a6c" target="_top" xlink:title="H17Disk::validateBlock">
<polygon fill="white" stroke="black" points="173,-6 173,-25 292,-25 292,-6 173,-6"/>
<text text-anchor="middle" x="232.5" y="-13" font-family="Helvetica,sans-Serif" font-size="10.00">H17Disk::validateBlock</text>
</a>
</g>
</g>
<!-- Node1&#45;&gt;Node2 -->
<g id="edge1" class="edge"><title>Node1&#45;&gt;Node2</title>
<path fill="none" stroke="midnightblue" d="M147.281,-15.5C155.853,-15.5 164.473,-15.5 172.757,-15.5"/>
<polygon fill="midnightblue" stroke="midnightblue" points="147.264,-12.0001 137.264,-15.5 147.264,-19.0001 147.264,-12.0001"/>
</g>
<!-- Node3 -->
<g id="node3" class="node"><title>Node3</title>
<g id="a_node3"><a xlink:href="classH17Disk.html#ada058d8b970b4e72569e2fe000817f75" target="_top" xlink:title="H17Disk::decodeBuffer">
<polygon fill="white" stroke="black" points="328,-6 328,-25 447,-25 447,-6 328,-6"/>
<text text-anchor="middle" x="387.5" y="-13" font-family="Helvetica,sans-Serif" font-size="10.00">H17Disk::decodeBuffer</text>
</a>
</g>
</g>
<!-- Node2&#45;&gt;Node3 -->
<g id="edge2" class="edge"><title>Node2&#45;&gt;Node3</title>
<path fill="none" stroke="midnightblue" d="M302.493,-15.5C310.993,-15.5 319.617,-15.5 327.941,-15.5"/>
<polygon fill="midnightblue" stroke="midnightblue" points="302.216,-12.0001 292.216,-15.5 302.216,-19.0001 302.216,-12.0001"/>
</g>
<!-- Node4 -->
<g id="node4" class="node"><title>Node4</title>
<g id="a_node4"><a xlink:href="classH17Disk.html#a503d2a03bfe0f9bbe3a8bd8dc7d2ec17" target="_top" xlink:title="H17Disk::decodeFile">
<polygon fill="white" stroke="black" points="483,-6 483,-25 591,-25 591,-6 483,-6"/>
<text text-anchor="middle" x="537" y="-13" font-family="Helvetica,sans-Serif" font-size="10.00">H17Disk::decodeFile</text>
</a>
</g>
</g>
<!-- Node3&#45;&gt;Node4 -->
<g id="edge3" class="edge"><title>Node3&#45;&gt;Node4</title>
<path fill="none" stroke="midnightblue" d="M457.494,-15.5C465.976,-15.5 474.542,-15.5 482.741,-15.5"/>
<polygon fill="midnightblue" stroke="midnightblue" points="457.22,-12.0001 447.22,-15.5 457.22,-19.0001 457.22,-12.0001"/>
</g>
</g>
</svg>
