<?xml version="1.0" encoding="UTF-8" standalone="no"?>
<!DOCTYPE svg PUBLIC "-//W3C//DTD SVG 1.1//EN"
 "http://www.w3.org/Graphics/SVG/1.1/DTD/svg11.dtd">
<!-- Generated by graphviz version 2.38.0 (20140413.2041)
 -->
<!-- Title: H17Disk::validateRawSectorBlock Pages: 1 -->
<!--zoomable 39 -->
<svg id="main" version="1.1" xmlns="http://www.w3.org/2000/svg" xmlns:xlink="http://www.w3.org/1999/xlink" xml:space="preserve" onload="init(evt)">
<style type="text/css"><![CDATA[
.edge:hover path { stroke: red; }
.edge:hover polygon { stroke: red; fill: red; }
]]></style>
<script type="text/javascript"><![CDATA[
var edges = document.getElementsByTagName('g');
if (edges && edges.length) {
  for (var i=0;i<edges.length;i++) {
    if (edges[i].id.substr(0,4)=='edge') {
      edges[i].setAttribute('class','edge');
    }
  }
}
]]></script>
        <defs>
                <circle id="rim" cx="0" cy="0" r="7"/>
                <circle id="rim2" cx="0" cy="0" r="3.5"/>
                <g id="zoomPlus">
                        <use xlink:href="#rim" fill="#404040">
                                <set attributeName="fill" to="#808080" begin="zoomplus.mouseover" end="zoomplus.mouseout"/>
                        </use>
                        <path d="M-4,0h8M0,-4v8" fill="none" stroke="white" stroke-width="1.5" pointer-events="none"/>
                </g>
                <g id="zoomMin">
                        <use xlink:href="#rim" fill="#404040">
                                <set attributeName="fill" to="#808080" begin="zoomminus.mouseover" end="zoomminus.mouseout"/>
                        </use>
                        <path d="M-4,0h8" fill="none" stroke="white" stroke-width="1.5" pointer-events="none"/>
                </g>
                <g id="dirArrow">
                        <path fill="none" stroke="white" stroke-width="1.5" d="M0,-3.0v7 M-2.5,-0.5L0,-3.0L2.5,-0.5"/>
                </g>
               <g id="resetDef">
                       <use xlink:href="#rim2" fill="#404040">
                               <set attributeName="fill" to="#808080" begin="reset.mouseover" end="reset.mouseout"/>
                       </use>
               </g>
        </defs>

<script type="text/javascript">
var viewWidth = 953;
var viewHeight = 39;
var sectionId = 'dynsection-49';
</script>
<script xlink:href="svgpan.js"/>
<svg id="graph" class="graph">
<g id="viewport">
<title>H17Disk::validateRawSectorBlock</title>
<polygon fill="white" stroke="none" points="-4,4 -4,-35 949,-35 949,4 -4,4"/>
<!-- Node1 -->
<g id="node1" class="node"><title>Node1</title>
<polygon fill="#bfbfbf" stroke="black" points="0,-0.5 0,-30.5 143,-30.5 143,-0.5 0,-0.5"/>
<text text-anchor="start" x="8" y="-18.5" font-family="Helvetica,sans-Serif" font-size="10.00">H17Disk::validateRawSector</text>
<text text-anchor="middle" x="71.5" y="-7.5" font-family="Helvetica,sans-Serif" font-size="10.00">Block</text>
</g>
<!-- Node2 -->
<g id="node2" class="node"><title>Node2</title>
<g id="a_node2"><a xlink:href="classH17Disk.html#a8f0fa7dbd52e633a2faa267e453cc486" target="_top" xlink:title="H17Disk::validateRawTrack\lBlock">
<polygon fill="white" stroke="black" points="179,-0.5 179,-30.5 319,-30.5 319,-0.5 179,-0.5"/>
<text text-anchor="start" x="187" y="-18.5" font-family="Helvetica,sans-Serif" font-size="10.00">H17Disk::validateRawTrack</text>
<text text-anchor="middle" x="249" y="-7.5" font-family="Helvetica,sans-Serif" font-size="10.00">Block</text>
</a>
</g>
</g>
<!-- Node1&#45;&gt;Node2 -->
<g id="edge1" class="edge"><title>Node1&#45;&gt;Node2</title>
<path fill="none" stroke="midnightblue" d="M153.171,-15.5C161.783,-15.5 170.487,-15.5 178.947,-15.5"/>
<polygon fill="midnightblue" stroke="midnightblue" points="153.124,-12.0001 143.124,-15.5 153.124,-19.0001 153.124,-12.0001"/>
</g>
<!-- Node3 -->
<g id="node3" class="node"><title>Node3</title>
<g id="a_node3"><a xlink:href="classH17Disk.html#ae1f57f11daa4d4c624d255851838d704" target="_top" xlink:title="H17Disk::validateRawData\lBlock">
<polygon fill="white" stroke="black" points="355,-0.5 355,-30.5 491,-30.5 491,-0.5 355,-0.5"/>
<text text-anchor="start" x="363" y="-18.5" font-family="Helvetica,sans-Serif" font-size="10.00">H17Disk::validateRawData</text>
<text text-anchor="middle" x="423" y="-7.5" font-family="Helvetica,sans-Serif" font-size="10.00">Block</text>
</a>
</g>
</g>
<!-- Node2&#45;&gt;Node3 -->
<g id="edge2" class="edge"><title>Node2&#45;&gt;Node3</title>
<path fill="none" stroke="midnightblue" d="M329.654,-15.5C338.059,-15.5 346.545,-15.5 354.789,-15.5"/>
<polygon fill="midnightblue" stroke="midnightblue" points="329.463,-12.0001 319.463,-15.5 329.463,-19.0001 329.463,-12.0001"/>
</g>
<!-- Node4 -->
<g id="node4" class="node"><title>Node4</title>
<g id="a_node4"><a xlink:href="classH17Disk.html#a29f4d35fba24f0d9cee37bcb02120a6c" target="_top" xlink:title="H17Disk::validateBlock">
<polygon fill="white" stroke="black" points="527,-6 527,-25 646,-25 646,-6 527,-6"/>
<text text-anchor="middle" x="586.5" y="-13" font-family="Helvetica,sans-Serif" font-size="10.00">H17Disk::validateBlock</text>
</a>
</g>
</g>
<!-- Node3&#45;&gt;Node4 -->
<g id="edge3" class="edge"><title>Node3&#45;&gt;Node4</title>
<path fill="none" stroke="midnightblue" d="M501.178,-15.5C509.815,-15.5 518.507,-15.5 526.857,-15.5"/>
<polygon fill="midnightblue" stroke="midnightblue" points="501.088,-12.0001 491.088,-15.5 501.087,-19.0001 501.088,-12.0001"/>
</g>
<!-- Node5 -->
<g id="node5" class="node"><title>Node5</title>
<g id="a_node5"><a xlink:href="classH17Disk.html#ada058d8b970b4e72569e2fe000817f75" target="_top" xlink:title="H17Disk::decodeBuffer">
<polygon fill="white" stroke="black" points="682,-6 682,-25 801,-25 801,-6 682,-6"/>
<text text-anchor="middle" x="741.5" y="-13" font-family="Helvetica,sans-Serif" font-size="10.00">H17Disk::decodeBuffer</text>
</a>
</g>
</g>
<!-- Node4&#45;&gt;Node5 -->
<g id="edge4" class="edge"><title>Node4&#45;&gt;Node5</title>
<path fill="none" stroke="midnightblue" d="M656.493,-15.5C664.993,-15.5 673.617,-15.5 681.941,-15.5"/>
<polygon fill="midnightblue" stroke="midnightblue" points="656.216,-12.0001 646.216,-15.5 656.216,-19.0001 656.216,-12.0001"/>
</g>
<!-- Node6 -->
<g id="node6" class="node"><title>Node6</title>
<g id="a_node6"><a xlink:href="classH17Disk.html#a503d2a03bfe0f9bbe3a8bd8dc7d2ec17" target="_top" xlink:title="H17Disk::decodeFile">
<polygon fill="white" stroke="black" points="837,-6 837,-25 945,-25 945,-6 837,-6"/>
<text text-anchor="middle" x="891" y="-13" font-family="Helvetica,sans-Serif" font-size="10.00">H17Disk::decodeFile</text>
</a>
</g>
</g>
<!-- Node5&#45;&gt;Node6 -->
<g id="edge5" class="edge"><title>Node5&#45;&gt;Node6</title>
<path fill="none" stroke="midnightblue" d="M811.494,-15.5C819.976,-15.5 828.542,-15.5 836.741,-15.5"/>
<polygon fill="midnightblue" stroke="midnightblue" points="811.22,-12.0001 801.22,-15.5 811.22,-19.0001 811.22,-12.0001"/>
</g>
</g>
</svg>
        <g id="navigator" transform="translate(0 0)" fill="#404254">
                <rect fill="#f2f5e9" fill-opacity="0.5" stroke="#606060" stroke-width=".5" x="0" y="0" width="60" height="60"/>
                <use id="zoomplus" xlink:href="#zoomPlus" x="17" y="9" onmousedown="handleZoom(evt,'in')"/>
                <use id="zoomminus" xlink:href="#zoomMin" x="42" y="9" onmousedown="handleZoom(evt,'out')"/>
                <use id="reset" xlink:href="#resetDef" x="30" y="36" onmousedown="handleReset()"/>
                <g id="arrowUp" xlink:href="#dirArrow" transform="translate(30 24)" onmousedown="handlePan(0,-1)">
                  <use xlink:href="#rim" fill="#404040">
                        <set attributeName="fill" to="#808080" begin="arrowUp.mouseover" end="arrowUp.mouseout"/>
                  </use>
                  <path fill="none" stroke="white" stroke-width="1.5" d="M0,-3.0v7 M-2.5,-0.5L0,-3.0L2.5,-0.5"/>
                </g>
                <g id="arrowRight" xlink:href="#dirArrow" transform="rotate(90) translate(36 -43)" onmousedown="handlePan(1,0)">
                  <use xlink:href="#rim" fill="#404040">
                        <set attributeName="fill" to="#808080" begin="arrowRight.mouseover" end="arrowRight.mouseout"/>
                  </use>
                  <path fill="none" stroke="white" stroke-width="1.5" d="M0,-3.0v7 M-2.5,-0.5L0,-3.0L2.5,-0.5"/>
                </g>
                <g id="arrowDown" xlink:href="#dirArrow" transform="rotate(180) translate(-30 -48)" onmousedown="handlePan(0,1)">
                  <use xlink:href="#rim" fill="#404040">
                        <set attributeName="fill" to="#808080" begin="arrowDown.mouseover" end="arrowDown.mouseout"/>
                  </use>
                  <path fill="none" stroke="white" stroke-width="1.5" d="M0,-3.0v7 M-2.5,-0.5L0,-3.0L2.5,-0.5"/>
                </g>
                <g id="arrowLeft" xlink:href="#dirArrow" transform="rotate(270) translate(-36 17)" onmousedown="handlePan(-1,0)">
                  <use xlink:href="#rim" fill="#404040">
                        <set attributeName="fill" to="#808080" begin="arrowLeft.mouseover" end="arrowLeft.mouseout"/>
                  </use>
                  <path fill="none" stroke="white" stroke-width="1.5" d="M0,-3.0v7 M-2.5,-0.5L0,-3.0L2.5,-0.5"/>
                </g>
        </g>
        <svg viewBox="0 0 15 15" width="100%" height="30px" preserveAspectRatio="xMaxYMin meet">
         <g id="arrow_out" transform="scale(0.3 0.3)">
          <a xlink:href="classH17Disk_a60b9074cacd5a89f4b8e8dfb37bccf08_icgraph_org.svg" target="_base">
           <rect id="button" ry="5" rx="5" y="6" x="6" height="38" width="38"
                fill="#f2f5e9" fill-opacity="0.5" stroke="#606060" stroke-width="1.0"/>
           <path id="arrow"
             d="M 11.500037,31.436501 C 11.940474,20.09759 22.043105,11.32322 32.158766,21.979434 L 37.068811,17.246167 C 37.068811,17.246167 37.088388,32 37.088388,32 L 22.160133,31.978069 C 22.160133,31.978069 26.997745,27.140456 26.997745,27.140456 C 18.528582,18.264221 13.291696,25.230495 11.500037,31.436501 z"
             style="fill:#404040;"/>
          </a>
         </g>
        </svg>
</svg>
