<?xml version="1.0" encoding="UTF-8" standalone="no"?>
<!DOCTYPE svg PUBLIC "-//W3C//DTD SVG 1.1//EN"
 "http://www.w3.org/Graphics/SVG/1.1/DTD/svg11.dtd">
<!-- Generated by graphviz version 2.38.0 (20140413.2041)
 -->
<!-- Title: FC5025::setDensity Pages: 1 -->
<svg width="359pt" height="28pt"
 viewBox="0.00 0.00 359.00 28.00" xmlns="http://www.w3.org/2000/svg" xmlns:xlink="http://www.w3.org/1999/xlink">
<g id="graph0" class="graph" transform="scale(1 1) rotate(0) translate(4 24)">
<title>FC5025::setDensity</title>
<polygon fill="white" stroke="none" points="-4,4 -4,-24 355,-24 355,4 -4,4"/>
<!-- Node1 -->
<g id="node1" class="node"><title>Node1</title>
<polygon fill="#bfbfbf" stroke="black" points="0,-0.5 0,-19.5 104,-19.5 104,-0.5 0,-0.5"/>
<text text-anchor="middle" x="52" y="-7.5" font-family="Helvetica,sans-Serif" font-size="10.00">FC5025::setDensity</text>
</g>
<!-- Node2 -->
<g id="node2" class="node"><title>Node2</title>
<g id="a_node2"><a xlink:href="classFC5025.html#a9c372002cbdc43034ed601f022e22751" target="_top" xlink:title="FC5025::flags">
<polygon fill="white" stroke="black" points="140,-0.5 140,-19.5 218,-19.5 218,-0.5 140,-0.5"/>
<text text-anchor="middle" x="179" y="-7.5" font-family="Helvetica,sans-Serif" font-size="10.00">FC5025::flags</text>
</a>
</g>
</g>
<!-- Node1&#45;&gt;Node2 -->
<g id="edge1" class="edge"><title>Node1&#45;&gt;Node2</title>
<path fill="none" stroke="midnightblue" d="M104.203,-10C112.547,-10 121.168,-10 129.445,-10"/>
<polygon fill="midnightblue" stroke="midnightblue" points="129.7,-13.5001 139.7,-10 129.7,-6.5001 129.7,-13.5001"/>
</g>
<!-- Node3 -->
<g id="node3" class="node"><title>Node3</title>
<g id="a_node3"><a xlink:href="classFC5025.html#ac645d8e876d7121ca75db81ef99ee7f4" target="_top" xlink:title="FC5025::bulkCDB">
<polygon fill="white" stroke="black" points="254,-0.5 254,-19.5 351,-19.5 351,-0.5 254,-0.5"/>
<text text-anchor="middle" x="302.5" y="-7.5" font-family="Helvetica,sans-Serif" font-size="10.00">FC5025::bulkCDB</text>
</a>
</g>
</g>
<!-- Node2&#45;&gt;Node3 -->
<g id="edge2" class="edge"><title>Node2&#45;&gt;Node3</title>
<path fill="none" stroke="midnightblue" d="M218.11,-10C226.213,-10 234.944,-10 243.597,-10"/>
<polygon fill="midnightblue" stroke="midnightblue" points="243.678,-13.5001 253.678,-10 243.678,-6.5001 243.678,-13.5001"/>
</g>
</g>
</svg>
