<?xml version="1.0" encoding="UTF-8" standalone="no"?>
<!DOCTYPE svg PUBLIC "-//W3C//DTD SVG 1.1//EN"
 "http://www.w3.org/Graphics/SVG/1.1/DTD/svg11.dtd">
<!-- Generated by graphviz version 2.38.0 (20140413.2041)
 -->
<!-- Title: H17Disk::setDefaults Pages: 1 -->
<svg width="424pt" height="28pt"
 viewBox="0.00 0.00 424.00 28.00" xmlns="http://www.w3.org/2000/svg" xmlns:xlink="http://www.w3.org/1999/xlink">
<g id="graph0" class="graph" transform="scale(1 1) rotate(0) translate(4 24)">
<title>H17Disk::setDefaults</title>
<polygon fill="white" stroke="none" points="-4,4 -4,-24 420,-24 420,4 -4,4"/>
<!-- Node1 -->
<g id="node1" class="node"><title>Node1</title>
<polygon fill="#bfbfbf" stroke="black" points="0,-0.5 0,-19.5 111,-19.5 111,-0.5 0,-0.5"/>
<text text-anchor="middle" x="55.5" y="-7.5" font-family="Helvetica,sans-Serif" font-size="10.00">H17Disk::setDefaults</text>
</g>
<!-- Node2 -->
<g id="node2" class="node"><title>Node2</title>
<g id="a_node2"><a xlink:href="classH17Disk.html#a8e41c133b13e5c9c2c8f1d39b73d5292" target="_top" xlink:title="H17Disk::loadFile">
<polygon fill="white" stroke="black" points="147,-0.5 147,-19.5 242,-19.5 242,-0.5 147,-0.5"/>
<text text-anchor="middle" x="194.5" y="-7.5" font-family="Helvetica,sans-Serif" font-size="10.00">H17Disk::loadFile</text>
</a>
</g>
</g>
<!-- Node1&#45;&gt;Node2 -->
<g id="edge1" class="edge"><title>Node1&#45;&gt;Node2</title>
<path fill="none" stroke="midnightblue" d="M121.091,-10C129.714,-10 138.42,-10 146.659,-10"/>
<polygon fill="midnightblue" stroke="midnightblue" points="121.04,-6.5001 111.04,-10 121.04,-13.5001 121.04,-6.5001"/>
</g>
<!-- Node3 -->
<g id="node3" class="node"><title>Node3</title>
<g id="a_node3"><a xlink:href="classH17Disk.html#aa375761378f8a80cb8c5e479008c0e32" target="_top" xlink:title="H17Disk::openForRecovery">
<polygon fill="white" stroke="black" points="278,-0.5 278,-19.5 416,-19.5 416,-0.5 278,-0.5"/>
<text text-anchor="middle" x="347" y="-7.5" font-family="Helvetica,sans-Serif" font-size="10.00">H17Disk::openForRecovery</text>
</a>
</g>
</g>
<!-- Node2&#45;&gt;Node3 -->
<g id="edge2" class="edge"><title>Node2&#45;&gt;Node3</title>
<path fill="none" stroke="midnightblue" d="M252.318,-10C260.693,-10 269.392,-10 277.965,-10"/>
<polygon fill="midnightblue" stroke="midnightblue" points="252.294,-6.5001 242.294,-10 252.294,-13.5001 252.294,-6.5001"/>
</g>
</g>
</svg>
