<?xml version="1.0" encoding="UTF-8" standalone="no"?>
<!DOCTYPE svg PUBLIC "-//W3C//DTD SVG 1.1//EN"
 "http://www.w3.org/Graphics/SVG/1.1/DTD/svg11.dtd">
<!-- Generated by graphviz version 2.38.0 (20140413.2041)
 -->
<!-- Title: H17Disk::openForRecovery Pages: 1 -->
<svg width="832pt" height="332pt"
 viewBox="0.00 0.00 832.00 332.00" xmlns="http://www.w3.org/2000/svg" xmlns:xlink="http://www.w3.org/1999/xlink">
<g id="graph0" class="graph" transform="scale(1 1) rotate(0) translate(4 328)">
<title>H17Disk::openForRecovery</title>
<polygon fill="white" stroke="none" points="-4,4 -4,-328 828,-328 828,4 -4,4"/>
<!-- Node1 -->
<g id="node1" class="node"><title>Node1</title>
<polygon fill="#bfbfbf" stroke="black" points="0,-228.5 0,-247.5 138,-247.5 138,-228.5 0,-228.5"/>
<text text-anchor="middle" x="69" y="-235.5" font-family="Helvetica,sans-Serif" font-size="10.00">H17Disk::openForRecovery</text>
</g>
<!-- Node2 -->
<g id="node2" class="node"><title>Node2</title>
<g id="a_node2"><a xlink:href="classH17Disk.html#a2d9e6faca3284d426af174b18554d4a9" target="_top" xlink:title="H17Disk::openForRead">
<polygon fill="white" stroke="black" points="174,-247.5 174,-266.5 293,-266.5 293,-247.5 174,-247.5"/>
<text text-anchor="middle" x="233.5" y="-254.5" font-family="Helvetica,sans-Serif" font-size="10.00">H17Disk::openForRead</text>
</a>
</g>
</g>
<!-- Node1&#45;&gt;Node2 -->
<g id="edge1" class="edge"><title>Node1&#45;&gt;Node2</title>
<path fill="none" stroke="midnightblue" d="M138.444,-246.003C146.83,-246.983 155.403,-247.986 163.794,-248.967"/>
<polygon fill="midnightblue" stroke="midnightblue" points="163.574,-252.465 173.913,-250.15 164.387,-245.512 163.574,-252.465"/>
</g>
<!-- Node3 -->
<g id="node3" class="node"><title>Node3</title>
<g id="a_node3"><a xlink:href="classH17Disk.html#a8e41c133b13e5c9c2c8f1d39b73d5292" target="_top" xlink:title="H17Disk::loadFile">
<polygon fill="white" stroke="black" points="186,-209.5 186,-228.5 281,-228.5 281,-209.5 186,-209.5"/>
<text text-anchor="middle" x="233.5" y="-216.5" font-family="Helvetica,sans-Serif" font-size="10.00">H17Disk::loadFile</text>
</a>
</g>
</g>
<!-- Node1&#45;&gt;Node3 -->
<g id="edge2" class="edge"><title>Node1&#45;&gt;Node3</title>
<path fill="none" stroke="midnightblue" d="M138.444,-229.997C150.788,-228.554 163.536,-227.063 175.511,-225.663"/>
<polygon fill="midnightblue" stroke="midnightblue" points="176.279,-229.097 185.805,-224.46 175.466,-222.145 176.279,-229.097"/>
</g>
<!-- Node4 -->
<g id="node4" class="node"><title>Node4</title>
<g id="a_node4"><a xlink:href="classH17Disk.html#a6317e8bd90eed1f3785bcde079c72ae6" target="_top" xlink:title="H17Disk::setDefaults">
<polygon fill="white" stroke="black" points="329,-228.5 329,-247.5 440,-247.5 440,-228.5 329,-228.5"/>
<text text-anchor="middle" x="384.5" y="-235.5" font-family="Helvetica,sans-Serif" font-size="10.00">H17Disk::setDefaults</text>
</a>
</g>
</g>
<!-- Node3&#45;&gt;Node4 -->
<g id="edge3" class="edge"><title>Node3&#45;&gt;Node4</title>
<path fill="none" stroke="midnightblue" d="M281.236,-224.96C293.155,-226.48 306.182,-228.141 318.824,-229.753"/>
<polygon fill="midnightblue" stroke="midnightblue" points="318.489,-233.238 328.852,-231.031 319.375,-226.295 318.489,-233.238"/>
</g>
<!-- Node7 -->
<g id="node7" class="node"><title>Node7</title>
<g id="a_node7"><a xlink:href="classH17Disk.html#a0741de759498d3ba29f4bdef4e943590" target="_top" xlink:title="H17Disk::loadBuffer">
<polygon fill="white" stroke="black" points="332,-190.5 332,-209.5 437,-209.5 437,-190.5 332,-190.5"/>
<text text-anchor="middle" x="384.5" y="-197.5" font-family="Helvetica,sans-Serif" font-size="10.00">H17Disk::loadBuffer</text>
</a>
</g>
</g>
<!-- Node3&#45;&gt;Node7 -->
<g id="edge6" class="edge"><title>Node3&#45;&gt;Node7</title>
<path fill="none" stroke="midnightblue" d="M281.236,-213.04C294.022,-211.41 308.08,-209.617 321.573,-207.897"/>
<polygon fill="midnightblue" stroke="midnightblue" points="322.273,-211.336 331.75,-206.599 321.387,-204.392 322.273,-211.336"/>
</g>
<!-- Node5 -->
<g id="node5" class="node"><title>Node5</title>
<g id="a_node5"><a xlink:href="classH17Disk.html#ad8755a4e016bea07fd30796d7b6c1ca0" target="_top" xlink:title="H17Disk::setDefaultDiskFormat">
<polygon fill="white" stroke="black" points="476,-266.5 476,-285.5 633,-285.5 633,-266.5 476,-266.5"/>
<text text-anchor="middle" x="554.5" y="-273.5" font-family="Helvetica,sans-Serif" font-size="10.00">H17Disk::setDefaultDiskFormat</text>
</a>
</g>
</g>
<!-- Node4&#45;&gt;Node5 -->
<g id="edge4" class="edge"><title>Node4&#45;&gt;Node5</title>
<path fill="none" stroke="midnightblue" d="M427.893,-247.589C450.263,-252.649 477.898,-258.9 501.547,-264.249"/>
<polygon fill="midnightblue" stroke="midnightblue" points="500.886,-267.687 511.411,-266.48 502.43,-260.86 500.886,-267.687"/>
</g>
<!-- Node6 -->
<g id="node6" class="node"><title>Node6</title>
<g id="a_node6"><a xlink:href="classH17Disk.html#a78bd33233d9597f81e69db936efe5356" target="_top" xlink:title="H17Disk::setDefaultFlags">
<polygon fill="white" stroke="black" points="489.5,-228.5 489.5,-247.5 619.5,-247.5 619.5,-228.5 489.5,-228.5"/>
<text text-anchor="middle" x="554.5" y="-235.5" font-family="Helvetica,sans-Serif" font-size="10.00">H17Disk::setDefaultFlags</text>
</a>
</g>
</g>
<!-- Node4&#45;&gt;Node6 -->
<g id="edge5" class="edge"><title>Node4&#45;&gt;Node6</title>
<path fill="none" stroke="midnightblue" d="M440.045,-238C452.566,-238 466.087,-238 479.282,-238"/>
<polygon fill="midnightblue" stroke="midnightblue" points="479.286,-241.5 489.286,-238 479.286,-234.5 479.286,-241.5"/>
</g>
<!-- Node8 -->
<g id="node8" class="node"><title>Node8</title>
<g id="a_node8"><a xlink:href="classH17Disk.html#a96fe20794510f9235881fd62497f598f" target="_top" xlink:title="H17Disk::loadHeader">
<polygon fill="white" stroke="black" points="499.5,-190.5 499.5,-209.5 609.5,-209.5 609.5,-190.5 499.5,-190.5"/>
<text text-anchor="middle" x="554.5" y="-197.5" font-family="Helvetica,sans-Serif" font-size="10.00">H17Disk::loadHeader</text>
</a>
</g>
</g>
<!-- Node7&#45;&gt;Node8 -->
<g id="edge7" class="edge"><title>Node7&#45;&gt;Node8</title>
<path fill="none" stroke="midnightblue" d="M437.276,-200C453.564,-200 471.756,-200 488.824,-200"/>
<polygon fill="midnightblue" stroke="midnightblue" points="489.278,-203.5 499.278,-200 489.278,-196.5 489.278,-203.5"/>
</g>
<!-- Node9 -->
<g id="node9" class="node"><title>Node9</title>
<g id="a_node9"><a xlink:href="classH17Disk.html#ab5299643ce037fb442e0ccb21cb80c5f" target="_top" xlink:title="H17Disk::loadBlock">
<polygon fill="white" stroke="black" points="502.5,-152.5 502.5,-171.5 606.5,-171.5 606.5,-152.5 502.5,-152.5"/>
<text text-anchor="middle" x="554.5" y="-159.5" font-family="Helvetica,sans-Serif" font-size="10.00">H17Disk::loadBlock</text>
</a>
</g>
</g>
<!-- Node7&#45;&gt;Node9 -->
<g id="edge8" class="edge"><title>Node7&#45;&gt;Node9</title>
<path fill="none" stroke="midnightblue" d="M427.893,-190.411C450.263,-185.351 477.898,-179.1 501.547,-173.751"/>
<polygon fill="midnightblue" stroke="midnightblue" points="502.43,-177.14 511.411,-171.52 500.886,-170.313 502.43,-177.14"/>
</g>
<!-- Node10 -->
<g id="node10" class="node"><title>Node10</title>
<g id="a_node10"><a xlink:href="classH17Disk.html#a4c484465d1c422d5ce5b4661bc72dd3a" target="_top" xlink:title="H17Disk::loadDiskFormatBlock">
<polygon fill="white" stroke="black" points="669,-304.5 669,-323.5 824,-323.5 824,-304.5 669,-304.5"/>
<text text-anchor="middle" x="746.5" y="-311.5" font-family="Helvetica,sans-Serif" font-size="10.00">H17Disk::loadDiskFormatBlock</text>
</a>
</g>
</g>
<!-- Node9&#45;&gt;Node10 -->
<g id="edge9" class="edge"><title>Node9&#45;&gt;Node10</title>
<path fill="none" stroke="midnightblue" d="M606.775,-166.769C616.405,-169.696 625.72,-174.182 633,-181 671.78,-217.321 630.275,-258.62 669,-295 670.661,-296.561 672.43,-297.999 674.286,-299.323"/>
<polygon fill="midnightblue" stroke="midnightblue" points="672.524,-302.348 682.911,-304.435 676.093,-296.326 672.524,-302.348"/>
</g>
<!-- Node11 -->
<g id="node11" class="node"><title>Node11</title>
<g id="a_node11"><a xlink:href="classH17Disk.html#a8dfa864cc65f81413d3b518c6c1e67e6" target="_top" xlink:title="H17Disk::loadFlagsBlock">
<polygon fill="white" stroke="black" points="682.5,-266.5 682.5,-285.5 810.5,-285.5 810.5,-266.5 682.5,-266.5"/>
<text text-anchor="middle" x="746.5" y="-273.5" font-family="Helvetica,sans-Serif" font-size="10.00">H17Disk::loadFlagsBlock</text>
</a>
</g>
</g>
<!-- Node9&#45;&gt;Node11 -->
<g id="edge10" class="edge"><title>Node9&#45;&gt;Node11</title>
<path fill="none" stroke="midnightblue" d="M606.887,-167.806C616.288,-170.67 625.487,-174.869 633,-181 661.958,-204.63 640.078,-233.327 669,-257 671.039,-258.669 673.203,-260.194 675.463,-261.587"/>
<polygon fill="midnightblue" stroke="midnightblue" points="674.103,-264.825 684.589,-266.337 677.335,-258.616 674.103,-264.825"/>
</g>
<!-- Node12 -->
<g id="node12" class="node"><title>Node12</title>
<g id="a_node12"><a xlink:href="classH17Disk.html#a3a4c239c85de3b29d6d89c8854c8ed9b" target="_top" xlink:title="H17Disk::loadLabelBlock">
<polygon fill="white" stroke="black" points="683,-228.5 683,-247.5 810,-247.5 810,-228.5 683,-228.5"/>
<text text-anchor="middle" x="746.5" y="-235.5" font-family="Helvetica,sans-Serif" font-size="10.00">H17Disk::loadLabelBlock</text>
</a>
</g>
</g>
<!-- Node9&#45;&gt;Node12 -->
<g id="edge11" class="edge"><title>Node9&#45;&gt;Node12</title>
<path fill="none" stroke="midnightblue" d="M606.731,-170.151C615.842,-172.813 624.975,-176.336 633,-181 653.115,-192.689 648.903,-207.281 669,-219 672.724,-221.171 676.689,-223.096 680.781,-224.802"/>
<polygon fill="midnightblue" stroke="midnightblue" points="679.909,-228.211 690.502,-228.398 682.338,-221.646 679.909,-228.211"/>
</g>
<!-- Node13 -->
<g id="node13" class="node"><title>Node13</title>
<g id="a_node13"><a xlink:href="classH17Disk.html#a4b28a58f502aedd83052dbbba759ba28" target="_top" xlink:title="H17Disk::loadCommentBlock">
<polygon fill="white" stroke="black" points="673.5,-190.5 673.5,-209.5 819.5,-209.5 819.5,-190.5 673.5,-190.5"/>
<text text-anchor="middle" x="746.5" y="-197.5" font-family="Helvetica,sans-Serif" font-size="10.00">H17Disk::loadCommentBlock</text>
</a>
</g>
</g>
<!-- Node9&#45;&gt;Node13 -->
<g id="edge12" class="edge"><title>Node9&#45;&gt;Node13</title>
<path fill="none" stroke="midnightblue" d="M603.445,-171.589C629.082,-176.716 660.836,-183.067 687.816,-188.463"/>
<polygon fill="midnightblue" stroke="midnightblue" points="687.408,-191.951 697.9,-190.48 688.78,-185.087 687.408,-191.951"/>
</g>
<!-- Node14 -->
<g id="node14" class="node"><title>Node14</title>
<g id="a_node14"><a xlink:href="classH17Disk.html#a06965b624586dda02e6a1cf7ebf53984" target="_top" xlink:title="H17Disk::loadDateBlock">
<polygon fill="white" stroke="black" points="684,-152.5 684,-171.5 809,-171.5 809,-152.5 684,-152.5"/>
<text text-anchor="middle" x="746.5" y="-159.5" font-family="Helvetica,sans-Serif" font-size="10.00">H17Disk::loadDateBlock</text>
</a>
</g>
</g>
<!-- Node9&#45;&gt;Node14 -->
<g id="edge13" class="edge"><title>Node9&#45;&gt;Node14</title>
<path fill="none" stroke="midnightblue" d="M606.666,-162C627.254,-162 651.36,-162 673.654,-162"/>
<polygon fill="midnightblue" stroke="midnightblue" points="673.751,-165.5 683.751,-162 673.751,-158.5 673.751,-165.5"/>
</g>
<!-- Node15 -->
<g id="node15" class="node"><title>Node15</title>
<g id="a_node15"><a xlink:href="classH17Disk.html#a6183e4e35db3b2ae16a9322f377556e4" target="_top" xlink:title="H17Disk::loadImagerBlock">
<polygon fill="white" stroke="black" points="679.5,-114.5 679.5,-133.5 813.5,-133.5 813.5,-114.5 679.5,-114.5"/>
<text text-anchor="middle" x="746.5" y="-121.5" font-family="Helvetica,sans-Serif" font-size="10.00">H17Disk::loadImagerBlock</text>
</a>
</g>
</g>
<!-- Node9&#45;&gt;Node15 -->
<g id="edge14" class="edge"><title>Node9&#45;&gt;Node15</title>
<path fill="none" stroke="midnightblue" d="M603.445,-152.411C629.082,-147.284 660.836,-140.933 687.816,-135.537"/>
<polygon fill="midnightblue" stroke="midnightblue" points="688.78,-138.913 697.9,-133.52 687.408,-132.049 688.78,-138.913"/>
</g>
<!-- Node16 -->
<g id="node16" class="node"><title>Node16</title>
<g id="a_node16"><a xlink:href="classH17Disk.html#aead615d628b0e4c68f69bd746aeabdb1" target="_top" xlink:title="H17Disk::loadProgramBlock">
<polygon fill="white" stroke="black" points="676.5,-76.5 676.5,-95.5 816.5,-95.5 816.5,-76.5 676.5,-76.5"/>
<text text-anchor="middle" x="746.5" y="-83.5" font-family="Helvetica,sans-Serif" font-size="10.00">H17Disk::loadProgramBlock</text>
</a>
</g>
</g>
<!-- Node9&#45;&gt;Node16 -->
<g id="edge15" class="edge"><title>Node9&#45;&gt;Node16</title>
<path fill="none" stroke="midnightblue" d="M571.9,-152.3C593.514,-139.863 633.017,-118.315 669,-105 675.794,-102.486 683.05,-100.199 690.285,-98.153"/>
<polygon fill="midnightblue" stroke="midnightblue" points="691.347,-101.492 700.094,-95.5135 689.528,-94.7323 691.347,-101.492"/>
</g>
<!-- Node17 -->
<g id="node17" class="node"><title>Node17</title>
<g id="a_node17"><a xlink:href="classH17Disk.html#a36b7999d189ddc7dc05ba9adcbf3b946" target="_top" xlink:title="H17Disk::loadDataBlock">
<polygon fill="white" stroke="black" points="684,-38.5 684,-57.5 809,-57.5 809,-38.5 684,-38.5"/>
<text text-anchor="middle" x="746.5" y="-45.5" font-family="Helvetica,sans-Serif" font-size="10.00">H17Disk::loadDataBlock</text>
</a>
</g>
</g>
<!-- Node9&#45;&gt;Node17 -->
<g id="edge16" class="edge"><title>Node9&#45;&gt;Node17</title>
<path fill="none" stroke="midnightblue" d="M564.153,-152.256C581.857,-132.939 624.329,-89.7008 669,-67 673.609,-64.6577 678.524,-62.5929 683.554,-60.7747"/>
<polygon fill="midnightblue" stroke="midnightblue" points="684.907,-64.0147 693.319,-57.5742 682.726,-57.3629 684.907,-64.0147"/>
</g>
<!-- Node18 -->
<g id="node18" class="node"><title>Node18</title>
<g id="a_node18"><a xlink:href="classH17Disk.html#a31ecffc2c61fe921e9a2ef4018ce5c99" target="_top" xlink:title="H17Disk::loadRawDataBlock">
<polygon fill="white" stroke="black" points="674,-0.5 674,-19.5 819,-19.5 819,-0.5 674,-0.5"/>
<text text-anchor="middle" x="746.5" y="-7.5" font-family="Helvetica,sans-Serif" font-size="10.00">H17Disk::loadRawDataBlock</text>
</a>
</g>
</g>
<!-- Node9&#45;&gt;Node18 -->
<g id="edge17" class="edge"><title>Node9&#45;&gt;Node18</title>
<path fill="none" stroke="midnightblue" d="M560.918,-152.165C575.131,-127.328 616.076,-61.7321 669,-29 672.437,-26.8743 676.099,-24.9862 679.889,-23.3091"/>
<polygon fill="midnightblue" stroke="midnightblue" points="681.467,-26.4506 689.515,-19.5601 678.926,-19.9278 681.467,-26.4506"/>
</g>
</g>
</svg>
