<?xml version="1.0" encoding="UTF-8" standalone="no"?>
<!DOCTYPE svg PUBLIC "-//W3C//DTD SVG 1.1//EN"
 "http://www.w3.org/Graphics/SVG/1.1/DTD/svg11.dtd">
<!-- Generated by graphviz version 2.38.0 (20140413.2041)
 -->
<!-- Title: H17Disk::validateDataBlock Pages: 1 -->
<svg width="693pt" height="66pt"
 viewBox="0.00 0.00 693.00 66.00" xmlns="http://www.w3.org/2000/svg" xmlns:xlink="http://www.w3.org/1999/xlink">
<g id="graph0" class="graph" transform="scale(1 1) rotate(0) translate(4 62)">
<title>H17Disk::validateDataBlock</title>
<polygon fill="white" stroke="none" points="-4,4 -4,-62 689,-62 689,4 -4,4"/>
<!-- Node1 -->
<g id="node1" class="node"><title>Node1</title>
<polygon fill="#bfbfbf" stroke="black" points="0,-19.5 0,-38.5 140,-38.5 140,-19.5 0,-19.5"/>
<text text-anchor="middle" x="70" y="-26.5" font-family="Helvetica,sans-Serif" font-size="10.00">H17Disk::validateDataBlock</text>
</g>
<!-- Node2 -->
<g id="node2" class="node"><title>Node2</title>
<g id="a_node2"><a xlink:href="classH17Disk.html#a532c7c77626521afd001ed4a32610912" target="_top" xlink:title="H17Disk::validateTrackBlock">
<polygon fill="white" stroke="black" points="176,-19.5 176,-38.5 320,-38.5 320,-19.5 176,-19.5"/>
<text text-anchor="middle" x="248" y="-26.5" font-family="Helvetica,sans-Serif" font-size="10.00">H17Disk::validateTrackBlock</text>
</a>
</g>
</g>
<!-- Node1&#45;&gt;Node2 -->
<g id="edge1" class="edge"><title>Node1&#45;&gt;Node2</title>
<path fill="none" stroke="midnightblue" d="M140.055,-29C148.499,-29 157.188,-29 165.79,-29"/>
<polygon fill="midnightblue" stroke="midnightblue" points="165.828,-32.5001 175.828,-29 165.828,-25.5001 165.828,-32.5001"/>
</g>
<!-- Node3 -->
<g id="node3" class="node"><title>Node3</title>
<g id="a_node3"><a xlink:href="classH17Disk.html#a11e3a3c52730f4502a61f69035d7ab38" target="_top" xlink:title="H17Disk::validateSectorBlock">
<polygon fill="white" stroke="black" points="356,-19.5 356,-38.5 504,-38.5 504,-19.5 356,-19.5"/>
<text text-anchor="middle" x="430" y="-26.5" font-family="Helvetica,sans-Serif" font-size="10.00">H17Disk::validateSectorBlock</text>
</a>
</g>
</g>
<!-- Node2&#45;&gt;Node3 -->
<g id="edge2" class="edge"><title>Node2&#45;&gt;Node3</title>
<path fill="none" stroke="midnightblue" d="M320.141,-29C328.454,-29 336.993,-29 345.455,-29"/>
<polygon fill="midnightblue" stroke="midnightblue" points="345.718,-32.5001 355.718,-29 345.718,-25.5001 345.718,-32.5001"/>
</g>
<!-- Node4 -->
<g id="node4" class="node"><title>Node4</title>
<g id="a_node4"><a xlink:href="classH17Disk.html#a63841bed6a8d9e91a221dc5f72672710" target="_top" xlink:title="H17Disk::dumpSectorHeader">
<polygon fill="white" stroke="black" points="540,-38.5 540,-57.5 685,-57.5 685,-38.5 540,-38.5"/>
<text text-anchor="middle" x="612.5" y="-45.5" font-family="Helvetica,sans-Serif" font-size="10.00">H17Disk::dumpSectorHeader</text>
</a>
</g>
</g>
<!-- Node3&#45;&gt;Node4 -->
<g id="edge3" class="edge"><title>Node3&#45;&gt;Node4</title>
<path fill="none" stroke="midnightblue" d="M504.156,-36.7006C512.655,-37.5953 521.364,-38.512 529.966,-39.4175"/>
<polygon fill="midnightblue" stroke="midnightblue" points="529.685,-42.9071 539.996,-40.4733 530.417,-35.9456 529.685,-42.9071"/>
</g>
<!-- Node5 -->
<g id="node5" class="node"><title>Node5</title>
<g id="a_node5"><a xlink:href="classH17Disk.html#a8748c1a43e28a7bb8cea81e837964c54" target="_top" xlink:title="H17Disk::dumpSectorData">
<polygon fill="white" stroke="black" points="545.5,-0.5 545.5,-19.5 679.5,-19.5 679.5,-0.5 545.5,-0.5"/>
<text text-anchor="middle" x="612.5" y="-7.5" font-family="Helvetica,sans-Serif" font-size="10.00">H17Disk::dumpSectorData</text>
</a>
</g>
</g>
<!-- Node3&#45;&gt;Node5 -->
<g id="edge4" class="edge"><title>Node3&#45;&gt;Node5</title>
<path fill="none" stroke="midnightblue" d="M504.156,-21.2994C514.344,-20.227 524.833,-19.1229 535.079,-18.0444"/>
<polygon fill="midnightblue" stroke="midnightblue" points="535.644,-21.5042 545.223,-16.9765 534.911,-14.5427 535.644,-21.5042"/>
</g>
</g>
</svg>
