<?xml version="1.0" encoding="UTF-8" standalone="no"?>
<!DOCTYPE svg PUBLIC "-//W3C//DTD SVG 1.1//EN"
 "http://www.w3.org/Graphics/SVG/1.1/DTD/svg11.dtd">
<!-- Generated by graphviz version 2.38.0 (20140413.2041)
 -->
<!-- Title: H17Disk::validateSectorBlock Pages: 1 -->
<svg width="966pt" height="28pt"
 viewBox="0.00 0.00 966.00 28.00" xmlns="http://www.w3.org/2000/svg" xmlns:xlink="http://www.w3.org/1999/xlink">
<g id="graph0" class="graph" transform="scale(1 1) rotate(0) translate(4 24)">
<title>H17Disk::validateSectorBlock</title>
<polygon fill="white" stroke="none" points="-4,4 -4,-24 962,-24 962,4 -4,4"/>
<!-- Node1 -->
<g id="node1" class="node"><title>Node1</title>
<polygon fill="#bfbfbf" stroke="black" points="0,-0.5 0,-19.5 148,-19.5 148,-0.5 0,-0.5"/>
<text text-anchor="middle" x="74" y="-7.5" font-family="Helvetica,sans-Serif" font-size="10.00">H17Disk::validateSectorBlock</text>
</g>
<!-- Node2 -->
<g id="node2" class="node"><title>Node2</title>
<g id="a_node2"><a xlink:href="classH17Disk.html#a532c7c77626521afd001ed4a32610912" target="_top" xlink:title="H17Disk::validateTrackBlock">
<polygon fill="white" stroke="black" points="184,-0.5 184,-19.5 328,-19.5 328,-0.5 184,-0.5"/>
<text text-anchor="middle" x="256" y="-7.5" font-family="Helvetica,sans-Serif" font-size="10.00">H17Disk::validateTrackBlock</text>
</a>
</g>
</g>
<!-- Node1&#45;&gt;Node2 -->
<g id="edge1" class="edge"><title>Node1&#45;&gt;Node2</title>
<path fill="none" stroke="midnightblue" d="M158.225,-10C166.803,-10 175.463,-10 183.892,-10"/>
<polygon fill="midnightblue" stroke="midnightblue" points="158.213,-6.5001 148.213,-10 158.213,-13.5001 158.213,-6.5001"/>
</g>
<!-- Node3 -->
<g id="node3" class="node"><title>Node3</title>
<g id="a_node3"><a xlink:href="classH17Disk.html#a593434e6ce0538943cb044b7d0c9c273" target="_top" xlink:title="H17Disk::validateDataBlock">
<polygon fill="white" stroke="black" points="364,-0.5 364,-19.5 504,-19.5 504,-0.5 364,-0.5"/>
<text text-anchor="middle" x="434" y="-7.5" font-family="Helvetica,sans-Serif" font-size="10.00">H17Disk::validateDataBlock</text>
</a>
</g>
</g>
<!-- Node2&#45;&gt;Node3 -->
<g id="edge2" class="edge"><title>Node2&#45;&gt;Node3</title>
<path fill="none" stroke="midnightblue" d="M338.141,-10C346.764,-10 355.475,-10 363.941,-10"/>
<polygon fill="midnightblue" stroke="midnightblue" points="338.079,-6.5001 328.079,-10 338.079,-13.5001 338.079,-6.5001"/>
</g>
<!-- Node4 -->
<g id="node4" class="node"><title>Node4</title>
<g id="a_node4"><a xlink:href="classH17Disk.html#a29f4d35fba24f0d9cee37bcb02120a6c" target="_top" xlink:title="H17Disk::validateBlock">
<polygon fill="white" stroke="black" points="540,-0.5 540,-19.5 659,-19.5 659,-0.5 540,-0.5"/>
<text text-anchor="middle" x="599.5" y="-7.5" font-family="Helvetica,sans-Serif" font-size="10.00">H17Disk::validateBlock</text>
</a>
</g>
</g>
<!-- Node3&#45;&gt;Node4 -->
<g id="edge3" class="edge"><title>Node3&#45;&gt;Node4</title>
<path fill="none" stroke="midnightblue" d="M514.388,-10C522.981,-10 531.609,-10 539.891,-10"/>
<polygon fill="midnightblue" stroke="midnightblue" points="514.339,-6.5001 504.339,-10 514.339,-13.5001 514.339,-6.5001"/>
</g>
<!-- Node5 -->
<g id="node5" class="node"><title>Node5</title>
<g id="a_node5"><a xlink:href="classH17Disk.html#ada058d8b970b4e72569e2fe000817f75" target="_top" xlink:title="H17Disk::decodeBuffer">
<polygon fill="white" stroke="black" points="695,-0.5 695,-19.5 814,-19.5 814,-0.5 695,-0.5"/>
<text text-anchor="middle" x="754.5" y="-7.5" font-family="Helvetica,sans-Serif" font-size="10.00">H17Disk::decodeBuffer</text>
</a>
</g>
</g>
<!-- Node4&#45;&gt;Node5 -->
<g id="edge4" class="edge"><title>Node4&#45;&gt;Node5</title>
<path fill="none" stroke="midnightblue" d="M669.493,-10C677.993,-10 686.617,-10 694.941,-10"/>
<polygon fill="midnightblue" stroke="midnightblue" points="669.216,-6.5001 659.216,-10 669.216,-13.5001 669.216,-6.5001"/>
</g>
<!-- Node6 -->
<g id="node6" class="node"><title>Node6</title>
<g id="a_node6"><a xlink:href="classH17Disk.html#a503d2a03bfe0f9bbe3a8bd8dc7d2ec17" target="_top" xlink:title="H17Disk::decodeFile">
<polygon fill="white" stroke="black" points="850,-0.5 850,-19.5 958,-19.5 958,-0.5 850,-0.5"/>
<text text-anchor="middle" x="904" y="-7.5" font-family="Helvetica,sans-Serif" font-size="10.00">H17Disk::decodeFile</text>
</a>
</g>
</g>
<!-- Node5&#45;&gt;Node6 -->
<g id="edge5" class="edge"><title>Node5&#45;&gt;Node6</title>
<path fill="none" stroke="midnightblue" d="M824.494,-10C832.976,-10 841.542,-10 849.741,-10"/>
<polygon fill="midnightblue" stroke="midnightblue" points="824.22,-6.5001 814.22,-10 824.22,-13.5001 824.22,-6.5001"/>
</g>
</g>
</svg>
