<?xml version="1.0" encoding="UTF-8" standalone="no"?>
<!DOCTYPE svg PUBLIC "-//W3C//DTD SVG 1.1//EN"
 "http://www.w3.org/Graphics/SVG/1.1/DTD/svg11.dtd">
<!-- Generated by graphviz version 2.38.0 (20140413.2041)
 -->
<!-- Title: H17Disk::loadDateBlock Pages: 1 -->
<svg width="719pt" height="28pt"
 viewBox="0.00 0.00 719.00 28.00" xmlns="http://www.w3.org/2000/svg" xmlns:xlink="http://www.w3.org/1999/xlink">
<g id="graph0" class="graph" transform="scale(1 1) rotate(0) translate(4 24)">
<title>H17Disk::loadDateBlock</title>
<polygon fill="white" stroke="none" points="-4,4 -4,-24 715,-24 715,4 -4,4"/>
<!-- Node1 -->
<g id="node1" class="node"><title>Node1</title>
<polygon fill="#bfbfbf" stroke="black" points="0,-0.5 0,-19.5 125,-19.5 125,-0.5 0,-0.5"/>
<text text-anchor="middle" x="62.5" y="-7.5" font-family="Helvetica,sans-Serif" font-size="10.00">H17Disk::loadDateBlock</text>
</g>
<!-- Node2 -->
<g id="node2" class="node"><title>Node2</title>
<g id="a_node2"><a xlink:href="classH17Disk.html#ab5299643ce037fb442e0ccb21cb80c5f" target="_top" xlink:title="H17Disk::loadBlock">
<polygon fill="white" stroke="black" points="161,-0.5 161,-19.5 265,-19.5 265,-0.5 161,-0.5"/>
<text text-anchor="middle" x="213" y="-7.5" font-family="Helvetica,sans-Serif" font-size="10.00">H17Disk::loadBlock</text>
</a>
</g>
</g>
<!-- Node1&#45;&gt;Node2 -->
<g id="edge1" class="edge"><title>Node1&#45;&gt;Node2</title>
<path fill="none" stroke="midnightblue" d="M135.214,-10C143.797,-10 152.424,-10 160.638,-10"/>
<polygon fill="midnightblue" stroke="midnightblue" points="135.187,-6.5001 125.187,-10 135.187,-13.5001 135.187,-6.5001"/>
</g>
<!-- Node3 -->
<g id="node3" class="node"><title>Node3</title>
<g id="a_node3"><a xlink:href="classH17Disk.html#a0741de759498d3ba29f4bdef4e943590" target="_top" xlink:title="H17Disk::loadBuffer">
<polygon fill="white" stroke="black" points="301,-0.5 301,-19.5 406,-19.5 406,-0.5 301,-0.5"/>
<text text-anchor="middle" x="353.5" y="-7.5" font-family="Helvetica,sans-Serif" font-size="10.00">H17Disk::loadBuffer</text>
</a>
</g>
</g>
<!-- Node2&#45;&gt;Node3 -->
<g id="edge2" class="edge"><title>Node2&#45;&gt;Node3</title>
<path fill="none" stroke="midnightblue" d="M275.349,-10C283.779,-10 292.368,-10 300.606,-10"/>
<polygon fill="midnightblue" stroke="midnightblue" points="275.179,-6.5001 265.179,-10 275.179,-13.5001 275.179,-6.5001"/>
</g>
<!-- Node4 -->
<g id="node4" class="node"><title>Node4</title>
<g id="a_node4"><a xlink:href="classH17Disk.html#a8e41c133b13e5c9c2c8f1d39b73d5292" target="_top" xlink:title="H17Disk::loadFile">
<polygon fill="white" stroke="black" points="442,-0.5 442,-19.5 537,-19.5 537,-0.5 442,-0.5"/>
<text text-anchor="middle" x="489.5" y="-7.5" font-family="Helvetica,sans-Serif" font-size="10.00">H17Disk::loadFile</text>
</a>
</g>
</g>
<!-- Node3&#45;&gt;Node4 -->
<g id="edge3" class="edge"><title>Node3&#45;&gt;Node4</title>
<path fill="none" stroke="midnightblue" d="M416.524,-10C424.973,-10 433.527,-10 441.647,-10"/>
<polygon fill="midnightblue" stroke="midnightblue" points="416.308,-6.5001 406.308,-10 416.308,-13.5001 416.308,-6.5001"/>
</g>
<!-- Node5 -->
<g id="node5" class="node"><title>Node5</title>
<g id="a_node5"><a xlink:href="classH17Disk.html#aa375761378f8a80cb8c5e479008c0e32" target="_top" xlink:title="H17Disk::openForRecovery">
<polygon fill="white" stroke="black" points="573,-0.5 573,-19.5 711,-19.5 711,-0.5 573,-0.5"/>
<text text-anchor="middle" x="642" y="-7.5" font-family="Helvetica,sans-Serif" font-size="10.00">H17Disk::openForRecovery</text>
</a>
</g>
</g>
<!-- Node4&#45;&gt;Node5 -->
<g id="edge4" class="edge"><title>Node4&#45;&gt;Node5</title>
<path fill="none" stroke="midnightblue" d="M547.318,-10C555.693,-10 564.392,-10 572.965,-10"/>
<polygon fill="midnightblue" stroke="midnightblue" points="547.294,-6.5001 537.294,-10 547.294,-13.5001 547.294,-6.5001"/>
</g>
</g>
</svg>
