<?xml version="1.0" encoding="UTF-8" standalone="no"?>
<!DOCTYPE svg PUBLIC "-//W3C//DTD SVG 1.1//EN"
 "http://www.w3.org/Graphics/SVG/1.1/DTD/svg11.dtd">
<!-- Generated by graphviz version 2.38.0 (20140413.2041)
 -->
<!-- Title: H17Disk::validateRawSectorBlock Pages: 1 -->
<svg width="616pt" height="161pt"
 viewBox="0.00 0.00 616.00 161.00" xmlns="http://www.w3.org/2000/svg" xmlns:xlink="http://www.w3.org/1999/xlink">
<g id="graph0" class="graph" transform="scale(1 1) rotate(0) translate(4 157)">
<title>H17Disk::validateRawSectorBlock</title>
<polygon fill="white" stroke="none" points="-4,4 -4,-157 612,-157 612,4 -4,4"/>
<!-- Node1 -->
<g id="node1" class="node"><title>Node1</title>
<polygon fill="#bfbfbf" stroke="black" points="0,-71 0,-101 143,-101 143,-71 0,-71"/>
<text text-anchor="start" x="8" y="-89" font-family="Helvetica,sans-Serif" font-size="10.00">H17Disk::validateRawSector</text>
<text text-anchor="middle" x="71.5" y="-78" font-family="Helvetica,sans-Serif" font-size="10.00">Block</text>
</g>
<!-- Node2 -->
<g id="node2" class="node"><title>Node2</title>
<g id="a_node2"><a xlink:href="h17disk_8cpp.html#a9b9796dca95ff7965faf38fc4e6e00ba" target="_top" xlink:title="printBinary">
<polygon fill="white" stroke="black" points="198.5,-133.5 198.5,-152.5 261.5,-152.5 261.5,-133.5 198.5,-133.5"/>
<text text-anchor="middle" x="230" y="-140.5" font-family="Helvetica,sans-Serif" font-size="10.00">printBinary</text>
</a>
</g>
</g>
<!-- Node1&#45;&gt;Node2 -->
<g id="edge1" class="edge"><title>Node1&#45;&gt;Node2</title>
<path fill="none" stroke="midnightblue" d="M114.028,-101.125C138.591,-110.072 169.397,-121.292 192.937,-129.865"/>
<polygon fill="midnightblue" stroke="midnightblue" points="191.948,-133.23 202.542,-133.363 194.343,-126.652 191.948,-133.23"/>
</g>
<!-- Node3 -->
<g id="node3" class="node"><title>Node3</title>
<g id="a_node3"><a xlink:href="dump_8cpp.html#a7ff04c30cd9d3b0944f82794e18aa817" target="_top" xlink:title="dumpDataBlock">
<polygon fill="white" stroke="black" points="187,-95.5 187,-114.5 273,-114.5 273,-95.5 187,-95.5"/>
<text text-anchor="middle" x="230" y="-102.5" font-family="Helvetica,sans-Serif" font-size="10.00">dumpDataBlock</text>
</a>
</g>
</g>
<!-- Node1&#45;&gt;Node3 -->
<g id="edge2" class="edge"><title>Node1&#45;&gt;Node3</title>
<path fill="none" stroke="midnightblue" d="M143.424,-94.6105C154.701,-95.9796 166.182,-97.3736 176.921,-98.6773"/>
<polygon fill="midnightblue" stroke="midnightblue" points="176.609,-102.165 186.958,-99.8959 177.453,-95.2161 176.609,-102.165"/>
</g>
<!-- Node4 -->
<g id="node4" class="node"><title>Node4</title>
<g id="a_node4"><a xlink:href="classDecode.html#a287c55f9f9888c433d950c08254c1efe" target="_top" xlink:title="Decode::decodeFM">
<polygon fill="white" stroke="black" points="179,-57.5 179,-76.5 281,-76.5 281,-57.5 179,-57.5"/>
<text text-anchor="middle" x="230" y="-64.5" font-family="Helvetica,sans-Serif" font-size="10.00">Decode::decodeFM</text>
</a>
</g>
</g>
<!-- Node1&#45;&gt;Node4 -->
<g id="edge3" class="edge"><title>Node1&#45;&gt;Node4</title>
<path fill="none" stroke="midnightblue" d="M143.424,-77.3895C151.933,-76.3564 160.559,-75.3091 168.895,-74.2971"/>
<polygon fill="midnightblue" stroke="midnightblue" points="169.385,-77.7634 178.891,-73.0836 168.542,-70.8144 169.385,-77.7634"/>
</g>
<!-- Node5 -->
<g id="node5" class="node"><title>Node5</title>
<g id="a_node5"><a xlink:href="disk__util_8cpp.html#a6ca0336006e5d440e0adca49fe90a8bd" target="_top" xlink:title="processSector">
<polygon fill="white" stroke="black" points="190,-19.5 190,-38.5 270,-38.5 270,-19.5 190,-19.5"/>
<text text-anchor="middle" x="230" y="-26.5" font-family="Helvetica,sans-Serif" font-size="10.00">processSector</text>
</a>
</g>
</g>
<!-- Node1&#45;&gt;Node5 -->
<g id="edge4" class="edge"><title>Node1&#45;&gt;Node5</title>
<path fill="none" stroke="midnightblue" d="M114.028,-70.8747C138.591,-61.9285 169.397,-50.7083 192.937,-42.1346"/>
<polygon fill="midnightblue" stroke="midnightblue" points="194.343,-45.3475 202.542,-38.6365 191.948,-38.7702 194.343,-45.3475"/>
</g>
<!-- Node6 -->
<g id="node6" class="node"><title>Node6</title>
<g id="a_node6"><a xlink:href="disk__util_8cpp.html#a94517a9973c483e78d6d2a9b7ad721a9" target="_top" xlink:title="alignSector">
<polygon fill="white" stroke="black" points="331,-38.5 331,-57.5 396,-57.5 396,-38.5 331,-38.5"/>
<text text-anchor="middle" x="363.5" y="-45.5" font-family="Helvetica,sans-Serif" font-size="10.00">alignSector</text>
</a>
</g>
</g>
<!-- Node5&#45;&gt;Node6 -->
<g id="edge5" class="edge"><title>Node5&#45;&gt;Node6</title>
<path fill="none" stroke="midnightblue" d="M270.098,-34.6492C285.997,-36.9463 304.398,-39.6051 320.575,-41.9424"/>
<polygon fill="midnightblue" stroke="midnightblue" points="320.437,-45.4588 330.835,-43.4248 321.438,-38.5307 320.437,-45.4588"/>
</g>
<!-- Node9 -->
<g id="node9" class="node"><title>Node9</title>
<g id="a_node9"><a xlink:href="disk__util_8cpp.html#a71c4de342bd8034b53d392ee37b5ec97" target="_top" xlink:title="updateChecksum">
<polygon fill="white" stroke="black" points="317,-0.5 317,-19.5 410,-19.5 410,-0.5 317,-0.5"/>
<text text-anchor="middle" x="363.5" y="-7.5" font-family="Helvetica,sans-Serif" font-size="10.00">updateChecksum</text>
</a>
</g>
</g>
<!-- Node5&#45;&gt;Node9 -->
<g id="edge8" class="edge"><title>Node5&#45;&gt;Node9</title>
<path fill="none" stroke="midnightblue" d="M270.098,-23.3508C281.573,-21.6929 294.351,-19.8466 306.655,-18.0688"/>
<polygon fill="midnightblue" stroke="midnightblue" points="307.444,-21.4913 316.841,-16.5972 306.443,-14.5632 307.444,-21.4913"/>
</g>
<!-- Node7 -->
<g id="node7" class="node"><title>Node7</title>
<g id="a_node7"><a xlink:href="disk__util_8cpp.html#a6fe02d4965ce98f778a023f33b99a653" target="_top" xlink:title="shiftByte">
<polygon fill="white" stroke="black" points="446,-38.5 446,-57.5 502,-57.5 502,-38.5 446,-38.5"/>
<text text-anchor="middle" x="474" y="-45.5" font-family="Helvetica,sans-Serif" font-size="10.00">shiftByte</text>
</a>
</g>
</g>
<!-- Node6&#45;&gt;Node7 -->
<g id="edge6" class="edge"><title>Node6&#45;&gt;Node7</title>
<path fill="none" stroke="midnightblue" d="M396.174,-48C408.489,-48 422.692,-48 435.511,-48"/>
<polygon fill="midnightblue" stroke="midnightblue" points="435.881,-51.5001 445.881,-48 435.881,-44.5001 435.881,-51.5001"/>
</g>
<!-- Node8 -->
<g id="node8" class="node"><title>Node8</title>
<g id="a_node8"><a xlink:href="disk__util_8cpp.html#a921b76ac624c5bb49172b4876bb4ca5c" target="_top" xlink:title="reverseChar">
<polygon fill="white" stroke="black" points="538,-38.5 538,-57.5 608,-57.5 608,-38.5 538,-38.5"/>
<text text-anchor="middle" x="573" y="-45.5" font-family="Helvetica,sans-Serif" font-size="10.00">reverseChar</text>
</a>
</g>
</g>
<!-- Node7&#45;&gt;Node8 -->
<g id="edge7" class="edge"><title>Node7&#45;&gt;Node8</title>
<path fill="none" stroke="midnightblue" d="M502.02,-48C509.998,-48 518.947,-48 527.712,-48"/>
<polygon fill="midnightblue" stroke="midnightblue" points="527.846,-51.5001 537.846,-48 527.846,-44.5001 527.846,-51.5001"/>
</g>
</g>
</svg>
