<?xml version="1.0" encoding="UTF-8" standalone="no"?>
<!DOCTYPE svg PUBLIC "-//W3C//DTD SVG 1.1//EN"
 "http://www.w3.org/Graphics/SVG/1.1/DTD/svg11.dtd">
<!-- Generated by graphviz version 2.38.0 (20140413.2041)
 -->
<!-- Title: H17Block::getBlockSize Pages: 1 -->
<svg width="297pt" height="66pt"
 viewBox="0.00 0.00 297.00 66.00" xmlns="http://www.w3.org/2000/svg" xmlns:xlink="http://www.w3.org/1999/xlink">
<g id="graph0" class="graph" transform="scale(1 1) rotate(0) translate(4 62)">
<title>H17Block::getBlockSize</title>
<polygon fill="white" stroke="none" points="-4,4 -4,-62 293,-62 293,4 -4,4"/>
<!-- Node1 -->
<g id="node1" class="node"><title>Node1</title>
<polygon fill="#bfbfbf" stroke="black" points="0,-19.5 0,-38.5 123,-38.5 123,-19.5 0,-19.5"/>
<text text-anchor="middle" x="61.5" y="-26.5" font-family="Helvetica,sans-Serif" font-size="10.00">H17Block::getBlockSize</text>
</g>
<!-- Node2 -->
<g id="node2" class="node"><title>Node2</title>
<g id="a_node2"><a xlink:href="classH17Block.html#ad71ae203afc8713d4ee7416757fadbbe" target="_top" xlink:title="H17Block::getHeaderSize">
<polygon fill="white" stroke="black" points="159,-38.5 159,-57.5 289,-57.5 289,-38.5 159,-38.5"/>
<text text-anchor="middle" x="224" y="-45.5" font-family="Helvetica,sans-Serif" font-size="10.00">H17Block::getHeaderSize</text>
</a>
</g>
</g>
<!-- Node1&#45;&gt;Node2 -->
<g id="edge1" class="edge"><title>Node1&#45;&gt;Node2</title>
<path fill="none" stroke="midnightblue" d="M123.178,-36.1831C131.537,-37.1725 140.197,-38.1977 148.765,-39.212"/>
<polygon fill="midnightblue" stroke="midnightblue" points="148.415,-42.695 158.757,-40.3949 149.238,-35.7435 148.415,-42.695"/>
</g>
<!-- Node3 -->
<g id="node3" class="node"><title>Node3</title>
<g id="a_node3"><a xlink:href="classH17Block.html#aa2e87b141623b4c897c5337ea0535d1c" target="_top" xlink:title="H17Block::getDataSize">
<polygon fill="white" stroke="black" points="164.5,-0.5 164.5,-19.5 283.5,-19.5 283.5,-0.5 164.5,-0.5"/>
<text text-anchor="middle" x="224" y="-7.5" font-family="Helvetica,sans-Serif" font-size="10.00">H17Block::getDataSize</text>
</a>
</g>
</g>
<!-- Node1&#45;&gt;Node3 -->
<g id="edge2" class="edge"><title>Node1&#45;&gt;Node3</title>
<path fill="none" stroke="midnightblue" d="M123.178,-21.8169C133.298,-20.6189 143.86,-19.3686 154.166,-18.1486"/>
<polygon fill="midnightblue" stroke="midnightblue" points="154.841,-21.5932 164.36,-16.9418 154.018,-14.6417 154.841,-21.5932"/>
</g>
</g>
</svg>
