<?xml version="1.0" encoding="UTF-8" standalone="no"?>
<!DOCTYPE svg PUBLIC "-//W3C//DTD SVG 1.1//EN"
 "http://www.w3.org/Graphics/SVG/1.1/DTD/svg11.dtd">
<!-- Generated by graphviz version 2.38.0 (20140413.2041)
 -->
<!-- Title: H17Block::dumpText Pages: 1 -->
<svg width="286pt" height="215pt"
 viewBox="0.00 0.00 286.00 214.50" xmlns="http://www.w3.org/2000/svg" xmlns:xlink="http://www.w3.org/1999/xlink">
<g id="graph0" class="graph" transform="scale(1 1) rotate(0) translate(4 210.5)">
<title>H17Block::dumpText</title>
<polygon fill="white" stroke="none" points="-4,4 -4,-210.5 282,-210.5 282,4 -4,4"/>
<!-- Node1 -->
<g id="node1" class="node"><title>Node1</title>
<polygon fill="#bfbfbf" stroke="black" points="0,-99 0,-118 109,-118 109,-99 0,-99"/>
<text text-anchor="middle" x="54.5" y="-106" font-family="Helvetica,sans-Serif" font-size="10.00">H17Block::dumpText</text>
</g>
<!-- Node2 -->
<g id="node2" class="node"><title>Node2</title>
<g id="a_node2"><a xlink:href="classH17DiskLabelBlock.html#a17e76ed05551204e4140457c11a89409" target="_top" xlink:title="H17DiskLabelBlock::dump">
<polygon fill="white" stroke="black" points="145,-187 145,-206 278,-206 278,-187 145,-187"/>
<text text-anchor="middle" x="211.5" y="-194" font-family="Helvetica,sans-Serif" font-size="10.00">H17DiskLabelBlock::dump</text>
</a>
</g>
</g>
<!-- Node1&#45;&gt;Node2 -->
<g id="edge1" class="edge"><title>Node1&#45;&gt;Node2</title>
<path fill="none" stroke="midnightblue" d="M72.8912,-125.144C89.9992,-140.691 117.484,-163.538 145,-177.5 152.391,-181.25 160.638,-184.37 168.719,-186.924"/>
<polygon fill="midnightblue" stroke="midnightblue" points="75.0836,-122.404 65.3717,-118.169 70.3232,-127.536 75.0836,-122.404"/>
</g>
<!-- Node3 -->
<g id="node3" class="node"><title>Node3</title>
<g id="a_node3"><a xlink:href="classH17DiskCommentBlock.html#a9669888b64599e1b879ceaa6efb1bb71" target="_top" xlink:title="H17DiskCommentBlock\l::dump">
<polygon fill="white" stroke="black" points="150.5,-137.5 150.5,-167.5 272.5,-167.5 272.5,-137.5 150.5,-137.5"/>
<text text-anchor="start" x="158.5" y="-155.5" font-family="Helvetica,sans-Serif" font-size="10.00">H17DiskCommentBlock</text>
<text text-anchor="middle" x="211.5" y="-144.5" font-family="Helvetica,sans-Serif" font-size="10.00">::dump</text>
</a>
</g>
</g>
<!-- Node1&#45;&gt;Node3 -->
<g id="edge2" class="edge"><title>Node1&#45;&gt;Node3</title>
<path fill="none" stroke="midnightblue" d="M98.871,-120.812C117.04,-125.969 138.336,-132.015 157.429,-137.435"/>
<polygon fill="midnightblue" stroke="midnightblue" points="99.7084,-117.411 89.1327,-118.047 97.7968,-124.145 99.7084,-117.411"/>
</g>
<!-- Node4 -->
<g id="node4" class="node"><title>Node4</title>
<g id="a_node4"><a xlink:href="classH17DiskDateBlock.html#a76a79e028f53a6f53a1443a3e6a99077" target="_top" xlink:title="H17DiskDateBlock::dump">
<polygon fill="white" stroke="black" points="146,-99 146,-118 277,-118 277,-99 146,-99"/>
<text text-anchor="middle" x="211.5" y="-106" font-family="Helvetica,sans-Serif" font-size="10.00">H17DiskDateBlock::dump</text>
</a>
</g>
</g>
<!-- Node1&#45;&gt;Node4 -->
<g id="edge3" class="edge"><title>Node1&#45;&gt;Node4</title>
<path fill="none" stroke="midnightblue" d="M119.401,-108.5C128.143,-108.5 137.123,-108.5 145.877,-108.5"/>
<polygon fill="midnightblue" stroke="midnightblue" points="119.277,-105 109.276,-108.5 119.276,-112 119.277,-105"/>
</g>
<!-- Node5 -->
<g id="node5" class="node"><title>Node5</title>
<g id="a_node5"><a xlink:href="classH17DiskImagerBlock.html#a457c26e0bcb745fac78eb33c36d8c3cb" target="_top" xlink:title="H17DiskImagerBlock\l::dump">
<polygon fill="white" stroke="black" points="156.5,-49.5 156.5,-79.5 266.5,-79.5 266.5,-49.5 156.5,-49.5"/>
<text text-anchor="start" x="164.5" y="-67.5" font-family="Helvetica,sans-Serif" font-size="10.00">H17DiskImagerBlock</text>
<text text-anchor="middle" x="211.5" y="-56.5" font-family="Helvetica,sans-Serif" font-size="10.00">::dump</text>
</a>
</g>
</g>
<!-- Node1&#45;&gt;Node5 -->
<g id="edge4" class="edge"><title>Node1&#45;&gt;Node5</title>
<path fill="none" stroke="midnightblue" d="M98.871,-96.1882C117.04,-91.0306 138.336,-84.9852 157.429,-79.5654"/>
<polygon fill="midnightblue" stroke="midnightblue" points="97.7968,-92.8548 89.1327,-98.9527 99.7084,-99.5887 97.7968,-92.8548"/>
</g>
<!-- Node6 -->
<g id="node6" class="node"><title>Node6</title>
<g id="a_node6"><a xlink:href="classH17DiskProgramBlock.html#abe16891a04370f40c53fc43354aa9025" target="_top" xlink:title="H17DiskProgramBlock\l::dump">
<polygon fill="white" stroke="black" points="153.5,-0.5 153.5,-30.5 269.5,-30.5 269.5,-0.5 153.5,-0.5"/>
<text text-anchor="start" x="161.5" y="-18.5" font-family="Helvetica,sans-Serif" font-size="10.00">H17DiskProgramBlock</text>
<text text-anchor="middle" x="211.5" y="-7.5" font-family="Helvetica,sans-Serif" font-size="10.00">::dump</text>
</a>
</g>
</g>
<!-- Node1&#45;&gt;Node6 -->
<g id="edge5" class="edge"><title>Node1&#45;&gt;Node6</title>
<path fill="none" stroke="midnightblue" d="M73.7709,-92.1164C91.1353,-77.1747 118.467,-55.2431 145,-40.5 151.49,-36.8938 158.606,-33.5867 165.682,-30.6409"/>
<polygon fill="midnightblue" stroke="midnightblue" points="71.3192,-89.6108 66.0945,-98.8278 75.9266,-94.8807 71.3192,-89.6108"/>
</g>
</g>
</svg>
