<?xml version="1.0" encoding="UTF-8" standalone="no"?>
<!DOCTYPE svg PUBLIC "-//W3C//DTD SVG 1.1//EN"
 "http://www.w3.org/Graphics/SVG/1.1/DTD/svg11.dtd">
<!-- Generated by graphviz version 2.38.0 (20140413.2041)
 -->
<!-- Title: H17Block::getData Pages: 1 -->
<svg width="391pt" height="28pt"
 viewBox="0.00 0.00 391.00 28.00" xmlns="http://www.w3.org/2000/svg" xmlns:xlink="http://www.w3.org/1999/xlink">
<g id="graph0" class="graph" transform="scale(1 1) rotate(0) translate(4 24)">
<title>H17Block::getData</title>
<polygon fill="white" stroke="none" points="-4,4 -4,-24 387,-24 387,4 -4,4"/>
<!-- Node1 -->
<g id="node1" class="node"><title>Node1</title>
<polygon fill="#bfbfbf" stroke="black" points="0,-0.5 0,-19.5 100,-19.5 100,-0.5 0,-0.5"/>
<text text-anchor="middle" x="50" y="-7.5" font-family="Helvetica,sans-Serif" font-size="10.00">H17Block::getData</text>
</g>
<!-- Node2 -->
<g id="node2" class="node"><title>Node2</title>
<g id="a_node2"><a xlink:href="classH17Block.html#a59901675cd140c907fb6de4c8e0452d5" target="_top" xlink:title="H17Block::writeToFile">
<polygon fill="white" stroke="black" points="136,-0.5 136,-19.5 249,-19.5 249,-0.5 136,-0.5"/>
<text text-anchor="middle" x="192.5" y="-7.5" font-family="Helvetica,sans-Serif" font-size="10.00">H17Block::writeToFile</text>
</a>
</g>
</g>
<!-- Node1&#45;&gt;Node2 -->
<g id="edge1" class="edge"><title>Node1&#45;&gt;Node2</title>
<path fill="none" stroke="midnightblue" d="M110.335,-10C118.81,-10 127.502,-10 135.901,-10"/>
<polygon fill="midnightblue" stroke="midnightblue" points="110.14,-6.5001 100.14,-10 110.14,-13.5001 110.14,-6.5001"/>
</g>
<!-- Node3 -->
<g id="node3" class="node"><title>Node3</title>
<g id="a_node3"><a xlink:href="classH17Disk.html#adfb88c5c9f3c67a0923a4d24e5efe791" target="_top" xlink:title="H17Disk::saveFile">
<polygon fill="white" stroke="black" points="285,-0.5 285,-19.5 383,-19.5 383,-0.5 285,-0.5"/>
<text text-anchor="middle" x="334" y="-7.5" font-family="Helvetica,sans-Serif" font-size="10.00">H17Disk::saveFile</text>
</a>
</g>
</g>
<!-- Node2&#45;&gt;Node3 -->
<g id="edge2" class="edge"><title>Node2&#45;&gt;Node3</title>
<path fill="none" stroke="midnightblue" d="M259.139,-10C267.808,-10 276.561,-10 284.861,-10"/>
<polygon fill="midnightblue" stroke="midnightblue" points="259.035,-6.5001 249.035,-10 259.035,-13.5001 259.035,-6.5001"/>
</g>
</g>
</svg>
