<?xml version="1.0" encoding="UTF-8" standalone="no"?>
<!DOCTYPE svg PUBLIC "-//W3C//DTD SVG 1.1//EN"
 "http://www.w3.org/Graphics/SVG/1.1/DTD/svg11.dtd">
<!-- Generated by graphviz version 2.38.0 (20140413.2041)
 -->
<!-- Title: HeathHSDisk::readSector Pages: 1 -->
<svg width="604pt" height="161pt"
 viewBox="0.00 0.00 604.00 161.00" xmlns="http://www.w3.org/2000/svg" xmlns:xlink="http://www.w3.org/1999/xlink">
<g id="graph0" class="graph" transform="scale(1 1) rotate(0) translate(4 157)">
<title>HeathHSDisk::readSector</title>
<polygon fill="white" stroke="none" points="-4,4 -4,-157 600,-157 600,4 -4,4"/>
<!-- Node1 -->
<g id="node1" class="node"><title>Node1</title>
<polygon fill="#bfbfbf" stroke="black" points="0,-76.5 0,-95.5 131,-95.5 131,-76.5 0,-76.5"/>
<text text-anchor="middle" x="65.5" y="-83.5" font-family="Helvetica,sans-Serif" font-size="10.00">HeathHSDisk::readSector</text>
</g>
<!-- Node2 -->
<g id="node2" class="node"><title>Node2</title>
<g id="a_node2"><a xlink:href="classFC5025.html#a3fa1262c4bde8788a2d71d07dfc88630" target="_top" xlink:title="FC5025::inst">
<polygon fill="white" stroke="black" points="181.5,-133.5 181.5,-152.5 254.5,-152.5 254.5,-133.5 181.5,-133.5"/>
<text text-anchor="middle" x="218" y="-140.5" font-family="Helvetica,sans-Serif" font-size="10.00">FC5025::inst</text>
</a>
</g>
</g>
<!-- Node1&#45;&gt;Node2 -->
<g id="edge1" class="edge"><title>Node1&#45;&gt;Node2</title>
<path fill="none" stroke="midnightblue" d="M91.6903,-95.5405C116.433,-104.912 154.391,-119.288 182.048,-129.762"/>
<polygon fill="midnightblue" stroke="midnightblue" points="181.136,-133.16 191.728,-133.428 183.615,-126.613 181.136,-133.16"/>
</g>
<!-- Node4 -->
<g id="node4" class="node"><title>Node4</title>
<g id="a_node4"><a xlink:href="classFC5025.html#ac645d8e876d7121ca75db81ef99ee7f4" target="_top" xlink:title="FC5025::bulkCDB">
<polygon fill="white" stroke="black" points="169.5,-95.5 169.5,-114.5 266.5,-114.5 266.5,-95.5 169.5,-95.5"/>
<text text-anchor="middle" x="218" y="-102.5" font-family="Helvetica,sans-Serif" font-size="10.00">FC5025::bulkCDB</text>
</a>
</g>
</g>
<!-- Node1&#45;&gt;Node4 -->
<g id="edge3" class="edge"><title>Node1&#45;&gt;Node4</title>
<path fill="none" stroke="midnightblue" d="M131.199,-94.168C140.461,-95.3372 149.94,-96.5339 159.06,-97.6853"/>
<polygon fill="midnightblue" stroke="midnightblue" points="158.814,-101.182 169.174,-98.9622 159.691,-94.2371 158.814,-101.182"/>
</g>
<!-- Node5 -->
<g id="node5" class="node"><title>Node5</title>
<g id="a_node5"><a xlink:href="classDecode.html#a287c55f9f9888c433d950c08254c1efe" target="_top" xlink:title="Decode::decodeFM">
<polygon fill="white" stroke="black" points="167,-57.5 167,-76.5 269,-76.5 269,-57.5 167,-57.5"/>
<text text-anchor="middle" x="218" y="-64.5" font-family="Helvetica,sans-Serif" font-size="10.00">Decode::decodeFM</text>
</a>
</g>
</g>
<!-- Node1&#45;&gt;Node5 -->
<g id="edge4" class="edge"><title>Node1&#45;&gt;Node5</title>
<path fill="none" stroke="midnightblue" d="M131.199,-77.832C139.695,-76.7594 148.374,-75.6637 156.791,-74.6011"/>
<polygon fill="midnightblue" stroke="midnightblue" points="157.416,-78.0501 166.899,-73.3251 156.539,-71.1052 157.416,-78.0501"/>
</g>
<!-- Node6 -->
<g id="node6" class="node"><title>Node6</title>
<g id="a_node6"><a xlink:href="disk__util_8cpp.html#a6ca0336006e5d440e0adca49fe90a8bd" target="_top" xlink:title="processSector">
<polygon fill="white" stroke="black" points="178,-19.5 178,-38.5 258,-38.5 258,-19.5 178,-19.5"/>
<text text-anchor="middle" x="218" y="-26.5" font-family="Helvetica,sans-Serif" font-size="10.00">processSector</text>
</a>
</g>
</g>
<!-- Node1&#45;&gt;Node6 -->
<g id="edge5" class="edge"><title>Node1&#45;&gt;Node6</title>
<path fill="none" stroke="midnightblue" d="M91.6903,-76.4595C116.433,-67.0884 154.391,-52.7124 182.048,-42.2377"/>
<polygon fill="midnightblue" stroke="midnightblue" points="183.615,-45.3867 191.728,-38.5716 181.136,-38.8405 183.615,-45.3867"/>
</g>
<!-- Node3 -->
<g id="node3" class="node"><title>Node3</title>
<g id="a_node3"><a xlink:href="classFC5025.html#a01786b9fd3a20919da5e702794fa95e6" target="_top" xlink:title="FC5025::FC5025">
<polygon fill="white" stroke="black" points="305.5,-133.5 305.5,-152.5 397.5,-152.5 397.5,-133.5 305.5,-133.5"/>
<text text-anchor="middle" x="351.5" y="-140.5" font-family="Helvetica,sans-Serif" font-size="10.00">FC5025::FC5025</text>
</a>
</g>
</g>
<!-- Node2&#45;&gt;Node3 -->
<g id="edge2" class="edge"><title>Node2&#45;&gt;Node3</title>
<path fill="none" stroke="midnightblue" d="M254.586,-143C267.072,-143 281.411,-143 295.132,-143"/>
<polygon fill="midnightblue" stroke="midnightblue" points="295.462,-146.5 305.462,-143 295.462,-139.5 295.462,-146.5"/>
</g>
<!-- Node7 -->
<g id="node7" class="node"><title>Node7</title>
<g id="a_node7"><a xlink:href="disk__util_8cpp.html#a94517a9973c483e78d6d2a9b7ad721a9" target="_top" xlink:title="alignSector">
<polygon fill="white" stroke="black" points="319,-38.5 319,-57.5 384,-57.5 384,-38.5 319,-38.5"/>
<text text-anchor="middle" x="351.5" y="-45.5" font-family="Helvetica,sans-Serif" font-size="10.00">alignSector</text>
</a>
</g>
</g>
<!-- Node6&#45;&gt;Node7 -->
<g id="edge6" class="edge"><title>Node6&#45;&gt;Node7</title>
<path fill="none" stroke="midnightblue" d="M258.098,-34.6492C273.997,-36.9463 292.398,-39.6051 308.575,-41.9424"/>
<polygon fill="midnightblue" stroke="midnightblue" points="308.437,-45.4588 318.835,-43.4248 309.438,-38.5307 308.437,-45.4588"/>
</g>
<!-- Node10 -->
<g id="node10" class="node"><title>Node10</title>
<g id="a_node10"><a xlink:href="disk__util_8cpp.html#a71c4de342bd8034b53d392ee37b5ec97" target="_top" xlink:title="updateChecksum">
<polygon fill="white" stroke="black" points="305,-0.5 305,-19.5 398,-19.5 398,-0.5 305,-0.5"/>
<text text-anchor="middle" x="351.5" y="-7.5" font-family="Helvetica,sans-Serif" font-size="10.00">updateChecksum</text>
</a>
</g>
</g>
<!-- Node6&#45;&gt;Node10 -->
<g id="edge9" class="edge"><title>Node6&#45;&gt;Node10</title>
<path fill="none" stroke="midnightblue" d="M258.098,-23.3508C269.573,-21.6929 282.351,-19.8466 294.655,-18.0688"/>
<polygon fill="midnightblue" stroke="midnightblue" points="295.444,-21.4913 304.841,-16.5972 294.443,-14.5632 295.444,-21.4913"/>
</g>
<!-- Node8 -->
<g id="node8" class="node"><title>Node8</title>
<g id="a_node8"><a xlink:href="disk__util_8cpp.html#a6fe02d4965ce98f778a023f33b99a653" target="_top" xlink:title="shiftByte">
<polygon fill="white" stroke="black" points="434,-38.5 434,-57.5 490,-57.5 490,-38.5 434,-38.5"/>
<text text-anchor="middle" x="462" y="-45.5" font-family="Helvetica,sans-Serif" font-size="10.00">shiftByte</text>
</a>
</g>
</g>
<!-- Node7&#45;&gt;Node8 -->
<g id="edge7" class="edge"><title>Node7&#45;&gt;Node8</title>
<path fill="none" stroke="midnightblue" d="M384.174,-48C396.489,-48 410.692,-48 423.511,-48"/>
<polygon fill="midnightblue" stroke="midnightblue" points="423.881,-51.5001 433.881,-48 423.881,-44.5001 423.881,-51.5001"/>
</g>
<!-- Node9 -->
<g id="node9" class="node"><title>Node9</title>
<g id="a_node9"><a xlink:href="disk__util_8cpp.html#a921b76ac624c5bb49172b4876bb4ca5c" target="_top" xlink:title="reverseChar">
<polygon fill="white" stroke="black" points="526,-38.5 526,-57.5 596,-57.5 596,-38.5 526,-38.5"/>
<text text-anchor="middle" x="561" y="-45.5" font-family="Helvetica,sans-Serif" font-size="10.00">reverseChar</text>
</a>
</g>
</g>
<!-- Node8&#45;&gt;Node9 -->
<g id="edge8" class="edge"><title>Node8&#45;&gt;Node9</title>
<path fill="none" stroke="midnightblue" d="M490.02,-48C497.998,-48 506.947,-48 515.712,-48"/>
<polygon fill="midnightblue" stroke="midnightblue" points="515.846,-51.5001 525.846,-48 515.846,-44.5001 515.846,-51.5001"/>
</g>
</g>
</svg>
