<?xml version="1.0" encoding="UTF-8" standalone="no"?>
<!DOCTYPE svg PUBLIC "-//W3C//DTD SVG 1.1//EN"
 "http://www.w3.org/Graphics/SVG/1.1/DTD/svg11.dtd">
<!-- Generated by graphviz version 2.38.0 (20140413.2041)
 -->
<!-- Title: H17Disk::setDefaults Pages: 1 -->
<svg width="312pt" height="66pt"
 viewBox="0.00 0.00 312.00 66.00" xmlns="http://www.w3.org/2000/svg" xmlns:xlink="http://www.w3.org/1999/xlink">
<g id="graph0" class="graph" transform="scale(1 1) rotate(0) translate(4 62)">
<title>H17Disk::setDefaults</title>
<polygon fill="white" stroke="none" points="-4,4 -4,-62 308,-62 308,4 -4,4"/>
<!-- Node1 -->
<g id="node1" class="node"><title>Node1</title>
<polygon fill="#bfbfbf" stroke="black" points="0,-19.5 0,-38.5 111,-38.5 111,-19.5 0,-19.5"/>
<text text-anchor="middle" x="55.5" y="-26.5" font-family="Helvetica,sans-Serif" font-size="10.00">H17Disk::setDefaults</text>
</g>
<!-- Node2 -->
<g id="node2" class="node"><title>Node2</title>
<g id="a_node2"><a xlink:href="classH17Disk.html#ad8755a4e016bea07fd30796d7b6c1ca0" target="_top" xlink:title="H17Disk::setDefaultDiskFormat">
<polygon fill="white" stroke="black" points="147,-38.5 147,-57.5 304,-57.5 304,-38.5 147,-38.5"/>
<text text-anchor="middle" x="225.5" y="-45.5" font-family="Helvetica,sans-Serif" font-size="10.00">H17Disk::setDefaultDiskFormat</text>
</a>
</g>
</g>
<!-- Node1&#45;&gt;Node2 -->
<g id="edge1" class="edge"><title>Node1&#45;&gt;Node2</title>
<path fill="none" stroke="midnightblue" d="M111.045,-35.1688C119.24,-36.0955 127.863,-37.0708 136.542,-38.0524"/>
<polygon fill="midnightblue" stroke="midnightblue" points="136.405,-41.5591 146.735,-39.2051 137.191,-34.6034 136.405,-41.5591"/>
</g>
<!-- Node3 -->
<g id="node3" class="node"><title>Node3</title>
<g id="a_node3"><a xlink:href="classH17Disk.html#a78bd33233d9597f81e69db936efe5356" target="_top" xlink:title="H17Disk::setDefaultFlags">
<polygon fill="white" stroke="black" points="160.5,-0.5 160.5,-19.5 290.5,-19.5 290.5,-0.5 160.5,-0.5"/>
<text text-anchor="middle" x="225.5" y="-7.5" font-family="Helvetica,sans-Serif" font-size="10.00">H17Disk::setDefaultFlags</text>
</a>
</g>
</g>
<!-- Node1&#45;&gt;Node3 -->
<g id="edge2" class="edge"><title>Node1&#45;&gt;Node3</title>
<path fill="none" stroke="midnightblue" d="M111.045,-22.8312C123.566,-21.4152 137.087,-19.886 150.282,-18.3937"/>
<polygon fill="midnightblue" stroke="midnightblue" points="150.743,-21.864 160.286,-17.2623 149.956,-14.9083 150.743,-21.864"/>
</g>
</g>
</svg>
