<?xml version="1.0" encoding="UTF-8" standalone="no"?>
<!DOCTYPE svg PUBLIC "-//W3C//DTD SVG 1.1//EN"
 "http://www.w3.org/Graphics/SVG/1.1/DTD/svg11.dtd">
<!-- Generated by graphviz version 2.38.0 (20140413.2041)
 -->
<!-- Title: FC5025::internalSeek Pages: 1 -->
<svg width="257pt" height="66pt"
 viewBox="0.00 0.00 257.00 66.00" xmlns="http://www.w3.org/2000/svg" xmlns:xlink="http://www.w3.org/1999/xlink">
<g id="graph0" class="graph" transform="scale(1 1) rotate(0) translate(4 62)">
<title>FC5025::internalSeek</title>
<polygon fill="white" stroke="none" points="-4,4 -4,-62 253,-62 253,4 -4,4"/>
<!-- Node1 -->
<g id="node1" class="node"><title>Node1</title>
<polygon fill="#bfbfbf" stroke="black" points="0,-19.5 0,-38.5 111,-38.5 111,-19.5 0,-19.5"/>
<text text-anchor="middle" x="55.5" y="-26.5" font-family="Helvetica,sans-Serif" font-size="10.00">FC5025::internalSeek</text>
</g>
<!-- Node2 -->
<g id="node2" class="node"><title>Node2</title>
<g id="a_node2"><a xlink:href="classFC5025.html#a867a0dfff92f111697ca74655bb42d26" target="_top" xlink:title="FC5025::recalibrate">
<polygon fill="white" stroke="black" points="147,-38.5 147,-57.5 249,-57.5 249,-38.5 147,-38.5"/>
<text text-anchor="middle" x="198" y="-45.5" font-family="Helvetica,sans-Serif" font-size="10.00">FC5025::recalibrate</text>
</a>
</g>
</g>
<!-- Node1&#45;&gt;Node2 -->
<g id="edge1" class="edge"><title>Node1&#45;&gt;Node2</title>
<path fill="none" stroke="midnightblue" d="M121.218,-37.7519C129.802,-38.9127 138.496,-40.0884 146.785,-41.2093"/>
<polygon fill="midnightblue" stroke="midnightblue" points="121.602,-34.2721 111.223,-36.4003 120.664,-41.2089 121.602,-34.2721"/>
</g>
<!-- Node3 -->
<g id="node3" class="node"><title>Node3</title>
<g id="a_node3"><a xlink:href="classFC5025.html#ab38385df803acdde0c55e472669ffc2d" target="_top" xlink:title="FC5025::seek">
<polygon fill="white" stroke="black" points="159,-0.5 159,-19.5 237,-19.5 237,-0.5 159,-0.5"/>
<text text-anchor="middle" x="198" y="-7.5" font-family="Helvetica,sans-Serif" font-size="10.00">FC5025::seek</text>
</a>
</g>
</g>
<!-- Node1&#45;&gt;Node3 -->
<g id="edge2" class="edge"><title>Node1&#45;&gt;Node3</title>
<path fill="none" stroke="midnightblue" d="M121.384,-20.2257C134.157,-18.4983 147.168,-16.7388 158.715,-15.1773"/>
<polygon fill="midnightblue" stroke="midnightblue" points="120.664,-16.7911 111.223,-21.5997 121.602,-23.7279 120.664,-16.7911"/>
</g>
</g>
</svg>
