<?xml version="1.0" encoding="UTF-8" standalone="no"?>
<!DOCTYPE svg PUBLIC "-//W3C//DTD SVG 1.1//EN"
 "http://www.w3.org/Graphics/SVG/1.1/DTD/svg11.dtd">
<!-- Generated by graphviz version 2.38.0 (20140413.2041)
 -->
<!-- Title: H17Disk::loadBlock Pages: 1 -->
<svg width="303pt" height="332pt"
 viewBox="0.00 0.00 303.00 332.00" xmlns="http://www.w3.org/2000/svg" xmlns:xlink="http://www.w3.org/1999/xlink">
<g id="graph0" class="graph" transform="scale(1 1) rotate(0) translate(4 328)">
<title>H17Disk::loadBlock</title>
<polygon fill="white" stroke="none" points="-4,4 -4,-328 299,-328 299,4 -4,4"/>
<!-- Node1 -->
<g id="node1" class="node"><title>Node1</title>
<polygon fill="#bfbfbf" stroke="black" points="0,-152.5 0,-171.5 104,-171.5 104,-152.5 0,-152.5"/>
<text text-anchor="middle" x="52" y="-159.5" font-family="Helvetica,sans-Serif" font-size="10.00">H17Disk::loadBlock</text>
</g>
<!-- Node2 -->
<g id="node2" class="node"><title>Node2</title>
<g id="a_node2"><a xlink:href="classH17Disk.html#a4c484465d1c422d5ce5b4661bc72dd3a" target="_top" xlink:title="H17Disk::loadDiskFormatBlock">
<polygon fill="white" stroke="black" points="140,-304.5 140,-323.5 295,-323.5 295,-304.5 140,-304.5"/>
<text text-anchor="middle" x="217.5" y="-311.5" font-family="Helvetica,sans-Serif" font-size="10.00">H17Disk::loadDiskFormatBlock</text>
</a>
</g>
</g>
<!-- Node1&#45;&gt;Node2 -->
<g id="edge1" class="edge"><title>Node1&#45;&gt;Node2</title>
<path fill="none" stroke="midnightblue" d="M56.4918,-171.833C65.8361,-196.665 93.8821,-262.251 140,-295 142.734,-296.941 145.645,-298.685 148.674,-300.251"/>
<polygon fill="midnightblue" stroke="midnightblue" points="147.501,-303.56 158.059,-304.437 150.352,-297.167 147.501,-303.56"/>
</g>
<!-- Node3 -->
<g id="node3" class="node"><title>Node3</title>
<g id="a_node3"><a xlink:href="classH17Disk.html#a8dfa864cc65f81413d3b518c6c1e67e6" target="_top" xlink:title="H17Disk::loadFlagsBlock">
<polygon fill="white" stroke="black" points="153.5,-266.5 153.5,-285.5 281.5,-285.5 281.5,-266.5 153.5,-266.5"/>
<text text-anchor="middle" x="217.5" y="-273.5" font-family="Helvetica,sans-Serif" font-size="10.00">H17Disk::loadFlagsBlock</text>
</a>
</g>
</g>
<!-- Node1&#45;&gt;Node3 -->
<g id="edge2" class="edge"><title>Node1&#45;&gt;Node3</title>
<path fill="none" stroke="midnightblue" d="M58.8879,-171.518C71.3407,-190.813 102.322,-234.6 140,-257 143.639,-259.164 147.516,-261.082 151.52,-262.782"/>
<polygon fill="midnightblue" stroke="midnightblue" points="150.449,-266.119 161.041,-266.368 152.916,-259.568 150.449,-266.119"/>
</g>
<!-- Node4 -->
<g id="node4" class="node"><title>Node4</title>
<g id="a_node4"><a xlink:href="classH17Disk.html#a3a4c239c85de3b29d6d89c8854c8ed9b" target="_top" xlink:title="H17Disk::loadLabelBlock">
<polygon fill="white" stroke="black" points="154,-228.5 154,-247.5 281,-247.5 281,-228.5 154,-228.5"/>
<text text-anchor="middle" x="217.5" y="-235.5" font-family="Helvetica,sans-Serif" font-size="10.00">H17Disk::loadLabelBlock</text>
</a>
</g>
</g>
<!-- Node1&#45;&gt;Node4 -->
<g id="edge3" class="edge"><title>Node1&#45;&gt;Node4</title>
<path fill="none" stroke="midnightblue" d="M64.9201,-171.71C81.019,-184.361 111.041,-206.354 140,-219 145.679,-221.48 151.742,-223.677 157.876,-225.613"/>
<polygon fill="midnightblue" stroke="midnightblue" points="156.948,-228.989 167.529,-228.446 158.919,-222.272 156.948,-228.989"/>
</g>
<!-- Node5 -->
<g id="node5" class="node"><title>Node5</title>
<g id="a_node5"><a xlink:href="classH17Disk.html#a4b28a58f502aedd83052dbbba759ba28" target="_top" xlink:title="H17Disk::loadCommentBlock">
<polygon fill="white" stroke="black" points="144.5,-190.5 144.5,-209.5 290.5,-209.5 290.5,-190.5 144.5,-190.5"/>
<text text-anchor="middle" x="217.5" y="-197.5" font-family="Helvetica,sans-Serif" font-size="10.00">H17Disk::loadCommentBlock</text>
</a>
</g>
</g>
<!-- Node1&#45;&gt;Node5 -->
<g id="edge4" class="edge"><title>Node1&#45;&gt;Node5</title>
<path fill="none" stroke="midnightblue" d="M94.258,-171.589C115.931,-176.626 142.683,-182.844 165.63,-188.177"/>
<polygon fill="midnightblue" stroke="midnightblue" points="165.006,-191.625 175.539,-190.48 166.591,-184.807 165.006,-191.625"/>
</g>
<!-- Node6 -->
<g id="node6" class="node"><title>Node6</title>
<g id="a_node6"><a xlink:href="classH17Disk.html#a06965b624586dda02e6a1cf7ebf53984" target="_top" xlink:title="H17Disk::loadDateBlock">
<polygon fill="white" stroke="black" points="155,-152.5 155,-171.5 280,-171.5 280,-152.5 155,-152.5"/>
<text text-anchor="middle" x="217.5" y="-159.5" font-family="Helvetica,sans-Serif" font-size="10.00">H17Disk::loadDateBlock</text>
</a>
</g>
</g>
<!-- Node1&#45;&gt;Node6 -->
<g id="edge5" class="edge"><title>Node1&#45;&gt;Node6</title>
<path fill="none" stroke="midnightblue" d="M104.284,-162C117.045,-162 130.962,-162 144.516,-162"/>
<polygon fill="midnightblue" stroke="midnightblue" points="144.785,-165.5 154.785,-162 144.785,-158.5 144.785,-165.5"/>
</g>
<!-- Node7 -->
<g id="node7" class="node"><title>Node7</title>
<g id="a_node7"><a xlink:href="classH17Disk.html#a6183e4e35db3b2ae16a9322f377556e4" target="_top" xlink:title="H17Disk::loadImagerBlock">
<polygon fill="white" stroke="black" points="150.5,-114.5 150.5,-133.5 284.5,-133.5 284.5,-114.5 150.5,-114.5"/>
<text text-anchor="middle" x="217.5" y="-121.5" font-family="Helvetica,sans-Serif" font-size="10.00">H17Disk::loadImagerBlock</text>
</a>
</g>
</g>
<!-- Node1&#45;&gt;Node7 -->
<g id="edge6" class="edge"><title>Node1&#45;&gt;Node7</title>
<path fill="none" stroke="midnightblue" d="M94.258,-152.411C115.931,-147.374 142.683,-141.156 165.63,-135.823"/>
<polygon fill="midnightblue" stroke="midnightblue" points="166.591,-139.193 175.539,-133.52 165.006,-132.375 166.591,-139.193"/>
</g>
<!-- Node8 -->
<g id="node8" class="node"><title>Node8</title>
<g id="a_node8"><a xlink:href="classH17Disk.html#aead615d628b0e4c68f69bd746aeabdb1" target="_top" xlink:title="H17Disk::loadProgramBlock">
<polygon fill="white" stroke="black" points="147.5,-76.5 147.5,-95.5 287.5,-95.5 287.5,-76.5 147.5,-76.5"/>
<text text-anchor="middle" x="217.5" y="-83.5" font-family="Helvetica,sans-Serif" font-size="10.00">H17Disk::loadProgramBlock</text>
</a>
</g>
</g>
<!-- Node1&#45;&gt;Node8 -->
<g id="edge7" class="edge"><title>Node1&#45;&gt;Node8</title>
<path fill="none" stroke="midnightblue" d="M64.9201,-152.29C81.019,-139.639 111.041,-117.646 140,-105 145.679,-102.52 151.742,-100.323 157.876,-98.3865"/>
<polygon fill="midnightblue" stroke="midnightblue" points="158.919,-101.728 167.529,-95.5543 156.948,-95.0115 158.919,-101.728"/>
</g>
<!-- Node9 -->
<g id="node9" class="node"><title>Node9</title>
<g id="a_node9"><a xlink:href="classH17Disk.html#a36b7999d189ddc7dc05ba9adcbf3b946" target="_top" xlink:title="H17Disk::loadDataBlock">
<polygon fill="white" stroke="black" points="155,-38.5 155,-57.5 280,-57.5 280,-38.5 155,-38.5"/>
<text text-anchor="middle" x="217.5" y="-45.5" font-family="Helvetica,sans-Serif" font-size="10.00">H17Disk::loadDataBlock</text>
</a>
</g>
</g>
<!-- Node1&#45;&gt;Node9 -->
<g id="edge8" class="edge"><title>Node1&#45;&gt;Node9</title>
<path fill="none" stroke="midnightblue" d="M58.8879,-152.482C71.3407,-133.187 102.322,-89.4004 140,-67 143.639,-64.8364 147.516,-62.9183 151.52,-61.2179"/>
<polygon fill="midnightblue" stroke="midnightblue" points="152.916,-64.4322 161.041,-57.6324 150.449,-57.8813 152.916,-64.4322"/>
</g>
<!-- Node10 -->
<g id="node10" class="node"><title>Node10</title>
<g id="a_node10"><a xlink:href="classH17Disk.html#a31ecffc2c61fe921e9a2ef4018ce5c99" target="_top" xlink:title="H17Disk::loadRawDataBlock">
<polygon fill="white" stroke="black" points="145,-0.5 145,-19.5 290,-19.5 290,-0.5 145,-0.5"/>
<text text-anchor="middle" x="217.5" y="-7.5" font-family="Helvetica,sans-Serif" font-size="10.00">H17Disk::loadRawDataBlock</text>
</a>
</g>
</g>
<!-- Node1&#45;&gt;Node10 -->
<g id="edge9" class="edge"><title>Node1&#45;&gt;Node10</title>
<path fill="none" stroke="midnightblue" d="M56.4918,-152.167C65.8361,-127.335 93.8821,-61.7489 140,-29 142.734,-27.0588 145.645,-25.3152 148.674,-23.749"/>
<polygon fill="midnightblue" stroke="midnightblue" points="150.352,-26.8331 158.059,-19.563 147.501,-20.4401 150.352,-26.8331"/>
</g>
</g>
</svg>
