<?xml version="1.0" encoding="UTF-8" standalone="no"?>
<!DOCTYPE svg PUBLIC "-//W3C//DTD SVG 1.1//EN"
 "http://www.w3.org/Graphics/SVG/1.1/DTD/svg11.dtd">
<!-- Generated by graphviz version 2.38.0 (20140413.2041)
 -->
<!-- Title: H17DiskDataBlock::writeToFile Pages: 1 -->
<svg width="497pt" height="28pt"
 viewBox="0.00 0.00 497.00 28.00" xmlns="http://www.w3.org/2000/svg" xmlns:xlink="http://www.w3.org/1999/xlink">
<g id="graph0" class="graph" transform="scale(1 1) rotate(0) translate(4 24)">
<title>H17DiskDataBlock::writeToFile</title>
<polygon fill="white" stroke="none" points="-4,4 -4,-24 493,-24 493,4 -4,4"/>
<!-- Node1 -->
<g id="node1" class="node"><title>Node1</title>
<polygon fill="#bfbfbf" stroke="black" points="0,-0.5 0,-19.5 155,-19.5 155,-0.5 0,-0.5"/>
<text text-anchor="middle" x="77.5" y="-7.5" font-family="Helvetica,sans-Serif" font-size="10.00">H17DiskDataBlock::writeToFile</text>
</g>
<!-- Node2 -->
<g id="node2" class="node"><title>Node2</title>
<g id="a_node2"><a xlink:href="classH17Block.html#a5c4d56a6c991c87fb9215797ce63b804" target="_top" xlink:title="H17Block::writeBlockHeader">
<polygon fill="white" stroke="black" points="191,-0.5 191,-19.5 334,-19.5 334,-0.5 191,-0.5"/>
<text text-anchor="middle" x="262.5" y="-7.5" font-family="Helvetica,sans-Serif" font-size="10.00">H17Block::writeBlockHeader</text>
</a>
</g>
</g>
<!-- Node1&#45;&gt;Node2 -->
<g id="edge1" class="edge"><title>Node1&#45;&gt;Node2</title>
<path fill="none" stroke="midnightblue" d="M155.048,-10C163.474,-10 172.073,-10 180.55,-10"/>
<polygon fill="midnightblue" stroke="midnightblue" points="180.809,-13.5001 190.809,-10 180.809,-6.5001 180.809,-13.5001"/>
</g>
<!-- Node3 -->
<g id="node3" class="node"><title>Node3</title>
<g id="a_node3"><a xlink:href="classH17Block.html#aa2e87b141623b4c897c5337ea0535d1c" target="_top" xlink:title="H17Block::getDataSize">
<polygon fill="white" stroke="black" points="370,-0.5 370,-19.5 489,-19.5 489,-0.5 370,-0.5"/>
<text text-anchor="middle" x="429.5" y="-7.5" font-family="Helvetica,sans-Serif" font-size="10.00">H17Block::getDataSize</text>
</a>
</g>
</g>
<!-- Node2&#45;&gt;Node3 -->
<g id="edge2" class="edge"><title>Node2&#45;&gt;Node3</title>
<path fill="none" stroke="midnightblue" d="M334.432,-10C342.816,-10 351.361,-10 359.714,-10"/>
<polygon fill="midnightblue" stroke="midnightblue" points="359.783,-13.5001 369.783,-10 359.783,-6.5001 359.783,-13.5001"/>
</g>
</g>
</svg>
