<?xml version="1.0" encoding="UTF-8" standalone="no"?>
<!DOCTYPE svg PUBLIC "-//W3C//DTD SVG 1.1//EN"
 "http://www.w3.org/Graphics/SVG/1.1/DTD/svg11.dtd">
<!-- Generated by graphviz version 2.38.0 (20140413.2041)
 -->
<!-- Title: FC5025::bulkCDB Pages: 1 -->
<svg width="415pt" height="199pt"
 viewBox="0.00 0.00 415.00 199.00" xmlns="http://www.w3.org/2000/svg" xmlns:xlink="http://www.w3.org/1999/xlink">
<g id="graph0" class="graph" transform="scale(1 1) rotate(0) translate(4 195)">
<title>FC5025::bulkCDB</title>
<polygon fill="white" stroke="none" points="-4,4 -4,-195 411,-195 411,4 -4,4"/>
<!-- Node1 -->
<g id="node1" class="node"><title>Node1</title>
<polygon fill="#bfbfbf" stroke="black" points="0,-76.5 0,-95.5 97,-95.5 97,-76.5 0,-76.5"/>
<text text-anchor="middle" x="48.5" y="-83.5" font-family="Helvetica,sans-Serif" font-size="10.00">FC5025::bulkCDB</text>
</g>
<!-- Node2 -->
<g id="node2" class="node"><title>Node2</title>
<g id="a_node2"><a xlink:href="classFC5025.html#ad03589bd35682da51fe0cb2e7523688d" target="_top" xlink:title="FC5025::internalSeek">
<polygon fill="white" stroke="black" points="143,-152.5 143,-171.5 254,-171.5 254,-152.5 143,-152.5"/>
<text text-anchor="middle" x="198.5" y="-159.5" font-family="Helvetica,sans-Serif" font-size="10.00">FC5025::internalSeek</text>
</a>
</g>
</g>
<!-- Node1&#45;&gt;Node2 -->
<g id="edge1" class="edge"><title>Node1&#45;&gt;Node2</title>
<path fill="none" stroke="midnightblue" d="M69.1251,-102.021C85.3995,-114.64 109.582,-131.897 133,-143 140.806,-146.701 149.488,-149.85 157.888,-152.456"/>
<polygon fill="midnightblue" stroke="midnightblue" points="70.9668,-99.0149 60.9525,-95.5561 66.6241,-104.505 70.9668,-99.0149"/>
</g>
<!-- Node5 -->
<g id="node5" class="node"><title>Node5</title>
<g id="a_node5"><a xlink:href="classFC5025.html#aa796eca9259c5c1718e09184d94630a9" target="_top" xlink:title="FC5025::readId">
<polygon fill="white" stroke="black" points="156.5,-114.5 156.5,-133.5 240.5,-133.5 240.5,-114.5 156.5,-114.5"/>
<text text-anchor="middle" x="198.5" y="-121.5" font-family="Helvetica,sans-Serif" font-size="10.00">FC5025::readId</text>
</a>
</g>
</g>
<!-- Node1&#45;&gt;Node5 -->
<g id="edge4" class="edge"><title>Node1&#45;&gt;Node5</title>
<path fill="none" stroke="midnightblue" d="M96.6735,-98.1121C117.286,-103.404 141.109,-109.521 160.422,-114.48"/>
<polygon fill="midnightblue" stroke="midnightblue" points="97.4029,-94.6859 86.8466,-95.589 95.662,-101.466 97.4029,-94.6859"/>
</g>
<!-- Node6 -->
<g id="node6" class="node"><title>Node6</title>
<g id="a_node6"><a xlink:href="classFC5025.html#a9c372002cbdc43034ed601f022e22751" target="_top" xlink:title="FC5025::flags">
<polygon fill="white" stroke="black" points="159.5,-38.5 159.5,-57.5 237.5,-57.5 237.5,-38.5 159.5,-38.5"/>
<text text-anchor="middle" x="198.5" y="-45.5" font-family="Helvetica,sans-Serif" font-size="10.00">FC5025::flags</text>
</a>
</g>
</g>
<!-- Node1&#45;&gt;Node6 -->
<g id="edge5" class="edge"><title>Node1&#45;&gt;Node6</title>
<path fill="none" stroke="midnightblue" d="M96.6735,-73.8879C117.286,-68.5956 141.109,-62.4787 160.422,-57.5201"/>
<polygon fill="midnightblue" stroke="midnightblue" points="95.662,-70.534 86.8466,-76.411 97.4029,-77.3141 95.662,-70.534"/>
</g>
<!-- Node7 -->
<g id="node7" class="node"><title>Node7</title>
<g id="a_node7"><a xlink:href="classFC5025.html#a178ad6a12a928f270db02fdbb463db95" target="_top" xlink:title="FC5025::driveStatus">
<polygon fill="white" stroke="black" points="300,-76.5 300,-95.5 407,-95.5 407,-76.5 300,-76.5"/>
<text text-anchor="middle" x="353.5" y="-83.5" font-family="Helvetica,sans-Serif" font-size="10.00">FC5025::driveStatus</text>
</a>
</g>
</g>
<!-- Node1&#45;&gt;Node7 -->
<g id="edge8" class="edge"><title>Node1&#45;&gt;Node7</title>
<path fill="none" stroke="midnightblue" d="M107.209,-86C162.732,-86 245.964,-86 299.758,-86"/>
<polygon fill="midnightblue" stroke="midnightblue" points="107.177,-82.5001 97.1771,-86 107.177,-89.5001 107.177,-82.5001"/>
</g>
<!-- Node9 -->
<g id="node9" class="node"><title>Node9</title>
<g id="a_node9"><a xlink:href="classHeathHSDisk.html#aacdbaa5d65b123852e743f2579f38cda" target="_top" xlink:title="HeathHSDisk::readSector">
<polygon fill="white" stroke="black" points="133,-0.5 133,-19.5 264,-19.5 264,-0.5 133,-0.5"/>
<text text-anchor="middle" x="198.5" y="-7.5" font-family="Helvetica,sans-Serif" font-size="10.00">HeathHSDisk::readSector</text>
</a>
</g>
</g>
<!-- Node1&#45;&gt;Node9 -->
<g id="edge9" class="edge"><title>Node1&#45;&gt;Node9</title>
<path fill="none" stroke="midnightblue" d="M69.1251,-69.9793C85.3995,-57.3604 109.582,-40.1028 133,-29 140.806,-25.2992 149.488,-22.1504 157.888,-19.5436"/>
<polygon fill="midnightblue" stroke="midnightblue" points="66.6241,-67.495 60.9525,-76.4439 70.9668,-72.9851 66.6241,-67.495"/>
</g>
<!-- Node3 -->
<g id="node3" class="node"><title>Node3</title>
<g id="a_node3"><a xlink:href="classFC5025.html#a867a0dfff92f111697ca74655bb42d26" target="_top" xlink:title="FC5025::recalibrate">
<polygon fill="white" stroke="black" points="302.5,-171.5 302.5,-190.5 404.5,-190.5 404.5,-171.5 302.5,-171.5"/>
<text text-anchor="middle" x="353.5" y="-178.5" font-family="Helvetica,sans-Serif" font-size="10.00">FC5025::recalibrate</text>
</a>
</g>
</g>
<!-- Node2&#45;&gt;Node3 -->
<g id="edge2" class="edge"><title>Node2&#45;&gt;Node3</title>
<path fill="none" stroke="midnightblue" d="M264.384,-170.057C277.103,-171.637 290.262,-173.271 302.408,-174.779"/>
<polygon fill="midnightblue" stroke="midnightblue" points="264.659,-166.565 254.304,-168.806 263.797,-173.512 264.659,-166.565"/>
</g>
<!-- Node4 -->
<g id="node4" class="node"><title>Node4</title>
<g id="a_node4"><a xlink:href="classFC5025.html#ab38385df803acdde0c55e472669ffc2d" target="_top" xlink:title="FC5025::seek">
<polygon fill="white" stroke="black" points="314.5,-133.5 314.5,-152.5 392.5,-152.5 392.5,-133.5 314.5,-133.5"/>
<text text-anchor="middle" x="353.5" y="-140.5" font-family="Helvetica,sans-Serif" font-size="10.00">FC5025::seek</text>
</a>
</g>
</g>
<!-- Node2&#45;&gt;Node4 -->
<g id="edge3" class="edge"><title>Node2&#45;&gt;Node4</title>
<path fill="none" stroke="midnightblue" d="M264.241,-153.96C281.32,-151.839 299.201,-149.619 314.366,-147.736"/>
<polygon fill="midnightblue" stroke="midnightblue" points="263.797,-150.488 254.304,-155.194 264.659,-157.435 263.797,-150.488"/>
</g>
<!-- Node6&#45;&gt;Node7 -->
<g id="edge6" class="edge"><title>Node6&#45;&gt;Node7</title>
<path fill="none" stroke="midnightblue" d="M247.625,-59.9526C269.106,-65.2877 294.064,-71.4865 314.243,-76.4983"/>
<polygon fill="midnightblue" stroke="midnightblue" points="248.263,-56.5047 237.714,-57.491 246.575,-63.2983 248.263,-56.5047"/>
</g>
<!-- Node8 -->
<g id="node8" class="node"><title>Node8</title>
<g id="a_node8"><a xlink:href="classFC5025.html#afff5293f6d1011a7b107607f544fedf5" target="_top" xlink:title="FC5025::setDensity">
<polygon fill="white" stroke="black" points="301.5,-38.5 301.5,-57.5 405.5,-57.5 405.5,-38.5 301.5,-38.5"/>
<text text-anchor="middle" x="353.5" y="-45.5" font-family="Helvetica,sans-Serif" font-size="10.00">FC5025::setDensity</text>
</a>
</g>
</g>
<!-- Node6&#45;&gt;Node8 -->
<g id="edge7" class="edge"><title>Node6&#45;&gt;Node8</title>
<path fill="none" stroke="midnightblue" d="M247.966,-48C264.932,-48 284.033,-48 301.222,-48"/>
<polygon fill="midnightblue" stroke="midnightblue" points="247.714,-44.5001 237.714,-48 247.714,-51.5001 247.714,-44.5001"/>
</g>
</g>
</svg>
