<?xml version="1.0" encoding="UTF-8" standalone="no"?>
<!DOCTYPE svg PUBLIC "-//W3C//DTD SVG 1.1//EN"
 "http://www.w3.org/Graphics/SVG/1.1/DTD/svg11.dtd">
<!-- Generated by graphviz version 2.38.0 (20140413.2041)
 -->
<!-- Title: H17Disk::validateRawDataBlock Pages: 1 -->
<svg width="598pt" height="39pt"
 viewBox="0.00 0.00 598.00 39.00" xmlns="http://www.w3.org/2000/svg" xmlns:xlink="http://www.w3.org/1999/xlink">
<g id="graph0" class="graph" transform="scale(1 1) rotate(0) translate(4 35)">
<title>H17Disk::validateRawDataBlock</title>
<polygon fill="white" stroke="none" points="-4,4 -4,-35 594,-35 594,4 -4,4"/>
<!-- Node1 -->
<g id="node1" class="node"><title>Node1</title>
<polygon fill="#bfbfbf" stroke="black" points="0,-0.5 0,-30.5 136,-30.5 136,-0.5 0,-0.5"/>
<text text-anchor="start" x="8" y="-18.5" font-family="Helvetica,sans-Serif" font-size="10.00">H17Disk::validateRawData</text>
<text text-anchor="middle" x="68" y="-7.5" font-family="Helvetica,sans-Serif" font-size="10.00">Block</text>
</g>
<!-- Node2 -->
<g id="node2" class="node"><title>Node2</title>
<g id="a_node2"><a xlink:href="classH17Disk.html#a29f4d35fba24f0d9cee37bcb02120a6c" target="_top" xlink:title="H17Disk::validateBlock">
<polygon fill="white" stroke="black" points="172,-6 172,-25 291,-25 291,-6 172,-6"/>
<text text-anchor="middle" x="231.5" y="-13" font-family="Helvetica,sans-Serif" font-size="10.00">H17Disk::validateBlock</text>
</a>
</g>
</g>
<!-- Node1&#45;&gt;Node2 -->
<g id="edge1" class="edge"><title>Node1&#45;&gt;Node2</title>
<path fill="none" stroke="midnightblue" d="M146.178,-15.5C154.815,-15.5 163.507,-15.5 171.857,-15.5"/>
<polygon fill="midnightblue" stroke="midnightblue" points="146.088,-12.0001 136.088,-15.5 146.087,-19.0001 146.088,-12.0001"/>
</g>
<!-- Node3 -->
<g id="node3" class="node"><title>Node3</title>
<g id="a_node3"><a xlink:href="classH17Disk.html#ada058d8b970b4e72569e2fe000817f75" target="_top" xlink:title="H17Disk::decodeBuffer">
<polygon fill="white" stroke="black" points="327,-6 327,-25 446,-25 446,-6 327,-6"/>
<text text-anchor="middle" x="386.5" y="-13" font-family="Helvetica,sans-Serif" font-size="10.00">H17Disk::decodeBuffer</text>
</a>
</g>
</g>
<!-- Node2&#45;&gt;Node3 -->
<g id="edge2" class="edge"><title>Node2&#45;&gt;Node3</title>
<path fill="none" stroke="midnightblue" d="M301.493,-15.5C309.993,-15.5 318.617,-15.5 326.941,-15.5"/>
<polygon fill="midnightblue" stroke="midnightblue" points="301.216,-12.0001 291.216,-15.5 301.216,-19.0001 301.216,-12.0001"/>
</g>
<!-- Node4 -->
<g id="node4" class="node"><title>Node4</title>
<g id="a_node4"><a xlink:href="classH17Disk.html#a503d2a03bfe0f9bbe3a8bd8dc7d2ec17" target="_top" xlink:title="H17Disk::decodeFile">
<polygon fill="white" stroke="black" points="482,-6 482,-25 590,-25 590,-6 482,-6"/>
<text text-anchor="middle" x="536" y="-13" font-family="Helvetica,sans-Serif" font-size="10.00">H17Disk::decodeFile</text>
</a>
</g>
</g>
<!-- Node3&#45;&gt;Node4 -->
<g id="edge3" class="edge"><title>Node3&#45;&gt;Node4</title>
<path fill="none" stroke="midnightblue" d="M456.494,-15.5C464.976,-15.5 473.542,-15.5 481.741,-15.5"/>
<polygon fill="midnightblue" stroke="midnightblue" points="456.22,-12.0001 446.22,-15.5 456.22,-19.0001 456.22,-12.0001"/>
</g>
</g>
</svg>
