<?xml version="1.0" encoding="UTF-8" standalone="no"?>
<!DOCTYPE svg PUBLIC "-//W3C//DTD SVG 1.1//EN"
 "http://www.w3.org/Graphics/SVG/1.1/DTD/svg11.dtd">
<!-- Generated by graphviz version 2.38.0 (20140413.2041)
 -->
<!-- Title: H17Block::getDataSize Pages: 1 -->
<svg width="631pt" height="239pt"
 viewBox="0.00 0.00 631.00 238.50" xmlns="http://www.w3.org/2000/svg" xmlns:xlink="http://www.w3.org/1999/xlink">
<g id="graph0" class="graph" transform="scale(1 1) rotate(0) translate(4 234.5)">
<title>H17Block::getDataSize</title>
<polygon fill="white" stroke="none" points="-4,4 -4,-234.5 627,-234.5 627,4 -4,4"/>
<!-- Node1 -->
<g id="node1" class="node"><title>Node1</title>
<polygon fill="#bfbfbf" stroke="black" points="0,-173 0,-192 119,-192 119,-173 0,-173"/>
<text text-anchor="middle" x="59.5" y="-180" font-family="Helvetica,sans-Serif" font-size="10.00">H17Block::getDataSize</text>
</g>
<!-- Node2 -->
<g id="node2" class="node"><title>Node2</title>
<g id="a_node2"><a xlink:href="classH17Block.html#a0327b6359cdf502269bbb7c6f35fae18" target="_top" xlink:title="H17Block::getBlockSize">
<polygon fill="white" stroke="black" points="165,-211 165,-230 288,-230 288,-211 165,-211"/>
<text text-anchor="middle" x="226.5" y="-218" font-family="Helvetica,sans-Serif" font-size="10.00">H17Block::getBlockSize</text>
</a>
</g>
</g>
<!-- Node1&#45;&gt;Node2 -->
<g id="edge1" class="edge"><title>Node1&#45;&gt;Node2</title>
<path fill="none" stroke="midnightblue" d="M112.154,-194.396C135.346,-199.737 162.338,-205.954 184.163,-210.98"/>
<polygon fill="midnightblue" stroke="midnightblue" points="112.667,-190.923 102.136,-192.089 111.096,-197.744 112.667,-190.923"/>
</g>
<!-- Node3 -->
<g id="node3" class="node"><title>Node3</title>
<g id="a_node3"><a xlink:href="classH17Block.html#a5c4d56a6c991c87fb9215797ce63b804" target="_top" xlink:title="H17Block::writeBlockHeader">
<polygon fill="white" stroke="black" points="155,-108 155,-127 298,-127 298,-108 155,-108"/>
<text text-anchor="middle" x="226.5" y="-115" font-family="Helvetica,sans-Serif" font-size="10.00">H17Block::writeBlockHeader</text>
</a>
</g>
</g>
<!-- Node1&#45;&gt;Node3 -->
<g id="edge2" class="edge"><title>Node1&#45;&gt;Node3</title>
<path fill="none" stroke="midnightblue" d="M94.2065,-169.222C126.054,-156.676 173.044,-138.164 201.323,-127.024"/>
<polygon fill="midnightblue" stroke="midnightblue" points="92.8676,-165.987 84.8463,-172.909 95.4333,-172.5 92.8676,-165.987"/>
</g>
<!-- Node4 -->
<g id="node4" class="node"><title>Node4</title>
<g id="a_node4"><a xlink:href="classH17Block.html#a59901675cd140c907fb6de4c8e0452d5" target="_top" xlink:title="H17Block::writeToFile">
<polygon fill="white" stroke="black" points="355,-187 355,-206 468,-206 468,-187 355,-187"/>
<text text-anchor="middle" x="411.5" y="-194" font-family="Helvetica,sans-Serif" font-size="10.00">H17Block::writeToFile</text>
</a>
</g>
</g>
<!-- Node1&#45;&gt;Node4 -->
<g id="edge9" class="edge"><title>Node1&#45;&gt;Node4</title>
<path fill="none" stroke="midnightblue" d="M129.387,-185.255C195.391,-187.896 293.749,-191.83 354.909,-194.276"/>
<polygon fill="midnightblue" stroke="midnightblue" points="129.214,-181.746 119.082,-184.843 128.934,-188.74 129.214,-181.746"/>
</g>
<!-- Node3&#45;&gt;Node4 -->
<g id="edge3" class="edge"><title>Node3&#45;&gt;Node4</title>
<path fill="none" stroke="midnightblue" d="M250.638,-132.55C271.668,-145.677 303.915,-164.456 334,-176.5 344.195,-180.582 355.489,-184.066 366.2,-186.926"/>
<polygon fill="midnightblue" stroke="midnightblue" points="252.404,-129.525 242.083,-127.133 248.66,-135.439 252.404,-129.525"/>
</g>
<!-- Node6 -->
<g id="node6" class="node"><title>Node6</title>
<g id="a_node6"><a xlink:href="classH17DiskFormatBlock.html#af49df48b3a9626b2dab1731fd366ee8f" target="_top" xlink:title="H17DiskFormatBlock\l::writeToFile">
<polygon fill="white" stroke="black" points="356.5,-137.5 356.5,-167.5 466.5,-167.5 466.5,-137.5 356.5,-137.5"/>
<text text-anchor="start" x="364.5" y="-155.5" font-family="Helvetica,sans-Serif" font-size="10.00">H17DiskFormatBlock</text>
<text text-anchor="middle" x="411.5" y="-144.5" font-family="Helvetica,sans-Serif" font-size="10.00">::writeToFile</text>
</a>
</g>
</g>
<!-- Node3&#45;&gt;Node6 -->
<g id="edge5" class="edge"><title>Node3&#45;&gt;Node6</title>
<path fill="none" stroke="midnightblue" d="M287.489,-128.973C309.697,-133.221 334.727,-138.008 356.383,-142.15"/>
<polygon fill="midnightblue" stroke="midnightblue" points="287.985,-125.505 277.506,-127.064 286.67,-132.38 287.985,-125.505"/>
</g>
<!-- Node7 -->
<g id="node7" class="node"><title>Node7</title>
<g id="a_node7"><a xlink:href="classH17DiskFlagsBlock.html#a50319616d0931d82ddfb58c00f5909c6" target="_top" xlink:title="H17DiskFlagsBlock::\lwriteToFile">
<polygon fill="white" stroke="black" points="356.5,-88.5 356.5,-118.5 466.5,-118.5 466.5,-88.5 356.5,-88.5"/>
<text text-anchor="start" x="364.5" y="-106.5" font-family="Helvetica,sans-Serif" font-size="10.00">H17DiskFlagsBlock::</text>
<text text-anchor="middle" x="411.5" y="-95.5" font-family="Helvetica,sans-Serif" font-size="10.00">writeToFile</text>
</a>
</g>
</g>
<!-- Node3&#45;&gt;Node7 -->
<g id="edge6" class="edge"><title>Node3&#45;&gt;Node7</title>
<path fill="none" stroke="midnightblue" d="M308.306,-111.318C324.579,-110.073 341.308,-108.793 356.399,-107.639"/>
<polygon fill="midnightblue" stroke="midnightblue" points="307.956,-107.835 298.253,-112.087 308.49,-114.814 307.956,-107.835"/>
</g>
<!-- Node8 -->
<g id="node8" class="node"><title>Node8</title>
<g id="a_node8"><a xlink:href="classH17DiskDataBlock.html#a6d7181e767bbc590cfee7c589c56930a" target="_top" xlink:title="H17DiskDataBlock::writeToFile">
<polygon fill="white" stroke="black" points="334,-50 334,-69 489,-69 489,-50 334,-50"/>
<text text-anchor="middle" x="411.5" y="-57" font-family="Helvetica,sans-Serif" font-size="10.00">H17DiskDataBlock::writeToFile</text>
</a>
</g>
</g>
<!-- Node3&#45;&gt;Node8 -->
<g id="edge7" class="edge"><title>Node3&#45;&gt;Node8</title>
<path fill="none" stroke="midnightblue" d="M260.724,-104.287C281.576,-96.2559 309.133,-86.117 334,-78.5 345.122,-75.0932 357.292,-71.8541 368.588,-69.0469"/>
<polygon fill="midnightblue" stroke="midnightblue" points="259.412,-101.041 251.359,-107.925 261.948,-107.566 259.412,-101.041"/>
</g>
<!-- Node9 -->
<g id="node9" class="node"><title>Node9</title>
<g id="a_node9"><a xlink:href="classH17DiskRawDataBlock.html#a1f7e142b548e0c6c6b6984fda36571c4" target="_top" xlink:title="H17DiskRawDataBlock\l::writeToFile">
<polygon fill="white" stroke="black" points="351,-0.5 351,-30.5 472,-30.5 472,-0.5 351,-0.5"/>
<text text-anchor="start" x="359" y="-18.5" font-family="Helvetica,sans-Serif" font-size="10.00">H17DiskRawDataBlock</text>
<text text-anchor="middle" x="411.5" y="-7.5" font-family="Helvetica,sans-Serif" font-size="10.00">::writeToFile</text>
</a>
</g>
</g>
<!-- Node3&#45;&gt;Node9 -->
<g id="edge8" class="edge"><title>Node3&#45;&gt;Node9</title>
<path fill="none" stroke="midnightblue" d="M246.098,-101.274C266.483,-84.1805 300.731,-57.4383 334,-40.5 341.222,-36.8231 349.098,-33.529 356.962,-30.6331"/>
<polygon fill="midnightblue" stroke="midnightblue" points="243.599,-98.8052 238.254,-107.953 248.137,-104.135 243.599,-98.8052"/>
</g>
<!-- Node5 -->
<g id="node5" class="node"><title>Node5</title>
<g id="a_node5"><a xlink:href="classH17Disk.html#adfb88c5c9f3c67a0923a4d24e5efe791" target="_top" xlink:title="H17Disk::saveFile">
<polygon fill="white" stroke="black" points="525,-187 525,-206 623,-206 623,-187 525,-187"/>
<text text-anchor="middle" x="574" y="-194" font-family="Helvetica,sans-Serif" font-size="10.00">H17Disk::saveFile</text>
</a>
</g>
</g>
<!-- Node4&#45;&gt;Node5 -->
<g id="edge4" class="edge"><title>Node4&#45;&gt;Node5</title>
<path fill="none" stroke="midnightblue" d="M478.301,-196.5C493.901,-196.5 510.253,-196.5 524.896,-196.5"/>
<polygon fill="midnightblue" stroke="midnightblue" points="478.185,-193 468.185,-196.5 478.185,-200 478.185,-193"/>
</g>
</g>
</svg>
