<?xml version="1.0" encoding="UTF-8" standalone="no"?>
<!DOCTYPE svg PUBLIC "-//W3C//DTD SVG 1.1//EN"
 "http://www.w3.org/Graphics/SVG/1.1/DTD/svg11.dtd">
<!-- Generated by graphviz version 2.38.0 (20140413.2041)
 -->
<!-- Title: Drive::~Drive Pages: 1 -->
<svg width="327pt" height="66pt"
 viewBox="0.00 0.00 327.00 66.00" xmlns="http://www.w3.org/2000/svg" xmlns:xlink="http://www.w3.org/1999/xlink">
<g id="graph0" class="graph" transform="scale(1 1) rotate(0) translate(4 62)">
<title>Drive::~Drive</title>
<polygon fill="white" stroke="none" points="-4,4 -4,-62 323,-62 323,4 -4,4"/>
<!-- Node1 -->
<g id="node1" class="node"><title>Node1</title>
<polygon fill="#bfbfbf" stroke="black" points="0,-19.5 0,-38.5 75,-38.5 75,-19.5 0,-19.5"/>
<text text-anchor="middle" x="37.5" y="-26.5" font-family="Helvetica,sans-Serif" font-size="10.00">Drive::~Drive</text>
</g>
<!-- Node2 -->
<g id="node2" class="node"><title>Node2</title>
<g id="a_node2"><a xlink:href="classFC5025.html#a3fa1262c4bde8788a2d71d07dfc88630" target="_top" xlink:title="FC5025::inst">
<polygon fill="white" stroke="black" points="114.5,-38.5 114.5,-57.5 187.5,-57.5 187.5,-38.5 114.5,-38.5"/>
<text text-anchor="middle" x="151" y="-45.5" font-family="Helvetica,sans-Serif" font-size="10.00">FC5025::inst</text>
</a>
</g>
</g>
<!-- Node1&#45;&gt;Node2 -->
<g id="edge1" class="edge"><title>Node1&#45;&gt;Node2</title>
<path fill="none" stroke="midnightblue" d="M75.0093,-35.2213C84.3425,-36.8117 94.4959,-38.5419 104.23,-40.2006"/>
<polygon fill="midnightblue" stroke="midnightblue" points="103.724,-43.6647 114.169,-41.8943 104.899,-36.7642 103.724,-43.6647"/>
</g>
<!-- Node4 -->
<g id="node4" class="node"><title>Node4</title>
<g id="a_node4"><a xlink:href="classFC5025.html#a52c3aa7a28679f4afb203805f4c33510" target="_top" xlink:title="FC5025::close">
<polygon fill="white" stroke="black" points="111,-0.5 111,-19.5 191,-19.5 191,-0.5 111,-0.5"/>
<text text-anchor="middle" x="151" y="-7.5" font-family="Helvetica,sans-Serif" font-size="10.00">FC5025::close</text>
</a>
</g>
</g>
<!-- Node1&#45;&gt;Node4 -->
<g id="edge3" class="edge"><title>Node1&#45;&gt;Node4</title>
<path fill="none" stroke="midnightblue" d="M75.0093,-22.7787C83.2261,-21.3785 92.0786,-19.87 100.721,-18.3974"/>
<polygon fill="midnightblue" stroke="midnightblue" points="101.449,-21.8238 110.719,-16.6937 100.273,-14.9233 101.449,-21.8238"/>
</g>
<!-- Node3 -->
<g id="node3" class="node"><title>Node3</title>
<g id="a_node3"><a xlink:href="classFC5025.html#a01786b9fd3a20919da5e702794fa95e6" target="_top" xlink:title="FC5025::FC5025">
<polygon fill="white" stroke="black" points="227,-38.5 227,-57.5 319,-57.5 319,-38.5 227,-38.5"/>
<text text-anchor="middle" x="273" y="-45.5" font-family="Helvetica,sans-Serif" font-size="10.00">FC5025::FC5025</text>
</a>
</g>
</g>
<!-- Node2&#45;&gt;Node3 -->
<g id="edge2" class="edge"><title>Node2&#45;&gt;Node3</title>
<path fill="none" stroke="midnightblue" d="M187.679,-48C196.806,-48 206.837,-48 216.698,-48"/>
<polygon fill="midnightblue" stroke="midnightblue" points="216.867,-51.5001 226.867,-48 216.867,-44.5001 216.867,-51.5001"/>
</g>
</g>
</svg>
