<?xml version="1.0" encoding="UTF-8" standalone="no"?>
<!DOCTYPE svg PUBLIC "-//W3C//DTD SVG 1.1//EN"
 "http://www.w3.org/Graphics/SVG/1.1/DTD/svg11.dtd">
<!-- Generated by graphviz version 2.38.0 (20140413.2041)
 -->
<!-- Title: H17Disk::loadDiskFormatBlock Pages: 1 -->
<svg width="749pt" height="28pt"
 viewBox="0.00 0.00 749.00 28.00" xmlns="http://www.w3.org/2000/svg" xmlns:xlink="http://www.w3.org/1999/xlink">
<g id="graph0" class="graph" transform="scale(1 1) rotate(0) translate(4 24)">
<title>H17Disk::loadDiskFormatBlock</title>
<polygon fill="white" stroke="none" points="-4,4 -4,-24 745,-24 745,4 -4,4"/>
<!-- Node1 -->
<g id="node1" class="node"><title>Node1</title>
<polygon fill="#bfbfbf" stroke="black" points="0,-0.5 0,-19.5 155,-19.5 155,-0.5 0,-0.5"/>
<text text-anchor="middle" x="77.5" y="-7.5" font-family="Helvetica,sans-Serif" font-size="10.00">H17Disk::loadDiskFormatBlock</text>
</g>
<!-- Node2 -->
<g id="node2" class="node"><title>Node2</title>
<g id="a_node2"><a xlink:href="classH17Disk.html#ab5299643ce037fb442e0ccb21cb80c5f" target="_top" xlink:title="H17Disk::loadBlock">
<polygon fill="white" stroke="black" points="191,-0.5 191,-19.5 295,-19.5 295,-0.5 191,-0.5"/>
<text text-anchor="middle" x="243" y="-7.5" font-family="Helvetica,sans-Serif" font-size="10.00">H17Disk::loadBlock</text>
</a>
</g>
</g>
<!-- Node1&#45;&gt;Node2 -->
<g id="edge1" class="edge"><title>Node1&#45;&gt;Node2</title>
<path fill="none" stroke="midnightblue" d="M165.535,-10C174.105,-10 182.597,-10 190.632,-10"/>
<polygon fill="midnightblue" stroke="midnightblue" points="165.462,-6.5001 155.462,-10 165.462,-13.5001 165.462,-6.5001"/>
</g>
<!-- Node3 -->
<g id="node3" class="node"><title>Node3</title>
<g id="a_node3"><a xlink:href="classH17Disk.html#a0741de759498d3ba29f4bdef4e943590" target="_top" xlink:title="H17Disk::loadBuffer">
<polygon fill="white" stroke="black" points="331,-0.5 331,-19.5 436,-19.5 436,-0.5 331,-0.5"/>
<text text-anchor="middle" x="383.5" y="-7.5" font-family="Helvetica,sans-Serif" font-size="10.00">H17Disk::loadBuffer</text>
</a>
</g>
</g>
<!-- Node2&#45;&gt;Node3 -->
<g id="edge2" class="edge"><title>Node2&#45;&gt;Node3</title>
<path fill="none" stroke="midnightblue" d="M305.349,-10C313.779,-10 322.368,-10 330.606,-10"/>
<polygon fill="midnightblue" stroke="midnightblue" points="305.179,-6.5001 295.179,-10 305.179,-13.5001 305.179,-6.5001"/>
</g>
<!-- Node4 -->
<g id="node4" class="node"><title>Node4</title>
<g id="a_node4"><a xlink:href="classH17Disk.html#a8e41c133b13e5c9c2c8f1d39b73d5292" target="_top" xlink:title="H17Disk::loadFile">
<polygon fill="white" stroke="black" points="472,-0.5 472,-19.5 567,-19.5 567,-0.5 472,-0.5"/>
<text text-anchor="middle" x="519.5" y="-7.5" font-family="Helvetica,sans-Serif" font-size="10.00">H17Disk::loadFile</text>
</a>
</g>
</g>
<!-- Node3&#45;&gt;Node4 -->
<g id="edge3" class="edge"><title>Node3&#45;&gt;Node4</title>
<path fill="none" stroke="midnightblue" d="M446.524,-10C454.973,-10 463.527,-10 471.647,-10"/>
<polygon fill="midnightblue" stroke="midnightblue" points="446.308,-6.5001 436.308,-10 446.308,-13.5001 446.308,-6.5001"/>
</g>
<!-- Node5 -->
<g id="node5" class="node"><title>Node5</title>
<g id="a_node5"><a xlink:href="classH17Disk.html#aa375761378f8a80cb8c5e479008c0e32" target="_top" xlink:title="H17Disk::openForRecovery">
<polygon fill="white" stroke="black" points="603,-0.5 603,-19.5 741,-19.5 741,-0.5 603,-0.5"/>
<text text-anchor="middle" x="672" y="-7.5" font-family="Helvetica,sans-Serif" font-size="10.00">H17Disk::openForRecovery</text>
</a>
</g>
</g>
<!-- Node4&#45;&gt;Node5 -->
<g id="edge4" class="edge"><title>Node4&#45;&gt;Node5</title>
<path fill="none" stroke="midnightblue" d="M577.318,-10C585.693,-10 594.392,-10 602.965,-10"/>
<polygon fill="midnightblue" stroke="midnightblue" points="577.294,-6.5001 567.294,-10 577.294,-13.5001 577.294,-6.5001"/>
</g>
</g>
</svg>
