<?xml version="1.0" encoding="UTF-8" standalone="no"?>
<!DOCTYPE svg PUBLIC "-//W3C//DTD SVG 1.1//EN"
 "http://www.w3.org/Graphics/SVG/1.1/DTD/svg11.dtd">
<!-- Generated by graphviz version 2.38.0 (20140413.2041)
 -->
<!-- Title: H17Disk::openForWrite Pages: 1 -->
<svg width="277pt" height="104pt"
 viewBox="0.00 0.00 277.00 104.00" xmlns="http://www.w3.org/2000/svg" xmlns:xlink="http://www.w3.org/1999/xlink">
<g id="graph0" class="graph" transform="scale(1 1) rotate(0) translate(4 100)">
<title>H17Disk::openForWrite</title>
<polygon fill="white" stroke="none" points="-4,4 -4,-100 273,-100 273,4 -4,4"/>
<!-- Node1 -->
<g id="node1" class="node"><title>Node1</title>
<polygon fill="#bfbfbf" stroke="black" points="0,-38.5 0,-57.5 119,-57.5 119,-38.5 0,-38.5"/>
<text text-anchor="middle" x="59.5" y="-45.5" font-family="Helvetica,sans-Serif" font-size="10.00">H17Disk::openForWrite</text>
</g>
<!-- Node2 -->
<g id="node2" class="node"><title>Node2</title>
<g id="a_node2"><a xlink:href="classH17Disk.html#adfb88c5c9f3c67a0923a4d24e5efe791" target="_top" xlink:title="H17Disk::saveFile">
<polygon fill="white" stroke="black" points="163,-76.5 163,-95.5 261,-95.5 261,-76.5 163,-76.5"/>
<text text-anchor="middle" x="212" y="-83.5" font-family="Helvetica,sans-Serif" font-size="10.00">H17Disk::saveFile</text>
</a>
</g>
</g>
<!-- Node1&#45;&gt;Node2 -->
<g id="edge1" class="edge"><title>Node1&#45;&gt;Node2</title>
<path fill="none" stroke="midnightblue" d="M108.185,-60.04C129.21,-65.3488 153.567,-71.4988 173.296,-76.4799"/>
<polygon fill="midnightblue" stroke="midnightblue" points="109.03,-56.6437 98.4775,-57.589 107.316,-63.4307 109.03,-56.6437"/>
</g>
<!-- Node3 -->
<g id="node3" class="node"><title>Node3</title>
<g id="a_node3"><a xlink:href="classH17Disk.html#a92edc41852a329daed3e91f50e0271c7" target="_top" xlink:title="H17Disk::saveAsH8D">
<polygon fill="white" stroke="black" points="155,-38.5 155,-57.5 269,-57.5 269,-38.5 155,-38.5"/>
<text text-anchor="middle" x="212" y="-45.5" font-family="Helvetica,sans-Serif" font-size="10.00">H17Disk::saveAsH8D</text>
</a>
</g>
</g>
<!-- Node1&#45;&gt;Node3 -->
<g id="edge2" class="edge"><title>Node1&#45;&gt;Node3</title>
<path fill="none" stroke="midnightblue" d="M129.394,-48C137.887,-48 146.489,-48 154.762,-48"/>
<polygon fill="midnightblue" stroke="midnightblue" points="129.118,-44.5001 119.118,-48 129.118,-51.5001 129.118,-44.5001"/>
</g>
<!-- Node4 -->
<g id="node4" class="node"><title>Node4</title>
<g id="a_node4"><a xlink:href="classH17Disk.html#a0a7412197ca1478393a45885cc132916" target="_top" xlink:title="H17Disk::saveAsRaw">
<polygon fill="white" stroke="black" points="155,-0.5 155,-19.5 269,-19.5 269,-0.5 155,-0.5"/>
<text text-anchor="middle" x="212" y="-7.5" font-family="Helvetica,sans-Serif" font-size="10.00">H17Disk::saveAsRaw</text>
</a>
</g>
</g>
<!-- Node1&#45;&gt;Node4 -->
<g id="edge3" class="edge"><title>Node1&#45;&gt;Node4</title>
<path fill="none" stroke="midnightblue" d="M108.185,-35.96C129.21,-30.6512 153.567,-24.5012 173.296,-19.5201"/>
<polygon fill="midnightblue" stroke="midnightblue" points="107.316,-32.5693 98.4775,-38.411 109.03,-39.3563 107.316,-32.5693"/>
</g>
</g>
</svg>
