<?xml version="1.0" encoding="UTF-8" standalone="no"?>
<!DOCTYPE svg PUBLIC "-//W3C//DTD SVG 1.1//EN"
 "http://www.w3.org/Graphics/SVG/1.1/DTD/svg11.dtd">
<!-- Generated by graphviz version 2.38.0 (20140413.2041)
 -->
<!-- Title: Drive::get_drive_list Pages: 1 -->
<svg width="349pt" height="104pt"
 viewBox="0.00 0.00 349.00 104.00" xmlns="http://www.w3.org/2000/svg" xmlns:xlink="http://www.w3.org/1999/xlink">
<g id="graph0" class="graph" transform="scale(1 1) rotate(0) translate(4 100)">
<title>Drive::get_drive_list</title>
<polygon fill="white" stroke="none" points="-4,4 -4,-100 345,-100 345,4 -4,4"/>
<!-- Node1 -->
<g id="node1" class="node"><title>Node1</title>
<polygon fill="#bfbfbf" stroke="black" points="0,-38.5 0,-57.5 104,-57.5 104,-38.5 0,-38.5"/>
<text text-anchor="middle" x="52" y="-45.5" font-family="Helvetica,sans-Serif" font-size="10.00">Drive::get_drive_list</text>
</g>
<!-- Node2 -->
<g id="node2" class="node"><title>Node2</title>
<g id="a_node2"><a xlink:href="classFC5025.html#a3fa1262c4bde8788a2d71d07dfc88630" target="_top" xlink:title="FC5025::inst">
<polygon fill="white" stroke="black" points="140,-76.5 140,-95.5 213,-95.5 213,-76.5 140,-76.5"/>
<text text-anchor="middle" x="176.5" y="-83.5" font-family="Helvetica,sans-Serif" font-size="10.00">FC5025::inst</text>
</a>
</g>
</g>
<!-- Node1&#45;&gt;Node2 -->
<g id="edge1" class="edge"><title>Node1&#45;&gt;Node2</title>
<path fill="none" stroke="midnightblue" d="M83.9119,-57.589C99.2903,-62.3594 118.082,-68.1888 134.633,-73.3229"/>
<polygon fill="midnightblue" stroke="midnightblue" points="134.01,-76.7941 144.598,-76.4141 136.084,-70.1084 134.01,-76.7941"/>
</g>
<!-- Node4 -->
<g id="node4" class="node"><title>Node4</title>
<g id="a_node4"><a xlink:href="classFC5025.html#a644103f08f11ac57a1faf8710a3d7b4c" target="_top" xlink:title="FC5025::find">
<polygon fill="white" stroke="black" points="140,-38.5 140,-57.5 213,-57.5 213,-38.5 140,-38.5"/>
<text text-anchor="middle" x="176.5" y="-45.5" font-family="Helvetica,sans-Serif" font-size="10.00">FC5025::find</text>
</a>
</g>
</g>
<!-- Node1&#45;&gt;Node4 -->
<g id="edge3" class="edge"><title>Node1&#45;&gt;Node4</title>
<path fill="none" stroke="midnightblue" d="M104.241,-48C112.631,-48 121.279,-48 129.531,-48"/>
<polygon fill="midnightblue" stroke="midnightblue" points="129.723,-51.5001 139.723,-48 129.723,-44.5001 129.723,-51.5001"/>
</g>
<!-- Node5 -->
<g id="node5" class="node"><title>Node5</title>
<g id="a_node5"><a xlink:href="drive_8cpp.html#a9cc21986f8b4da7aedee40324a8884ab" target="_top" xlink:title="get_desc">
<polygon fill="white" stroke="black" points="148.5,-0.5 148.5,-19.5 204.5,-19.5 204.5,-0.5 148.5,-0.5"/>
<text text-anchor="middle" x="176.5" y="-7.5" font-family="Helvetica,sans-Serif" font-size="10.00">get_desc</text>
</a>
</g>
</g>
<!-- Node1&#45;&gt;Node5 -->
<g id="edge4" class="edge"><title>Node1&#45;&gt;Node5</title>
<path fill="none" stroke="midnightblue" d="M83.9119,-38.411C100.502,-33.2647 121.064,-26.8861 138.5,-21.4775"/>
<polygon fill="midnightblue" stroke="midnightblue" points="139.837,-24.7273 148.351,-18.4216 137.763,-18.0416 139.837,-24.7273"/>
</g>
<!-- Node3 -->
<g id="node3" class="node"><title>Node3</title>
<g id="a_node3"><a xlink:href="classFC5025.html#a01786b9fd3a20919da5e702794fa95e6" target="_top" xlink:title="FC5025::FC5025">
<polygon fill="white" stroke="black" points="249,-76.5 249,-95.5 341,-95.5 341,-76.5 249,-76.5"/>
<text text-anchor="middle" x="295" y="-83.5" font-family="Helvetica,sans-Serif" font-size="10.00">FC5025::FC5025</text>
</a>
</g>
</g>
<!-- Node2&#45;&gt;Node3 -->
<g id="edge2" class="edge"><title>Node2&#45;&gt;Node3</title>
<path fill="none" stroke="midnightblue" d="M213.087,-86C221.167,-86 229.936,-86 238.62,-86"/>
<polygon fill="midnightblue" stroke="midnightblue" points="238.729,-89.5001 248.729,-86 238.729,-82.5001 238.729,-89.5001"/>
</g>
</g>
</svg>
