<?xml version="1.0" encoding="UTF-8" standalone="no"?>
<!DOCTYPE svg PUBLIC "-//W3C//DTD SVG 1.1//EN"
 "http://www.w3.org/Graphics/SVG/1.1/DTD/svg11.dtd">
<!-- Generated by graphviz version 2.38.0 (20140413.2041)
 -->
<!-- Title: H17Disk::setDefaultDiskFormat Pages: 1 -->
<svg width="617pt" height="28pt"
 viewBox="0.00 0.00 617.00 28.00" xmlns="http://www.w3.org/2000/svg" xmlns:xlink="http://www.w3.org/1999/xlink">
<g id="graph0" class="graph" transform="scale(1 1) rotate(0) translate(4 24)">
<title>H17Disk::setDefaultDiskFormat</title>
<polygon fill="white" stroke="none" points="-4,4 -4,-24 613,-24 613,4 -4,4"/>
<!-- Node1 -->
<g id="node1" class="node"><title>Node1</title>
<polygon fill="#bfbfbf" stroke="black" points="0,-0.5 0,-19.5 157,-19.5 157,-0.5 0,-0.5"/>
<text text-anchor="middle" x="78.5" y="-7.5" font-family="Helvetica,sans-Serif" font-size="10.00">H17Disk::setDefaultDiskFormat</text>
</g>
<!-- Node2 -->
<g id="node2" class="node"><title>Node2</title>
<g id="a_node2"><a xlink:href="classH17Disk.html#a6317e8bd90eed1f3785bcde079c72ae6" target="_top" xlink:title="H17Disk::setDefaults">
<polygon fill="white" stroke="black" points="193,-0.5 193,-19.5 304,-19.5 304,-0.5 193,-0.5"/>
<text text-anchor="middle" x="248.5" y="-7.5" font-family="Helvetica,sans-Serif" font-size="10.00">H17Disk::setDefaults</text>
</a>
</g>
</g>
<!-- Node1&#45;&gt;Node2 -->
<g id="edge1" class="edge"><title>Node1&#45;&gt;Node2</title>
<path fill="none" stroke="midnightblue" d="M167.282,-10C175.948,-10 184.56,-10 192.748,-10"/>
<polygon fill="midnightblue" stroke="midnightblue" points="167.107,-6.5001 157.107,-10 167.107,-13.5001 167.107,-6.5001"/>
</g>
<!-- Node3 -->
<g id="node3" class="node"><title>Node3</title>
<g id="a_node3"><a xlink:href="classH17Disk.html#a8e41c133b13e5c9c2c8f1d39b73d5292" target="_top" xlink:title="H17Disk::loadFile">
<polygon fill="white" stroke="black" points="340,-0.5 340,-19.5 435,-19.5 435,-0.5 340,-0.5"/>
<text text-anchor="middle" x="387.5" y="-7.5" font-family="Helvetica,sans-Serif" font-size="10.00">H17Disk::loadFile</text>
</a>
</g>
</g>
<!-- Node2&#45;&gt;Node3 -->
<g id="edge2" class="edge"><title>Node2&#45;&gt;Node3</title>
<path fill="none" stroke="midnightblue" d="M314.091,-10C322.714,-10 331.42,-10 339.659,-10"/>
<polygon fill="midnightblue" stroke="midnightblue" points="314.04,-6.5001 304.04,-10 314.04,-13.5001 314.04,-6.5001"/>
</g>
<!-- Node4 -->
<g id="node4" class="node"><title>Node4</title>
<g id="a_node4"><a xlink:href="classH17Disk.html#aa375761378f8a80cb8c5e479008c0e32" target="_top" xlink:title="H17Disk::openForRecovery">
<polygon fill="white" stroke="black" points="471,-0.5 471,-19.5 609,-19.5 609,-0.5 471,-0.5"/>
<text text-anchor="middle" x="540" y="-7.5" font-family="Helvetica,sans-Serif" font-size="10.00">H17Disk::openForRecovery</text>
</a>
</g>
</g>
<!-- Node3&#45;&gt;Node4 -->
<g id="edge3" class="edge"><title>Node3&#45;&gt;Node4</title>
<path fill="none" stroke="midnightblue" d="M445.318,-10C453.693,-10 462.392,-10 470.965,-10"/>
<polygon fill="midnightblue" stroke="midnightblue" points="445.294,-6.5001 435.294,-10 445.294,-13.5001 445.294,-6.5001"/>
</g>
</g>
</svg>
