<?xml version="1.0" encoding="UTF-8" standalone="no"?>
<!DOCTYPE svg PUBLIC "-//W3C//DTD SVG 1.1//EN"
 "http://www.w3.org/Graphics/SVG/1.1/DTD/svg11.dtd">
<!-- Generated by graphviz version 2.38.0 (20140413.2041)
 -->
<!-- Title: H17Disk::writeBlockHeader Pages: 1 -->
<svg width="315pt" height="306pt"
 viewBox="0.00 0.00 315.00 305.50" xmlns="http://www.w3.org/2000/svg" xmlns:xlink="http://www.w3.org/1999/xlink">
<g id="graph0" class="graph" transform="scale(1 1) rotate(0) translate(4 301.5)">
<title>H17Disk::writeBlockHeader</title>
<polygon fill="white" stroke="none" points="-4,4 -4,-301.5 311,-301.5 311,4 -4,4"/>
<!-- Node1 -->
<g id="node1" class="node"><title>Node1</title>
<polygon fill="#bfbfbf" stroke="black" points="0,-133.5 0,-152.5 138,-152.5 138,-133.5 0,-133.5"/>
<text text-anchor="middle" x="69" y="-140.5" font-family="Helvetica,sans-Serif" font-size="10.00">H17Disk::writeBlockHeader</text>
</g>
<!-- Node2 -->
<g id="node2" class="node"><title>Node2</title>
<g id="a_node2"><a xlink:href="classH17Disk.html#a888f6eb9e66d45410eb80903df0133d3" target="_top" xlink:title="H17Disk::writeDiskFormat\lBlock">
<polygon fill="white" stroke="black" points="174,-267 174,-297 307,-297 307,-267 174,-267"/>
<text text-anchor="start" x="182" y="-285" font-family="Helvetica,sans-Serif" font-size="10.00">H17Disk::writeDiskFormat</text>
<text text-anchor="middle" x="240.5" y="-274" font-family="Helvetica,sans-Serif" font-size="10.00">Block</text>
</a>
</g>
</g>
<!-- Node1&#45;&gt;Node2 -->
<g id="edge1" class="edge"><title>Node1&#45;&gt;Node2</title>
<path fill="none" stroke="midnightblue" d="M82.2996,-161.098C99.9601,-185.856 134.732,-230.255 174,-257 179.533,-260.768 185.712,-264.072 192.004,-266.935"/>
<polygon fill="midnightblue" stroke="midnightblue" points="84.9922,-158.841 76.3952,-152.649 79.2543,-162.851 84.9922,-158.841"/>
</g>
<!-- Node3 -->
<g id="node3" class="node"><title>Node3</title>
<g id="a_node3"><a xlink:href="classH17Disk.html#a678d8b2633be207d5e3879f41991bcf5" target="_top" xlink:title="H17Disk::writeParameters">
<polygon fill="white" stroke="black" points="174.5,-228.5 174.5,-247.5 306.5,-247.5 306.5,-228.5 174.5,-228.5"/>
<text text-anchor="middle" x="240.5" y="-235.5" font-family="Helvetica,sans-Serif" font-size="10.00">H17Disk::writeParameters</text>
</a>
</g>
</g>
<!-- Node1&#45;&gt;Node3 -->
<g id="edge2" class="edge"><title>Node1&#45;&gt;Node3</title>
<path fill="none" stroke="midnightblue" d="M88.0233,-159.242C107.813,-176.307 141.159,-202.864 174,-219 181.651,-222.759 190.18,-225.907 198.487,-228.49"/>
<polygon fill="midnightblue" stroke="midnightblue" points="90.2393,-156.53 80.4132,-152.568 85.6238,-161.793 90.2393,-156.53"/>
</g>
<!-- Node4 -->
<g id="node4" class="node"><title>Node4</title>
<g id="a_node4"><a xlink:href="classH17Disk.html#ac4229315d8704036fe339189cbb649cb" target="_top" xlink:title="H17Disk::writeLabel">
<polygon fill="white" stroke="black" points="188,-190.5 188,-209.5 293,-209.5 293,-190.5 188,-190.5"/>
<text text-anchor="middle" x="240.5" y="-197.5" font-family="Helvetica,sans-Serif" font-size="10.00">H17Disk::writeLabel</text>
</a>
</g>
</g>
<!-- Node1&#45;&gt;Node4 -->
<g id="edge3" class="edge"><title>Node1&#45;&gt;Node4</title>
<path fill="none" stroke="midnightblue" d="M104.034,-156.099C124.247,-163.711 150.45,-173.292 174,-181 184.015,-184.278 194.983,-187.573 205.031,-190.477"/>
<polygon fill="midnightblue" stroke="midnightblue" points="105.222,-152.806 94.6307,-152.536 102.742,-159.352 105.222,-152.806"/>
</g>
<!-- Node5 -->
<g id="node5" class="node"><title>Node5</title>
<g id="a_node5"><a xlink:href="classH17Disk.html#a00a11fce25f33fd27437ac32e5f6139a" target="_top" xlink:title="H17Disk::writeComment">
<polygon fill="white" stroke="black" points="178,-152.5 178,-171.5 303,-171.5 303,-152.5 178,-152.5"/>
<text text-anchor="middle" x="240.5" y="-159.5" font-family="Helvetica,sans-Serif" font-size="10.00">H17Disk::writeComment</text>
</a>
</g>
</g>
<!-- Node1&#45;&gt;Node5 -->
<g id="edge4" class="edge"><title>Node1&#45;&gt;Node5</title>
<path fill="none" stroke="midnightblue" d="M148.629,-151.814C158.453,-152.915 168.387,-154.029 177.9,-155.095"/>
<polygon fill="midnightblue" stroke="midnightblue" points="148.781,-148.309 138.454,-150.673 148.001,-155.266 148.781,-148.309"/>
</g>
<!-- Node6 -->
<g id="node6" class="node"><title>Node6</title>
<g id="a_node6"><a xlink:href="classH17Disk.html#ab397651808bc9ffd033584cbe5c1a8be" target="_top" xlink:title="H17Disk::writeDate">
<polygon fill="white" stroke="black" points="189,-114.5 189,-133.5 292,-133.5 292,-114.5 189,-114.5"/>
<text text-anchor="middle" x="240.5" y="-121.5" font-family="Helvetica,sans-Serif" font-size="10.00">H17Disk::writeDate</text>
</a>
</g>
</g>
<!-- Node1&#45;&gt;Node6 -->
<g id="edge5" class="edge"><title>Node1&#45;&gt;Node6</title>
<path fill="none" stroke="midnightblue" d="M148.786,-134.168C162.381,-132.645 176.182,-131.098 188.78,-129.685"/>
<polygon fill="midnightblue" stroke="midnightblue" points="148.001,-130.734 138.454,-135.327 148.781,-137.691 148.001,-130.734"/>
</g>
<!-- Node7 -->
<g id="node7" class="node"><title>Node7</title>
<g id="a_node7"><a xlink:href="classH17Disk.html#abed5956f503f0cd51cdb8ebe6cb26c9d" target="_top" xlink:title="H17Disk::writeImager">
<polygon fill="white" stroke="black" points="184.5,-76.5 184.5,-95.5 296.5,-95.5 296.5,-76.5 184.5,-76.5"/>
<text text-anchor="middle" x="240.5" y="-83.5" font-family="Helvetica,sans-Serif" font-size="10.00">H17Disk::writeImager</text>
</a>
</g>
</g>
<!-- Node1&#45;&gt;Node7 -->
<g id="edge6" class="edge"><title>Node1&#45;&gt;Node7</title>
<path fill="none" stroke="midnightblue" d="M104.034,-129.901C124.247,-122.289 150.45,-112.708 174,-105 184.015,-101.722 194.983,-98.4268 205.031,-95.5225"/>
<polygon fill="midnightblue" stroke="midnightblue" points="102.742,-126.648 94.6307,-133.464 105.222,-133.194 102.742,-126.648"/>
</g>
<!-- Node8 -->
<g id="node8" class="node"><title>Node8</title>
<g id="a_node8"><a xlink:href="classH17Disk.html#a71da855358f9c45a027be13ae2009a5e" target="_top" xlink:title="H17Disk::writeProgram">
<polygon fill="white" stroke="black" points="181,-38.5 181,-57.5 300,-57.5 300,-38.5 181,-38.5"/>
<text text-anchor="middle" x="240.5" y="-45.5" font-family="Helvetica,sans-Serif" font-size="10.00">H17Disk::writeProgram</text>
</a>
</g>
</g>
<!-- Node1&#45;&gt;Node8 -->
<g id="edge7" class="edge"><title>Node1&#45;&gt;Node8</title>
<path fill="none" stroke="midnightblue" d="M88.0233,-126.758C107.813,-109.693 141.159,-83.1364 174,-67 181.651,-63.2405 190.18,-60.0928 198.487,-57.5102"/>
<polygon fill="midnightblue" stroke="midnightblue" points="85.6238,-124.207 80.4132,-133.432 90.2393,-129.47 85.6238,-124.207"/>
</g>
<!-- Node9 -->
<g id="node9" class="node"><title>Node9</title>
<g id="a_node9"><a xlink:href="classH17Disk.html#ae95a1ef9181111102784f12dc00e341b" target="_top" xlink:title="H17Disk::startData">
<polygon fill="white" stroke="black" points="190,-0.5 190,-19.5 291,-19.5 291,-0.5 190,-0.5"/>
<text text-anchor="middle" x="240.5" y="-7.5" font-family="Helvetica,sans-Serif" font-size="10.00">H17Disk::startData</text>
</a>
</g>
</g>
<!-- Node1&#45;&gt;Node9 -->
<g id="edge8" class="edge"><title>Node1&#45;&gt;Node9</title>
<path fill="none" stroke="midnightblue" d="M81.7392,-124.816C98.9611,-99.5881 133.464,-54.2329 174,-29 180.232,-25.1206 187.288,-22.0058 194.402,-19.5129"/>
<polygon fill="midnightblue" stroke="midnightblue" points="78.6414,-123.153 76.0083,-133.416 84.4664,-127.035 78.6414,-123.153"/>
</g>
</g>
</svg>
