<?xml version="1.0" encoding="UTF-8" standalone="no"?>
<!DOCTYPE svg PUBLIC "-//W3C//DTD SVG 1.1//EN"
 "http://www.w3.org/Graphics/SVG/1.1/DTD/svg11.dtd">
<!-- Generated by graphviz version 2.38.0 (20140413.2041)
 -->
<!-- Title: H17Disk Pages: 1 -->
<svg width="470pt" height="375pt"
 viewBox="0.00 0.00 470.00 375.00" xmlns="http://www.w3.org/2000/svg" xmlns:xlink="http://www.w3.org/1999/xlink">
<g id="graph0" class="graph" transform="scale(1 1) rotate(0) translate(4 371)">
<title>H17Disk</title>
<polygon fill="white" stroke="none" points="-4,4 -4,-371 466,-371 466,4 -4,4"/>
<!-- Node1 -->
<g id="node1" class="node"><title>Node1</title>
<polygon fill="#bfbfbf" stroke="black" points="170,-0.5 170,-19.5 225,-19.5 225,-0.5 170,-0.5"/>
<text text-anchor="middle" x="197.5" y="-7.5" font-family="Helvetica,sans-Serif" font-size="10.00">H17Disk</text>
</g>
<!-- Node2 -->
<g id="node2" class="node"><title>Node2</title>
<g id="a_node2"><a xlink:href="classSector.html" target="_top" xlink:title="Sector">
<polygon fill="white" stroke="black" points="0,-67.5 0,-86.5 45,-86.5 45,-67.5 0,-67.5"/>
<text text-anchor="middle" x="22.5" y="-74.5" font-family="Helvetica,sans-Serif" font-size="10.00">Sector</text>
</a>
</g>
</g>
<!-- Node2&#45;&gt;Node1 -->
<g id="edge1" class="edge"><title>Node2&#45;&gt;Node1</title>
<path fill="none" stroke="#9a32cd" stroke-dasharray="5,2" d="M29.4461,-57.9703C33.1437,-50.6812 38.417,-42.8578 45.5,-38 65.2823,-24.4326 131.714,-16.6379 169.887,-13.1763"/>
<polygon fill="#9a32cd" stroke="#9a32cd" points="26.1866,-56.6878 25.3586,-67.2503 32.5927,-59.5096 26.1866,-56.6878"/>
<text text-anchor="middle" x="90" y="-41" font-family="Helvetica,sans-Serif" font-size="10.00"> curTrackSectors_m</text>
</g>
<!-- Node3 -->
<g id="node3" class="node"><title>Node3</title>
<g id="a_node3"><a xlink:title="STL class. ">
<polygon fill="white" stroke="#bfbfbf" points="66,-67.5 66,-86.5 137,-86.5 137,-67.5 66,-67.5"/>
<text text-anchor="middle" x="101.5" y="-74.5" font-family="Helvetica,sans-Serif" font-size="10.00">std::ifstream</text>
</a>
</g>
</g>
<!-- Node3&#45;&gt;Node1 -->
<g id="edge2" class="edge"><title>Node3&#45;&gt;Node1</title>
<path fill="none" stroke="#9a32cd" stroke-dasharray="5,2" d="M120.569,-61.0838C130.014,-53.8797 141.685,-45.2474 152.5,-38 162.188,-31.508 173.438,-24.758 182.266,-19.631"/>
<polygon fill="#9a32cd" stroke="#9a32cd" points="118.394,-58.3412 112.61,-67.2177 122.667,-63.8857 118.394,-58.3412"/>
<text text-anchor="middle" x="172.5" y="-41" font-family="Helvetica,sans-Serif" font-size="10.00"> inFile_m</text>
</g>
<!-- Node4 -->
<g id="node4" class="node"><title>Node4</title>
<g id="a_node4"><a xlink:title="STL class. ">
<polygon fill="white" stroke="#bfbfbf" points="33.5,-134.5 33.5,-164.5 133.5,-164.5 133.5,-134.5 33.5,-134.5"/>
<text text-anchor="start" x="41.5" y="-152.5" font-family="Helvetica,sans-Serif" font-size="10.00">std::basic_ifstream</text>
<text text-anchor="middle" x="83.5" y="-141.5" font-family="Helvetica,sans-Serif" font-size="10.00">&lt; char &gt;</text>
</a>
</g>
</g>
<!-- Node4&#45;&gt;Node3 -->
<g id="edge3" class="edge"><title>Node4&#45;&gt;Node3</title>
<path fill="none" stroke="midnightblue" d="M89.6335,-124.477C92.9431,-111.515 96.8301,-96.2904 99.2294,-86.8932"/>
<polygon fill="midnightblue" stroke="midnightblue" points="86.2253,-123.678 87.1426,-134.233 93.0077,-125.41 86.2253,-123.678"/>
</g>
<!-- Node5 -->
<g id="node5" class="node"><title>Node5</title>
<g id="a_node5"><a xlink:title="STL class. ">
<polygon fill="white" stroke="#bfbfbf" points="36,-212.5 36,-242.5 133,-242.5 133,-212.5 36,-212.5"/>
<text text-anchor="start" x="44" y="-230.5" font-family="Helvetica,sans-Serif" font-size="10.00">std::basic_istream</text>
<text text-anchor="middle" x="84.5" y="-219.5" font-family="Helvetica,sans-Serif" font-size="10.00">&lt; Char &gt;</text>
</a>
</g>
</g>
<!-- Node5&#45;&gt;Node4 -->
<g id="edge4" class="edge"><title>Node5&#45;&gt;Node4</title>
<path fill="none" stroke="midnightblue" d="M84.1788,-202.09C84.0165,-189.757 83.8253,-175.224 83.6872,-164.731"/>
<polygon fill="midnightblue" stroke="midnightblue" points="80.6805,-202.252 84.3119,-212.205 87.6799,-202.16 80.6805,-202.252"/>
</g>
<!-- Node6 -->
<g id="node6" class="node"><title>Node6</title>
<g id="a_node6"><a xlink:title="STL class. ">
<polygon fill="white" stroke="#bfbfbf" points="84.5,-290.5 84.5,-309.5 200.5,-309.5 200.5,-290.5 84.5,-290.5"/>
<text text-anchor="middle" x="142.5" y="-297.5" font-family="Helvetica,sans-Serif" font-size="10.00">std::basic_ios&lt; Char &gt;</text>
</a>
</g>
</g>
<!-- Node6&#45;&gt;Node5 -->
<g id="edge5" class="edge"><title>Node6&#45;&gt;Node5</title>
<path fill="none" stroke="midnightblue" d="M128.837,-282.393C118.874,-270.283 105.521,-254.051 96.0804,-242.576"/>
<polygon fill="midnightblue" stroke="midnightblue" points="126.332,-284.856 135.388,-290.355 131.738,-280.409 126.332,-284.856"/>
</g>
<!-- Node15 -->
<g id="node15" class="node"><title>Node15</title>
<g id="a_node15"><a xlink:title="STL class. ">
<polygon fill="white" stroke="#bfbfbf" points="152.5,-212.5 152.5,-242.5 252.5,-242.5 252.5,-212.5 152.5,-212.5"/>
<text text-anchor="start" x="160.5" y="-230.5" font-family="Helvetica,sans-Serif" font-size="10.00">std::basic_ostream</text>
<text text-anchor="middle" x="202.5" y="-219.5" font-family="Helvetica,sans-Serif" font-size="10.00">&lt; Char &gt;</text>
</a>
</g>
</g>
<!-- Node6&#45;&gt;Node15 -->
<g id="edge15" class="edge"><title>Node6&#45;&gt;Node15</title>
<path fill="none" stroke="midnightblue" d="M156.634,-282.393C166.94,-270.283 180.754,-254.051 190.52,-242.576"/>
<polygon fill="midnightblue" stroke="midnightblue" points="153.673,-280.471 149.857,-290.355 159.004,-285.008 153.673,-280.471"/>
</g>
<!-- Node7 -->
<g id="node7" class="node"><title>Node7</title>
<g id="a_node7"><a xlink:title="STL class. ">
<polygon fill="white" stroke="#bfbfbf" points="105,-347.5 105,-366.5 180,-366.5 180,-347.5 105,-347.5"/>
<text text-anchor="middle" x="142.5" y="-354.5" font-family="Helvetica,sans-Serif" font-size="10.00">std::ios_base</text>
</a>
</g>
</g>
<!-- Node7&#45;&gt;Node6 -->
<g id="edge6" class="edge"><title>Node7&#45;&gt;Node6</title>
<path fill="none" stroke="midnightblue" d="M142.5,-337.117C142.5,-327.817 142.5,-317.056 142.5,-309.715"/>
<polygon fill="midnightblue" stroke="midnightblue" points="139,-337.406 142.5,-347.406 146,-337.406 139,-337.406"/>
</g>
<!-- Node8 -->
<g id="node8" class="node"><title>Node8</title>
<g id="a_node8"><a xlink:href="classH17Block.html" target="_top" xlink:title="H17Block">
<polygon fill="white" stroke="black" points="250,-67.5 250,-86.5 309,-86.5 309,-67.5 250,-67.5"/>
<text text-anchor="middle" x="279.5" y="-74.5" font-family="Helvetica,sans-Serif" font-size="10.00">H17Block</text>
</a>
</g>
</g>
<!-- Node8&#45;&gt;Node1 -->
<g id="edge7" class="edge"><title>Node8&#45;&gt;Node1</title>
<path fill="none" stroke="#9a32cd" stroke-dasharray="5,2" d="M260.215,-60.7134C244.06,-47.907 221.581,-30.0884 208.384,-19.6273"/>
<polygon fill="#9a32cd" stroke="#9a32cd" points="258.43,-63.7647 268.441,-67.2338 262.779,-58.279 258.43,-63.7647"/>
<text text-anchor="middle" x="266.5" y="-41" font-family="Helvetica,sans-Serif" font-size="10.00"> blocks_m</text>
</g>
<!-- Node9 -->
<g id="node9" class="node"><title>Node9</title>
<polygon fill="white" stroke="#bfbfbf" points="327,-67.5 327,-86.5 460,-86.5 460,-67.5 327,-67.5"/>
<text text-anchor="middle" x="393.5" y="-74.5" font-family="Helvetica,sans-Serif" font-size="10.00">std::vector&lt; RawTrack * &gt;</text>
</g>
<!-- Node9&#45;&gt;Node1 -->
<g id="edge8" class="edge"><title>Node9&#45;&gt;Node1</title>
<path fill="none" stroke="#9a32cd" stroke-dasharray="5,2" d="M363.252,-63.7011C343.546,-55.8892 317.188,-45.8148 293.5,-38 270.646,-30.4605 244.308,-23.1484 225.007,-18.0395"/>
<polygon fill="#9a32cd" stroke="#9a32cd" points="362.04,-66.986 372.625,-67.4451 364.637,-60.4854 362.04,-66.986"/>
<text text-anchor="middle" x="356" y="-41" font-family="Helvetica,sans-Serif" font-size="10.00"> rawTracks_m</text>
</g>
<!-- Node10 -->
<g id="node10" class="node"><title>Node10</title>
<g id="a_node10"><a xlink:href="classRawTrack.html" target="_top" xlink:title="RawTrack">
<polygon fill="white" stroke="black" points="362.5,-140 362.5,-159 424.5,-159 424.5,-140 362.5,-140"/>
<text text-anchor="middle" x="393.5" y="-147" font-family="Helvetica,sans-Serif" font-size="10.00">RawTrack</text>
</a>
</g>
</g>
<!-- Node10&#45;&gt;Node9 -->
<g id="edge9" class="edge"><title>Node10&#45;&gt;Node9</title>
<path fill="none" stroke="#9a32cd" stroke-dasharray="5,2" d="M393.5,-129.442C393.5,-115.53 393.5,-97.3203 393.5,-86.7154"/>
<polygon fill="#9a32cd" stroke="#9a32cd" points="390,-129.855 393.5,-139.855 397,-129.855 390,-129.855"/>
<text text-anchor="middle" x="415" y="-108" font-family="Helvetica,sans-Serif" font-size="10.00"> elements</text>
</g>
<!-- Node11 -->
<g id="node11" class="node"><title>Node11</title>
<polygon fill="white" stroke="#bfbfbf" points="325,-218 325,-237 462,-237 462,-218 325,-218"/>
<text text-anchor="middle" x="393.5" y="-225" font-family="Helvetica,sans-Serif" font-size="10.00">std::vector&lt; RawSector * &gt;</text>
</g>
<!-- Node11&#45;&gt;Node10 -->
<g id="edge10" class="edge"><title>Node11&#45;&gt;Node10</title>
<path fill="none" stroke="#9a32cd" stroke-dasharray="5,2" d="M393.5,-207.724C393.5,-192.197 393.5,-170.858 393.5,-159.116"/>
<polygon fill="#9a32cd" stroke="#9a32cd" points="390,-207.782 393.5,-217.782 397,-207.782 390,-207.782"/>
<text text-anchor="middle" x="418" y="-186" font-family="Helvetica,sans-Serif" font-size="10.00"> sectors_m</text>
</g>
<!-- Node12 -->
<g id="node12" class="node"><title>Node12</title>
<g id="a_node12"><a xlink:href="classRawSector.html" target="_top" xlink:title="RawSector">
<polygon fill="white" stroke="black" points="361,-290.5 361,-309.5 426,-309.5 426,-290.5 361,-290.5"/>
<text text-anchor="middle" x="393.5" y="-297.5" font-family="Helvetica,sans-Serif" font-size="10.00">RawSector</text>
</a>
</g>
</g>
<!-- Node12&#45;&gt;Node11 -->
<g id="edge11" class="edge"><title>Node12&#45;&gt;Node11</title>
<path fill="none" stroke="#9a32cd" stroke-dasharray="5,2" d="M393.5,-279.942C393.5,-266.03 393.5,-247.82 393.5,-237.215"/>
<polygon fill="#9a32cd" stroke="#9a32cd" points="390,-280.355 393.5,-290.355 397,-280.355 390,-280.355"/>
<text text-anchor="middle" x="415" y="-264" font-family="Helvetica,sans-Serif" font-size="10.00"> elements</text>
</g>
<!-- Node13 -->
<g id="node13" class="node"><title>Node13</title>
<g id="a_node13"><a xlink:title="STL class. ">
<polygon fill="white" stroke="#bfbfbf" points="157.5,-67.5 157.5,-86.5 231.5,-86.5 231.5,-67.5 157.5,-67.5"/>
<text text-anchor="middle" x="194.5" y="-74.5" font-family="Helvetica,sans-Serif" font-size="10.00">std::ofstream</text>
</a>
</g>
</g>
<!-- Node13&#45;&gt;Node1 -->
<g id="edge12" class="edge"><title>Node13&#45;&gt;Node1</title>
<path fill="none" stroke="#9a32cd" stroke-dasharray="5,2" d="M195.375,-57.037C195.946,-44.6703 196.664,-29.1198 197.102,-19.6273"/>
<polygon fill="#9a32cd" stroke="#9a32cd" points="191.869,-57.083 194.905,-67.2338 198.862,-57.4058 191.869,-57.083"/>
<text text-anchor="middle" x="211.5" y="-41" font-family="Helvetica,sans-Serif" font-size="10.00"> file_m</text>
</g>
<!-- Node14 -->
<g id="node14" class="node"><title>Node14</title>
<g id="a_node14"><a xlink:title="STL class. ">
<polygon fill="white" stroke="#bfbfbf" points="152,-134.5 152,-164.5 255,-164.5 255,-134.5 152,-134.5"/>
<text text-anchor="start" x="160" y="-152.5" font-family="Helvetica,sans-Serif" font-size="10.00">std::basic_ofstream</text>
<text text-anchor="middle" x="203.5" y="-141.5" font-family="Helvetica,sans-Serif" font-size="10.00">&lt; char &gt;</text>
</a>
</g>
</g>
<!-- Node14&#45;&gt;Node13 -->
<g id="edge13" class="edge"><title>Node14&#45;&gt;Node13</title>
<path fill="none" stroke="midnightblue" d="M200.384,-124.091C198.74,-111.214 196.823,-96.1974 195.635,-86.8932"/>
<polygon fill="midnightblue" stroke="midnightblue" points="196.94,-124.757 201.679,-134.233 203.884,-123.871 196.94,-124.757"/>
</g>
<!-- Node15&#45;&gt;Node14 -->
<g id="edge14" class="edge"><title>Node15&#45;&gt;Node14</title>
<path fill="none" stroke="midnightblue" d="M202.821,-202.09C202.983,-189.757 203.175,-175.224 203.313,-164.731"/>
<polygon fill="midnightblue" stroke="midnightblue" points="199.32,-202.16 202.688,-212.205 206.319,-202.252 199.32,-202.16"/>
</g>
</g>
</svg>
