<?xml version="1.0" encoding="UTF-8" standalone="no"?>
<!DOCTYPE svg PUBLIC "-//W3C//DTD SVG 1.1//EN"
 "http://www.w3.org/Graphics/SVG/1.1/DTD/svg11.dtd">
<!-- Generated by graphviz version 2.38.0 (20140413.2041)
 -->
<!-- Title: H17Disk::loadBuffer Pages: 1 -->
<svg width="450pt" height="332pt"
 viewBox="0.00 0.00 450.00 332.00" xmlns="http://www.w3.org/2000/svg" xmlns:xlink="http://www.w3.org/1999/xlink">
<g id="graph0" class="graph" transform="scale(1 1) rotate(0) translate(4 328)">
<title>H17Disk::loadBuffer</title>
<polygon fill="white" stroke="none" points="-4,4 -4,-328 446,-328 446,4 -4,4"/>
<!-- Node1 -->
<g id="node1" class="node"><title>Node1</title>
<polygon fill="#bfbfbf" stroke="black" points="0,-171.5 0,-190.5 105,-190.5 105,-171.5 0,-171.5"/>
<text text-anchor="middle" x="52.5" y="-178.5" font-family="Helvetica,sans-Serif" font-size="10.00">H17Disk::loadBuffer</text>
</g>
<!-- Node2 -->
<g id="node2" class="node"><title>Node2</title>
<g id="a_node2"><a xlink:href="classH17Disk.html#a96fe20794510f9235881fd62497f598f" target="_top" xlink:title="H17Disk::loadHeader">
<polygon fill="white" stroke="black" points="141,-190.5 141,-209.5 251,-209.5 251,-190.5 141,-190.5"/>
<text text-anchor="middle" x="196" y="-197.5" font-family="Helvetica,sans-Serif" font-size="10.00">H17Disk::loadHeader</text>
</a>
</g>
</g>
<!-- Node1&#45;&gt;Node2 -->
<g id="edge1" class="edge"><title>Node1&#45;&gt;Node2</title>
<path fill="none" stroke="midnightblue" d="M105.386,-187.967C113.663,-189.078 122.311,-190.24 130.832,-191.384"/>
<polygon fill="midnightblue" stroke="midnightblue" points="130.368,-194.853 140.744,-192.715 131.299,-187.915 130.368,-194.853"/>
</g>
<!-- Node3 -->
<g id="node3" class="node"><title>Node3</title>
<g id="a_node3"><a xlink:href="classH17Disk.html#ab5299643ce037fb442e0ccb21cb80c5f" target="_top" xlink:title="H17Disk::loadBlock">
<polygon fill="white" stroke="black" points="144,-152.5 144,-171.5 248,-171.5 248,-152.5 144,-152.5"/>
<text text-anchor="middle" x="196" y="-159.5" font-family="Helvetica,sans-Serif" font-size="10.00">H17Disk::loadBlock</text>
</a>
</g>
</g>
<!-- Node1&#45;&gt;Node3 -->
<g id="edge2" class="edge"><title>Node1&#45;&gt;Node3</title>
<path fill="none" stroke="midnightblue" d="M105.386,-174.033C114.538,-172.804 124.144,-171.514 133.529,-170.254"/>
<polygon fill="midnightblue" stroke="midnightblue" points="134.148,-173.702 143.593,-168.903 133.216,-166.765 134.148,-173.702"/>
</g>
<!-- Node4 -->
<g id="node4" class="node"><title>Node4</title>
<g id="a_node4"><a xlink:href="classH17Disk.html#a4c484465d1c422d5ce5b4661bc72dd3a" target="_top" xlink:title="H17Disk::loadDiskFormatBlock">
<polygon fill="white" stroke="black" points="287,-304.5 287,-323.5 442,-323.5 442,-304.5 287,-304.5"/>
<text text-anchor="middle" x="364.5" y="-311.5" font-family="Helvetica,sans-Serif" font-size="10.00">H17Disk::loadDiskFormatBlock</text>
</a>
</g>
</g>
<!-- Node3&#45;&gt;Node4 -->
<g id="edge3" class="edge"><title>Node3&#45;&gt;Node4</title>
<path fill="none" stroke="midnightblue" d="M237.833,-171.618C242.706,-174.069 247.267,-177.144 251,-181 287.956,-219.175 248.275,-258.62 287,-295 288.661,-296.561 290.43,-297.999 292.286,-299.323"/>
<polygon fill="midnightblue" stroke="midnightblue" points="290.524,-302.348 300.911,-304.435 294.093,-296.326 290.524,-302.348"/>
</g>
<!-- Node5 -->
<g id="node5" class="node"><title>Node5</title>
<g id="a_node5"><a xlink:href="classH17Disk.html#a8dfa864cc65f81413d3b518c6c1e67e6" target="_top" xlink:title="H17Disk::loadFlagsBlock">
<polygon fill="white" stroke="black" points="300.5,-266.5 300.5,-285.5 428.5,-285.5 428.5,-266.5 300.5,-266.5"/>
<text text-anchor="middle" x="364.5" y="-273.5" font-family="Helvetica,sans-Serif" font-size="10.00">H17Disk::loadFlagsBlock</text>
</a>
</g>
</g>
<!-- Node3&#45;&gt;Node5 -->
<g id="edge4" class="edge"><title>Node3&#45;&gt;Node5</title>
<path fill="none" stroke="midnightblue" d="M236.255,-171.592C241.604,-174.056 246.718,-177.142 251,-181 278.767,-206.018 258.078,-233.327 287,-257 289.039,-258.669 291.203,-260.194 293.463,-261.587"/>
<polygon fill="midnightblue" stroke="midnightblue" points="292.103,-264.825 302.589,-266.337 295.335,-258.616 292.103,-264.825"/>
</g>
<!-- Node6 -->
<g id="node6" class="node"><title>Node6</title>
<g id="a_node6"><a xlink:href="classH17Disk.html#a3a4c239c85de3b29d6d89c8854c8ed9b" target="_top" xlink:title="H17Disk::loadLabelBlock">
<polygon fill="white" stroke="black" points="301,-228.5 301,-247.5 428,-247.5 428,-228.5 301,-228.5"/>
<text text-anchor="middle" x="364.5" y="-235.5" font-family="Helvetica,sans-Serif" font-size="10.00">H17Disk::loadLabelBlock</text>
</a>
</g>
</g>
<!-- Node3&#45;&gt;Node6 -->
<g id="edge5" class="edge"><title>Node3&#45;&gt;Node6</title>
<path fill="none" stroke="midnightblue" d="M231.852,-171.52C238.481,-174.079 245.163,-177.214 251,-181 270.519,-193.659 266.903,-207.281 287,-219 290.724,-221.171 294.689,-223.096 298.781,-224.802"/>
<polygon fill="midnightblue" stroke="midnightblue" points="297.909,-228.211 308.502,-228.398 300.338,-221.646 297.909,-228.211"/>
</g>
<!-- Node7 -->
<g id="node7" class="node"><title>Node7</title>
<g id="a_node7"><a xlink:href="classH17Disk.html#a4b28a58f502aedd83052dbbba759ba28" target="_top" xlink:title="H17Disk::loadCommentBlock">
<polygon fill="white" stroke="black" points="291.5,-190.5 291.5,-209.5 437.5,-209.5 437.5,-190.5 291.5,-190.5"/>
<text text-anchor="middle" x="364.5" y="-197.5" font-family="Helvetica,sans-Serif" font-size="10.00">H17Disk::loadCommentBlock</text>
</a>
</g>
</g>
<!-- Node3&#45;&gt;Node7 -->
<g id="edge6" class="edge"><title>Node3&#45;&gt;Node7</title>
<path fill="none" stroke="midnightblue" d="M239.015,-171.589C261.184,-176.649 288.573,-182.9 312.011,-188.249"/>
<polygon fill="midnightblue" stroke="midnightblue" points="311.259,-191.667 321.787,-190.48 312.817,-184.843 311.259,-191.667"/>
</g>
<!-- Node8 -->
<g id="node8" class="node"><title>Node8</title>
<g id="a_node8"><a xlink:href="classH17Disk.html#a06965b624586dda02e6a1cf7ebf53984" target="_top" xlink:title="H17Disk::loadDateBlock">
<polygon fill="white" stroke="black" points="302,-152.5 302,-171.5 427,-171.5 427,-152.5 302,-152.5"/>
<text text-anchor="middle" x="364.5" y="-159.5" font-family="Helvetica,sans-Serif" font-size="10.00">H17Disk::loadDateBlock</text>
</a>
</g>
</g>
<!-- Node3&#45;&gt;Node8 -->
<g id="edge7" class="edge"><title>Node3&#45;&gt;Node8</title>
<path fill="none" stroke="midnightblue" d="M248.314,-162C262.055,-162 277.165,-162 291.79,-162"/>
<polygon fill="midnightblue" stroke="midnightblue" points="291.815,-165.5 301.815,-162 291.815,-158.5 291.815,-165.5"/>
</g>
<!-- Node9 -->
<g id="node9" class="node"><title>Node9</title>
<g id="a_node9"><a xlink:href="classH17Disk.html#a6183e4e35db3b2ae16a9322f377556e4" target="_top" xlink:title="H17Disk::loadImagerBlock">
<polygon fill="white" stroke="black" points="297.5,-114.5 297.5,-133.5 431.5,-133.5 431.5,-114.5 297.5,-114.5"/>
<text text-anchor="middle" x="364.5" y="-121.5" font-family="Helvetica,sans-Serif" font-size="10.00">H17Disk::loadImagerBlock</text>
</a>
</g>
</g>
<!-- Node3&#45;&gt;Node9 -->
<g id="edge8" class="edge"><title>Node3&#45;&gt;Node9</title>
<path fill="none" stroke="midnightblue" d="M239.015,-152.411C261.184,-147.351 288.573,-141.1 312.011,-135.751"/>
<polygon fill="midnightblue" stroke="midnightblue" points="312.817,-139.157 321.787,-133.52 311.259,-132.333 312.817,-139.157"/>
</g>
<!-- Node10 -->
<g id="node10" class="node"><title>Node10</title>
<g id="a_node10"><a xlink:href="classH17Disk.html#aead615d628b0e4c68f69bd746aeabdb1" target="_top" xlink:title="H17Disk::loadProgramBlock">
<polygon fill="white" stroke="black" points="294.5,-76.5 294.5,-95.5 434.5,-95.5 434.5,-76.5 294.5,-76.5"/>
<text text-anchor="middle" x="364.5" y="-83.5" font-family="Helvetica,sans-Serif" font-size="10.00">H17Disk::loadProgramBlock</text>
</a>
</g>
</g>
<!-- Node3&#45;&gt;Node10 -->
<g id="edge9" class="edge"><title>Node3&#45;&gt;Node10</title>
<path fill="none" stroke="midnightblue" d="M209.39,-152.313C226.11,-139.688 257.239,-117.723 287,-105 292.78,-102.529 298.949,-100.333 305.182,-98.3925"/>
<polygon fill="midnightblue" stroke="midnightblue" points="306.351,-101.698 314.981,-95.5515 304.401,-94.9746 306.351,-101.698"/>
</g>
<!-- Node11 -->
<g id="node11" class="node"><title>Node11</title>
<g id="a_node11"><a xlink:href="classH17Disk.html#a36b7999d189ddc7dc05ba9adcbf3b946" target="_top" xlink:title="H17Disk::loadDataBlock">
<polygon fill="white" stroke="black" points="302,-38.5 302,-57.5 427,-57.5 427,-38.5 302,-38.5"/>
<text text-anchor="middle" x="364.5" y="-45.5" font-family="Helvetica,sans-Serif" font-size="10.00">H17Disk::loadDataBlock</text>
</a>
</g>
</g>
<!-- Node3&#45;&gt;Node11 -->
<g id="edge10" class="edge"><title>Node3&#45;&gt;Node11</title>
<path fill="none" stroke="midnightblue" d="M203.175,-152.487C216.212,-133.202 248.533,-89.4316 287,-67 290.724,-64.8285 294.689,-62.9037 298.781,-61.1978"/>
<polygon fill="midnightblue" stroke="midnightblue" points="300.338,-64.3538 308.502,-57.6016 297.909,-57.7887 300.338,-64.3538"/>
</g>
<!-- Node12 -->
<g id="node12" class="node"><title>Node12</title>
<g id="a_node12"><a xlink:href="classH17Disk.html#a31ecffc2c61fe921e9a2ef4018ce5c99" target="_top" xlink:title="H17Disk::loadRawDataBlock">
<polygon fill="white" stroke="black" points="292,-0.5 292,-19.5 437,-19.5 437,-0.5 292,-0.5"/>
<text text-anchor="middle" x="364.5" y="-7.5" font-family="Helvetica,sans-Serif" font-size="10.00">H17Disk::loadRawDataBlock</text>
</a>
</g>
</g>
<!-- Node3&#45;&gt;Node12 -->
<g id="edge11" class="edge"><title>Node3&#45;&gt;Node12</title>
<path fill="none" stroke="midnightblue" d="M200.714,-152.164C210.618,-127.326 240.143,-61.726 287,-29 289.749,-27.0802 292.672,-25.3539 295.711,-23.8016"/>
<polygon fill="midnightblue" stroke="midnightblue" points="297.385,-26.8887 305.118,-19.6471 294.557,-20.4854 297.385,-26.8887"/>
</g>
</g>
</svg>
