<?xml version="1.0" encoding="UTF-8" standalone="no"?>
<!DOCTYPE svg PUBLIC "-//W3C//DTD SVG 1.1//EN"
 "http://www.w3.org/Graphics/SVG/1.1/DTD/svg11.dtd">
<!-- Generated by graphviz version 2.38.0 (20140413.2041)
 -->
<!-- Title: H17DiskRawDataBlock::writeToFile Pages: 1 -->
<svg width="463pt" height="39pt"
 viewBox="0.00 0.00 463.00 39.00" xmlns="http://www.w3.org/2000/svg" xmlns:xlink="http://www.w3.org/1999/xlink">
<g id="graph0" class="graph" transform="scale(1 1) rotate(0) translate(4 35)">
<title>H17DiskRawDataBlock::writeToFile</title>
<polygon fill="white" stroke="none" points="-4,4 -4,-35 459,-35 459,4 -4,4"/>
<!-- Node1 -->
<g id="node1" class="node"><title>Node1</title>
<polygon fill="#bfbfbf" stroke="black" points="0,-0.5 0,-30.5 121,-30.5 121,-0.5 0,-0.5"/>
<text text-anchor="start" x="8" y="-18.5" font-family="Helvetica,sans-Serif" font-size="10.00">H17DiskRawDataBlock</text>
<text text-anchor="middle" x="60.5" y="-7.5" font-family="Helvetica,sans-Serif" font-size="10.00">::writeToFile</text>
</g>
<!-- Node2 -->
<g id="node2" class="node"><title>Node2</title>
<g id="a_node2"><a xlink:href="classH17Block.html#a5c4d56a6c991c87fb9215797ce63b804" target="_top" xlink:title="H17Block::writeBlockHeader">
<polygon fill="white" stroke="black" points="157,-6 157,-25 300,-25 300,-6 157,-6"/>
<text text-anchor="middle" x="228.5" y="-13" font-family="Helvetica,sans-Serif" font-size="10.00">H17Block::writeBlockHeader</text>
</a>
</g>
</g>
<!-- Node1&#45;&gt;Node2 -->
<g id="edge1" class="edge"><title>Node1&#45;&gt;Node2</title>
<path fill="none" stroke="midnightblue" d="M121.43,-15.5C129.707,-15.5 138.316,-15.5 146.891,-15.5"/>
<polygon fill="midnightblue" stroke="midnightblue" points="146.921,-19.0001 156.921,-15.5 146.921,-12.0001 146.921,-19.0001"/>
</g>
<!-- Node3 -->
<g id="node3" class="node"><title>Node3</title>
<g id="a_node3"><a xlink:href="classH17Block.html#aa2e87b141623b4c897c5337ea0535d1c" target="_top" xlink:title="H17Block::getDataSize">
<polygon fill="white" stroke="black" points="336,-6 336,-25 455,-25 455,-6 336,-6"/>
<text text-anchor="middle" x="395.5" y="-13" font-family="Helvetica,sans-Serif" font-size="10.00">H17Block::getDataSize</text>
</a>
</g>
</g>
<!-- Node2&#45;&gt;Node3 -->
<g id="edge2" class="edge"><title>Node2&#45;&gt;Node3</title>
<path fill="none" stroke="midnightblue" d="M300.432,-15.5C308.816,-15.5 317.361,-15.5 325.714,-15.5"/>
<polygon fill="midnightblue" stroke="midnightblue" points="325.783,-19.0001 335.783,-15.5 325.783,-12.0001 325.783,-19.0001"/>
</g>
</g>
</svg>
