<?xml version="1.0" encoding="UTF-8" standalone="no"?>
<!DOCTYPE svg PUBLIC "-//W3C//DTD SVG 1.1//EN"
 "http://www.w3.org/Graphics/SVG/1.1/DTD/svg11.dtd">
<!-- Generated by graphviz version 2.38.0 (20140413.2041)
 -->
<!-- Title: FC5025::inst Pages: 1 -->
<svg width="248pt" height="142pt"
 viewBox="0.00 0.00 248.00 142.00" xmlns="http://www.w3.org/2000/svg" xmlns:xlink="http://www.w3.org/1999/xlink">
<g id="graph0" class="graph" transform="scale(1 1) rotate(0) translate(4 138)">
<title>FC5025::inst</title>
<polygon fill="white" stroke="none" points="-4,4 -4,-138 244,-138 244,4 -4,4"/>
<!-- Node1 -->
<g id="node1" class="node"><title>Node1</title>
<polygon fill="#bfbfbf" stroke="black" points="0,-57.5 0,-76.5 73,-76.5 73,-57.5 0,-57.5"/>
<text text-anchor="middle" x="36.5" y="-64.5" font-family="Helvetica,sans-Serif" font-size="10.00">FC5025::inst</text>
</g>
<!-- Node2 -->
<g id="node2" class="node"><title>Node2</title>
<g id="a_node2"><a xlink:href="classDrive.html#a4f4e8bf510bd82b4440e89426ee56122" target="_top" xlink:title="Drive::Drive">
<polygon fill="white" stroke="black" points="140,-114.5 140,-133.5 209,-133.5 209,-114.5 140,-114.5"/>
<text text-anchor="middle" x="174.5" y="-121.5" font-family="Helvetica,sans-Serif" font-size="10.00">Drive::Drive</text>
</a>
</g>
</g>
<!-- Node1&#45;&gt;Node2 -->
<g id="edge1" class="edge"><title>Node1&#45;&gt;Node2</title>
<path fill="none" stroke="midnightblue" d="M61.9505,-81.579C75.4944,-89.246 92.8205,-98.3968 109,-105 118.835,-109.014 129.829,-112.575 139.914,-115.498"/>
<polygon fill="midnightblue" stroke="midnightblue" points="63.6505,-78.5191 53.2388,-76.5576 60.1548,-84.5838 63.6505,-78.5191"/>
</g>
<!-- Node3 -->
<g id="node3" class="node"><title>Node3</title>
<g id="a_node3"><a xlink:href="classDrive.html#a9a9f96b1b0b4e841567ccf9fc2d60aaa" target="_top" xlink:title="Drive::~Drive">
<polygon fill="white" stroke="black" points="137,-76.5 137,-95.5 212,-95.5 212,-76.5 137,-76.5"/>
<text text-anchor="middle" x="174.5" y="-83.5" font-family="Helvetica,sans-Serif" font-size="10.00">Drive::~Drive</text>
</a>
</g>
</g>
<!-- Node1&#45;&gt;Node3 -->
<g id="edge2" class="edge"><title>Node1&#45;&gt;Node3</title>
<path fill="none" stroke="midnightblue" d="M83.1716,-73.3806C100.55,-75.8084 120.117,-78.542 136.584,-80.8427"/>
<polygon fill="midnightblue" stroke="midnightblue" points="83.6205,-69.9094 73.2324,-71.992 82.6519,-76.8421 83.6205,-69.9094"/>
</g>
<!-- Node4 -->
<g id="node4" class="node"><title>Node4</title>
<g id="a_node4"><a xlink:href="classDrive.html#a0f266ed4ce8f84a557be46f24c55063c" target="_top" xlink:title="Drive::get_drive_list">
<polygon fill="white" stroke="black" points="122.5,-38.5 122.5,-57.5 226.5,-57.5 226.5,-38.5 122.5,-38.5"/>
<text text-anchor="middle" x="174.5" y="-45.5" font-family="Helvetica,sans-Serif" font-size="10.00">Drive::get_drive_list</text>
</a>
</g>
</g>
<!-- Node1&#45;&gt;Node4 -->
<g id="edge3" class="edge"><title>Node1&#45;&gt;Node4</title>
<path fill="none" stroke="midnightblue" d="M83.4468,-60.581C95.9718,-58.8311 109.616,-56.9249 122.408,-55.1378"/>
<polygon fill="midnightblue" stroke="midnightblue" points="82.6519,-57.1579 73.2324,-62.008 83.6205,-64.0906 82.6519,-57.1579"/>
</g>
<!-- Node5 -->
<g id="node5" class="node"><title>Node5</title>
<g id="a_node5"><a xlink:href="classHeathHSDisk.html#aacdbaa5d65b123852e743f2579f38cda" target="_top" xlink:title="HeathHSDisk::readSector">
<polygon fill="white" stroke="black" points="109,-0.5 109,-19.5 240,-19.5 240,-0.5 109,-0.5"/>
<text text-anchor="middle" x="174.5" y="-7.5" font-family="Helvetica,sans-Serif" font-size="10.00">HeathHSDisk::readSector</text>
</a>
</g>
</g>
<!-- Node1&#45;&gt;Node5 -->
<g id="edge4" class="edge"><title>Node1&#45;&gt;Node5</title>
<path fill="none" stroke="midnightblue" d="M61.9505,-52.421C75.4944,-44.754 92.8205,-35.6032 109,-29 117.647,-25.4712 127.188,-22.2924 136.22,-19.5895"/>
<polygon fill="midnightblue" stroke="midnightblue" points="60.1548,-49.4162 53.2388,-57.4424 63.6505,-55.4809 60.1548,-49.4162"/>
</g>
</g>
</svg>
