<?xml version="1.0" encoding="UTF-8" standalone="no"?>
<!DOCTYPE svg PUBLIC "-//W3C//DTD SVG 1.1//EN"
 "http://www.w3.org/Graphics/SVG/1.1/DTD/svg11.dtd">
<!-- Generated by graphviz version 2.38.0 (20140413.2041)
 -->
<!-- Title: Decode::decodeFM Pages: 1 -->
<svg width="1091pt" height="78pt"
 viewBox="0.00 0.00 1091.00 77.50" xmlns="http://www.w3.org/2000/svg" xmlns:xlink="http://www.w3.org/1999/xlink">
<g id="graph0" class="graph" transform="scale(1 1) rotate(0) translate(4 73.5)">
<title>Decode::decodeFM</title>
<polygon fill="white" stroke="none" points="-4,4 -4,-73.5 1087,-73.5 1087,4 -4,4"/>
<!-- Node1 -->
<g id="node1" class="node"><title>Node1</title>
<polygon fill="#bfbfbf" stroke="black" points="0,-22.5 0,-41.5 102,-41.5 102,-22.5 0,-22.5"/>
<text text-anchor="middle" x="51" y="-29.5" font-family="Helvetica,sans-Serif" font-size="10.00">Decode::decodeFM</text>
</g>
<!-- Node2 -->
<g id="node2" class="node"><title>Node2</title>
<g id="a_node2"><a xlink:href="classH17Disk.html#a60b9074cacd5a89f4b8e8dfb37bccf08" target="_top" xlink:title="H17Disk::validateRawSector\lBlock">
<polygon fill="white" stroke="black" points="138,-39 138,-69 281,-69 281,-39 138,-39"/>
<text text-anchor="start" x="146" y="-57" font-family="Helvetica,sans-Serif" font-size="10.00">H17Disk::validateRawSector</text>
<text text-anchor="middle" x="209.5" y="-46" font-family="Helvetica,sans-Serif" font-size="10.00">Block</text>
</a>
</g>
</g>
<!-- Node1&#45;&gt;Node2 -->
<g id="edge1" class="edge"><title>Node1&#45;&gt;Node2</title>
<path fill="none" stroke="midnightblue" d="M112.418,-40.4932C120.787,-41.6698 129.444,-42.8868 137.978,-44.0863"/>
<polygon fill="midnightblue" stroke="midnightblue" points="112.769,-37.0083 102.379,-39.082 111.794,-43.9401 112.769,-37.0083"/>
</g>
<!-- Node8 -->
<g id="node8" class="node"><title>Node8</title>
<g id="a_node8"><a xlink:href="classHeathHSDisk.html#aacdbaa5d65b123852e743f2579f38cda" target="_top" xlink:title="HeathHSDisk::readSector">
<polygon fill="white" stroke="black" points="144,-0.5 144,-19.5 275,-19.5 275,-0.5 144,-0.5"/>
<text text-anchor="middle" x="209.5" y="-7.5" font-family="Helvetica,sans-Serif" font-size="10.00">HeathHSDisk::readSector</text>
</a>
</g>
</g>
<!-- Node1&#45;&gt;Node8 -->
<g id="edge7" class="edge"><title>Node1&#45;&gt;Node8</title>
<path fill="none" stroke="midnightblue" d="M112.498,-23.4955C122.79,-22.0487 133.514,-20.5412 143.907,-19.0802"/>
<polygon fill="midnightblue" stroke="midnightblue" points="111.794,-20.0599 102.379,-24.918 112.769,-26.9917 111.794,-20.0599"/>
</g>
<!-- Node3 -->
<g id="node3" class="node"><title>Node3</title>
<g id="a_node3"><a xlink:href="classH17Disk.html#a8f0fa7dbd52e633a2faa267e453cc486" target="_top" xlink:title="H17Disk::validateRawTrack\lBlock">
<polygon fill="white" stroke="black" points="317,-39 317,-69 457,-69 457,-39 317,-39"/>
<text text-anchor="start" x="325" y="-57" font-family="Helvetica,sans-Serif" font-size="10.00">H17Disk::validateRawTrack</text>
<text text-anchor="middle" x="387" y="-46" font-family="Helvetica,sans-Serif" font-size="10.00">Block</text>
</a>
</g>
</g>
<!-- Node2&#45;&gt;Node3 -->
<g id="edge2" class="edge"><title>Node2&#45;&gt;Node3</title>
<path fill="none" stroke="midnightblue" d="M291.171,-54C299.783,-54 308.487,-54 316.947,-54"/>
<polygon fill="midnightblue" stroke="midnightblue" points="291.124,-50.5001 281.124,-54 291.124,-57.5001 291.124,-50.5001"/>
</g>
<!-- Node4 -->
<g id="node4" class="node"><title>Node4</title>
<g id="a_node4"><a xlink:href="classH17Disk.html#ae1f57f11daa4d4c624d255851838d704" target="_top" xlink:title="H17Disk::validateRawData\lBlock">
<polygon fill="white" stroke="black" points="493,-39 493,-69 629,-69 629,-39 493,-39"/>
<text text-anchor="start" x="501" y="-57" font-family="Helvetica,sans-Serif" font-size="10.00">H17Disk::validateRawData</text>
<text text-anchor="middle" x="561" y="-46" font-family="Helvetica,sans-Serif" font-size="10.00">Block</text>
</a>
</g>
</g>
<!-- Node3&#45;&gt;Node4 -->
<g id="edge3" class="edge"><title>Node3&#45;&gt;Node4</title>
<path fill="none" stroke="midnightblue" d="M467.654,-54C476.059,-54 484.545,-54 492.789,-54"/>
<polygon fill="midnightblue" stroke="midnightblue" points="467.463,-50.5001 457.463,-54 467.463,-57.5001 467.463,-50.5001"/>
</g>
<!-- Node5 -->
<g id="node5" class="node"><title>Node5</title>
<g id="a_node5"><a xlink:href="classH17Disk.html#a29f4d35fba24f0d9cee37bcb02120a6c" target="_top" xlink:title="H17Disk::validateBlock">
<polygon fill="white" stroke="black" points="665,-44.5 665,-63.5 784,-63.5 784,-44.5 665,-44.5"/>
<text text-anchor="middle" x="724.5" y="-51.5" font-family="Helvetica,sans-Serif" font-size="10.00">H17Disk::validateBlock</text>
</a>
</g>
</g>
<!-- Node4&#45;&gt;Node5 -->
<g id="edge4" class="edge"><title>Node4&#45;&gt;Node5</title>
<path fill="none" stroke="midnightblue" d="M639.178,-54C647.815,-54 656.507,-54 664.857,-54"/>
<polygon fill="midnightblue" stroke="midnightblue" points="639.088,-50.5001 629.088,-54 639.087,-57.5001 639.088,-50.5001"/>
</g>
<!-- Node6 -->
<g id="node6" class="node"><title>Node6</title>
<g id="a_node6"><a xlink:href="classH17Disk.html#ada058d8b970b4e72569e2fe000817f75" target="_top" xlink:title="H17Disk::decodeBuffer">
<polygon fill="white" stroke="black" points="820,-44.5 820,-63.5 939,-63.5 939,-44.5 820,-44.5"/>
<text text-anchor="middle" x="879.5" y="-51.5" font-family="Helvetica,sans-Serif" font-size="10.00">H17Disk::decodeBuffer</text>
</a>
</g>
</g>
<!-- Node5&#45;&gt;Node6 -->
<g id="edge5" class="edge"><title>Node5&#45;&gt;Node6</title>
<path fill="none" stroke="midnightblue" d="M794.493,-54C802.993,-54 811.617,-54 819.941,-54"/>
<polygon fill="midnightblue" stroke="midnightblue" points="794.216,-50.5001 784.216,-54 794.216,-57.5001 794.216,-50.5001"/>
</g>
<!-- Node7 -->
<g id="node7" class="node"><title>Node7</title>
<g id="a_node7"><a xlink:href="classH17Disk.html#a503d2a03bfe0f9bbe3a8bd8dc7d2ec17" target="_top" xlink:title="H17Disk::decodeFile">
<polygon fill="white" stroke="black" points="975,-44.5 975,-63.5 1083,-63.5 1083,-44.5 975,-44.5"/>
<text text-anchor="middle" x="1029" y="-51.5" font-family="Helvetica,sans-Serif" font-size="10.00">H17Disk::decodeFile</text>
</a>
</g>
</g>
<!-- Node6&#45;&gt;Node7 -->
<g id="edge6" class="edge"><title>Node6&#45;&gt;Node7</title>
<path fill="none" stroke="midnightblue" d="M949.494,-54C957.976,-54 966.542,-54 974.741,-54"/>
<polygon fill="midnightblue" stroke="midnightblue" points="949.22,-50.5001 939.22,-54 949.22,-57.5001 949.22,-50.5001"/>
</g>
</g>
</svg>
