<?xml version="1.0" encoding="UTF-8" standalone="no"?>
<!DOCTYPE svg PUBLIC "-//W3C//DTD SVG 1.1//EN"
 "http://www.w3.org/Graphics/SVG/1.1/DTD/svg11.dtd">
<!-- Generated by graphviz version 2.38.0 (20140413.2041)
 -->
<!-- Title: H17Disk::loadFile Pages: 1 -->
<svg width="634pt" height="332pt"
 viewBox="0.00 0.00 634.00 332.00" xmlns="http://www.w3.org/2000/svg" xmlns:xlink="http://www.w3.org/1999/xlink">
<g id="graph0" class="graph" transform="scale(1 1) rotate(0) translate(4 328)">
<title>H17Disk::loadFile</title>
<polygon fill="white" stroke="none" points="-4,4 -4,-328 630,-328 630,4 -4,4"/>
<!-- Node1 -->
<g id="node1" class="node"><title>Node1</title>
<polygon fill="#bfbfbf" stroke="black" points="0,-209.5 0,-228.5 95,-228.5 95,-209.5 0,-209.5"/>
<text text-anchor="middle" x="47.5" y="-216.5" font-family="Helvetica,sans-Serif" font-size="10.00">H17Disk::loadFile</text>
</g>
<!-- Node2 -->
<g id="node2" class="node"><title>Node2</title>
<g id="a_node2"><a xlink:href="classH17Disk.html#a6317e8bd90eed1f3785bcde079c72ae6" target="_top" xlink:title="H17Disk::setDefaults">
<polygon fill="white" stroke="black" points="131,-228.5 131,-247.5 242,-247.5 242,-228.5 131,-228.5"/>
<text text-anchor="middle" x="186.5" y="-235.5" font-family="Helvetica,sans-Serif" font-size="10.00">H17Disk::setDefaults</text>
</a>
</g>
</g>
<!-- Node1&#45;&gt;Node2 -->
<g id="edge1" class="edge"><title>Node1&#45;&gt;Node2</title>
<path fill="none" stroke="midnightblue" d="M95.2645,-225.486C103.51,-226.629 112.225,-227.838 120.857,-229.035"/>
<polygon fill="midnightblue" stroke="midnightblue" points="120.534,-232.524 130.92,-230.431 121.496,-225.59 120.534,-232.524"/>
</g>
<!-- Node5 -->
<g id="node5" class="node"><title>Node5</title>
<g id="a_node5"><a xlink:href="classH17Disk.html#a0741de759498d3ba29f4bdef4e943590" target="_top" xlink:title="H17Disk::loadBuffer">
<polygon fill="white" stroke="black" points="134,-190.5 134,-209.5 239,-209.5 239,-190.5 134,-190.5"/>
<text text-anchor="middle" x="186.5" y="-197.5" font-family="Helvetica,sans-Serif" font-size="10.00">H17Disk::loadBuffer</text>
</a>
</g>
</g>
<!-- Node1&#45;&gt;Node5 -->
<g id="edge4" class="edge"><title>Node1&#45;&gt;Node5</title>
<path fill="none" stroke="midnightblue" d="M95.2645,-212.514C104.469,-211.238 114.259,-209.88 123.866,-208.548"/>
<polygon fill="midnightblue" stroke="midnightblue" points="124.355,-212.014 133.779,-207.173 123.393,-205.08 124.355,-212.014"/>
</g>
<!-- Node3 -->
<g id="node3" class="node"><title>Node3</title>
<g id="a_node3"><a xlink:href="classH17Disk.html#ad8755a4e016bea07fd30796d7b6c1ca0" target="_top" xlink:title="H17Disk::setDefaultDiskFormat">
<polygon fill="white" stroke="black" points="278,-266.5 278,-285.5 435,-285.5 435,-266.5 278,-266.5"/>
<text text-anchor="middle" x="356.5" y="-273.5" font-family="Helvetica,sans-Serif" font-size="10.00">H17Disk::setDefaultDiskFormat</text>
</a>
</g>
</g>
<!-- Node2&#45;&gt;Node3 -->
<g id="edge2" class="edge"><title>Node2&#45;&gt;Node3</title>
<path fill="none" stroke="midnightblue" d="M229.893,-247.589C252.263,-252.649 279.898,-258.9 303.547,-264.249"/>
<polygon fill="midnightblue" stroke="midnightblue" points="302.886,-267.687 313.411,-266.48 304.43,-260.86 302.886,-267.687"/>
</g>
<!-- Node4 -->
<g id="node4" class="node"><title>Node4</title>
<g id="a_node4"><a xlink:href="classH17Disk.html#a78bd33233d9597f81e69db936efe5356" target="_top" xlink:title="H17Disk::setDefaultFlags">
<polygon fill="white" stroke="black" points="291.5,-228.5 291.5,-247.5 421.5,-247.5 421.5,-228.5 291.5,-228.5"/>
<text text-anchor="middle" x="356.5" y="-235.5" font-family="Helvetica,sans-Serif" font-size="10.00">H17Disk::setDefaultFlags</text>
</a>
</g>
</g>
<!-- Node2&#45;&gt;Node4 -->
<g id="edge3" class="edge"><title>Node2&#45;&gt;Node4</title>
<path fill="none" stroke="midnightblue" d="M242.045,-238C254.566,-238 268.087,-238 281.282,-238"/>
<polygon fill="midnightblue" stroke="midnightblue" points="281.286,-241.5 291.286,-238 281.286,-234.5 281.286,-241.5"/>
</g>
<!-- Node6 -->
<g id="node6" class="node"><title>Node6</title>
<g id="a_node6"><a xlink:href="classH17Disk.html#a96fe20794510f9235881fd62497f598f" target="_top" xlink:title="H17Disk::loadHeader">
<polygon fill="white" stroke="black" points="301.5,-190.5 301.5,-209.5 411.5,-209.5 411.5,-190.5 301.5,-190.5"/>
<text text-anchor="middle" x="356.5" y="-197.5" font-family="Helvetica,sans-Serif" font-size="10.00">H17Disk::loadHeader</text>
</a>
</g>
</g>
<!-- Node5&#45;&gt;Node6 -->
<g id="edge5" class="edge"><title>Node5&#45;&gt;Node6</title>
<path fill="none" stroke="midnightblue" d="M239.276,-200C255.564,-200 273.756,-200 290.824,-200"/>
<polygon fill="midnightblue" stroke="midnightblue" points="291.278,-203.5 301.278,-200 291.278,-196.5 291.278,-203.5"/>
</g>
<!-- Node7 -->
<g id="node7" class="node"><title>Node7</title>
<g id="a_node7"><a xlink:href="classH17Disk.html#ab5299643ce037fb442e0ccb21cb80c5f" target="_top" xlink:title="H17Disk::loadBlock">
<polygon fill="white" stroke="black" points="304.5,-152.5 304.5,-171.5 408.5,-171.5 408.5,-152.5 304.5,-152.5"/>
<text text-anchor="middle" x="356.5" y="-159.5" font-family="Helvetica,sans-Serif" font-size="10.00">H17Disk::loadBlock</text>
</a>
</g>
</g>
<!-- Node5&#45;&gt;Node7 -->
<g id="edge6" class="edge"><title>Node5&#45;&gt;Node7</title>
<path fill="none" stroke="midnightblue" d="M229.893,-190.411C252.263,-185.351 279.898,-179.1 303.547,-173.751"/>
<polygon fill="midnightblue" stroke="midnightblue" points="304.43,-177.14 313.411,-171.52 302.886,-170.313 304.43,-177.14"/>
</g>
<!-- Node8 -->
<g id="node8" class="node"><title>Node8</title>
<g id="a_node8"><a xlink:href="classH17Disk.html#a4c484465d1c422d5ce5b4661bc72dd3a" target="_top" xlink:title="H17Disk::loadDiskFormatBlock">
<polygon fill="white" stroke="black" points="471,-304.5 471,-323.5 626,-323.5 626,-304.5 471,-304.5"/>
<text text-anchor="middle" x="548.5" y="-311.5" font-family="Helvetica,sans-Serif" font-size="10.00">H17Disk::loadDiskFormatBlock</text>
</a>
</g>
</g>
<!-- Node7&#45;&gt;Node8 -->
<g id="edge7" class="edge"><title>Node7&#45;&gt;Node8</title>
<path fill="none" stroke="midnightblue" d="M408.775,-166.769C418.405,-169.696 427.72,-174.182 435,-181 473.78,-217.321 432.275,-258.62 471,-295 472.661,-296.561 474.43,-297.999 476.286,-299.323"/>
<polygon fill="midnightblue" stroke="midnightblue" points="474.524,-302.348 484.911,-304.435 478.093,-296.326 474.524,-302.348"/>
</g>
<!-- Node9 -->
<g id="node9" class="node"><title>Node9</title>
<g id="a_node9"><a xlink:href="classH17Disk.html#a8dfa864cc65f81413d3b518c6c1e67e6" target="_top" xlink:title="H17Disk::loadFlagsBlock">
<polygon fill="white" stroke="black" points="484.5,-266.5 484.5,-285.5 612.5,-285.5 612.5,-266.5 484.5,-266.5"/>
<text text-anchor="middle" x="548.5" y="-273.5" font-family="Helvetica,sans-Serif" font-size="10.00">H17Disk::loadFlagsBlock</text>
</a>
</g>
</g>
<!-- Node7&#45;&gt;Node9 -->
<g id="edge8" class="edge"><title>Node7&#45;&gt;Node9</title>
<path fill="none" stroke="midnightblue" d="M408.887,-167.806C418.288,-170.67 427.487,-174.869 435,-181 463.958,-204.63 442.078,-233.327 471,-257 473.039,-258.669 475.203,-260.194 477.463,-261.587"/>
<polygon fill="midnightblue" stroke="midnightblue" points="476.103,-264.825 486.589,-266.337 479.335,-258.616 476.103,-264.825"/>
</g>
<!-- Node10 -->
<g id="node10" class="node"><title>Node10</title>
<g id="a_node10"><a xlink:href="classH17Disk.html#a3a4c239c85de3b29d6d89c8854c8ed9b" target="_top" xlink:title="H17Disk::loadLabelBlock">
<polygon fill="white" stroke="black" points="485,-228.5 485,-247.5 612,-247.5 612,-228.5 485,-228.5"/>
<text text-anchor="middle" x="548.5" y="-235.5" font-family="Helvetica,sans-Serif" font-size="10.00">H17Disk::loadLabelBlock</text>
</a>
</g>
</g>
<!-- Node7&#45;&gt;Node10 -->
<g id="edge9" class="edge"><title>Node7&#45;&gt;Node10</title>
<path fill="none" stroke="midnightblue" d="M408.731,-170.151C417.842,-172.813 426.975,-176.336 435,-181 455.115,-192.689 450.903,-207.281 471,-219 474.724,-221.171 478.689,-223.096 482.781,-224.802"/>
<polygon fill="midnightblue" stroke="midnightblue" points="481.909,-228.211 492.502,-228.398 484.338,-221.646 481.909,-228.211"/>
</g>
<!-- Node11 -->
<g id="node11" class="node"><title>Node11</title>
<g id="a_node11"><a xlink:href="classH17Disk.html#a4b28a58f502aedd83052dbbba759ba28" target="_top" xlink:title="H17Disk::loadCommentBlock">
<polygon fill="white" stroke="black" points="475.5,-190.5 475.5,-209.5 621.5,-209.5 621.5,-190.5 475.5,-190.5"/>
<text text-anchor="middle" x="548.5" y="-197.5" font-family="Helvetica,sans-Serif" font-size="10.00">H17Disk::loadCommentBlock</text>
</a>
</g>
</g>
<!-- Node7&#45;&gt;Node11 -->
<g id="edge10" class="edge"><title>Node7&#45;&gt;Node11</title>
<path fill="none" stroke="midnightblue" d="M405.445,-171.589C431.082,-176.716 462.836,-183.067 489.816,-188.463"/>
<polygon fill="midnightblue" stroke="midnightblue" points="489.408,-191.951 499.9,-190.48 490.78,-185.087 489.408,-191.951"/>
</g>
<!-- Node12 -->
<g id="node12" class="node"><title>Node12</title>
<g id="a_node12"><a xlink:href="classH17Disk.html#a06965b624586dda02e6a1cf7ebf53984" target="_top" xlink:title="H17Disk::loadDateBlock">
<polygon fill="white" stroke="black" points="486,-152.5 486,-171.5 611,-171.5 611,-152.5 486,-152.5"/>
<text text-anchor="middle" x="548.5" y="-159.5" font-family="Helvetica,sans-Serif" font-size="10.00">H17Disk::loadDateBlock</text>
</a>
</g>
</g>
<!-- Node7&#45;&gt;Node12 -->
<g id="edge11" class="edge"><title>Node7&#45;&gt;Node12</title>
<path fill="none" stroke="midnightblue" d="M408.666,-162C429.254,-162 453.36,-162 475.654,-162"/>
<polygon fill="midnightblue" stroke="midnightblue" points="475.751,-165.5 485.751,-162 475.751,-158.5 475.751,-165.5"/>
</g>
<!-- Node13 -->
<g id="node13" class="node"><title>Node13</title>
<g id="a_node13"><a xlink:href="classH17Disk.html#a6183e4e35db3b2ae16a9322f377556e4" target="_top" xlink:title="H17Disk::loadImagerBlock">
<polygon fill="white" stroke="black" points="481.5,-114.5 481.5,-133.5 615.5,-133.5 615.5,-114.5 481.5,-114.5"/>
<text text-anchor="middle" x="548.5" y="-121.5" font-family="Helvetica,sans-Serif" font-size="10.00">H17Disk::loadImagerBlock</text>
</a>
</g>
</g>
<!-- Node7&#45;&gt;Node13 -->
<g id="edge12" class="edge"><title>Node7&#45;&gt;Node13</title>
<path fill="none" stroke="midnightblue" d="M405.445,-152.411C431.082,-147.284 462.836,-140.933 489.816,-135.537"/>
<polygon fill="midnightblue" stroke="midnightblue" points="490.78,-138.913 499.9,-133.52 489.408,-132.049 490.78,-138.913"/>
</g>
<!-- Node14 -->
<g id="node14" class="node"><title>Node14</title>
<g id="a_node14"><a xlink:href="classH17Disk.html#aead615d628b0e4c68f69bd746aeabdb1" target="_top" xlink:title="H17Disk::loadProgramBlock">
<polygon fill="white" stroke="black" points="478.5,-76.5 478.5,-95.5 618.5,-95.5 618.5,-76.5 478.5,-76.5"/>
<text text-anchor="middle" x="548.5" y="-83.5" font-family="Helvetica,sans-Serif" font-size="10.00">H17Disk::loadProgramBlock</text>
</a>
</g>
</g>
<!-- Node7&#45;&gt;Node14 -->
<g id="edge13" class="edge"><title>Node7&#45;&gt;Node14</title>
<path fill="none" stroke="midnightblue" d="M373.9,-152.3C395.514,-139.863 435.017,-118.315 471,-105 477.794,-102.486 485.05,-100.199 492.285,-98.153"/>
<polygon fill="midnightblue" stroke="midnightblue" points="493.347,-101.492 502.094,-95.5135 491.528,-94.7323 493.347,-101.492"/>
</g>
<!-- Node15 -->
<g id="node15" class="node"><title>Node15</title>
<g id="a_node15"><a xlink:href="classH17Disk.html#a36b7999d189ddc7dc05ba9adcbf3b946" target="_top" xlink:title="H17Disk::loadDataBlock">
<polygon fill="white" stroke="black" points="486,-38.5 486,-57.5 611,-57.5 611,-38.5 486,-38.5"/>
<text text-anchor="middle" x="548.5" y="-45.5" font-family="Helvetica,sans-Serif" font-size="10.00">H17Disk::loadDataBlock</text>
</a>
</g>
</g>
<!-- Node7&#45;&gt;Node15 -->
<g id="edge14" class="edge"><title>Node7&#45;&gt;Node15</title>
<path fill="none" stroke="midnightblue" d="M366.153,-152.256C383.857,-132.939 426.329,-89.7008 471,-67 475.609,-64.6577 480.524,-62.5929 485.554,-60.7747"/>
<polygon fill="midnightblue" stroke="midnightblue" points="486.907,-64.0147 495.319,-57.5742 484.726,-57.3629 486.907,-64.0147"/>
</g>
<!-- Node16 -->
<g id="node16" class="node"><title>Node16</title>
<g id="a_node16"><a xlink:href="classH17Disk.html#a31ecffc2c61fe921e9a2ef4018ce5c99" target="_top" xlink:title="H17Disk::loadRawDataBlock">
<polygon fill="white" stroke="black" points="476,-0.5 476,-19.5 621,-19.5 621,-0.5 476,-0.5"/>
<text text-anchor="middle" x="548.5" y="-7.5" font-family="Helvetica,sans-Serif" font-size="10.00">H17Disk::loadRawDataBlock</text>
</a>
</g>
</g>
<!-- Node7&#45;&gt;Node16 -->
<g id="edge15" class="edge"><title>Node7&#45;&gt;Node16</title>
<path fill="none" stroke="midnightblue" d="M362.918,-152.165C377.131,-127.328 418.076,-61.7321 471,-29 474.437,-26.8743 478.099,-24.9862 481.889,-23.3091"/>
<polygon fill="midnightblue" stroke="midnightblue" points="483.467,-26.4506 491.515,-19.5601 480.926,-19.9278 483.467,-26.4506"/>
</g>
</g>
</svg>
