<?xml version="1.0" encoding="UTF-8" standalone="no"?>
<!DOCTYPE svg PUBLIC "-//W3C//DTD SVG 1.1//EN"
 "http://www.w3.org/Graphics/SVG/1.1/DTD/svg11.dtd">
<!-- Generated by graphviz version 2.38.0 (20140413.2041)
 -->
<!-- Title: H17Disk::setDefaultFlags Pages: 1 -->
<svg width="590pt" height="28pt"
 viewBox="0.00 0.00 590.00 28.00" xmlns="http://www.w3.org/2000/svg" xmlns:xlink="http://www.w3.org/1999/xlink">
<g id="graph0" class="graph" transform="scale(1 1) rotate(0) translate(4 24)">
<title>H17Disk::setDefaultFlags</title>
<polygon fill="white" stroke="none" points="-4,4 -4,-24 586,-24 586,4 -4,4"/>
<!-- Node1 -->
<g id="node1" class="node"><title>Node1</title>
<polygon fill="#bfbfbf" stroke="black" points="0,-0.5 0,-19.5 130,-19.5 130,-0.5 0,-0.5"/>
<text text-anchor="middle" x="65" y="-7.5" font-family="Helvetica,sans-Serif" font-size="10.00">H17Disk::setDefaultFlags</text>
</g>
<!-- Node2 -->
<g id="node2" class="node"><title>Node2</title>
<g id="a_node2"><a xlink:href="classH17Disk.html#a6317e8bd90eed1f3785bcde079c72ae6" target="_top" xlink:title="H17Disk::setDefaults">
<polygon fill="white" stroke="black" points="166,-0.5 166,-19.5 277,-19.5 277,-0.5 166,-0.5"/>
<text text-anchor="middle" x="221.5" y="-7.5" font-family="Helvetica,sans-Serif" font-size="10.00">H17Disk::setDefaults</text>
</a>
</g>
</g>
<!-- Node1&#45;&gt;Node2 -->
<g id="edge1" class="edge"><title>Node1&#45;&gt;Node2</title>
<path fill="none" stroke="midnightblue" d="M140.187,-10C148.753,-10 157.369,-10 165.613,-10"/>
<polygon fill="midnightblue" stroke="midnightblue" points="140.18,-6.5001 130.18,-10 140.18,-13.5001 140.18,-6.5001"/>
</g>
<!-- Node3 -->
<g id="node3" class="node"><title>Node3</title>
<g id="a_node3"><a xlink:href="classH17Disk.html#a8e41c133b13e5c9c2c8f1d39b73d5292" target="_top" xlink:title="H17Disk::loadFile">
<polygon fill="white" stroke="black" points="313,-0.5 313,-19.5 408,-19.5 408,-0.5 313,-0.5"/>
<text text-anchor="middle" x="360.5" y="-7.5" font-family="Helvetica,sans-Serif" font-size="10.00">H17Disk::loadFile</text>
</a>
</g>
</g>
<!-- Node2&#45;&gt;Node3 -->
<g id="edge2" class="edge"><title>Node2&#45;&gt;Node3</title>
<path fill="none" stroke="midnightblue" d="M287.091,-10C295.714,-10 304.42,-10 312.659,-10"/>
<polygon fill="midnightblue" stroke="midnightblue" points="287.04,-6.5001 277.04,-10 287.04,-13.5001 287.04,-6.5001"/>
</g>
<!-- Node4 -->
<g id="node4" class="node"><title>Node4</title>
<g id="a_node4"><a xlink:href="classH17Disk.html#aa375761378f8a80cb8c5e479008c0e32" target="_top" xlink:title="H17Disk::openForRecovery">
<polygon fill="white" stroke="black" points="444,-0.5 444,-19.5 582,-19.5 582,-0.5 444,-0.5"/>
<text text-anchor="middle" x="513" y="-7.5" font-family="Helvetica,sans-Serif" font-size="10.00">H17Disk::openForRecovery</text>
</a>
</g>
</g>
<!-- Node3&#45;&gt;Node4 -->
<g id="edge3" class="edge"><title>Node3&#45;&gt;Node4</title>
<path fill="none" stroke="midnightblue" d="M418.318,-10C426.693,-10 435.392,-10 443.965,-10"/>
<polygon fill="midnightblue" stroke="midnightblue" points="418.294,-6.5001 408.294,-10 418.294,-13.5001 418.294,-6.5001"/>
</g>
</g>
</svg>
