<?xml version="1.0" encoding="UTF-8" standalone="no"?>
<!DOCTYPE svg PUBLIC "-//W3C//DTD SVG 1.1//EN"
 "http://www.w3.org/Graphics/SVG/1.1/DTD/svg11.dtd">
<!-- Generated by graphviz version 2.38.0 (20140413.2041)
 -->
<!-- Title: H17DiskRawDataBlock Pages: 1 -->
<svg width="220pt" height="296pt"
 viewBox="0.00 0.00 220.00 296.00" xmlns="http://www.w3.org/2000/svg" xmlns:xlink="http://www.w3.org/1999/xlink">
<g id="graph0" class="graph" transform="scale(1 1) rotate(0) translate(4 292)">
<title>H17DiskRawDataBlock</title>
<polygon fill="white" stroke="none" points="-4,4 -4,-292 216,-292 216,4 -4,4"/>
<!-- Node1 -->
<g id="node1" class="node"><title>Node1</title>
<polygon fill="#bfbfbf" stroke="black" points="5,-0.5 5,-19.5 126,-19.5 126,-0.5 5,-0.5"/>
<text text-anchor="middle" x="65.5" y="-7.5" font-family="Helvetica,sans-Serif" font-size="10.00">H17DiskRawDataBlock</text>
</g>
<!-- Node2 -->
<g id="node2" class="node"><title>Node2</title>
<g id="a_node2"><a xlink:href="classH17Block.html" target="_top" xlink:title="H17Block">
<polygon fill="white" stroke="black" points="0,-67.5 0,-86.5 59,-86.5 59,-67.5 0,-67.5"/>
<text text-anchor="middle" x="29.5" y="-74.5" font-family="Helvetica,sans-Serif" font-size="10.00">H17Block</text>
</a>
</g>
</g>
<!-- Node2&#45;&gt;Node1 -->
<g id="edge1" class="edge"><title>Node2&#45;&gt;Node1</title>
<path fill="none" stroke="midnightblue" d="M39.3787,-58.1635C46.3214,-45.6281 55.3035,-29.4104 60.7218,-19.6273"/>
<polygon fill="midnightblue" stroke="midnightblue" points="36.1384,-56.7901 34.3551,-67.2338 42.2619,-60.1817 36.1384,-56.7901"/>
</g>
<!-- Node3 -->
<g id="node3" class="node"><title>Node3</title>
<polygon fill="white" stroke="#bfbfbf" points="77,-67.5 77,-86.5 210,-86.5 210,-67.5 77,-67.5"/>
<text text-anchor="middle" x="143.5" y="-74.5" font-family="Helvetica,sans-Serif" font-size="10.00">std::vector&lt; RawTrack * &gt;</text>
</g>
<!-- Node3&#45;&gt;Node1 -->
<g id="edge2" class="edge"><title>Node3&#45;&gt;Node1</title>
<path fill="none" stroke="#9a32cd" stroke-dasharray="5,2" d="M125.156,-60.7134C109.788,-47.907 88.4061,-30.0884 75.8528,-19.6273"/>
<polygon fill="#9a32cd" stroke="#9a32cd" points="123.058,-63.5207 132.981,-67.2338 127.539,-58.1431 123.058,-63.5207"/>
<text text-anchor="middle" x="140" y="-41" font-family="Helvetica,sans-Serif" font-size="10.00"> rawTracks_m</text>
</g>
<!-- Node4 -->
<g id="node4" class="node"><title>Node4</title>
<g id="a_node4"><a xlink:href="classRawTrack.html" target="_top" xlink:title="RawTrack">
<polygon fill="white" stroke="black" points="112.5,-134.5 112.5,-153.5 174.5,-153.5 174.5,-134.5 112.5,-134.5"/>
<text text-anchor="middle" x="143.5" y="-141.5" font-family="Helvetica,sans-Serif" font-size="10.00">RawTrack</text>
</a>
</g>
</g>
<!-- Node4&#45;&gt;Node3 -->
<g id="edge3" class="edge"><title>Node4&#45;&gt;Node3</title>
<path fill="none" stroke="#9a32cd" stroke-dasharray="5,2" d="M143.5,-124.037C143.5,-111.67 143.5,-96.1198 143.5,-86.6273"/>
<polygon fill="#9a32cd" stroke="#9a32cd" points="140,-124.234 143.5,-134.234 147,-124.234 140,-124.234"/>
<text text-anchor="middle" x="165" y="-108" font-family="Helvetica,sans-Serif" font-size="10.00"> elements</text>
</g>
<!-- Node5 -->
<g id="node5" class="node"><title>Node5</title>
<polygon fill="white" stroke="#bfbfbf" points="75,-201.5 75,-220.5 212,-220.5 212,-201.5 75,-201.5"/>
<text text-anchor="middle" x="143.5" y="-208.5" font-family="Helvetica,sans-Serif" font-size="10.00">std::vector&lt; RawSector * &gt;</text>
</g>
<!-- Node5&#45;&gt;Node4 -->
<g id="edge4" class="edge"><title>Node5&#45;&gt;Node4</title>
<path fill="none" stroke="#9a32cd" stroke-dasharray="5,2" d="M143.5,-191.037C143.5,-178.67 143.5,-163.12 143.5,-153.627"/>
<polygon fill="#9a32cd" stroke="#9a32cd" points="140,-191.234 143.5,-201.234 147,-191.234 140,-191.234"/>
<text text-anchor="middle" x="168" y="-175" font-family="Helvetica,sans-Serif" font-size="10.00"> sectors_m</text>
</g>
<!-- Node6 -->
<g id="node6" class="node"><title>Node6</title>
<g id="a_node6"><a xlink:href="classRawSector.html" target="_top" xlink:title="RawSector">
<polygon fill="white" stroke="black" points="111,-268.5 111,-287.5 176,-287.5 176,-268.5 111,-268.5"/>
<text text-anchor="middle" x="143.5" y="-275.5" font-family="Helvetica,sans-Serif" font-size="10.00">RawSector</text>
</a>
</g>
</g>
<!-- Node6&#45;&gt;Node5 -->
<g id="edge5" class="edge"><title>Node6&#45;&gt;Node5</title>
<path fill="none" stroke="#9a32cd" stroke-dasharray="5,2" d="M143.5,-258.037C143.5,-245.67 143.5,-230.12 143.5,-220.627"/>
<polygon fill="#9a32cd" stroke="#9a32cd" points="140,-258.234 143.5,-268.234 147,-258.234 140,-258.234"/>
<text text-anchor="middle" x="165" y="-242" font-family="Helvetica,sans-Serif" font-size="10.00"> elements</text>
</g>
</g>
</svg>
