<?xml version="1.0" encoding="UTF-8" standalone="no"?>
<!DOCTYPE svg PUBLIC "-//W3C//DTD SVG 1.1//EN"
 "http://www.w3.org/Graphics/SVG/1.1/DTD/svg11.dtd">
<!-- Generated by graphviz version 2.38.0 (20140413.2041)
 -->
<!-- Title: H17Block::writeBlockHeader Pages: 1 -->
<svg width="476pt" height="215pt"
 viewBox="0.00 0.00 476.00 214.50" xmlns="http://www.w3.org/2000/svg" xmlns:xlink="http://www.w3.org/1999/xlink">
<g id="graph0" class="graph" transform="scale(1 1) rotate(0) translate(4 210.5)">
<title>H17Block::writeBlockHeader</title>
<polygon fill="white" stroke="none" points="-4,4 -4,-210.5 472,-210.5 472,4 -4,4"/>
<!-- Node1 -->
<g id="node1" class="node"><title>Node1</title>
<polygon fill="#bfbfbf" stroke="black" points="0,-94 0,-113 143,-113 143,-94 0,-94"/>
<text text-anchor="middle" x="71.5" y="-101" font-family="Helvetica,sans-Serif" font-size="10.00">H17Block::writeBlockHeader</text>
</g>
<!-- Node2 -->
<g id="node2" class="node"><title>Node2</title>
<g id="a_node2"><a xlink:href="classH17Block.html#a59901675cd140c907fb6de4c8e0452d5" target="_top" xlink:title="H17Block::writeToFile">
<polygon fill="white" stroke="black" points="200,-187 200,-206 313,-206 313,-187 200,-187"/>
<text text-anchor="middle" x="256.5" y="-194" font-family="Helvetica,sans-Serif" font-size="10.00">H17Block::writeToFile</text>
</a>
</g>
</g>
<!-- Node1&#45;&gt;Node2 -->
<g id="edge1" class="edge"><title>Node1&#45;&gt;Node2</title>
<path fill="none" stroke="midnightblue" d="M91.3119,-119.784C111.64,-136.576 145.622,-162.38 179,-177.5 187.352,-181.283 196.572,-184.388 205.634,-186.91"/>
<polygon fill="midnightblue" stroke="midnightblue" points="93.3838,-116.954 83.4774,-113.197 88.8788,-122.311 93.3838,-116.954"/>
</g>
<!-- Node4 -->
<g id="node4" class="node"><title>Node4</title>
<g id="a_node4"><a xlink:href="classH17DiskFormatBlock.html#af49df48b3a9626b2dab1731fd366ee8f" target="_top" xlink:title="H17DiskFormatBlock\l::writeToFile">
<polygon fill="white" stroke="black" points="201.5,-137.5 201.5,-167.5 311.5,-167.5 311.5,-137.5 201.5,-137.5"/>
<text text-anchor="start" x="209.5" y="-155.5" font-family="Helvetica,sans-Serif" font-size="10.00">H17DiskFormatBlock</text>
<text text-anchor="middle" x="256.5" y="-144.5" font-family="Helvetica,sans-Serif" font-size="10.00">::writeToFile</text>
</a>
</g>
</g>
<!-- Node1&#45;&gt;Node4 -->
<g id="edge3" class="edge"><title>Node1&#45;&gt;Node4</title>
<path fill="none" stroke="midnightblue" d="M117.933,-115.665C143.24,-122.441 174.907,-130.92 201.477,-138.035"/>
<polygon fill="midnightblue" stroke="midnightblue" points="118.784,-112.27 108.219,-113.064 116.973,-119.031 118.784,-112.27"/>
</g>
<!-- Node5 -->
<g id="node5" class="node"><title>Node5</title>
<g id="a_node5"><a xlink:href="classH17DiskFlagsBlock.html#a50319616d0931d82ddfb58c00f5909c6" target="_top" xlink:title="H17DiskFlagsBlock::\lwriteToFile">
<polygon fill="white" stroke="black" points="201.5,-88.5 201.5,-118.5 311.5,-118.5 311.5,-88.5 201.5,-88.5"/>
<text text-anchor="start" x="209.5" y="-106.5" font-family="Helvetica,sans-Serif" font-size="10.00">H17DiskFlagsBlock::</text>
<text text-anchor="middle" x="256.5" y="-95.5" font-family="Helvetica,sans-Serif" font-size="10.00">writeToFile</text>
</a>
</g>
</g>
<!-- Node1&#45;&gt;Node5 -->
<g id="edge4" class="edge"><title>Node1&#45;&gt;Node5</title>
<path fill="none" stroke="midnightblue" d="M153.306,-103.5C169.579,-103.5 186.308,-103.5 201.399,-103.5"/>
<polygon fill="midnightblue" stroke="midnightblue" points="153.253,-100 143.253,-103.5 153.253,-107 153.253,-100"/>
</g>
<!-- Node6 -->
<g id="node6" class="node"><title>Node6</title>
<g id="a_node6"><a xlink:href="classH17DiskDataBlock.html#a6d7181e767bbc590cfee7c589c56930a" target="_top" xlink:title="H17DiskDataBlock::writeToFile">
<polygon fill="white" stroke="black" points="179,-50 179,-69 334,-69 334,-50 179,-50"/>
<text text-anchor="middle" x="256.5" y="-57" font-family="Helvetica,sans-Serif" font-size="10.00">H17DiskDataBlock::writeToFile</text>
</a>
</g>
</g>
<!-- Node1&#45;&gt;Node6 -->
<g id="edge5" class="edge"><title>Node1&#45;&gt;Node6</title>
<path fill="none" stroke="midnightblue" d="M122.28,-91.531C151.695,-84.4586 188.429,-75.6264 215.869,-69.0287"/>
<polygon fill="midnightblue" stroke="midnightblue" points="121.113,-88.2118 112.208,-93.9527 122.749,-95.0179 121.113,-88.2118"/>
</g>
<!-- Node7 -->
<g id="node7" class="node"><title>Node7</title>
<g id="a_node7"><a xlink:href="classH17DiskRawDataBlock.html#a1f7e142b548e0c6c6b6984fda36571c4" target="_top" xlink:title="H17DiskRawDataBlock\l::writeToFile">
<polygon fill="white" stroke="black" points="196,-0.5 196,-30.5 317,-30.5 317,-0.5 196,-0.5"/>
<text text-anchor="start" x="204" y="-18.5" font-family="Helvetica,sans-Serif" font-size="10.00">H17DiskRawDataBlock</text>
<text text-anchor="middle" x="256.5" y="-7.5" font-family="Helvetica,sans-Serif" font-size="10.00">::writeToFile</text>
</a>
</g>
</g>
<!-- Node1&#45;&gt;Node7 -->
<g id="edge6" class="edge"><title>Node1&#45;&gt;Node7</title>
<path fill="none" stroke="midnightblue" d="M94.9635,-88.245C115.998,-74.4434 148.654,-54.2348 179,-40.5 187.019,-36.8703 195.725,-33.5131 204.293,-30.514"/>
<polygon fill="midnightblue" stroke="midnightblue" points="92.8279,-85.4617 86.4337,-93.9095 96.7004,-91.293 92.8279,-85.4617"/>
</g>
<!-- Node3 -->
<g id="node3" class="node"><title>Node3</title>
<g id="a_node3"><a xlink:href="classH17Disk.html#adfb88c5c9f3c67a0923a4d24e5efe791" target="_top" xlink:title="H17Disk::saveFile">
<polygon fill="white" stroke="black" points="370,-187 370,-206 468,-206 468,-187 370,-187"/>
<text text-anchor="middle" x="419" y="-194" font-family="Helvetica,sans-Serif" font-size="10.00">H17Disk::saveFile</text>
</a>
</g>
</g>
<!-- Node2&#45;&gt;Node3 -->
<g id="edge2" class="edge"><title>Node2&#45;&gt;Node3</title>
<path fill="none" stroke="midnightblue" d="M323.301,-196.5C338.901,-196.5 355.253,-196.5 369.896,-196.5"/>
<polygon fill="midnightblue" stroke="midnightblue" points="323.185,-193 313.185,-196.5 323.185,-200 323.185,-193"/>
</g>
</g>
</svg>
