<?xml version="1.0" encoding="UTF-8" standalone="no"?>
<!DOCTYPE svg PUBLIC "-//W3C//DTD SVG 1.1//EN"
 "http://www.w3.org/Graphics/SVG/1.1/DTD/svg11.dtd">
<!-- Generated by graphviz version 2.38.0 (20140413.2041)
 -->
<!-- Title: H17Disk::validateRawTrackBlock Pages: 1 -->
<svg width="792pt" height="161pt"
 viewBox="0.00 0.00 792.00 161.00" xmlns="http://www.w3.org/2000/svg" xmlns:xlink="http://www.w3.org/1999/xlink">
<g id="graph0" class="graph" transform="scale(1 1) rotate(0) translate(4 157)">
<title>H17Disk::validateRawTrackBlock</title>
<polygon fill="white" stroke="none" points="-4,4 -4,-157 788,-157 788,4 -4,4"/>
<!-- Node1 -->
<g id="node1" class="node"><title>Node1</title>
<polygon fill="#bfbfbf" stroke="black" points="0,-71 0,-101 140,-101 140,-71 0,-71"/>
<text text-anchor="start" x="8" y="-89" font-family="Helvetica,sans-Serif" font-size="10.00">H17Disk::validateRawTrack</text>
<text text-anchor="middle" x="70" y="-78" font-family="Helvetica,sans-Serif" font-size="10.00">Block</text>
</g>
<!-- Node2 -->
<g id="node2" class="node"><title>Node2</title>
<g id="a_node2"><a xlink:href="classH17Disk.html#a60b9074cacd5a89f4b8e8dfb37bccf08" target="_top" xlink:title="H17Disk::validateRawSector\lBlock">
<polygon fill="white" stroke="black" points="176,-71 176,-101 319,-101 319,-71 176,-71"/>
<text text-anchor="start" x="184" y="-89" font-family="Helvetica,sans-Serif" font-size="10.00">H17Disk::validateRawSector</text>
<text text-anchor="middle" x="247.5" y="-78" font-family="Helvetica,sans-Serif" font-size="10.00">Block</text>
</a>
</g>
</g>
<!-- Node1&#45;&gt;Node2 -->
<g id="edge1" class="edge"><title>Node1&#45;&gt;Node2</title>
<path fill="none" stroke="midnightblue" d="M140.11,-86C148.43,-86 156.984,-86 165.454,-86"/>
<polygon fill="midnightblue" stroke="midnightblue" points="165.723,-89.5001 175.723,-86 165.723,-82.5001 165.723,-89.5001"/>
</g>
<!-- Node3 -->
<g id="node3" class="node"><title>Node3</title>
<g id="a_node3"><a xlink:href="h17disk_8cpp.html#a9b9796dca95ff7965faf38fc4e6e00ba" target="_top" xlink:title="printBinary">
<polygon fill="white" stroke="black" points="374.5,-133.5 374.5,-152.5 437.5,-152.5 437.5,-133.5 374.5,-133.5"/>
<text text-anchor="middle" x="406" y="-140.5" font-family="Helvetica,sans-Serif" font-size="10.00">printBinary</text>
</a>
</g>
</g>
<!-- Node2&#45;&gt;Node3 -->
<g id="edge2" class="edge"><title>Node2&#45;&gt;Node3</title>
<path fill="none" stroke="midnightblue" d="M290.028,-101.125C314.591,-110.072 345.397,-121.292 368.937,-129.865"/>
<polygon fill="midnightblue" stroke="midnightblue" points="367.948,-133.23 378.542,-133.363 370.343,-126.652 367.948,-133.23"/>
</g>
<!-- Node4 -->
<g id="node4" class="node"><title>Node4</title>
<g id="a_node4"><a xlink:href="dump_8cpp.html#a7ff04c30cd9d3b0944f82794e18aa817" target="_top" xlink:title="dumpDataBlock">
<polygon fill="white" stroke="black" points="363,-95.5 363,-114.5 449,-114.5 449,-95.5 363,-95.5"/>
<text text-anchor="middle" x="406" y="-102.5" font-family="Helvetica,sans-Serif" font-size="10.00">dumpDataBlock</text>
</a>
</g>
</g>
<!-- Node2&#45;&gt;Node4 -->
<g id="edge3" class="edge"><title>Node2&#45;&gt;Node4</title>
<path fill="none" stroke="midnightblue" d="M319.424,-94.6105C330.701,-95.9796 342.182,-97.3736 352.921,-98.6773"/>
<polygon fill="midnightblue" stroke="midnightblue" points="352.609,-102.165 362.958,-99.8959 353.453,-95.2161 352.609,-102.165"/>
</g>
<!-- Node5 -->
<g id="node5" class="node"><title>Node5</title>
<g id="a_node5"><a xlink:href="classDecode.html#a287c55f9f9888c433d950c08254c1efe" target="_top" xlink:title="Decode::decodeFM">
<polygon fill="white" stroke="black" points="355,-57.5 355,-76.5 457,-76.5 457,-57.5 355,-57.5"/>
<text text-anchor="middle" x="406" y="-64.5" font-family="Helvetica,sans-Serif" font-size="10.00">Decode::decodeFM</text>
</a>
</g>
</g>
<!-- Node2&#45;&gt;Node5 -->
<g id="edge4" class="edge"><title>Node2&#45;&gt;Node5</title>
<path fill="none" stroke="midnightblue" d="M319.424,-77.3895C327.933,-76.3564 336.559,-75.3091 344.895,-74.2971"/>
<polygon fill="midnightblue" stroke="midnightblue" points="345.385,-77.7634 354.891,-73.0836 344.542,-70.8144 345.385,-77.7634"/>
</g>
<!-- Node6 -->
<g id="node6" class="node"><title>Node6</title>
<g id="a_node6"><a xlink:href="disk__util_8cpp.html#a6ca0336006e5d440e0adca49fe90a8bd" target="_top" xlink:title="processSector">
<polygon fill="white" stroke="black" points="366,-19.5 366,-38.5 446,-38.5 446,-19.5 366,-19.5"/>
<text text-anchor="middle" x="406" y="-26.5" font-family="Helvetica,sans-Serif" font-size="10.00">processSector</text>
</a>
</g>
</g>
<!-- Node2&#45;&gt;Node6 -->
<g id="edge5" class="edge"><title>Node2&#45;&gt;Node6</title>
<path fill="none" stroke="midnightblue" d="M290.028,-70.8747C314.591,-61.9285 345.397,-50.7083 368.937,-42.1346"/>
<polygon fill="midnightblue" stroke="midnightblue" points="370.343,-45.3475 378.542,-38.6365 367.948,-38.7702 370.343,-45.3475"/>
</g>
<!-- Node7 -->
<g id="node7" class="node"><title>Node7</title>
<g id="a_node7"><a xlink:href="disk__util_8cpp.html#a94517a9973c483e78d6d2a9b7ad721a9" target="_top" xlink:title="alignSector">
<polygon fill="white" stroke="black" points="507,-38.5 507,-57.5 572,-57.5 572,-38.5 507,-38.5"/>
<text text-anchor="middle" x="539.5" y="-45.5" font-family="Helvetica,sans-Serif" font-size="10.00">alignSector</text>
</a>
</g>
</g>
<!-- Node6&#45;&gt;Node7 -->
<g id="edge6" class="edge"><title>Node6&#45;&gt;Node7</title>
<path fill="none" stroke="midnightblue" d="M446.098,-34.6492C461.997,-36.9463 480.398,-39.6051 496.575,-41.9424"/>
<polygon fill="midnightblue" stroke="midnightblue" points="496.437,-45.4588 506.835,-43.4248 497.438,-38.5307 496.437,-45.4588"/>
</g>
<!-- Node10 -->
<g id="node10" class="node"><title>Node10</title>
<g id="a_node10"><a xlink:href="disk__util_8cpp.html#a71c4de342bd8034b53d392ee37b5ec97" target="_top" xlink:title="updateChecksum">
<polygon fill="white" stroke="black" points="493,-0.5 493,-19.5 586,-19.5 586,-0.5 493,-0.5"/>
<text text-anchor="middle" x="539.5" y="-7.5" font-family="Helvetica,sans-Serif" font-size="10.00">updateChecksum</text>
</a>
</g>
</g>
<!-- Node6&#45;&gt;Node10 -->
<g id="edge9" class="edge"><title>Node6&#45;&gt;Node10</title>
<path fill="none" stroke="midnightblue" d="M446.098,-23.3508C457.573,-21.6929 470.351,-19.8466 482.655,-18.0688"/>
<polygon fill="midnightblue" stroke="midnightblue" points="483.444,-21.4913 492.841,-16.5972 482.443,-14.5632 483.444,-21.4913"/>
</g>
<!-- Node8 -->
<g id="node8" class="node"><title>Node8</title>
<g id="a_node8"><a xlink:href="disk__util_8cpp.html#a6fe02d4965ce98f778a023f33b99a653" target="_top" xlink:title="shiftByte">
<polygon fill="white" stroke="black" points="622,-38.5 622,-57.5 678,-57.5 678,-38.5 622,-38.5"/>
<text text-anchor="middle" x="650" y="-45.5" font-family="Helvetica,sans-Serif" font-size="10.00">shiftByte</text>
</a>
</g>
</g>
<!-- Node7&#45;&gt;Node8 -->
<g id="edge7" class="edge"><title>Node7&#45;&gt;Node8</title>
<path fill="none" stroke="midnightblue" d="M572.174,-48C584.489,-48 598.692,-48 611.511,-48"/>
<polygon fill="midnightblue" stroke="midnightblue" points="611.881,-51.5001 621.881,-48 611.881,-44.5001 611.881,-51.5001"/>
</g>
<!-- Node9 -->
<g id="node9" class="node"><title>Node9</title>
<g id="a_node9"><a xlink:href="disk__util_8cpp.html#a921b76ac624c5bb49172b4876bb4ca5c" target="_top" xlink:title="reverseChar">
<polygon fill="white" stroke="black" points="714,-38.5 714,-57.5 784,-57.5 784,-38.5 714,-38.5"/>
<text text-anchor="middle" x="749" y="-45.5" font-family="Helvetica,sans-Serif" font-size="10.00">reverseChar</text>
</a>
</g>
</g>
<!-- Node8&#45;&gt;Node9 -->
<g id="edge8" class="edge"><title>Node8&#45;&gt;Node9</title>
<path fill="none" stroke="midnightblue" d="M678.02,-48C685.998,-48 694.947,-48 703.712,-48"/>
<polygon fill="midnightblue" stroke="midnightblue" points="703.846,-51.5001 713.846,-48 703.846,-44.5001 703.846,-51.5001"/>
</g>
</g>
</svg>
