<?xml version="1.0" encoding="UTF-8" standalone="no"?>
<!DOCTYPE svg PUBLIC "-//W3C//DTD SVG 1.1//EN"
 "http://www.w3.org/Graphics/SVG/1.1/DTD/svg11.dtd">
<!-- Generated by graphviz version 2.38.0 (20140413.2041)
 -->
<!-- Title: H17Disk::validateRawTrackBlock Pages: 1 -->
<svg width="774pt" height="39pt"
 viewBox="0.00 0.00 774.00 39.00" xmlns="http://www.w3.org/2000/svg" xmlns:xlink="http://www.w3.org/1999/xlink">
<g id="graph0" class="graph" transform="scale(1 1) rotate(0) translate(4 35)">
<title>H17Disk::validateRawTrackBlock</title>
<polygon fill="white" stroke="none" points="-4,4 -4,-35 770,-35 770,4 -4,4"/>
<!-- Node1 -->
<g id="node1" class="node"><title>Node1</title>
<polygon fill="#bfbfbf" stroke="black" points="0,-0.5 0,-30.5 140,-30.5 140,-0.5 0,-0.5"/>
<text text-anchor="start" x="8" y="-18.5" font-family="Helvetica,sans-Serif" font-size="10.00">H17Disk::validateRawTrack</text>
<text text-anchor="middle" x="70" y="-7.5" font-family="Helvetica,sans-Serif" font-size="10.00">Block</text>
</g>
<!-- Node2 -->
<g id="node2" class="node"><title>Node2</title>
<g id="a_node2"><a xlink:href="classH17Disk.html#ae1f57f11daa4d4c624d255851838d704" target="_top" xlink:title="H17Disk::validateRawData\lBlock">
<polygon fill="white" stroke="black" points="176,-0.5 176,-30.5 312,-30.5 312,-0.5 176,-0.5"/>
<text text-anchor="start" x="184" y="-18.5" font-family="Helvetica,sans-Serif" font-size="10.00">H17Disk::validateRawData</text>
<text text-anchor="middle" x="244" y="-7.5" font-family="Helvetica,sans-Serif" font-size="10.00">Block</text>
</a>
</g>
</g>
<!-- Node1&#45;&gt;Node2 -->
<g id="edge1" class="edge"><title>Node1&#45;&gt;Node2</title>
<path fill="none" stroke="midnightblue" d="M150.654,-15.5C159.059,-15.5 167.545,-15.5 175.789,-15.5"/>
<polygon fill="midnightblue" stroke="midnightblue" points="150.463,-12.0001 140.463,-15.5 150.463,-19.0001 150.463,-12.0001"/>
</g>
<!-- Node3 -->
<g id="node3" class="node"><title>Node3</title>
<g id="a_node3"><a xlink:href="classH17Disk.html#a29f4d35fba24f0d9cee37bcb02120a6c" target="_top" xlink:title="H17Disk::validateBlock">
<polygon fill="white" stroke="black" points="348,-6 348,-25 467,-25 467,-6 348,-6"/>
<text text-anchor="middle" x="407.5" y="-13" font-family="Helvetica,sans-Serif" font-size="10.00">H17Disk::validateBlock</text>
</a>
</g>
</g>
<!-- Node2&#45;&gt;Node3 -->
<g id="edge2" class="edge"><title>Node2&#45;&gt;Node3</title>
<path fill="none" stroke="midnightblue" d="M322.178,-15.5C330.815,-15.5 339.507,-15.5 347.857,-15.5"/>
<polygon fill="midnightblue" stroke="midnightblue" points="322.088,-12.0001 312.088,-15.5 322.087,-19.0001 322.088,-12.0001"/>
</g>
<!-- Node4 -->
<g id="node4" class="node"><title>Node4</title>
<g id="a_node4"><a xlink:href="classH17Disk.html#ada058d8b970b4e72569e2fe000817f75" target="_top" xlink:title="H17Disk::decodeBuffer">
<polygon fill="white" stroke="black" points="503,-6 503,-25 622,-25 622,-6 503,-6"/>
<text text-anchor="middle" x="562.5" y="-13" font-family="Helvetica,sans-Serif" font-size="10.00">H17Disk::decodeBuffer</text>
</a>
</g>
</g>
<!-- Node3&#45;&gt;Node4 -->
<g id="edge3" class="edge"><title>Node3&#45;&gt;Node4</title>
<path fill="none" stroke="midnightblue" d="M477.493,-15.5C485.993,-15.5 494.617,-15.5 502.941,-15.5"/>
<polygon fill="midnightblue" stroke="midnightblue" points="477.216,-12.0001 467.216,-15.5 477.216,-19.0001 477.216,-12.0001"/>
</g>
<!-- Node5 -->
<g id="node5" class="node"><title>Node5</title>
<g id="a_node5"><a xlink:href="classH17Disk.html#a503d2a03bfe0f9bbe3a8bd8dc7d2ec17" target="_top" xlink:title="H17Disk::decodeFile">
<polygon fill="white" stroke="black" points="658,-6 658,-25 766,-25 766,-6 658,-6"/>
<text text-anchor="middle" x="712" y="-13" font-family="Helvetica,sans-Serif" font-size="10.00">H17Disk::decodeFile</text>
</a>
</g>
</g>
<!-- Node4&#45;&gt;Node5 -->
<g id="edge4" class="edge"><title>Node4&#45;&gt;Node5</title>
<path fill="none" stroke="midnightblue" d="M632.494,-15.5C640.976,-15.5 649.542,-15.5 657.741,-15.5"/>
<polygon fill="midnightblue" stroke="midnightblue" points="632.22,-12.0001 622.22,-15.5 632.22,-19.0001 632.22,-12.0001"/>
</g>
</g>
</svg>
