<?xml version="1.0" encoding="UTF-8" standalone="no"?>
<!DOCTYPE svg PUBLIC "-//W3C//DTD SVG 1.1//EN"
 "http://www.w3.org/Graphics/SVG/1.1/DTD/svg11.dtd">
<!-- Generated by graphviz version 2.38.0 (20140413.2041)
 -->
<!-- Title: H17Disk::saveFile Pages: 1 -->
<svg width="595pt" height="142pt"
 viewBox="0.00 0.00 595.00 142.00" xmlns="http://www.w3.org/2000/svg" xmlns:xlink="http://www.w3.org/1999/xlink">
<g id="graph0" class="graph" transform="scale(1 1) rotate(0) translate(4 138)">
<title>H17Disk::saveFile</title>
<polygon fill="white" stroke="none" points="-4,4 -4,-138 591,-138 591,4 -4,4"/>
<!-- Node1 -->
<g id="node1" class="node"><title>Node1</title>
<polygon fill="#bfbfbf" stroke="black" points="0,-76.5 0,-95.5 98,-95.5 98,-76.5 0,-76.5"/>
<text text-anchor="middle" x="49" y="-83.5" font-family="Helvetica,sans-Serif" font-size="10.00">H17Disk::saveFile</text>
</g>
<!-- Node2 -->
<g id="node2" class="node"><title>Node2</title>
<g id="a_node2"><a xlink:href="classH17Disk.html#ad29344c720e1a09c4de310d51ce40449" target="_top" xlink:title="H17Disk::openForWrite">
<polygon fill="white" stroke="black" points="134,-114.5 134,-133.5 253,-133.5 253,-114.5 134,-114.5"/>
<text text-anchor="middle" x="193.5" y="-121.5" font-family="Helvetica,sans-Serif" font-size="10.00">H17Disk::openForWrite</text>
</a>
</g>
</g>
<!-- Node1&#45;&gt;Node2 -->
<g id="edge1" class="edge"><title>Node1&#45;&gt;Node2</title>
<path fill="none" stroke="midnightblue" d="M85.9588,-95.589C104.439,-100.517 127.156,-106.575 146.859,-111.829"/>
<polygon fill="midnightblue" stroke="midnightblue" points="145.989,-115.219 156.553,-114.414 147.792,-108.456 145.989,-115.219"/>
</g>
<!-- Node3 -->
<g id="node3" class="node"><title>Node3</title>
<g id="a_node3"><a xlink:href="classH17Disk.html#a8390bffa0553266decd2e1c21831ea5f" target="_top" xlink:title="H17Disk::writeHeader">
<polygon fill="white" stroke="black" points="137,-76.5 137,-95.5 250,-95.5 250,-76.5 137,-76.5"/>
<text text-anchor="middle" x="193.5" y="-83.5" font-family="Helvetica,sans-Serif" font-size="10.00">H17Disk::writeHeader</text>
</a>
</g>
</g>
<!-- Node1&#45;&gt;Node3 -->
<g id="edge2" class="edge"><title>Node1&#45;&gt;Node3</title>
<path fill="none" stroke="midnightblue" d="M98.244,-86C107.376,-86 117.072,-86 126.638,-86"/>
<polygon fill="midnightblue" stroke="midnightblue" points="126.934,-89.5001 136.934,-86 126.934,-82.5001 126.934,-89.5001"/>
</g>
<!-- Node4 -->
<g id="node4" class="node"><title>Node4</title>
<g id="a_node4"><a xlink:href="classH17Block.html#a59901675cd140c907fb6de4c8e0452d5" target="_top" xlink:title="H17Block::writeToFile">
<polygon fill="white" stroke="black" points="137,-38.5 137,-57.5 250,-57.5 250,-38.5 137,-38.5"/>
<text text-anchor="middle" x="193.5" y="-45.5" font-family="Helvetica,sans-Serif" font-size="10.00">H17Block::writeToFile</text>
</a>
</g>
</g>
<!-- Node1&#45;&gt;Node4 -->
<g id="edge3" class="edge"><title>Node1&#45;&gt;Node4</title>
<path fill="none" stroke="midnightblue" d="M85.9588,-76.411C104.439,-71.4831 127.156,-65.4251 146.859,-60.1709"/>
<polygon fill="midnightblue" stroke="midnightblue" points="147.792,-63.5445 156.553,-57.5859 145.989,-56.7808 147.792,-63.5445"/>
</g>
<!-- Node5 -->
<g id="node5" class="node"><title>Node5</title>
<g id="a_node5"><a xlink:href="classH17Block.html#a5c4d56a6c991c87fb9215797ce63b804" target="_top" xlink:title="H17Block::writeBlockHeader">
<polygon fill="white" stroke="black" points="289,-76.5 289,-95.5 432,-95.5 432,-76.5 289,-76.5"/>
<text text-anchor="middle" x="360.5" y="-83.5" font-family="Helvetica,sans-Serif" font-size="10.00">H17Block::writeBlockHeader</text>
</a>
</g>
</g>
<!-- Node4&#45;&gt;Node5 -->
<g id="edge4" class="edge"><title>Node4&#45;&gt;Node5</title>
<path fill="none" stroke="midnightblue" d="M236.136,-57.589C258.008,-62.6261 285.006,-68.8438 308.164,-74.1771"/>
<polygon fill="midnightblue" stroke="midnightblue" points="307.633,-77.6463 318.163,-76.4799 309.204,-70.8249 307.633,-77.6463"/>
</g>
<!-- Node6 -->
<g id="node6" class="node"><title>Node6</title>
<g id="a_node6"><a xlink:href="classH17Block.html#aa2e87b141623b4c897c5337ea0535d1c" target="_top" xlink:title="H17Block::getDataSize">
<polygon fill="white" stroke="black" points="468,-57.5 468,-76.5 587,-76.5 587,-57.5 468,-57.5"/>
<text text-anchor="middle" x="527.5" y="-64.5" font-family="Helvetica,sans-Serif" font-size="10.00">H17Block::getDataSize</text>
</a>
</g>
</g>
<!-- Node4&#45;&gt;Node6 -->
<g id="edge7" class="edge"><title>Node4&#45;&gt;Node6</title>
<path fill="none" stroke="midnightblue" d="M250.069,-51.1802C307.249,-54.4525 396.42,-59.5556 457.945,-63.0766"/>
<polygon fill="midnightblue" stroke="midnightblue" points="457.769,-66.5722 467.952,-63.6494 458.169,-59.5837 457.769,-66.5722"/>
</g>
<!-- Node7 -->
<g id="node7" class="node"><title>Node7</title>
<g id="a_node7"><a xlink:href="classH17Block.html#a6c2432cccdacdfb1a335bd924f19d942" target="_top" xlink:title="H17Block::getData">
<polygon fill="white" stroke="black" points="310.5,-0.5 310.5,-19.5 410.5,-19.5 410.5,-0.5 310.5,-0.5"/>
<text text-anchor="middle" x="360.5" y="-7.5" font-family="Helvetica,sans-Serif" font-size="10.00">H17Block::getData</text>
</a>
</g>
</g>
<!-- Node4&#45;&gt;Node7 -->
<g id="edge6" class="edge"><title>Node4&#45;&gt;Node7</title>
<path fill="none" stroke="midnightblue" d="M236.136,-38.411C258.008,-33.3739 285.006,-27.1562 308.164,-21.8229"/>
<polygon fill="midnightblue" stroke="midnightblue" points="309.204,-25.1751 318.163,-19.5201 307.633,-18.3537 309.204,-25.1751"/>
</g>
<!-- Node5&#45;&gt;Node6 -->
<g id="edge5" class="edge"><title>Node5&#45;&gt;Node6</title>
<path fill="none" stroke="midnightblue" d="M432.432,-77.832C440.816,-76.8667 449.361,-75.8827 457.714,-74.9208"/>
<polygon fill="midnightblue" stroke="midnightblue" points="458.249,-78.3825 467.783,-73.7614 457.448,-71.4284 458.249,-78.3825"/>
</g>
</g>
</svg>
