<?xml version="1.0" encoding="UTF-8" standalone="no"?>
<!DOCTYPE svg PUBLIC "-//W3C//DTD SVG 1.1//EN"
 "http://www.w3.org/Graphics/SVG/1.1/DTD/svg11.dtd">
<!-- Generated by graphviz version 2.38.0 (20140413.2041)
 -->
<!-- Title: H17Disk::dumpSectorData Pages: 1 -->
<svg width="1136pt" height="28pt"
 viewBox="0.00 0.00 1136.00 28.00" xmlns="http://www.w3.org/2000/svg" xmlns:xlink="http://www.w3.org/1999/xlink">
<g id="graph0" class="graph" transform="scale(1 1) rotate(0) translate(4 24)">
<title>H17Disk::dumpSectorData</title>
<polygon fill="white" stroke="none" points="-4,4 -4,-24 1132,-24 1132,4 -4,4"/>
<!-- Node1 -->
<g id="node1" class="node"><title>Node1</title>
<polygon fill="#bfbfbf" stroke="black" points="0,-0.5 0,-19.5 134,-19.5 134,-0.5 0,-0.5"/>
<text text-anchor="middle" x="67" y="-7.5" font-family="Helvetica,sans-Serif" font-size="10.00">H17Disk::dumpSectorData</text>
</g>
<!-- Node2 -->
<g id="node2" class="node"><title>Node2</title>
<g id="a_node2"><a xlink:href="classH17Disk.html#a11e3a3c52730f4502a61f69035d7ab38" target="_top" xlink:title="H17Disk::validateSectorBlock">
<polygon fill="white" stroke="black" points="170,-0.5 170,-19.5 318,-19.5 318,-0.5 170,-0.5"/>
<text text-anchor="middle" x="244" y="-7.5" font-family="Helvetica,sans-Serif" font-size="10.00">H17Disk::validateSectorBlock</text>
</a>
</g>
</g>
<!-- Node1&#45;&gt;Node2 -->
<g id="edge1" class="edge"><title>Node1&#45;&gt;Node2</title>
<path fill="none" stroke="midnightblue" d="M144.345,-10C152.769,-10 161.334,-10 169.719,-10"/>
<polygon fill="midnightblue" stroke="midnightblue" points="144.16,-6.5001 134.16,-10 144.16,-13.5001 144.16,-6.5001"/>
</g>
<!-- Node3 -->
<g id="node3" class="node"><title>Node3</title>
<g id="a_node3"><a xlink:href="classH17Disk.html#a532c7c77626521afd001ed4a32610912" target="_top" xlink:title="H17Disk::validateTrackBlock">
<polygon fill="white" stroke="black" points="354,-0.5 354,-19.5 498,-19.5 498,-0.5 354,-0.5"/>
<text text-anchor="middle" x="426" y="-7.5" font-family="Helvetica,sans-Serif" font-size="10.00">H17Disk::validateTrackBlock</text>
</a>
</g>
</g>
<!-- Node2&#45;&gt;Node3 -->
<g id="edge2" class="edge"><title>Node2&#45;&gt;Node3</title>
<path fill="none" stroke="midnightblue" d="M328.225,-10C336.803,-10 345.463,-10 353.892,-10"/>
<polygon fill="midnightblue" stroke="midnightblue" points="328.213,-6.5001 318.213,-10 328.213,-13.5001 328.213,-6.5001"/>
</g>
<!-- Node4 -->
<g id="node4" class="node"><title>Node4</title>
<g id="a_node4"><a xlink:href="classH17Disk.html#a593434e6ce0538943cb044b7d0c9c273" target="_top" xlink:title="H17Disk::validateDataBlock">
<polygon fill="white" stroke="black" points="534,-0.5 534,-19.5 674,-19.5 674,-0.5 534,-0.5"/>
<text text-anchor="middle" x="604" y="-7.5" font-family="Helvetica,sans-Serif" font-size="10.00">H17Disk::validateDataBlock</text>
</a>
</g>
</g>
<!-- Node3&#45;&gt;Node4 -->
<g id="edge3" class="edge"><title>Node3&#45;&gt;Node4</title>
<path fill="none" stroke="midnightblue" d="M508.141,-10C516.764,-10 525.475,-10 533.941,-10"/>
<polygon fill="midnightblue" stroke="midnightblue" points="508.079,-6.5001 498.079,-10 508.079,-13.5001 508.079,-6.5001"/>
</g>
<!-- Node5 -->
<g id="node5" class="node"><title>Node5</title>
<g id="a_node5"><a xlink:href="classH17Disk.html#a29f4d35fba24f0d9cee37bcb02120a6c" target="_top" xlink:title="H17Disk::validateBlock">
<polygon fill="white" stroke="black" points="710,-0.5 710,-19.5 829,-19.5 829,-0.5 710,-0.5"/>
<text text-anchor="middle" x="769.5" y="-7.5" font-family="Helvetica,sans-Serif" font-size="10.00">H17Disk::validateBlock</text>
</a>
</g>
</g>
<!-- Node4&#45;&gt;Node5 -->
<g id="edge4" class="edge"><title>Node4&#45;&gt;Node5</title>
<path fill="none" stroke="midnightblue" d="M684.388,-10C692.981,-10 701.609,-10 709.891,-10"/>
<polygon fill="midnightblue" stroke="midnightblue" points="684.339,-6.5001 674.339,-10 684.339,-13.5001 684.339,-6.5001"/>
</g>
<!-- Node6 -->
<g id="node6" class="node"><title>Node6</title>
<g id="a_node6"><a xlink:href="classH17Disk.html#ada058d8b970b4e72569e2fe000817f75" target="_top" xlink:title="H17Disk::decodeBuffer">
<polygon fill="white" stroke="black" points="865,-0.5 865,-19.5 984,-19.5 984,-0.5 865,-0.5"/>
<text text-anchor="middle" x="924.5" y="-7.5" font-family="Helvetica,sans-Serif" font-size="10.00">H17Disk::decodeBuffer</text>
</a>
</g>
</g>
<!-- Node5&#45;&gt;Node6 -->
<g id="edge5" class="edge"><title>Node5&#45;&gt;Node6</title>
<path fill="none" stroke="midnightblue" d="M839.493,-10C847.993,-10 856.617,-10 864.941,-10"/>
<polygon fill="midnightblue" stroke="midnightblue" points="839.216,-6.5001 829.216,-10 839.216,-13.5001 839.216,-6.5001"/>
</g>
<!-- Node7 -->
<g id="node7" class="node"><title>Node7</title>
<g id="a_node7"><a xlink:href="classH17Disk.html#a503d2a03bfe0f9bbe3a8bd8dc7d2ec17" target="_top" xlink:title="H17Disk::decodeFile">
<polygon fill="white" stroke="black" points="1020,-0.5 1020,-19.5 1128,-19.5 1128,-0.5 1020,-0.5"/>
<text text-anchor="middle" x="1074" y="-7.5" font-family="Helvetica,sans-Serif" font-size="10.00">H17Disk::decodeFile</text>
</a>
</g>
</g>
<!-- Node6&#45;&gt;Node7 -->
<g id="edge6" class="edge"><title>Node6&#45;&gt;Node7</title>
<path fill="none" stroke="midnightblue" d="M994.494,-10C1002.98,-10 1011.54,-10 1019.74,-10"/>
<polygon fill="midnightblue" stroke="midnightblue" points="994.22,-6.5001 984.22,-10 994.22,-13.5001 994.22,-6.5001"/>
</g>
</g>
</svg>
