<?xml version="1.0" encoding="UTF-8" standalone="no"?>
<!DOCTYPE svg PUBLIC "-//W3C//DTD SVG 1.1//EN"
 "http://www.w3.org/Graphics/SVG/1.1/DTD/svg11.dtd">
<!-- Generated by graphviz version 2.38.0 (20140413.2041)
 -->
<!-- Title: Drive::Drive Pages: 1 -->
<svg width="319pt" height="66pt"
 viewBox="0.00 0.00 319.00 66.00" xmlns="http://www.w3.org/2000/svg" xmlns:xlink="http://www.w3.org/1999/xlink">
<g id="graph0" class="graph" transform="scale(1 1) rotate(0) translate(4 62)">
<title>Drive::Drive</title>
<polygon fill="white" stroke="none" points="-4,4 -4,-62 315,-62 315,4 -4,4"/>
<!-- Node1 -->
<g id="node1" class="node"><title>Node1</title>
<polygon fill="#bfbfbf" stroke="black" points="0,-19.5 0,-38.5 69,-38.5 69,-19.5 0,-19.5"/>
<text text-anchor="middle" x="34.5" y="-26.5" font-family="Helvetica,sans-Serif" font-size="10.00">Drive::Drive</text>
</g>
<!-- Node2 -->
<g id="node2" class="node"><title>Node2</title>
<g id="a_node2"><a xlink:href="classFC5025.html#a3fa1262c4bde8788a2d71d07dfc88630" target="_top" xlink:title="FC5025::inst">
<polygon fill="white" stroke="black" points="107.5,-38.5 107.5,-57.5 180.5,-57.5 180.5,-38.5 107.5,-38.5"/>
<text text-anchor="middle" x="144" y="-45.5" font-family="Helvetica,sans-Serif" font-size="10.00">FC5025::inst</text>
</a>
</g>
</g>
<!-- Node1&#45;&gt;Node2 -->
<g id="edge1" class="edge"><title>Node1&#45;&gt;Node2</title>
<path fill="none" stroke="midnightblue" d="M69.2187,-34.9596C78.0816,-36.5261 87.7925,-38.2424 97.174,-39.9005"/>
<polygon fill="midnightblue" stroke="midnightblue" points="96.7125,-43.3731 107.169,-41.6671 97.9309,-36.48 96.7125,-43.3731"/>
</g>
<!-- Node4 -->
<g id="node4" class="node"><title>Node4</title>
<g id="a_node4"><a xlink:href="classFC5025.html#a59d919ef113972193186371c7db7ee9d" target="_top" xlink:title="FC5025::open">
<polygon fill="white" stroke="black" points="105,-0.5 105,-19.5 183,-19.5 183,-0.5 105,-0.5"/>
<text text-anchor="middle" x="144" y="-7.5" font-family="Helvetica,sans-Serif" font-size="10.00">FC5025::open</text>
</a>
</g>
</g>
<!-- Node1&#45;&gt;Node4 -->
<g id="edge3" class="edge"><title>Node1&#45;&gt;Node4</title>
<path fill="none" stroke="midnightblue" d="M69.2187,-23.0404C77.362,-21.6011 86.221,-20.0354 94.8828,-18.5044"/>
<polygon fill="midnightblue" stroke="midnightblue" points="95.6675,-21.9201 104.906,-16.733 94.4491,-15.0269 95.6675,-21.9201"/>
</g>
<!-- Node3 -->
<g id="node3" class="node"><title>Node3</title>
<g id="a_node3"><a xlink:href="classFC5025.html#a01786b9fd3a20919da5e702794fa95e6" target="_top" xlink:title="FC5025::FC5025">
<polygon fill="white" stroke="black" points="219,-38.5 219,-57.5 311,-57.5 311,-38.5 219,-38.5"/>
<text text-anchor="middle" x="265" y="-45.5" font-family="Helvetica,sans-Serif" font-size="10.00">FC5025::FC5025</text>
</a>
</g>
</g>
<!-- Node2&#45;&gt;Node3 -->
<g id="edge2" class="edge"><title>Node2&#45;&gt;Node3</title>
<path fill="none" stroke="midnightblue" d="M180.704,-48C189.452,-48 199.022,-48 208.458,-48"/>
<polygon fill="midnightblue" stroke="midnightblue" points="208.6,-51.5001 218.6,-48 208.6,-44.5001 208.6,-51.5001"/>
</g>
</g>
</svg>
