<?xml version="1.0" encoding="UTF-8" standalone="no"?>
<!DOCTYPE svg PUBLIC "-//W3C//DTD SVG 1.1//EN"
 "http://www.w3.org/Graphics/SVG/1.1/DTD/svg11.dtd">
<!-- Generated by graphviz version 2.38.0 (20140413.2041)
 -->
<!-- Title: FC5025::driveStatus Pages: 1 -->
<svg width="362pt" height="47pt"
 viewBox="0.00 0.00 362.00 47.00" xmlns="http://www.w3.org/2000/svg" xmlns:xlink="http://www.w3.org/1999/xlink">
<g id="graph0" class="graph" transform="scale(1 1) rotate(0) translate(4 43)">
<title>FC5025::driveStatus</title>
<polygon fill="white" stroke="none" points="-4,4 -4,-43 358,-43 358,4 -4,4"/>
<!-- Node1 -->
<g id="node1" class="node"><title>Node1</title>
<polygon fill="#bfbfbf" stroke="black" points="0,-0.5 0,-19.5 107,-19.5 107,-0.5 0,-0.5"/>
<text text-anchor="middle" x="53.5" y="-7.5" font-family="Helvetica,sans-Serif" font-size="10.00">FC5025::driveStatus</text>
</g>
<!-- Node2 -->
<g id="node2" class="node"><title>Node2</title>
<g id="a_node2"><a xlink:href="classFC5025.html#a9c372002cbdc43034ed601f022e22751" target="_top" xlink:title="FC5025::flags">
<polygon fill="white" stroke="black" points="143,-19.5 143,-38.5 221,-38.5 221,-19.5 143,-19.5"/>
<text text-anchor="middle" x="182" y="-26.5" font-family="Helvetica,sans-Serif" font-size="10.00">FC5025::flags</text>
</a>
</g>
</g>
<!-- Node1&#45;&gt;Node2 -->
<g id="edge1" class="edge"><title>Node1&#45;&gt;Node2</title>
<path fill="none" stroke="midnightblue" d="M107.048,-17.8926C115.542,-19.1684 124.301,-20.484 132.688,-21.7437"/>
<polygon fill="midnightblue" stroke="midnightblue" points="132.283,-25.222 142.692,-23.2462 133.323,-18.2996 132.283,-25.222"/>
</g>
<!-- Node3 -->
<g id="node3" class="node"><title>Node3</title>
<g id="a_node3"><a xlink:href="classFC5025.html#ac645d8e876d7121ca75db81ef99ee7f4" target="_top" xlink:title="FC5025::bulkCDB">
<polygon fill="white" stroke="black" points="257,-0.5 257,-19.5 354,-19.5 354,-0.5 257,-0.5"/>
<text text-anchor="middle" x="305.5" y="-7.5" font-family="Helvetica,sans-Serif" font-size="10.00">FC5025::bulkCDB</text>
</a>
</g>
</g>
<!-- Node1&#45;&gt;Node3 -->
<g id="edge3" class="edge"><title>Node1&#45;&gt;Node3</title>
<path fill="none" stroke="midnightblue" d="M107.213,-10C148.107,-10 204.729,-10 246.828,-10"/>
<polygon fill="midnightblue" stroke="midnightblue" points="246.928,-13.5001 256.928,-10 246.928,-6.5001 246.928,-13.5001"/>
</g>
<!-- Node2&#45;&gt;Node3 -->
<g id="edge2" class="edge"><title>Node2&#45;&gt;Node3</title>
<path fill="none" stroke="midnightblue" d="M221.11,-23.0404C229.213,-21.7732 237.944,-20.408 246.597,-19.0548"/>
<polygon fill="midnightblue" stroke="midnightblue" points="247.338,-22.4815 256.678,-17.4784 246.257,-15.5655 247.338,-22.4815"/>
</g>
</g>
</svg>
