<?xml version="1.0" encoding="UTF-8" standalone="no"?>
<!DOCTYPE svg PUBLIC "-//W3C//DTD SVG 1.1//EN"
 "http://www.w3.org/Graphics/SVG/1.1/DTD/svg11.dtd">
<!-- Generated by graphviz version 2.38.0 (20140413.2041)
 -->
<!-- Title: H17Disk::validateTrackBlock Pages: 1 -->
<svg width="782pt" height="28pt"
 viewBox="0.00 0.00 782.00 28.00" xmlns="http://www.w3.org/2000/svg" xmlns:xlink="http://www.w3.org/1999/xlink">
<g id="graph0" class="graph" transform="scale(1 1) rotate(0) translate(4 24)">
<title>H17Disk::validateTrackBlock</title>
<polygon fill="white" stroke="none" points="-4,4 -4,-24 778,-24 778,4 -4,4"/>
<!-- Node1 -->
<g id="node1" class="node"><title>Node1</title>
<polygon fill="#bfbfbf" stroke="black" points="0,-0.5 0,-19.5 144,-19.5 144,-0.5 0,-0.5"/>
<text text-anchor="middle" x="72" y="-7.5" font-family="Helvetica,sans-Serif" font-size="10.00">H17Disk::validateTrackBlock</text>
</g>
<!-- Node2 -->
<g id="node2" class="node"><title>Node2</title>
<g id="a_node2"><a xlink:href="classH17Disk.html#a593434e6ce0538943cb044b7d0c9c273" target="_top" xlink:title="H17Disk::validateDataBlock">
<polygon fill="white" stroke="black" points="180,-0.5 180,-19.5 320,-19.5 320,-0.5 180,-0.5"/>
<text text-anchor="middle" x="250" y="-7.5" font-family="Helvetica,sans-Serif" font-size="10.00">H17Disk::validateDataBlock</text>
</a>
</g>
</g>
<!-- Node1&#45;&gt;Node2 -->
<g id="edge1" class="edge"><title>Node1&#45;&gt;Node2</title>
<path fill="none" stroke="midnightblue" d="M154.141,-10C162.764,-10 171.475,-10 179.941,-10"/>
<polygon fill="midnightblue" stroke="midnightblue" points="154.079,-6.5001 144.079,-10 154.079,-13.5001 154.079,-6.5001"/>
</g>
<!-- Node3 -->
<g id="node3" class="node"><title>Node3</title>
<g id="a_node3"><a xlink:href="classH17Disk.html#a29f4d35fba24f0d9cee37bcb02120a6c" target="_top" xlink:title="H17Disk::validateBlock">
<polygon fill="white" stroke="black" points="356,-0.5 356,-19.5 475,-19.5 475,-0.5 356,-0.5"/>
<text text-anchor="middle" x="415.5" y="-7.5" font-family="Helvetica,sans-Serif" font-size="10.00">H17Disk::validateBlock</text>
</a>
</g>
</g>
<!-- Node2&#45;&gt;Node3 -->
<g id="edge2" class="edge"><title>Node2&#45;&gt;Node3</title>
<path fill="none" stroke="midnightblue" d="M330.388,-10C338.981,-10 347.609,-10 355.891,-10"/>
<polygon fill="midnightblue" stroke="midnightblue" points="330.339,-6.5001 320.339,-10 330.339,-13.5001 330.339,-6.5001"/>
</g>
<!-- Node4 -->
<g id="node4" class="node"><title>Node4</title>
<g id="a_node4"><a xlink:href="classH17Disk.html#ada058d8b970b4e72569e2fe000817f75" target="_top" xlink:title="H17Disk::decodeBuffer">
<polygon fill="white" stroke="black" points="511,-0.5 511,-19.5 630,-19.5 630,-0.5 511,-0.5"/>
<text text-anchor="middle" x="570.5" y="-7.5" font-family="Helvetica,sans-Serif" font-size="10.00">H17Disk::decodeBuffer</text>
</a>
</g>
</g>
<!-- Node3&#45;&gt;Node4 -->
<g id="edge3" class="edge"><title>Node3&#45;&gt;Node4</title>
<path fill="none" stroke="midnightblue" d="M485.493,-10C493.993,-10 502.617,-10 510.941,-10"/>
<polygon fill="midnightblue" stroke="midnightblue" points="485.216,-6.5001 475.216,-10 485.216,-13.5001 485.216,-6.5001"/>
</g>
<!-- Node5 -->
<g id="node5" class="node"><title>Node5</title>
<g id="a_node5"><a xlink:href="classH17Disk.html#a503d2a03bfe0f9bbe3a8bd8dc7d2ec17" target="_top" xlink:title="H17Disk::decodeFile">
<polygon fill="white" stroke="black" points="666,-0.5 666,-19.5 774,-19.5 774,-0.5 666,-0.5"/>
<text text-anchor="middle" x="720" y="-7.5" font-family="Helvetica,sans-Serif" font-size="10.00">H17Disk::decodeFile</text>
</a>
</g>
</g>
<!-- Node4&#45;&gt;Node5 -->
<g id="edge4" class="edge"><title>Node4&#45;&gt;Node5</title>
<path fill="none" stroke="midnightblue" d="M640.494,-10C648.976,-10 657.542,-10 665.741,-10"/>
<polygon fill="midnightblue" stroke="midnightblue" points="640.22,-6.5001 630.22,-10 640.22,-13.5001 640.22,-6.5001"/>
</g>
</g>
</svg>
