<?xml version="1.0" encoding="UTF-8" standalone="no"?>
<!DOCTYPE svg PUBLIC "-//W3C//DTD SVG 1.1//EN"
 "http://www.w3.org/Graphics/SVG/1.1/DTD/svg11.dtd">
<!-- Generated by graphviz version 2.38.0 (20140413.2041)
 -->
<!-- Title: FC5025::FC5025 Pages: 1 -->
<svg width="376pt" height="142pt"
 viewBox="0.00 0.00 376.00 142.00" xmlns="http://www.w3.org/2000/svg" xmlns:xlink="http://www.w3.org/1999/xlink">
<g id="graph0" class="graph" transform="scale(1 1) rotate(0) translate(4 138)">
<title>FC5025::FC5025</title>
<polygon fill="white" stroke="none" points="-4,4 -4,-138 372,-138 372,4 -4,4"/>
<!-- Node1 -->
<g id="node1" class="node"><title>Node1</title>
<polygon fill="#bfbfbf" stroke="black" points="0,-57.5 0,-76.5 92,-76.5 92,-57.5 0,-57.5"/>
<text text-anchor="middle" x="46" y="-64.5" font-family="Helvetica,sans-Serif" font-size="10.00">FC5025::FC5025</text>
</g>
<!-- Node2 -->
<g id="node2" class="node"><title>Node2</title>
<g id="a_node2"><a xlink:href="classFC5025.html#a3fa1262c4bde8788a2d71d07dfc88630" target="_top" xlink:title="FC5025::inst">
<polygon fill="white" stroke="black" points="128,-57.5 128,-76.5 201,-76.5 201,-57.5 128,-57.5"/>
<text text-anchor="middle" x="164.5" y="-64.5" font-family="Helvetica,sans-Serif" font-size="10.00">FC5025::inst</text>
</a>
</g>
</g>
<!-- Node1&#45;&gt;Node2 -->
<g id="edge1" class="edge"><title>Node1&#45;&gt;Node2</title>
<path fill="none" stroke="midnightblue" d="M102.228,-67C110.98,-67 119.824,-67 127.966,-67"/>
<polygon fill="midnightblue" stroke="midnightblue" points="102.042,-63.5001 92.0419,-67 102.042,-70.5001 102.042,-63.5001"/>
</g>
<!-- Node3 -->
<g id="node3" class="node"><title>Node3</title>
<g id="a_node3"><a xlink:href="classDrive.html#a4f4e8bf510bd82b4440e89426ee56122" target="_top" xlink:title="Drive::Drive">
<polygon fill="white" stroke="black" points="268,-114.5 268,-133.5 337,-133.5 337,-114.5 268,-114.5"/>
<text text-anchor="middle" x="302.5" y="-121.5" font-family="Helvetica,sans-Serif" font-size="10.00">Drive::Drive</text>
</a>
</g>
</g>
<!-- Node2&#45;&gt;Node3 -->
<g id="edge2" class="edge"><title>Node2&#45;&gt;Node3</title>
<path fill="none" stroke="midnightblue" d="M189.951,-81.579C203.494,-89.246 220.82,-98.3968 237,-105 246.835,-109.014 257.829,-112.575 267.914,-115.498"/>
<polygon fill="midnightblue" stroke="midnightblue" points="191.651,-78.5191 181.239,-76.5576 188.155,-84.5838 191.651,-78.5191"/>
</g>
<!-- Node4 -->
<g id="node4" class="node"><title>Node4</title>
<g id="a_node4"><a xlink:href="classDrive.html#a9a9f96b1b0b4e841567ccf9fc2d60aaa" target="_top" xlink:title="Drive::~Drive">
<polygon fill="white" stroke="black" points="265,-76.5 265,-95.5 340,-95.5 340,-76.5 265,-76.5"/>
<text text-anchor="middle" x="302.5" y="-83.5" font-family="Helvetica,sans-Serif" font-size="10.00">Drive::~Drive</text>
</a>
</g>
</g>
<!-- Node2&#45;&gt;Node4 -->
<g id="edge3" class="edge"><title>Node2&#45;&gt;Node4</title>
<path fill="none" stroke="midnightblue" d="M211.172,-73.3806C228.55,-75.8084 248.117,-78.542 264.584,-80.8427"/>
<polygon fill="midnightblue" stroke="midnightblue" points="211.621,-69.9094 201.232,-71.992 210.652,-76.8421 211.621,-69.9094"/>
</g>
<!-- Node5 -->
<g id="node5" class="node"><title>Node5</title>
<g id="a_node5"><a xlink:href="classDrive.html#a0f266ed4ce8f84a557be46f24c55063c" target="_top" xlink:title="Drive::get_drive_list">
<polygon fill="white" stroke="black" points="250.5,-38.5 250.5,-57.5 354.5,-57.5 354.5,-38.5 250.5,-38.5"/>
<text text-anchor="middle" x="302.5" y="-45.5" font-family="Helvetica,sans-Serif" font-size="10.00">Drive::get_drive_list</text>
</a>
</g>
</g>
<!-- Node2&#45;&gt;Node5 -->
<g id="edge4" class="edge"><title>Node2&#45;&gt;Node5</title>
<path fill="none" stroke="midnightblue" d="M211.447,-60.581C223.972,-58.8311 237.616,-56.9249 250.408,-55.1378"/>
<polygon fill="midnightblue" stroke="midnightblue" points="210.652,-57.1579 201.232,-62.008 211.621,-64.0906 210.652,-57.1579"/>
</g>
<!-- Node6 -->
<g id="node6" class="node"><title>Node6</title>
<g id="a_node6"><a xlink:href="classHeathHSDisk.html#aacdbaa5d65b123852e743f2579f38cda" target="_top" xlink:title="HeathHSDisk::readSector">
<polygon fill="white" stroke="black" points="237,-0.5 237,-19.5 368,-19.5 368,-0.5 237,-0.5"/>
<text text-anchor="middle" x="302.5" y="-7.5" font-family="Helvetica,sans-Serif" font-size="10.00">HeathHSDisk::readSector</text>
</a>
</g>
</g>
<!-- Node2&#45;&gt;Node6 -->
<g id="edge5" class="edge"><title>Node2&#45;&gt;Node6</title>
<path fill="none" stroke="midnightblue" d="M189.951,-52.421C203.494,-44.754 220.82,-35.6032 237,-29 245.647,-25.4712 255.188,-22.2924 264.22,-19.5895"/>
<polygon fill="midnightblue" stroke="midnightblue" points="188.155,-49.4162 181.239,-57.4424 191.651,-55.4809 188.155,-49.4162"/>
</g>
</g>
</svg>
