<?xml version="1.0" encoding="UTF-8" standalone="no"?>
<!DOCTYPE svg PUBLIC "-//W3C//DTD SVG 1.1//EN"
 "http://www.w3.org/Graphics/SVG/1.1/DTD/svg11.dtd">
<!-- Generated by graphviz version 2.38.0 (20140413.2041)
 -->
<!-- Title: decode.h Pages: 1 -->
<svg width="255pt" height="84pt"
 viewBox="0.00 0.00 255.00 84.00" xmlns="http://www.w3.org/2000/svg" xmlns:xlink="http://www.w3.org/1999/xlink">
<g id="graph0" class="graph" transform="scale(1 1) rotate(0) translate(4 80)">
<title>decode.h</title>
<polygon fill="white" stroke="none" points="-4,4 -4,-80 251,-80 251,4 -4,4"/>
<!-- Node1 -->
<g id="node1" class="node"><title>Node1</title>
<polygon fill="#bfbfbf" stroke="black" points="91.5,-56.5 91.5,-75.5 147.5,-75.5 147.5,-56.5 91.5,-56.5"/>
<text text-anchor="middle" x="119.5" y="-63.5" font-family="Helvetica,sans-Serif" font-size="10.00">decode.h</text>
</g>
<!-- Node2 -->
<g id="node2" class="node"><title>Node2</title>
<g id="a_node2"><a xlink:href="decode_8cpp.html" target="_top" xlink:title="decode.cpp">
<polygon fill="white" stroke="black" points="0,-0.5 0,-19.5 67,-19.5 67,-0.5 0,-0.5"/>
<text text-anchor="middle" x="33.5" y="-7.5" font-family="Helvetica,sans-Serif" font-size="10.00">decode.cpp</text>
</a>
</g>
</g>
<!-- Node1&#45;&gt;Node2 -->
<g id="edge1" class="edge"><title>Node1&#45;&gt;Node2</title>
<path fill="none" stroke="midnightblue" d="M97.0453,-50.9005C81.2756,-40.9986 60.6864,-28.0705 47.2831,-19.6545"/>
<polygon fill="midnightblue" stroke="midnightblue" points="95.3525,-53.9704 105.683,-56.324 99.0749,-48.0421 95.3525,-53.9704"/>
</g>
<!-- Node3 -->
<g id="node3" class="node"><title>Node3</title>
<g id="a_node3"><a xlink:href="h17disk_8cpp.html" target="_top" xlink:title="h17disk.cpp">
<polygon fill="white" stroke="black" points="85,-0.5 85,-19.5 154,-19.5 154,-0.5 85,-0.5"/>
<text text-anchor="middle" x="119.5" y="-7.5" font-family="Helvetica,sans-Serif" font-size="10.00">h17disk.cpp</text>
</a>
</g>
</g>
<!-- Node1&#45;&gt;Node3 -->
<g id="edge2" class="edge"><title>Node1&#45;&gt;Node3</title>
<path fill="none" stroke="midnightblue" d="M119.5,-45.8045C119.5,-36.9102 119.5,-26.7798 119.5,-19.7511"/>
<polygon fill="midnightblue" stroke="midnightblue" points="116,-46.083 119.5,-56.083 123,-46.083 116,-46.083"/>
</g>
<!-- Node4 -->
<g id="node4" class="node"><title>Node4</title>
<g id="a_node4"><a xlink:href="heath__hs_8cpp.html" target="_top" xlink:title="heath_hs.cpp">
<polygon fill="white" stroke="black" points="172,-0.5 172,-19.5 247,-19.5 247,-0.5 172,-0.5"/>
<text text-anchor="middle" x="209.5" y="-7.5" font-family="Helvetica,sans-Serif" font-size="10.00">heath_hs.cpp</text>
</a>
</g>
</g>
<!-- Node1&#45;&gt;Node4 -->
<g id="edge3" class="edge"><title>Node1&#45;&gt;Node4</title>
<path fill="none" stroke="midnightblue" d="M142.538,-51.1774C159.099,-41.2407 180.918,-28.1492 195.076,-19.6545"/>
<polygon fill="midnightblue" stroke="midnightblue" points="140.734,-48.1777 133.96,-56.324 144.336,-54.1802 140.734,-48.1777"/>
</g>
</g>
</svg>
