<?xml version="1.0" encoding="UTF-8" standalone="no"?>
<!DOCTYPE svg PUBLIC "-//W3C//DTD SVG 1.1//EN"
 "http://www.w3.org/Graphics/SVG/1.1/DTD/svg11.dtd">
<!-- Generated by graphviz version 2.38.0 (20140413.2041)
 -->
<!-- Title: decode.cpp Pages: 1 -->
<svg width="131pt" height="196pt"
 viewBox="0.00 0.00 131.00 196.00" xmlns="http://www.w3.org/2000/svg" xmlns:xlink="http://www.w3.org/1999/xlink">
<g id="graph0" class="graph" transform="scale(1 1) rotate(0) translate(4 192)">
<title>decode.cpp</title>
<polygon fill="white" stroke="none" points="-4,4 -4,-192 127,-192 127,4 -4,4"/>
<!-- Node1 -->
<g id="node1" class="node"><title>Node1</title>
<polygon fill="#bfbfbf" stroke="black" points="31.5,-168.5 31.5,-187.5 98.5,-187.5 98.5,-168.5 31.5,-168.5"/>
<text text-anchor="middle" x="65" y="-175.5" font-family="Helvetica,sans-Serif" font-size="10.00">decode.cpp</text>
</g>
<!-- Node2 -->
<g id="node2" class="node"><title>Node2</title>
<g id="a_node2"><a xlink:href="decode_8h.html" target="_top" xlink:title="decode.h">
<polygon fill="white" stroke="black" points="3,-112.5 3,-131.5 59,-131.5 59,-112.5 3,-112.5"/>
<text text-anchor="middle" x="31" y="-119.5" font-family="Helvetica,sans-Serif" font-size="10.00">decode.h</text>
</a>
</g>
</g>
<!-- Node1&#45;&gt;Node2 -->
<g id="edge1" class="edge"><title>Node1&#45;&gt;Node2</title>
<path fill="none" stroke="midnightblue" d="M59.3856,-168.083C54.6326,-160.534 47.6819,-149.495 41.8484,-140.23"/>
<polygon fill="midnightblue" stroke="midnightblue" points="44.7999,-138.349 36.5099,-131.751 38.8763,-142.078 44.7999,-138.349"/>
</g>
<!-- Node5 -->
<g id="node5" class="node"><title>Node5</title>
<polygon fill="white" stroke="#bfbfbf" points="77,-112.5 77,-131.5 123,-131.5 123,-112.5 77,-112.5"/>
<text text-anchor="middle" x="100" y="-119.5" font-family="Helvetica,sans-Serif" font-size="10.00">stdio.h</text>
</g>
<!-- Node1&#45;&gt;Node5 -->
<g id="edge4" class="edge"><title>Node1&#45;&gt;Node5</title>
<path fill="none" stroke="midnightblue" d="M70.7795,-168.083C75.6724,-160.534 82.8274,-149.495 88.8326,-140.23"/>
<polygon fill="midnightblue" stroke="midnightblue" points="91.826,-142.046 94.328,-131.751 85.952,-138.239 91.826,-142.046"/>
</g>
<!-- Node3 -->
<g id="node3" class="node"><title>Node3</title>
<g id="a_node3"><a xlink:href="hi__types_8h.html" target="_top" xlink:title="hi_types.h">
<polygon fill="white" stroke="black" points="0,-56.5 0,-75.5 62,-75.5 62,-56.5 0,-56.5"/>
<text text-anchor="middle" x="31" y="-63.5" font-family="Helvetica,sans-Serif" font-size="10.00">hi_types.h</text>
</a>
</g>
</g>
<!-- Node2&#45;&gt;Node3 -->
<g id="edge2" class="edge"><title>Node2&#45;&gt;Node3</title>
<path fill="none" stroke="midnightblue" d="M31,-112.083C31,-105.006 31,-94.8611 31,-85.9865"/>
<polygon fill="midnightblue" stroke="midnightblue" points="34.5001,-85.751 31,-75.7511 27.5001,-85.7511 34.5001,-85.751"/>
</g>
<!-- Node4 -->
<g id="node4" class="node"><title>Node4</title>
<polygon fill="white" stroke="#bfbfbf" points="6.5,-0.5 6.5,-19.5 55.5,-19.5 55.5,-0.5 6.5,-0.5"/>
<text text-anchor="middle" x="31" y="-7.5" font-family="Helvetica,sans-Serif" font-size="10.00">stdint.h</text>
</g>
<!-- Node3&#45;&gt;Node4 -->
<g id="edge3" class="edge"><title>Node3&#45;&gt;Node4</title>
<path fill="none" stroke="midnightblue" d="M31,-56.083C31,-49.0059 31,-38.8611 31,-29.9865"/>
<polygon fill="midnightblue" stroke="midnightblue" points="34.5001,-29.751 31,-19.7511 27.5001,-29.7511 34.5001,-29.751"/>
</g>
</g>
</svg>
