<?xml version="1.0" encoding="UTF-8" standalone="no"?>
<!DOCTYPE svg PUBLIC "-//W3C//DTD SVG 1.1//EN"
 "http://www.w3.org/Graphics/SVG/1.1/DTD/svg11.dtd">
<!-- Generated by graphviz version 2.38.0 (20140413.2041)
 -->
<!-- Title: reverseChar Pages: 1 -->
<svg width="1368pt" height="78pt"
 viewBox="0.00 0.00 1368.00 77.50" xmlns="http://www.w3.org/2000/svg" xmlns:xlink="http://www.w3.org/1999/xlink">
<g id="graph0" class="graph" transform="scale(1 1) rotate(0) translate(4 73.5)">
<title>reverseChar</title>
<polygon fill="white" stroke="none" points="-4,4 -4,-73.5 1364,-73.5 1364,4 -4,4"/>
<!-- Node1 -->
<g id="node1" class="node"><title>Node1</title>
<polygon fill="#bfbfbf" stroke="black" points="0,-22.5 0,-41.5 70,-41.5 70,-22.5 0,-22.5"/>
<text text-anchor="middle" x="35" y="-29.5" font-family="Helvetica,sans-Serif" font-size="10.00">reverseChar</text>
</g>
<!-- Node2 -->
<g id="node2" class="node"><title>Node2</title>
<g id="a_node2"><a xlink:href="disk__util_8h.html#a6fe02d4965ce98f778a023f33b99a653" target="_top" xlink:title="shiftByte">
<polygon fill="white" stroke="black" points="106,-22.5 106,-41.5 162,-41.5 162,-22.5 106,-22.5"/>
<text text-anchor="middle" x="134" y="-29.5" font-family="Helvetica,sans-Serif" font-size="10.00">shiftByte</text>
</a>
</g>
</g>
<!-- Node1&#45;&gt;Node2 -->
<g id="edge1" class="edge"><title>Node1&#45;&gt;Node2</title>
<path fill="none" stroke="midnightblue" d="M80.2674,-32C88.9741,-32 97.8642,-32 105.804,-32"/>
<polygon fill="midnightblue" stroke="midnightblue" points="80.1986,-28.5001 70.1986,-32 80.1985,-35.5001 80.1986,-28.5001"/>
</g>
<!-- Node3 -->
<g id="node3" class="node"><title>Node3</title>
<g id="a_node3"><a xlink:href="disk__util_8h.html#ab8a7dd8f773ae75ecfca3828e48c0308" target="_top" xlink:title="alignSector">
<polygon fill="white" stroke="black" points="198,-22.5 198,-41.5 263,-41.5 263,-22.5 198,-22.5"/>
<text text-anchor="middle" x="230.5" y="-29.5" font-family="Helvetica,sans-Serif" font-size="10.00">alignSector</text>
</a>
</g>
</g>
<!-- Node2&#45;&gt;Node3 -->
<g id="edge2" class="edge"><title>Node2&#45;&gt;Node3</title>
<path fill="none" stroke="midnightblue" d="M172.111,-32C180.584,-32 189.514,-32 197.739,-32"/>
<polygon fill="midnightblue" stroke="midnightblue" points="172.08,-28.5001 162.08,-32 172.08,-35.5001 172.08,-28.5001"/>
</g>
<!-- Node4 -->
<g id="node4" class="node"><title>Node4</title>
<g id="a_node4"><a xlink:href="disk__util_8h.html#a6ca0336006e5d440e0adca49fe90a8bd" target="_top" xlink:title="processSector">
<polygon fill="white" stroke="black" points="299,-22.5 299,-41.5 379,-41.5 379,-22.5 299,-22.5"/>
<text text-anchor="middle" x="339" y="-29.5" font-family="Helvetica,sans-Serif" font-size="10.00">processSector</text>
</a>
</g>
</g>
<!-- Node3&#45;&gt;Node4 -->
<g id="edge3" class="edge"><title>Node3&#45;&gt;Node4</title>
<path fill="none" stroke="midnightblue" d="M273.441,-32C281.769,-32 290.483,-32 298.718,-32"/>
<polygon fill="midnightblue" stroke="midnightblue" points="273.165,-28.5001 263.165,-32 273.165,-35.5001 273.165,-28.5001"/>
</g>
<!-- Node5 -->
<g id="node5" class="node"><title>Node5</title>
<g id="a_node5"><a xlink:href="classH17Disk.html#a60b9074cacd5a89f4b8e8dfb37bccf08" target="_top" xlink:title="H17Disk::validateRawSector\lBlock">
<polygon fill="white" stroke="black" points="415,-39 415,-69 558,-69 558,-39 415,-39"/>
<text text-anchor="start" x="423" y="-57" font-family="Helvetica,sans-Serif" font-size="10.00">H17Disk::validateRawSector</text>
<text text-anchor="middle" x="486.5" y="-46" font-family="Helvetica,sans-Serif" font-size="10.00">Block</text>
</a>
</g>
</g>
<!-- Node4&#45;&gt;Node5 -->
<g id="edge4" class="edge"><title>Node4&#45;&gt;Node5</title>
<path fill="none" stroke="midnightblue" d="M389.502,-39.4849C397.713,-40.7264 406.366,-42.0347 414.977,-43.3367"/>
<polygon fill="midnightblue" stroke="midnightblue" points="389.785,-35.988 379.374,-37.9535 388.739,-42.9093 389.785,-35.988"/>
</g>
<!-- Node11 -->
<g id="node11" class="node"><title>Node11</title>
<g id="a_node11"><a xlink:href="classHeathHSDisk.html#aacdbaa5d65b123852e743f2579f38cda" target="_top" xlink:title="HeathHSDisk::readSector">
<polygon fill="white" stroke="black" points="421,-0.5 421,-19.5 552,-19.5 552,-0.5 421,-0.5"/>
<text text-anchor="middle" x="486.5" y="-7.5" font-family="Helvetica,sans-Serif" font-size="10.00">HeathHSDisk::readSector</text>
</a>
</g>
</g>
<!-- Node4&#45;&gt;Node11 -->
<g id="edge10" class="edge"><title>Node4&#45;&gt;Node11</title>
<path fill="none" stroke="midnightblue" d="M389.335,-24.5404C400.001,-22.9277 411.418,-21.2013 422.526,-19.5218"/>
<polygon fill="midnightblue" stroke="midnightblue" points="388.739,-21.0907 379.374,-26.0465 389.785,-28.012 388.739,-21.0907"/>
</g>
<!-- Node6 -->
<g id="node6" class="node"><title>Node6</title>
<g id="a_node6"><a xlink:href="classH17Disk.html#a8f0fa7dbd52e633a2faa267e453cc486" target="_top" xlink:title="H17Disk::validateRawTrack\lBlock">
<polygon fill="white" stroke="black" points="594,-39 594,-69 734,-69 734,-39 594,-39"/>
<text text-anchor="start" x="602" y="-57" font-family="Helvetica,sans-Serif" font-size="10.00">H17Disk::validateRawTrack</text>
<text text-anchor="middle" x="664" y="-46" font-family="Helvetica,sans-Serif" font-size="10.00">Block</text>
</a>
</g>
</g>
<!-- Node5&#45;&gt;Node6 -->
<g id="edge5" class="edge"><title>Node5&#45;&gt;Node6</title>
<path fill="none" stroke="midnightblue" d="M568.171,-54C576.783,-54 585.487,-54 593.947,-54"/>
<polygon fill="midnightblue" stroke="midnightblue" points="568.124,-50.5001 558.124,-54 568.124,-57.5001 568.124,-50.5001"/>
</g>
<!-- Node7 -->
<g id="node7" class="node"><title>Node7</title>
<g id="a_node7"><a xlink:href="classH17Disk.html#ae1f57f11daa4d4c624d255851838d704" target="_top" xlink:title="H17Disk::validateRawData\lBlock">
<polygon fill="white" stroke="black" points="770,-39 770,-69 906,-69 906,-39 770,-39"/>
<text text-anchor="start" x="778" y="-57" font-family="Helvetica,sans-Serif" font-size="10.00">H17Disk::validateRawData</text>
<text text-anchor="middle" x="838" y="-46" font-family="Helvetica,sans-Serif" font-size="10.00">Block</text>
</a>
</g>
</g>
<!-- Node6&#45;&gt;Node7 -->
<g id="edge6" class="edge"><title>Node6&#45;&gt;Node7</title>
<path fill="none" stroke="midnightblue" d="M744.654,-54C753.059,-54 761.545,-54 769.789,-54"/>
<polygon fill="midnightblue" stroke="midnightblue" points="744.463,-50.5001 734.463,-54 744.463,-57.5001 744.463,-50.5001"/>
</g>
<!-- Node8 -->
<g id="node8" class="node"><title>Node8</title>
<g id="a_node8"><a xlink:href="classH17Disk.html#a29f4d35fba24f0d9cee37bcb02120a6c" target="_top" xlink:title="H17Disk::validateBlock">
<polygon fill="white" stroke="black" points="942,-44.5 942,-63.5 1061,-63.5 1061,-44.5 942,-44.5"/>
<text text-anchor="middle" x="1001.5" y="-51.5" font-family="Helvetica,sans-Serif" font-size="10.00">H17Disk::validateBlock</text>
</a>
</g>
</g>
<!-- Node7&#45;&gt;Node8 -->
<g id="edge7" class="edge"><title>Node7&#45;&gt;Node8</title>
<path fill="none" stroke="midnightblue" d="M916.178,-54C924.815,-54 933.507,-54 941.857,-54"/>
<polygon fill="midnightblue" stroke="midnightblue" points="916.088,-50.5001 906.088,-54 916.087,-57.5001 916.088,-50.5001"/>
</g>
<!-- Node9 -->
<g id="node9" class="node"><title>Node9</title>
<g id="a_node9"><a xlink:href="classH17Disk.html#ada058d8b970b4e72569e2fe000817f75" target="_top" xlink:title="H17Disk::decodeBuffer">
<polygon fill="white" stroke="black" points="1097,-44.5 1097,-63.5 1216,-63.5 1216,-44.5 1097,-44.5"/>
<text text-anchor="middle" x="1156.5" y="-51.5" font-family="Helvetica,sans-Serif" font-size="10.00">H17Disk::decodeBuffer</text>
</a>
</g>
</g>
<!-- Node8&#45;&gt;Node9 -->
<g id="edge8" class="edge"><title>Node8&#45;&gt;Node9</title>
<path fill="none" stroke="midnightblue" d="M1071.49,-54C1079.99,-54 1088.62,-54 1096.94,-54"/>
<polygon fill="midnightblue" stroke="midnightblue" points="1071.22,-50.5001 1061.22,-54 1071.22,-57.5001 1071.22,-50.5001"/>
</g>
<!-- Node10 -->
<g id="node10" class="node"><title>Node10</title>
<g id="a_node10"><a xlink:href="classH17Disk.html#a503d2a03bfe0f9bbe3a8bd8dc7d2ec17" target="_top" xlink:title="H17Disk::decodeFile">
<polygon fill="white" stroke="black" points="1252,-44.5 1252,-63.5 1360,-63.5 1360,-44.5 1252,-44.5"/>
<text text-anchor="middle" x="1306" y="-51.5" font-family="Helvetica,sans-Serif" font-size="10.00">H17Disk::decodeFile</text>
</a>
</g>
</g>
<!-- Node9&#45;&gt;Node10 -->
<g id="edge9" class="edge"><title>Node9&#45;&gt;Node10</title>
<path fill="none" stroke="midnightblue" d="M1226.49,-54C1234.98,-54 1243.54,-54 1251.74,-54"/>
<polygon fill="midnightblue" stroke="midnightblue" points="1226.22,-50.5001 1216.22,-54 1226.22,-57.5001 1226.22,-50.5001"/>
</g>
</g>
</svg>
