<?xml version="1.0" encoding="UTF-8" standalone="no"?>
<!DOCTYPE svg PUBLIC "-//W3C//DTD SVG 1.1//EN"
 "http://www.w3.org/Graphics/SVG/1.1/DTD/svg11.dtd">
<!-- Generated by graphviz version 2.38.0 (20140413.2041)
 -->
<!-- Title: disk_util.h Pages: 1 -->
<svg width="340pt" height="84pt"
 viewBox="0.00 0.00 339.50 84.00" xmlns="http://www.w3.org/2000/svg" xmlns:xlink="http://www.w3.org/1999/xlink">
<g id="graph0" class="graph" transform="scale(1 1) rotate(0) translate(4 80)">
<title>disk_util.h</title>
<polygon fill="white" stroke="none" points="-4,4 -4,-80 335.5,-80 335.5,4 -4,4"/>
<!-- Node1 -->
<g id="node1" class="node"><title>Node1</title>
<polygon fill="#bfbfbf" stroke="black" points="138,-56.5 138,-75.5 199,-75.5 199,-56.5 138,-56.5"/>
<text text-anchor="middle" x="168.5" y="-63.5" font-family="Helvetica,sans-Serif" font-size="10.00">disk_util.h</text>
</g>
<!-- Node2 -->
<g id="node2" class="node"><title>Node2</title>
<g id="a_node2"><a xlink:href="disk__util_8cpp.html" target="_top" xlink:title="disk_util.cpp">
<polygon fill="white" stroke="black" points="0,-0.5 0,-19.5 71,-19.5 71,-0.5 0,-0.5"/>
<text text-anchor="middle" x="35.5" y="-7.5" font-family="Helvetica,sans-Serif" font-size="10.00">disk_util.cpp</text>
</a>
</g>
</g>
<!-- Node1&#45;&gt;Node2 -->
<g id="edge1" class="edge"><title>Node1&#45;&gt;Node2</title>
<path fill="none" stroke="midnightblue" d="M138.052,-52.6377C113.093,-42.504 78.4231,-28.4274 56.4756,-19.5164"/>
<polygon fill="midnightblue" stroke="midnightblue" points="136.844,-55.9245 147.426,-56.4435 139.477,-49.4387 136.844,-55.9245"/>
</g>
<!-- Node3 -->
<g id="node3" class="node"><title>Node3</title>
<g id="a_node3"><a xlink:href="h17disk_8cpp.html" target="_top" xlink:title="h17disk.cpp">
<polygon fill="white" stroke="black" points="89,-0.5 89,-19.5 158,-19.5 158,-0.5 89,-0.5"/>
<text text-anchor="middle" x="123.5" y="-7.5" font-family="Helvetica,sans-Serif" font-size="10.00">h17disk.cpp</text>
</a>
</g>
</g>
<!-- Node1&#45;&gt;Node3 -->
<g id="edge2" class="edge"><title>Node1&#45;&gt;Node3</title>
<path fill="none" stroke="midnightblue" d="M154.453,-48.144C146.613,-38.7357 137.171,-27.4046 130.793,-19.7511"/>
<polygon fill="midnightblue" stroke="midnightblue" points="151.979,-50.6414 161.069,-56.083 157.356,-46.1601 151.979,-50.6414"/>
</g>
<!-- Node4 -->
<g id="node4" class="node"><title>Node4</title>
<g id="a_node4"><a xlink:href="heath__hs_8cpp.html" target="_top" xlink:title="heath_hs.cpp">
<polygon fill="white" stroke="black" points="176,-0.5 176,-19.5 251,-19.5 251,-0.5 176,-0.5"/>
<text text-anchor="middle" x="213.5" y="-7.5" font-family="Helvetica,sans-Serif" font-size="10.00">heath_hs.cpp</text>
</a>
</g>
</g>
<!-- Node1&#45;&gt;Node4 -->
<g id="edge3" class="edge"><title>Node1&#45;&gt;Node4</title>
<path fill="none" stroke="midnightblue" d="M182.547,-48.144C190.387,-38.7357 199.829,-27.4046 206.207,-19.7511"/>
<polygon fill="midnightblue" stroke="midnightblue" points="179.644,-46.1601 175.931,-56.083 185.021,-50.6414 179.644,-46.1601"/>
</g>
<!-- Node5 -->
<g id="node5" class="node"><title>Node5</title>
<g id="a_node5"><a xlink:href="sector_8cpp.html" target="_top" xlink:title="sector.cpp">
<polygon fill="white" stroke="black" points="269.5,-0.5 269.5,-19.5 331.5,-19.5 331.5,-0.5 269.5,-0.5"/>
<text text-anchor="middle" x="300.5" y="-7.5" font-family="Helvetica,sans-Serif" font-size="10.00">sector.cpp</text>
</a>
</g>
</g>
<!-- Node1&#45;&gt;Node5 -->
<g id="edge4" class="edge"><title>Node1&#45;&gt;Node5</title>
<path fill="none" stroke="midnightblue" d="M198.719,-52.6377C223.49,-42.504 257.9,-28.4274 279.682,-19.5164"/>
<polygon fill="midnightblue" stroke="midnightblue" points="197.346,-49.4177 189.416,-56.4435 199.997,-55.8966 197.346,-49.4177"/>
</g>
</g>
</svg>
