<?xml version="1.0" encoding="UTF-8" standalone="no"?>
<!DOCTYPE svg PUBLIC "-//W3C//DTD SVG 1.1//EN"
 "http://www.w3.org/Graphics/SVG/1.1/DTD/svg11.dtd">
<!-- Generated by graphviz version 2.38.0 (20140413.2041)
 -->
<!-- Title: shiftByte Pages: 1 -->
<svg width="1262pt" height="78pt"
 viewBox="0.00 0.00 1262.00 77.50" xmlns="http://www.w3.org/2000/svg" xmlns:xlink="http://www.w3.org/1999/xlink">
<g id="graph0" class="graph" transform="scale(1 1) rotate(0) translate(4 73.5)">
<title>shiftByte</title>
<polygon fill="white" stroke="none" points="-4,4 -4,-73.5 1258,-73.5 1258,4 -4,4"/>
<!-- Node1 -->
<g id="node1" class="node"><title>Node1</title>
<polygon fill="#bfbfbf" stroke="black" points="0,-22.5 0,-41.5 56,-41.5 56,-22.5 0,-22.5"/>
<text text-anchor="middle" x="28" y="-29.5" font-family="Helvetica,sans-Serif" font-size="10.00">shiftByte</text>
</g>
<!-- Node2 -->
<g id="node2" class="node"><title>Node2</title>
<g id="a_node2"><a xlink:href="disk__util_8h.html#ab8a7dd8f773ae75ecfca3828e48c0308" target="_top" xlink:title="alignSector">
<polygon fill="white" stroke="black" points="92,-22.5 92,-41.5 157,-41.5 157,-22.5 92,-22.5"/>
<text text-anchor="middle" x="124.5" y="-29.5" font-family="Helvetica,sans-Serif" font-size="10.00">alignSector</text>
</a>
</g>
</g>
<!-- Node1&#45;&gt;Node2 -->
<g id="edge1" class="edge"><title>Node1&#45;&gt;Node2</title>
<path fill="none" stroke="midnightblue" d="M66.1109,-32C74.584,-32 83.5136,-32 91.7391,-32"/>
<polygon fill="midnightblue" stroke="midnightblue" points="66.0799,-28.5001 56.0799,-32 66.0799,-35.5001 66.0799,-28.5001"/>
</g>
<!-- Node3 -->
<g id="node3" class="node"><title>Node3</title>
<g id="a_node3"><a xlink:href="disk__util_8h.html#a6ca0336006e5d440e0adca49fe90a8bd" target="_top" xlink:title="processSector">
<polygon fill="white" stroke="black" points="193,-22.5 193,-41.5 273,-41.5 273,-22.5 193,-22.5"/>
<text text-anchor="middle" x="233" y="-29.5" font-family="Helvetica,sans-Serif" font-size="10.00">processSector</text>
</a>
</g>
</g>
<!-- Node2&#45;&gt;Node3 -->
<g id="edge2" class="edge"><title>Node2&#45;&gt;Node3</title>
<path fill="none" stroke="midnightblue" d="M167.441,-32C175.769,-32 184.483,-32 192.718,-32"/>
<polygon fill="midnightblue" stroke="midnightblue" points="167.165,-28.5001 157.165,-32 167.165,-35.5001 167.165,-28.5001"/>
</g>
<!-- Node4 -->
<g id="node4" class="node"><title>Node4</title>
<g id="a_node4"><a xlink:href="classH17Disk.html#a60b9074cacd5a89f4b8e8dfb37bccf08" target="_top" xlink:title="H17Disk::validateRawSector\lBlock">
<polygon fill="white" stroke="black" points="309,-39 309,-69 452,-69 452,-39 309,-39"/>
<text text-anchor="start" x="317" y="-57" font-family="Helvetica,sans-Serif" font-size="10.00">H17Disk::validateRawSector</text>
<text text-anchor="middle" x="380.5" y="-46" font-family="Helvetica,sans-Serif" font-size="10.00">Block</text>
</a>
</g>
</g>
<!-- Node3&#45;&gt;Node4 -->
<g id="edge3" class="edge"><title>Node3&#45;&gt;Node4</title>
<path fill="none" stroke="midnightblue" d="M283.502,-39.4849C291.713,-40.7264 300.366,-42.0347 308.977,-43.3367"/>
<polygon fill="midnightblue" stroke="midnightblue" points="283.785,-35.988 273.374,-37.9535 282.739,-42.9093 283.785,-35.988"/>
</g>
<!-- Node10 -->
<g id="node10" class="node"><title>Node10</title>
<g id="a_node10"><a xlink:href="classHeathHSDisk.html#aacdbaa5d65b123852e743f2579f38cda" target="_top" xlink:title="HeathHSDisk::readSector">
<polygon fill="white" stroke="black" points="315,-0.5 315,-19.5 446,-19.5 446,-0.5 315,-0.5"/>
<text text-anchor="middle" x="380.5" y="-7.5" font-family="Helvetica,sans-Serif" font-size="10.00">HeathHSDisk::readSector</text>
</a>
</g>
</g>
<!-- Node3&#45;&gt;Node10 -->
<g id="edge9" class="edge"><title>Node3&#45;&gt;Node10</title>
<path fill="none" stroke="midnightblue" d="M283.335,-24.5404C294.001,-22.9277 305.418,-21.2013 316.526,-19.5218"/>
<polygon fill="midnightblue" stroke="midnightblue" points="282.739,-21.0907 273.374,-26.0465 283.785,-28.012 282.739,-21.0907"/>
</g>
<!-- Node5 -->
<g id="node5" class="node"><title>Node5</title>
<g id="a_node5"><a xlink:href="classH17Disk.html#a8f0fa7dbd52e633a2faa267e453cc486" target="_top" xlink:title="H17Disk::validateRawTrack\lBlock">
<polygon fill="white" stroke="black" points="488,-39 488,-69 628,-69 628,-39 488,-39"/>
<text text-anchor="start" x="496" y="-57" font-family="Helvetica,sans-Serif" font-size="10.00">H17Disk::validateRawTrack</text>
<text text-anchor="middle" x="558" y="-46" font-family="Helvetica,sans-Serif" font-size="10.00">Block</text>
</a>
</g>
</g>
<!-- Node4&#45;&gt;Node5 -->
<g id="edge4" class="edge"><title>Node4&#45;&gt;Node5</title>
<path fill="none" stroke="midnightblue" d="M462.171,-54C470.783,-54 479.487,-54 487.947,-54"/>
<polygon fill="midnightblue" stroke="midnightblue" points="462.124,-50.5001 452.124,-54 462.124,-57.5001 462.124,-50.5001"/>
</g>
<!-- Node6 -->
<g id="node6" class="node"><title>Node6</title>
<g id="a_node6"><a xlink:href="classH17Disk.html#ae1f57f11daa4d4c624d255851838d704" target="_top" xlink:title="H17Disk::validateRawData\lBlock">
<polygon fill="white" stroke="black" points="664,-39 664,-69 800,-69 800,-39 664,-39"/>
<text text-anchor="start" x="672" y="-57" font-family="Helvetica,sans-Serif" font-size="10.00">H17Disk::validateRawData</text>
<text text-anchor="middle" x="732" y="-46" font-family="Helvetica,sans-Serif" font-size="10.00">Block</text>
</a>
</g>
</g>
<!-- Node5&#45;&gt;Node6 -->
<g id="edge5" class="edge"><title>Node5&#45;&gt;Node6</title>
<path fill="none" stroke="midnightblue" d="M638.654,-54C647.059,-54 655.545,-54 663.789,-54"/>
<polygon fill="midnightblue" stroke="midnightblue" points="638.463,-50.5001 628.463,-54 638.463,-57.5001 638.463,-50.5001"/>
</g>
<!-- Node7 -->
<g id="node7" class="node"><title>Node7</title>
<g id="a_node7"><a xlink:href="classH17Disk.html#a29f4d35fba24f0d9cee37bcb02120a6c" target="_top" xlink:title="H17Disk::validateBlock">
<polygon fill="white" stroke="black" points="836,-44.5 836,-63.5 955,-63.5 955,-44.5 836,-44.5"/>
<text text-anchor="middle" x="895.5" y="-51.5" font-family="Helvetica,sans-Serif" font-size="10.00">H17Disk::validateBlock</text>
</a>
</g>
</g>
<!-- Node6&#45;&gt;Node7 -->
<g id="edge6" class="edge"><title>Node6&#45;&gt;Node7</title>
<path fill="none" stroke="midnightblue" d="M810.178,-54C818.815,-54 827.507,-54 835.857,-54"/>
<polygon fill="midnightblue" stroke="midnightblue" points="810.088,-50.5001 800.088,-54 810.087,-57.5001 810.088,-50.5001"/>
</g>
<!-- Node8 -->
<g id="node8" class="node"><title>Node8</title>
<g id="a_node8"><a xlink:href="classH17Disk.html#ada058d8b970b4e72569e2fe000817f75" target="_top" xlink:title="H17Disk::decodeBuffer">
<polygon fill="white" stroke="black" points="991,-44.5 991,-63.5 1110,-63.5 1110,-44.5 991,-44.5"/>
<text text-anchor="middle" x="1050.5" y="-51.5" font-family="Helvetica,sans-Serif" font-size="10.00">H17Disk::decodeBuffer</text>
</a>
</g>
</g>
<!-- Node7&#45;&gt;Node8 -->
<g id="edge7" class="edge"><title>Node7&#45;&gt;Node8</title>
<path fill="none" stroke="midnightblue" d="M965.493,-54C973.993,-54 982.617,-54 990.941,-54"/>
<polygon fill="midnightblue" stroke="midnightblue" points="965.216,-50.5001 955.216,-54 965.216,-57.5001 965.216,-50.5001"/>
</g>
<!-- Node9 -->
<g id="node9" class="node"><title>Node9</title>
<g id="a_node9"><a xlink:href="classH17Disk.html#a503d2a03bfe0f9bbe3a8bd8dc7d2ec17" target="_top" xlink:title="H17Disk::decodeFile">
<polygon fill="white" stroke="black" points="1146,-44.5 1146,-63.5 1254,-63.5 1254,-44.5 1146,-44.5"/>
<text text-anchor="middle" x="1200" y="-51.5" font-family="Helvetica,sans-Serif" font-size="10.00">H17Disk::decodeFile</text>
</a>
</g>
</g>
<!-- Node8&#45;&gt;Node9 -->
<g id="edge8" class="edge"><title>Node8&#45;&gt;Node9</title>
<path fill="none" stroke="midnightblue" d="M1120.49,-54C1128.98,-54 1137.54,-54 1145.74,-54"/>
<polygon fill="midnightblue" stroke="midnightblue" points="1120.22,-50.5001 1110.22,-54 1120.22,-57.5001 1120.22,-50.5001"/>
</g>
</g>
</svg>
