<?xml version="1.0" encoding="UTF-8" standalone="no"?>
<!DOCTYPE svg PUBLIC "-//W3C//DTD SVG 1.1//EN"
 "http://www.w3.org/Graphics/SVG/1.1/DTD/svg11.dtd">
<!-- Generated by graphviz version 2.38.0 (20140413.2041)
 -->
<!-- Title: processSector Pages: 1 -->
<svg width="1069pt" height="78pt"
 viewBox="0.00 0.00 1069.00 77.50" xmlns="http://www.w3.org/2000/svg" xmlns:xlink="http://www.w3.org/1999/xlink">
<g id="graph0" class="graph" transform="scale(1 1) rotate(0) translate(4 73.5)">
<title>processSector</title>
<polygon fill="white" stroke="none" points="-4,4 -4,-73.5 1065,-73.5 1065,4 -4,4"/>
<!-- Node1 -->
<g id="node1" class="node"><title>Node1</title>
<polygon fill="#bfbfbf" stroke="black" points="0,-22.5 0,-41.5 80,-41.5 80,-22.5 0,-22.5"/>
<text text-anchor="middle" x="40" y="-29.5" font-family="Helvetica,sans-Serif" font-size="10.00">processSector</text>
</g>
<!-- Node2 -->
<g id="node2" class="node"><title>Node2</title>
<g id="a_node2"><a xlink:href="classH17Disk.html#a60b9074cacd5a89f4b8e8dfb37bccf08" target="_top" xlink:title="H17Disk::validateRawSector\lBlock">
<polygon fill="white" stroke="black" points="116,-39 116,-69 259,-69 259,-39 116,-39"/>
<text text-anchor="start" x="124" y="-57" font-family="Helvetica,sans-Serif" font-size="10.00">H17Disk::validateRawSector</text>
<text text-anchor="middle" x="187.5" y="-46" font-family="Helvetica,sans-Serif" font-size="10.00">Block</text>
</a>
</g>
</g>
<!-- Node1&#45;&gt;Node2 -->
<g id="edge1" class="edge"><title>Node1&#45;&gt;Node2</title>
<path fill="none" stroke="midnightblue" d="M90.5025,-39.4849C98.7135,-40.7264 107.366,-42.0347 115.977,-43.3367"/>
<polygon fill="midnightblue" stroke="midnightblue" points="90.7853,-35.988 80.3744,-37.9535 89.7387,-42.9093 90.7853,-35.988"/>
</g>
<!-- Node8 -->
<g id="node8" class="node"><title>Node8</title>
<g id="a_node8"><a xlink:href="classHeathHSDisk.html#aacdbaa5d65b123852e743f2579f38cda" target="_top" xlink:title="HeathHSDisk::readSector">
<polygon fill="white" stroke="black" points="122,-0.5 122,-19.5 253,-19.5 253,-0.5 122,-0.5"/>
<text text-anchor="middle" x="187.5" y="-7.5" font-family="Helvetica,sans-Serif" font-size="10.00">HeathHSDisk::readSector</text>
</a>
</g>
</g>
<!-- Node1&#45;&gt;Node8 -->
<g id="edge7" class="edge"><title>Node1&#45;&gt;Node8</title>
<path fill="none" stroke="midnightblue" d="M90.3354,-24.5404C101.001,-22.9277 112.418,-21.2013 123.526,-19.5218"/>
<polygon fill="midnightblue" stroke="midnightblue" points="89.7387,-21.0907 80.3744,-26.0465 90.7853,-28.012 89.7387,-21.0907"/>
</g>
<!-- Node3 -->
<g id="node3" class="node"><title>Node3</title>
<g id="a_node3"><a xlink:href="classH17Disk.html#a8f0fa7dbd52e633a2faa267e453cc486" target="_top" xlink:title="H17Disk::validateRawTrack\lBlock">
<polygon fill="white" stroke="black" points="295,-39 295,-69 435,-69 435,-39 295,-39"/>
<text text-anchor="start" x="303" y="-57" font-family="Helvetica,sans-Serif" font-size="10.00">H17Disk::validateRawTrack</text>
<text text-anchor="middle" x="365" y="-46" font-family="Helvetica,sans-Serif" font-size="10.00">Block</text>
</a>
</g>
</g>
<!-- Node2&#45;&gt;Node3 -->
<g id="edge2" class="edge"><title>Node2&#45;&gt;Node3</title>
<path fill="none" stroke="midnightblue" d="M269.171,-54C277.783,-54 286.487,-54 294.947,-54"/>
<polygon fill="midnightblue" stroke="midnightblue" points="269.124,-50.5001 259.124,-54 269.124,-57.5001 269.124,-50.5001"/>
</g>
<!-- Node4 -->
<g id="node4" class="node"><title>Node4</title>
<g id="a_node4"><a xlink:href="classH17Disk.html#ae1f57f11daa4d4c624d255851838d704" target="_top" xlink:title="H17Disk::validateRawData\lBlock">
<polygon fill="white" stroke="black" points="471,-39 471,-69 607,-69 607,-39 471,-39"/>
<text text-anchor="start" x="479" y="-57" font-family="Helvetica,sans-Serif" font-size="10.00">H17Disk::validateRawData</text>
<text text-anchor="middle" x="539" y="-46" font-family="Helvetica,sans-Serif" font-size="10.00">Block</text>
</a>
</g>
</g>
<!-- Node3&#45;&gt;Node4 -->
<g id="edge3" class="edge"><title>Node3&#45;&gt;Node4</title>
<path fill="none" stroke="midnightblue" d="M445.654,-54C454.059,-54 462.545,-54 470.789,-54"/>
<polygon fill="midnightblue" stroke="midnightblue" points="445.463,-50.5001 435.463,-54 445.463,-57.5001 445.463,-50.5001"/>
</g>
<!-- Node5 -->
<g id="node5" class="node"><title>Node5</title>
<g id="a_node5"><a xlink:href="classH17Disk.html#a29f4d35fba24f0d9cee37bcb02120a6c" target="_top" xlink:title="H17Disk::validateBlock">
<polygon fill="white" stroke="black" points="643,-44.5 643,-63.5 762,-63.5 762,-44.5 643,-44.5"/>
<text text-anchor="middle" x="702.5" y="-51.5" font-family="Helvetica,sans-Serif" font-size="10.00">H17Disk::validateBlock</text>
</a>
</g>
</g>
<!-- Node4&#45;&gt;Node5 -->
<g id="edge4" class="edge"><title>Node4&#45;&gt;Node5</title>
<path fill="none" stroke="midnightblue" d="M617.178,-54C625.815,-54 634.507,-54 642.857,-54"/>
<polygon fill="midnightblue" stroke="midnightblue" points="617.088,-50.5001 607.088,-54 617.087,-57.5001 617.088,-50.5001"/>
</g>
<!-- Node6 -->
<g id="node6" class="node"><title>Node6</title>
<g id="a_node6"><a xlink:href="classH17Disk.html#ada058d8b970b4e72569e2fe000817f75" target="_top" xlink:title="H17Disk::decodeBuffer">
<polygon fill="white" stroke="black" points="798,-44.5 798,-63.5 917,-63.5 917,-44.5 798,-44.5"/>
<text text-anchor="middle" x="857.5" y="-51.5" font-family="Helvetica,sans-Serif" font-size="10.00">H17Disk::decodeBuffer</text>
</a>
</g>
</g>
<!-- Node5&#45;&gt;Node6 -->
<g id="edge5" class="edge"><title>Node5&#45;&gt;Node6</title>
<path fill="none" stroke="midnightblue" d="M772.493,-54C780.993,-54 789.617,-54 797.941,-54"/>
<polygon fill="midnightblue" stroke="midnightblue" points="772.216,-50.5001 762.216,-54 772.216,-57.5001 772.216,-50.5001"/>
</g>
<!-- Node7 -->
<g id="node7" class="node"><title>Node7</title>
<g id="a_node7"><a xlink:href="classH17Disk.html#a503d2a03bfe0f9bbe3a8bd8dc7d2ec17" target="_top" xlink:title="H17Disk::decodeFile">
<polygon fill="white" stroke="black" points="953,-44.5 953,-63.5 1061,-63.5 1061,-44.5 953,-44.5"/>
<text text-anchor="middle" x="1007" y="-51.5" font-family="Helvetica,sans-Serif" font-size="10.00">H17Disk::decodeFile</text>
</a>
</g>
</g>
<!-- Node6&#45;&gt;Node7 -->
<g id="edge6" class="edge"><title>Node6&#45;&gt;Node7</title>
<path fill="none" stroke="midnightblue" d="M927.494,-54C935.976,-54 944.542,-54 952.741,-54"/>
<polygon fill="midnightblue" stroke="midnightblue" points="927.22,-50.5001 917.22,-54 927.22,-57.5001 927.22,-50.5001"/>
</g>
</g>
</svg>
