<?xml version="1.0" encoding="UTF-8" standalone="no"?>
<!DOCTYPE svg PUBLIC "-//W3C//DTD SVG 1.1//EN"
 "http://www.w3.org/Graphics/SVG/1.1/DTD/svg11.dtd">
<!-- Generated by graphviz version 2.38.0 (20140413.2041)
 -->
<!-- Title: disk.h Pages: 1 -->
<svg width="149pt" height="140pt"
 viewBox="0.00 0.00 149.00 140.00" xmlns="http://www.w3.org/2000/svg" xmlns:xlink="http://www.w3.org/1999/xlink">
<g id="graph0" class="graph" transform="scale(1 1) rotate(0) translate(4 136)">
<title>disk.h</title>
<polygon fill="white" stroke="none" points="-4,4 -4,-136 145,-136 145,4 -4,4"/>
<!-- Node1 -->
<g id="node1" class="node"><title>Node1</title>
<polygon fill="#bfbfbf" stroke="black" points="43,-112.5 43,-131.5 86,-131.5 86,-112.5 43,-112.5"/>
<text text-anchor="middle" x="64.5" y="-119.5" font-family="Helvetica,sans-Serif" font-size="10.00">disk.h</text>
</g>
<!-- Node2 -->
<g id="node2" class="node"><title>Node2</title>
<g id="a_node2"><a xlink:href="disk_8cpp.html" target="_top" xlink:title="disk.cpp">
<polygon fill="white" stroke="black" points="0,-56.5 0,-75.5 53,-75.5 53,-56.5 0,-56.5"/>
<text text-anchor="middle" x="26.5" y="-63.5" font-family="Helvetica,sans-Serif" font-size="10.00">disk.cpp</text>
</a>
</g>
</g>
<!-- Node1&#45;&gt;Node2 -->
<g id="edge1" class="edge"><title>Node1&#45;&gt;Node2</title>
<path fill="none" stroke="midnightblue" d="M52.4353,-103.855C45.8553,-94.5048 37.989,-83.3265 32.6582,-75.7511"/>
<polygon fill="midnightblue" stroke="midnightblue" points="49.6078,-105.919 58.2251,-112.083 55.3324,-101.891 49.6078,-105.919"/>
</g>
<!-- Node3 -->
<g id="node3" class="node"><title>Node3</title>
<g id="a_node3"><a xlink:href="heath__hs_8h.html" target="_top" xlink:title="heath_hs.h">
<polygon fill="white" stroke="black" points="71,-56.5 71,-75.5 136,-75.5 136,-56.5 71,-56.5"/>
<text text-anchor="middle" x="103.5" y="-63.5" font-family="Helvetica,sans-Serif" font-size="10.00">heath_hs.h</text>
</a>
</g>
</g>
<!-- Node1&#45;&gt;Node3 -->
<g id="edge2" class="edge"><title>Node1&#45;&gt;Node3</title>
<path fill="none" stroke="midnightblue" d="M76.8822,-103.855C83.6354,-94.5048 91.7086,-83.3265 97.1798,-75.7511"/>
<polygon fill="midnightblue" stroke="midnightblue" points="73.9576,-101.927 70.9401,-112.083 79.6324,-106.025 73.9576,-101.927"/>
</g>
<!-- Node4 -->
<g id="node4" class="node"><title>Node4</title>
<g id="a_node4"><a xlink:href="heath__hs_8cpp.html" target="_top" xlink:title="heath_hs.cpp">
<polygon fill="white" stroke="black" points="66,-0.5 66,-19.5 141,-19.5 141,-0.5 66,-0.5"/>
<text text-anchor="middle" x="103.5" y="-7.5" font-family="Helvetica,sans-Serif" font-size="10.00">heath_hs.cpp</text>
</a>
</g>
</g>
<!-- Node3&#45;&gt;Node4 -->
<g id="edge3" class="edge"><title>Node3&#45;&gt;Node4</title>
<path fill="none" stroke="midnightblue" d="M103.5,-45.8045C103.5,-36.9102 103.5,-26.7798 103.5,-19.7511"/>
<polygon fill="midnightblue" stroke="midnightblue" points="100,-46.083 103.5,-56.083 107,-46.083 100,-46.083"/>
</g>
</g>
</svg>
