<?xml version="1.0" encoding="UTF-8" standalone="no"?>
<!DOCTYPE svg PUBLIC "-//W3C//DTD SVG 1.1//EN"
 "http://www.w3.org/Graphics/SVG/1.1/DTD/svg11.dtd">
<!-- Generated by graphviz version 2.38.0 (20140413.2041)
 -->
<!-- Title: drive.cpp Pages: 1 -->
<svg width="385pt" height="140pt"
 viewBox="0.00 0.00 385.00 140.00" xmlns="http://www.w3.org/2000/svg" xmlns:xlink="http://www.w3.org/1999/xlink">
<g id="graph0" class="graph" transform="scale(1 1) rotate(0) translate(4 136)">
<title>drive.cpp</title>
<polygon fill="white" stroke="none" points="-4,4 -4,-136 381,-136 381,4 -4,4"/>
<!-- Node1 -->
<g id="node1" class="node"><title>Node1</title>
<polygon fill="#bfbfbf" stroke="black" points="193.5,-112.5 193.5,-131.5 249.5,-131.5 249.5,-112.5 193.5,-112.5"/>
<text text-anchor="middle" x="221.5" y="-119.5" font-family="Helvetica,sans-Serif" font-size="10.00">drive.cpp</text>
</g>
<!-- Node2 -->
<g id="node2" class="node"><title>Node2</title>
<g id="a_node2"><a xlink:href="drive_8h.html" target="_top" xlink:title="drive.h">
<polygon fill="white" stroke="black" points="61.5,-56.5 61.5,-75.5 107.5,-75.5 107.5,-56.5 61.5,-56.5"/>
<text text-anchor="middle" x="84.5" y="-63.5" font-family="Helvetica,sans-Serif" font-size="10.00">drive.h</text>
</a>
</g>
</g>
<!-- Node1&#45;&gt;Node2 -->
<g id="edge1" class="edge"><title>Node1&#45;&gt;Node2</title>
<path fill="none" stroke="midnightblue" d="M199.792,-112.444C177.145,-103.517 141.428,-89.4387 115.748,-79.3168"/>
<polygon fill="midnightblue" stroke="midnightblue" points="116.693,-75.9273 106.106,-75.5164 114.126,-82.4397 116.693,-75.9273"/>
</g>
<!-- Node5 -->
<g id="node5" class="node"><title>Node5</title>
<g id="a_node5"><a xlink:href="fc5025_8h.html" target="_top" xlink:title="fc5025.h">
<polygon fill="white" stroke="black" points="125.5,-56.5 125.5,-75.5 179.5,-75.5 179.5,-56.5 125.5,-56.5"/>
<text text-anchor="middle" x="152.5" y="-63.5" font-family="Helvetica,sans-Serif" font-size="10.00">fc5025.h</text>
</a>
</g>
</g>
<!-- Node1&#45;&gt;Node5 -->
<g id="edge4" class="edge"><title>Node1&#45;&gt;Node5</title>
<path fill="none" stroke="midnightblue" d="M210.414,-112.324C200.014,-104.185 184.239,-91.8395 171.778,-82.0874"/>
<polygon fill="midnightblue" stroke="midnightblue" points="173.82,-79.2407 163.788,-75.8339 169.506,-84.7533 173.82,-79.2407"/>
</g>
<!-- Node7 -->
<g id="node7" class="node"><title>Node7</title>
<polygon fill="white" stroke="#bfbfbf" points="197.5,-56.5 197.5,-75.5 245.5,-75.5 245.5,-56.5 197.5,-56.5"/>
<text text-anchor="middle" x="221.5" y="-63.5" font-family="Helvetica,sans-Serif" font-size="10.00">stdlib.h</text>
</g>
<!-- Node1&#45;&gt;Node7 -->
<g id="edge6" class="edge"><title>Node1&#45;&gt;Node7</title>
<path fill="none" stroke="midnightblue" d="M221.5,-112.083C221.5,-105.006 221.5,-94.8611 221.5,-85.9865"/>
<polygon fill="midnightblue" stroke="midnightblue" points="225,-85.751 221.5,-75.7511 218,-85.7511 225,-85.751"/>
</g>
<!-- Node8 -->
<g id="node8" class="node"><title>Node8</title>
<polygon fill="white" stroke="#bfbfbf" points="263.5,-56.5 263.5,-75.5 309.5,-75.5 309.5,-56.5 263.5,-56.5"/>
<text text-anchor="middle" x="286.5" y="-63.5" font-family="Helvetica,sans-Serif" font-size="10.00">stdio.h</text>
</g>
<!-- Node1&#45;&gt;Node8 -->
<g id="edge7" class="edge"><title>Node1&#45;&gt;Node8</title>
<path fill="none" stroke="midnightblue" d="M231.943,-112.324C241.646,-104.263 256.315,-92.0765 268,-82.3695"/>
<polygon fill="midnightblue" stroke="midnightblue" points="270.411,-84.9163 275.867,-75.8339 265.938,-79.532 270.411,-84.9163"/>
</g>
<!-- Node9 -->
<g id="node9" class="node"><title>Node9</title>
<polygon fill="white" stroke="#bfbfbf" points="328,-56.5 328,-75.5 377,-75.5 377,-56.5 328,-56.5"/>
<text text-anchor="middle" x="352.5" y="-63.5" font-family="Helvetica,sans-Serif" font-size="10.00">string.h</text>
</g>
<!-- Node1&#45;&gt;Node9 -->
<g id="edge8" class="edge"><title>Node1&#45;&gt;Node9</title>
<path fill="none" stroke="midnightblue" d="M242.257,-112.444C263.816,-103.557 297.763,-89.5632 322.294,-79.4514"/>
<polygon fill="midnightblue" stroke="midnightblue" points="323.928,-82.5634 331.84,-75.5164 321.261,-76.0917 323.928,-82.5634"/>
</g>
<!-- Node3 -->
<g id="node3" class="node"><title>Node3</title>
<polygon fill="white" stroke="#bfbfbf" points="0,-0.5 0,-19.5 49,-19.5 49,-0.5 0,-0.5"/>
<text text-anchor="middle" x="24.5" y="-7.5" font-family="Helvetica,sans-Serif" font-size="10.00">stdint.h</text>
</g>
<!-- Node2&#45;&gt;Node3 -->
<g id="edge2" class="edge"><title>Node2&#45;&gt;Node3</title>
<path fill="none" stroke="midnightblue" d="M74.86,-56.324C65.9904,-48.3414 52.6253,-36.3128 41.8921,-26.6529"/>
<polygon fill="midnightblue" stroke="midnightblue" points="44.0898,-23.922 34.3154,-19.8339 39.407,-29.1251 44.0898,-23.922"/>
</g>
<!-- Node4 -->
<g id="node4" class="node"><title>Node4</title>
<polygon fill="white" stroke="#bfbfbf" points="67,-0.5 67,-19.5 108,-19.5 108,-0.5 67,-0.5"/>
<text text-anchor="middle" x="87.5" y="-7.5" font-family="Helvetica,sans-Serif" font-size="10.00">usb.h</text>
</g>
<!-- Node2&#45;&gt;Node4 -->
<g id="edge3" class="edge"><title>Node2&#45;&gt;Node4</title>
<path fill="none" stroke="midnightblue" d="M84.9954,-56.083C85.3886,-49.0059 85.9522,-38.8611 86.4452,-29.9865"/>
<polygon fill="midnightblue" stroke="midnightblue" points="89.9536,-29.9299 87.0138,-19.7511 82.9644,-29.5415 89.9536,-29.9299"/>
</g>
<!-- Node6 -->
<g id="node6" class="node"><title>Node6</title>
<polygon fill="white" stroke="#bfbfbf" points="129.5,-0.5 129.5,-19.5 175.5,-19.5 175.5,-0.5 129.5,-0.5"/>
<text text-anchor="middle" x="152.5" y="-7.5" font-family="Helvetica,sans-Serif" font-size="10.00">cstdint</text>
</g>
<!-- Node5&#45;&gt;Node6 -->
<g id="edge5" class="edge"><title>Node5&#45;&gt;Node6</title>
<path fill="none" stroke="midnightblue" d="M152.5,-56.083C152.5,-49.0059 152.5,-38.8611 152.5,-29.9865"/>
<polygon fill="midnightblue" stroke="midnightblue" points="156,-29.751 152.5,-19.7511 149,-29.7511 156,-29.751"/>
</g>
</g>
</svg>
