<?xml version="1.0" encoding="UTF-8" standalone="no"?>
<!DOCTYPE svg PUBLIC "-//W3C//DTD SVG 1.1//EN"
 "http://www.w3.org/Graphics/SVG/1.1/DTD/svg11.dtd">
<!-- Generated by graphviz version 2.38.0 (20140413.2041)
 -->
<!-- Title: dump.cpp Pages: 1 -->
<svg width="183pt" height="140pt"
 viewBox="0.00 0.00 182.50 140.00" xmlns="http://www.w3.org/2000/svg" xmlns:xlink="http://www.w3.org/1999/xlink">
<g id="graph0" class="graph" transform="scale(1 1) rotate(0) translate(4 136)">
<title>dump.cpp</title>
<polygon fill="white" stroke="none" points="-4,4 -4,-136 178.5,-136 178.5,4 -4,4"/>
<!-- Node1 -->
<g id="node1" class="node"><title>Node1</title>
<polygon fill="#bfbfbf" stroke="black" points="59,-112.5 59,-131.5 118,-131.5 118,-112.5 59,-112.5"/>
<text text-anchor="middle" x="88.5" y="-119.5" font-family="Helvetica,sans-Serif" font-size="10.00">dump.cpp</text>
</g>
<!-- Node2 -->
<g id="node2" class="node"><title>Node2</title>
<g id="a_node2"><a xlink:href="dump_8h.html" target="_top" xlink:title="dump.h">
<polygon fill="white" stroke="black" points="0,-56.5 0,-75.5 49,-75.5 49,-56.5 0,-56.5"/>
<text text-anchor="middle" x="24.5" y="-63.5" font-family="Helvetica,sans-Serif" font-size="10.00">dump.h</text>
</a>
</g>
</g>
<!-- Node1&#45;&gt;Node2 -->
<g id="edge1" class="edge"><title>Node1&#45;&gt;Node2</title>
<path fill="none" stroke="midnightblue" d="M78.2173,-112.324C68.6637,-104.263 54.2203,-92.0765 42.7157,-82.3695"/>
<polygon fill="midnightblue" stroke="midnightblue" points="44.8698,-79.6076 34.9698,-75.8339 40.3557,-84.9577 44.8698,-79.6076"/>
</g>
<!-- Node4 -->
<g id="node4" class="node"><title>Node4</title>
<polygon fill="white" stroke="#bfbfbf" points="67,-56.5 67,-75.5 110,-75.5 110,-56.5 67,-56.5"/>
<text text-anchor="middle" x="88.5" y="-63.5" font-family="Helvetica,sans-Serif" font-size="10.00">cstdio</text>
</g>
<!-- Node1&#45;&gt;Node4 -->
<g id="edge3" class="edge"><title>Node1&#45;&gt;Node4</title>
<path fill="none" stroke="midnightblue" d="M88.5,-112.083C88.5,-105.006 88.5,-94.8611 88.5,-85.9865"/>
<polygon fill="midnightblue" stroke="midnightblue" points="92.0001,-85.751 88.5,-75.7511 85.0001,-85.7511 92.0001,-85.751"/>
</g>
<!-- Node5 -->
<g id="node5" class="node"><title>Node5</title>
<polygon fill="white" stroke="#bfbfbf" points="128.5,-56.5 128.5,-75.5 174.5,-75.5 174.5,-56.5 128.5,-56.5"/>
<text text-anchor="middle" x="151.5" y="-63.5" font-family="Helvetica,sans-Serif" font-size="10.00">cctype</text>
</g>
<!-- Node1&#45;&gt;Node5 -->
<g id="edge4" class="edge"><title>Node1&#45;&gt;Node5</title>
<path fill="none" stroke="midnightblue" d="M98.622,-112.324C108.026,-104.263 122.244,-92.0765 133.569,-82.3695"/>
<polygon fill="midnightblue" stroke="midnightblue" points="135.879,-84.9993 141.194,-75.8339 131.323,-79.6844 135.879,-84.9993"/>
</g>
<!-- Node3 -->
<g id="node3" class="node"><title>Node3</title>
<polygon fill="white" stroke="#bfbfbf" points="1.5,-0.5 1.5,-19.5 47.5,-19.5 47.5,-0.5 1.5,-0.5"/>
<text text-anchor="middle" x="24.5" y="-7.5" font-family="Helvetica,sans-Serif" font-size="10.00">cstdint</text>
</g>
<!-- Node2&#45;&gt;Node3 -->
<g id="edge2" class="edge"><title>Node2&#45;&gt;Node3</title>
<path fill="none" stroke="midnightblue" d="M24.5,-56.083C24.5,-49.0059 24.5,-38.8611 24.5,-29.9865"/>
<polygon fill="midnightblue" stroke="midnightblue" points="28.0001,-29.751 24.5,-19.7511 21.0001,-29.7511 28.0001,-29.751"/>
</g>
</g>
</svg>
