<?xml version="1.0" encoding="UTF-8" standalone="no"?>
<!DOCTYPE svg PUBLIC "-//W3C//DTD SVG 1.1//EN"
 "http://www.w3.org/Graphics/SVG/1.1/DTD/svg11.dtd">
<!-- Generated by graphviz version 2.38.0 (20140413.2041)
 -->
<!-- Title: dump.h Pages: 1 -->
<svg width="247pt" height="84pt"
 viewBox="0.00 0.00 247.00 84.00" xmlns="http://www.w3.org/2000/svg" xmlns:xlink="http://www.w3.org/1999/xlink">
<g id="graph0" class="graph" transform="scale(1 1) rotate(0) translate(4 80)">
<title>dump.h</title>
<polygon fill="white" stroke="none" points="-4,4 -4,-80 243,-80 243,4 -4,4"/>
<!-- Node1 -->
<g id="node1" class="node"><title>Node1</title>
<polygon fill="#bfbfbf" stroke="black" points="90,-56.5 90,-75.5 139,-75.5 139,-56.5 90,-56.5"/>
<text text-anchor="middle" x="114.5" y="-63.5" font-family="Helvetica,sans-Serif" font-size="10.00">dump.h</text>
</g>
<!-- Node2 -->
<g id="node2" class="node"><title>Node2</title>
<g id="a_node2"><a xlink:href="dump_8cpp.html" target="_top" xlink:title="dump.cpp">
<polygon fill="white" stroke="black" points="0,-0.5 0,-19.5 59,-19.5 59,-0.5 0,-0.5"/>
<text text-anchor="middle" x="29.5" y="-7.5" font-family="Helvetica,sans-Serif" font-size="10.00">dump.cpp</text>
</a>
</g>
</g>
<!-- Node1&#45;&gt;Node2 -->
<g id="edge1" class="edge"><title>Node1&#45;&gt;Node2</title>
<path fill="none" stroke="midnightblue" d="M92.3064,-50.9005C76.72,-40.9986 56.3703,-28.0705 43.1228,-19.6545"/>
<polygon fill="midnightblue" stroke="midnightblue" points="90.5257,-53.9158 100.843,-56.324 94.2794,-48.0073 90.5257,-53.9158"/>
</g>
<!-- Node3 -->
<g id="node3" class="node"><title>Node3</title>
<g id="a_node3"><a xlink:href="h17block_8cpp.html" target="_top" xlink:title="h17block.cpp">
<polygon fill="white" stroke="black" points="77.5,-0.5 77.5,-19.5 151.5,-19.5 151.5,-0.5 77.5,-0.5"/>
<text text-anchor="middle" x="114.5" y="-7.5" font-family="Helvetica,sans-Serif" font-size="10.00">h17block.cpp</text>
</a>
</g>
</g>
<!-- Node1&#45;&gt;Node3 -->
<g id="edge2" class="edge"><title>Node1&#45;&gt;Node3</title>
<path fill="none" stroke="midnightblue" d="M114.5,-45.8045C114.5,-36.9102 114.5,-26.7798 114.5,-19.7511"/>
<polygon fill="midnightblue" stroke="midnightblue" points="111,-46.083 114.5,-56.083 118,-46.083 111,-46.083"/>
</g>
<!-- Node4 -->
<g id="node4" class="node"><title>Node4</title>
<g id="a_node4"><a xlink:href="h17disk_8cpp.html" target="_top" xlink:title="h17disk.cpp">
<polygon fill="white" stroke="black" points="170,-0.5 170,-19.5 239,-19.5 239,-0.5 170,-0.5"/>
<text text-anchor="middle" x="204.5" y="-7.5" font-family="Helvetica,sans-Serif" font-size="10.00">h17disk.cpp</text>
</a>
</g>
</g>
<!-- Node1&#45;&gt;Node4 -->
<g id="edge3" class="edge"><title>Node1&#45;&gt;Node4</title>
<path fill="none" stroke="midnightblue" d="M137.538,-51.1774C154.099,-41.2407 175.918,-28.1492 190.076,-19.6545"/>
<polygon fill="midnightblue" stroke="midnightblue" points="135.734,-48.1777 128.96,-56.324 139.336,-54.1802 135.734,-48.1777"/>
</g>
</g>
</svg>
