<?xml version="1.0" encoding="UTF-8" standalone="no"?>
<!DOCTYPE svg PUBLIC "-//W3C//DTD SVG 1.1//EN"
 "http://www.w3.org/Graphics/SVG/1.1/DTD/svg11.dtd">
<!-- Generated by graphviz version 2.38.0 (20140413.2041)
 -->
<!-- Title: dumpDataBlock Pages: 1 -->
<svg width="1075pt" height="78pt"
 viewBox="0.00 0.00 1075.00 77.50" xmlns="http://www.w3.org/2000/svg" xmlns:xlink="http://www.w3.org/1999/xlink">
<g id="graph0" class="graph" transform="scale(1 1) rotate(0) translate(4 73.5)">
<title>dumpDataBlock</title>
<polygon fill="white" stroke="none" points="-4,4 -4,-73.5 1071,-73.5 1071,4 -4,4"/>
<!-- Node1 -->
<g id="node1" class="node"><title>Node1</title>
<polygon fill="#bfbfbf" stroke="black" points="0,-28 0,-47 86,-47 86,-28 0,-28"/>
<text text-anchor="middle" x="43" y="-35" font-family="Helvetica,sans-Serif" font-size="10.00">dumpDataBlock</text>
</g>
<!-- Node2 -->
<g id="node2" class="node"><title>Node2</title>
<g id="a_node2"><a xlink:href="classH17Block.html#ac17cf2a0e1699277192063e13bee30b1" target="_top" xlink:title="H17Block::dump">
<polygon fill="white" stroke="black" points="149,-50 149,-69 238,-69 238,-50 149,-50"/>
<text text-anchor="middle" x="193.5" y="-57" font-family="Helvetica,sans-Serif" font-size="10.00">H17Block::dump</text>
</a>
</g>
</g>
<!-- Node1&#45;&gt;Node2 -->
<g id="edge1" class="edge"><title>Node1&#45;&gt;Node2</title>
<path fill="none" stroke="midnightblue" d="M96.0891,-45.2169C113.358,-47.7753 132.388,-50.5944 148.945,-53.0475"/>
<polygon fill="midnightblue" stroke="midnightblue" points="96.5619,-41.7488 86.1569,-43.7455 95.536,-48.6733 96.5619,-41.7488"/>
</g>
<!-- Node3 -->
<g id="node3" class="node"><title>Node3</title>
<g id="a_node3"><a xlink:href="classH17Disk.html#a60b9074cacd5a89f4b8e8dfb37bccf08" target="_top" xlink:title="H17Disk::validateRawSector\lBlock">
<polygon fill="white" stroke="black" points="122,-0.5 122,-30.5 265,-30.5 265,-0.5 122,-0.5"/>
<text text-anchor="start" x="130" y="-18.5" font-family="Helvetica,sans-Serif" font-size="10.00">H17Disk::validateRawSector</text>
<text text-anchor="middle" x="193.5" y="-7.5" font-family="Helvetica,sans-Serif" font-size="10.00">Block</text>
</a>
</g>
</g>
<!-- Node1&#45;&gt;Node3 -->
<g id="edge2" class="edge"><title>Node1&#45;&gt;Node3</title>
<path fill="none" stroke="midnightblue" d="M96.0912,-29.7828C104.429,-28.5476 113.176,-27.2516 121.858,-25.9654"/>
<polygon fill="midnightblue" stroke="midnightblue" points="95.536,-26.3267 86.1569,-31.2545 96.5619,-33.2512 95.536,-26.3267"/>
</g>
<!-- Node4 -->
<g id="node4" class="node"><title>Node4</title>
<g id="a_node4"><a xlink:href="classH17Disk.html#a8f0fa7dbd52e633a2faa267e453cc486" target="_top" xlink:title="H17Disk::validateRawTrack\lBlock">
<polygon fill="white" stroke="black" points="301,-0.5 301,-30.5 441,-30.5 441,-0.5 301,-0.5"/>
<text text-anchor="start" x="309" y="-18.5" font-family="Helvetica,sans-Serif" font-size="10.00">H17Disk::validateRawTrack</text>
<text text-anchor="middle" x="371" y="-7.5" font-family="Helvetica,sans-Serif" font-size="10.00">Block</text>
</a>
</g>
</g>
<!-- Node3&#45;&gt;Node4 -->
<g id="edge3" class="edge"><title>Node3&#45;&gt;Node4</title>
<path fill="none" stroke="midnightblue" d="M275.171,-15.5C283.783,-15.5 292.487,-15.5 300.947,-15.5"/>
<polygon fill="midnightblue" stroke="midnightblue" points="275.124,-12.0001 265.124,-15.5 275.124,-19.0001 275.124,-12.0001"/>
</g>
<!-- Node5 -->
<g id="node5" class="node"><title>Node5</title>
<g id="a_node5"><a xlink:href="classH17Disk.html#ae1f57f11daa4d4c624d255851838d704" target="_top" xlink:title="H17Disk::validateRawData\lBlock">
<polygon fill="white" stroke="black" points="477,-0.5 477,-30.5 613,-30.5 613,-0.5 477,-0.5"/>
<text text-anchor="start" x="485" y="-18.5" font-family="Helvetica,sans-Serif" font-size="10.00">H17Disk::validateRawData</text>
<text text-anchor="middle" x="545" y="-7.5" font-family="Helvetica,sans-Serif" font-size="10.00">Block</text>
</a>
</g>
</g>
<!-- Node4&#45;&gt;Node5 -->
<g id="edge4" class="edge"><title>Node4&#45;&gt;Node5</title>
<path fill="none" stroke="midnightblue" d="M451.654,-15.5C460.059,-15.5 468.545,-15.5 476.789,-15.5"/>
<polygon fill="midnightblue" stroke="midnightblue" points="451.463,-12.0001 441.463,-15.5 451.463,-19.0001 451.463,-12.0001"/>
</g>
<!-- Node6 -->
<g id="node6" class="node"><title>Node6</title>
<g id="a_node6"><a xlink:href="classH17Disk.html#a29f4d35fba24f0d9cee37bcb02120a6c" target="_top" xlink:title="H17Disk::validateBlock">
<polygon fill="white" stroke="black" points="649,-6 649,-25 768,-25 768,-6 649,-6"/>
<text text-anchor="middle" x="708.5" y="-13" font-family="Helvetica,sans-Serif" font-size="10.00">H17Disk::validateBlock</text>
</a>
</g>
</g>
<!-- Node5&#45;&gt;Node6 -->
<g id="edge5" class="edge"><title>Node5&#45;&gt;Node6</title>
<path fill="none" stroke="midnightblue" d="M623.178,-15.5C631.815,-15.5 640.507,-15.5 648.857,-15.5"/>
<polygon fill="midnightblue" stroke="midnightblue" points="623.088,-12.0001 613.088,-15.5 623.087,-19.0001 623.088,-12.0001"/>
</g>
<!-- Node7 -->
<g id="node7" class="node"><title>Node7</title>
<g id="a_node7"><a xlink:href="classH17Disk.html#ada058d8b970b4e72569e2fe000817f75" target="_top" xlink:title="H17Disk::decodeBuffer">
<polygon fill="white" stroke="black" points="804,-6 804,-25 923,-25 923,-6 804,-6"/>
<text text-anchor="middle" x="863.5" y="-13" font-family="Helvetica,sans-Serif" font-size="10.00">H17Disk::decodeBuffer</text>
</a>
</g>
</g>
<!-- Node6&#45;&gt;Node7 -->
<g id="edge6" class="edge"><title>Node6&#45;&gt;Node7</title>
<path fill="none" stroke="midnightblue" d="M778.493,-15.5C786.993,-15.5 795.617,-15.5 803.941,-15.5"/>
<polygon fill="midnightblue" stroke="midnightblue" points="778.216,-12.0001 768.216,-15.5 778.216,-19.0001 778.216,-12.0001"/>
</g>
<!-- Node8 -->
<g id="node8" class="node"><title>Node8</title>
<g id="a_node8"><a xlink:href="classH17Disk.html#a503d2a03bfe0f9bbe3a8bd8dc7d2ec17" target="_top" xlink:title="H17Disk::decodeFile">
<polygon fill="white" stroke="black" points="959,-6 959,-25 1067,-25 1067,-6 959,-6"/>
<text text-anchor="middle" x="1013" y="-13" font-family="Helvetica,sans-Serif" font-size="10.00">H17Disk::decodeFile</text>
</a>
</g>
</g>
<!-- Node7&#45;&gt;Node8 -->
<g id="edge7" class="edge"><title>Node7&#45;&gt;Node8</title>
<path fill="none" stroke="midnightblue" d="M933.494,-15.5C941.976,-15.5 950.542,-15.5 958.741,-15.5"/>
<polygon fill="midnightblue" stroke="midnightblue" points="933.22,-12.0001 923.22,-15.5 933.22,-19.0001 933.22,-12.0001"/>
</g>
</g>
</svg>
