<?xml version="1.0" encoding="UTF-8" standalone="no"?>
<!DOCTYPE svg PUBLIC "-//W3C//DTD SVG 1.1//EN"
 "http://www.w3.org/Graphics/SVG/1.1/DTD/svg11.dtd">
<!-- Generated by graphviz version 2.38.0 (20140413.2041)
 -->
<!-- Title: h17disk.cpp Pages: 1 -->
<svg width="618pt" height="196pt"
 viewBox="0.00 0.00 618.00 196.00" xmlns="http://www.w3.org/2000/svg" xmlns:xlink="http://www.w3.org/1999/xlink">
<g id="graph0" class="graph" transform="scale(1 1) rotate(0) translate(4 192)">
<title>h17disk.cpp</title>
<polygon fill="white" stroke="none" points="-4,4 -4,-192 614,-192 614,4 -4,4"/>
<!-- Node1 -->
<g id="node1" class="node"><title>Node1</title>
<polygon fill="#bfbfbf" stroke="black" points="277.5,-168.5 277.5,-187.5 346.5,-187.5 346.5,-168.5 277.5,-168.5"/>
<text text-anchor="middle" x="312" y="-175.5" font-family="Helvetica,sans-Serif" font-size="10.00">h17disk.cpp</text>
</g>
<!-- Node2 -->
<g id="node2" class="node"><title>Node2</title>
<g id="a_node2"><a xlink:href="h17disk_8h.html" target="_top" xlink:title="h17disk.h">
<polygon fill="white" stroke="black" points="86.5,-112.5 86.5,-131.5 145.5,-131.5 145.5,-112.5 86.5,-112.5"/>
<text text-anchor="middle" x="116" y="-119.5" font-family="Helvetica,sans-Serif" font-size="10.00">h17disk.h</text>
</a>
</g>
</g>
<!-- Node1&#45;&gt;Node2 -->
<g id="edge1" class="edge"><title>Node1&#45;&gt;Node2</title>
<path fill="none" stroke="midnightblue" d="M280.943,-168.444C247.002,-159.092 192.539,-144.087 155.563,-133.9"/>
<polygon fill="midnightblue" stroke="midnightblue" points="156.199,-130.445 145.628,-131.163 154.34,-137.193 156.199,-130.445"/>
</g>
<!-- Node7 -->
<g id="node7" class="node"><title>Node7</title>
<g id="a_node7"><a xlink:href="disk__util_8h.html" target="_top" xlink:title="disk_util.h">
<polygon fill="white" stroke="black" points="474.5,-112.5 474.5,-131.5 535.5,-131.5 535.5,-112.5 474.5,-112.5"/>
<text text-anchor="middle" x="505" y="-119.5" font-family="Helvetica,sans-Serif" font-size="10.00">disk_util.h</text>
</a>
</g>
</g>
<!-- Node1&#45;&gt;Node7 -->
<g id="edge6" class="edge"><title>Node1&#45;&gt;Node7</title>
<path fill="none" stroke="midnightblue" d="M342.581,-168.444C375.615,-159.201 428.388,-144.436 464.766,-134.257"/>
<polygon fill="midnightblue" stroke="midnightblue" points="465.875,-137.582 474.562,-131.516 463.988,-130.84 465.875,-137.582"/>
</g>
<!-- Node10 -->
<g id="node10" class="node"><title>Node10</title>
<g id="a_node10"><a xlink:href="h17block_8h.html" target="_top" xlink:title="h17block.h">
<polygon fill="white" stroke="black" points="164,-112.5 164,-131.5 228,-131.5 228,-112.5 164,-112.5"/>
<text text-anchor="middle" x="196" y="-119.5" font-family="Helvetica,sans-Serif" font-size="10.00">h17block.h</text>
</a>
</g>
</g>
<!-- Node1&#45;&gt;Node10 -->
<g id="edge9" class="edge"><title>Node1&#45;&gt;Node10</title>
<path fill="none" stroke="midnightblue" d="M293.619,-168.444C274.784,-159.675 245.269,-145.935 223.621,-135.858"/>
<polygon fill="midnightblue" stroke="midnightblue" points="224.838,-132.564 214.295,-131.516 221.883,-138.91 224.838,-132.564"/>
</g>
<!-- Node11 -->
<g id="node11" class="node"><title>Node11</title>
<g id="a_node11"><a xlink:href="decode_8h.html" target="_top" xlink:title="decode.h">
<polygon fill="white" stroke="black" points="554,-112.5 554,-131.5 610,-131.5 610,-112.5 554,-112.5"/>
<text text-anchor="middle" x="582" y="-119.5" font-family="Helvetica,sans-Serif" font-size="10.00">decode.h</text>
</a>
</g>
</g>
<!-- Node1&#45;&gt;Node11 -->
<g id="edge14" class="edge"><title>Node1&#45;&gt;Node11</title>
<path fill="none" stroke="midnightblue" d="M346.844,-170.808C390.529,-162.927 467.941,-148.575 543.577,-132.232"/>
<polygon fill="midnightblue" stroke="midnightblue" points="544.723,-135.564 553.75,-130.019 543.235,-128.724 544.723,-135.564"/>
</g>
<!-- Node12 -->
<g id="node12" class="node"><title>Node12</title>
<g id="a_node12"><a xlink:href="sector_8h.html" target="_top" xlink:title="sector.h">
<polygon fill="white" stroke="black" points="246,-112.5 246,-131.5 298,-131.5 298,-112.5 246,-112.5"/>
<text text-anchor="middle" x="272" y="-119.5" font-family="Helvetica,sans-Serif" font-size="10.00">sector.h</text>
</a>
</g>
</g>
<!-- Node1&#45;&gt;Node12 -->
<g id="edge16" class="edge"><title>Node1&#45;&gt;Node12</title>
<path fill="none" stroke="midnightblue" d="M305.395,-168.083C299.745,-160.455 291.455,-149.264 284.549,-139.941"/>
<polygon fill="midnightblue" stroke="midnightblue" points="287.247,-137.703 278.482,-131.751 281.622,-141.87 287.247,-137.703"/>
</g>
<!-- Node13 -->
<g id="node13" class="node"><title>Node13</title>
<g id="a_node13"><a xlink:href="raw__sector_8h.html" target="_top" xlink:title="raw_sector.h">
<polygon fill="white" stroke="black" points="316.5,-112.5 316.5,-131.5 389.5,-131.5 389.5,-112.5 316.5,-112.5"/>
<text text-anchor="middle" x="353" y="-119.5" font-family="Helvetica,sans-Serif" font-size="10.00">raw_sector.h</text>
</a>
</g>
</g>
<!-- Node1&#45;&gt;Node13 -->
<g id="edge20" class="edge"><title>Node1&#45;&gt;Node13</title>
<path fill="none" stroke="midnightblue" d="M318.77,-168.083C324.562,-160.455 333.058,-149.264 340.138,-139.941"/>
<polygon fill="midnightblue" stroke="midnightblue" points="343.096,-141.832 346.356,-131.751 337.521,-137.599 343.096,-141.832"/>
</g>
<!-- Node14 -->
<g id="node14" class="node"><title>Node14</title>
<g id="a_node14"><a xlink:href="raw__track_8h.html" target="_top" xlink:title="raw_track.h">
<polygon fill="white" stroke="black" points="0,-112.5 0,-131.5 68,-131.5 68,-112.5 0,-112.5"/>
<text text-anchor="middle" x="34" y="-119.5" font-family="Helvetica,sans-Serif" font-size="10.00">raw_track.h</text>
</a>
</g>
</g>
<!-- Node1&#45;&gt;Node14 -->
<g id="edge24" class="edge"><title>Node1&#45;&gt;Node14</title>
<path fill="none" stroke="midnightblue" d="M277.322,-170.552C233.325,-162.328 154.85,-147.521 78.0931,-132.194"/>
<polygon fill="midnightblue" stroke="midnightblue" points="78.7492,-128.756 68.2567,-130.225 77.3752,-135.62 78.7492,-128.756"/>
</g>
<!-- Node15 -->
<g id="node15" class="node"><title>Node15</title>
<g id="a_node15"><a xlink:href="dump_8h.html" target="_top" xlink:title="dump.h">
<polygon fill="white" stroke="black" points="407.5,-112.5 407.5,-131.5 456.5,-131.5 456.5,-112.5 407.5,-112.5"/>
<text text-anchor="middle" x="432" y="-119.5" font-family="Helvetica,sans-Serif" font-size="10.00">dump.h</text>
</a>
</g>
</g>
<!-- Node1&#45;&gt;Node15 -->
<g id="edge28" class="edge"><title>Node1&#45;&gt;Node15</title>
<path fill="none" stroke="midnightblue" d="M331.014,-168.444C350.588,-159.636 381.308,-145.812 403.729,-135.722"/>
<polygon fill="midnightblue" stroke="midnightblue" points="405.392,-138.812 413.075,-131.516 402.519,-132.428 405.392,-138.812"/>
</g>
<!-- Node3 -->
<g id="node3" class="node"><title>Node3</title>
<polygon fill="white" stroke="#bfbfbf" points="200,-56.5 200,-75.5 254,-75.5 254,-56.5 200,-56.5"/>
<text text-anchor="middle" x="227" y="-63.5" font-family="Helvetica,sans-Serif" font-size="10.00">iostream</text>
</g>
<!-- Node2&#45;&gt;Node3 -->
<g id="edge2" class="edge"><title>Node2&#45;&gt;Node3</title>
<path fill="none" stroke="midnightblue" d="M133.834,-112.324C151.716,-103.625 179.475,-90.1202 200.046,-80.113"/>
<polygon fill="midnightblue" stroke="midnightblue" points="201.749,-83.1765 209.21,-75.6545 198.687,-76.8819 201.749,-83.1765"/>
</g>
<!-- Node4 -->
<g id="node4" class="node"><title>Node4</title>
<polygon fill="white" stroke="#bfbfbf" points="132,-56.5 132,-75.5 182,-75.5 182,-56.5 132,-56.5"/>
<text text-anchor="middle" x="157" y="-63.5" font-family="Helvetica,sans-Serif" font-size="10.00">fstream</text>
</g>
<!-- Node2&#45;&gt;Node4 -->
<g id="edge3" class="edge"><title>Node2&#45;&gt;Node4</title>
<path fill="none" stroke="midnightblue" d="M122.77,-112.083C128.562,-104.455 137.058,-93.2645 144.138,-83.9408"/>
<polygon fill="midnightblue" stroke="midnightblue" points="147.096,-85.8321 150.356,-75.7511 141.521,-81.5991 147.096,-85.8321"/>
</g>
<!-- Node5 -->
<g id="node5" class="node"><title>Node5</title>
<polygon fill="white" stroke="#bfbfbf" points="70,-56.5 70,-75.5 114,-75.5 114,-56.5 70,-56.5"/>
<text text-anchor="middle" x="92" y="-63.5" font-family="Helvetica,sans-Serif" font-size="10.00">vector</text>
</g>
<!-- Node2&#45;&gt;Node5 -->
<g id="edge4" class="edge"><title>Node2&#45;&gt;Node5</title>
<path fill="none" stroke="midnightblue" d="M112.037,-112.083C108.787,-104.77 104.081,-94.1814 100.046,-85.1034"/>
<polygon fill="midnightblue" stroke="midnightblue" points="103.149,-83.4677 95.8894,-75.7511 96.7525,-86.3107 103.149,-83.4677"/>
</g>
<!-- Node6 -->
<g id="node6" class="node"><title>Node6</title>
<polygon fill="white" stroke="#bfbfbf" points="272,-56.5 272,-75.5 318,-75.5 318,-56.5 272,-56.5"/>
<text text-anchor="middle" x="295" y="-63.5" font-family="Helvetica,sans-Serif" font-size="10.00">cstdint</text>
</g>
<!-- Node2&#45;&gt;Node6 -->
<g id="edge5" class="edge"><title>Node2&#45;&gt;Node6</title>
<path fill="none" stroke="midnightblue" d="M144.363,-112.444C176.346,-102.795 228.282,-87.1273 262.041,-76.9429"/>
<polygon fill="midnightblue" stroke="midnightblue" points="263.33,-80.2101 271.893,-73.971 261.308,-73.5084 263.33,-80.2101"/>
</g>
<!-- Node8 -->
<g id="node8" class="node"><title>Node8</title>
<g id="a_node8"><a xlink:href="hi__types_8h.html" target="_top" xlink:title="hi_types.h">
<polygon fill="white" stroke="black" points="512,-56.5 512,-75.5 574,-75.5 574,-56.5 512,-56.5"/>
<text text-anchor="middle" x="543" y="-63.5" font-family="Helvetica,sans-Serif" font-size="10.00">hi_types.h</text>
</a>
</g>
</g>
<!-- Node7&#45;&gt;Node8 -->
<g id="edge7" class="edge"><title>Node7&#45;&gt;Node8</title>
<path fill="none" stroke="midnightblue" d="M511.275,-112.083C516.642,-104.455 524.518,-93.2645 531.079,-83.9408"/>
<polygon fill="midnightblue" stroke="midnightblue" points="533.949,-85.9434 536.842,-75.7511 528.225,-81.9149 533.949,-85.9434"/>
</g>
<!-- Node9 -->
<g id="node9" class="node"><title>Node9</title>
<polygon fill="white" stroke="#bfbfbf" points="518.5,-0.5 518.5,-19.5 567.5,-19.5 567.5,-0.5 518.5,-0.5"/>
<text text-anchor="middle" x="543" y="-7.5" font-family="Helvetica,sans-Serif" font-size="10.00">stdint.h</text>
</g>
<!-- Node8&#45;&gt;Node9 -->
<g id="edge8" class="edge"><title>Node8&#45;&gt;Node9</title>
<path fill="none" stroke="midnightblue" d="M543,-56.083C543,-49.0059 543,-38.8611 543,-29.9865"/>
<polygon fill="midnightblue" stroke="midnightblue" points="546.5,-29.751 543,-19.7511 539.5,-29.7511 546.5,-29.751"/>
</g>
<!-- Node10&#45;&gt;Node3 -->
<g id="edge10" class="edge"><title>Node10&#45;&gt;Node3</title>
<path fill="none" stroke="midnightblue" d="M201.119,-112.083C205.408,-104.613 211.658,-93.7244 216.942,-84.5199"/>
<polygon fill="midnightblue" stroke="midnightblue" points="220.033,-86.1662 221.976,-75.7511 213.962,-82.6811 220.033,-86.1662"/>
</g>
<!-- Node10&#45;&gt;Node4 -->
<g id="edge11" class="edge"><title>Node10&#45;&gt;Node4</title>
<path fill="none" stroke="midnightblue" d="M189.56,-112.083C184.051,-104.455 175.969,-93.2645 169.235,-83.9408"/>
<polygon fill="midnightblue" stroke="midnightblue" points="172.013,-81.8087 163.32,-75.7511 166.338,-85.9071 172.013,-81.8087"/>
</g>
<!-- Node10&#45;&gt;Node5 -->
<g id="edge13" class="edge"><title>Node10&#45;&gt;Node5</title>
<path fill="none" stroke="midnightblue" d="M179.291,-112.324C162.688,-103.703 136.998,-90.3643 117.78,-80.3855"/>
<polygon fill="midnightblue" stroke="midnightblue" points="119.156,-77.1565 108.668,-75.6545 115.93,-83.3689 119.156,-77.1565"/>
</g>
<!-- Node10&#45;&gt;Node6 -->
<g id="edge12" class="edge"><title>Node10&#45;&gt;Node6</title>
<path fill="none" stroke="midnightblue" d="M211.906,-112.324C227.638,-103.743 251.942,-90.486 270.209,-80.5224"/>
<polygon fill="midnightblue" stroke="midnightblue" points="272.03,-83.5157 279.133,-75.6545 268.678,-77.3704 272.03,-83.5157"/>
</g>
<!-- Node11&#45;&gt;Node8 -->
<g id="edge15" class="edge"><title>Node11&#45;&gt;Node8</title>
<path fill="none" stroke="midnightblue" d="M575.56,-112.083C570.051,-104.455 561.969,-93.2645 555.235,-83.9408"/>
<polygon fill="midnightblue" stroke="midnightblue" points="558.013,-81.8087 549.32,-75.7511 552.338,-85.9071 558.013,-81.8087"/>
</g>
<!-- Node12&#45;&gt;Node3 -->
<g id="edge17" class="edge"><title>Node12&#45;&gt;Node3</title>
<path fill="none" stroke="midnightblue" d="M264.569,-112.083C258.147,-104.377 248.694,-93.0333 240.878,-83.6531"/>
<polygon fill="midnightblue" stroke="midnightblue" points="243.383,-81.1927 234.293,-75.7511 238.006,-85.674 243.383,-81.1927"/>
</g>
<!-- Node12&#45;&gt;Node4 -->
<g id="edge18" class="edge"><title>Node12&#45;&gt;Node4</title>
<path fill="none" stroke="midnightblue" d="M253.778,-112.444C235.104,-103.675 205.844,-89.9355 184.383,-79.8579"/>
<polygon fill="midnightblue" stroke="midnightblue" points="185.676,-76.5988 175.137,-75.5164 182.701,-82.935 185.676,-76.5988"/>
</g>
<!-- Node12&#45;&gt;Node6 -->
<g id="edge19" class="edge"><title>Node12&#45;&gt;Node6</title>
<path fill="none" stroke="midnightblue" d="M275.798,-112.083C278.913,-104.77 283.423,-94.1814 287.289,-85.1034"/>
<polygon fill="midnightblue" stroke="midnightblue" points="290.574,-86.3229 291.273,-75.7511 284.134,-83.5798 290.574,-86.3229"/>
</g>
<!-- Node13&#45;&gt;Node3 -->
<g id="edge21" class="edge"><title>Node13&#45;&gt;Node3</title>
<path fill="none" stroke="midnightblue" d="M333.035,-112.444C312.391,-103.596 279.937,-89.6875 256.368,-79.5865"/>
<polygon fill="midnightblue" stroke="midnightblue" points="257.442,-76.2387 246.872,-75.5164 254.684,-82.6727 257.442,-76.2387"/>
</g>
<!-- Node13&#45;&gt;Node4 -->
<g id="edge22" class="edge"><title>Node13&#45;&gt;Node4</title>
<path fill="none" stroke="midnightblue" d="M321.943,-112.444C286.522,-102.685 228.751,-86.768 191.828,-76.5956"/>
<polygon fill="midnightblue" stroke="midnightblue" points="192.574,-73.1706 182.003,-73.8886 190.714,-79.9191 192.574,-73.1706"/>
</g>
<!-- Node13&#45;&gt;Node6 -->
<g id="edge23" class="edge"><title>Node13&#45;&gt;Node6</title>
<path fill="none" stroke="midnightblue" d="M343.681,-112.324C335.107,-104.341 322.188,-92.3128 311.812,-82.6529"/>
<polygon fill="midnightblue" stroke="midnightblue" points="314.192,-80.0865 304.488,-75.8339 309.422,-85.2098 314.192,-80.0865"/>
</g>
<!-- Node14&#45;&gt;Node3 -->
<g id="edge26" class="edge"><title>Node14&#45;&gt;Node3</title>
<path fill="none" stroke="midnightblue" d="M64.5814,-112.444C98.6833,-102.902 153.823,-87.4744 190.244,-77.2841"/>
<polygon fill="midnightblue" stroke="midnightblue" points="191.3,-80.6231 199.987,-74.558 189.414,-73.882 191.3,-80.6231"/>
</g>
<!-- Node14&#45;&gt;Node4 -->
<g id="edge27" class="edge"><title>Node14&#45;&gt;Node4</title>
<path fill="none" stroke="midnightblue" d="M53.4897,-112.444C73.6422,-103.596 105.323,-89.6875 128.331,-79.5865"/>
<polygon fill="midnightblue" stroke="midnightblue" points="129.852,-82.7411 137.601,-75.5164 127.038,-76.3316 129.852,-82.7411"/>
</g>
<!-- Node14&#45;&gt;Node5 -->
<g id="edge25" class="edge"><title>Node14&#45;&gt;Node5</title>
<path fill="none" stroke="midnightblue" d="M43.3187,-112.324C51.8926,-104.341 64.8122,-92.3128 75.1876,-82.6529"/>
<polygon fill="midnightblue" stroke="midnightblue" points="77.5777,-85.2098 82.5117,-75.8339 72.8078,-80.0865 77.5777,-85.2098"/>
</g>
<!-- Node15&#45;&gt;Node6 -->
<g id="edge29" class="edge"><title>Node15&#45;&gt;Node6</title>
<path fill="none" stroke="midnightblue" d="M410.292,-112.444C387.645,-103.517 351.928,-89.4387 326.248,-79.3168"/>
<polygon fill="midnightblue" stroke="midnightblue" points="327.193,-75.9273 316.606,-75.5164 324.626,-82.4397 327.193,-75.9273"/>
</g>
</g>
</svg>
