<?xml version="1.0" encoding="UTF-8" standalone="no"?>
<!DOCTYPE svg PUBLIC "-//W3C//DTD SVG 1.1//EN"
 "http://www.w3.org/Graphics/SVG/1.1/DTD/svg11.dtd">
<!-- Generated by graphviz version 2.38.0 (20140413.2041)
 -->
<!-- Title: h17disk.h Pages: 1 -->
<svg width="430pt" height="84pt"
 viewBox="0.00 0.00 430.00 84.00" xmlns="http://www.w3.org/2000/svg" xmlns:xlink="http://www.w3.org/1999/xlink">
<g id="graph0" class="graph" transform="scale(1 1) rotate(0) translate(4 80)">
<title>h17disk.h</title>
<polygon fill="white" stroke="none" points="-4,4 -4,-80 426,-80 426,4 -4,4"/>
<!-- Node1 -->
<g id="node1" class="node"><title>Node1</title>
<polygon fill="#bfbfbf" stroke="black" points="198,-56.5 198,-75.5 257,-75.5 257,-56.5 198,-56.5"/>
<text text-anchor="middle" x="227.5" y="-63.5" font-family="Helvetica,sans-Serif" font-size="10.00">h17disk.h</text>
</g>
<!-- Node2 -->
<g id="node2" class="node"><title>Node2</title>
<g id="a_node2"><a xlink:href="h17disk_8cpp.html" target="_top" xlink:title="h17disk.cpp">
<polygon fill="white" stroke="black" points="0,-0.5 0,-19.5 69,-19.5 69,-0.5 0,-0.5"/>
<text text-anchor="middle" x="34.5" y="-7.5" font-family="Helvetica,sans-Serif" font-size="10.00">h17disk.cpp</text>
</a>
</g>
</g>
<!-- Node1&#45;&gt;Node2 -->
<g id="edge1" class="edge"><title>Node1&#45;&gt;Node2</title>
<path fill="none" stroke="midnightblue" d="M187.961,-53.9373C151.498,-43.7352 98.1362,-28.8049 64.9043,-19.5069"/>
<polygon fill="midnightblue" stroke="midnightblue" points="187.193,-57.3569 197.767,-56.6808 189.08,-50.6158 187.193,-57.3569"/>
</g>
<!-- Node3 -->
<g id="node3" class="node"><title>Node3</title>
<g id="a_node3"><a xlink:href="raw__sector_8cpp.html" target="_top" xlink:title="raw_sector.cpp">
<polygon fill="white" stroke="black" points="87,-0.5 87,-19.5 170,-19.5 170,-0.5 87,-0.5"/>
<text text-anchor="middle" x="128.5" y="-7.5" font-family="Helvetica,sans-Serif" font-size="10.00">raw_sector.cpp</text>
</a>
</g>
</g>
<!-- Node1&#45;&gt;Node3 -->
<g id="edge2" class="edge"><title>Node1&#45;&gt;Node3</title>
<path fill="none" stroke="midnightblue" d="M202.663,-51.4526C184.386,-41.4835 160.084,-28.2279 144.367,-19.6545"/>
<polygon fill="midnightblue" stroke="midnightblue" points="201.139,-54.608 211.594,-56.324 204.491,-48.4628 201.139,-54.608"/>
</g>
<!-- Node4 -->
<g id="node4" class="node"><title>Node4</title>
<g id="a_node4"><a xlink:href="raw__track_8cpp.html" target="_top" xlink:title="raw_track.cpp">
<polygon fill="white" stroke="black" points="188.5,-0.5 188.5,-19.5 266.5,-19.5 266.5,-0.5 188.5,-0.5"/>
<text text-anchor="middle" x="227.5" y="-7.5" font-family="Helvetica,sans-Serif" font-size="10.00">raw_track.cpp</text>
</a>
</g>
</g>
<!-- Node1&#45;&gt;Node4 -->
<g id="edge3" class="edge"><title>Node1&#45;&gt;Node4</title>
<path fill="none" stroke="midnightblue" d="M227.5,-45.8045C227.5,-36.9102 227.5,-26.7798 227.5,-19.7511"/>
<polygon fill="midnightblue" stroke="midnightblue" points="224,-46.083 227.5,-56.083 231,-46.083 224,-46.083"/>
</g>
<!-- Node5 -->
<g id="node5" class="node"><title>Node5</title>
<g id="a_node5"><a xlink:href="sector_8cpp.html" target="_top" xlink:title="sector.cpp">
<polygon fill="white" stroke="black" points="284.5,-0.5 284.5,-19.5 346.5,-19.5 346.5,-0.5 284.5,-0.5"/>
<text text-anchor="middle" x="315.5" y="-7.5" font-family="Helvetica,sans-Serif" font-size="10.00">sector.cpp</text>
</a>
</g>
</g>
<!-- Node1&#45;&gt;Node5 -->
<g id="edge4" class="edge"><title>Node1&#45;&gt;Node5</title>
<path fill="none" stroke="midnightblue" d="M250.477,-50.9005C266.613,-40.9986 287.681,-28.0705 301.396,-19.6545"/>
<polygon fill="midnightblue" stroke="midnightblue" points="248.331,-48.1106 241.639,-56.324 251.993,-54.0769 248.331,-48.1106"/>
</g>
<!-- Node6 -->
<g id="node6" class="node"><title>Node6</title>
<g id="a_node6"><a xlink:href="track_8cpp_source.html" target="_top" xlink:title="track.cpp">
<polygon fill="white" stroke="black" points="365,-0.5 365,-19.5 422,-19.5 422,-0.5 365,-0.5"/>
<text text-anchor="middle" x="393.5" y="-7.5" font-family="Helvetica,sans-Serif" font-size="10.00">track.cpp</text>
</a>
</g>
</g>
<!-- Node1&#45;&gt;Node6 -->
<g id="edge5" class="edge"><title>Node1&#45;&gt;Node6</title>
<path fill="none" stroke="midnightblue" d="M263.453,-53.3044C294.732,-43.1294 339.321,-28.6246 367.32,-19.5164"/>
<polygon fill="midnightblue" stroke="midnightblue" points="262.23,-50.0217 253.803,-56.4435 264.395,-56.6783 262.23,-50.0217"/>
</g>
</g>
</svg>
