<?xml version="1.0" encoding="UTF-8" standalone="no"?>
<!DOCTYPE svg PUBLIC "-//W3C//DTD SVG 1.1//EN"
 "http://www.w3.org/Graphics/SVG/1.1/DTD/svg11.dtd">
<!-- Generated by graphviz version 2.38.0 (20140413.2041)
 -->
<!-- Title: printBinary Pages: 1 -->
<svg width="1052pt" height="39pt"
 viewBox="0.00 0.00 1052.00 39.00" xmlns="http://www.w3.org/2000/svg" xmlns:xlink="http://www.w3.org/1999/xlink">
<g id="graph0" class="graph" transform="scale(1 1) rotate(0) translate(4 35)">
<title>printBinary</title>
<polygon fill="white" stroke="none" points="-4,4 -4,-35 1048,-35 1048,4 -4,4"/>
<!-- Node1 -->
<g id="node1" class="node"><title>Node1</title>
<polygon fill="#bfbfbf" stroke="black" points="0,-6 0,-25 63,-25 63,-6 0,-6"/>
<text text-anchor="middle" x="31.5" y="-13" font-family="Helvetica,sans-Serif" font-size="10.00">printBinary</text>
</g>
<!-- Node2 -->
<g id="node2" class="node"><title>Node2</title>
<g id="a_node2"><a xlink:href="classH17Disk.html#a60b9074cacd5a89f4b8e8dfb37bccf08" target="_top" xlink:title="H17Disk::validateRawSector\lBlock">
<polygon fill="white" stroke="black" points="99,-0.5 99,-30.5 242,-30.5 242,-0.5 99,-0.5"/>
<text text-anchor="start" x="107" y="-18.5" font-family="Helvetica,sans-Serif" font-size="10.00">H17Disk::validateRawSector</text>
<text text-anchor="middle" x="170.5" y="-7.5" font-family="Helvetica,sans-Serif" font-size="10.00">Block</text>
</a>
</g>
</g>
<!-- Node1&#45;&gt;Node2 -->
<g id="edge1" class="edge"><title>Node1&#45;&gt;Node2</title>
<path fill="none" stroke="midnightblue" d="M73.4263,-15.5C81.4738,-15.5 90.1307,-15.5 98.8343,-15.5"/>
<polygon fill="midnightblue" stroke="midnightblue" points="73.2455,-12.0001 63.2455,-15.5 73.2454,-19.0001 73.2455,-12.0001"/>
</g>
<!-- Node3 -->
<g id="node3" class="node"><title>Node3</title>
<g id="a_node3"><a xlink:href="classH17Disk.html#a8f0fa7dbd52e633a2faa267e453cc486" target="_top" xlink:title="H17Disk::validateRawTrack\lBlock">
<polygon fill="white" stroke="black" points="278,-0.5 278,-30.5 418,-30.5 418,-0.5 278,-0.5"/>
<text text-anchor="start" x="286" y="-18.5" font-family="Helvetica,sans-Serif" font-size="10.00">H17Disk::validateRawTrack</text>
<text text-anchor="middle" x="348" y="-7.5" font-family="Helvetica,sans-Serif" font-size="10.00">Block</text>
</a>
</g>
</g>
<!-- Node2&#45;&gt;Node3 -->
<g id="edge2" class="edge"><title>Node2&#45;&gt;Node3</title>
<path fill="none" stroke="midnightblue" d="M252.171,-15.5C260.783,-15.5 269.487,-15.5 277.947,-15.5"/>
<polygon fill="midnightblue" stroke="midnightblue" points="252.124,-12.0001 242.124,-15.5 252.124,-19.0001 252.124,-12.0001"/>
</g>
<!-- Node4 -->
<g id="node4" class="node"><title>Node4</title>
<g id="a_node4"><a xlink:href="classH17Disk.html#ae1f57f11daa4d4c624d255851838d704" target="_top" xlink:title="H17Disk::validateRawData\lBlock">
<polygon fill="white" stroke="black" points="454,-0.5 454,-30.5 590,-30.5 590,-0.5 454,-0.5"/>
<text text-anchor="start" x="462" y="-18.5" font-family="Helvetica,sans-Serif" font-size="10.00">H17Disk::validateRawData</text>
<text text-anchor="middle" x="522" y="-7.5" font-family="Helvetica,sans-Serif" font-size="10.00">Block</text>
</a>
</g>
</g>
<!-- Node3&#45;&gt;Node4 -->
<g id="edge3" class="edge"><title>Node3&#45;&gt;Node4</title>
<path fill="none" stroke="midnightblue" d="M428.654,-15.5C437.059,-15.5 445.545,-15.5 453.789,-15.5"/>
<polygon fill="midnightblue" stroke="midnightblue" points="428.463,-12.0001 418.463,-15.5 428.463,-19.0001 428.463,-12.0001"/>
</g>
<!-- Node5 -->
<g id="node5" class="node"><title>Node5</title>
<g id="a_node5"><a xlink:href="classH17Disk.html#a29f4d35fba24f0d9cee37bcb02120a6c" target="_top" xlink:title="H17Disk::validateBlock">
<polygon fill="white" stroke="black" points="626,-6 626,-25 745,-25 745,-6 626,-6"/>
<text text-anchor="middle" x="685.5" y="-13" font-family="Helvetica,sans-Serif" font-size="10.00">H17Disk::validateBlock</text>
</a>
</g>
</g>
<!-- Node4&#45;&gt;Node5 -->
<g id="edge4" class="edge"><title>Node4&#45;&gt;Node5</title>
<path fill="none" stroke="midnightblue" d="M600.178,-15.5C608.815,-15.5 617.507,-15.5 625.857,-15.5"/>
<polygon fill="midnightblue" stroke="midnightblue" points="600.088,-12.0001 590.088,-15.5 600.087,-19.0001 600.088,-12.0001"/>
</g>
<!-- Node6 -->
<g id="node6" class="node"><title>Node6</title>
<g id="a_node6"><a xlink:href="classH17Disk.html#ada058d8b970b4e72569e2fe000817f75" target="_top" xlink:title="H17Disk::decodeBuffer">
<polygon fill="white" stroke="black" points="781,-6 781,-25 900,-25 900,-6 781,-6"/>
<text text-anchor="middle" x="840.5" y="-13" font-family="Helvetica,sans-Serif" font-size="10.00">H17Disk::decodeBuffer</text>
</a>
</g>
</g>
<!-- Node5&#45;&gt;Node6 -->
<g id="edge5" class="edge"><title>Node5&#45;&gt;Node6</title>
<path fill="none" stroke="midnightblue" d="M755.493,-15.5C763.993,-15.5 772.617,-15.5 780.941,-15.5"/>
<polygon fill="midnightblue" stroke="midnightblue" points="755.216,-12.0001 745.216,-15.5 755.216,-19.0001 755.216,-12.0001"/>
</g>
<!-- Node7 -->
<g id="node7" class="node"><title>Node7</title>
<g id="a_node7"><a xlink:href="classH17Disk.html#a503d2a03bfe0f9bbe3a8bd8dc7d2ec17" target="_top" xlink:title="H17Disk::decodeFile">
<polygon fill="white" stroke="black" points="936,-6 936,-25 1044,-25 1044,-6 936,-6"/>
<text text-anchor="middle" x="990" y="-13" font-family="Helvetica,sans-Serif" font-size="10.00">H17Disk::decodeFile</text>
</a>
</g>
</g>
<!-- Node6&#45;&gt;Node7 -->
<g id="edge6" class="edge"><title>Node6&#45;&gt;Node7</title>
<path fill="none" stroke="midnightblue" d="M910.494,-15.5C918.976,-15.5 927.542,-15.5 935.741,-15.5"/>
<polygon fill="midnightblue" stroke="midnightblue" points="910.22,-12.0001 900.22,-15.5 910.22,-19.0001 910.22,-12.0001"/>
</g>
</g>
</svg>
