<?xml version="1.0" encoding="UTF-8" standalone="no"?>
<!DOCTYPE svg PUBLIC "-//W3C//DTD SVG 1.1//EN"
 "http://www.w3.org/Graphics/SVG/1.1/DTD/svg11.dtd">
<!-- Generated by graphviz version 2.38.0 (20140413.2041)
 -->
<!-- Title: heath_hs.h Pages: 1 -->
<svg width="73pt" height="196pt"
 viewBox="0.00 0.00 73.00 196.00" xmlns="http://www.w3.org/2000/svg" xmlns:xlink="http://www.w3.org/1999/xlink">
<g id="graph0" class="graph" transform="scale(1 1) rotate(0) translate(4 192)">
<title>heath_hs.h</title>
<polygon fill="white" stroke="none" points="-4,4 -4,-192 69,-192 69,4 -4,4"/>
<!-- Node1 -->
<g id="node1" class="node"><title>Node1</title>
<polygon fill="#bfbfbf" stroke="black" points="0,-168.5 0,-187.5 65,-187.5 65,-168.5 0,-168.5"/>
<text text-anchor="middle" x="32.5" y="-175.5" font-family="Helvetica,sans-Serif" font-size="10.00">heath_hs.h</text>
</g>
<!-- Node2 -->
<g id="node2" class="node"><title>Node2</title>
<g id="a_node2"><a xlink:href="disk_8h.html" target="_top" xlink:title="disk.h">
<polygon fill="white" stroke="black" points="11,-112.5 11,-131.5 54,-131.5 54,-112.5 11,-112.5"/>
<text text-anchor="middle" x="32.5" y="-119.5" font-family="Helvetica,sans-Serif" font-size="10.00">disk.h</text>
</a>
</g>
</g>
<!-- Node1&#45;&gt;Node2 -->
<g id="edge1" class="edge"><title>Node1&#45;&gt;Node2</title>
<path fill="none" stroke="midnightblue" d="M32.5,-168.083C32.5,-161.006 32.5,-150.861 32.5,-141.986"/>
<polygon fill="midnightblue" stroke="midnightblue" points="36.0001,-141.751 32.5,-131.751 29.0001,-141.751 36.0001,-141.751"/>
</g>
<!-- Node3 -->
<g id="node3" class="node"><title>Node3</title>
<g id="a_node3"><a xlink:href="hi__types_8h.html" target="_top" xlink:title="hi_types.h">
<polygon fill="white" stroke="black" points="1.5,-56.5 1.5,-75.5 63.5,-75.5 63.5,-56.5 1.5,-56.5"/>
<text text-anchor="middle" x="32.5" y="-63.5" font-family="Helvetica,sans-Serif" font-size="10.00">hi_types.h</text>
</a>
</g>
</g>
<!-- Node2&#45;&gt;Node3 -->
<g id="edge2" class="edge"><title>Node2&#45;&gt;Node3</title>
<path fill="none" stroke="midnightblue" d="M32.5,-112.083C32.5,-105.006 32.5,-94.8611 32.5,-85.9865"/>
<polygon fill="midnightblue" stroke="midnightblue" points="36.0001,-85.751 32.5,-75.7511 29.0001,-85.7511 36.0001,-85.751"/>
</g>
<!-- Node4 -->
<g id="node4" class="node"><title>Node4</title>
<polygon fill="white" stroke="#bfbfbf" points="8,-0.5 8,-19.5 57,-19.5 57,-0.5 8,-0.5"/>
<text text-anchor="middle" x="32.5" y="-7.5" font-family="Helvetica,sans-Serif" font-size="10.00">stdint.h</text>
</g>
<!-- Node3&#45;&gt;Node4 -->
<g id="edge3" class="edge"><title>Node3&#45;&gt;Node4</title>
<path fill="none" stroke="midnightblue" d="M32.5,-56.083C32.5,-49.0059 32.5,-38.8611 32.5,-29.9865"/>
<polygon fill="midnightblue" stroke="midnightblue" points="36.0001,-29.751 32.5,-19.7511 29.0001,-29.7511 36.0001,-29.751"/>
</g>
</g>
</svg>
