<?xml version="1.0" encoding="UTF-8" standalone="no"?>
<!DOCTYPE svg PUBLIC "-//W3C//DTD SVG 1.1//EN"
 "http://www.w3.org/Graphics/SVG/1.1/DTD/svg11.dtd">
<!-- Generated by graphviz version 2.38.0 (20140413.2041)
 -->
<!-- Title: raw_sector.h Pages: 1 -->
<svg width="367pt" height="84pt"
 viewBox="0.00 0.00 367.00 84.00" xmlns="http://www.w3.org/2000/svg" xmlns:xlink="http://www.w3.org/1999/xlink">
<g id="graph0" class="graph" transform="scale(1 1) rotate(0) translate(4 80)">
<title>raw_sector.h</title>
<polygon fill="white" stroke="none" points="-4,4 -4,-80 363,-80 363,4 -4,4"/>
<!-- Node1 -->
<g id="node1" class="node"><title>Node1</title>
<polygon fill="#bfbfbf" stroke="black" points="137.5,-56.5 137.5,-75.5 210.5,-75.5 210.5,-56.5 137.5,-56.5"/>
<text text-anchor="middle" x="174" y="-63.5" font-family="Helvetica,sans-Serif" font-size="10.00">raw_sector.h</text>
</g>
<!-- Node2 -->
<g id="node2" class="node"><title>Node2</title>
<g id="a_node2"><a xlink:href="h17block_8cpp.html" target="_top" xlink:title="h17block.cpp">
<polygon fill="white" stroke="black" points="0,-0.5 0,-19.5 74,-19.5 74,-0.5 0,-0.5"/>
<text text-anchor="middle" x="37" y="-7.5" font-family="Helvetica,sans-Serif" font-size="10.00">h17block.cpp</text>
</a>
</g>
</g>
<!-- Node1&#45;&gt;Node2 -->
<g id="edge1" class="edge"><title>Node1&#45;&gt;Node2</title>
<path fill="none" stroke="midnightblue" d="M142.977,-52.772C117.243,-42.6287 81.3141,-28.4669 58.6065,-19.5164"/>
<polygon fill="midnightblue" stroke="midnightblue" points="141.705,-56.0326 152.292,-56.4435 144.272,-49.5203 141.705,-56.0326"/>
</g>
<!-- Node3 -->
<g id="node3" class="node"><title>Node3</title>
<g id="a_node3"><a xlink:href="h17disk_8cpp.html" target="_top" xlink:title="h17disk.cpp">
<polygon fill="white" stroke="black" points="92.5,-0.5 92.5,-19.5 161.5,-19.5 161.5,-0.5 92.5,-0.5"/>
<text text-anchor="middle" x="127" y="-7.5" font-family="Helvetica,sans-Serif" font-size="10.00">h17disk.cpp</text>
</a>
</g>
</g>
<!-- Node1&#45;&gt;Node3 -->
<g id="edge2" class="edge"><title>Node1&#45;&gt;Node3</title>
<path fill="none" stroke="midnightblue" d="M159.579,-48.4314C151.342,-38.9673 141.346,-27.4827 134.617,-19.7511"/>
<polygon fill="midnightblue" stroke="midnightblue" points="157.034,-50.8378 166.239,-56.083 162.314,-46.2421 157.034,-50.8378"/>
</g>
<!-- Node4 -->
<g id="node4" class="node"><title>Node4</title>
<g id="a_node4"><a xlink:href="raw__sector_8cpp.html" target="_top" xlink:title="raw_sector.cpp">
<polygon fill="white" stroke="black" points="179.5,-0.5 179.5,-19.5 262.5,-19.5 262.5,-0.5 179.5,-0.5"/>
<text text-anchor="middle" x="221" y="-7.5" font-family="Helvetica,sans-Serif" font-size="10.00">raw_sector.cpp</text>
</a>
</g>
</g>
<!-- Node1&#45;&gt;Node4 -->
<g id="edge3" class="edge"><title>Node1&#45;&gt;Node4</title>
<path fill="none" stroke="midnightblue" d="M188.421,-48.4314C196.658,-38.9673 206.654,-27.4827 213.383,-19.7511"/>
<polygon fill="midnightblue" stroke="midnightblue" points="185.686,-46.2421 181.761,-56.083 190.966,-50.8378 185.686,-46.2421"/>
</g>
<!-- Node5 -->
<g id="node5" class="node"><title>Node5</title>
<g id="a_node5"><a xlink:href="raw__track_8cpp.html" target="_top" xlink:title="raw_track.cpp">
<polygon fill="white" stroke="black" points="281,-0.5 281,-19.5 359,-19.5 359,-0.5 281,-0.5"/>
<text text-anchor="middle" x="320" y="-7.5" font-family="Helvetica,sans-Serif" font-size="10.00">raw_track.cpp</text>
</a>
</g>
</g>
<!-- Node1&#45;&gt;Node5 -->
<g id="edge4" class="edge"><title>Node1&#45;&gt;Node5</title>
<path fill="none" stroke="midnightblue" d="M206.699,-52.9058C234.148,-42.7536 272.668,-28.5063 296.974,-19.5164"/>
<polygon fill="midnightblue" stroke="midnightblue" points="205.299,-49.6919 197.134,-56.4435 207.727,-56.2572 205.299,-49.6919"/>
</g>
</g>
</svg>
