<?xml version="1.0" encoding="UTF-8" standalone="no"?>
<!DOCTYPE svg PUBLIC "-//W3C//DTD SVG 1.1//EN"
 "http://www.w3.org/Graphics/SVG/1.1/DTD/svg11.dtd">
<!-- Generated by graphviz version 2.38.0 (20140413.2041)
 -->
<!-- Title: sector.h Pages: 1 -->
<svg width="326pt" height="84pt"
 viewBox="0.00 0.00 325.50 84.00" xmlns="http://www.w3.org/2000/svg" xmlns:xlink="http://www.w3.org/1999/xlink">
<g id="graph0" class="graph" transform="scale(1 1) rotate(0) translate(4 80)">
<title>sector.h</title>
<polygon fill="white" stroke="none" points="-4,4 -4,-80 321.5,-80 321.5,4 -4,4"/>
<!-- Node1 -->
<g id="node1" class="node"><title>Node1</title>
<polygon fill="#bfbfbf" stroke="black" points="143,-56.5 143,-75.5 195,-75.5 195,-56.5 143,-56.5"/>
<text text-anchor="middle" x="169" y="-63.5" font-family="Helvetica,sans-Serif" font-size="10.00">sector.h</text>
</g>
<!-- Node2 -->
<g id="node2" class="node"><title>Node2</title>
<g id="a_node2"><a xlink:href="h17block_8cpp.html" target="_top" xlink:title="h17block.cpp">
<polygon fill="white" stroke="black" points="0,-0.5 0,-19.5 74,-19.5 74,-0.5 0,-0.5"/>
<text text-anchor="middle" x="37" y="-7.5" font-family="Helvetica,sans-Serif" font-size="10.00">h17block.cpp</text>
</a>
</g>
</g>
<!-- Node1&#45;&gt;Node2 -->
<g id="edge1" class="edge"><title>Node1&#45;&gt;Node2</title>
<path fill="none" stroke="midnightblue" d="M138.781,-52.6377C114.01,-42.504 79.6004,-28.4274 57.8179,-19.5164"/>
<polygon fill="midnightblue" stroke="midnightblue" points="137.503,-55.8966 148.084,-56.4435 140.154,-49.4177 137.503,-55.8966"/>
</g>
<!-- Node3 -->
<g id="node3" class="node"><title>Node3</title>
<g id="a_node3"><a xlink:href="h17disk_8cpp.html" target="_top" xlink:title="h17disk.cpp">
<polygon fill="white" stroke="black" points="92.5,-0.5 92.5,-19.5 161.5,-19.5 161.5,-0.5 92.5,-0.5"/>
<text text-anchor="middle" x="127" y="-7.5" font-family="Helvetica,sans-Serif" font-size="10.00">h17disk.cpp</text>
</a>
</g>
</g>
<!-- Node1&#45;&gt;Node3 -->
<g id="edge2" class="edge"><title>Node1&#45;&gt;Node3</title>
<path fill="none" stroke="midnightblue" d="M155.89,-48.144C148.572,-38.7357 139.759,-27.4046 133.806,-19.7511"/>
<polygon fill="midnightblue" stroke="midnightblue" points="153.162,-50.3383 162.065,-56.083 158.688,-46.0406 153.162,-50.3383"/>
</g>
<!-- Node4 -->
<g id="node4" class="node"><title>Node4</title>
<g id="a_node4"><a xlink:href="sector_8cpp.html" target="_top" xlink:title="sector.cpp">
<polygon fill="white" stroke="black" points="180,-0.5 180,-19.5 242,-19.5 242,-0.5 180,-0.5"/>
<text text-anchor="middle" x="211" y="-7.5" font-family="Helvetica,sans-Serif" font-size="10.00">sector.cpp</text>
</a>
</g>
</g>
<!-- Node1&#45;&gt;Node4 -->
<g id="edge3" class="edge"><title>Node1&#45;&gt;Node4</title>
<path fill="none" stroke="midnightblue" d="M182.11,-48.144C189.428,-38.7357 198.241,-27.4046 204.194,-19.7511"/>
<polygon fill="midnightblue" stroke="midnightblue" points="179.312,-46.0406 175.935,-56.083 184.838,-50.3383 179.312,-46.0406"/>
</g>
<!-- Node5 -->
<g id="node5" class="node"><title>Node5</title>
<g id="a_node5"><a xlink:href="track_8cpp_source.html" target="_top" xlink:title="track.cpp">
<polygon fill="white" stroke="black" points="260.5,-0.5 260.5,-19.5 317.5,-19.5 317.5,-0.5 260.5,-0.5"/>
<text text-anchor="middle" x="289" y="-7.5" font-family="Helvetica,sans-Serif" font-size="10.00">track.cpp</text>
</a>
</g>
</g>
<!-- Node1&#45;&gt;Node5 -->
<g id="edge4" class="edge"><title>Node1&#45;&gt;Node5</title>
<path fill="none" stroke="midnightblue" d="M197.373,-52.2321C219.82,-42.1312 250.535,-28.3091 270.075,-19.5164"/>
<polygon fill="midnightblue" stroke="midnightblue" points="195.697,-49.1481 188.014,-56.4435 198.57,-55.5316 195.697,-49.1481"/>
</g>
</g>
</svg>
